<?xml version="1.0" encoding="UTF-8"?>
<!DOCTYPE svg PUBLIC "-//W3C//DTD SVG 1.1//EN" "http://www.w3.org/Graphics/SVG/1.1/DTD/svg11.dtd">
<svg xmlns="http://www.w3.org/2000/svg" version="1.1" width="1280px" height="1280px" style="shape-rendering:geometricPrecision; text-rendering:geometricPrecision; image-rendering:optimizeQuality; fill-rule:evenodd; clip-rule:evenodd" xmlns:xlink="http://www.w3.org/1999/xlink">
<g><path style="opacity:0.969" fill="#fafafa" d="M 120.5,-0.5 C 222.167,-0.5 323.833,-0.5 425.5,-0.5C 427.948,0.473067 430.615,0.8064 433.5,0.5C 433.5,1.5 433.5,2.5 433.5,3.5C 436.833,4.16667 440.167,4.83333 443.5,5.5C 444.18,9.32196 446.513,10.9886 450.5,10.5C 450.5,11.5 450.5,12.5 450.5,13.5C 453.5,13.8333 455.167,15.5 455.5,18.5C 458.5,18.8333 460.167,20.5 460.5,23.5C 463.5,23.8333 465.167,25.5 465.5,28.5C 466.5,28.5 467.5,28.5 468.5,28.5C 469.167,31.8333 469.833,35.1667 470.5,38.5C 471.5,38.5 472.5,38.5 473.5,38.5C 474.167,41.8333 474.833,45.1667 475.5,48.5C 476.5,48.5 477.5,48.5 478.5,48.5C 479.167,51.8333 479.833,55.1667 480.5,58.5C 481.5,58.5 482.5,58.5 483.5,58.5C 484.167,61.8333 484.833,65.1667 485.5,68.5C 695.549,67.8485 905.549,68.5151 1115.5,70.5C 1115.5,71.5 1115.5,72.5 1115.5,73.5C 1118.31,73.6933 1120.98,74.36 1123.5,75.5C 1123.29,77.1788 1123.95,78.1788 1125.5,78.5C 1125.5,79.8333 1126.17,80.5 1127.5,80.5C 1128.17,80.5 1128.5,80.8333 1128.5,81.5C 1128.5,82.8333 1129.17,83.5 1130.5,83.5C 1130.5,84.8333 1131.17,85.5 1132.5,85.5C 1133.58,88.2393 1135.58,89.906 1138.5,90.5C 1139.17,93.8333 1139.83,97.1667 1140.5,100.5C 1141.5,100.5 1142.5,100.5 1143.5,100.5C 1145.35,143.797 1146.02,187.13 1145.5,230.5C 1149.83,230.5 1154.17,230.5 1158.5,230.5C 1158.5,231.5 1158.5,232.5 1158.5,233.5C 1162.57,233.808 1166.57,234.475 1170.5,235.5C 1170.5,236.5 1170.5,237.5 1170.5,238.5C 1173.83,239.167 1177.17,239.833 1180.5,240.5C 1180.5,241.5 1180.5,242.5 1180.5,243.5C 1182.66,243.721 1184.33,244.721 1185.5,246.5C 1185.5,247.833 1186.17,248.5 1187.5,248.5C 1187.83,248.5 1188.17,248.5 1188.5,248.5C 1188.5,249.833 1189.17,250.5 1190.5,250.5C 1190.5,251.5 1190.5,252.5 1190.5,253.5C 1191.5,253.5 1192.5,253.5 1193.5,253.5C 1193.5,254.833 1194.17,255.5 1195.5,255.5C 1195.5,255.833 1195.5,256.167 1195.5,256.5C 1195.5,257.833 1196.17,258.5 1197.5,258.5C 1199.73,259.401 1200.73,261.067 1200.5,263.5C 1201.5,263.5 1202.5,263.5 1203.5,263.5C 1203.5,264.5 1203.5,265.5 1203.5,266.5C 1203.5,267.833 1204.17,268.5 1205.5,268.5C 1205.82,270.048 1206.82,270.715 1208.5,270.5C 1209.64,274.744 1210.31,279.077 1210.5,283.5C 1211.5,283.5 1212.5,283.5 1213.5,283.5C 1214.82,383.784 1215.48,484.118 1215.5,584.5C 1215.17,682.5 1214.83,780.5 1214.5,878.5C 1214.04,881.583 1212.87,884.249 1211,886.5C 1210.2,890.535 1209.37,894.535 1208.5,898.5C 1207.5,898.5 1206.5,898.5 1205.5,898.5C 1205.79,900.288 1205.45,901.955 1204.5,903.5C 1202.55,904.774 1201.22,906.44 1200.5,908.5C 1199.17,908.5 1198.5,909.167 1198.5,910.5C 1198.5,911.5 1198.5,912.5 1198.5,913.5C 1195.5,913.833 1193.83,915.5 1193.5,918.5C 1190.5,918.833 1188.83,920.5 1188.5,923.5C 1185.17,923.5 1182.5,924.833 1180.5,927.5C 1176.41,929.626 1172.25,931.626 1168,933.5C 1164.99,934.979 1161.83,935.646 1158.5,935.5C 1158.5,936.5 1158.5,937.5 1158.5,938.5C 1107.87,940.208 1057.2,941.042 1006.5,941C 1004.48,950.688 1003.15,960.521 1002.5,970.5C 1001.91,970.709 1001.41,971.043 1001,971.5C 999.93,980.488 999.096,989.488 998.5,998.5C 997.5,998.5 996.5,998.5 995.5,998.5C 994.833,1005.17 994.167,1011.83 993.5,1018.5C 992.5,1018.5 991.5,1018.5 990.5,1018.5C 989.674,1023.47 989.007,1028.47 988.5,1033.5C 987.5,1033.5 986.5,1033.5 985.5,1033.5C 985.67,1038.48 984.17,1042.82 981,1046.5C 978.889,1054.77 976.055,1062.77 972.5,1070.5C 967.459,1080.24 962.126,1089.91 956.5,1099.5C 954.668,1102.24 953.668,1105.24 953.5,1108.5C 951.857,1108.48 950.524,1109.15 949.5,1110.5C 948.781,1113.82 947.114,1116.49 944.5,1118.5C 943.548,1120.05 943.215,1121.71 943.5,1123.5C 939.935,1124.32 937.935,1126.66 937.5,1130.5C 935.812,1132.19 934.146,1133.85 932.5,1135.5C 930.952,1135.82 930.285,1136.82 930.5,1138.5C 929.498,1140.01 928.831,1141.68 928.5,1143.5C 927.325,1143.28 926.325,1143.61 925.5,1144.5C 923.944,1146.68 922.278,1148.68 920.5,1150.5C 919.167,1150.5 918.5,1151.17 918.5,1152.5C 918.719,1153.68 918.386,1154.68 917.5,1155.5C 904.5,1168.5 891.5,1181.5 878.5,1194.5C 877.675,1195.39 876.675,1195.72 875.5,1195.5C 874.167,1195.5 873.5,1196.17 873.5,1197.5C 870.761,1198.58 869.094,1200.58 868.5,1203.5C 866.678,1203.83 865.011,1204.5 863.5,1205.5C 861.821,1205.29 860.821,1205.95 860.5,1207.5C 858.139,1210 855.472,1212 852.5,1213.5C 851.167,1213.5 850.5,1214.17 850.5,1215.5C 848.952,1215.82 848.285,1216.82 848.5,1218.5C 844.433,1219.34 841.099,1221.34 838.5,1224.5C 836.955,1225.45 835.288,1225.79 833.5,1225.5C 833.5,1226.5 833.5,1227.5 833.5,1228.5C 830.034,1228.28 827.367,1229.62 825.5,1232.5C 820.187,1234.39 815.187,1236.73 810.5,1239.5C 809.147,1240.52 808.48,1241.86 808.5,1243.5C 798.633,1245.91 789.299,1249.58 780.5,1254.5C 778.257,1255.47 775.924,1255.81 773.5,1255.5C 773.5,1256.5 773.5,1257.5 773.5,1258.5C 764.567,1261.76 755.234,1264.09 745.5,1265.5C 745.5,1266.5 745.5,1267.5 745.5,1268.5C 738.833,1269.17 732.167,1269.83 725.5,1270.5C 725.5,1271.5 725.5,1272.5 725.5,1273.5C 718.191,1274.38 710.858,1275.05 703.5,1275.5C 703.5,1276.5 703.5,1277.5 703.5,1278.5C 697.31,1278.18 691.31,1278.51 685.5,1279.5C 654.833,1279.5 624.167,1279.5 593.5,1279.5C 587.69,1278.51 581.69,1278.18 575.5,1278.5C 575.5,1277.5 575.5,1276.5 575.5,1275.5C 568.142,1275.05 560.809,1274.38 553.5,1273.5C 553.5,1272.5 553.5,1271.5 553.5,1270.5C 546.833,1269.83 540.167,1269.17 533.5,1268.5C 533.5,1267.5 533.5,1266.5 533.5,1265.5C 528.474,1264.99 523.474,1264.33 518.5,1263.5C 518.5,1262.5 518.5,1261.5 518.5,1260.5C 514.077,1260.31 509.744,1259.64 505.5,1258.5C 505.5,1257.5 505.5,1256.5 505.5,1255.5C 501.427,1255.19 497.427,1254.53 493.5,1253.5C 493.5,1252.5 493.5,1251.5 493.5,1250.5C 488.046,1249.65 483.046,1247.65 478.5,1244.5C 475.914,1243.52 473.247,1243.19 470.5,1243.5C 469.82,1239.68 467.487,1238.01 463.5,1238.5C 463.5,1237.5 463.5,1236.5 463.5,1235.5C 460.167,1234.83 456.833,1234.17 453.5,1233.5C 453.5,1232.5 453.5,1231.5 453.5,1230.5C 450.975,1229.36 448.308,1228.69 445.5,1228.5C 445.5,1227.5 445.5,1226.5 445.5,1225.5C 441.513,1225.99 439.18,1224.32 438.5,1220.5C 435.692,1220.31 433.025,1219.64 430.5,1218.5C 430.715,1216.82 430.048,1215.82 428.5,1215.5C 428.5,1214.17 427.833,1213.5 426.5,1213.5C 425.5,1213.5 424.5,1213.5 423.5,1213.5C 423.5,1212.5 423.5,1211.5 423.5,1210.5C 421.336,1210.28 419.67,1209.28 418.5,1207.5C 418.179,1205.95 417.179,1205.29 415.5,1205.5C 413.989,1204.5 412.322,1203.83 410.5,1203.5C 409.906,1200.58 408.239,1198.58 405.5,1197.5C 405.5,1196.17 404.833,1195.5 403.5,1195.5C 400.5,1195.17 398.833,1193.5 398.5,1190.5C 395.5,1190.17 393.833,1188.5 393.5,1185.5C 392.325,1185.72 391.325,1185.39 390.5,1184.5C 385.5,1178.83 380.167,1173.5 374.5,1168.5C 373.614,1167.68 373.281,1166.68 373.5,1165.5C 370.5,1165.17 368.833,1163.5 368.5,1160.5C 365.5,1160.17 363.833,1158.5 363.5,1155.5C 360.5,1155.17 358.833,1153.5 358.5,1150.5C 358.5,1149.17 357.833,1148.5 356.5,1148.5C 355.425,1145.76 353.425,1144.09 350.5,1143.5C 349.659,1139.43 347.659,1136.1 344.5,1133.5C 343.614,1132.68 343.281,1131.68 343.5,1130.5C 342.5,1130.5 341.5,1130.5 340.5,1130.5C 340.989,1126.51 339.322,1124.18 335.5,1123.5C 335.307,1120.69 334.64,1118.02 333.5,1115.5C 332.5,1115.5 331.5,1115.5 330.5,1115.5C 330.989,1111.51 329.322,1109.18 325.5,1108.5C 324.833,1105.17 324.167,1101.83 323.5,1098.5C 322.5,1098.5 321.5,1098.5 320.5,1098.5C 319.36,1095.98 318.693,1093.31 318.5,1090.5C 317.5,1090.5 316.5,1090.5 315.5,1090.5C 314.833,1087.17 314.167,1083.83 313.5,1080.5C 312.5,1080.5 311.5,1080.5 310.5,1080.5C 309.833,1077.17 309.167,1073.83 308.5,1070.5C 307.5,1070.5 306.5,1070.5 305.5,1070.5C 304.475,1066.57 303.808,1062.57 303.5,1058.5C 302.5,1058.5 301.5,1058.5 300.5,1058.5C 299.357,1054.26 298.69,1049.92 298.5,1045.5C 297.5,1045.5 296.5,1045.5 295.5,1045.5C 294.475,1041.57 293.808,1037.57 293.5,1033.5C 292.5,1033.5 291.5,1033.5 290.5,1033.5C 289.993,1028.47 289.326,1023.47 288.5,1018.5C 287.5,1018.5 286.5,1018.5 285.5,1018.5C 284.833,1011.83 284.167,1005.17 283.5,998.5C 282.5,998.5 281.5,998.5 280.5,998.5C 279.658,989.182 278.991,979.849 278.5,970.5C 277.5,970.5 276.5,970.5 275.5,970.5C 275.494,960.445 274.827,950.445 273.5,940.5C 222.465,941.042 171.465,940.376 120.5,938.5C 120.5,937.5 120.5,936.5 120.5,935.5C 115.526,934.674 110.526,934.007 105.5,933.5C 104.82,929.678 102.487,928.011 98.5,928.5C 98.5,927.5 98.5,926.5 98.5,925.5C 95.9963,924.361 93.3297,923.694 90.5,923.5C 90.1667,920.5 88.5,918.833 85.5,918.5C 85.1667,915.5 83.5,913.833 80.5,913.5C 79.36,910.975 78.6933,908.308 78.5,905.5C 74.678,904.82 73.0114,902.487 73.5,898.5C 72.5,898.5 71.5,898.5 70.5,898.5C 69.3571,894.256 68.6904,889.923 68.5,885.5C 67.5,885.5 66.5,885.5 65.5,885.5C 64.1781,746.548 63.5114,607.548 63.5,468.5C 63.513,329.124 64.1797,189.791 65.5,50.5C 66.5,50.5 67.5,50.5 68.5,50.5C 68.8079,46.4274 69.4746,42.4274 70.5,38.5C 71.5,38.5 72.5,38.5 73.5,38.5C 73.6933,35.6915 74.36,33.0248 75.5,30.5C 76.5,30.5 77.5,30.5 78.5,30.5C 78.0114,26.513 79.678,24.1797 83.5,23.5C 83.8333,20.5 85.5,18.8333 88.5,18.5C 88.4802,16.857 89.1468,15.5237 90.5,14.5C 94.2197,11.9728 98.2197,9.80614 102.5,8C 105.147,4.24371 108.813,2.74371 113.5,3.5C 113.5,2.5 113.5,1.5 113.5,0.5C 116.059,0.801552 118.393,0.468218 120.5,-0.5 Z M 523.5,253.5 C 523.833,254.5 524.5,255.167 525.5,255.5C 525.5,256.5 525.5,257.5 525.5,258.5C 528.5,258.833 530.167,260.5 530.5,263.5C 532.5,264.167 534.5,264.833 536.5,265.5C 536.833,266.5 537.5,267.167 538.5,267.5C 540.229,269.727 542.562,270.727 545.5,270.5C 545.5,271.5 545.5,272.5 545.5,273.5C 745.464,275.477 945.464,276.144 1145.5,275.5C 1145.5,276.5 1145.5,277.5 1145.5,278.5C 1148.25,278.187 1150.91,278.52 1153.5,279.5C 1154.85,280.524 1155.52,281.857 1155.5,283.5C 1157.86,283.253 1159.86,283.919 1161.5,285.5C 1161.5,286.833 1162.17,287.5 1163.5,287.5C 1164.64,290.025 1165.31,292.692 1165.5,295.5C 1166.5,295.5 1167.5,295.5 1168.5,295.5C 1169.81,392.29 1170.48,489.123 1170.5,586C 1170.48,682.549 1169.82,779.049 1168.5,875.5C 1167.5,875.5 1166.5,875.5 1165.5,875.5C 1165.5,876.5 1165.5,877.5 1165.5,878.5C 1164.5,878.833 1163.83,879.5 1163.5,880.5C 1163.5,881.5 1163.5,882.5 1163.5,883.5C 1160.82,884.001 1158.82,885.501 1157.5,888C 1154.63,889.383 1151.63,890.216 1148.5,890.5C 1148.5,891.5 1148.5,892.5 1148.5,893.5C 1100.83,893.5 1053.17,893.5 1005.5,893.5C 1004.37,882.534 1003.7,871.534 1003.5,860.5C 1002.5,860.5 1001.5,860.5 1000.5,860.5C 1000.1,851.476 999.43,842.476 998.5,833.5C 997.5,833.5 996.5,833.5 995.5,833.5C 994.833,826.833 994.167,820.167 993.5,813.5C 992.5,813.5 991.5,813.5 990.5,813.5C 989.993,808.474 989.326,803.474 988.5,798.5C 987.5,798.5 986.5,798.5 985.5,798.5C 985.31,794.077 984.643,789.744 983.5,785.5C 982.5,785.5 981.5,785.5 980.5,785.5C 980.192,781.427 979.525,777.427 978.5,773.5C 977.5,773.5 976.5,773.5 975.5,773.5C 975.31,769.077 974.643,764.744 973.5,760.5C 972.5,760.5 971.5,760.5 970.5,760.5C 969.833,757.167 969.167,753.833 968.5,750.5C 967.5,750.5 966.5,750.5 965.5,750.5C 964.833,747.167 964.167,743.833 963.5,740.5C 962.5,740.5 961.5,740.5 960.5,740.5C 957.387,735.258 955.053,729.591 953.5,723.5C 952.5,723.5 951.5,723.5 950.5,723.5C 949.36,720.975 948.693,718.308 948.5,715.5C 944.678,714.82 943.011,712.487 943.5,708.5C 942.5,708.5 941.5,708.5 940.5,708.5C 939.36,705.975 938.693,703.308 938.5,700.5C 937.325,700.719 936.325,700.386 935.5,699.5C 933.086,696.757 931.086,693.757 929.5,690.5C 928.476,689.147 927.143,688.48 925.5,688.5C 925.279,686.336 924.279,684.67 922.5,683.5C 922.573,681.973 921.906,680.973 920.5,680.5C 919.498,678.989 918.831,677.322 918.5,675.5C 915.5,675.167 913.833,673.5 913.5,670.5C 910.5,670.167 908.833,668.5 908.5,665.5C 907.325,665.719 906.325,665.386 905.5,664.5C 904.023,661.943 902.023,659.943 899.5,658.5C 898.614,657.675 898.281,656.675 898.5,655.5C 895.5,655.167 893.833,653.5 893.5,650.5C 890.5,650.167 888.833,648.5 888.5,645.5C 885.5,645.167 883.833,643.5 883.5,640.5C 880.5,640.167 878.833,638.5 878.5,635.5C 877.5,635.5 876.5,635.5 875.5,635.5C 875.167,634.5 874.5,633.833 873.5,633.5C 871.109,631.452 868.442,629.785 865.5,628.5C 865.5,627.5 865.5,626.5 865.5,625.5C 864.5,625.5 863.5,625.5 862.5,625.5C 862.5,624.167 861.833,623.5 860.5,623.5C 858.952,623.179 858.285,622.179 858.5,620.5C 856.5,619.833 854.5,619.167 852.5,618.5C 852.5,617.167 851.833,616.5 850.5,616.5C 849.33,614.721 847.664,613.721 845.5,613.5C 845.5,612.5 845.5,611.5 845.5,610.5C 841.513,610.989 839.18,609.322 838.5,605.5C 835.167,604.833 831.833,604.167 828.5,603.5C 828.5,602.5 828.5,601.5 828.5,600.5C 825.975,599.36 823.308,598.693 820.5,598.5C 820.5,597.5 820.5,596.5 820.5,595.5C 815.644,595.072 811.644,593.072 808.5,589.5C 806.955,588.548 805.288,588.215 803.5,588.5C 803.5,587.5 803.5,586.5 803.5,585.5C 799.256,584.357 794.923,583.69 790.5,583.5C 790.5,582.5 790.5,581.5 790.5,580.5C 787.167,579.833 783.833,579.167 780.5,578.5C 780.5,577.5 780.5,576.5 780.5,575.5C 776.427,575.192 772.427,574.525 768.5,573.5C 768.5,572.5 768.5,571.5 768.5,570.5C 763.474,569.993 758.474,569.326 753.5,568.5C 753.5,567.5 753.5,566.5 753.5,565.5C 747.535,564.574 741.535,563.908 735.5,563.5C 735.5,562.5 735.5,561.5 735.5,560.5C 728.908,559.23 722.241,558.563 715.5,558.5C 715.5,557.5 715.5,556.5 715.5,555.5C 705.536,554.393 695.536,553.727 685.5,553.5C 685.5,552.5 685.5,551.5 685.5,550.5C 670.154,550.228 654.821,549.561 639.5,548.5C 624.179,549.561 608.846,550.228 593.5,550.5C 593.5,551.5 593.5,552.5 593.5,553.5C 583.464,553.727 573.464,554.393 563.5,555.5C 563.5,556.5 563.5,557.5 563.5,558.5C 556.759,558.563 550.092,559.23 543.5,560.5C 543.5,561.5 543.5,562.5 543.5,563.5C 537.465,563.908 531.465,564.574 525.5,565.5C 525.5,566.5 525.5,567.5 525.5,568.5C 520.526,569.326 515.526,569.993 510.5,570.5C 510.5,571.5 510.5,572.5 510.5,573.5C 506.573,574.525 502.573,575.192 498.5,575.5C 498.5,576.5 498.5,577.5 498.5,578.5C 495.167,579.167 491.833,579.833 488.5,580.5C 488.5,581.5 488.5,582.5 488.5,583.5C 484.369,584.901 480.036,585.567 475.5,585.5C 475.5,586.5 475.5,587.5 475.5,588.5C 471.829,588.202 469.163,589.702 467.5,593C 464.632,594.383 461.632,595.216 458.5,595.5C 458.5,596.5 458.5,597.5 458.5,598.5C 452.938,601.67 446.938,604.003 440.5,605.5C 439.82,609.322 437.487,610.989 433.5,610.5C 433.5,611.5 433.5,612.5 433.5,613.5C 431.336,613.721 429.67,614.721 428.5,616.5C 427.167,616.5 426.5,617.167 426.5,618.5C 424.5,619.167 422.5,619.833 420.5,620.5C 420.715,622.179 420.048,623.179 418.5,623.5C 417.167,623.5 416.5,624.167 416.5,625.5C 415.5,625.5 414.5,625.5 413.5,625.5C 413.5,626.5 413.5,627.5 413.5,628.5C 410.558,629.785 407.891,631.452 405.5,633.5C 404.5,633.833 403.833,634.5 403.5,635.5C 402.5,635.5 401.5,635.5 400.5,635.5C 400.167,638.5 398.5,640.167 395.5,640.5C 395.167,643.5 393.5,645.167 390.5,645.5C 390.167,648.5 388.5,650.167 385.5,650.5C 385.167,653.5 383.5,655.167 380.5,655.5C 380.167,658.5 378.5,660.167 375.5,660.5C 375.167,663.5 373.5,665.167 370.5,665.5C 370.167,668.5 368.5,670.167 365.5,670.5C 365.167,673.5 363.5,675.167 360.5,675.5C 359.833,677.5 359.167,679.5 358.5,681.5C 357.5,681.833 356.833,682.5 356.5,683.5C 354.721,684.67 353.721,686.336 353.5,688.5C 352.325,688.281 351.325,688.614 350.5,689.5C 349.214,692.981 347.214,695.981 344.5,698.5C 343.476,699.853 342.143,700.52 340.5,700.5C 340.307,703.308 339.64,705.975 338.5,708.5C 337.5,708.5 336.5,708.5 335.5,708.5C 335.704,712.281 334.037,714.614 330.5,715.5C 330.307,718.308 329.64,720.975 328.5,723.5C 327.5,723.5 326.5,723.5 325.5,723.5C 325.072,728.356 323.072,732.356 319.5,735.5C 318.548,737.045 318.215,738.712 318.5,740.5C 317.5,740.5 316.5,740.5 315.5,740.5C 314.833,743.833 314.167,747.167 313.5,750.5C 312.5,750.5 311.5,750.5 310.5,750.5C 309.833,753.833 309.167,757.167 308.5,760.5C 307.5,760.5 306.5,760.5 305.5,760.5C 304.357,764.744 303.69,769.077 303.5,773.5C 302.5,773.5 301.5,773.5 300.5,773.5C 299.833,776.833 299.167,780.167 298.5,783.5C 297.5,783.5 296.5,783.5 295.5,783.5C 294.674,788.474 294.007,793.474 293.5,798.5C 292.5,798.5 291.5,798.5 290.5,798.5C 289.674,803.474 289.007,808.474 288.5,813.5C 287.5,813.5 286.5,813.5 285.5,813.5C 284.833,820.167 284.167,826.833 283.5,833.5C 282.5,833.5 281.5,833.5 280.5,833.5C 279.57,842.476 278.903,851.476 278.5,860.5C 277.5,860.5 276.5,860.5 275.5,860.5C 275.296,871.534 274.63,882.534 273.5,893.5C 225.833,893.5 178.167,893.5 130.5,893.5C 130.5,892.5 130.5,891.5 130.5,890.5C 125.644,890.072 121.644,888.072 118.5,884.5C 117.675,883.614 116.675,883.281 115.5,883.5C 115.5,882.5 115.5,881.5 115.5,880.5C 115.167,879.5 114.5,878.833 113.5,878.5C 113.5,877.5 113.5,876.5 113.5,875.5C 112.5,875.5 111.5,875.5 110.5,875.5C 109.178,739.882 108.512,604.215 108.5,468.5C 108.513,332.457 109.18,196.457 110.5,60.5C 111.5,60.5 112.5,60.5 113.5,60.5C 113.5,59.5 113.5,58.5 113.5,57.5C 114.5,57.1667 115.167,56.5 115.5,55.5C 115.821,53.9519 116.821,53.2852 118.5,53.5C 119.18,49.678 121.513,48.0114 125.5,48.5C 125.5,47.5 125.5,46.5 125.5,45.5C 174.265,44.1903 223.098,43.5236 272,43.5C 321.551,43.5331 371.051,44.1997 420.5,45.5C 420.5,46.5 420.5,47.5 420.5,48.5C 423.5,48.8333 425.167,50.5 425.5,53.5C 429.322,54.1797 430.989,56.513 430.5,60.5C 431.5,60.5 432.5,60.5 433.5,60.5C 434.167,63.8333 434.833,67.1667 435.5,70.5C 436.5,70.5 437.5,70.5 438.5,70.5C 439.167,73.8333 439.833,77.1667 440.5,80.5C 441.5,80.5 442.5,80.5 443.5,80.5C 444.643,84.7441 445.31,89.0775 445.5,93.5C 446.5,93.5 447.5,93.5 448.5,93.5C 449.167,96.8333 449.833,100.167 450.5,103.5C 451.5,103.5 452.5,103.5 453.5,103.5C 454.167,106.833 454.833,110.167 455.5,113.5C 456.5,113.5 457.5,113.5 458.5,113.5C 459.167,116.833 459.833,120.167 460.5,123.5C 461.5,123.5 462.5,123.5 463.5,123.5C 464.525,127.427 465.192,131.427 465.5,135.5C 466.5,135.5 467.5,135.5 468.5,135.5C 469.167,138.833 469.833,142.167 470.5,145.5C 471.5,145.5 472.5,145.5 473.5,145.5C 474.167,148.833 474.833,152.167 475.5,155.5C 476.5,155.5 477.5,155.5 478.5,155.5C 479.167,158.833 479.833,162.167 480.5,165.5C 481.5,165.5 482.5,165.5 483.5,165.5C 484.167,168.833 484.833,172.167 485.5,175.5C 486.5,175.5 487.5,175.5 488.5,175.5C 488.69,179.923 489.357,184.256 490.5,188.5C 491.5,188.5 492.5,188.5 493.5,188.5C 494.167,191.833 494.833,195.167 495.5,198.5C 496.5,198.5 497.5,198.5 498.5,198.5C 499.167,201.833 499.833,205.167 500.5,208.5C 501.5,208.5 502.5,208.5 503.5,208.5C 504.167,211.833 504.833,215.167 505.5,218.5C 506.5,218.5 507.5,218.5 508.5,218.5C 508.808,222.573 509.475,226.573 510.5,230.5C 511.5,230.5 512.5,230.5 513.5,230.5C 514.167,233.833 514.833,237.167 515.5,240.5C 516.5,240.5 517.5,240.5 518.5,240.5C 519.167,243.833 519.833,247.167 520.5,250.5C 521.5,250.5 522.5,250.5 523.5,250.5C 523.5,251.5 523.5,252.5 523.5,253.5 Z M 813.5,645.5 C 813.833,646.5 814.5,647.167 815.5,647.5C 818.239,648.575 819.906,650.575 820.5,653.5C 823.308,653.693 825.975,654.36 828.5,655.5C 828.5,656.5 828.5,657.5 828.5,658.5C 832.281,658.296 834.614,659.963 835.5,663.5C 837.5,664.167 839.5,664.833 841.5,665.5C 841.5,666.833 842.167,667.5 843.5,667.5C 844.67,669.279 846.336,670.279 848.5,670.5C 848.833,673.5 850.5,675.167 853.5,675.5C 853.833,678.5 855.5,680.167 858.5,680.5C 858.5,681.5 858.5,682.5 858.5,683.5C 859.5,683.5 860.5,683.5 861.5,683.5C 861.5,684.833 862.167,685.5 863.5,685.5C 863.427,687.027 864.094,688.027 865.5,688.5C 865.833,688.5 866.167,688.5 866.5,688.5C 866.5,689.833 867.167,690.5 868.5,690.5C 868.427,692.027 869.094,693.027 870.5,693.5C 870.973,694.906 871.973,695.573 873.5,695.5C 873.833,698.5 875.5,700.167 878.5,700.5C 878.833,703.5 880.5,705.167 883.5,705.5C 883.721,707.664 884.721,709.33 886.5,710.5C 886.833,711.5 887.5,712.167 888.5,712.5C 889.167,714.5 889.833,716.5 890.5,718.5C 894.322,719.18 895.989,721.513 895.5,725.5C 896.5,725.5 897.5,725.5 898.5,725.5C 899.001,728.178 900.501,730.178 903,731.5C 903.856,733.868 904.69,736.202 905.5,738.5C 906.5,738.5 907.5,738.5 908.5,738.5C 908.202,742.171 909.702,744.837 913,746.5C 914.383,749.368 915.216,752.368 915.5,755.5C 916.5,755.5 917.5,755.5 918.5,755.5C 918.693,758.308 919.36,760.975 920.5,763.5C 921.5,763.5 922.5,763.5 923.5,763.5C 924.167,766.833 924.833,770.167 925.5,773.5C 926.5,773.5 927.5,773.5 928.5,773.5C 929.167,776.833 929.833,780.167 930.5,783.5C 931.5,783.5 932.5,783.5 933.5,783.5C 933.808,787.573 934.475,791.573 935.5,795.5C 936.5,795.5 937.5,795.5 938.5,795.5C 939.007,800.526 939.674,805.526 940.5,810.5C 941.5,810.5 942.5,810.5 943.5,810.5C 944.811,815.394 945.477,820.394 945.5,825.5C 946.5,825.5 947.5,825.5 948.5,825.5C 949.426,831.465 950.092,837.465 950.5,843.5C 951.5,843.5 952.5,843.5 953.5,843.5C 954.43,852.476 955.097,861.476 955.5,870.5C 956.5,870.5 957.5,870.5 958.5,870.5C 959.05,885.165 959.717,899.832 960.5,914.5C 959.62,929.83 958.953,945.163 958.5,960.5C 957.5,960.5 956.5,960.5 955.5,960.5C 955.009,969.849 954.342,979.182 953.5,988.5C 952.5,988.5 951.5,988.5 950.5,988.5C 950.221,994.222 949.555,999.889 948.5,1005.5C 947.5,1005.5 946.5,1005.5 945.5,1005.5C 944.993,1010.53 944.326,1015.53 943.5,1020.5C 942.5,1020.5 941.5,1020.5 940.5,1020.5C 939.993,1025.53 939.326,1030.53 938.5,1035.5C 937.5,1035.5 936.5,1035.5 935.5,1035.5C 934.833,1038.83 934.167,1042.17 933.5,1045.5C 932.5,1045.5 931.5,1045.5 930.5,1045.5C 930.31,1049.92 929.643,1054.26 928.5,1058.5C 927.5,1058.5 926.5,1058.5 925.5,1058.5C 925.072,1063.36 923.072,1067.36 919.5,1070.5C 918.548,1072.05 918.215,1073.71 918.5,1075.5C 917.5,1075.5 916.5,1075.5 915.5,1075.5C 915.307,1078.31 914.64,1080.98 913.5,1083.5C 912.5,1083.83 911.833,1084.5 911.5,1085.5C 909.556,1090.32 906.889,1094.66 903.5,1098.5C 902.5,1098.83 901.833,1099.5 901.5,1100.5C 900.425,1103.24 898.425,1104.91 895.5,1105.5C 895.307,1108.31 894.64,1110.98 893.5,1113.5C 890.5,1113.83 888.833,1115.5 888.5,1118.5C 887.167,1118.5 886.5,1119.17 886.5,1120.5C 885.425,1123.24 883.425,1124.91 880.5,1125.5C 880.167,1128.5 878.5,1130.17 875.5,1130.5C 875.167,1133.5 873.5,1135.17 870.5,1135.5C 870.167,1138.5 868.5,1140.17 865.5,1140.5C 865.167,1143.5 863.5,1145.17 860.5,1145.5C 860.167,1148.5 858.5,1150.17 855.5,1150.5C 855.167,1153.5 853.5,1155.17 850.5,1155.5C 849.906,1158.42 848.239,1160.42 845.5,1161.5C 844.5,1161.83 843.833,1162.5 843.5,1163.5C 840.5,1163.83 838.833,1165.5 838.5,1168.5C 836.336,1168.72 834.67,1169.72 833.5,1171.5C 832.167,1171.5 831.5,1172.17 831.5,1173.5C 829.5,1174.17 827.5,1174.83 825.5,1175.5C 825.5,1176.5 825.5,1177.5 825.5,1178.5C 821.513,1178.01 819.18,1179.68 818.5,1183.5C 815.692,1183.69 813.025,1184.36 810.5,1185.5C 810.5,1186.5 810.5,1187.5 810.5,1188.5C 807.562,1188.27 805.229,1189.27 803.5,1191.5C 802.167,1191.5 801.5,1192.17 801.5,1193.5C 798.975,1194.64 796.308,1195.31 793.5,1195.5C 793.5,1196.5 793.5,1197.5 793.5,1198.5C 790.167,1199.17 786.833,1199.83 783.5,1200.5C 783.5,1201.5 783.5,1202.5 783.5,1203.5C 780.167,1204.17 776.833,1204.83 773.5,1205.5C 773.5,1206.5 773.5,1207.5 773.5,1208.5C 769.256,1209.64 764.923,1210.31 760.5,1210.5C 760.5,1211.5 760.5,1212.5 760.5,1213.5C 756.573,1214.53 752.573,1215.19 748.5,1215.5C 748.5,1216.5 748.5,1217.5 748.5,1218.5C 743.474,1219.01 738.474,1219.67 733.5,1220.5C 733.5,1221.5 733.5,1222.5 733.5,1223.5C 727.535,1224.43 721.535,1225.09 715.5,1225.5C 715.5,1226.5 715.5,1227.5 715.5,1228.5C 708.191,1229.38 700.858,1230.05 693.5,1230.5C 693.5,1231.5 693.5,1232.5 693.5,1233.5C 675.186,1234.45 656.852,1235.12 638.5,1235.5C 620.811,1235.16 603.145,1234.49 585.5,1233.5C 585.5,1232.5 585.5,1231.5 585.5,1230.5C 578.142,1230.05 570.809,1229.38 563.5,1228.5C 563.5,1227.5 563.5,1226.5 563.5,1225.5C 557.465,1225.09 551.465,1224.43 545.5,1223.5C 545.5,1222.5 545.5,1221.5 545.5,1220.5C 540.526,1219.67 535.526,1219.01 530.5,1218.5C 530.5,1217.5 530.5,1216.5 530.5,1215.5C 526.427,1215.19 522.427,1214.53 518.5,1213.5C 518.5,1212.5 518.5,1211.5 518.5,1210.5C 514.077,1210.31 509.744,1209.64 505.5,1208.5C 505.5,1207.5 505.5,1206.5 505.5,1205.5C 502.167,1204.83 498.833,1204.17 495.5,1203.5C 495.5,1202.5 495.5,1201.5 495.5,1200.5C 492.167,1199.83 488.833,1199.17 485.5,1198.5C 485.5,1197.5 485.5,1196.5 485.5,1195.5C 480.644,1195.07 476.644,1193.07 473.5,1189.5C 471.955,1188.55 470.288,1188.21 468.5,1188.5C 468.5,1187.5 468.5,1186.5 468.5,1185.5C 465.975,1184.36 463.308,1183.69 460.5,1183.5C 459.82,1179.68 457.487,1178.01 453.5,1178.5C 453.5,1177.5 453.5,1176.5 453.5,1175.5C 451.5,1174.83 449.5,1174.17 447.5,1173.5C 447.167,1172.5 446.5,1171.83 445.5,1171.5C 444.33,1169.72 442.664,1168.72 440.5,1168.5C 440.5,1167.5 440.5,1166.5 440.5,1165.5C 439.5,1165.5 438.5,1165.5 437.5,1165.5C 437.5,1164.17 436.833,1163.5 435.5,1163.5C 433.952,1163.18 433.285,1162.18 433.5,1160.5C 430.5,1160.17 428.833,1158.5 428.5,1155.5C 425.5,1155.17 423.833,1153.5 423.5,1150.5C 421.678,1150.17 420.011,1149.5 418.5,1148.5C 417.833,1147.17 416.833,1146.17 415.5,1145.5C 415.5,1144.17 414.833,1143.5 413.5,1143.5C 412.833,1142.17 411.833,1141.17 410.5,1140.5C 410.5,1139.17 409.833,1138.5 408.5,1138.5C 408.5,1137.5 408.5,1136.5 408.5,1135.5C 405.5,1135.17 403.833,1133.5 403.5,1130.5C 400.5,1130.17 398.833,1128.5 398.5,1125.5C 397.325,1125.72 396.325,1125.39 395.5,1124.5C 393.463,1121.5 391.463,1118.5 389.5,1115.5C 388.476,1114.15 387.143,1113.48 385.5,1113.5C 385.279,1111.34 384.279,1109.67 382.5,1108.5C 382.5,1107.17 381.833,1106.5 380.5,1106.5C 379.833,1104.5 379.167,1102.5 378.5,1100.5C 377.5,1100.5 376.5,1100.5 375.5,1100.5C 375.989,1096.51 374.322,1094.18 370.5,1093.5C 367.33,1087.94 364.997,1081.94 363.5,1075.5C 359.963,1074.61 358.296,1072.28 358.5,1068.5C 357.5,1068.5 356.5,1068.5 355.5,1068.5C 354.833,1065.17 354.167,1061.83 353.5,1058.5C 352.5,1058.5 351.5,1058.5 350.5,1058.5C 349.357,1054.26 348.69,1049.92 348.5,1045.5C 347.5,1045.5 346.5,1045.5 345.5,1045.5C 344.833,1042.17 344.167,1038.83 343.5,1035.5C 342.5,1035.5 341.5,1035.5 340.5,1035.5C 339.674,1030.53 339.007,1025.53 338.5,1020.5C 337.5,1020.5 336.5,1020.5 335.5,1020.5C 334.189,1015.61 333.523,1010.61 333.5,1005.5C 332.5,1005.5 331.5,1005.5 330.5,1005.5C 329.445,999.889 328.779,994.222 328.5,988.5C 327.5,988.5 326.5,988.5 325.5,988.5C 324.658,979.182 323.991,969.849 323.5,960.5C 322.5,960.5 321.5,960.5 320.5,960.5C 319.819,945.675 319.152,930.842 318.5,916C 319.196,900.828 319.863,885.661 320.5,870.5C 321.5,870.5 322.5,870.5 323.5,870.5C 323.903,861.476 324.57,852.476 325.5,843.5C 326.5,843.5 327.5,843.5 328.5,843.5C 328.908,837.465 329.574,831.465 330.5,825.5C 331.5,825.5 332.5,825.5 333.5,825.5C 333.779,819.778 334.445,814.111 335.5,808.5C 336.5,808.5 337.5,808.5 338.5,808.5C 339.643,804.256 340.31,799.923 340.5,795.5C 341.5,795.5 342.5,795.5 343.5,795.5C 344.525,791.573 345.192,787.573 345.5,783.5C 346.5,783.5 347.5,783.5 348.5,783.5C 349.167,780.167 349.833,776.833 350.5,773.5C 351.5,773.5 352.5,773.5 353.5,773.5C 354.167,770.167 354.833,766.833 355.5,763.5C 356.5,763.5 357.5,763.5 358.5,763.5C 358.694,760.67 359.361,758.004 360.5,755.5C 361.5,755.5 362.5,755.5 363.5,755.5C 363.928,750.644 365.928,746.644 369.5,743.5C 370.452,741.955 370.785,740.288 370.5,738.5C 371.5,738.5 372.5,738.5 373.5,738.5C 374.64,735.975 375.307,733.308 375.5,730.5C 378.5,730.167 380.167,728.5 380.5,725.5C 381.833,725.5 382.5,724.833 382.5,723.5C 383.575,720.761 385.575,719.094 388.5,718.5C 389.167,716.5 389.833,714.5 390.5,712.5C 391.833,712.5 392.5,711.833 392.5,710.5C 394.279,709.33 395.279,707.664 395.5,705.5C 398.5,705.167 400.167,703.5 400.5,700.5C 403.5,700.167 405.167,698.5 405.5,695.5C 407.179,695.715 408.179,695.048 408.5,693.5C 409.906,693.027 410.573,692.027 410.5,690.5C 412.027,690.573 413.027,689.906 413.5,688.5C 414.906,688.027 415.573,687.027 415.5,685.5C 417.027,685.573 418.027,684.906 418.5,683.5C 420.048,683.179 420.715,682.179 420.5,680.5C 423.5,680.167 425.167,678.5 425.5,675.5C 428.5,675.167 430.167,673.5 430.5,670.5C 432.664,670.279 434.33,669.279 435.5,667.5C 436.833,667.5 437.5,666.833 437.5,665.5C 439.5,664.833 441.5,664.167 443.5,663.5C 444.386,659.963 446.719,658.296 450.5,658.5C 450.5,657.5 450.5,656.5 450.5,655.5C 452.664,655.279 454.33,654.279 455.5,652.5C 456.833,652.5 457.5,651.833 457.5,650.5C 460.025,649.36 462.692,648.693 465.5,648.5C 465.5,647.5 465.5,646.5 465.5,645.5C 468.025,644.36 470.692,643.693 473.5,643.5C 474.18,639.678 476.513,638.011 480.5,638.5C 480.5,637.5 480.5,636.5 480.5,635.5C 483.833,634.833 487.167,634.167 490.5,633.5C 490.5,632.5 490.5,631.5 490.5,630.5C 493.833,629.833 497.167,629.167 500.5,628.5C 500.5,627.5 500.5,626.5 500.5,625.5C 503.833,624.833 507.167,624.167 510.5,623.5C 510.5,622.5 510.5,621.5 510.5,620.5C 514.744,619.357 519.077,618.69 523.5,618.5C 523.5,617.5 523.5,616.5 523.5,615.5C 527.573,615.192 531.573,614.525 535.5,613.5C 535.5,612.5 535.5,611.5 535.5,610.5C 541.535,610.092 547.535,609.426 553.5,608.5C 553.5,607.5 553.5,606.5 553.5,605.5C 560.167,604.833 566.833,604.167 573.5,603.5C 573.5,602.5 573.5,601.5 573.5,600.5C 583.464,599.393 593.464,598.727 603.5,598.5C 603.5,597.5 603.5,596.5 603.5,595.5C 627.5,595.5 651.5,595.5 675.5,595.5C 675.5,596.5 675.5,597.5 675.5,598.5C 685.536,598.727 695.536,599.393 705.5,600.5C 705.5,601.5 705.5,602.5 705.5,603.5C 712.167,604.167 718.833,604.833 725.5,605.5C 725.5,606.5 725.5,607.5 725.5,608.5C 731.535,608.908 737.535,609.574 743.5,610.5C 743.5,611.5 743.5,612.5 743.5,613.5C 747.427,614.525 751.427,615.192 755.5,615.5C 755.5,616.5 755.5,617.5 755.5,618.5C 759.923,618.69 764.256,619.357 768.5,620.5C 768.5,621.5 768.5,622.5 768.5,623.5C 771.833,624.167 775.167,624.833 778.5,625.5C 778.5,626.5 778.5,627.5 778.5,628.5C 781.833,629.167 785.167,629.833 788.5,630.5C 788.5,631.5 788.5,632.5 788.5,633.5C 791.833,634.167 795.167,634.833 798.5,635.5C 798.5,636.5 798.5,637.5 798.5,638.5C 802.487,638.011 804.82,639.678 805.5,643.5C 808.308,643.693 810.975,644.36 813.5,645.5 Z"/></g>
<g><path style="opacity:0.009" fill="#000000" d="M 115.5,55.5 C 115.167,56.5 114.5,57.1667 113.5,57.5C 113.5,56.1667 114.167,55.5 115.5,55.5 Z"/></g>
<g><path style="opacity:0.009" fill="#000000" d="M 1125.5,78.5 C 1126.5,78.8333 1127.17,79.5 1127.5,80.5C 1126.17,80.5 1125.5,79.8333 1125.5,78.5 Z"/></g>
<g><path style="opacity:0.017" fill="#000000" d="M 1128.5,81.5 C 1129.83,81.5 1130.5,82.1667 1130.5,83.5C 1130.5,82.1667 1129.83,81.5 1128.5,81.5 Z"/></g>
<g><path style="opacity:0.012" fill="#000000" d="M 1130.5,83.5 C 1131.83,83.5 1132.5,84.1667 1132.5,85.5C 1132.5,84.1667 1131.83,83.5 1130.5,83.5 Z"/></g>
<g><path style="opacity:0.007" fill="#000000" d="M 1185.5,246.5 C 1186.5,246.833 1187.17,247.5 1187.5,248.5C 1186.17,248.5 1185.5,247.833 1185.5,246.5 Z"/></g>
<g><path style="opacity:0.016" fill="#000000" d="M 1188.5,248.5 C 1189.83,248.5 1190.5,249.167 1190.5,250.5C 1190.5,249.167 1189.83,248.5 1188.5,248.5 Z"/></g>
<g><path style="opacity:0.027" fill="#000000" d="M 1190.5,250.5 C 1192.5,250.5 1193.5,251.5 1193.5,253.5C 1192.5,253.5 1191.5,253.5 1190.5,253.5C 1190.5,252.5 1190.5,251.5 1190.5,250.5 Z"/></g>
<g><path style="opacity:0.007" fill="#000000" d="M 523.5,253.5 C 524.833,253.5 525.5,254.167 525.5,255.5C 524.5,255.167 523.833,254.5 523.5,253.5 Z"/></g>
<g><path style="opacity:0.024" fill="#000000" d="M 1193.5,253.5 C 1194.83,253.5 1195.5,254.167 1195.5,255.5C 1195.5,254.167 1194.83,253.5 1193.5,253.5 Z"/></g>
<g><path style="opacity:0.021" fill="#000000" d="M 1195.5,256.5 C 1196.83,256.5 1197.5,257.167 1197.5,258.5C 1197.5,257.167 1196.83,256.5 1195.5,256.5 Z"/></g>
<g><path style="opacity:0.007" fill="#000000" d="M 536.5,265.5 C 537.833,265.5 538.5,266.167 538.5,267.5C 537.5,267.167 536.833,266.5 536.5,265.5 Z"/></g>
<g><path style="opacity:0.007" fill="#000000" d="M 1203.5,266.5 C 1204.5,266.833 1205.17,267.5 1205.5,268.5C 1204.17,268.5 1203.5,267.833 1203.5,266.5 Z"/></g>
<g><path style="opacity:0.014" fill="#000000" d="M 1161.5,285.5 C 1162.83,285.5 1163.5,286.167 1163.5,287.5C 1163.5,286.167 1162.83,285.5 1161.5,285.5 Z"/></g>
<g><path style="opacity:0.016" fill="#000000" d="M 428.5,616.5 C 428.5,617.833 427.833,618.5 426.5,618.5C 426.5,617.167 427.167,616.5 428.5,616.5 Z"/></g>
<g><path style="opacity:0.016" fill="#000000" d="M 850.5,616.5 C 851.833,616.5 852.5,617.167 852.5,618.5C 851.167,618.5 850.5,617.833 850.5,616.5 Z"/></g>
<g><path style="opacity:0.013" fill="#000000" d="M 418.5,623.5 C 418.5,624.833 417.833,625.5 416.5,625.5C 416.5,624.167 417.167,623.5 418.5,623.5 Z"/></g>
<g><path style="opacity:0.013" fill="#000000" d="M 860.5,623.5 C 861.833,623.5 862.5,624.167 862.5,625.5C 861.167,625.5 860.5,624.833 860.5,623.5 Z"/></g>
<g><path style="opacity:0.009" fill="#000000" d="M 405.5,633.5 C 405.5,634.833 404.833,635.5 403.5,635.5C 403.833,634.5 404.5,633.833 405.5,633.5 Z"/></g>
<g><path style="opacity:0.009" fill="#000000" d="M 873.5,633.5 C 874.5,633.833 875.167,634.5 875.5,635.5C 874.167,635.5 873.5,634.833 873.5,633.5 Z"/></g>
<g><path style="opacity:0.009" fill="#000000" d="M 813.5,645.5 C 814.833,645.5 815.5,646.167 815.5,647.5C 814.5,647.167 813.833,646.5 813.5,645.5 Z"/></g>
<g><path style="opacity:0.015" fill="#000000" d="M 457.5,650.5 C 457.5,651.833 456.833,652.5 455.5,652.5C 455.5,651.167 456.167,650.5 457.5,650.5 Z"/></g>
<g><path style="opacity:0.019" fill="#000000" d="M 437.5,665.5 C 437.5,666.833 436.833,667.5 435.5,667.5C 435.5,666.167 436.167,665.5 437.5,665.5 Z"/></g>
<g><path style="opacity:0.019" fill="#000000" d="M 841.5,665.5 C 842.833,665.5 843.5,666.167 843.5,667.5C 843.5,666.167 842.833,665.5 841.5,665.5 Z"/></g>
<g><path style="opacity:0.009" fill="#000000" d="M 920.5,680.5 C 921.906,680.973 922.573,681.973 922.5,683.5C 920.952,683.179 920.285,682.179 920.5,680.5 Z"/></g>
<g><path style="opacity:0.007" fill="#000000" d="M 358.5,681.5 C 358.5,682.833 357.833,683.5 356.5,683.5C 356.833,682.5 357.5,681.833 358.5,681.5 Z"/></g>
<g><path style="opacity:0.026" fill="#000000" d="M 418.5,683.5 C 418.027,684.906 417.027,685.573 415.5,685.5C 415.821,683.952 416.821,683.285 418.5,683.5 Z"/></g>
<g><path style="opacity:0.021" fill="#000000" d="M 861.5,683.5 C 862.833,683.5 863.5,684.167 863.5,685.5C 863.5,684.167 862.833,683.5 861.5,683.5 Z"/></g>
<g><path style="opacity:0.019" fill="#000000" d="M 415.5,685.5 C 415.573,687.027 414.906,688.027 413.5,688.5C 413.285,686.821 413.952,685.821 415.5,685.5 Z"/></g>
<g><path style="opacity:0.019" fill="#000000" d="M 863.5,685.5 C 865.048,685.821 865.715,686.821 865.5,688.5C 864.094,688.027 863.427,687.027 863.5,685.5 Z"/></g>
<g><path style="opacity:0.017" fill="#000000" d="M 413.5,688.5 C 413.027,689.906 412.027,690.573 410.5,690.5C 410.821,688.952 411.821,688.285 413.5,688.5 Z"/></g>
<g><path style="opacity:0.019" fill="#000000" d="M 866.5,688.5 C 867.833,688.5 868.5,689.167 868.5,690.5C 868.5,689.167 867.833,688.5 866.5,688.5 Z"/></g>
<g><path style="opacity:0.021" fill="#000000" d="M 410.5,690.5 C 410.573,692.027 409.906,693.027 408.5,693.5C 408.285,691.821 408.952,690.821 410.5,690.5 Z"/></g>
<g><path style="opacity:0.017" fill="#000000" d="M 868.5,690.5 C 870.048,690.821 870.715,691.821 870.5,693.5C 869.094,693.027 868.427,692.027 868.5,690.5 Z"/></g>
<g><path style="opacity:0.022" fill="#000000" d="M 870.5,693.5 C 872.179,693.285 873.179,693.952 873.5,695.5C 871.973,695.573 870.973,694.906 870.5,693.5 Z"/></g>
<g><path style="opacity:0.01" fill="#000000" d="M 392.5,710.5 C 392.5,711.833 391.833,712.5 390.5,712.5C 390.5,711.167 391.167,710.5 392.5,710.5 Z"/></g>
<g><path style="opacity:0.007" fill="#000000" d="M 886.5,710.5 C 887.833,710.5 888.5,711.167 888.5,712.5C 887.5,712.167 886.833,711.5 886.5,710.5 Z"/></g>
<g><path style="opacity:0.012" fill="#000000" d="M 382.5,723.5 C 382.5,724.833 381.833,725.5 380.5,725.5C 380.5,724.167 381.167,723.5 382.5,723.5 Z"/></g>
<g><path style="opacity:0.936" fill="#fafafa" d="M 718.5,958.5 C 716.821,958.285 715.821,958.952 715.5,960.5C 713.952,960.821 713.285,961.821 713.5,963.5C 710.5,963.833 708.833,965.5 708.5,968.5C 705.5,968.833 703.833,970.5 703.5,973.5C 700.5,973.833 698.833,975.5 698.5,978.5C 695.5,978.833 693.833,980.5 693.5,983.5C 690.5,983.833 688.833,985.5 688.5,988.5C 685.5,988.833 683.833,990.5 683.5,993.5C 680.5,993.833 678.833,995.5 678.5,998.5C 675.5,998.833 673.833,1000.5 673.5,1003.5C 670.5,1003.83 668.833,1005.5 668.5,1008.5C 665.5,1008.83 663.833,1010.5 663.5,1013.5C 660.5,1013.83 658.833,1015.5 658.5,1018.5C 655.5,1018.83 653.833,1020.5 653.5,1023.5C 650.5,1023.83 648.833,1025.5 648.5,1028.5C 645.5,1028.83 643.833,1030.5 643.5,1033.5C 640.5,1033.83 638.833,1035.5 638.5,1038.5C 635.5,1038.83 633.833,1040.5 633.5,1043.5C 630.5,1043.83 628.833,1045.5 628.5,1048.5C 625.5,1048.83 623.833,1050.5 623.5,1053.5C 620.5,1053.83 618.833,1055.5 618.5,1058.5C 615.5,1058.83 613.833,1060.5 613.5,1063.5C 610.5,1063.83 608.833,1065.5 608.5,1068.5C 605.5,1068.83 603.833,1070.5 603.5,1073.5C 600.5,1073.83 598.833,1075.5 598.5,1078.5C 595.5,1078.83 593.833,1080.5 593.5,1083.5C 590.5,1083.83 588.833,1085.5 588.5,1088.5C 585.5,1088.83 583.833,1090.5 583.5,1093.5C 580.945,1094.41 578.279,1095.08 575.5,1095.5C 571.494,1095.94 569.16,1094.27 568.5,1090.5C 565.5,1090.17 563.833,1088.5 563.5,1085.5C 560.5,1085.17 558.833,1083.5 558.5,1080.5C 555.5,1080.17 553.833,1078.5 553.5,1075.5C 550.5,1075.17 548.833,1073.5 548.5,1070.5C 545.5,1070.17 543.833,1068.5 543.5,1065.5C 540.5,1065.17 538.833,1063.5 538.5,1060.5C 535.5,1060.17 533.833,1058.5 533.5,1055.5C 530.5,1055.17 528.833,1053.5 528.5,1050.5C 525.5,1050.17 523.833,1048.5 523.5,1045.5C 520.5,1045.17 518.833,1043.5 518.5,1040.5C 515.5,1040.17 513.833,1038.5 513.5,1035.5C 510.5,1035.17 508.833,1033.5 508.5,1030.5C 505.5,1030.17 503.833,1028.5 503.5,1025.5C 500.5,1025.17 498.833,1023.5 498.5,1020.5C 495.5,1020.17 493.833,1018.5 493.5,1015.5C 490.5,1015.17 488.833,1013.5 488.5,1010.5C 485.5,1010.17 483.833,1008.5 483.5,1005.5C 480.975,1004.36 478.308,1003.69 475.5,1003.5C 475.167,1000.5 473.5,998.833 470.5,998.5C 470.167,995.5 468.5,993.833 465.5,993.5C 465.167,990.5 463.5,988.833 460.5,988.5C 460.167,985.5 458.5,983.833 455.5,983.5C 455.167,980.5 453.5,978.833 450.5,978.5C 450.167,975.5 448.5,973.833 445.5,973.5C 445.167,970.5 443.5,968.833 440.5,968.5C 440.167,965.5 438.5,963.833 435.5,963.5C 434.36,960.975 433.693,958.308 433.5,955.5C 429.678,954.82 428.011,952.487 428.5,948.5C 427.5,948.5 426.5,948.5 425.5,948.5C 425.5,943.5 425.5,938.5 425.5,933.5C 426.5,933.5 427.5,933.5 428.5,933.5C 428.693,930.692 429.36,928.025 430.5,925.5C 433.5,925.167 435.167,923.5 435.5,920.5C 444.793,917.959 454.126,917.959 463.5,920.5C 463.833,923.5 465.5,925.167 468.5,925.5C 468.833,928.5 470.5,930.167 473.5,930.5C 473.833,933.5 475.5,935.167 478.5,935.5C 478.833,938.5 480.5,940.167 483.5,940.5C 483.833,943.5 485.5,945.167 488.5,945.5C 488.833,948.5 490.5,950.167 493.5,950.5C 493.833,953.5 495.5,955.167 498.5,955.5C 498.833,958.5 500.5,960.167 503.5,960.5C 503.833,963.5 505.5,965.167 508.5,965.5C 508.833,968.5 510.5,970.167 513.5,970.5C 513.833,973.5 515.5,975.167 518.5,975.5C 518.833,978.5 520.5,980.167 523.5,980.5C 523.833,983.5 525.5,985.167 528.5,985.5C 528.833,988.5 530.5,990.167 533.5,990.5C 533.833,993.5 535.5,995.167 538.5,995.5C 538.833,998.5 540.5,1000.17 543.5,1000.5C 543.833,1003.5 545.5,1005.17 548.5,1005.5C 548.833,1008.5 550.5,1010.17 553.5,1010.5C 553.833,1013.5 555.5,1015.17 558.5,1015.5C 558.833,1018.5 560.5,1020.17 563.5,1020.5C 563.833,1023.5 565.5,1025.17 568.5,1025.5C 568.833,1028.5 570.5,1030.17 573.5,1030.5C 573.5,1031.5 573.5,1032.5 573.5,1033.5C 575.167,1033.5 576.833,1033.5 578.5,1033.5C 578.833,1030.5 580.5,1028.83 583.5,1028.5C 583.833,1025.5 585.5,1023.83 588.5,1023.5C 588.833,1020.5 590.5,1018.83 593.5,1018.5C 593.833,1015.5 595.5,1013.83 598.5,1013.5C 598.833,1010.5 600.5,1008.83 603.5,1008.5C 603.833,1005.5 605.5,1003.83 608.5,1003.5C 608.833,1000.5 610.5,998.833 613.5,998.5C 613.833,995.5 615.5,993.833 618.5,993.5C 618.833,990.5 620.5,988.833 623.5,988.5C 623.833,985.5 625.5,983.833 628.5,983.5C 628.833,980.5 630.5,978.833 633.5,978.5C 633.833,975.5 635.5,973.833 638.5,973.5C 638.833,970.5 640.5,968.833 643.5,968.5C 643.833,965.5 645.5,963.833 648.5,963.5C 648.833,960.5 650.5,958.833 653.5,958.5C 653.833,955.5 655.5,953.833 658.5,953.5C 658.833,950.5 660.5,948.833 663.5,948.5C 663.833,945.5 665.5,943.833 668.5,943.5C 668.833,940.5 670.5,938.833 673.5,938.5C 673.833,935.5 675.5,933.833 678.5,933.5C 678.833,930.5 680.5,928.833 683.5,928.5C 683.833,925.5 685.5,923.833 688.5,923.5C 688.833,920.5 690.5,918.833 693.5,918.5C 693.833,915.5 695.5,913.833 698.5,913.5C 698.833,910.5 700.5,908.833 703.5,908.5C 703.833,905.5 705.5,903.833 708.5,903.5C 708.833,900.5 710.5,898.833 713.5,898.5C 713.833,895.5 715.5,893.833 718.5,893.5C 718.833,890.5 720.5,888.833 723.5,888.5C 723.833,885.5 725.5,883.833 728.5,883.5C 728.833,880.5 730.5,878.833 733.5,878.5C 733.833,875.5 735.5,873.833 738.5,873.5C 738.833,870.5 740.5,868.833 743.5,868.5C 743.833,865.5 745.5,863.833 748.5,863.5C 748.833,860.5 750.5,858.833 753.5,858.5C 753.833,855.5 755.5,853.833 758.5,853.5C 758.833,850.5 760.5,848.833 763.5,848.5C 763.833,845.5 765.5,843.833 768.5,843.5C 768.833,840.5 770.5,838.833 773.5,838.5C 773.833,835.5 775.5,833.833 778.5,833.5C 778.833,830.5 780.5,828.833 783.5,828.5C 783.833,825.5 785.5,823.833 788.5,823.5C 788.833,820.5 790.5,818.833 793.5,818.5C 793.833,815.5 795.5,813.833 798.5,813.5C 798.833,810.5 800.5,808.833 803.5,808.5C 803.833,805.5 805.5,803.833 808.5,803.5C 808.833,800.5 810.5,798.833 813.5,798.5C 813.833,795.5 815.5,793.833 818.5,793.5C 818.833,790.5 820.5,788.833 823.5,788.5C 823.48,786.857 824.147,785.524 825.5,784.5C 828.086,783.52 830.753,783.187 833.5,783.5C 833.5,782.5 833.5,781.5 833.5,780.5C 836.833,780.5 840.167,780.5 843.5,780.5C 843.5,781.5 843.5,782.5 843.5,783.5C 847.009,783.458 850.342,784.124 853.5,785.5C 853.833,788.5 855.5,790.167 858.5,790.5C 859.456,795.092 860.122,799.759 860.5,804.5C 860.122,809.241 859.456,813.908 858.5,818.5C 855.5,818.833 853.833,820.5 853.5,823.5C 850.5,823.833 848.833,825.5 848.5,828.5C 845.5,828.833 843.833,830.5 843.5,833.5C 840.5,833.833 838.833,835.5 838.5,838.5C 835.5,838.833 833.833,840.5 833.5,843.5C 830.5,843.833 828.833,845.5 828.5,848.5C 825.5,848.833 823.833,850.5 823.5,853.5C 820.5,853.833 818.833,855.5 818.5,858.5C 815.5,858.833 813.833,860.5 813.5,863.5C 810.5,863.833 808.833,865.5 808.5,868.5C 805.5,868.833 803.833,870.5 803.5,873.5C 800.5,873.833 798.833,875.5 798.5,878.5C 795.5,878.833 793.833,880.5 793.5,883.5C 790.5,883.833 788.833,885.5 788.5,888.5C 785.5,888.833 783.833,890.5 783.5,893.5C 780.5,893.833 778.833,895.5 778.5,898.5C 775.5,898.833 773.833,900.5 773.5,903.5C 770.5,903.833 768.833,905.5 768.5,908.5C 765.5,908.833 763.833,910.5 763.5,913.5C 760.5,913.833 758.833,915.5 758.5,918.5C 755.5,918.833 753.833,920.5 753.5,923.5C 750.5,923.833 748.833,925.5 748.5,928.5C 745.5,928.833 743.833,930.5 743.5,933.5C 740.5,933.833 738.833,935.5 738.5,938.5C 735.5,938.833 733.833,940.5 733.5,943.5C 730.5,943.833 728.833,945.5 728.5,948.5C 725.5,948.833 723.833,950.5 723.5,953.5C 720.5,953.833 718.833,955.5 718.5,958.5 Z"/></g>
<g><path style="opacity:0.007" fill="#000000" d="M 113.5,878.5 C 114.5,878.833 115.167,879.5 115.5,880.5C 114.167,880.5 113.5,879.833 113.5,878.5 Z"/></g>
<g><path style="opacity:0.007" fill="#000000" d="M 1165.5,878.5 C 1165.5,879.833 1164.83,880.5 1163.5,880.5C 1163.83,879.5 1164.5,878.833 1165.5,878.5 Z"/></g>
<g><path style="opacity:0.009" fill="#000000" d="M 1200.5,908.5 C 1200.17,909.5 1199.5,910.167 1198.5,910.5C 1198.5,909.167 1199.17,908.5 1200.5,908.5 Z"/></g>
<g><path style="opacity:0.023" fill="#000000" d="M 718.5,958.5 C 718.027,959.906 717.027,960.573 715.5,960.5C 715.821,958.952 716.821,958.285 718.5,958.5 Z"/></g>
<g><path style="opacity:0.009" fill="#000000" d="M 913.5,1083.5 C 913.5,1084.83 912.833,1085.5 911.5,1085.5C 911.833,1084.5 912.5,1083.83 913.5,1083.5 Z"/></g>
<g><path style="opacity:0.009" fill="#000000" d="M 903.5,1098.5 C 903.5,1099.83 902.833,1100.5 901.5,1100.5C 901.833,1099.5 902.5,1098.83 903.5,1098.5 Z"/></g>
<g><path style="opacity:0.019" fill="#000000" d="M 380.5,1106.5 C 381.833,1106.5 382.5,1107.17 382.5,1108.5C 381.167,1108.5 380.5,1107.83 380.5,1106.5 Z"/></g>
<g><path style="opacity:0.013" fill="#000000" d="M 888.5,1118.5 C 888.5,1119.83 887.833,1120.5 886.5,1120.5C 886.5,1119.17 887.167,1118.5 888.5,1118.5 Z"/></g>
<g><path style="opacity:0.004" fill="#0e0e0e" d="M 932.5,1135.5 C 932.068,1136.71 931.401,1137.71 930.5,1138.5C 930.285,1136.82 930.952,1135.82 932.5,1135.5 Z"/></g>
<g><path style="opacity:0.016" fill="#000000" d="M 408.5,1138.5 C 409.833,1138.5 410.5,1139.17 410.5,1140.5C 409.167,1140.5 408.5,1139.83 408.5,1138.5 Z"/></g>
<g><path style="opacity:0.024" fill="#000000" d="M 410.5,1140.5 C 411.833,1141.17 412.833,1142.17 413.5,1143.5C 412.5,1143.5 411.5,1143.5 410.5,1143.5C 410.5,1142.5 410.5,1141.5 410.5,1140.5 Z"/></g>
<g><path style="opacity:0.016" fill="#000000" d="M 413.5,1143.5 C 414.833,1143.5 415.5,1144.17 415.5,1145.5C 414.167,1145.5 413.5,1144.83 413.5,1143.5 Z"/></g>
<g><path style="opacity:0.026" fill="#000000" d="M 415.5,1145.5 C 416.833,1146.17 417.833,1147.17 418.5,1148.5C 417.5,1148.5 416.5,1148.5 415.5,1148.5C 415.5,1147.5 415.5,1146.5 415.5,1145.5 Z"/></g>
<g><path style="opacity:0.007" fill="#000000" d="M 356.5,1148.5 C 357.833,1148.5 358.5,1149.17 358.5,1150.5C 357.5,1150.17 356.833,1149.5 356.5,1148.5 Z"/></g>
<g><path style="opacity:0.02" fill="#000000" d="M 920.5,1150.5 C 920.5,1151.83 919.833,1152.5 918.5,1152.5C 918.5,1151.17 919.167,1150.5 920.5,1150.5 Z"/></g>
<g><path style="opacity:0.009" fill="#000000" d="M 845.5,1161.5 C 845.5,1162.83 844.833,1163.5 843.5,1163.5C 843.833,1162.5 844.5,1161.83 845.5,1161.5 Z"/></g>
<g><path style="opacity:0.015" fill="#000000" d="M 435.5,1163.5 C 436.833,1163.5 437.5,1164.17 437.5,1165.5C 436.167,1165.5 435.5,1164.83 435.5,1163.5 Z"/></g>
<g><path style="opacity:0.007" fill="#000000" d="M 445.5,1171.5 C 446.5,1171.83 447.167,1172.5 447.5,1173.5C 446.167,1173.5 445.5,1172.83 445.5,1171.5 Z"/></g>
<g><path style="opacity:0.013" fill="#000000" d="M 833.5,1171.5 C 833.5,1172.83 832.833,1173.5 831.5,1173.5C 831.5,1172.17 832.167,1171.5 833.5,1171.5 Z"/></g>
<g><path style="opacity:0.009" fill="#000000" d="M 803.5,1191.5 C 803.5,1192.83 802.833,1193.5 801.5,1193.5C 801.5,1192.17 802.167,1191.5 803.5,1191.5 Z"/></g>
<g><path style="opacity:0.014" fill="#000000" d="M 403.5,1195.5 C 404.833,1195.5 405.5,1196.17 405.5,1197.5C 404.167,1197.5 403.5,1196.83 403.5,1195.5 Z"/></g>
<g><path style="opacity:0.013" fill="#000000" d="M 875.5,1195.5 C 875.5,1196.83 874.833,1197.5 873.5,1197.5C 873.5,1196.17 874.167,1195.5 875.5,1195.5 Z"/></g>
<g><path style="opacity:0.013" fill="#000000" d="M 415.5,1205.5 C 417.179,1205.29 418.179,1205.95 418.5,1207.5C 416.973,1207.57 415.973,1206.91 415.5,1205.5 Z"/></g>
<g><path style="opacity:0.013" fill="#050505" d="M 863.5,1205.5 C 863.027,1206.91 862.027,1207.57 860.5,1207.5C 860.821,1205.95 861.821,1205.29 863.5,1205.5 Z"/></g>
<g><path style="opacity:0.012" fill="#000000" d="M 426.5,1213.5 C 427.833,1213.5 428.5,1214.17 428.5,1215.5C 427.167,1215.5 426.5,1214.83 426.5,1213.5 Z"/></g>
<g><path style="opacity:0.012" fill="#000000" d="M 852.5,1213.5 C 852.167,1214.5 851.5,1215.17 850.5,1215.5C 850.5,1214.17 851.167,1213.5 852.5,1213.5 Z"/></g>
</svg>
