<?xml version="1.0" encoding="UTF-8"?>
<!DOCTYPE svg PUBLIC "-//W3C//DTD SVG 1.1//EN" "http://www.w3.org/Graphics/SVG/1.1/DTD/svg11.dtd">
<svg xmlns="http://www.w3.org/2000/svg" version="1.1" width="1280px" height="1656px" style="shape-rendering:geometricPrecision; text-rendering:geometricPrecision; image-rendering:optimizeQuality; fill-rule:evenodd; clip-rule:evenodd" xmlns:xlink="http://www.w3.org/1999/xlink">
<g><path style="opacity:0.982" fill="#a2a2a2" d="M 608.5,-0.5 C 629.167,-0.5 649.833,-0.5 670.5,-0.5C 674.316,0.482425 678.316,1.14909 682.5,1.5C 682.5,2.5 682.5,3.5 682.5,4.5C 684.857,4.33669 687.19,4.50335 689.5,5C 691.845,6.78277 694.512,7.78277 697.5,8C 703.331,11.6174 709.331,14.7841 715.5,17.5C 715.5,18.5 715.5,19.5 715.5,20.5C 719.776,22.0683 723.776,24.235 727.5,27C 728.337,28.0113 728.67,29.1779 728.5,30.5C 729.5,30.5 730.5,30.5 731.5,30.5C 731.5,31.5 731.5,32.5 731.5,33.5C 732.552,33.3505 733.552,33.5172 734.5,34C 736.667,36.1667 738.833,38.3333 741,40.5C 741.483,41.448 741.649,42.448 741.5,43.5C 742.5,43.5 743.5,43.5 744.5,43.5C 744.5,44.5 744.5,45.5 744.5,46.5C 745.5,46.5 746.5,46.5 747.5,46.5C 749.242,49.6074 750.575,52.9408 751.5,56.5C 752.5,56.5 753.5,56.5 754.5,56.5C 754.238,57.9778 754.571,59.3112 755.5,60.5C 758.791,64.5523 761.624,68.8857 764,73.5C 766.049,78.2835 767.549,83.2835 768.5,88.5C 769.086,88.7093 769.586,89.0426 770,89.5C 770.499,93.4862 770.666,97.4862 770.5,101.5C 771.5,101.5 772.5,101.5 773.5,101.5C 773.334,108.841 773.5,116.174 774,123.5C 774.216,125.384 774.883,127.051 776,128.5C 776.333,142.833 776.667,157.167 777,171.5C 780.313,175.011 784.48,176.345 789.5,175.5C 789.5,176.5 789.5,177.5 789.5,178.5C 792.187,178.336 794.854,178.503 797.5,179C 802.244,180.793 806.911,182.793 811.5,185C 813.81,185.497 816.143,185.663 818.5,185.5C 818.5,186.5 818.5,187.5 818.5,188.5C 820.833,188.5 823.167,188.5 825.5,188.5C 825.5,189.5 825.5,190.5 825.5,191.5C 827.527,191.338 829.527,191.505 831.5,192C 835.522,194.001 839.522,196.001 843.5,198C 845.134,198.494 846.801,198.66 848.5,198.5C 848.5,199.5 848.5,200.5 848.5,201.5C 850.5,201.5 852.5,201.5 854.5,201.5C 854.5,202.5 854.5,203.5 854.5,204.5C 856.527,204.338 858.527,204.505 860.5,205C 865.063,207.887 869.73,210.721 874.5,213.5C 880.691,215.766 886.358,218.933 891.5,223C 893.025,224.009 894.692,224.509 896.5,224.5C 896.5,225.5 896.5,226.5 896.5,227.5C 900.256,227.533 903.589,228.533 906.5,230.5C 906.5,231.5 906.5,232.5 906.5,233.5C 911.007,234.16 914.674,236.326 917.5,240C 921.059,241.056 924.059,243.056 926.5,246C 929.438,247.808 932.438,249.308 935.5,250.5C 935.5,251.5 935.5,252.5 935.5,253.5C 936.5,253.5 937.5,253.5 938.5,253.5C 938.5,254.5 938.5,255.5 938.5,256.5C 941.477,257.653 944.477,258.986 947.5,260.5C 948.386,261.325 948.719,262.325 948.5,263.5C 951.833,265.5 955.167,267.5 958.5,269.5C 958.5,270.5 958.5,271.5 958.5,272.5C 959.552,272.351 960.552,272.517 961.5,273C 972.338,282.506 982.838,292.339 993,302.5C 993.483,303.448 993.649,304.448 993.5,305.5C 995.835,306.413 998.001,307.747 1000,309.5C 1004.5,313.928 1008,318.928 1010.5,324.5C 1011.5,324.5 1012.5,324.5 1013.5,324.5C 1017.26,329.63 1020.92,334.963 1024.5,340.5C 1029.76,345.758 1034.6,351.425 1039,357.5C 1041.28,360.063 1042.45,363.063 1042.5,366.5C 1043.5,366.5 1044.5,366.5 1045.5,366.5C 1047.07,371.943 1050.07,376.609 1054.5,380.5C 1056.49,384.005 1058.16,387.671 1059.5,391.5C 1063.07,394.966 1065.9,398.966 1068,403.5C 1068.49,405.134 1068.66,406.801 1068.5,408.5C 1069.5,408.5 1070.5,408.5 1071.5,408.5C 1071.2,410.604 1071.53,412.604 1072.5,414.5C 1074.06,417.264 1075.89,419.93 1078,422.5C 1080.26,429.33 1083.26,435.663 1087,441.5C 1087.5,443.473 1087.66,445.473 1087.5,447.5C 1088.5,447.5 1089.5,447.5 1090.5,447.5C 1093.32,454.727 1095.82,462.06 1098,469.5C 1101.51,475.851 1104.51,482.518 1107,489.5C 1106.99,492.651 1107.99,495.318 1110,497.5C 1109.94,500.972 1110.94,503.972 1113,506.5C 1112.99,510.814 1113.99,514.814 1116,518.5C 1116.5,521.817 1116.67,525.15 1116.5,528.5C 1118.12,528.36 1119.29,529.027 1120,530.5C 1120.33,533.833 1120.67,537.167 1121,540.5C 1121.67,541.167 1122.33,541.833 1123,542.5C 1123.17,546.541 1123.67,550.541 1124.5,554.5C 1125.09,554.709 1125.59,555.043 1126,555.5C 1125.94,560.47 1126.94,565.136 1129,569.5C 1128.82,576.552 1130.16,583.218 1133,589.5C 1133.17,594.864 1133.67,600.198 1134.5,605.5C 1135.19,606.025 1135.69,606.692 1136,607.5C 1136.33,614.5 1136.67,621.5 1137,628.5C 1137.91,629.328 1138.58,630.328 1139,631.5C 1139.33,643.167 1139.67,654.833 1140,666.5C 1140.67,667.167 1141.33,667.833 1142,668.5C 1142.17,839.834 1142.67,1011.17 1143.5,1182.5C 1144.19,1183.03 1144.69,1183.69 1145,1184.5C 1145.81,1191.17 1146.64,1197.84 1147.5,1204.5C 1148.19,1205.03 1148.69,1205.69 1149,1206.5C 1149.5,1210.15 1149.67,1213.82 1149.5,1217.5C 1150.5,1217.5 1151.5,1217.5 1152.5,1217.5C 1151.92,1221.32 1152.75,1224.65 1155,1227.5C 1155.56,1232.12 1156.89,1236.46 1159,1240.5C 1159.62,1242.12 1160.62,1243.45 1162,1244.5C 1162.49,1246.13 1162.66,1247.8 1162.5,1249.5C 1163.5,1249.5 1164.5,1249.5 1165.5,1249.5C 1166.5,1252.83 1167.5,1256.17 1168.5,1259.5C 1169.5,1259.5 1170.5,1259.5 1171.5,1259.5C 1171.5,1261.5 1171.5,1263.5 1171.5,1265.5C 1172.55,1265.35 1173.55,1265.52 1174.5,1266C 1179.24,1270.24 1182.57,1275.41 1184.5,1281.5C 1185.55,1281.35 1186.55,1281.52 1187.5,1282C 1188.33,1283.5 1189.5,1284.67 1191,1285.5C 1191.48,1286.45 1191.65,1287.45 1191.5,1288.5C 1192.5,1288.5 1193.5,1288.5 1194.5,1288.5C 1194.5,1289.5 1194.5,1290.5 1194.5,1291.5C 1195.5,1291.5 1196.5,1291.5 1197.5,1291.5C 1197.5,1292.5 1197.5,1293.5 1197.5,1294.5C 1202.59,1298.26 1207.92,1301.59 1213.5,1304.5C 1213.5,1305.5 1213.5,1306.5 1213.5,1307.5C 1214.55,1307.35 1215.55,1307.52 1216.5,1308C 1218.67,1312.01 1222,1314.18 1226.5,1314.5C 1226.5,1315.5 1226.5,1316.5 1226.5,1317.5C 1227.55,1317.35 1228.55,1317.52 1229.5,1318C 1234.44,1321.65 1239.1,1325.65 1243.5,1330C 1247.42,1332.46 1251.42,1334.62 1255.5,1336.5C 1255.5,1337.5 1255.5,1338.5 1255.5,1339.5C 1258.5,1339.17 1259.83,1340.5 1259.5,1343.5C 1260.5,1343.5 1261.5,1343.5 1262.5,1343.5C 1262.5,1344.5 1262.5,1345.5 1262.5,1346.5C 1263.93,1346.42 1265.26,1346.75 1266.5,1347.5C 1267.36,1349.2 1268.7,1350.36 1270.5,1351C 1272.86,1353.51 1274.53,1356.34 1275.5,1359.5C 1276.5,1359.5 1277.5,1359.5 1278.5,1359.5C 1278.26,1360.79 1278.6,1361.79 1279.5,1362.5C 1279.5,1387.5 1279.5,1412.5 1279.5,1437.5C 1277.91,1439.32 1276.25,1441.15 1274.5,1443C 1270.69,1444.41 1267.36,1446.57 1264.5,1449.5C 1262.22,1450.21 1259.89,1450.71 1257.5,1451C 1256.83,1451.67 1256.17,1452.33 1255.5,1453C 1115.5,1453.5 975.5,1453.67 835.5,1453.5C 835.667,1467.17 835.5,1480.84 835,1494.5C 834.586,1494.96 834.086,1495.29 833.5,1495.5C 832.672,1499.8 832.172,1504.13 832,1508.5C 829.014,1512.23 827.681,1516.56 828,1521.5C 824.47,1532.43 820.303,1543.09 815.5,1553.5C 814.5,1553.5 813.5,1553.5 812.5,1553.5C 812.662,1555.53 812.495,1557.53 812,1559.5C 809.381,1562.4 807.548,1565.74 806.5,1569.5C 805.5,1569.5 804.5,1569.5 803.5,1569.5C 803.114,1573.35 801.78,1576.68 799.5,1579.5C 798.5,1579.5 797.5,1579.5 796.5,1579.5C 796.5,1580.5 796.5,1581.5 796.5,1582.5C 795.5,1582.5 794.5,1582.5 793.5,1582.5C 793.657,1583.87 793.49,1585.21 793,1586.5C 791.306,1588.24 790.139,1590.24 789.5,1592.5C 788.5,1592.5 787.5,1592.5 786.5,1592.5C 786.5,1593.5 786.5,1594.5 786.5,1595.5C 785.5,1595.5 784.5,1595.5 783.5,1595.5C 781.803,1599.03 779.469,1602.2 776.5,1605C 775.552,1605.48 774.552,1605.65 773.5,1605.5C 773.5,1606.5 773.5,1607.5 773.5,1608.5C 772.5,1608.5 771.5,1608.5 770.5,1608.5C 770.5,1609.5 770.5,1610.5 770.5,1611.5C 766.427,1614.27 762.094,1616.61 757.5,1618.5C 757.5,1619.5 757.5,1620.5 757.5,1621.5C 755.641,1621.46 754.308,1622.29 753.5,1624C 751.866,1624.49 750.199,1624.66 748.5,1624.5C 748.649,1625.55 748.483,1626.55 748,1627.5C 744.519,1629.82 741.019,1631.98 737.5,1634C 735.527,1634.5 733.527,1634.66 731.5,1634.5C 731.5,1635.5 731.5,1636.5 731.5,1637.5C 729.5,1637.5 727.5,1637.5 725.5,1637.5C 725.67,1638.82 725.337,1639.99 724.5,1641C 717.22,1643.39 709.886,1645.89 702.5,1648.5C 702.291,1649.09 701.957,1649.59 701.5,1650C 697.514,1650.5 693.514,1650.67 689.5,1650.5C 689.5,1651.5 689.5,1652.5 689.5,1653.5C 684.676,1653.99 680.01,1654.66 675.5,1655.5C 651.167,1655.5 626.833,1655.5 602.5,1655.5C 598.327,1654.64 593.993,1653.98 589.5,1653.5C 589.5,1652.5 589.5,1651.5 589.5,1650.5C 585.486,1650.67 581.486,1650.5 577.5,1650C 574.574,1648.23 571.574,1646.56 568.5,1645C 566.167,1644.67 563.833,1644.33 561.5,1644C 559.642,1642.02 557.309,1640.85 554.5,1640.5C 553.614,1639.68 553.281,1638.68 553.5,1637.5C 551.5,1637.5 549.5,1637.5 547.5,1637.5C 547.5,1636.5 547.5,1635.5 547.5,1634.5C 545.473,1634.66 543.473,1634.5 541.5,1634C 537.4,1631.73 533.734,1628.9 530.5,1625.5C 527.026,1624.9 524.026,1623.57 521.5,1621.5C 521.5,1620.5 521.5,1619.5 521.5,1618.5C 516.906,1616.61 512.573,1614.27 508.5,1611.5C 508.5,1610.5 508.5,1609.5 508.5,1608.5C 507.5,1608.5 506.5,1608.5 505.5,1608.5C 505.5,1607.5 505.5,1606.5 505.5,1605.5C 504.448,1605.65 503.448,1605.48 502.5,1605C 499.531,1602.2 497.197,1599.03 495.5,1595.5C 494.5,1595.5 493.5,1595.5 492.5,1595.5C 492.5,1594.5 492.5,1593.5 492.5,1592.5C 491.5,1592.5 490.5,1592.5 489.5,1592.5C 489.338,1590.18 488.172,1588.51 486,1587.5C 485.506,1585.87 485.34,1584.2 485.5,1582.5C 484.5,1582.5 483.5,1582.5 482.5,1582.5C 482.5,1581.5 482.5,1580.5 482.5,1579.5C 481.5,1579.5 480.5,1579.5 479.5,1579.5C 477.22,1576.68 475.886,1573.35 475.5,1569.5C 474.5,1569.5 473.5,1569.5 472.5,1569.5C 471.458,1565.75 469.624,1562.42 467,1559.5C 466.505,1557.53 466.338,1555.53 466.5,1553.5C 465.5,1553.5 464.5,1553.5 463.5,1553.5C 458.697,1543.09 454.53,1532.43 451,1521.5C 450.824,1518.12 450.324,1514.78 449.5,1511.5C 448.029,1510.62 447.196,1509.29 447,1507.5C 446.827,1503.46 446.327,1499.46 445.5,1495.5C 444.914,1495.29 444.414,1494.96 444,1494.5C 443.5,1480.84 443.333,1467.17 443.5,1453.5C 303.5,1453.67 163.5,1453.5 23.5,1453C 14.2634,1449.56 6.26342,1444.39 -0.5,1437.5C -0.5,1412.5 -0.5,1387.5 -0.5,1362.5C 0.403972,1361.79 0.737305,1360.79 0.5,1359.5C 1.5,1359.5 2.5,1359.5 3.5,1359.5C 4.71355,1356.75 6.21355,1354.08 8,1351.5C 11.477,1348.19 15.3104,1345.52 19.5,1343.5C 20.8333,1341.17 22.1667,1338.83 23.5,1336.5C 25.3588,1336.54 26.6921,1335.71 27.5,1334C 29.1341,1333.51 30.8008,1333.34 32.5,1333.5C 32.5,1332.5 32.5,1331.5 32.5,1330.5C 33.552,1330.65 34.552,1330.48 35.5,1330C 37.8203,1326.18 41.1537,1323.68 45.5,1322.5C 48.9499,1318.76 52.9499,1315.76 57.5,1313.5C 59.1667,1311.67 60.8333,1309.83 62.5,1308C 63.448,1307.52 64.448,1307.35 65.5,1307.5C 65.5,1306.5 65.5,1305.5 65.5,1304.5C 71.0788,1301.59 76.4121,1298.26 81.5,1294.5C 81.5,1293.5 81.5,1292.5 81.5,1291.5C 82.5,1291.5 83.5,1291.5 84.5,1291.5C 84.5,1290.5 84.5,1289.5 84.5,1288.5C 85.5,1288.5 86.5,1288.5 87.5,1288.5C 87.3505,1287.45 87.5172,1286.45 88,1285.5C 89.5,1284.67 90.6667,1283.5 91.5,1282C 92.448,1281.52 93.448,1281.35 94.5,1281.5C 96.4276,1275.41 99.761,1270.24 104.5,1266C 105.448,1265.52 106.448,1265.35 107.5,1265.5C 107.5,1263.5 107.5,1261.5 107.5,1259.5C 108.5,1259.5 109.5,1259.5 110.5,1259.5C 112.386,1256.54 113.386,1253.21 113.5,1249.5C 114.5,1249.5 115.5,1249.5 116.5,1249.5C 115.889,1246.04 117.056,1243.37 120,1241.5C 121.796,1237.01 123.13,1232.34 124,1227.5C 126.248,1224.65 127.082,1221.32 126.5,1217.5C 127.5,1217.5 128.5,1217.5 129.5,1217.5C 129.335,1213.82 129.501,1210.15 130,1206.5C 130.308,1205.69 130.808,1205.03 131.5,1204.5C 132.333,1197.5 133.167,1190.5 134,1183.5C 134.414,1183.04 134.914,1182.71 135.5,1182.5C 136.333,1011.17 136.833,839.834 137,668.5C 137.419,667.328 138.085,666.328 139,665.5C 139.333,653.833 139.667,642.167 140,630.5C 140.667,629.833 141.333,629.167 142,628.5C 142.333,621.5 142.667,614.5 143,607.5C 143.308,606.692 143.808,606.025 144.5,605.5C 145.33,599.862 145.83,594.196 146,588.5C 146.583,586.998 147.416,585.665 148.5,584.5C 149.088,574.173 150.421,564.173 152.5,554.5C 153.5,554.5 154.5,554.5 155.5,554.5C 155.334,550.486 155.501,546.486 156,542.5C 156.667,541.833 157.333,541.167 158,540.5C 158.333,537.167 158.667,533.833 159,530.5C 159.71,529.027 160.876,528.36 162.5,528.5C 162.335,524.818 162.501,521.152 163,517.5C 163.414,517.043 163.914,516.709 164.5,516.5C 165.324,513.215 165.824,509.882 166,506.5C 168.057,503.972 169.057,500.972 169,497.5C 170.652,493.385 172.652,489.385 175,485.5C 175.333,483.5 175.667,481.5 176,479.5C 177.507,476.013 179.174,472.679 181,469.5C 183.185,462.06 185.685,454.727 188.5,447.5C 189.5,447.5 190.5,447.5 191.5,447.5C 191.5,445.167 191.5,442.833 191.5,440.5C 192.5,440.5 193.5,440.5 194.5,440.5C 194.338,438.473 194.505,436.473 195,434.5C 198.378,427.489 202.211,420.822 206.5,414.5C 207.466,412.604 207.799,410.604 207.5,408.5C 208.5,408.5 209.5,408.5 210.5,408.5C 210.34,406.801 210.506,405.134 211,403.5C 213.21,398.975 216.043,394.975 219.5,391.5C 220.387,387.814 221.887,384.481 224,381.5C 225.61,379.269 227.443,377.269 229.5,375.5C 230.656,372.262 231.989,369.262 233.5,366.5C 234.5,366.5 235.5,366.5 236.5,366.5C 236.34,364.801 236.506,363.134 237,361.5C 239.516,358.064 242.516,355.064 246,352.5C 246.333,351.167 246.667,349.833 247,348.5C 249.111,345.941 250.944,343.274 252.5,340.5C 253.5,340.5 254.5,340.5 255.5,340.5C 255.491,338.692 255.991,337.025 257,335.5C 260.819,332.496 263.652,328.829 265.5,324.5C 266.5,324.5 267.5,324.5 268.5,324.5C 271.002,318.901 274.502,313.901 279,309.5C 280.999,307.747 283.165,306.413 285.5,305.5C 285.351,304.448 285.517,303.448 286,302.5C 296.162,292.339 306.662,282.506 317.5,273C 318.448,272.517 319.448,272.351 320.5,272.5C 320.5,271.5 320.5,270.5 320.5,269.5C 325.009,267.67 328.676,264.67 331.5,260.5C 334.523,258.986 337.523,257.653 340.5,256.5C 340.5,255.5 340.5,254.5 340.5,253.5C 341.5,253.5 342.5,253.5 343.5,253.5C 343.5,252.5 343.5,251.5 343.5,250.5C 346.607,248.758 349.941,247.425 353.5,246.5C 353.5,245.5 353.5,244.5 353.5,243.5C 355.794,241.763 358.46,240.596 361.5,240C 364.326,236.326 367.993,234.16 372.5,233.5C 372.5,232.5 372.5,231.5 372.5,230.5C 375.411,228.533 378.744,227.533 382.5,227.5C 382.5,226.5 382.5,225.5 382.5,224.5C 386.784,223.383 390.451,221.217 393.5,218C 397.081,216.397 400.748,214.897 404.5,213.5C 409.296,210.869 413.962,208.036 418.5,205C 420.473,204.505 422.473,204.338 424.5,204.5C 424.5,203.5 424.5,202.5 424.5,201.5C 432.312,199.769 439.645,196.602 446.5,192C 448.81,191.503 451.143,191.337 453.5,191.5C 453.5,190.5 453.5,189.5 453.5,188.5C 458.42,187.272 463.42,186.105 468.5,185C 469.167,184.333 469.833,183.667 470.5,183C 476.546,181.24 482.546,179.573 488.5,178C 491.373,175.908 494.707,174.908 498.5,175C 499.333,174.167 500.167,173.333 501,172.5C 501.333,158.833 501.667,145.167 502,131.5C 502.196,129.714 503.029,128.381 504.5,127.5C 505.498,118.859 505.831,110.192 505.5,101.5C 506.5,101.5 507.5,101.5 508.5,101.5C 508.334,97.4862 508.501,93.4862 509,89.5C 511.057,86.9723 512.057,83.9723 512,80.5C 516.26,72.5585 520.426,64.5585 524.5,56.5C 525.5,56.5 526.5,56.5 527.5,56.5C 528.425,52.9408 529.758,49.6074 531.5,46.5C 532.5,46.5 533.5,46.5 534.5,46.5C 534.5,45.5 534.5,44.5 534.5,43.5C 535.5,43.5 536.5,43.5 537.5,43.5C 537.351,42.448 537.517,41.448 538,40.5C 540.167,38.3333 542.333,36.1667 544.5,34C 545.448,33.5172 546.448,33.3505 547.5,33.5C 547.5,32.5 547.5,31.5 547.5,30.5C 548.5,30.5 549.5,30.5 550.5,30.5C 553.01,25.0489 557.343,21.7156 563.5,20.5C 563.5,19.5 563.5,18.5 563.5,17.5C 564.873,17.6567 566.207,17.49 567.5,17C 573.334,11.8859 580.001,8.55262 587.5,7C 590.017,4.74922 593.017,3.91588 596.5,4.5C 596.5,3.5 596.5,2.5 596.5,1.5C 600.684,1.14909 604.684,0.482425 608.5,-0.5 Z M 634.5,107.5 C 639.957,107.245 645.29,107.912 650.5,109.5C 653.49,112.11 656.49,114.777 659.5,117.5C 660.386,118.325 660.719,119.325 660.5,120.5C 661.5,120.5 662.5,120.5 663.5,120.5C 663.335,123.518 663.502,126.518 664,129.5C 664.667,130.167 665.333,130.833 666,131.5C 666.5,139.493 666.666,147.493 666.5,155.5C 648.5,155.5 630.5,155.5 612.5,155.5C 612.334,147.493 612.5,139.493 613,131.5C 613.667,130.833 614.333,130.167 615,129.5C 615.498,126.518 615.665,123.518 615.5,120.5C 616.5,120.5 617.5,120.5 618.5,120.5C 621.871,113.701 627.204,109.367 634.5,107.5 Z M 637.5,263.5 C 639.831,263.498 641.831,264.331 643.5,266C 665.706,266.175 687.706,267.342 709.5,269.5C 709.5,270.5 709.5,271.5 709.5,272.5C 714.852,272.946 720.185,273.613 725.5,274.5C 725.709,275.086 726.043,275.586 726.5,276C 730.486,276.499 734.486,276.666 738.5,276.5C 738.5,277.5 738.5,278.5 738.5,279.5C 741.85,279.335 745.183,279.502 748.5,280C 749.167,280.667 749.833,281.333 750.5,282C 753.167,282.333 755.833,282.667 758.5,283C 761.702,285.392 765.369,286.725 769.5,287C 772.574,288.563 775.574,290.23 778.5,292C 783.795,292.743 788.795,293.91 793.5,295.5C 793.5,296.5 793.5,297.5 793.5,298.5C 795.604,298.201 797.604,298.534 799.5,299.5C 804.298,302.135 808.965,304.968 813.5,308C 815.473,308.495 817.473,308.662 819.5,308.5C 819.5,309.5 819.5,310.5 819.5,311.5C 821.5,311.5 823.5,311.5 825.5,311.5C 825.281,312.675 825.614,313.675 826.5,314.5C 833.152,318.143 839.819,321.81 846.5,325.5C 850.369,329.845 855.036,333.011 860.5,335C 862.167,336.667 863.833,338.333 865.5,340C 869.395,342.74 873.395,345.24 877.5,347.5C 877.5,348.5 877.5,349.5 877.5,350.5C 881.993,352.579 886.326,354.912 890.5,357.5C 890.5,358.5 890.5,359.5 890.5,360.5C 891.5,360.5 892.5,360.5 893.5,360.5C 893.5,361.5 893.5,362.5 893.5,363.5C 894.5,363.5 895.5,363.5 896.5,363.5C 896.5,364.5 896.5,365.5 896.5,366.5C 897.675,366.281 898.675,366.614 899.5,367.5C 901.503,369.133 902.836,371.133 903.5,373.5C 904.5,373.5 905.5,373.5 906.5,373.5C 906.5,374.5 906.5,375.5 906.5,376.5C 907.5,376.5 908.5,376.5 909.5,376.5C 909.5,377.5 909.5,378.5 909.5,379.5C 910.5,379.5 911.5,379.5 912.5,379.5C 912.281,380.675 912.614,381.675 913.5,382.5C 915.133,384.503 917.133,385.836 919.5,386.5C 919.5,387.5 919.5,388.5 919.5,389.5C 920.5,389.5 921.5,389.5 922.5,389.5C 922.5,390.5 922.5,391.5 922.5,392.5C 923.5,392.5 924.5,392.5 925.5,392.5C 925.421,393.93 925.754,395.264 926.5,396.5C 928.869,399.317 930.869,402.317 932.5,405.5C 933.5,405.5 934.5,405.5 935.5,405.5C 935.5,406.5 935.5,407.5 935.5,408.5C 936.5,408.5 937.5,408.5 938.5,408.5C 940.451,411.466 941.784,414.8 942.5,418.5C 943.5,418.5 944.5,418.5 945.5,418.5C 945.5,419.5 945.5,420.5 945.5,421.5C 946.5,421.5 947.5,421.5 948.5,421.5C 949.391,424.575 950.557,427.575 952,430.5C 955.045,434.04 957.878,437.706 960.5,441.5C 961.902,444.537 963.235,447.537 964.5,450.5C 965.5,450.5 966.5,450.5 967.5,450.5C 966.828,453.908 967.828,456.575 970.5,458.5C 971.309,460.071 971.643,461.738 971.5,463.5C 972.5,463.5 973.5,463.5 974.5,463.5C 974.34,465.199 974.506,466.866 975,468.5C 980.494,477.636 985.494,486.969 990,496.5C 990.495,498.473 990.662,500.473 990.5,502.5C 991.5,502.5 992.5,502.5 993.5,502.5C 993.337,504.857 993.503,507.19 994,509.5C 995.783,511.845 996.783,514.512 997,517.5C 998.011,518.337 999.178,518.67 1000.5,518.5C 1000.34,521.518 1000.5,524.518 1001,527.5C 1002.75,531.115 1004.41,534.782 1006,538.5C 1007.79,544.338 1009.13,550.338 1010,556.5C 1010.41,556.957 1010.91,557.291 1011.5,557.5C 1012.47,561.467 1013.31,565.467 1014,569.5C 1014.41,569.957 1014.91,570.291 1015.5,570.5C 1016.33,574.459 1016.83,578.459 1017,582.5C 1017.41,582.957 1017.91,583.291 1018.5,583.5C 1020.75,593.314 1022.25,603.314 1023,613.5C 1023.31,614.308 1023.81,614.975 1024.5,615.5C 1025.33,621.472 1025.83,627.472 1026,633.5C 1026.25,635.663 1027.25,637.33 1029,638.5C 1029.33,648.833 1029.67,659.167 1030,669.5C 1030.41,669.957 1030.91,670.291 1031.5,670.5C 1032.33,843.832 1032.83,1017.17 1033,1190.5C 1033.67,1191.17 1034.33,1191.83 1035,1192.5C 1035.33,1200.17 1035.67,1207.83 1036,1215.5C 1036.67,1216.17 1037.33,1216.83 1038,1217.5C 1038.33,1222.17 1038.67,1226.83 1039,1231.5C 1039.71,1232.97 1040.88,1233.64 1042.5,1233.5C 1042.33,1237.51 1042.5,1241.51 1043,1245.5C 1043.41,1245.96 1043.91,1246.29 1044.5,1246.5C 1045.32,1249.78 1045.82,1253.12 1046,1256.5C 1048,1262.51 1050,1268.51 1052,1274.5C 1053.01,1275.34 1054.18,1275.67 1055.5,1275.5C 1055.34,1278.19 1055.5,1280.85 1056,1283.5C 1061.61,1293.6 1066.78,1303.94 1071.5,1314.5C 1072.5,1314.5 1073.5,1314.5 1074.5,1314.5C 1074.34,1316.2 1074.51,1317.87 1075,1319.5C 1080.97,1326.7 1086.47,1334.37 1091.5,1342.5C 790.167,1343.67 488.834,1343.83 187.5,1343C 192.355,1334.63 197.855,1326.8 204,1319.5C 204.494,1317.87 204.66,1316.2 204.5,1314.5C 205.5,1314.5 206.5,1314.5 207.5,1314.5C 211.574,1306.44 215.74,1298.44 220,1290.5C 222.241,1286.19 223.575,1281.53 224,1276.5C 225,1275.83 226,1275.17 227,1274.5C 228.995,1268.51 230.995,1262.51 233,1256.5C 233.176,1253.12 233.676,1249.78 234.5,1246.5C 235.086,1246.29 235.586,1245.96 236,1245.5C 236.499,1241.51 236.666,1237.51 236.5,1233.5C 237.5,1233.5 238.5,1233.5 239.5,1233.5C 240.177,1228.2 240.677,1222.87 241,1217.5C 241.667,1216.83 242.333,1216.17 243,1215.5C 243.168,1207.48 243.668,1199.48 244.5,1191.5C 245.192,1190.97 245.692,1190.31 246,1189.5C 246.167,1016.5 246.667,843.499 247.5,670.5C 248.086,670.291 248.586,669.957 249,669.5C 249.168,658.818 249.668,648.151 250.5,637.5C 252.131,635.941 252.964,633.941 253,631.5C 255.239,615.465 257.572,599.465 260,583.5C 260.414,583.043 260.914,582.709 261.5,582.5C 262.167,578.5 262.833,574.5 263.5,570.5C 264.086,570.291 264.586,569.957 265,569.5C 265.695,565.467 266.528,561.467 267.5,557.5C 268.086,557.291 268.586,556.957 269,556.5C 270.6,550.241 272.1,543.908 273.5,537.5C 274.697,534.072 276.197,530.739 278,527.5C 278.498,524.518 278.665,521.518 278.5,518.5C 280.124,518.64 281.29,517.973 282,516.5C 282.323,513.859 283.323,511.525 285,509.5C 285.497,507.19 285.663,504.857 285.5,502.5C 286.5,502.5 287.5,502.5 288.5,502.5C 288.338,500.473 288.505,498.473 289,496.5C 293.82,487.529 298.653,478.529 303.5,469.5C 304.466,467.604 304.799,465.604 304.5,463.5C 305.5,463.5 306.5,463.5 307.5,463.5C 308.85,459.342 310.517,455.342 312.5,451.5C 313.774,449.682 315.274,448.015 317,446.5C 317.494,444.866 317.66,443.199 317.5,441.5C 318.5,441.5 319.5,441.5 320.5,441.5C 322.475,435.736 325.642,430.736 330,426.5C 330.494,424.866 330.66,423.199 330.5,421.5C 331.5,421.5 332.5,421.5 333.5,421.5C 333.5,420.5 333.5,419.5 333.5,418.5C 334.675,418.719 335.675,418.386 336.5,417.5C 339.199,415.102 340.533,412.102 340.5,408.5C 341.5,408.5 342.5,408.5 343.5,408.5C 343.5,407.5 343.5,406.5 343.5,405.5C 344.5,405.5 345.5,405.5 346.5,405.5C 349.112,400.891 352.278,396.557 356,392.5C 356.483,391.552 356.649,390.552 356.5,389.5C 357.5,389.5 358.5,389.5 359.5,389.5C 359.5,388.5 359.5,387.5 359.5,386.5C 360.675,386.719 361.675,386.386 362.5,385.5C 364.503,383.867 365.836,381.867 366.5,379.5C 367.5,379.5 368.5,379.5 369.5,379.5C 369.5,378.5 369.5,377.5 369.5,376.5C 370.5,376.5 371.5,376.5 372.5,376.5C 372.5,375.5 372.5,374.5 372.5,373.5C 373.5,373.5 374.5,373.5 375.5,373.5C 375.5,372.5 375.5,371.5 375.5,370.5C 378.5,370.833 379.833,369.5 379.5,366.5C 380.5,366.5 381.5,366.5 382.5,366.5C 382.5,365.5 382.5,364.5 382.5,363.5C 383.5,363.5 384.5,363.5 385.5,363.5C 385.5,362.5 385.5,361.5 385.5,360.5C 390.027,358.405 394.361,356.072 398.5,353.5C 398.5,352.5 398.5,351.5 398.5,350.5C 399.5,350.5 400.5,350.5 401.5,350.5C 401.5,349.5 401.5,348.5 401.5,347.5C 405.949,345.353 410.283,343.019 414.5,340.5C 414.5,339.5 414.5,338.5 414.5,337.5C 416.794,335.763 419.46,334.596 422.5,334C 426.843,329.63 431.843,326.463 437.5,324.5C 437.5,323.5 437.5,322.5 437.5,321.5C 439.5,321.5 441.5,321.5 443.5,321.5C 443.5,320.5 443.5,319.5 443.5,318.5C 446.721,317.889 449.721,316.722 452.5,315C 453.337,313.989 453.67,312.822 453.5,311.5C 455.527,311.662 457.527,311.495 459.5,311C 461.708,309.225 464.042,307.725 466.5,306.5C 468.396,305.534 470.396,305.201 472.5,305.5C 472.5,304.5 472.5,303.5 472.5,302.5C 474.527,302.662 476.527,302.495 478.5,302C 479.337,300.989 479.67,299.822 479.5,298.5C 484.388,297.165 489.388,295.998 494.5,295C 497.167,293.333 499.833,291.667 502.5,290C 504.833,289.667 507.167,289.333 509.5,289C 513.471,286.863 517.471,285.029 521.5,283.5C 524.5,282.833 527.5,282.167 530.5,281.5C 530.709,280.914 531.043,280.414 531.5,280C 543.157,277.601 554.823,275.268 566.5,273C 568.618,272.74 570.284,271.74 571.5,270C 577.5,269.667 583.5,269.333 589.5,269C 590.308,268.692 590.975,268.192 591.5,267.5C 606.155,266.667 620.822,266.167 635.5,266C 636.756,265.583 637.423,264.75 637.5,263.5 Z M 553.5,1453.5 C 610.833,1453.5 668.167,1453.5 725.5,1453.5C 725.666,1462.51 725.5,1471.51 725,1480.5C 721.903,1483.86 720.736,1487.86 721.5,1492.5C 720.5,1492.5 719.5,1492.5 718.5,1492.5C 717.888,1496.7 716.721,1500.7 715,1504.5C 710.796,1510.29 706.629,1515.95 702.5,1521.5C 701.5,1521.5 700.5,1521.5 699.5,1521.5C 699.5,1522.5 699.5,1523.5 699.5,1524.5C 698.5,1524.5 697.5,1524.5 696.5,1524.5C 696.5,1525.5 696.5,1526.5 696.5,1527.5C 695.448,1527.35 694.448,1527.52 693.5,1528C 691.329,1532.01 687.996,1534.18 683.5,1534.5C 683.5,1535.5 683.5,1536.5 683.5,1537.5C 680.654,1537.03 678.321,1537.86 676.5,1540C 671.268,1542.07 665.934,1544.07 660.5,1546C 646.5,1548 632.5,1548 618.5,1546C 613.066,1544.07 607.732,1542.07 602.5,1540C 600.679,1537.86 598.346,1537.03 595.5,1537.5C 595.5,1536.5 595.5,1535.5 595.5,1534.5C 591.004,1534.18 587.671,1532.01 585.5,1528C 584.552,1527.52 583.552,1527.35 582.5,1527.5C 582.5,1526.5 582.5,1525.5 582.5,1524.5C 581.5,1524.5 580.5,1524.5 579.5,1524.5C 579.5,1523.5 579.5,1522.5 579.5,1521.5C 578.5,1521.5 577.5,1521.5 576.5,1521.5C 572.358,1515.91 568.191,1510.25 564,1504.5C 562.279,1500.7 561.112,1496.7 560.5,1492.5C 559.5,1492.5 558.5,1492.5 557.5,1492.5C 557.665,1489.48 557.498,1486.48 557,1483.5C 555.667,1482.83 554.667,1481.83 554,1480.5C 553.5,1471.51 553.334,1462.51 553.5,1453.5 Z"/></g>
</svg>
