<?xml version="1.0" encoding="UTF-8"?>
<!DOCTYPE svg PUBLIC "-//W3C//DTD SVG 1.1//EN" "http://www.w3.org/Graphics/SVG/1.1/DTD/svg11.dtd">
<svg xmlns="http://www.w3.org/2000/svg" version="1.1" width="1280px" height="1280px" style="shape-rendering:geometricPrecision; text-rendering:geometricPrecision; image-rendering:optimizeQuality; fill-rule:evenodd; clip-rule:evenodd" xmlns:xlink="http://www.w3.org/1999/xlink">
<g><path style="opacity:0.992" fill="#04293a" d="M 613.5,-0.5 C 630.167,-0.5 646.833,-0.5 663.5,-0.5C 666.625,0.479442 669.958,0.812775 673.5,0.5C 673.5,1.5 673.5,2.5 673.5,3.5C 677.573,3.80793 681.573,4.47459 685.5,5.5C 685.5,6.5 685.5,7.5 685.5,8.5C 688.833,9.16667 692.167,9.83333 695.5,10.5C 695.5,11.5 695.5,12.5 695.5,13.5C 700.08,15.4216 704.413,17.755 708.5,20.5C 708.833,23.5 710.5,25.1667 713.5,25.5C 713.833,28.5 715.5,30.1667 718.5,30.5C 718.833,33.5 720.5,35.1667 723.5,35.5C 724.64,38.0248 725.307,40.6915 725.5,43.5C 729.322,44.1797 730.989,46.513 730.5,50.5C 731.5,50.5 732.5,50.5 733.5,50.5C 734.167,53.8333 734.833,57.1667 735.5,60.5C 736.5,60.5 737.5,60.5 738.5,60.5C 739.007,65.5261 739.674,70.5261 740.5,75.5C 741.5,75.5 742.5,75.5 743.5,75.5C 745.033,94.7939 745.7,114.127 745.5,133.5C 748.658,134.876 751.991,135.542 755.5,135.5C 755.5,136.5 755.5,137.5 755.5,138.5C 760.526,139.007 765.526,139.674 770.5,140.5C 770.5,141.5 770.5,142.5 770.5,143.5C 774.923,143.69 779.256,144.357 783.5,145.5C 783.5,146.5 783.5,147.5 783.5,148.5C 787.573,148.808 791.573,149.475 795.5,150.5C 795.5,151.5 795.5,152.5 795.5,153.5C 802.594,155.006 809.26,157.339 815.5,160.5C 815.5,161.5 815.5,162.5 815.5,163.5C 818.833,164.167 822.167,164.833 825.5,165.5C 825.5,166.5 825.5,167.5 825.5,168.5C 831.5,170.833 837.5,173.167 843.5,175.5C 844.18,179.322 846.513,180.989 850.5,180.5C 850.5,181.5 850.5,182.5 850.5,183.5C 853.025,184.64 855.692,185.307 858.5,185.5C 858.281,186.675 858.614,187.675 859.5,188.5C 862.648,190.243 865.648,192.243 868.5,194.5C 869.853,195.524 870.52,196.857 870.5,198.5C 873.33,198.694 875.996,199.361 878.5,200.5C 878.833,203.5 880.5,205.167 883.5,205.5C 883.281,206.675 883.614,207.675 884.5,208.5C 888.104,210.436 891.437,212.769 894.5,215.5C 895.386,216.325 895.719,217.325 895.5,218.5C 898.5,218.833 900.167,220.5 900.5,223.5C 903.5,223.833 905.167,225.5 905.5,228.5C 908.5,228.833 910.167,230.5 910.5,233.5C 913.5,233.833 915.167,235.5 915.5,238.5C 916.675,238.281 917.675,238.614 918.5,239.5C 921.609,242.278 923.942,245.611 925.5,249.5C 926.325,250.386 927.325,250.719 928.5,250.5C 928.833,253.5 930.5,255.167 933.5,255.5C 935.422,260.08 937.755,264.413 940.5,268.5C 941.5,268.5 942.5,268.5 943.5,268.5C 944.167,270.833 944.833,273.167 945.5,275.5C 946.5,275.5 947.5,275.5 948.5,275.5C 949.64,278.025 950.307,280.692 950.5,283.5C 954.322,284.18 955.989,286.513 955.5,290.5C 956.5,290.5 957.5,290.5 958.5,290.5C 959.64,293.025 960.307,295.692 960.5,298.5C 961.5,298.5 962.5,298.5 963.5,298.5C 963.296,302.281 964.963,304.614 968.5,305.5C 969.167,308.833 969.833,312.167 970.5,315.5C 971.5,315.5 972.5,315.5 973.5,315.5C 976.247,321.279 978.58,327.279 980.5,333.5C 981.5,333.5 982.5,333.5 983.5,333.5C 983.689,337.64 984.356,341.64 985.5,345.5C 986.5,345.5 987.5,345.5 988.5,345.5C 989.167,348.833 989.833,352.167 990.5,355.5C 991.5,355.5 992.5,355.5 993.5,355.5C 993.69,359.923 994.357,364.256 995.5,368.5C 996.5,368.5 997.5,368.5 998.5,368.5C 999.326,373.474 999.993,378.474 1000.5,383.5C 1001.5,383.5 1002.5,383.5 1003.5,383.5C 1004.33,388.474 1004.99,393.474 1005.5,398.5C 1006.5,398.5 1007.5,398.5 1008.5,398.5C 1008.78,404.222 1009.45,409.889 1010.5,415.5C 1011.5,415.5 1012.5,415.5 1013.5,415.5C 1014.47,423.134 1015.14,430.801 1015.5,438.5C 1016.5,438.5 1017.5,438.5 1018.5,438.5C 1019.43,447.476 1020.1,456.476 1020.5,465.5C 1021.5,465.5 1022.5,465.5 1023.5,465.5C 1024.54,479.812 1025.2,494.145 1025.5,508.5C 1026.5,508.5 1027.5,508.5 1028.5,508.5C 1028.5,514.5 1028.5,520.5 1028.5,526.5C 1027.5,654.666 1027.17,782.999 1027.5,911.5C 1028.5,911.5 1029.5,911.5 1030.5,911.5C 1030.5,917.167 1030.5,922.833 1030.5,928.5C 1031.5,928.5 1032.5,928.5 1033.5,928.5C 1034.17,935.167 1034.83,941.833 1035.5,948.5C 1036.5,948.5 1037.5,948.5 1038.5,948.5C 1039.53,952.427 1040.19,956.427 1040.5,960.5C 1041.5,960.5 1042.5,960.5 1043.5,960.5C 1043.21,962.288 1043.55,963.955 1044.5,965.5C 1048.38,971.484 1052.05,977.484 1055.5,983.5C 1056.5,983.5 1057.5,983.5 1058.5,983.5C 1059.45,985.737 1060.12,988.071 1060.5,990.5C 1061.5,990.5 1062.5,990.5 1063.5,990.5C 1063.83,993.5 1065.5,995.167 1068.5,995.5C 1068.83,998.5 1070.5,1000.17 1073.5,1000.5C 1073.5,1001.5 1073.5,1002.5 1073.5,1003.5C 1075.93,1003.88 1078.26,1004.55 1080.5,1005.5C 1080.5,1006.5 1080.5,1007.5 1080.5,1008.5C 1083.5,1008.83 1085.17,1010.5 1085.5,1013.5C 1088,1014.64 1090.67,1015.31 1093.5,1015.5C 1093.28,1016.68 1093.61,1017.68 1094.5,1018.5C 1097.13,1021.13 1100.13,1023.13 1103.5,1024.5C 1104.85,1025.52 1105.52,1026.86 1105.5,1028.5C 1108.33,1028.69 1111,1029.36 1113.5,1030.5C 1113.83,1033.5 1115.5,1035.17 1118.5,1035.5C 1118.28,1036.68 1118.61,1037.68 1119.5,1038.5C 1126.17,1042.49 1131.5,1047.83 1135.5,1054.5C 1136.32,1055.39 1137.32,1055.72 1138.5,1055.5C 1139.17,1058.83 1139.83,1062.17 1140.5,1065.5C 1141.5,1065.5 1142.5,1065.5 1143.5,1065.5C 1143.71,1071.04 1144.37,1076.54 1145.5,1082C 1144.37,1087.46 1143.71,1092.96 1143.5,1098.5C 1142.5,1098.5 1141.5,1098.5 1140.5,1098.5C 1140.79,1100.29 1140.45,1101.95 1139.5,1103.5C 1137.03,1106.62 1135.03,1109.95 1133.5,1113.5C 1129.95,1115.03 1126.62,1117.03 1123.5,1119.5C 1121.95,1120.45 1120.29,1120.79 1118.5,1120.5C 1118.5,1121.5 1118.5,1122.5 1118.5,1123.5C 1114.17,1123.5 1109.83,1123.5 1105.5,1123.5C 950.668,1122.17 795.501,1121.5 640,1121.5C 484.666,1121.5 329.5,1121.83 174.5,1122.5C 173.833,1122.5 173.5,1122.83 173.5,1123.5C 169.167,1123.5 164.833,1123.5 160.5,1123.5C 160.5,1122.5 160.5,1121.5 160.5,1120.5C 158.712,1120.79 157.045,1120.45 155.5,1119.5C 152.381,1117.03 149.048,1115.03 145.5,1113.5C 144.16,1109.82 142.16,1106.49 139.5,1103.5C 138.548,1101.95 138.215,1100.29 138.5,1098.5C 137.5,1098.5 136.5,1098.5 135.5,1098.5C 135.292,1092.96 134.626,1087.46 133.5,1082C 134.626,1076.54 135.292,1071.04 135.5,1065.5C 136.5,1065.5 137.5,1065.5 138.5,1065.5C 139.167,1062.17 139.833,1058.83 140.5,1055.5C 141.675,1055.72 142.675,1055.39 143.5,1054.5C 147.503,1047.82 152.837,1042.48 159.5,1038.5C 160.386,1037.68 160.719,1036.68 160.5,1035.5C 163.5,1035.17 165.167,1033.5 165.5,1030.5C 168.33,1030.31 170.996,1029.64 173.5,1028.5C 173.281,1027.32 173.614,1026.32 174.5,1025.5C 177.981,1024.21 180.981,1022.21 183.5,1019.5C 184.853,1018.48 185.52,1017.14 185.5,1015.5C 188.33,1015.31 190.996,1014.64 193.5,1013.5C 193.833,1010.5 195.5,1008.83 198.5,1008.5C 198.5,1007.5 198.5,1006.5 198.5,1005.5C 200.737,1004.55 203.071,1003.88 205.5,1003.5C 205.5,1002.5 205.5,1001.5 205.5,1000.5C 208.5,1000.17 210.167,998.5 210.5,995.5C 213.5,995.167 215.167,993.5 215.5,990.5C 216.5,990.5 217.5,990.5 218.5,990.5C 218.884,988.071 219.551,985.737 220.5,983.5C 221.5,983.5 222.5,983.5 223.5,983.5C 226.814,978.742 229.98,973.742 233,968.5C 234.61,966.061 235.444,963.394 235.5,960.5C 236.5,960.5 237.5,960.5 238.5,960.5C 238.808,956.427 239.475,952.427 240.5,948.5C 241.5,948.5 242.5,948.5 243.5,948.5C 244.167,941.833 244.833,935.167 245.5,928.5C 246.5,928.5 247.5,928.5 248.5,928.5C 247.88,922.074 248.547,916.074 250.5,910.5C 251.833,847.004 252.5,783.17 252.5,719C 252.333,655.167 252.167,591.333 252,527.5C 251.79,525.942 251.29,524.609 250.5,523.5C 250.5,518.5 250.5,513.5 250.5,508.5C 251.5,508.5 252.5,508.5 253.5,508.5C 253.795,494.145 254.462,479.812 255.5,465.5C 256.5,465.5 257.5,465.5 258.5,465.5C 258.903,456.476 259.57,447.476 260.5,438.5C 261.5,438.5 262.5,438.5 263.5,438.5C 263.864,430.801 264.531,423.134 265.5,415.5C 266.5,415.5 267.5,415.5 268.5,415.5C 269.555,409.889 270.221,404.222 270.5,398.5C 271.5,398.5 272.5,398.5 273.5,398.5C 274.007,393.474 274.674,388.474 275.5,383.5C 276.5,383.5 277.5,383.5 278.5,383.5C 279.007,378.474 279.674,373.474 280.5,368.5C 281.5,368.5 282.5,368.5 283.5,368.5C 284.643,364.256 285.31,359.923 285.5,355.5C 286.5,355.5 287.5,355.5 288.5,355.5C 289.167,352.167 289.833,348.833 290.5,345.5C 291.5,345.5 292.5,345.5 293.5,345.5C 294.644,341.64 295.311,337.64 295.5,333.5C 296.5,333.5 297.5,333.5 298.5,333.5C 300.856,327.488 303.189,321.488 305.5,315.5C 306.5,315.5 307.5,315.5 308.5,315.5C 309.167,312.167 309.833,308.833 310.5,305.5C 314.037,304.614 315.704,302.281 315.5,298.5C 316.5,298.5 317.5,298.5 318.5,298.5C 318.693,295.692 319.36,293.025 320.5,290.5C 321.5,290.5 322.5,290.5 323.5,290.5C 323.011,286.513 324.678,284.18 328.5,283.5C 328.693,280.692 329.36,278.025 330.5,275.5C 334.037,274.614 335.704,272.281 335.5,268.5C 336.5,268.5 337.5,268.5 338.5,268.5C 341.245,264.413 343.578,260.08 345.5,255.5C 348.5,255.167 350.167,253.5 350.5,250.5C 351.675,250.719 352.675,250.386 353.5,249.5C 355.058,245.611 357.391,242.278 360.5,239.5C 361.325,238.614 362.325,238.281 363.5,238.5C 363.833,235.5 365.5,233.833 368.5,233.5C 368.833,230.5 370.5,228.833 373.5,228.5C 373.833,225.5 375.5,223.833 378.5,223.5C 378.833,220.5 380.5,218.833 383.5,218.5C 383.281,217.325 383.614,216.325 384.5,215.5C 387.234,213.099 390.234,211.099 393.5,209.5C 394.853,208.476 395.52,207.143 395.5,205.5C 398.5,205.167 400.167,203.5 400.5,200.5C 403.004,199.361 405.67,198.694 408.5,198.5C 408.281,197.325 408.614,196.325 409.5,195.5C 412.243,193.086 415.243,191.086 418.5,189.5C 419.853,188.476 420.52,187.143 420.5,185.5C 423.308,185.307 425.975,184.64 428.5,183.5C 428.5,182.5 428.5,181.5 428.5,180.5C 432.487,180.989 434.82,179.322 435.5,175.5C 441.5,173.167 447.5,170.833 453.5,168.5C 453.5,167.5 453.5,166.5 453.5,165.5C 456.833,164.833 460.167,164.167 463.5,163.5C 463.5,162.5 463.5,161.5 463.5,160.5C 466.684,159.357 470.017,158.691 473.5,158.5C 473.5,157.5 473.5,156.5 473.5,155.5C 476.833,154.833 480.167,154.167 483.5,153.5C 483.5,152.5 483.5,151.5 483.5,150.5C 487.427,149.475 491.427,148.808 495.5,148.5C 495.5,147.5 495.5,146.5 495.5,145.5C 499.744,144.357 504.077,143.69 508.5,143.5C 508.5,142.5 508.5,141.5 508.5,140.5C 513.474,139.674 518.474,139.007 523.5,138.5C 523.5,137.5 523.5,136.5 523.5,135.5C 527.009,135.542 530.342,134.876 533.5,133.5C 533.3,114.127 533.967,94.7939 535.5,75.5C 536.5,75.5 537.5,75.5 538.5,75.5C 539.326,70.5261 539.993,65.5261 540.5,60.5C 541.5,60.5 542.5,60.5 543.5,60.5C 544.167,57.1667 544.833,53.8333 545.5,50.5C 546.5,50.5 547.5,50.5 548.5,50.5C 548.011,46.513 549.678,44.1797 553.5,43.5C 553.693,40.6915 554.36,38.0248 555.5,35.5C 558.5,35.1667 560.167,33.5 560.5,30.5C 563.5,30.1667 565.167,28.5 565.5,25.5C 568.5,25.1667 570.167,23.5 570.5,20.5C 575.115,17.5767 579.782,14.5767 584.5,11.5C 587.243,9.66822 590.243,8.66822 593.5,8.5C 593.5,7.5 593.5,6.5 593.5,5.5C 597.427,4.47459 601.427,3.80793 605.5,3.5C 605.5,2.5 605.5,1.5 605.5,0.5C 608.385,0.8064 611.052,0.473067 613.5,-0.5 Z M 630.5,83.5 C 636.537,83.1707 642.537,83.5041 648.5,84.5C 649.853,85.5237 650.52,86.857 650.5,88.5C 653.5,88.8333 655.167,90.5 655.5,93.5C 656.5,93.5 657.5,93.5 658.5,93.5C 658.5,102.5 658.5,111.5 658.5,120.5C 645.833,117.833 633.167,117.833 620.5,120.5C 620.5,111.5 620.5,102.5 620.5,93.5C 621.5,93.5 622.5,93.5 623.5,93.5C 623.833,90.5 625.5,88.8333 628.5,88.5C 628.831,86.6776 629.498,85.0109 630.5,83.5 Z M 987.5,1035.5 C 988.404,1036.21 988.737,1037.21 988.5,1038.5C 755.833,1038.5 523.167,1038.5 290.5,1038.5C 290.831,1036.68 291.498,1035.01 292.5,1033.5C 293.575,1030.76 295.575,1029.09 298.5,1028.5C 298.693,1025.69 299.36,1023.02 300.5,1020.5C 301.5,1020.5 302.5,1020.5 303.5,1020.5C 303.011,1016.51 304.678,1014.18 308.5,1013.5C 309.167,1010.17 309.833,1006.83 310.5,1003.5C 311.5,1003.5 312.5,1003.5 313.5,1003.5C 314.167,1000.17 314.833,996.833 315.5,993.5C 316.5,993.5 317.5,993.5 318.5,993.5C 318.69,989.077 319.357,984.744 320.5,980.5C 321.5,980.5 322.5,980.5 323.5,980.5C 324.326,975.526 324.993,970.526 325.5,965.5C 326.5,965.5 327.5,965.5 328.5,965.5C 329.384,958.191 330.051,950.858 330.5,943.5C 331.5,943.5 332.5,943.5 333.5,943.5C 335.44,804.189 336.107,664.856 335.5,525.5C 336.5,525.5 337.5,525.5 338.5,525.5C 338.591,509.803 339.258,494.136 340.5,478.5C 341.5,478.5 342.5,478.5 343.5,478.5C 343.991,469.151 344.658,459.818 345.5,450.5C 346.5,450.5 347.5,450.5 348.5,450.5C 348.779,444.778 349.445,439.111 350.5,433.5C 351.5,433.5 352.5,433.5 353.5,433.5C 353.908,427.465 354.574,421.465 355.5,415.5C 356.5,415.5 357.5,415.5 358.5,415.5C 359.326,410.526 359.993,405.526 360.5,400.5C 361.5,400.5 362.5,400.5 363.5,400.5C 364.525,396.573 365.192,392.573 365.5,388.5C 366.5,388.5 367.5,388.5 368.5,388.5C 369.167,385.167 369.833,381.833 370.5,378.5C 371.5,378.5 372.5,378.5 373.5,378.5C 374.167,375.167 374.833,371.833 375.5,368.5C 376.5,368.5 377.5,368.5 378.5,368.5C 379.167,365.167 379.833,361.833 380.5,358.5C 381.5,358.5 382.5,358.5 383.5,358.5C 384.997,352.062 387.33,346.062 390.5,340.5C 394.037,339.614 395.704,337.281 395.5,333.5C 396.5,333.5 397.5,333.5 398.5,333.5C 399.64,330.975 400.307,328.308 400.5,325.5C 401.675,325.719 402.675,325.386 403.5,324.5C 406.135,321.872 408.135,318.872 409.5,315.5C 410.524,314.147 411.857,313.48 413.5,313.5C 415.049,310.108 417.216,307.108 420,304.5C 420.49,303.207 420.657,301.873 420.5,300.5C 423.5,300.167 425.167,298.5 425.5,295.5C 428.5,295.167 430.167,293.5 430.5,290.5C 433.5,290.167 435.167,288.5 435.5,285.5C 438.5,285.167 440.167,283.5 440.5,280.5C 444.825,278.181 449.158,275.848 453.5,273.5C 453.833,270.5 455.5,268.833 458.5,268.5C 458.5,267.5 458.5,266.5 458.5,265.5C 462.281,265.704 464.614,264.037 465.5,260.5C 468.025,259.36 470.692,258.693 473.5,258.5C 474.18,254.678 476.513,253.011 480.5,253.5C 480.5,252.5 480.5,251.5 480.5,250.5C 483.025,249.36 485.692,248.693 488.5,248.5C 488.5,247.5 488.5,246.5 488.5,245.5C 492.171,245.798 494.837,244.298 496.5,241C 499.368,239.617 502.368,238.784 505.5,238.5C 505.5,237.5 505.5,236.5 505.5,235.5C 508.833,234.833 512.167,234.167 515.5,233.5C 515.5,232.5 515.5,231.5 515.5,230.5C 519.923,230.31 524.256,229.643 528.5,228.5C 528.5,227.5 528.5,226.5 528.5,225.5C 532.427,224.475 536.427,223.808 540.5,223.5C 540.5,222.5 540.5,221.5 540.5,220.5C 545.526,219.993 550.526,219.326 555.5,218.5C 555.5,217.5 555.5,216.5 555.5,215.5C 562.167,214.833 568.833,214.167 575.5,213.5C 575.5,212.5 575.5,211.5 575.5,210.5C 585.475,209.523 595.475,208.856 605.5,208.5C 605.5,207.5 605.5,206.5 605.5,205.5C 628.167,205.5 650.833,205.5 673.5,205.5C 673.5,206.5 673.5,207.5 673.5,208.5C 683.525,208.856 693.525,209.523 703.5,210.5C 703.5,211.5 703.5,212.5 703.5,213.5C 710.167,214.167 716.833,214.833 723.5,215.5C 723.5,216.5 723.5,217.5 723.5,218.5C 728.474,219.326 733.474,219.993 738.5,220.5C 738.5,221.5 738.5,222.5 738.5,223.5C 742.573,223.808 746.573,224.475 750.5,225.5C 750.5,226.5 750.5,227.5 750.5,228.5C 754.923,228.69 759.256,229.357 763.5,230.5C 763.5,231.5 763.5,232.5 763.5,233.5C 766.833,234.167 770.167,234.833 773.5,235.5C 773.5,236.5 773.5,237.5 773.5,238.5C 776.833,239.167 780.167,239.833 783.5,240.5C 783.5,241.5 783.5,242.5 783.5,243.5C 787.487,243.011 789.82,244.678 790.5,248.5C 793.394,248.556 796.061,249.39 798.5,251C 803.307,254.595 808.307,257.762 813.5,260.5C 813.5,261.5 813.5,262.5 813.5,263.5C 817.281,263.296 819.614,264.963 820.5,268.5C 824.125,269.66 827.125,271.826 829.5,275C 830.793,275.49 832.127,275.657 833.5,275.5C 833.833,278.5 835.5,280.167 838.5,280.5C 838.833,283.5 840.5,285.167 843.5,285.5C 843.833,288.5 845.5,290.167 848.5,290.5C 848.833,293.5 850.5,295.167 853.5,295.5C 853.833,298.5 855.5,300.167 858.5,300.5C 860.819,304.825 863.152,309.158 865.5,313.5C 866.675,313.281 867.675,313.614 868.5,314.5C 871.135,317.128 873.135,320.128 874.5,323.5C 875.524,324.853 876.857,325.52 878.5,325.5C 878.694,328.33 879.361,330.996 880.5,333.5C 881.5,333.5 882.5,333.5 883.5,333.5C 883.884,335.929 884.551,338.263 885.5,340.5C 886.5,340.5 887.5,340.5 888.5,340.5C 888.693,343.308 889.36,345.975 890.5,348.5C 891.5,348.5 892.5,348.5 893.5,348.5C 894.167,351.833 894.833,355.167 895.5,358.5C 896.5,358.5 897.5,358.5 898.5,358.5C 899.167,361.833 899.833,365.167 900.5,368.5C 901.5,368.5 902.5,368.5 903.5,368.5C 904.167,371.833 904.833,375.167 905.5,378.5C 906.5,378.5 907.5,378.5 908.5,378.5C 909.167,381.833 909.833,385.167 910.5,388.5C 911.5,388.5 912.5,388.5 913.5,388.5C 913.808,392.573 914.475,396.573 915.5,400.5C 916.5,400.5 917.5,400.5 918.5,400.5C 919.007,405.526 919.674,410.526 920.5,415.5C 921.5,415.5 922.5,415.5 923.5,415.5C 924.426,421.465 925.092,427.465 925.5,433.5C 926.5,433.5 927.5,433.5 928.5,433.5C 929.77,440.092 930.437,446.759 930.5,453.5C 931.5,453.5 932.5,453.5 933.5,453.5C 934.605,461.79 935.272,470.124 935.5,478.5C 936.5,478.5 937.5,478.5 938.5,478.5C 939.742,494.136 940.409,509.803 940.5,525.5C 941.5,525.5 942.5,525.5 943.5,525.5C 942.893,664.856 943.56,804.189 945.5,943.5C 946.5,943.5 947.5,943.5 948.5,943.5C 948.949,950.858 949.616,958.191 950.5,965.5C 951.5,965.5 952.5,965.5 953.5,965.5C 954.007,970.526 954.674,975.526 955.5,980.5C 956.5,980.5 957.5,980.5 958.5,980.5C 959.643,984.744 960.31,989.077 960.5,993.5C 961.5,993.5 962.5,993.5 963.5,993.5C 964.167,996.833 964.833,1000.17 965.5,1003.5C 966.5,1003.5 967.5,1003.5 968.5,1003.5C 969.167,1006.83 969.833,1010.17 970.5,1013.5C 974.322,1014.18 975.989,1016.51 975.5,1020.5C 976.5,1020.5 977.5,1020.5 978.5,1020.5C 979.64,1023.02 980.307,1025.69 980.5,1028.5C 981.675,1028.28 982.675,1028.61 983.5,1029.5C 985.023,1031.47 986.356,1033.47 987.5,1035.5 Z"/></g>
<g><path style="opacity:0.295" fill="#012936" d="M 250.5,523.5 C 251.29,524.609 251.79,525.942 252,527.5C 252.167,591.333 252.333,655.167 252.5,719C 252.5,783.17 251.833,847.004 250.5,910.5C 250.5,781.5 250.5,652.5 250.5,523.5 Z"/></g>
<g><path style="opacity:0.102" fill="#002731" d="M 1028.5,526.5 C 1027.84,655.044 1028.5,783.377 1030.5,911.5C 1029.5,911.5 1028.5,911.5 1027.5,911.5C 1027.17,782.999 1027.5,654.666 1028.5,526.5 Z"/></g>
<g><path style="opacity:0.627" fill="#113444" d="M 292.5,1033.5 C 291.498,1035.01 290.831,1036.68 290.5,1038.5C 523.167,1038.5 755.833,1038.5 988.5,1038.5C 990.484,1038.38 992.15,1039.05 993.5,1040.5C 757.5,1041.83 521.5,1041.83 285.5,1040.5C 286.243,1039.82 286.909,1039.15 287.5,1038.5C 288.239,1038.63 288.906,1038.46 289.5,1038C 286.857,1035.57 287.357,1033.74 291,1032.5C 291.765,1032.57 292.265,1032.9 292.5,1033.5 Z"/></g>
<g><path style="opacity:0.984" fill="#0a2e3f" d="M 287.5,1038.5 C 286.909,1039.15 286.243,1039.82 285.5,1040.5C 521.5,1041.83 757.5,1041.83 993.5,1040.5C 992.15,1039.05 990.484,1038.38 988.5,1038.5C 988.737,1037.21 988.404,1036.21 987.5,1035.5C 987.783,1034.71 988.283,1034.04 989,1033.5C 990.011,1034.34 991.178,1034.67 992.5,1034.5C 993.639,1037 994.306,1039.67 994.5,1042.5C 757.833,1042.5 521.167,1042.5 284.5,1042.5C 284.5,1041.17 284.5,1039.83 284.5,1038.5C 285.5,1038.5 286.5,1038.5 287.5,1038.5 Z"/></g>
<g><path style="opacity:0.969" fill="#0d3141" d="M 174.5,1122.5 C 329.5,1121.83 484.666,1121.5 640,1121.5C 795.501,1121.5 950.668,1122.17 1105.5,1123.5C 973.57,1122.5 841.57,1122.17 709.5,1122.5C 709.5,1123.5 709.5,1124.5 709.5,1125.5C 708.833,1125.5 708.167,1125.5 707.5,1125.5C 707.5,1124.5 707.5,1123.5 707.5,1122.5C 529.833,1122.5 352.167,1122.5 174.5,1122.5 Z"/></g>
<g><path style="opacity:0.663" fill="#193a4a" d="M 174.5,1122.5 C 352.167,1122.5 529.833,1122.5 707.5,1122.5C 707.5,1123.5 707.5,1124.5 707.5,1125.5C 529.164,1126.17 351.164,1125.5 173.5,1123.5C 173.5,1122.83 173.833,1122.5 174.5,1122.5 Z"/></g>
<g><path style="opacity:0.663" fill="#193a4a" d="M 1105.5,1123.5 C 973.838,1125.5 841.838,1126.16 709.5,1125.5C 709.5,1124.5 709.5,1123.5 709.5,1122.5C 841.57,1122.17 973.57,1122.5 1105.5,1123.5 Z"/></g>
</svg>
