<?xml version="1.0" encoding="UTF-8"?>
<!DOCTYPE svg PUBLIC "-//W3C//DTD SVG 1.1//EN" "http://www.w3.org/Graphics/SVG/1.1/DTD/svg11.dtd">
<svg xmlns="http://www.w3.org/2000/svg" version="1.1" width="1280px" height="1280px" style="shape-rendering:geometricPrecision; text-rendering:geometricPrecision; image-rendering:optimizeQuality; fill-rule:evenodd; clip-rule:evenodd" xmlns:xlink="http://www.w3.org/1999/xlink">
<g><path style="opacity:0.988" fill="#04293a" d="M 1279.5,455.5 C 1279.5,522.167 1279.5,588.833 1279.5,655.5C 1278.51,660.305 1278.18,665.305 1278.5,670.5C 1277.5,670.5 1276.5,670.5 1275.5,670.5C 1275.27,678.876 1274.6,687.21 1273.5,695.5C 1272.5,695.5 1271.5,695.5 1270.5,695.5C 1270.09,701.535 1269.43,707.535 1268.5,713.5C 1267.5,713.5 1266.5,713.5 1265.5,713.5C 1264.67,718.474 1264.01,723.474 1263.5,728.5C 1262.5,728.5 1261.5,728.5 1260.5,728.5C 1259.67,733.474 1259.01,738.474 1258.5,743.5C 1257.5,743.5 1256.5,743.5 1255.5,743.5C 1254.83,746.833 1254.17,750.167 1253.5,753.5C 1252.5,753.5 1251.5,753.5 1250.5,753.5C 1249.83,761.519 1246.83,768.519 1241.5,774.5C 1239.95,777.359 1238.95,780.359 1238.5,783.5C 1237.5,783.5 1236.5,783.5 1235.5,783.5C 1234.83,786.833 1234.17,790.167 1233.5,793.5C 1231.86,793.48 1230.52,794.147 1229.5,795.5C 1228.64,799.153 1226.8,802.153 1224,804.5C 1223.51,805.793 1223.34,807.127 1223.5,808.5C 1221.86,808.48 1220.52,809.147 1219.5,810.5C 1215.66,816.424 1211.99,822.424 1208.5,828.5C 1205.53,829.308 1203.7,831.308 1203,834.5C 1193.68,844.324 1184.51,854.324 1175.5,864.5C 1167.84,870.162 1160.84,876.495 1154.5,883.5C 1152.83,885.086 1150.83,885.753 1148.5,885.5C 1148.5,886.5 1148.5,887.5 1148.5,888.5C 1145.5,888.833 1143.83,890.5 1143.5,893.5C 1139.4,894.203 1136.06,896.203 1133.5,899.5C 1131.95,900.452 1130.29,900.785 1128.5,900.5C 1128.5,901.5 1128.5,902.5 1128.5,903.5C 1124.43,904.341 1121.1,906.341 1118.5,909.5C 1116.95,910.452 1115.29,910.785 1113.5,910.5C 1113.5,911.5 1113.5,912.5 1113.5,913.5C 1110.17,913.5 1107.5,914.833 1105.5,917.5C 1092.17,924.167 1078.83,930.833 1065.5,937.5C 1061.54,938.777 1057.54,939.777 1053.5,940.5C 1053.5,941.5 1053.5,942.5 1053.5,943.5C 1048.47,944.007 1043.47,944.674 1038.5,945.5C 1038.5,946.5 1038.5,947.5 1038.5,948.5C 1032.82,949.149 1027.16,949.982 1021.5,951C 1021.04,951.414 1020.71,951.914 1020.5,952.5C 1014.2,953.861 1007.86,955.027 1001.5,956C 1001.04,956.414 1000.71,956.914 1000.5,957.5C 989.901,959.316 979.234,960.316 968.5,960.5C 968.5,961.5 968.5,962.5 968.5,963.5C 763.451,962.849 558.451,963.516 353.5,965.5C 353.5,966.5 353.5,967.5 353.5,968.5C 350.167,969.167 346.833,969.833 343.5,970.5C 343.5,971.5 343.5,972.5 343.5,973.5C 340.167,974.167 336.833,974.833 333.5,975.5C 333.5,976.5 333.5,977.5 333.5,978.5C 325.526,979.996 317.859,982.33 310.5,985.5C 310.5,986.5 310.5,987.5 310.5,988.5C 307.167,989.167 303.833,989.833 300.5,990.5C 300.5,991.5 300.5,992.5 300.5,993.5C 297.167,994.167 293.833,994.833 290.5,995.5C 290.5,996.5 290.5,997.5 290.5,998.5C 286.427,998.808 282.427,999.475 278.5,1000.5C 278.5,1001.5 278.5,1002.5 278.5,1003.5C 275.167,1004.17 271.833,1004.83 268.5,1005.5C 268.5,1006.5 268.5,1007.5 268.5,1008.5C 265.167,1009.17 261.833,1009.83 258.5,1010.5C 258.5,1011.5 258.5,1012.5 258.5,1013.5C 254.256,1014.64 249.923,1015.31 245.5,1015.5C 245.5,1016.5 245.5,1017.5 245.5,1018.5C 242.167,1019.17 238.833,1019.83 235.5,1020.5C 235.5,1021.5 235.5,1022.5 235.5,1023.5C 232.167,1024.17 228.833,1024.83 225.5,1025.5C 225.5,1026.5 225.5,1027.5 225.5,1028.5C 217.987,1030.36 210.654,1032.7 203.5,1035.5C 203.5,1036.5 203.5,1037.5 203.5,1038.5C 200.167,1039.17 196.833,1039.83 193.5,1040.5C 193.5,1041.5 193.5,1042.5 193.5,1043.5C 190.167,1044.17 186.833,1044.83 183.5,1045.5C 183.5,1046.5 183.5,1047.5 183.5,1048.5C 179.077,1048.69 174.744,1049.36 170.5,1050.5C 170.5,1051.5 170.5,1052.5 170.5,1053.5C 167.167,1054.17 163.833,1054.83 160.5,1055.5C 160.5,1056.5 160.5,1057.5 160.5,1058.5C 157.167,1059.17 153.833,1059.83 150.5,1060.5C 150.5,1061.5 150.5,1062.5 150.5,1063.5C 146.36,1063.69 142.36,1064.36 138.5,1065.5C 138.5,1066.5 138.5,1067.5 138.5,1068.5C 135.167,1069.17 131.833,1069.83 128.5,1070.5C 128.5,1071.5 128.5,1072.5 128.5,1073.5C 125.167,1074.17 121.833,1074.83 118.5,1075.5C 118.5,1076.5 118.5,1077.5 118.5,1078.5C 114.256,1079.64 109.923,1080.31 105.5,1080.5C 105.5,1081.5 105.5,1082.5 105.5,1083.5C 102.167,1084.17 98.8333,1084.83 95.5,1085.5C 95.5,1086.5 95.5,1087.5 95.5,1088.5C 92.1667,1089.17 88.8333,1089.83 85.5,1090.5C 85.5,1091.5 85.5,1092.5 85.5,1093.5C 77.9872,1095.36 70.6539,1097.7 63.5,1100.5C 63.5,1101.5 63.5,1102.5 63.5,1103.5C 60.1667,1104.17 56.8333,1104.83 53.5,1105.5C 53.5,1106.5 53.5,1107.5 53.5,1108.5C 50.1667,1109.17 46.8333,1109.83 43.5,1110.5C 43.5,1111.5 43.5,1112.5 43.5,1113.5C 39.0775,1113.69 34.7441,1114.36 30.5,1115.5C 30.5,1116.5 30.5,1117.5 30.5,1118.5C 27.1667,1119.17 23.8333,1119.83 20.5,1120.5C 20.5,1121.5 20.5,1122.5 20.5,1123.5C 17.1667,1124.17 13.8333,1124.83 10.5,1125.5C 10.5,1126.5 10.5,1127.5 10.5,1128.5C 6.61629,1128.42 2.94962,1129.09 -0.5,1130.5C -0.5,905.5 -0.5,680.5 -0.5,455.5C 0.487173,450.695 0.820506,445.695 0.5,440.5C 1.5,440.5 2.5,440.5 3.5,440.5C 3.72837,432.124 4.39504,423.79 5.5,415.5C 6.5,415.5 7.5,415.5 8.5,415.5C 8.77863,409.778 9.4453,404.111 10.5,398.5C 11.5,398.5 12.5,398.5 13.5,398.5C 14.0071,393.474 14.6737,388.474 15.5,383.5C 16.5,383.5 17.5,383.5 18.5,383.5C 18.6904,379.077 19.3571,374.744 20.5,370.5C 21.5,370.5 22.5,370.5 23.5,370.5C 23.8079,366.427 24.4746,362.427 25.5,358.5C 26.5,358.5 27.5,358.5 28.5,358.5C 30.5846,351.676 32.9179,345.009 35.5,338.5C 36.5,338.5 37.5,338.5 38.5,338.5C 39.1667,335.167 39.8333,331.833 40.5,328.5C 41.5,328.5 42.5,328.5 43.5,328.5C 45.8333,322.5 48.1667,316.5 50.5,310.5C 54.322,309.82 55.9886,307.487 55.5,303.5C 56.5,303.5 57.5,303.5 58.5,303.5C 59.0444,301.42 59.8777,299.42 61,297.5C 64.5832,293.369 67.7499,289.035 70.5,284.5C 71.325,283.614 72.325,283.281 73.5,283.5C 75.819,279.175 78.1524,274.842 80.5,270.5C 83.5,270.167 85.1667,268.5 85.5,265.5C 88.5,265.167 90.1667,263.5 90.5,260.5C 93.5,260.167 95.1667,258.5 95.5,255.5C 96.675,255.719 97.675,255.386 98.5,254.5C 99.8333,251.833 101.833,249.833 104.5,248.5C 105.386,247.675 105.719,246.675 105.5,245.5C 108.5,245.167 110.167,243.5 110.5,240.5C 113.5,240.167 115.167,238.5 115.5,235.5C 118.5,235.167 120.167,233.5 120.5,230.5C 123.025,229.36 125.692,228.693 128.5,228.5C 128.833,225.5 130.5,223.833 133.5,223.5C 133.5,222.5 133.5,221.5 133.5,220.5C 135.737,219.551 138.071,218.884 140.5,218.5C 140.5,217.5 140.5,216.5 140.5,215.5C 142.798,214.69 145.132,213.856 147.5,213C 150.872,209.749 154.539,206.916 158.5,204.5C 160.045,203.548 161.712,203.215 163.5,203.5C 164.18,199.678 166.513,198.011 170.5,198.5C 170.5,197.5 170.5,196.5 170.5,195.5C 173.308,195.307 175.975,194.64 178.5,193.5C 178.5,192.5 178.5,191.5 178.5,190.5C 181.833,189.833 185.167,189.167 188.5,188.5C 188.5,187.5 188.5,186.5 188.5,185.5C 191.833,184.833 195.167,184.167 198.5,183.5C 198.5,182.5 198.5,181.5 198.5,180.5C 206.217,179.054 213.55,176.721 220.5,173.5C 220.5,172.5 220.5,171.5 220.5,170.5C 225.526,169.993 230.526,169.326 235.5,168.5C 235.5,167.5 235.5,166.5 235.5,165.5C 240.526,164.993 245.526,164.326 250.5,163.5C 250.5,162.5 250.5,161.5 250.5,160.5C 257.167,159.833 263.833,159.167 270.5,158.5C 270.5,157.5 270.5,156.5 270.5,155.5C 278.79,154.395 287.124,153.728 295.5,153.5C 295.5,152.5 295.5,151.5 295.5,150.5C 410.148,149.208 524.815,148.541 639.5,148.5C 754.185,148.541 868.852,149.208 983.5,150.5C 983.5,151.5 983.5,152.5 983.5,153.5C 991.876,153.728 1000.21,154.395 1008.5,155.5C 1008.5,156.5 1008.5,157.5 1008.5,158.5C 1015.22,158.732 1021.89,159.398 1028.5,160.5C 1028.5,161.5 1028.5,162.5 1028.5,163.5C 1033.47,164.326 1038.47,164.993 1043.5,165.5C 1043.5,166.5 1043.5,167.5 1043.5,168.5C 1048.47,169.326 1053.47,169.993 1058.5,170.5C 1058.5,171.5 1058.5,172.5 1058.5,173.5C 1062.43,174.525 1066.43,175.192 1070.5,175.5C 1070.5,176.5 1070.5,177.5 1070.5,178.5C 1073.83,179.167 1077.17,179.833 1080.5,180.5C 1080.5,181.5 1080.5,182.5 1080.5,183.5C 1083.83,184.167 1087.17,184.833 1090.5,185.5C 1090.5,186.5 1090.5,187.5 1090.5,188.5C 1093.83,189.167 1097.17,189.833 1100.5,190.5C 1100.5,191.5 1100.5,192.5 1100.5,193.5C 1103.02,194.64 1105.69,195.307 1108.5,195.5C 1108.5,196.5 1108.5,197.5 1108.5,198.5C 1110.29,198.215 1111.95,198.548 1113.5,199.5C 1121.42,205.572 1129.76,210.905 1138.5,215.5C 1138.5,216.5 1138.5,217.5 1138.5,218.5C 1140.93,218.884 1143.26,219.551 1145.5,220.5C 1145.5,221.5 1145.5,222.5 1145.5,223.5C 1148.5,223.833 1150.17,225.5 1150.5,228.5C 1153.31,228.693 1155.98,229.36 1158.5,230.5C 1158.83,233.5 1160.5,235.167 1163.5,235.5C 1163.83,238.5 1165.5,240.167 1168.5,240.5C 1168.83,243.5 1170.5,245.167 1173.5,245.5C 1173.28,246.675 1173.61,247.675 1174.5,248.5C 1177.17,249.833 1179.17,251.833 1180.5,254.5C 1181.32,255.386 1182.32,255.719 1183.5,255.5C 1183.83,258.5 1185.5,260.167 1188.5,260.5C 1188.83,263.5 1190.5,265.167 1193.5,265.5C 1193.83,268.5 1195.5,270.167 1198.5,270.5C 1200.85,274.842 1203.18,279.175 1205.5,283.5C 1207.59,283.561 1209.09,284.561 1210,286.5C 1212.18,290.432 1214.85,294.098 1218,297.5C 1219.12,299.42 1219.96,301.42 1220.5,303.5C 1221.5,303.5 1222.5,303.5 1223.5,303.5C 1223.01,307.487 1224.68,309.82 1228.5,310.5C 1230.4,316.71 1232.73,322.71 1235.5,328.5C 1236.5,328.5 1237.5,328.5 1238.5,328.5C 1239.17,331.833 1239.83,335.167 1240.5,338.5C 1241.5,338.5 1242.5,338.5 1243.5,338.5C 1246.27,344.963 1248.6,351.63 1250.5,358.5C 1251.5,358.5 1252.5,358.5 1253.5,358.5C 1254.53,362.427 1255.19,366.427 1255.5,370.5C 1256.5,370.5 1257.5,370.5 1258.5,370.5C 1259.64,374.744 1260.31,379.077 1260.5,383.5C 1261.5,383.5 1262.5,383.5 1263.5,383.5C 1264.33,388.474 1264.99,393.474 1265.5,398.5C 1266.5,398.5 1267.5,398.5 1268.5,398.5C 1269.55,404.111 1270.22,409.778 1270.5,415.5C 1271.5,415.5 1272.5,415.5 1273.5,415.5C 1274.6,423.79 1275.27,432.124 1275.5,440.5C 1276.5,440.5 1277.5,440.5 1278.5,440.5C 1278.18,445.695 1278.51,450.695 1279.5,455.5 Z M 348.5,230.5 C 542.5,230.5 736.5,230.5 930.5,230.5C 930.5,231.5 930.5,232.5 930.5,233.5C 947.205,233.407 963.872,234.074 980.5,235.5C 980.5,236.5 980.5,237.5 980.5,238.5C 987.167,239.167 993.833,239.833 1000.5,240.5C 1000.5,241.5 1000.5,242.5 1000.5,243.5C 1005.53,244.007 1010.53,244.674 1015.5,245.5C 1015.5,246.5 1015.5,247.5 1015.5,248.5C 1020.53,249.007 1025.53,249.674 1030.5,250.5C 1030.5,251.5 1030.5,252.5 1030.5,253.5C 1033.83,254.167 1037.17,254.833 1040.5,255.5C 1040.5,256.5 1040.5,257.5 1040.5,258.5C 1043.83,259.167 1047.17,259.833 1050.5,260.5C 1050.5,261.5 1050.5,262.5 1050.5,263.5C 1053.83,264.167 1057.17,264.833 1060.5,265.5C 1060.5,266.5 1060.5,267.5 1060.5,268.5C 1063.31,268.693 1065.98,269.36 1068.5,270.5C 1068.5,271.5 1068.5,272.5 1068.5,273.5C 1070.29,273.215 1071.95,273.548 1073.5,274.5C 1076.59,277.04 1079.93,279.04 1083.5,280.5C 1083.5,281.5 1083.5,282.5 1083.5,283.5C 1087.49,283.011 1089.82,284.678 1090.5,288.5C 1094.57,289.341 1097.9,291.341 1100.5,294.5C 1101.32,295.386 1102.32,295.719 1103.5,295.5C 1107.57,301.406 1112.57,306.573 1118.5,311C 1122.79,316.791 1127.79,321.625 1133.5,325.5C 1133.83,328.5 1135.5,330.167 1138.5,330.5C 1138.69,333.33 1139.36,335.996 1140.5,338.5C 1141.68,338.281 1142.68,338.614 1143.5,339.5C 1146.13,342.128 1148.13,345.128 1149.5,348.5C 1150.52,349.853 1151.86,350.52 1153.5,350.5C 1156.67,356.062 1159,362.062 1160.5,368.5C 1164.04,369.386 1165.7,371.719 1165.5,375.5C 1166.5,375.5 1167.5,375.5 1168.5,375.5C 1169.17,378.833 1169.83,382.167 1170.5,385.5C 1171.5,385.5 1172.5,385.5 1173.5,385.5C 1174.9,389.631 1175.57,393.964 1175.5,398.5C 1176.5,398.5 1177.5,398.5 1178.5,398.5C 1179.53,402.427 1180.19,406.427 1180.5,410.5C 1181.5,410.5 1182.5,410.5 1183.5,410.5C 1184.01,415.526 1184.67,420.526 1185.5,425.5C 1186.5,425.5 1187.5,425.5 1188.5,425.5C 1189.6,432.113 1190.27,438.78 1190.5,445.5C 1191.5,445.5 1192.5,445.5 1193.5,445.5C 1194.48,455.475 1195.14,465.475 1195.5,475.5C 1196.5,475.5 1197.5,475.5 1198.5,475.5C 1198.5,528.833 1198.5,582.167 1198.5,635.5C 1197.5,635.5 1196.5,635.5 1195.5,635.5C 1195.27,645.536 1194.61,655.536 1193.5,665.5C 1192.5,665.5 1191.5,665.5 1190.5,665.5C 1190.44,672.241 1189.77,678.908 1188.5,685.5C 1187.5,685.5 1186.5,685.5 1185.5,685.5C 1184.99,690.526 1184.33,695.526 1183.5,700.5C 1182.5,700.5 1181.5,700.5 1180.5,700.5C 1180.31,704.923 1179.64,709.256 1178.5,713.5C 1177.5,713.5 1176.5,713.5 1175.5,713.5C 1175.19,717.573 1174.53,721.573 1173.5,725.5C 1172.5,725.5 1171.5,725.5 1170.5,725.5C 1169.83,728.833 1169.17,732.167 1168.5,735.5C 1167.5,735.5 1166.5,735.5 1165.5,735.5C 1162.73,741.29 1160.4,747.29 1158.5,753.5C 1154.68,754.18 1153.01,756.513 1153.5,760.5C 1152.5,760.5 1151.5,760.5 1150.5,760.5C 1149.36,763.025 1148.69,765.692 1148.5,768.5C 1147.32,768.281 1146.32,768.614 1145.5,769.5C 1142.87,772.128 1140.87,775.128 1139.5,778.5C 1138.48,779.853 1137.14,780.52 1135.5,780.5C 1135.17,783.5 1133.5,785.167 1130.5,785.5C 1128.13,789.856 1125.8,794.189 1123.5,798.5C 1120.5,798.833 1118.83,800.5 1118.5,803.5C 1115.53,803.626 1113.53,805.126 1112.5,808C 1108.61,810.74 1104.61,813.24 1100.5,815.5C 1100.72,816.675 1100.39,817.675 1099.5,818.5C 1096.87,821.135 1093.87,823.135 1090.5,824.5C 1089.15,825.524 1088.48,826.857 1088.5,828.5C 1086,829.639 1083.33,830.306 1080.5,830.5C 1079.82,834.322 1077.49,835.989 1073.5,835.5C 1073.5,836.5 1073.5,837.5 1073.5,838.5C 1070.98,839.64 1068.31,840.307 1065.5,840.5C 1065.5,841.5 1065.5,842.5 1065.5,843.5C 1063.71,843.215 1062.05,843.548 1060.5,844.5C 1057.13,847.841 1053.13,849.841 1048.5,850.5C 1048.5,851.5 1048.5,852.5 1048.5,853.5C 1044.37,854.901 1040.04,855.567 1035.5,855.5C 1035.5,856.5 1035.5,857.5 1035.5,858.5C 1031.57,859.525 1027.57,860.192 1023.5,860.5C 1023.5,861.5 1023.5,862.5 1023.5,863.5C 1019.26,864.643 1014.92,865.31 1010.5,865.5C 1010.5,866.5 1010.5,867.5 1010.5,868.5C 1004.78,868.779 999.111,869.445 993.5,870.5C 993.5,871.5 993.5,872.5 993.5,873.5C 985.157,874.066 976.823,874.732 968.5,875.5C 968.5,876.5 968.5,877.5 968.5,878.5C 757.516,880.445 546.516,881.112 335.5,880.5C 335.5,881.5 335.5,882.5 335.5,883.5C 332.167,884.167 328.833,884.833 325.5,885.5C 325.5,886.5 325.5,887.5 325.5,888.5C 322.167,889.167 318.833,889.833 315.5,890.5C 315.5,891.5 315.5,892.5 315.5,893.5C 311.64,894.644 307.64,895.311 303.5,895.5C 303.5,896.5 303.5,897.5 303.5,898.5C 300.167,899.167 296.833,899.833 293.5,900.5C 293.5,901.5 293.5,902.5 293.5,903.5C 290.167,904.167 286.833,904.833 283.5,905.5C 283.5,906.5 283.5,907.5 283.5,908.5C 279.369,909.901 275.036,910.567 270.5,910.5C 270.5,911.5 270.5,912.5 270.5,913.5C 267.167,914.167 263.833,914.833 260.5,915.5C 260.5,916.5 260.5,917.5 260.5,918.5C 257.167,919.167 253.833,919.833 250.5,920.5C 250.5,921.5 250.5,922.5 250.5,923.5C 243.55,926.721 236.217,929.054 228.5,930.5C 228.5,931.5 228.5,932.5 228.5,933.5C 225.167,934.167 221.833,934.833 218.5,935.5C 218.5,936.5 218.5,937.5 218.5,938.5C 215.167,939.167 211.833,939.833 208.5,940.5C 208.5,941.5 208.5,942.5 208.5,943.5C 204.077,943.69 199.744,944.357 195.5,945.5C 195.5,946.5 195.5,947.5 195.5,948.5C 192.167,949.167 188.833,949.833 185.5,950.5C 185.5,951.5 185.5,952.5 185.5,953.5C 182.167,954.167 178.833,954.833 175.5,955.5C 175.5,956.5 175.5,957.5 175.5,958.5C 171.64,959.644 167.64,960.311 163.5,960.5C 163.5,961.5 163.5,962.5 163.5,963.5C 160.167,964.167 156.833,964.833 153.5,965.5C 153.5,966.5 153.5,967.5 153.5,968.5C 150.167,969.167 146.833,969.833 143.5,970.5C 143.5,971.5 143.5,972.5 143.5,973.5C 139.256,974.643 134.923,975.31 130.5,975.5C 130.5,976.5 130.5,977.5 130.5,978.5C 127.167,979.167 123.833,979.833 120.5,980.5C 120.5,981.5 120.5,982.5 120.5,983.5C 117.167,984.167 113.833,984.833 110.5,985.5C 110.5,986.5 110.5,987.5 110.5,988.5C 103.55,991.721 96.2168,994.054 88.5,995.5C 88.5,996.5 88.5,997.5 88.5,998.5C 85.6915,998.693 83.0248,999.36 80.5,1000.5C 80.5,825.5 80.5,650.5 80.5,475.5C 81.5,475.5 82.5,475.5 83.5,475.5C 83.8562,465.475 84.5228,455.475 85.5,445.5C 86.5,445.5 87.5,445.5 88.5,445.5C 88.7317,438.78 89.3984,432.113 90.5,425.5C 91.5,425.5 92.5,425.5 93.5,425.5C 94.3263,420.526 94.9929,415.526 95.5,410.5C 96.5,410.5 97.5,410.5 98.5,410.5C 98.8079,406.427 99.4746,402.427 100.5,398.5C 101.5,398.5 102.5,398.5 103.5,398.5C 103.433,393.964 104.099,389.631 105.5,385.5C 106.5,385.5 107.5,385.5 108.5,385.5C 109.167,382.167 109.833,378.833 110.5,375.5C 111.5,375.5 112.5,375.5 113.5,375.5C 113.296,371.719 114.963,369.386 118.5,368.5C 119.997,362.062 122.33,356.062 125.5,350.5C 126.675,350.719 127.675,350.386 128.5,349.5C 130.5,346.5 132.5,343.5 134.5,340.5C 135.524,339.147 136.857,338.48 138.5,338.5C 139.639,335.996 140.306,333.33 140.5,330.5C 143.5,330.167 145.167,328.5 145.5,325.5C 150.264,322.323 154.431,318.323 158,313.5C 163.34,308.326 168.84,303.326 174.5,298.5C 175.386,297.675 175.719,296.675 175.5,295.5C 178.5,295.167 180.167,293.5 180.5,290.5C 183.308,290.307 185.975,289.64 188.5,288.5C 189.18,284.678 191.513,283.011 195.5,283.5C 195.5,282.5 195.5,281.5 195.5,280.5C 199.074,279.04 202.408,277.04 205.5,274.5C 207.045,273.548 208.712,273.215 210.5,273.5C 210.5,272.5 210.5,271.5 210.5,270.5C 213.025,269.36 215.692,268.693 218.5,268.5C 218.5,267.5 218.5,266.5 218.5,265.5C 221.833,264.833 225.167,264.167 228.5,263.5C 228.5,262.5 228.5,261.5 228.5,260.5C 231.833,259.833 235.167,259.167 238.5,258.5C 238.5,257.5 238.5,256.5 238.5,255.5C 241.833,254.833 245.167,254.167 248.5,253.5C 248.5,252.5 248.5,251.5 248.5,250.5C 253.474,249.674 258.474,249.007 263.5,248.5C 263.5,247.5 263.5,246.5 263.5,245.5C 268.474,244.674 273.474,244.007 278.5,243.5C 278.5,242.5 278.5,241.5 278.5,240.5C 285.809,239.616 293.142,238.949 300.5,238.5C 300.5,237.5 300.5,236.5 300.5,235.5C 316.462,234.109 332.462,233.442 348.5,233.5C 348.5,232.5 348.5,231.5 348.5,230.5 Z"/></g>
<g><path style="opacity:0.991" fill="#04293a" d="M 360.5,493.5 C 373.892,493.282 387.225,493.949 400.5,495.5C 400.5,496.5 400.5,497.5 400.5,498.5C 404.923,498.69 409.256,499.357 413.5,500.5C 413.5,501.5 413.5,502.5 413.5,503.5C 417.487,503.011 419.82,504.678 420.5,508.5C 423.308,508.693 425.975,509.36 428.5,510.5C 428.833,513.5 430.5,515.167 433.5,515.5C 436.245,519.587 438.578,523.92 440.5,528.5C 441.5,528.5 442.5,528.5 443.5,528.5C 444.167,531.833 444.833,535.167 445.5,538.5C 446.5,538.5 447.5,538.5 448.5,538.5C 449.811,543.394 450.477,548.394 450.5,553.5C 451.5,553.5 452.5,553.5 453.5,553.5C 453.5,565.167 453.5,576.833 453.5,588.5C 452.5,588.5 451.5,588.5 450.5,588.5C 450.477,593.606 449.811,598.606 448.5,603.5C 447.5,603.5 446.5,603.5 445.5,603.5C 444.833,606.833 444.167,610.167 443.5,613.5C 441.857,613.48 440.524,614.147 439.5,615.5C 436.957,620.28 433.624,624.446 429.5,628C 427.831,629.669 425.831,630.502 423.5,630.5C 423.5,631.5 423.5,632.5 423.5,633.5C 420.975,634.64 418.308,635.307 415.5,635.5C 415.52,637.143 414.853,638.476 413.5,639.5C 410.914,640.48 408.247,640.813 405.5,640.5C 405.5,641.5 405.5,642.5 405.5,643.5C 399.946,644.925 394.279,645.591 388.5,645.5C 388.5,646.5 388.5,647.5 388.5,648.5C 380.167,648.5 371.833,648.5 363.5,648.5C 363.5,647.5 363.5,646.5 363.5,645.5C 357.465,645.092 351.465,644.426 345.5,643.5C 345.5,642.5 345.5,641.5 345.5,640.5C 342.167,639.833 338.833,639.167 335.5,638.5C 335.719,637.325 335.386,636.325 334.5,635.5C 331.019,634.214 328.019,632.214 325.5,629.5C 324.147,628.476 323.48,627.143 323.5,625.5C 320.5,625.167 318.833,623.5 318.5,620.5C 317.5,620.5 316.5,620.5 315.5,620.5C 314.551,618.263 313.884,615.929 313.5,613.5C 312.5,613.5 311.5,613.5 310.5,613.5C 310.306,610.67 309.639,608.004 308.5,605.5C 307.5,605.5 306.5,605.5 305.5,605.5C 304.674,600.526 304.007,595.526 303.5,590.5C 302.5,590.5 301.5,590.5 300.5,590.5C 300.624,583.431 299.958,576.431 298.5,569.5C 299.958,562.569 300.624,555.569 300.5,548.5C 301.5,548.5 302.5,548.5 303.5,548.5C 303.69,544.077 304.357,539.744 305.5,535.5C 306.5,535.5 307.5,535.5 308.5,535.5C 308.011,531.513 309.678,529.18 313.5,528.5C 313.693,525.692 314.36,523.025 315.5,520.5C 318.5,520.167 320.167,518.5 320.5,515.5C 323.5,515.167 325.167,513.5 325.5,510.5C 329.18,509.16 332.513,507.16 335.5,504.5C 337.045,503.548 338.712,503.215 340.5,503.5C 340.5,502.5 340.5,501.5 340.5,500.5C 343.833,499.833 347.167,499.167 350.5,498.5C 350.5,497.5 350.5,496.5 350.5,495.5C 354.329,496.069 357.663,495.402 360.5,493.5 Z"/></g>
<g><path style="opacity:0.99" fill="#04293a" d="M 623.5,493.5 C 636.904,493.171 650.238,493.838 663.5,495.5C 663.5,496.5 663.5,497.5 663.5,498.5C 667.573,498.808 671.573,499.475 675.5,500.5C 675.5,501.5 675.5,502.5 675.5,503.5C 678.308,503.693 680.975,504.36 683.5,505.5C 683.5,506.5 683.5,507.5 683.5,508.5C 687.487,508.011 689.82,509.678 690.5,513.5C 693.5,513.833 695.167,515.5 695.5,518.5C 696.675,518.281 697.675,518.614 698.5,519.5C 702.874,525.594 706.707,531.927 710,538.5C 710.494,540.134 710.66,541.801 710.5,543.5C 711.5,543.5 712.5,543.5 713.5,543.5C 716.134,561.827 716.134,580.161 713.5,598.5C 712.5,598.5 711.5,598.5 710.5,598.5C 709.833,601.833 709.167,605.167 708.5,608.5C 707.5,608.5 706.5,608.5 705.5,608.5C 705.989,612.487 704.322,614.82 700.5,615.5C 700.307,618.308 699.64,620.975 698.5,623.5C 695.5,623.833 693.833,625.5 693.5,628.5C 687.252,631.745 681.252,635.411 675.5,639.5C 673.955,640.452 672.288,640.785 670.5,640.5C 670.5,641.5 670.5,642.5 670.5,643.5C 663.908,644.77 657.241,645.437 650.5,645.5C 650.5,646.5 650.5,647.5 650.5,648.5C 643.167,648.5 635.833,648.5 628.5,648.5C 628.5,647.5 628.5,646.5 628.5,645.5C 621.759,645.437 615.092,644.77 608.5,643.5C 608.5,642.5 608.5,641.5 608.5,640.5C 601.794,639.316 596.127,636.149 591.5,631C 589.58,629.878 587.58,629.044 585.5,628.5C 585.167,625.5 583.5,623.833 580.5,623.5C 579.36,620.975 578.693,618.308 578.5,615.5C 574.678,614.82 573.011,612.487 573.5,608.5C 572.5,608.5 571.5,608.5 570.5,608.5C 569.833,605.167 569.167,601.833 568.5,598.5C 567.5,598.5 566.5,598.5 565.5,598.5C 562.866,580.161 562.866,561.827 565.5,543.5C 566.5,543.5 567.5,543.5 568.5,543.5C 568.559,539.954 569.392,536.621 571,533.5C 574.061,529.325 576.895,524.991 579.5,520.5C 580.524,519.147 581.857,518.48 583.5,518.5C 583.833,515.5 585.5,513.833 588.5,513.5C 588.48,511.857 589.147,510.524 590.5,509.5C 593.689,508.64 596.355,506.973 598.5,504.5C 600.045,503.548 601.712,503.215 603.5,503.5C 603.5,502.5 603.5,501.5 603.5,500.5C 607.427,499.475 611.427,498.808 615.5,498.5C 615.5,497.5 615.5,496.5 615.5,495.5C 618.698,496.036 621.365,495.369 623.5,493.5 Z"/></g>
<g><path style="opacity:0.991" fill="#04293a" d="M 888.5,493.5 C 901.892,493.282 915.225,493.949 928.5,495.5C 928.5,496.5 928.5,497.5 928.5,498.5C 931.833,499.167 935.167,499.833 938.5,500.5C 938.5,501.5 938.5,502.5 938.5,503.5C 940.288,503.215 941.955,503.548 943.5,504.5C 946.487,507.16 949.82,509.16 953.5,510.5C 953.833,513.5 955.5,515.167 958.5,515.5C 958.833,518.5 960.5,520.167 963.5,520.5C 964.64,523.025 965.307,525.692 965.5,528.5C 969.322,529.18 970.989,531.513 970.5,535.5C 971.5,535.5 972.5,535.5 973.5,535.5C 974.007,540.526 974.674,545.526 975.5,550.5C 976.5,550.5 977.5,550.5 978.5,550.5C 978.289,557.251 978.956,563.917 980.5,570.5C 978.956,577.083 978.289,583.749 978.5,590.5C 977.5,590.5 976.5,590.5 975.5,590.5C 974.993,595.526 974.326,600.526 973.5,605.5C 972.5,605.5 971.5,605.5 970.5,605.5C 969.361,608.004 968.694,610.67 968.5,613.5C 967.5,613.5 966.5,613.5 965.5,613.5C 964.833,615.833 964.167,618.167 963.5,620.5C 962.5,620.5 961.5,620.5 960.5,620.5C 960.167,623.5 958.5,625.167 955.5,625.5C 955.719,626.675 955.386,627.675 954.5,628.5C 951.872,631.135 948.872,633.135 945.5,634.5C 944.147,635.524 943.48,636.857 943.5,638.5C 940.167,639.167 936.833,639.833 933.5,640.5C 933.5,641.5 933.5,642.5 933.5,643.5C 926.887,644.602 920.22,645.268 913.5,645.5C 913.5,646.5 913.5,647.5 913.5,648.5C 905.833,648.5 898.167,648.5 890.5,648.5C 890.5,647.5 890.5,646.5 890.5,645.5C 884.721,645.591 879.054,644.925 873.5,643.5C 873.5,642.5 873.5,641.5 873.5,640.5C 870.753,640.813 868.086,640.48 865.5,639.5C 864.147,638.476 863.48,637.143 863.5,635.5C 860.692,635.307 858.025,634.64 855.5,633.5C 855.5,632.5 855.5,631.5 855.5,630.5C 854.127,630.657 852.793,630.49 851.5,630C 846.597,625.929 842.597,621.096 839.5,615.5C 838.476,614.147 837.143,613.48 835.5,613.5C 834.833,610.167 834.167,606.833 833.5,603.5C 832.5,603.5 831.5,603.5 830.5,603.5C 829.189,598.606 828.523,593.606 828.5,588.5C 827.5,588.5 826.5,588.5 825.5,588.5C 825.5,576.833 825.5,565.167 825.5,553.5C 826.5,553.5 827.5,553.5 828.5,553.5C 828.523,548.394 829.189,543.394 830.5,538.5C 831.5,538.5 832.5,538.5 833.5,538.5C 834.167,535.167 834.833,531.833 835.5,528.5C 836.5,528.5 837.5,528.5 838.5,528.5C 839.341,524.433 841.341,521.099 844.5,518.5C 845.386,517.675 845.719,516.675 845.5,515.5C 848.5,515.167 850.167,513.5 850.5,510.5C 853.025,509.36 855.692,508.693 858.5,508.5C 859.18,504.678 861.513,503.011 865.5,503.5C 865.5,502.5 865.5,501.5 865.5,500.5C 869.744,499.357 874.077,498.69 878.5,498.5C 878.5,497.5 878.5,496.5 878.5,495.5C 882.329,496.069 885.663,495.402 888.5,493.5 Z"/></g>
</svg>
