<?xml version="1.0" encoding="UTF-8"?>
<!DOCTYPE svg PUBLIC "-//W3C//DTD SVG 1.1//EN" "http://www.w3.org/Graphics/SVG/1.1/DTD/svg11.dtd">
<svg xmlns="http://www.w3.org/2000/svg" version="1.1" width="38px" height="38px" style="shape-rendering:geometricPrecision; text-rendering:geometricPrecision; image-rendering:optimizeQuality; fill-rule:evenodd; clip-rule:evenodd" xmlns:xlink="http://www.w3.org/1999/xlink">
<g><path style="opacity:0.825" fill="#04293A" d="M 37.5,12.5 C 37.5,13.1667 37.5,13.8333 37.5,14.5C 36.8333,15.1667 36.1667,15.8333 35.5,16.5C 34.2946,15.3143 32.9613,15.3143 31.5,16.5C 30.0813,15.5489 28.4147,15.2155 26.5,15.5C 25.8333,18.5 25.1667,21.5 24.5,24.5C 23.8333,24.5 23.5,24.8333 23.5,25.5C 22.1009,28.6988 21.1009,32.0321 20.5,35.5C 20.1667,36.1667 19.8333,36.8333 19.5,37.5C 18.5,37.5 17.5,37.5 16.5,37.5C 16.5,37.1667 16.5,36.8333 16.5,36.5C 15.4409,32.2825 14.1075,28.6159 12.5,25.5C 12.6716,24.5084 12.3382,23.8417 11.5,23.5C 11.2437,21.0628 10.5771,18.7294 9.5,16.5C 8.04156,15.218 6.70823,15.218 5.5,16.5C 3.88277,15.962 2.2161,15.6287 0.5,15.5C 0.166667,15.5 -0.166667,15.5 -0.5,15.5C -0.5,14.1667 -0.5,12.8333 -0.5,11.5C 1.47409,8.23012 3.47409,4.89678 5.5,1.5C 13.8134,0.334926 22.1467,0.168259 30.5,1C 32.9845,4.81375 35.3178,8.64708 37.5,12.5 Z M 9.5,5.5 C 14.8692,3.6897 15.5359,4.6897 11.5,8.5C 10.8243,7.39836 10.1577,6.39836 9.5,5.5 Z M 22.5,4.5 C 27.0001,4.21915 27.8335,5.88581 25,9.5C 23.9055,7.92209 23.0722,6.25542 22.5,4.5 Z M 17.5,5.5 C 18.9701,7.15134 20.3034,8.98467 21.5,11C 19.1667,11.6667 16.8333,11.6667 14.5,11C 15.7577,9.25909 16.7577,7.42576 17.5,5.5 Z M 5.5,7.5 C 7.10422,8.28696 7.77089,9.6203 7.5,11.5C 6.32496,11.719 5.32496,11.3857 4.5,10.5C 5.12723,9.58317 5.46056,8.58317 5.5,7.5 Z M 29.5,7.5 C 30.3636,8.68826 31.3636,9.85492 32.5,11C 31.0563,11.7805 29.723,11.6139 28.5,10.5C 29.1272,9.58317 29.4606,8.58317 29.5,7.5 Z M 13.5,15.5 C 16.5,15.5 19.5,15.5 22.5,15.5C 21.5068,20.3134 20.0068,24.9801 18,29.5C 16.393,24.8464 14.893,20.1797 13.5,15.5 Z"/></g>
<g><path style="opacity:0.81" fill="#04293A" d="M 0.5,15.5 C 2.2161,15.6287 3.88277,15.962 5.5,16.5C 7.27333,19.0599 9.27333,21.3932 11.5,23.5C 11.3284,24.4916 11.6618,25.1583 12.5,25.5C 14.1075,28.6159 15.4409,32.2825 16.5,36.5C 10.4503,30.078 5.11701,23.078 0.5,15.5 Z"/></g>
<g><path style="opacity:0.773" fill="#04293A" d="M 35.5,16.5 C 30.8504,23.1451 25.8504,29.4784 20.5,35.5C 21.1009,32.0321 22.1009,28.6988 23.5,25.5C 24.1667,25.5 24.5,25.1667 24.5,24.5C 26.8333,21.8333 29.1667,19.1667 31.5,16.5C 32.9613,15.3143 34.2946,15.3143 35.5,16.5 Z"/></g>
</svg>
