<?xml version="1.0" encoding="UTF-8"?>
<!DOCTYPE svg PUBLIC "-//W3C//DTD SVG 1.1//EN" "http://www.w3.org/Graphics/SVG/1.1/DTD/svg11.dtd">
<svg xmlns="http://www.w3.org/2000/svg" version="1.1" width="24px" height="23px" style="shape-rendering:geometricPrecision; text-rendering:geometricPrecision; image-rendering:optimizeQuality; fill-rule:evenodd; clip-rule:evenodd" xmlns:xlink="http://www.w3.org/1999/xlink">
<g><path style="opacity:0.037" fill="#171717" d="M 19.5,1.5 C 21.2737,2.36962 22.607,3.70296 23.5,5.5C 23.5,5.83333 23.5,6.16667 23.5,6.5C 22.0937,6.97306 21.427,7.97306 21.5,9.5C 21.6716,10.4916 21.3382,11.1583 20.5,11.5C 20.1667,10.1667 19.8333,10.1667 19.5,11.5C 18.8333,11.5 18.5,11.8333 18.5,12.5C 17.6618,12.8417 17.3284,13.5084 17.5,14.5C 14.2215,19.3836 9.8882,21.5503 4.5,21C 3.74756,20.3292 3.41423,19.4959 3.5,18.5C 3.93822,18.5654 4.27155,18.3988 4.5,18C 3.93406,17.0053 3.26739,16.172 2.5,15.5C 2.79586,13.597 3.46253,11.9303 4.5,10.5C 5.23411,11.7079 5.56745,13.0413 5.5,14.5C 9.91503,13.7574 13.2484,11.4241 15.5,7.5C 18.0442,6.29211 19.3775,4.29211 19.5,1.5 Z"/></g>
<g><path style="opacity:0.514" fill="#4da5d7" d="M 15.5,-0.5 C 16.8333,-0.5 18.1667,-0.5 19.5,-0.5C 19.5,0.166667 19.5,0.833333 19.5,1.5C 19.3775,4.29211 18.0442,6.29211 15.5,7.5C 14.8333,7.5 14.1667,7.5 13.5,7.5C 14.2899,6.20577 15.2899,5.0391 16.5,4C 16.1667,3.83333 15.8333,3.66667 15.5,3.5C 13.8144,4.85689 12.1477,6.19022 10.5,7.5C 9.5,7.5 8.5,7.5 7.5,7.5C 10.1667,4.83333 12.8333,2.16667 15.5,-0.5 Z"/></g>
<g><path style="opacity:0.004" fill="#fefffe" d="M 23.5,6.5 C 23.5,7.16667 23.5,7.83333 23.5,8.5C 22.8333,8.83333 22.1667,9.16667 21.5,9.5C 21.427,7.97306 22.0937,6.97306 23.5,6.5 Z"/></g>
<g><path style="opacity:0.047" fill="#0c0c0c" d="M 13.5,7.5 C 11.8523,8.80978 10.1856,10.1431 8.5,11.5C 8.16667,11.3333 7.83333,11.1667 7.5,11C 8.7101,9.9609 9.7101,8.79423 10.5,7.5C 12.1477,6.19022 13.8144,4.85689 15.5,3.5C 15.8333,3.66667 16.1667,3.83333 16.5,4C 15.2899,5.0391 14.2899,6.20577 13.5,7.5 Z"/></g>
<g><path style="opacity:0.004" fill="#000000" d="M 19.5,11.5 C 19.8333,11.5 20.1667,11.5 20.5,11.5C 20.3147,12.1701 19.9813,12.1701 19.5,11.5 Z"/></g>
<g><path style="opacity:0.806" fill="#547bb0" d="M 7.5,7.5 C 8.5,7.5 9.5,7.5 10.5,7.5C 9.7101,8.79423 8.7101,9.9609 7.5,11C 7.83333,11.1667 8.16667,11.3333 8.5,11.5C 10.1856,10.1431 11.8523,8.80978 13.5,7.5C 14.1667,7.5 14.8333,7.5 15.5,7.5C 13.2484,11.4241 9.91503,13.7574 5.5,14.5C 5.56745,13.0413 5.23411,11.7079 4.5,10.5C 5.30646,9.27187 6.30646,8.27187 7.5,7.5 Z"/></g>
<g><path style="opacity:0.004" fill="#fefffe" d="M 18.5,12.5 C 18.8333,12.5 19.1667,12.5 19.5,12.5C 19.1667,13.5 18.5,14.1667 17.5,14.5C 17.3284,13.5084 17.6618,12.8417 18.5,12.5 Z"/></g>
<g><path style="opacity:0.008" fill="#898989" d="M 2.5,15.5 C 3.26739,16.172 3.93406,17.0053 4.5,18C 4.27155,18.3988 3.93822,18.5654 3.5,18.5C 2.59603,17.791 2.26269,16.791 2.5,15.5 Z"/></g>
</svg>
