<?xml version="1.0" encoding="UTF-8"?>
<!DOCTYPE svg PUBLIC "-//W3C//DTD SVG 1.1//EN" "http://www.w3.org/Graphics/SVG/1.1/DTD/svg11.dtd">
<svg xmlns="http://www.w3.org/2000/svg" version="1.1" width="1280px" height="1707px" style="shape-rendering:geometricPrecision; text-rendering:geometricPrecision; image-rendering:optimizeQuality; fill-rule:evenodd; clip-rule:evenodd" xmlns:xlink="http://www.w3.org/1999/xlink">
<g><path style="opacity:0.949" fill="#fefffe" d="M 490.5,31.5 C 586.836,31.1667 683.169,31.5 779.5,32.5C 783.709,34.41 788.042,36.2434 792.5,38C 793.337,39.0113 793.67,40.1779 793.5,41.5C 794.5,41.5 795.5,41.5 796.5,41.5C 796.5,42.5 796.5,43.5 796.5,44.5C 797.552,44.3505 798.552,44.5172 799.5,45C 800.333,46.5 801.5,47.6667 803,48.5C 803.483,49.448 803.649,50.448 803.5,51.5C 804.5,51.5 805.5,51.5 806.5,51.5C 806.5,53.5 806.5,55.5 806.5,57.5C 807.822,57.33 808.989,57.6634 810,58.5C 810.139,61.8245 811.139,64.8245 813,67.5C 813.5,90.831 813.667,114.164 813.5,137.5C 836.502,137.333 859.502,137.5 882.5,138C 886.243,140.828 890.576,142.161 895.5,142C 897.337,143.952 899.671,144.952 902.5,145C 906.205,147.183 909.872,149.349 913.5,151.5C 913.5,152.5 913.5,153.5 913.5,154.5C 917.024,154.929 920.024,156.429 922.5,159C 925.175,161.999 927.675,165.165 930,168.5C 930.483,169.448 930.649,170.448 930.5,171.5C 931.5,171.5 932.5,171.5 933.5,171.5C 933.343,172.873 933.51,174.207 934,175.5C 935.572,178.763 937.572,181.763 940,184.5C 939.988,187.651 940.988,190.318 943,192.5C 943.654,204.456 944.821,216.123 946.5,227.5C 1020.17,227.333 1093.83,227.5 1167.5,228C 1172.25,231.112 1177.58,232.279 1183.5,231.5C 1183.5,232.5 1183.5,233.5 1183.5,234.5C 1189.42,233.796 1194.08,235.796 1197.5,240.5C 1200.97,241.099 1203.97,242.432 1206.5,244.5C 1206.5,245.5 1206.5,246.5 1206.5,247.5C 1209.5,247.167 1210.83,248.5 1210.5,251.5C 1211.5,251.5 1212.5,251.5 1213.5,251.5C 1213.5,252.5 1213.5,253.5 1213.5,254.5C 1214.5,254.5 1215.5,254.5 1216.5,254.5C 1216.28,257.114 1217.44,258.781 1220,259.5C 1220.49,261.134 1220.66,262.801 1220.5,264.5C 1221.5,264.5 1222.5,264.5 1223.5,264.5C 1222.83,267.908 1223.83,270.575 1226.5,272.5C 1227.05,275.452 1228.21,278.119 1230,280.5C 1230.33,285.167 1230.67,289.833 1231,294.5C 1231.67,295.167 1232.33,295.833 1233,296.5C 1233.67,733.5 1233.67,1170.5 1233,1607.5C 1232.58,1608.67 1231.91,1609.67 1231,1610.5C 1230.67,1614.83 1230.33,1619.17 1230,1623.5C 1227.76,1626.79 1226.59,1630.46 1226.5,1634.5C 1225.5,1634.5 1224.5,1634.5 1223.5,1634.5C 1223.45,1638.18 1222.45,1641.52 1220.5,1644.5C 1219.32,1644.28 1218.32,1644.61 1217.5,1645.5C 1216.62,1648.7 1214.95,1651.37 1212.5,1653.5C 1211.68,1654.39 1210.68,1654.72 1209.5,1654.5C 1209.5,1655.5 1209.5,1656.5 1209.5,1657.5C 1208.45,1657.35 1207.45,1657.52 1206.5,1658C 1201.26,1662.96 1195.26,1666.63 1188.5,1669C 1187.83,1669.67 1187.17,1670.33 1186.5,1671C 1180.65,1672.83 1174.65,1674.16 1168.5,1675C 812.833,1675.67 457.167,1675.67 101.5,1675C 95.192,1674.62 89.192,1673.29 83.5,1671C 79.0015,1668.91 74.6682,1666.74 70.5,1664.5C 70.5,1663.5 70.5,1662.5 70.5,1661.5C 66.8981,1661.53 63.8981,1660.2 61.5,1657.5C 60.6143,1656.68 60.281,1655.68 60.5,1654.5C 55.0493,1651.87 51.716,1647.53 50.5,1641.5C 49.325,1641.72 48.325,1641.39 47.5,1640.5C 46.6518,1638.59 46.3184,1636.59 46.5,1634.5C 45.5,1634.5 44.5,1634.5 43.5,1634.5C 43.5,1632.17 43.5,1629.83 43.5,1627.5C 42.5,1627.5 41.5,1627.5 40.5,1627.5C 40.8256,1623.12 40.4922,1618.78 39.5,1614.5C 38.0295,1613.62 37.1962,1612.29 37,1610.5C 36.3333,1171.5 36.3333,732.5 37,293.5C 40.0573,289.085 41.3907,284.085 41,278.5C 43.0461,276.3 44.0461,273.633 44,270.5C 48.093,263.918 52.2597,257.585 56.5,251.5C 57.8333,251.5 59.1667,251.5 60.5,251.5C 60.5,250.167 60.5,248.833 60.5,247.5C 66.5317,243.426 72.5317,239.259 78.5,235C 84.7741,232.396 91.4408,230.896 98.5,230.5C 99.6651,229.416 100.998,228.583 102.5,228C 176.166,227.5 249.833,227.333 323.5,227.5C 323.334,220.492 323.5,213.492 324,206.5C 324.667,205.833 325.333,205.167 326,204.5C 326.333,200.5 326.667,196.5 327,192.5C 329.856,189.423 331.022,185.756 330.5,181.5C 331.5,181.5 332.5,181.5 333.5,181.5C 333.178,177.65 334.511,174.483 337.5,172C 338.448,171.517 339.448,171.351 340.5,171.5C 340.201,169.396 340.534,167.396 341.5,165.5C 342.845,164.653 343.845,163.487 344.5,162C 345.448,161.517 346.448,161.351 347.5,161.5C 348.164,159.133 349.497,157.133 351.5,155.5C 353.664,155.002 355.331,153.836 356.5,152C 357.793,151.51 359.127,151.343 360.5,151.5C 360.281,150.325 360.614,149.325 361.5,148.5C 365.865,146.431 370.199,144.265 374.5,142C 377.817,141.502 381.15,141.335 384.5,141.5C 384.5,140.5 384.5,139.5 384.5,138.5C 408.467,137.529 432.467,137.196 456.5,137.5C 456.196,113.134 456.529,88.8008 457.5,64.5C 458.5,64.5 459.5,64.5 460.5,64.5C 460.337,62.1432 460.503,59.8098 461,57.5C 462.669,55.8309 463.502,53.8309 463.5,51.5C 464.5,51.5 465.5,51.5 466.5,51.5C 466.351,50.448 466.517,49.448 467,48.5C 472.253,43.6151 477.753,39.1151 483.5,35C 485.81,34.5034 488.143,34.3367 490.5,34.5C 490.5,33.5 490.5,32.5 490.5,31.5 Z M 399.5,194.5 C 418.5,194.5 437.5,194.5 456.5,194.5C 456.333,208.171 456.5,221.837 457,235.5C 457.615,237.116 458.615,238.449 460,239.5C 460.494,241.134 460.66,242.801 460.5,244.5C 461.5,244.5 462.5,244.5 463.5,244.5C 463.281,245.675 463.614,246.675 464.5,247.5C 466.303,248.137 467.636,249.303 468.5,251C 471.003,251.129 473.003,252.129 474.5,254C 581.833,254.5 689.166,254.667 796.5,254.5C 796.5,253.5 796.5,252.5 796.5,251.5C 801.814,251.836 805.147,249.503 806.5,244.5C 807.675,244.719 808.675,244.386 809.5,243.5C 810.348,241.591 810.682,239.591 810.5,237.5C 811.5,237.5 812.5,237.5 813.5,237.5C 813.5,223.167 813.5,208.833 813.5,194.5C 832.5,194.5 851.5,194.5 870.5,194.5C 870.5,195.5 870.5,196.5 870.5,197.5C 873.059,197.39 875.392,198.056 877.5,199.5C 880.218,202.609 883.052,205.609 886,208.5C 886.5,269.499 886.667,330.499 886.5,391.5C 718.833,391.5 551.167,391.5 383.5,391.5C 383.5,330.167 383.5,268.833 383.5,207.5C 384.5,207.5 385.5,207.5 386.5,207.5C 386.744,204.737 388.077,202.571 390.5,201C 393.072,198.713 396.072,197.547 399.5,197.5C 399.5,196.5 399.5,195.5 399.5,194.5 Z M 207.5,398.5 C 246.167,398.5 284.833,398.5 323.5,398.5C 323.334,407.839 323.5,417.173 324,426.5C 325.67,431.501 328.17,436.168 331.5,440.5C 332.833,441.167 333.833,442.167 334.5,443.5C 336.396,444.466 338.396,444.799 340.5,444.5C 340.36,446.124 341.027,447.29 342.5,448C 537.167,448.667 731.833,448.667 926.5,448C 930.723,445.699 934.723,443.032 938.5,440C 939.861,438.416 940.528,436.582 940.5,434.5C 941.5,434.5 942.5,434.5 943.5,434.5C 943.177,430.774 943.511,427.107 944.5,423.5C 945.086,423.291 945.586,422.957 946,422.5C 946.5,414.507 946.666,406.507 946.5,398.5C 985.5,398.5 1024.5,398.5 1063.5,398.5C 1063.5,767.167 1063.5,1135.83 1063.5,1504.5C 778.167,1504.5 492.833,1504.5 207.5,1504.5C 207.5,1135.83 207.5,767.167 207.5,398.5 Z"/></g>
<g><path style="opacity:0.836" fill="#fefffe" d="M 422.5,564.5 C 429.841,564.334 437.174,564.5 444.5,565C 450.317,568.653 455.317,573.153 459.5,578.5C 459.932,582.13 461.099,585.464 463,588.5C 463.667,591.5 463.667,594.5 463,597.5C 461.151,600.54 459.984,603.874 459.5,607.5C 457.681,609.128 456.347,611.128 455.5,613.5C 427.68,641.153 400.013,668.987 372.5,697C 368.362,699.651 364.028,701.818 359.5,703.5C 356.833,703.833 354.167,704.167 351.5,704.5C 346.089,704.382 341.089,703.216 336.5,701C 333.545,699.552 331.545,697.385 330.5,694.5C 328.24,693.861 326.24,692.694 324.5,691C 322.747,689.001 321.413,686.835 320.5,684.5C 318.24,683.861 316.24,682.694 314.5,681C 312.747,679.001 311.413,676.835 310.5,674.5C 308.24,673.861 306.24,672.694 304.5,671C 302.747,669.001 301.413,666.835 300.5,664.5C 298.24,663.861 296.24,662.694 294.5,661C 293.842,659.095 292.675,657.595 291,656.5C 290.623,652.685 289.289,649.351 287,646.5C 286.333,641.833 286.333,637.167 287,632.5C 289.47,627.89 291.637,623.223 293.5,618.5C 296.114,618.723 297.781,617.556 298.5,615C 301.003,614.871 303.003,613.871 304.5,612C 311.833,611.333 319.167,611.333 326.5,612C 328.441,613.903 330.774,614.736 333.5,614.5C 333.5,615.5 333.5,616.5 333.5,617.5C 335.833,618.833 338.167,620.167 340.5,621.5C 340.5,622.5 340.5,623.5 340.5,624.5C 341.5,624.5 342.5,624.5 343.5,624.5C 343.5,625.5 343.5,626.5 343.5,627.5C 345.981,629.023 348.481,630.69 351,632.5C 355.4,629.852 358.9,626.352 361.5,622C 363.24,620.306 365.24,619.139 367.5,618.5C 368.139,616.24 369.306,614.24 371,612.5C 372.999,610.747 375.165,609.413 377.5,608.5C 379.833,604.167 383.167,600.833 387.5,598.5C 388.139,596.24 389.306,594.24 391,592.5C 392.205,591.929 393.372,591.262 394.5,590.5C 402.838,580.619 412.171,571.953 422.5,564.5 Z"/></g>
<g><path style="opacity:0.842" fill="#fefffe" d="M 531.5,624.5 C 673.834,624.333 816.167,624.5 958.5,625C 963.865,626.54 968.865,628.707 973.5,631.5C 973.5,632.5 973.5,633.5 973.5,634.5C 974.5,634.5 975.5,634.5 976.5,634.5C 979.03,638.199 981.197,642.199 983,646.5C 983.667,651.833 983.667,657.167 983,662.5C 981.286,666.865 979.12,670.865 976.5,674.5C 975.5,674.5 974.5,674.5 973.5,674.5C 973.649,675.552 973.483,676.552 973,677.5C 969.191,680.777 964.691,682.444 959.5,682.5C 959.291,683.086 958.957,683.586 958.5,684C 816.167,684.667 673.833,684.667 531.5,684C 528.627,681.908 525.293,680.908 521.5,681C 519.215,678.2 516.548,676.033 513.5,674.5C 511.662,670.886 509.829,667.219 508,663.5C 506,657.5 506,651.5 508,645.5C 509.829,641.781 511.662,638.114 513.5,634.5C 515.672,633.199 518.005,632.199 520.5,631.5C 520.281,630.325 520.614,629.325 521.5,628.5C 525.385,628.212 528.718,626.878 531.5,624.5 Z"/></g>
<g><path style="opacity:0.838" fill="#fefffe" d="M 424.5,784.5 C 430.842,784.334 437.175,784.5 443.5,785C 445.026,786.887 447.026,787.887 449.5,788C 450.337,789.011 450.67,790.178 450.5,791.5C 451.552,791.351 452.552,791.517 453.5,792C 455.549,794.593 457.715,797.093 460,799.5C 459.908,803.293 460.908,806.627 463,809.5C 464.116,813.288 463.45,816.622 461,819.5C 460.667,822.167 460.333,824.833 460,827.5C 457.676,828.807 456.343,830.807 456,833.5C 427.193,862.64 398.026,891.474 368.5,920C 366.285,921.044 363.952,921.71 361.5,922C 360.833,922.667 360.167,923.333 359.5,924C 353.833,924.667 348.167,924.667 342.5,924C 340.239,922.037 337.572,920.87 334.5,920.5C 331.951,919.25 330.618,917.25 330.5,914.5C 329.448,914.649 328.448,914.483 327.5,914C 325.333,911.833 323.167,909.667 321,907.5C 320.517,906.552 320.351,905.552 320.5,904.5C 319.448,904.649 318.448,904.483 317.5,904C 315.333,901.833 313.167,899.667 311,897.5C 310.517,896.552 310.351,895.552 310.5,894.5C 309.448,894.649 308.448,894.483 307.5,894C 305.333,891.833 303.167,889.667 301,887.5C 300.517,886.552 300.351,885.552 300.5,884.5C 299.448,884.649 298.448,884.483 297.5,884C 296.667,882.5 295.5,881.333 294,880.5C 293.517,879.552 293.351,878.552 293.5,877.5C 292.5,877.5 291.5,877.5 290.5,877.5C 290.662,875.473 290.495,873.473 290,871.5C 288.415,870.624 287.415,869.291 287,867.5C 286.333,862.5 286.333,857.5 287,852.5C 289.47,847.89 291.637,843.223 293.5,838.5C 296.983,836.257 300.65,834.257 304.5,832.5C 311.833,831.167 319.167,831.167 326.5,832.5C 328.059,834.131 330.059,834.964 332.5,835C 334.785,837.8 337.452,839.967 340.5,841.5C 340.5,842.5 340.5,843.5 340.5,844.5C 341.5,844.5 342.5,844.5 343.5,844.5C 343.5,845.5 343.5,846.5 343.5,847.5C 344.675,847.281 345.675,847.614 346.5,848.5C 347.714,850.421 349.214,852.088 351,853.5C 371.5,833 392,812.5 412.5,792C 413.793,791.51 415.127,791.343 416.5,791.5C 416.33,790.178 416.663,789.011 417.5,788C 420.178,787.328 422.511,786.161 424.5,784.5 Z"/></g>
<g><path style="opacity:0.845" fill="#fefffe" d="M 534.5,844.5 C 675.167,844.333 815.834,844.5 956.5,845C 962.484,846.574 968.15,848.741 973.5,851.5C 973.5,852.5 973.5,853.5 973.5,854.5C 974.5,854.5 975.5,854.5 976.5,854.5C 979.3,858.312 981.467,862.646 983,867.5C 983.667,872.5 983.667,877.5 983,882.5C 980.954,884.7 979.954,887.367 980,890.5C 978.989,891.337 977.822,891.67 976.5,891.5C 976.5,892.5 976.5,893.5 976.5,894.5C 975.5,894.5 974.5,894.5 973.5,894.5C 973.649,895.552 973.483,896.552 973,897.5C 970.425,900.892 966.925,902.392 962.5,902C 961.833,902.667 961.167,903.333 960.5,904C 817.167,904.667 673.833,904.667 530.5,904C 527.861,902.054 524.861,901.054 521.5,901C 520.405,899.325 518.905,898.158 517,897.5C 516.517,896.552 516.351,895.552 516.5,894.5C 515.5,894.5 514.5,894.5 513.5,894.5C 513.539,892.641 512.706,891.308 511,890.5C 510.505,888.527 510.338,886.527 510.5,884.5C 509.5,884.5 508.5,884.5 507.5,884.5C 506.351,878.995 506.351,873.495 507.5,868C 509.72,865.308 511.053,862.142 511.5,858.5C 513.167,856.167 515.167,854.167 517.5,852.5C 518.325,851.614 519.325,851.281 520.5,851.5C 520.5,850.5 520.5,849.5 520.5,848.5C 525.637,848.387 530.304,847.053 534.5,844.5 Z"/></g>
<g><path style="opacity:0.839" fill="#fefffe" d="M 424.5,1004.5 C 430.509,1004.33 436.509,1004.5 442.5,1005C 444.358,1006.98 446.691,1008.15 449.5,1008.5C 450.386,1009.32 450.719,1010.32 450.5,1011.5C 451.5,1011.5 452.5,1011.5 453.5,1011.5C 453.5,1012.5 453.5,1013.5 453.5,1014.5C 454.675,1014.28 455.675,1014.61 456.5,1015.5C 457.137,1017.3 458.303,1018.64 460,1019.5C 459.908,1023.29 460.908,1026.63 463,1029.5C 464.04,1033.53 463.374,1037.2 461,1040.5C 460.667,1042.83 460.333,1045.17 460,1047.5C 457.676,1048.81 456.343,1050.81 456,1053.5C 453.235,1056.78 450.069,1059.44 446.5,1061.5C 446.5,1062.5 446.5,1063.5 446.5,1064.5C 445.5,1064.5 444.5,1064.5 443.5,1064.5C 443.719,1065.68 443.386,1066.68 442.5,1067.5C 440.867,1069.5 438.867,1070.84 436.5,1071.5C 436.5,1072.5 436.5,1073.5 436.5,1074.5C 435.5,1074.5 434.5,1074.5 433.5,1074.5C 433.719,1075.68 433.386,1076.68 432.5,1077.5C 430.867,1079.5 428.867,1080.84 426.5,1081.5C 426.5,1082.5 426.5,1083.5 426.5,1084.5C 425.5,1084.5 424.5,1084.5 423.5,1084.5C 423.719,1085.68 423.386,1086.68 422.5,1087.5C 420.867,1089.5 418.867,1090.84 416.5,1091.5C 416.5,1092.5 416.5,1093.5 416.5,1094.5C 415.5,1094.5 414.5,1094.5 413.5,1094.5C 413.719,1095.68 413.386,1096.68 412.5,1097.5C 410.867,1099.5 408.867,1100.84 406.5,1101.5C 406.5,1102.5 406.5,1103.5 406.5,1104.5C 405.5,1104.5 404.5,1104.5 403.5,1104.5C 403.719,1105.68 403.386,1106.68 402.5,1107.5C 400.867,1109.5 398.867,1110.84 396.5,1111.5C 396.5,1112.5 396.5,1113.5 396.5,1114.5C 395.5,1114.5 394.5,1114.5 393.5,1114.5C 393.719,1115.68 393.386,1116.68 392.5,1117.5C 390.867,1119.5 388.867,1120.84 386.5,1121.5C 386.5,1122.5 386.5,1123.5 386.5,1124.5C 385.5,1124.5 384.5,1124.5 383.5,1124.5C 383.719,1125.68 383.386,1126.68 382.5,1127.5C 380.867,1129.5 378.867,1130.84 376.5,1131.5C 376.5,1132.5 376.5,1133.5 376.5,1134.5C 375.5,1134.5 374.5,1134.5 373.5,1134.5C 373.719,1135.68 373.386,1136.68 372.5,1137.5C 369.04,1140.1 365.373,1142.27 361.5,1144C 354.833,1144.67 348.167,1144.67 341.5,1144C 339.663,1142.05 337.329,1141.05 334.5,1141C 333.667,1139.5 332.5,1138.33 331,1137.5C 330.517,1136.55 330.351,1135.55 330.5,1134.5C 329.448,1134.65 328.448,1134.48 327.5,1134C 325.333,1131.83 323.167,1129.67 321,1127.5C 320.517,1126.55 320.351,1125.55 320.5,1124.5C 319.448,1124.65 318.448,1124.48 317.5,1124C 315.333,1121.83 313.167,1119.67 311,1117.5C 310.517,1116.55 310.351,1115.55 310.5,1114.5C 309.448,1114.65 308.448,1114.48 307.5,1114C 305.333,1111.83 303.167,1109.67 301,1107.5C 300.517,1106.55 300.351,1105.55 300.5,1104.5C 299.448,1104.65 298.448,1104.48 297.5,1104C 284.225,1090.22 283.058,1075.39 294,1059.5C 303.045,1051.81 313.545,1049.31 325.5,1052C 327.337,1053.95 329.671,1054.95 332.5,1055C 334.785,1057.8 337.452,1059.97 340.5,1061.5C 340.5,1062.5 340.5,1063.5 340.5,1064.5C 341.5,1064.5 342.5,1064.5 343.5,1064.5C 343.281,1065.68 343.614,1066.68 344.5,1067.5C 346.133,1069.5 348.133,1070.84 350.5,1071.5C 350.351,1072.55 350.517,1073.55 351,1074.5C 373.229,1051.94 395.729,1029.77 418.5,1008C 421.277,1007.94 423.277,1006.77 424.5,1004.5 Z"/></g>
<g><path style="opacity:0.845" fill="#fefffe" d="M 537.5,1064.5 C 676.167,1064.33 814.834,1064.5 953.5,1065C 960.45,1066.55 967.117,1068.72 973.5,1071.5C 973.5,1072.5 973.5,1073.5 973.5,1074.5C 974.5,1074.5 975.5,1074.5 976.5,1074.5C 979.295,1078.38 981.461,1082.71 983,1087.5C 983.667,1092.83 983.667,1098.17 983,1103.5C 981.048,1105.34 980.048,1107.67 980,1110.5C 978.989,1111.34 977.822,1111.67 976.5,1111.5C 974.803,1115.03 972.469,1118.2 969.5,1121C 966.671,1121.05 964.337,1122.05 962.5,1124C 817.5,1124.5 672.5,1124.67 527.5,1124.5C 527.5,1123.5 527.5,1122.5 527.5,1121.5C 525.167,1121.5 522.833,1121.5 520.5,1121.5C 520.5,1120.5 520.5,1119.5 520.5,1118.5C 516.5,1117.83 514.167,1115.5 513.5,1111.5C 512.5,1111.5 511.5,1111.5 510.5,1111.5C 510.5,1109.17 510.5,1106.83 510.5,1104.5C 509.5,1104.5 508.5,1104.5 507.5,1104.5C 506.705,1099.85 506.539,1095.18 507,1090.5C 509.123,1086.83 510.623,1082.83 511.5,1078.5C 514.974,1075.53 518.308,1072.36 521.5,1069C 525.796,1068.04 530.13,1067.2 534.5,1066.5C 535.602,1065.82 536.602,1065.16 537.5,1064.5 Z"/></g>
<g><path style="opacity:0.843" fill="#fefffe" d="M 425.5,1224.5 C 430.844,1224.33 436.177,1224.5 441.5,1225C 445.928,1226.62 449.928,1228.78 453.5,1231.5C 453.5,1232.5 453.5,1233.5 453.5,1234.5C 454.5,1234.5 455.5,1234.5 456.5,1234.5C 456.277,1237.11 457.444,1238.78 460,1239.5C 460.32,1244.54 461.487,1249.21 463.5,1253.5C 461.608,1257.93 460.442,1262.6 460,1267.5C 457.259,1269.07 456.092,1271.4 456.5,1274.5C 455.5,1274.5 454.5,1274.5 453.5,1274.5C 453.719,1275.68 453.386,1276.68 452.5,1277.5C 450.867,1279.5 448.867,1280.84 446.5,1281.5C 446.5,1282.5 446.5,1283.5 446.5,1284.5C 445.5,1284.5 444.5,1284.5 443.5,1284.5C 443.719,1285.68 443.386,1286.68 442.5,1287.5C 440.867,1289.5 438.867,1290.84 436.5,1291.5C 436.5,1292.5 436.5,1293.5 436.5,1294.5C 435.5,1294.5 434.5,1294.5 433.5,1294.5C 433.719,1295.68 433.386,1296.68 432.5,1297.5C 430.867,1299.5 428.867,1300.84 426.5,1301.5C 426.5,1302.5 426.5,1303.5 426.5,1304.5C 425.5,1304.5 424.5,1304.5 423.5,1304.5C 422.861,1306.76 421.694,1308.76 420,1310.5C 418.989,1311.34 417.822,1311.67 416.5,1311.5C 416.5,1312.5 416.5,1313.5 416.5,1314.5C 415.5,1314.5 414.5,1314.5 413.5,1314.5C 413.719,1315.68 413.386,1316.68 412.5,1317.5C 410.867,1319.5 408.867,1320.84 406.5,1321.5C 406.5,1322.5 406.5,1323.5 406.5,1324.5C 405.5,1324.5 404.5,1324.5 403.5,1324.5C 403.649,1325.55 403.483,1326.55 403,1327.5C 401.5,1328.33 400.333,1329.5 399.5,1331C 398.552,1331.48 397.552,1331.65 396.5,1331.5C 396.5,1332.5 396.5,1333.5 396.5,1334.5C 395.5,1334.5 394.5,1334.5 393.5,1334.5C 393.649,1335.55 393.483,1336.55 393,1337.5C 391.5,1338.33 390.333,1339.5 389.5,1341C 388.552,1341.48 387.552,1341.65 386.5,1341.5C 386.5,1342.5 386.5,1343.5 386.5,1344.5C 385.5,1344.5 384.5,1344.5 383.5,1344.5C 383.649,1345.55 383.483,1346.55 383,1347.5C 381.5,1348.33 380.333,1349.5 379.5,1351C 378.552,1351.48 377.552,1351.65 376.5,1351.5C 376.5,1352.5 376.5,1353.5 376.5,1354.5C 375.5,1354.5 374.5,1354.5 373.5,1354.5C 373.719,1355.68 373.386,1356.68 372.5,1357.5C 370.697,1358.14 369.364,1359.3 368.5,1361C 365.997,1361.13 363.997,1362.13 362.5,1364C 355.174,1364.5 347.841,1364.67 340.5,1364.5C 340.5,1363.5 340.5,1362.5 340.5,1361.5C 335.006,1362.12 331.672,1359.79 330.5,1354.5C 328.005,1353.8 325.672,1352.8 323.5,1351.5C 322.199,1349.33 321.199,1346.99 320.5,1344.5C 318.005,1343.8 315.672,1342.8 313.5,1341.5C 312.199,1339.33 311.199,1336.99 310.5,1334.5C 308.005,1333.8 305.672,1332.8 303.5,1331.5C 302.199,1329.33 301.199,1326.99 300.5,1324.5C 299.448,1324.65 298.448,1324.48 297.5,1324C 288.094,1315.78 284.594,1305.28 287,1292.5C 289.354,1288.1 291.854,1283.77 294.5,1279.5C 296.918,1278.59 298.918,1277.09 300.5,1275C 303.329,1274.95 305.663,1273.95 307.5,1272C 313.5,1271.33 319.5,1271.33 325.5,1272C 327.337,1273.95 329.671,1274.95 332.5,1275C 337.723,1280.1 342.723,1285.43 347.5,1291C 349.24,1292.69 351.24,1293.86 353.5,1294.5C 353.5,1293.5 353.5,1292.5 353.5,1291.5C 354.5,1291.5 355.5,1291.5 356.5,1291.5C 356.167,1288.5 357.5,1287.17 360.5,1287.5C 360.5,1286.5 360.5,1285.5 360.5,1284.5C 361.5,1284.5 362.5,1284.5 363.5,1284.5C 363.5,1283.5 363.5,1282.5 363.5,1281.5C 364.5,1281.5 365.5,1281.5 366.5,1281.5C 366.167,1278.5 367.5,1277.17 370.5,1277.5C 370.5,1276.5 370.5,1275.5 370.5,1274.5C 371.5,1274.5 372.5,1274.5 373.5,1274.5C 373.5,1273.5 373.5,1272.5 373.5,1271.5C 374.5,1271.5 375.5,1271.5 376.5,1271.5C 376.167,1268.5 377.5,1267.17 380.5,1267.5C 380.5,1266.5 380.5,1265.5 380.5,1264.5C 381.5,1264.5 382.5,1264.5 383.5,1264.5C 383.5,1263.5 383.5,1262.5 383.5,1261.5C 384.5,1261.5 385.5,1261.5 386.5,1261.5C 386.167,1258.5 387.5,1257.17 390.5,1257.5C 390.5,1256.5 390.5,1255.5 390.5,1254.5C 391.5,1254.5 392.5,1254.5 393.5,1254.5C 393.5,1253.5 393.5,1252.5 393.5,1251.5C 394.5,1251.5 395.5,1251.5 396.5,1251.5C 396.167,1248.5 397.5,1247.17 400.5,1247.5C 400.5,1246.5 400.5,1245.5 400.5,1244.5C 401.5,1244.5 402.5,1244.5 403.5,1244.5C 403.5,1243.5 403.5,1242.5 403.5,1241.5C 404.5,1241.5 405.5,1241.5 406.5,1241.5C 406.167,1238.5 407.5,1237.17 410.5,1237.5C 410.5,1236.5 410.5,1235.5 410.5,1234.5C 411.5,1234.5 412.5,1234.5 413.5,1234.5C 413.5,1233.5 413.5,1232.5 413.5,1231.5C 417.489,1229.17 421.489,1226.84 425.5,1224.5 Z"/></g>
<g><path style="opacity:0.885" fill="#fefffe" d="M 525.5,1287.5 C 672.167,1287.33 818.834,1287.5 965.5,1288C 967.601,1290.47 970.267,1291.64 973.5,1291.5C 974.801,1293.67 975.801,1296.01 976.5,1298.5C 977.675,1298.28 978.675,1298.61 979.5,1299.5C 980.213,1301.78 980.713,1304.11 981,1306.5C 981.667,1307.17 982.333,1307.83 983,1308.5C 983.667,1313.5 983.667,1318.5 983,1323.5C 981.048,1325.34 980.048,1327.67 980,1330.5C 977.49,1332.63 975.324,1335.13 973.5,1338C 971.709,1338.42 970.376,1339.42 969.5,1341C 967.527,1341.5 965.527,1341.66 963.5,1341.5C 963.5,1342.5 963.5,1343.5 963.5,1344.5C 818.165,1344.83 672.832,1344.5 527.5,1343.5C 523.069,1341.69 518.735,1339.69 514.5,1337.5C 514.553,1334.94 513.553,1332.94 511.5,1331.5C 510.526,1329.26 510.192,1326.92 510.5,1324.5C 509.5,1324.5 508.5,1324.5 507.5,1324.5C 506.705,1319.85 506.539,1315.18 507,1310.5C 509.413,1306.97 510.58,1302.97 510.5,1298.5C 511.5,1298.5 512.5,1298.5 513.5,1298.5C 513.167,1295.5 514.5,1294.17 517.5,1294.5C 517.5,1293.5 517.5,1292.5 517.5,1291.5C 520.508,1290.77 523.175,1289.44 525.5,1287.5 Z"/></g>
</svg>
