<?xml version="1.0" encoding="UTF-8"?>
<!DOCTYPE svg PUBLIC "-//W3C//DTD SVG 1.1//EN" "http://www.w3.org/Graphics/SVG/1.1/DTD/svg11.dtd">
<svg xmlns="http://www.w3.org/2000/svg" version="1.1" width="1280px" height="1169px" style="shape-rendering:geometricPrecision; text-rendering:geometricPrecision; image-rendering:optimizeQuality; fill-rule:evenodd; clip-rule:evenodd" xmlns:xlink="http://www.w3.org/1999/xlink">
<g><path style="opacity:0.986" fill="#a2a2a2" d="M 1279.5,244.5 C 1279.5,257.167 1279.5,269.833 1279.5,282.5C 1276.76,287.724 1274.76,293.39 1273.5,299.5C 1272.5,299.5 1271.5,299.5 1270.5,299.5C 1268.9,304.282 1266.23,308.449 1262.5,312C 1257.31,316.688 1251.98,321.188 1246.5,325.5C 1229.03,344.307 1210.37,361.64 1190.5,377.5C 1190.72,378.675 1190.39,379.675 1189.5,380.5C 1050.16,512.561 910.822,644.561 771.5,776.5C 770.675,777.386 769.675,777.719 768.5,777.5C 768.719,778.675 768.386,779.675 767.5,780.5C 760.681,786.819 754.014,793.319 747.5,800C 724.177,821.656 700.844,843.322 677.5,865C 671.101,868.927 664.435,872.261 657.5,875C 651.314,875.177 645.314,876.01 639.5,877.5C 633.686,876.01 627.686,875.177 621.5,875C 614.539,872.259 607.873,868.926 601.5,865C 569.792,835.158 538.125,805.324 506.5,775.5C 505.614,774.675 505.281,773.675 505.5,772.5C 500.46,769.644 495.793,766.144 491.5,762C 465.272,735.936 438.605,710.436 411.5,685.5C 410.614,684.675 410.281,683.675 410.5,682.5C 405.46,679.644 400.793,676.144 396.5,672C 294.275,574.606 191.942,477.439 89.5,380.5C 88.6143,379.675 88.281,378.675 88.5,377.5C 67.7697,360.447 48.103,342.113 29.5,322.5C 22.8573,317.358 16.6906,311.691 11,305.5C 9.8777,303.58 9.04436,301.58 8.5,299.5C 7.5,299.5 6.5,299.5 5.5,299.5C 4.23927,293.39 2.23927,287.724 -0.5,282.5C -0.5,269.833 -0.5,257.167 -0.5,244.5C 2.24291,239.93 4.24291,234.93 5.5,229.5C 6.5,229.5 7.5,229.5 8.5,229.5C 8.24707,227.173 8.91374,225.173 10.5,223.5C 29.0033,203.392 51.6699,196.392 78.5,202.5C 87.1908,205.345 95.1908,209.512 102.5,215C 108.616,221.121 114.616,227.287 120.5,233.5C 294.265,396.604 467.265,560.271 639.5,724.5C 801.601,570.727 963.601,417.06 1125.5,263.5C 1126.32,262.614 1127.32,262.281 1128.5,262.5C 1128.48,260.857 1129.15,259.524 1130.5,258.5C 1146.66,244.842 1161.99,230.342 1176.5,215C 1188.92,206.065 1202.75,200.899 1218,199.5C 1239.15,200.406 1256.48,209.073 1270,225.5C 1270.49,226.793 1270.66,228.127 1270.5,229.5C 1271.5,229.5 1272.5,229.5 1273.5,229.5C 1274.76,234.93 1276.76,239.93 1279.5,244.5 Z"/></g>
</svg>
