<?xml version="1.0" encoding="UTF-8"?>
<!DOCTYPE svg PUBLIC "-//W3C//DTD SVG 1.1//EN" "http://www.w3.org/Graphics/SVG/1.1/DTD/svg11.dtd">
<svg xmlns="http://www.w3.org/2000/svg" version="1.1" width="1280px" height="1280px" style="shape-rendering:geometricPrecision; text-rendering:geometricPrecision; image-rendering:optimizeQuality; fill-rule:evenodd; clip-rule:evenodd" xmlns:xlink="http://www.w3.org/1999/xlink">
<g><path style="opacity:0.984" fill="#032839" d="M 615.5,-0.5 C 633.167,-0.5 650.833,-0.5 668.5,-0.5C 675.426,2.33859 682.759,4.33859 690.5,5.5C 690.5,6.5 690.5,7.5 690.5,8.5C 693.833,9.16667 697.167,9.83333 700.5,10.5C 700.5,11.5 700.5,12.5 700.5,13.5C 703.394,13.5564 706.061,14.3897 708.5,16C 710.321,17.7433 712.321,19.2433 714.5,20.5C 715.386,21.325 715.719,22.325 715.5,23.5C 717.514,23.3915 719.18,24.0582 720.5,25.5C 721.48,28.1161 722.98,30.4494 725,32.5C 726.145,32.6191 727.312,32.9524 728.5,33.5C 727.086,35.5983 727.752,36.5983 730.5,36.5C 730.833,39.5 732.5,41.1667 735.5,41.5C 735.833,44.5 737.5,46.1667 740.5,46.5C 740.833,49.5 742.5,51.1667 745.5,51.5C 745.5,52.5 745.5,53.5 745.5,54.5C 747.292,54.366 748.958,54.6993 750.5,55.5C 749.205,58.2549 750.205,59.9216 753.5,60.5C 757.333,64.8333 761.167,69.1667 765,73.5C 766.145,72.3157 767.312,72.3157 768.5,73.5C 771.833,74.8333 774.167,77.1667 775.5,80.5C 774.782,82.1368 774.616,83.8034 775,85.5C 775.308,84.6919 775.808,84.0253 776.5,83.5C 916.041,224.089 1059.04,367.589 1205.5,514C 1208.5,514.333 1210.17,516 1210.5,519C 1213.5,519.333 1215.17,521 1215.5,524C 1218.5,524.333 1220.17,526 1220.5,529C 1223.5,529.333 1225.17,531 1225.5,534C 1228.5,534.333 1230.17,536 1230.5,539C 1233.5,539.333 1235.17,541 1235.5,544C 1238.5,544.333 1240.17,546 1240.5,549C 1243.33,549.167 1244.83,550.667 1245,553.5C 1246.15,552.316 1247.31,552.316 1248.5,553.5C 1250.75,555.244 1252.92,557.244 1255,559.5C 1266.09,572.692 1274.26,587.359 1279.5,603.5C 1279.5,627.5 1279.5,651.5 1279.5,675.5C 1272.5,695.916 1261.16,713.916 1245.5,729.5C 1242.41,732.04 1239.07,734.04 1235.5,735.5C 1235.5,736.5 1235.5,737.5 1235.5,738.5C 1225.77,743.185 1216.11,748.018 1206.5,753C 1201.22,754.357 1195.88,755.524 1190.5,756.5C 1190.29,757.086 1189.96,757.586 1189.5,758C 1183.18,758.5 1176.84,758.666 1170.5,758.5C 1163.54,757.672 1156.21,757.339 1148.5,757.5C 1148.5,758.5 1148.5,759.5 1148.5,760.5C 1147.5,760.5 1146.5,760.5 1145.5,760.5C 1145.51,889.983 1145.51,1019.32 1145.5,1148.5C 1145.78,1158.93 1144.95,1169.26 1143,1179.5C 1142.59,1179.96 1142.09,1180.29 1141.5,1180.5C 1139.78,1189.32 1137.11,1197.65 1133.5,1205.5C 1132.5,1205.5 1131.5,1205.5 1130.5,1205.5C 1130.22,1208.63 1129.38,1211.63 1128,1214.5C 1123.05,1220.97 1118.22,1227.64 1113.5,1234.5C 1112.68,1235.39 1111.68,1235.72 1110.5,1235.5C 1110.17,1238.5 1108.5,1240.17 1105.5,1240.5C 1105.52,1242.14 1104.85,1243.48 1103.5,1244.5C 1094.7,1251.98 1085.37,1258.64 1075.5,1264.5C 1073.95,1265.45 1072.29,1265.79 1070.5,1265.5C 1070.5,1266.5 1070.5,1267.5 1070.5,1268.5C 1064.17,1269.93 1058.17,1272.1 1052.5,1275C 1049.04,1274.91 1046.04,1275.91 1043.5,1278C 1039.97,1278.18 1036.64,1278.68 1033.5,1279.5C 951.833,1279.5 870.167,1279.5 788.5,1279.5C 780.857,1276.89 774.524,1272.22 769.5,1265.5C 768.548,1263.95 768.215,1262.29 768.5,1260.5C 767.5,1260.5 766.5,1260.5 765.5,1260.5C 765.819,1258.25 765.319,1256.25 764,1254.5C 763.833,1147.5 763.333,1040.5 762.5,933.5C 761.914,933.291 761.414,932.957 761,932.5C 760.795,926.94 759.795,921.607 758,916.5C 756.361,913.023 754.027,910.023 751,907.5C 750.144,905.132 749.31,902.798 748.5,900.5C 745.5,900.167 743.833,898.5 743.5,895.5C 738.245,892.909 733.245,889.909 728.5,886.5C 724.689,884.673 720.689,883.506 716.5,883C 713.983,880.749 710.983,879.916 707.5,880.5C 707.631,879.624 707.298,878.957 706.5,878.5C 663.5,879.833 620.5,879.833 577.5,878.5C 576.702,878.957 576.369,879.624 576.5,880.5C 574.167,880.5 571.833,880.5 569.5,880.5C 566.859,879.737 564.192,879.57 561.5,880C 560.167,880.667 560.167,881.333 561.5,882C 559.105,884.145 556.938,883.978 555,881.5C 554.25,882.126 553.416,882.626 552.5,883C 552.854,884.626 552.854,886.459 552.5,888.5C 548.738,891.267 544.738,893.6 540.5,895.5C 540.167,898.5 538.5,900.167 535.5,900.5C 534.43,904.354 532.43,907.688 529.5,910.5C 528.548,912.045 528.215,913.712 528.5,915.5C 527.5,915.5 526.5,915.5 525.5,915.5C 524.708,920.82 523.875,926.153 523,931.5C 522.333,932.167 521.667,932.833 521,933.5C 520.667,1040.17 520.333,1146.83 520,1253.5C 518.648,1255.59 518.148,1257.93 518.5,1260.5C 517.5,1260.5 516.5,1260.5 515.5,1260.5C 515.659,1263.19 514.825,1265.52 513,1267.5C 510.323,1269.68 507.823,1272.01 505.5,1274.5C 503.955,1275.45 502.288,1275.79 500.5,1275.5C 500.5,1276.5 500.5,1277.5 500.5,1278.5C 498.585,1278.22 496.919,1278.55 495.5,1279.5C 413.833,1279.5 332.167,1279.5 250.5,1279.5C 247.359,1278.68 244.025,1278.18 240.5,1278C 237.956,1275.91 234.956,1274.91 231.5,1275C 225.829,1272.1 219.829,1269.93 213.5,1268.5C 213.5,1267.5 213.5,1266.5 213.5,1265.5C 210.368,1265.22 207.368,1264.38 204.5,1263C 198.045,1258.07 191.379,1253.24 184.5,1248.5C 183.614,1247.68 183.281,1246.68 183.5,1245.5C 180.5,1245.17 178.833,1243.5 178.5,1240.5C 175.5,1240.17 173.833,1238.5 173.5,1235.5C 172.325,1235.72 171.325,1235.39 170.5,1234.5C 165.767,1227.63 160.934,1220.96 156,1214.5C 154.617,1211.63 153.784,1208.63 153.5,1205.5C 152.5,1205.5 151.5,1205.5 150.5,1205.5C 146.889,1197.65 144.222,1189.32 142.5,1180.5C 141.914,1180.29 141.414,1179.96 141,1179.5C 139.109,1169.93 138.276,1160.26 138.5,1150.5C 136.877,1147.78 136.21,1144.78 136.5,1141.5C 137.117,1141.39 137.617,1141.06 138,1140.5C 138.168,1012.79 138.668,885.127 139.5,757.5C 138.315,757.124 136.982,757.124 135.5,757.5C 127.414,757.199 119.414,757.533 111.5,758.5C 105.824,758.666 100.157,758.499 94.5,758C 94.0426,757.586 93.7093,757.086 93.5,756.5C 88.118,755.524 82.7846,754.357 77.5,753C 67.9952,747.896 58.3285,743.063 48.5,738.5C 48.5,737.5 48.5,736.5 48.5,735.5C 46.3016,734.986 44.3016,733.986 42.5,732.5C 41.7025,732.043 41.3691,731.376 41.5,730.5C 42.5981,729.603 42.5981,728.77 41.5,728C 42.1667,727.667 42.8333,727.333 43.5,727C 39.4273,725.796 35.7607,723.796 32.5,721C 32.8333,720.667 33.1667,720.333 33.5,720C 31.8078,718.599 31.1412,716.766 31.5,714.5C 29.8762,714.36 28.7096,715.027 28,716.5C 27.6174,715.944 27.1174,715.611 26.5,715.5C 22.5325,711.577 19.0325,707.244 16,702.5C 11.65,693.791 7.81662,684.791 4.5,675.5C 3.51298,672.232 3.17964,668.898 3.5,665.5C 3.53235,663.381 2.53235,662.048 0.5,661.5C 0.333412,646.163 0.500079,630.83 1,615.5C 3.70857,605.635 7.0419,595.968 11,586.5C 13.3113,583.572 14.9779,580.238 16,576.5C 16.9947,575.934 17.828,575.267 18.5,574.5C 20.7789,573.555 22.4456,571.888 23.5,569.5C 24.086,569.709 24.586,570.043 25,570.5C 26.3333,567.833 27.6667,565.167 29,562.5C 30.586,561.624 32.086,560.624 33.5,559.5C 33.2907,558.914 32.9574,558.414 32.5,558C 33.9733,557.29 34.6399,556.124 34.5,554.5C 37.2476,554.598 37.9143,553.598 36.5,551.5C 101.5,486.5 166.5,421.5 231.5,356.5C 232.496,356.414 233.329,356.748 234,357.5C 253.306,338.194 272.64,318.86 292,299.5C 292.47,298.423 292.303,297.423 291.5,296.5C 309.189,278.477 327.189,260.811 345.5,243.5C 346.766,242.91 348.099,242.41 349.5,242C 400.57,190.719 451.736,139.553 503,88.5C 503.483,87.552 503.649,86.552 503.5,85.5C 504.082,84.0689 504.915,82.7356 506,81.5C 508.976,78.4701 512.143,75.8035 515.5,73.5C 517.713,72.7488 519.713,71.5821 521.5,70C 532,59.5 542.5,49 553,38.5C 553.483,37.552 553.649,36.552 553.5,35.5C 556.6,31.2442 560.267,27.4109 564.5,24C 565.793,23.51 567.127,23.3433 568.5,23.5C 571.562,17.465 576.562,14.1316 583.5,13.5C 583.5,12.5 583.5,11.5 583.5,10.5C 586.833,9.83333 590.167,9.16667 593.5,8.5C 593.5,7.5 593.5,6.5 593.5,5.5C 601.13,4.17594 608.463,2.17594 615.5,-0.5 Z M 668.5,85.5 C 668.833,88.5 670.5,90.1667 673.5,90.5C 673.833,93.5 675.5,95.1667 678.5,95.5C 678.833,98.5 680.5,100.167 683.5,100.5C 683.833,103.5 685.5,105.167 688.5,105.5C 688.833,108.5 690.5,110.167 693.5,110.5C 693.833,113.5 695.5,115.167 698.5,115.5C 698.833,118.5 700.5,120.167 703.5,120.5C 703.833,123.5 705.5,125.167 708.5,125.5C 708.833,128.5 710.5,130.167 713.5,130.5C 713.833,133.5 715.5,135.167 718.5,135.5C 718.833,138.5 720.5,140.167 723.5,140.5C 723.833,143.5 725.5,145.167 728.5,145.5C 728.833,148.5 730.5,150.167 733.5,150.5C 733.833,153.5 735.5,155.167 738.5,155.5C 738.833,158.5 740.5,160.167 743.5,160.5C 743.833,163.5 745.5,165.167 748.5,165.5C 748.833,168.5 750.5,170.167 753.5,170.5C 753.833,173.5 755.5,175.167 758.5,175.5C 758.833,178.5 760.5,180.167 763.5,180.5C 763.833,183.5 765.5,185.167 768.5,185.5C 768.833,188.5 770.5,190.167 773.5,190.5C 773.833,193.5 775.5,195.167 778.5,195.5C 778.833,198.5 780.5,200.167 783.5,200.5C 783.833,203.5 785.5,205.167 788.5,205.5C 788.833,208.5 790.5,210.167 793.5,210.5C 793.833,213.5 795.5,215.167 798.5,215.5C 798.833,218.5 800.5,220.167 803.5,220.5C 803.833,223.5 805.5,225.167 808.5,225.5C 808.833,228.5 810.5,230.167 813.5,230.5C 813.833,233.5 815.5,235.167 818.5,235.5C 818.833,238.5 820.5,240.167 823.5,240.5C 823.833,243.5 825.5,245.167 828.5,245.5C 828.833,248.5 830.5,250.167 833.5,250.5C 833.833,253.5 835.5,255.167 838.5,255.5C 838.833,258.5 840.5,260.167 843.5,260.5C 843.833,263.5 845.5,265.167 848.5,265.5C 848.833,268.5 850.5,270.167 853.5,270.5C 853.833,273.5 855.5,275.167 858.5,275.5C 858.833,278.5 860.5,280.167 863.5,280.5C 863.833,283.5 865.5,285.167 868.5,285.5C 868.833,288.5 870.5,290.167 873.5,290.5C 873.833,293.5 875.5,295.167 878.5,295.5C 878.833,298.5 880.5,300.167 883.5,300.5C 883.833,303.5 885.5,305.167 888.5,305.5C 888.833,308.5 890.5,310.167 893.5,310.5C 893.833,313.5 895.5,315.167 898.5,315.5C 898.833,318.5 900.5,320.167 903.5,320.5C 903.833,323.5 905.5,325.167 908.5,325.5C 908.833,328.5 910.5,330.167 913.5,330.5C 913.833,333.5 915.5,335.167 918.5,335.5C 918.833,338.5 920.5,340.167 923.5,340.5C 923.833,343.5 925.5,345.167 928.5,345.5C 928.833,348.5 930.5,350.167 933.5,350.5C 933.738,353.069 935.071,354.735 937.5,355.5C 938.575,358.239 940.575,359.906 943.5,360.5C 943.833,363.5 945.5,365.167 948.5,365.5C 948.833,368.5 950.5,370.167 953.5,370.5C 953.833,373.5 955.5,375.167 958.5,375.5C 958.833,378.5 960.5,380.167 963.5,380.5C 963.833,383.5 965.5,385.167 968.5,385.5C 968.833,388.5 970.5,390.167 973.5,390.5C 973.833,393.5 975.5,395.167 978.5,395.5C 978.833,398.5 980.5,400.167 983.5,400.5C 983.833,403.5 985.5,405.167 988.5,405.5C 988.833,408.5 990.5,410.167 993.5,410.5C 993.833,413.5 995.5,415.167 998.5,415.5C 998.833,418.5 1000.5,420.167 1003.5,420.5C 1003.83,423.5 1005.5,425.167 1008.5,425.5C 1008.83,428.5 1010.5,430.167 1013.5,430.5C 1013.83,433.5 1015.5,435.167 1018.5,435.5C 1018.83,438.5 1020.5,440.167 1023.5,440.5C 1023.83,443.5 1025.5,445.167 1028.5,445.5C 1028.83,448.5 1030.5,450.167 1033.5,450.5C 1033.83,453.5 1035.5,455.167 1038.5,455.5C 1038.83,458.5 1040.5,460.167 1043.5,460.5C 1043.83,463.5 1045.5,465.167 1048.5,465.5C 1048.83,468.5 1050.5,470.167 1053.5,470.5C 1053.83,473.5 1055.5,475.167 1058.5,475.5C 1058.83,478.5 1060.5,480.167 1063.5,480.5C 1063.83,483.5 1065.5,485.167 1068.5,485.5C 1068.83,488.5 1070.5,490.167 1073.5,490.5C 1073.83,493.5 1075.5,495.167 1078.5,495.5C 1078.83,498.5 1080.5,500.167 1083.5,500.5C 1083.83,503.5 1085.5,505.167 1088.5,505.5C 1088.83,508.5 1090.5,510.167 1093.5,510.5C 1093.83,513.5 1095.5,515.167 1098.5,515.5C 1098.83,518.5 1100.5,520.167 1103.5,520.5C 1103.83,523.5 1105.5,525.167 1108.5,525.5C 1108.83,528.5 1110.5,530.167 1113.5,530.5C 1113.83,533.5 1115.5,535.167 1118.5,535.5C 1118.83,538.5 1120.5,540.167 1123.5,540.5C 1123.83,543.5 1125.5,545.167 1128.5,545.5C 1128.83,548.5 1130.5,550.167 1133.5,550.5C 1133.83,553.5 1135.5,555.167 1138.5,555.5C 1138.83,558.5 1140.5,560.167 1143.5,560.5C 1143.83,563.5 1145.5,565.167 1148.5,565.5C 1148.83,568.5 1150.5,570.167 1153.5,570.5C 1153.83,573.5 1155.5,575.167 1158.5,575.5C 1158.83,578.5 1160.5,580.167 1163.5,580.5C 1163.83,583.5 1165.5,585.167 1168.5,585.5C 1168.83,588.5 1170.5,590.167 1173.5,590.5C 1173.83,593.5 1175.5,595.167 1178.5,595.5C 1178.83,598.5 1180.5,600.167 1183.5,600.5C 1183.83,603.5 1185.5,605.167 1188.5,605.5C 1188.83,608.5 1190.5,610.167 1193.5,610.5C 1196.75,615.999 1199.75,621.666 1202.5,627.5C 1203.83,635.5 1203.83,643.5 1202.5,651.5C 1199.75,657.334 1196.75,663.001 1193.5,668.5C 1189.93,669.96 1186.59,671.96 1183.5,674.5C 1181.95,675.452 1180.29,675.785 1178.5,675.5C 1178.5,676.5 1178.5,677.5 1178.5,678.5C 1150.55,680.152 1122.55,680.985 1094.5,681C 1091.37,683.685 1087.71,685.185 1083.5,685.5C 1083.5,686.5 1083.5,687.5 1083.5,688.5C 1080.5,688.833 1078.83,690.5 1078.5,693.5C 1076.86,693.48 1075.52,694.147 1074.5,695.5C 1072.49,699.085 1070.66,702.751 1069,706.5C 1068.83,853.168 1068.33,999.834 1067.5,1146.5C 1065.85,1152.74 1064.18,1159.07 1062.5,1165.5C 1059.87,1169.78 1057.21,1174.11 1054.5,1178.5C 1050.83,1182.17 1047.17,1185.83 1043.5,1189.5C 1039.17,1192.17 1034.83,1194.83 1030.5,1197.5C 1025,1199.53 1019.34,1200.53 1013.5,1200.5C 1010.94,1200.39 1008.61,1201.06 1006.5,1202.5C 952.171,1203.5 897.837,1203.83 843.5,1203.5C 843.5,1115.83 843.5,1028.17 843.5,940.5C 841.627,931 840.461,921.333 840,911.5C 835.439,890.706 826.606,871.706 813.5,854.5C 812.675,853.614 811.675,853.281 810.5,853.5C 810.5,852.5 810.5,851.5 810.5,850.5C 807.118,845.785 803.118,841.785 798.5,838.5C 797.524,837.185 796.524,835.852 795.5,834.5C 789.132,830.317 783.132,825.817 777.5,821C 769.303,816.406 760.969,812.406 752.5,809C 750.19,808.503 747.857,808.337 745.5,808.5C 745.5,807.5 745.5,806.5 745.5,805.5C 738.29,804.393 730.956,803.393 723.5,802.5C 723.291,801.914 722.957,801.414 722.5,801C 668.833,800.333 615.167,800.333 561.5,801C 561.043,801.414 560.709,801.914 560.5,802.5C 553.044,803.393 545.71,804.393 538.5,805.5C 538.5,806.5 538.5,807.5 538.5,808.5C 536.143,808.337 533.81,808.503 531.5,809C 515.969,815.434 501.635,823.934 488.5,834.5C 485.417,837.242 482.751,840.242 480.5,843.5C 477.103,845.732 474.603,848.732 473,852.5C 470.392,854.585 468.059,856.918 466,859.5C 462.806,864.182 460.306,869.182 458.5,874.5C 457.828,875.267 456.995,875.934 456,876.5C 454.978,880.238 453.311,883.572 451,886.5C 450.35,891.962 448.683,896.962 446,901.5C 445.899,904.7 445.232,907.7 444,910.5C 443.501,915.489 443.334,920.489 443.5,925.5C 442.21,926.058 441.377,927.058 441,928.5C 440.503,930.81 440.337,933.143 440.5,935.5C 440.5,1024.83 440.5,1114.17 440.5,1203.5C 386.163,1203.83 331.829,1203.5 277.5,1202.5C 269.881,1201.05 262.215,1199.55 254.5,1198C 240.002,1190.67 229.002,1179.83 221.5,1165.5C 219.732,1160.29 218.565,1154.96 218,1149.5C 217.333,1148.83 216.667,1148.17 216,1147.5C 215.833,1000.5 215.333,853.499 214.5,706.5C 213.613,702.814 212.113,699.481 210,696.5C 209.092,694.561 207.592,693.561 205.5,693.5C 205.719,692.325 205.386,691.325 204.5,690.5C 199.694,686.591 194.36,683.424 188.5,681C 160.786,680.983 133.119,680.149 105.5,678.5C 105.5,677.5 105.5,676.5 105.5,675.5C 103.712,675.785 102.045,675.452 100.5,674.5C 97.4077,671.96 94.0743,669.96 90.5,668.5C 87.421,663.13 84.2543,657.797 81,652.5C 80.502,649.518 80.3354,646.518 80.5,643.5C 79.3697,640.803 79.3697,638.137 80.5,635.5C 80.3354,632.482 80.502,629.482 81,626.5C 84.2543,621.203 87.421,615.87 90.5,610.5C 93.5,610.167 95.1667,608.5 95.5,605.5C 98.5,605.167 100.167,603.5 100.5,600.5C 103.5,600.167 105.167,598.5 105.5,595.5C 108.5,595.167 110.167,593.5 110.5,590.5C 113.5,590.167 115.167,588.5 115.5,585.5C 118.5,585.167 120.167,583.5 120.5,580.5C 123.5,580.167 125.167,578.5 125.5,575.5C 128.5,575.167 130.167,573.5 130.5,570.5C 133.5,570.167 135.167,568.5 135.5,565.5C 138.5,565.167 140.167,563.5 140.5,560.5C 143.5,560.167 145.167,558.5 145.5,555.5C 148.5,555.167 150.167,553.5 150.5,550.5C 153.5,550.167 155.167,548.5 155.5,545.5C 158.5,545.167 160.167,543.5 160.5,540.5C 163.5,540.167 165.167,538.5 165.5,535.5C 168.5,535.167 170.167,533.5 170.5,530.5C 173.5,530.167 175.167,528.5 175.5,525.5C 178.5,525.167 180.167,523.5 180.5,520.5C 183.5,520.167 185.167,518.5 185.5,515.5C 188.5,515.167 190.167,513.5 190.5,510.5C 193.5,510.167 195.167,508.5 195.5,505.5C 198.5,505.167 200.167,503.5 200.5,500.5C 203.5,500.167 205.167,498.5 205.5,495.5C 208.5,495.167 210.167,493.5 210.5,490.5C 213.5,490.167 215.167,488.5 215.5,485.5C 218.5,485.167 220.167,483.5 220.5,480.5C 223.5,480.167 225.167,478.5 225.5,475.5C 228.5,475.167 230.167,473.5 230.5,470.5C 233.5,470.167 235.167,468.5 235.5,465.5C 238.5,465.167 240.167,463.5 240.5,460.5C 243.5,460.167 245.167,458.5 245.5,455.5C 248.5,455.167 250.167,453.5 250.5,450.5C 253.5,450.167 255.167,448.5 255.5,445.5C 258.5,445.167 260.167,443.5 260.5,440.5C 263.5,440.167 265.167,438.5 265.5,435.5C 268.5,435.167 270.167,433.5 270.5,430.5C 273.5,430.167 275.167,428.5 275.5,425.5C 278.5,425.167 280.167,423.5 280.5,420.5C 283.5,420.167 285.167,418.5 285.5,415.5C 288.5,415.167 290.167,413.5 290.5,410.5C 293.5,410.167 295.167,408.5 295.5,405.5C 298.5,405.167 300.167,403.5 300.5,400.5C 303.5,400.167 305.167,398.5 305.5,395.5C 308.5,395.167 310.167,393.5 310.5,390.5C 313.5,390.167 315.167,388.5 315.5,385.5C 318.5,385.167 320.167,383.5 320.5,380.5C 323.5,380.167 325.167,378.5 325.5,375.5C 328.5,375.167 330.167,373.5 330.5,370.5C 333.5,370.167 335.167,368.5 335.5,365.5C 338.5,365.167 340.167,363.5 340.5,360.5C 343.5,360.167 345.167,358.5 345.5,355.5C 348.5,355.167 350.167,353.5 350.5,350.5C 353.5,350.167 355.167,348.5 355.5,345.5C 358.5,345.167 360.167,343.5 360.5,340.5C 363.5,340.167 365.167,338.5 365.5,335.5C 368.5,335.167 370.167,333.5 370.5,330.5C 373.5,330.167 375.167,328.5 375.5,325.5C 378.5,325.167 380.167,323.5 380.5,320.5C 383.5,320.167 385.167,318.5 385.5,315.5C 388.5,315.167 390.167,313.5 390.5,310.5C 393.5,310.167 395.167,308.5 395.5,305.5C 398.5,305.167 400.167,303.5 400.5,300.5C 403.5,300.167 405.167,298.5 405.5,295.5C 408.5,295.167 410.167,293.5 410.5,290.5C 413.5,290.167 415.167,288.5 415.5,285.5C 418.5,285.167 420.167,283.5 420.5,280.5C 423.5,280.167 425.167,278.5 425.5,275.5C 428.5,275.167 430.167,273.5 430.5,270.5C 433.5,270.167 435.167,268.5 435.5,265.5C 438.5,265.167 440.167,263.5 440.5,260.5C 443.5,260.167 445.167,258.5 445.5,255.5C 448.5,255.167 450.167,253.5 450.5,250.5C 453.5,250.167 455.167,248.5 455.5,245.5C 458.5,245.167 460.167,243.5 460.5,240.5C 463.5,240.167 465.167,238.5 465.5,235.5C 468.5,235.167 470.167,233.5 470.5,230.5C 473.5,230.167 475.167,228.5 475.5,225.5C 477.179,225.715 478.179,225.048 478.5,223.5C 480.048,223.179 480.715,222.179 480.5,220.5C 483.5,220.167 485.167,218.5 485.5,215.5C 488.5,215.167 490.167,213.5 490.5,210.5C 493.5,210.167 495.167,208.5 495.5,205.5C 498.5,205.167 500.167,203.5 500.5,200.5C 503.5,200.167 505.167,198.5 505.5,195.5C 508.5,195.167 510.167,193.5 510.5,190.5C 513.5,190.167 515.167,188.5 515.5,185.5C 518.5,185.167 520.167,183.5 520.5,180.5C 523.5,180.167 525.167,178.5 525.5,175.5C 528.5,175.167 530.167,173.5 530.5,170.5C 533.5,170.167 535.167,168.5 535.5,165.5C 538.5,165.167 540.167,163.5 540.5,160.5C 543.5,160.167 545.167,158.5 545.5,155.5C 548.5,155.167 550.167,153.5 550.5,150.5C 553.5,150.167 555.167,148.5 555.5,145.5C 558.5,145.167 560.167,143.5 560.5,140.5C 563.5,140.167 565.167,138.5 565.5,135.5C 568.5,135.167 570.167,133.5 570.5,130.5C 573.5,130.167 575.167,128.5 575.5,125.5C 578.5,125.167 580.167,123.5 580.5,120.5C 583.5,120.167 585.167,118.5 585.5,115.5C 588.5,115.167 590.167,113.5 590.5,110.5C 593.5,110.167 595.167,108.5 595.5,105.5C 598.5,105.167 600.167,103.5 600.5,100.5C 603.5,100.167 605.167,98.5 605.5,95.5C 608.5,95.1667 610.167,93.5 610.5,90.5C 613.5,90.1667 615.167,88.5 615.5,85.5C 616.873,85.6567 618.207,85.49 619.5,85C 623.637,80.9768 628.637,78.8101 634.5,78.5C 645.631,76.4244 655.631,78.5911 664.5,85C 665.793,85.49 667.127,85.6567 668.5,85.5 Z"/></g>
<g><path style="opacity:0.106" fill="#06101e" d="M 720.5,25.5 C 723.882,27.5487 726.549,30.2154 728.5,33.5C 727.312,32.9524 726.145,32.6191 725,32.5C 722.98,30.4494 721.48,28.1161 720.5,25.5 Z"/></g>
<g><path style="opacity:0.193" fill="#051627" d="M 728.5,33.5 C 729.931,34.0819 731.264,34.9152 732.5,36C 738.854,42.3053 744.854,48.8053 750.5,55.5C 748.958,54.6993 747.292,54.366 745.5,54.5C 745.5,53.5 745.5,52.5 745.5,51.5C 742.5,51.1667 740.833,49.5 740.5,46.5C 737.5,46.1667 735.833,44.5 735.5,41.5C 732.5,41.1667 730.833,39.5 730.5,36.5C 727.752,36.5983 727.086,35.5983 728.5,33.5 Z"/></g>
<g><path style="opacity:0.153" fill="#041927" d="M 553.5,35.5 C 553.649,36.552 553.483,37.552 553,38.5C 542.5,49 532,59.5 521.5,70C 519.713,71.5821 517.713,72.7488 515.5,73.5C 515.369,72.7611 515.536,72.0944 516,71.5C 528.167,60 540,48.1667 551.5,36C 552.094,35.5357 552.761,35.369 553.5,35.5 Z"/></g>
<g><path style="opacity:0.193" fill="#061827" d="M 750.5,55.5 C 751.239,55.369 751.906,55.5357 752.5,56C 758.09,61.7496 763.423,67.5829 768.5,73.5C 767.312,72.3157 766.145,72.3157 765,73.5C 761.167,69.1667 757.333,64.8333 753.5,60.5C 750.205,59.9216 749.205,58.2549 750.5,55.5 Z"/></g>
<g><path style="opacity:0.261" fill="#041b2c" d="M 668.5,85.5 C 667.127,85.6567 665.793,85.49 664.5,85C 655.631,78.5911 645.631,76.4244 634.5,78.5C 634.5,77.5 634.5,76.5 634.5,75.5C 640.512,76.0328 646.512,76.1994 652.5,76C 654.96,76.3961 656.96,77.5628 658.5,79.5C 659.833,78.1667 661.167,78.1667 662.5,79.5C 665.007,81.0684 667.007,83.0684 668.5,85.5 Z"/></g>
<g><path style="opacity:0.393" fill="#02232f" d="M 668.5,85.5 C 669.688,86.6843 670.855,86.6843 672,85.5C 758.576,172.415 845.91,259.749 934,347.5C 934.883,350.102 936.383,352.269 938.5,354C 937.944,354.383 937.611,354.883 937.5,355.5C 935.071,354.735 933.738,353.069 933.5,350.5C 930.5,350.167 928.833,348.5 928.5,345.5C 925.5,345.167 923.833,343.5 923.5,340.5C 920.5,340.167 918.833,338.5 918.5,335.5C 915.5,335.167 913.833,333.5 913.5,330.5C 910.5,330.167 908.833,328.5 908.5,325.5C 905.5,325.167 903.833,323.5 903.5,320.5C 900.5,320.167 898.833,318.5 898.5,315.5C 895.5,315.167 893.833,313.5 893.5,310.5C 890.5,310.167 888.833,308.5 888.5,305.5C 885.5,305.167 883.833,303.5 883.5,300.5C 880.5,300.167 878.833,298.5 878.5,295.5C 875.5,295.167 873.833,293.5 873.5,290.5C 870.5,290.167 868.833,288.5 868.5,285.5C 865.5,285.167 863.833,283.5 863.5,280.5C 860.5,280.167 858.833,278.5 858.5,275.5C 855.5,275.167 853.833,273.5 853.5,270.5C 850.5,270.167 848.833,268.5 848.5,265.5C 845.5,265.167 843.833,263.5 843.5,260.5C 840.5,260.167 838.833,258.5 838.5,255.5C 835.5,255.167 833.833,253.5 833.5,250.5C 830.5,250.167 828.833,248.5 828.5,245.5C 825.5,245.167 823.833,243.5 823.5,240.5C 820.5,240.167 818.833,238.5 818.5,235.5C 815.5,235.167 813.833,233.5 813.5,230.5C 810.5,230.167 808.833,228.5 808.5,225.5C 805.5,225.167 803.833,223.5 803.5,220.5C 800.5,220.167 798.833,218.5 798.5,215.5C 795.5,215.167 793.833,213.5 793.5,210.5C 790.5,210.167 788.833,208.5 788.5,205.5C 785.5,205.167 783.833,203.5 783.5,200.5C 780.5,200.167 778.833,198.5 778.5,195.5C 775.5,195.167 773.833,193.5 773.5,190.5C 770.5,190.167 768.833,188.5 768.5,185.5C 765.5,185.167 763.833,183.5 763.5,180.5C 760.5,180.167 758.833,178.5 758.5,175.5C 755.5,175.167 753.833,173.5 753.5,170.5C 750.5,170.167 748.833,168.5 748.5,165.5C 745.5,165.167 743.833,163.5 743.5,160.5C 740.5,160.167 738.833,158.5 738.5,155.5C 735.5,155.167 733.833,153.5 733.5,150.5C 730.5,150.167 728.833,148.5 728.5,145.5C 725.5,145.167 723.833,143.5 723.5,140.5C 720.5,140.167 718.833,138.5 718.5,135.5C 715.5,135.167 713.833,133.5 713.5,130.5C 710.5,130.167 708.833,128.5 708.5,125.5C 705.5,125.167 703.833,123.5 703.5,120.5C 700.5,120.167 698.833,118.5 698.5,115.5C 695.5,115.167 693.833,113.5 693.5,110.5C 690.5,110.167 688.833,108.5 688.5,105.5C 685.5,105.167 683.833,103.5 683.5,100.5C 680.5,100.167 678.833,98.5 678.5,95.5C 675.5,95.1667 673.833,93.5 673.5,90.5C 670.5,90.1667 668.833,88.5 668.5,85.5 Z"/></g>
<g><path style="opacity:0.346" fill="#03222c" d="M 615.5,85.5 C 615.167,88.5 613.5,90.1667 610.5,90.5C 610.167,93.5 608.5,95.1667 605.5,95.5C 605.167,98.5 603.5,100.167 600.5,100.5C 600.167,103.5 598.5,105.167 595.5,105.5C 595.167,108.5 593.5,110.167 590.5,110.5C 590.167,113.5 588.5,115.167 585.5,115.5C 585.167,118.5 583.5,120.167 580.5,120.5C 580.167,123.5 578.5,125.167 575.5,125.5C 575.167,128.5 573.5,130.167 570.5,130.5C 570.167,133.5 568.5,135.167 565.5,135.5C 565.167,138.5 563.5,140.167 560.5,140.5C 560.167,143.5 558.5,145.167 555.5,145.5C 555.167,148.5 553.5,150.167 550.5,150.5C 550.167,153.5 548.5,155.167 545.5,155.5C 545.167,158.5 543.5,160.167 540.5,160.5C 540.167,163.5 538.5,165.167 535.5,165.5C 535.167,168.5 533.5,170.167 530.5,170.5C 530.167,173.5 528.5,175.167 525.5,175.5C 525.167,178.5 523.5,180.167 520.5,180.5C 520.167,183.5 518.5,185.167 515.5,185.5C 515.167,188.5 513.5,190.167 510.5,190.5C 510.167,193.5 508.5,195.167 505.5,195.5C 505.167,198.5 503.5,200.167 500.5,200.5C 500.167,203.5 498.5,205.167 495.5,205.5C 495.167,208.5 493.5,210.167 490.5,210.5C 490.167,213.5 488.5,215.167 485.5,215.5C 485.167,218.5 483.5,220.167 480.5,220.5C 480.715,222.179 480.048,223.179 478.5,223.5C 478.019,219.651 479.686,217.651 483.5,217.5C 483.5,214.167 485.167,212.5 488.5,212.5C 488.5,209.167 490.167,207.5 493.5,207.5C 493.5,204.167 495.167,202.5 498.5,202.5C 498.5,199.167 500.167,197.5 503.5,197.5C 503.5,194.167 505.167,192.5 508.5,192.5C 508.5,189.167 510.167,187.5 513.5,187.5C 513.5,184.167 515.167,182.5 518.5,182.5C 518.5,179.167 520.167,177.5 523.5,177.5C 523.5,174.167 525.167,172.5 528.5,172.5C 528.5,169.167 530.167,167.5 533.5,167.5C 533.5,164.167 535.167,162.5 538.5,162.5C 538.5,159.167 540.167,157.5 543.5,157.5C 543.5,154.167 545.167,152.5 548.5,152.5C 548.5,149.167 550.167,147.5 553.5,147.5C 553.5,144.167 555.167,142.5 558.5,142.5C 558.5,139.167 560.167,137.5 563.5,137.5C 563.5,134.167 565.167,132.5 568.5,132.5C 568.5,129.167 570.167,127.5 573.5,127.5C 573.5,124.167 575.167,122.5 578.5,122.5C 578.5,119.167 580.167,117.5 583.5,117.5C 583.5,114.167 585.167,112.5 588.5,112.5C 588.5,109.167 590.167,107.5 593.5,107.5C 593.5,104.167 595.167,102.5 598.5,102.5C 598.5,99.1667 600.167,97.5 603.5,97.5C 603.5,94.1667 605.167,92.5 608.5,92.5C 608.84,89.3236 610.506,87.1569 613.5,86C 613.167,85.6667 612.833,85.3333 612.5,85C 613.749,84.2599 614.749,84.4265 615.5,85.5 Z"/></g>
<g><path style="opacity:0.153" fill="#041927" d="M 503.5,85.5 C 503.649,86.552 503.483,87.552 503,88.5C 451.736,139.553 400.57,190.719 349.5,242C 348.099,242.41 346.766,242.91 345.5,243.5C 345.369,242.761 345.536,242.094 346,241.5C 398.167,190 450,138.167 501.5,86C 502.094,85.5357 502.761,85.369 503.5,85.5 Z"/></g>
<g><path style="opacity:0.204" fill="#051828" d="M 291.5,296.5 C 292.303,297.423 292.47,298.423 292,299.5C 272.64,318.86 253.306,338.194 234,357.5C 233.329,356.748 232.496,356.414 231.5,356.5C 251.167,336.167 271.167,316.167 291.5,296.5 Z"/></g>
<g><path style="opacity:0.226" fill="#061928" d="M 775.5,80.5 C 776.239,80.369 776.906,80.5357 777.5,81C 934.333,237.833 1091.17,394.667 1248,551.5C 1248.46,552.094 1248.63,552.761 1248.5,553.5C 1247.31,552.316 1246.15,552.316 1245,553.5C 1244.83,550.667 1243.33,549.167 1240.5,549C 1240.17,546 1238.5,544.333 1235.5,544C 1235.17,541 1233.5,539.333 1230.5,539C 1230.17,536 1228.5,534.333 1225.5,534C 1225.17,531 1223.5,529.333 1220.5,529C 1220.17,526 1218.5,524.333 1215.5,524C 1215.17,521 1213.5,519.333 1210.5,519C 1210.17,516 1208.5,514.333 1205.5,514C 1059.04,367.589 916.041,224.089 776.5,83.5C 775.808,84.0253 775.308,84.6919 775,85.5C 774.616,83.8034 774.782,82.1368 775.5,80.5 Z"/></g>
<g><path style="opacity:0.284" fill="#051b2a" d="M 36.5,551.5 C 37.9143,553.598 37.2476,554.598 34.5,554.5C 34.6399,556.124 33.9733,557.29 32.5,558C 32.9574,558.414 33.2907,558.914 33.5,559.5C 32.086,560.624 30.586,561.624 29,562.5C 27.6667,565.167 26.3333,567.833 25,570.5C 24.586,570.043 24.086,569.709 23.5,569.5C 22.4456,571.888 20.7789,573.555 18.5,574.5C 23.362,565.968 29.362,558.301 36.5,551.5 Z"/></g>
<g><path style="opacity:0.008" fill="#000000" d="M 80.5,635.5 C 79.3697,638.137 79.3697,640.803 80.5,643.5C 77.9405,640.757 77.9405,638.09 80.5,635.5 Z"/></g>
<g><path style="opacity:0.012" fill="#010c0c" d="M 0.5,661.5 C 2.53235,662.048 3.53235,663.381 3.5,665.5C 1.55437,664.965 0.554374,663.632 0.5,661.5 Z"/></g>
<g><path style="opacity:0.472" fill="#051c2a" d="M 41.5,730.5 C 39.567,730.271 37.9003,729.438 36.5,728C 32.3237,724.466 28.9903,720.299 26.5,715.5C 27.1174,715.611 27.6174,715.944 28,716.5C 28.7096,715.027 29.8762,714.36 31.5,714.5C 31.1412,716.766 31.8078,718.599 33.5,720C 33.1667,720.333 32.8333,720.667 32.5,721C 35.7607,723.796 39.4273,725.796 43.5,727C 42.8333,727.333 42.1667,727.667 41.5,728C 42.5981,728.77 42.5981,729.603 41.5,730.5 Z"/></g>
<g><path style="opacity:0.09" fill="#021439" d="M 135.5,757.5 C 136.091,758.151 136.757,758.818 137.5,759.5C 136.502,886.46 136.169,1013.46 136.5,1140.5C 136.167,1140.5 135.833,1140.5 135.5,1140.5C 135.5,1013.83 135.5,887.167 135.5,760.5C 127.826,760.666 120.159,760.5 112.5,760C 111.944,759.617 111.611,759.117 111.5,758.5C 119.414,757.533 127.414,757.199 135.5,757.5 Z"/></g>
<g><path style="opacity:0.09" fill="#021e34" d="M 1170.5,758.5 C 1163.58,760.463 1156.24,761.13 1148.5,760.5C 1148.5,759.5 1148.5,758.5 1148.5,757.5C 1156.21,757.339 1163.54,757.672 1170.5,758.5 Z"/></g>
<g><path style="opacity:0.082" fill="#002532" d="M 136.5,1141.5 C 136.5,1141.17 136.5,1140.83 136.5,1140.5C 136.169,1013.46 136.502,886.46 137.5,759.5C 136.757,758.818 136.091,758.151 135.5,757.5C 136.982,757.124 138.315,757.124 139.5,757.5C 138.668,885.127 138.168,1012.79 138,1140.5C 137.617,1141.06 137.117,1141.39 136.5,1141.5 Z"/></g>
<g><path style="opacity:0.084" fill="#061b28" d="M 1148.5,760.5 C 1148.67,888.834 1148.5,1017.17 1148,1145.5C 1147.62,1146.94 1146.79,1147.94 1145.5,1148.5C 1145.51,1019.32 1145.51,889.983 1145.5,760.5C 1146.5,760.5 1147.5,760.5 1148.5,760.5 Z"/></g>
<g><path style="opacity:0.11" fill="#061320" d="M 798.5,838.5 C 803.118,841.785 807.118,845.785 810.5,850.5C 804.833,848.167 800.833,844.167 798.5,838.5 Z"/></g>
<g><path style="opacity:0.56" fill="#041c2c" d="M 480.5,843.5 C 479.567,846.37 477.9,848.704 475.5,850.5C 474.289,851.72 474.289,852.887 475.5,854C 474.54,855.419 473.707,856.919 473,858.5C 471.865,858.727 470.698,859.06 469.5,859.5C 469.021,861.889 467.688,863.556 465.5,864.5C 464.571,865.689 464.238,867.022 464.5,868.5C 463.5,868.5 462.5,868.5 461.5,868.5C 461.66,870.199 461.494,871.866 461,873.5C 460.329,874.252 459.496,874.586 458.5,874.5C 460.306,869.182 462.806,864.182 466,859.5C 468.059,856.918 470.392,854.585 473,852.5C 474.603,848.732 477.103,845.732 480.5,843.5 Z"/></g>
<g><path style="opacity:0.45" fill="#051c2c" d="M 569.5,880.5 C 569.047,881.458 568.381,882.292 567.5,883C 561.943,883.66 556.943,885.493 552.5,888.5C 552.854,886.459 552.854,884.626 552.5,883C 553.416,882.626 554.25,882.126 555,881.5C 556.938,883.978 559.105,884.145 561.5,882C 560.167,881.333 560.167,880.667 561.5,880C 564.192,879.57 566.859,879.737 569.5,880.5 Z"/></g>
<g><path style="opacity:0.098" fill="#001f33" d="M 707.5,880.5 C 663.833,880.5 620.167,880.5 576.5,880.5C 576.369,879.624 576.702,878.957 577.5,878.5C 620.5,879.833 663.5,879.833 706.5,878.5C 707.298,878.957 707.631,879.624 707.5,880.5 Z"/></g>
<g><path style="opacity:0.067" fill="#020e17" d="M 443.5,925.5 C 442.637,926.94 442.637,928.274 443.5,929.5C 442.199,931.444 441.199,933.444 440.5,935.5C 440.337,933.143 440.503,930.81 441,928.5C 441.377,927.058 442.21,926.058 443.5,925.5 Z"/></g>
<g><path style="opacity:0.333" fill="#012836" d="M 842.5,940.5 C 841.838,984.626 841.505,1028.79 841.5,1073C 841.5,1116.84 842.167,1160.34 843.5,1203.5C 897.837,1203.83 952.171,1203.5 1006.5,1202.5C 1008.61,1201.06 1010.94,1200.39 1013.5,1200.5C 1012.26,1202.16 1010.59,1203.33 1008.5,1204C 952.929,1204.17 897.429,1204.67 842,1205.5C 841.586,1205.04 841.086,1204.71 840.5,1204.5C 839.333,1116.5 839.167,1028.5 840,940.5C 841.071,937.887 841.905,937.887 842.5,940.5 Z"/></g>
<g><path style="opacity:0.122" fill="#00292e" d="M 842.5,940.5 C 842.833,940.5 843.167,940.5 843.5,940.5C 843.5,1028.17 843.5,1115.83 843.5,1203.5C 842.167,1160.34 841.5,1116.84 841.5,1073C 841.505,1028.79 841.838,984.626 842.5,940.5 Z"/></g>
<g><path style="opacity:0.011" fill="#000000" d="M 135.5,1140.5 C 135.833,1140.5 136.167,1140.5 136.5,1140.5C 136.5,1140.83 136.5,1141.17 136.5,1141.5C 136.21,1144.78 136.877,1147.78 138.5,1150.5C 137.25,1150.42 136.417,1149.76 136,1148.5C 135.503,1145.85 135.336,1143.19 135.5,1140.5 Z"/></g>
</svg>
