<?xml version="1.0" encoding="UTF-8"?>
<!DOCTYPE svg PUBLIC "-//W3C//DTD SVG 1.1//EN" "http://www.w3.org/Graphics/SVG/1.1/DTD/svg11.dtd">
<svg xmlns="http://www.w3.org/2000/svg" version="1.1" width="32px" height="32px" style="shape-rendering:geometricPrecision; text-rendering:geometricPrecision; image-rendering:optimizeQuality; fill-rule:evenodd; clip-rule:evenodd" xmlns:xlink="http://www.w3.org/1999/xlink">
<g><path style="opacity:0.903" fill="#afafaf" d="M 15.5,1.5 C 15.5,4.16667 15.5,6.83333 15.5,9.5C 11.5,12.5 7.5,15.5 3.5,18.5C 1.93819,18.2671 0.60486,17.6005 -0.5,16.5C -0.5,15.5 -0.5,14.5 -0.5,13.5C 4.83333,9.5 10.1667,5.5 15.5,1.5 Z"/></g>
<g><path style="opacity:0.96" fill="#777777" d="M 15.5,1.5 C 17.3925,2.70166 19.2258,4.03499 21,5.5C 23.0408,4.57692 25.2075,4.24358 27.5,4.5C 26.659,8.57488 27.9924,11.5749 31.5,13.5C 31.5,14.5 31.5,15.5 31.5,16.5C 30.3951,17.6005 29.0618,18.2671 27.5,18.5C 23.8578,15.0134 19.8578,12.0134 15.5,9.5C 15.5,6.83333 15.5,4.16667 15.5,1.5 Z"/></g>
<g><path style="opacity:0.959" fill="#d6d6d6" d="M 15.5,9.5 C 15.5,13.5 15.5,17.5 15.5,21.5C 13.631,23.6353 12.9644,26.3019 13.5,29.5C 10.1667,29.5 6.83333,29.5 3.5,29.5C 3.5,25.8333 3.5,22.1667 3.5,18.5C 7.5,15.5 11.5,12.5 15.5,9.5 Z"/></g>
<g><path style="opacity:0.885" fill="#afafaf" d="M 15.5,9.5 C 19.8578,12.0134 23.8578,15.0134 27.5,18.5C 27.5,22.1667 27.5,25.8333 27.5,29.5C 24.1667,29.5 20.8333,29.5 17.5,29.5C 18.0356,26.3019 17.369,23.6353 15.5,21.5C 15.5,17.5 15.5,13.5 15.5,9.5 Z"/></g>
</svg>
