<?xml version="1.0" encoding="UTF-8"?>
<!DOCTYPE svg PUBLIC "-//W3C//DTD SVG 1.1//EN" "http://www.w3.org/Graphics/SVG/1.1/DTD/svg11.dtd">
<svg xmlns="http://www.w3.org/2000/svg" version="1.1" width="500" height="500px" style="shape-rendering:geometricPrecision; text-rendering:geometricPrecision; image-rendering:optimizeQuality; fill-rule:evenodd; clip-rule:evenodd" xmlns:xlink="http://www.w3.org/1999/xlink">
<g><path style="opacity:0.989" fill="#757575" d="M 246.5,117.5 C 278.432,115.368 300.932,128.701 314,157.5C 323.373,187.86 315.54,212.693 290.5,232C 262.348,247.943 236.015,245.443 211.5,224.5C 191.869,202.406 188.036,177.74 200,150.5C 210.666,132.664 226.166,121.664 246.5,117.5 Z"/></g>
<g><path style="opacity:0.989" fill="#cdcdcd" d="M 137.5,170.5 C 159.014,170.668 173.847,180.668 182,200.5C 187.054,220.564 181.221,236.731 164.5,249C 140.427,261.056 120.593,256.222 105,234.5C 94.4017,211.393 99.235,192.226 119.5,177C 125.301,173.903 131.301,171.736 137.5,170.5 Z"/></g>
<g><path style="opacity:0.997" fill="#a6a6a6" d="M 363.5,171.5 C 387.207,170.424 402.707,181.091 410,203.5C 413.341,228.987 402.841,245.821 378.5,254C 359.773,256.985 344.939,250.818 334,235.5C 322.646,211.908 327.48,192.408 348.5,177C 353.434,174.637 358.434,172.804 363.5,171.5 Z"/></g>
<g><path style="opacity:0.992" fill="#757575" d="M 211.5,245.5 C 219.63,248.936 227.963,252.103 236.5,255C 258.095,259.796 278.429,256.63 297.5,245.5C 318.405,250.075 337.739,258.242 355.5,270C 368.757,279.258 377.257,291.758 381,307.5C 382.582,325.461 382.916,343.461 382,361.5C 380.601,367.9 376.767,372.066 370.5,374C 298.261,398.456 225.594,399.789 152.5,378C 146.264,376.255 140.264,373.922 134.5,371C 131.769,368.374 129.936,365.207 129,361.5C 128.333,345.5 128.333,329.5 129,313.5C 131.159,297.013 138.659,283.513 151.5,273C 169.677,259.743 189.677,250.576 211.5,245.5 Z"/></g>
<g><path style="opacity:0.988" fill="#cdcdcd" d="M 109.5,260.5 C 116.634,263.489 123.967,265.989 131.5,268C 132.167,268.667 132.833,269.333 133.5,270C 123.135,281.901 116.969,295.735 115,311.5C 114.667,326.833 114.333,342.167 114,357.5C 113.261,358.574 112.261,359.241 111,359.5C 92.9902,356.956 75.4902,352.456 58.5,346C 56.9512,344.786 55.7845,343.286 55,341.5C 46.0172,307.337 57.1839,282.837 88.5,268C 95.5713,265.368 102.571,262.868 109.5,260.5 Z"/></g>
<g><path style="opacity:0.996" fill="#a6a6a6" d="M 397.5,261.5 C 415.467,264.403 431.3,271.736 445,283.5C 454.657,295.036 458.491,308.369 456.5,323.5C 456.333,328.833 456.167,334.167 456,339.5C 455.654,341.848 454.487,343.681 452.5,345C 434.83,352.167 416.497,356.667 397.5,358.5C 397.667,343.496 397.5,328.496 397,313.5C 395.649,297.43 389.649,283.43 379,271.5C 378.517,270.552 378.351,269.552 378.5,268.5C 385.587,267.919 391.92,265.585 397.5,261.5 Z"/></g>
</svg>
