<?xml version="1.0" encoding="UTF-8"?>
<!DOCTYPE svg PUBLIC "-//W3C//DTD SVG 1.1//EN" "http://www.w3.org/Graphics/SVG/1.1/DTD/svg11.dtd">
<svg xmlns="http://www.w3.org/2000/svg" version="1.1" width="1280px" height="1280px" style="shape-rendering:geometricPrecision; text-rendering:geometricPrecision; image-rendering:optimizeQuality; fill-rule:evenodd; clip-rule:evenodd" xmlns:xlink="http://www.w3.org/1999/xlink">
<g><path style="opacity:0.957" fill="#7b7b7b" d="M 295.5,-0.5 C 560.5,-0.5 825.5,-0.5 1090.5,-0.5C 1095.65,0.107757 1100.65,1.44109 1105.5,3.5C 1105.5,4.83333 1106.17,5.5 1107.5,5.5C 1117.41,8.71426 1126.41,13.7143 1134.5,20.5C 1135.39,21.325 1135.72,22.325 1135.5,23.5C 1142.81,26.1482 1147.81,31.1482 1150.5,38.5C 1152.59,38.5614 1154.09,39.5614 1155,41.5C 1156.29,43.9588 1157.79,46.2921 1159.5,48.5C 1160.45,50.0453 1160.79,51.712 1160.5,53.5C 1161.5,53.5 1162.5,53.5 1163.5,53.5C 1166.88,62.2948 1170.04,71.2948 1173,80.5C 1173.06,85.0176 1173.73,89.3509 1175,93.5C 1175.67,457.5 1175.67,821.5 1175,1185.5C 1173.73,1189.99 1173.06,1194.65 1173,1199.5C 1172.59,1199.96 1172.09,1200.29 1171.5,1200.5C 1169.78,1209.32 1167.11,1217.65 1163.5,1225.5C 1162.5,1225.5 1161.5,1225.5 1160.5,1225.5C 1160.79,1227.29 1160.45,1228.95 1159.5,1230.5C 1157.79,1232.71 1156.29,1235.04 1155,1237.5C 1154.09,1239.44 1152.59,1240.44 1150.5,1240.5C 1147.81,1247.85 1142.81,1252.85 1135.5,1255.5C 1135.72,1256.68 1135.39,1257.68 1134.5,1258.5C 1128.91,1262.31 1123.24,1266.14 1117.5,1270C 1111.03,1272.3 1104.69,1274.96 1098.5,1278C 1095.64,1278.18 1092.97,1278.68 1090.5,1279.5C 825.5,1279.5 560.5,1279.5 295.5,1279.5C 288.531,1277.23 281.197,1275.23 273.5,1273.5C 273.5,1272.5 273.5,1271.5 273.5,1270.5C 270.167,1269.83 266.833,1269.17 263.5,1268.5C 263.5,1267.5 263.5,1266.5 263.5,1265.5C 259.287,1265.06 255.954,1263.06 253.5,1259.5C 252.271,1258.72 250.938,1258.22 249.5,1258C 248.252,1256.04 246.585,1254.54 244.5,1253.5C 243.614,1252.68 243.281,1251.68 243.5,1250.5C 242.325,1250.72 241.325,1250.39 240.5,1249.5C 239.459,1247.41 237.959,1245.75 236,1244.5C 234.331,1242.83 233.498,1240.83 233.5,1238.5C 232.5,1238.5 231.5,1238.5 230.5,1238.5C 229.36,1235.98 228.693,1233.31 228.5,1230.5C 227.325,1230.72 226.325,1230.39 225.5,1229.5C 221.188,1223.93 218.855,1217.6 218.5,1210.5C 217.5,1210.5 216.5,1210.5 215.5,1210.5C 214.051,1204.69 213.384,1198.69 213.5,1192.5C 213.167,1191.5 212.5,1190.83 211.5,1190.5C 210.501,1150 210.168,1109.34 210.5,1068.5C 181.492,1068.83 152.492,1068.5 123.5,1067.5C 122.15,1066.05 120.484,1065.38 118.5,1065.5C 118.167,1064.5 117.5,1063.83 116.5,1063.5C 115.5,1063.5 114.5,1063.5 113.5,1063.5C 113.5,1062.5 113.5,1061.5 113.5,1060.5C 112.325,1060.72 111.325,1060.39 110.5,1059.5C 104.778,1051.91 102.445,1043.24 103.5,1033.5C 104.833,1033.5 105.5,1032.83 105.5,1031.5C 105.34,1029.8 105.506,1028.13 106,1026.5C 107.755,1025.33 108.755,1023.66 109,1021.5C 109.908,1019.56 111.408,1018.56 113.5,1018.5C 113.5,1017.5 113.5,1016.5 113.5,1015.5C 114.5,1015.5 115.5,1015.5 116.5,1015.5C 117.5,1015.17 118.167,1014.5 118.5,1013.5C 120.665,1013.88 122.332,1013.22 123.5,1011.5C 152.492,1010.5 181.492,1010.17 210.5,1010.5C 210.5,982.167 210.5,953.833 210.5,925.5C 179.77,926.055 149.103,925.389 118.5,923.5C 118.5,922.5 118.5,921.5 118.5,920.5C 114.497,920.029 111.331,918.029 109,914.5C 108.51,913.207 108.343,911.873 108.5,910.5C 107.5,910.5 106.5,910.5 105.5,910.5C 104.793,905.695 104.126,900.862 103.5,896C 103.833,893.5 104.167,891 104.5,888.5C 106.078,883.937 108.078,879.604 110.5,875.5C 113.832,873.503 117.165,871.503 120.5,869.5C 150.493,868.5 180.493,868.167 210.5,868.5C 210.5,837.5 210.5,806.5 210.5,775.5C 179.77,776.055 149.103,775.389 118.5,773.5C 118.5,772.5 118.5,771.5 118.5,770.5C 114.497,770.029 111.331,768.029 109,764.5C 108.51,763.207 108.343,761.873 108.5,760.5C 107.5,760.5 106.5,760.5 105.5,760.5C 104.793,755.695 104.126,750.862 103.5,746C 103.833,743.5 104.167,741 104.5,738.5C 106.078,733.937 108.078,729.604 110.5,725.5C 113.832,723.503 117.165,721.503 120.5,719.5C 150.493,718.5 180.493,718.167 210.5,718.5C 210.5,676.833 210.5,635.167 210.5,593.5C 210.5,591.833 210.5,590.167 210.5,588.5C 210.5,556.5 210.5,524.5 210.5,492.5C 210.5,491.167 210.5,489.833 210.5,488.5C 210.5,446.833 210.5,405.167 210.5,363.5C 182.498,363.667 154.498,363.5 126.5,363C 122.85,361.125 119.184,359.291 115.5,357.5C 115.5,356.167 114.833,355.5 113.5,355.5C 111.5,355.5 110.5,354.5 110.5,352.5C 110.5,351.167 109.833,350.5 108.5,350.5C 102.855,340.599 102.189,330.266 106.5,319.5C 107.833,317.833 109.167,316.167 110.5,314.5C 111.325,313.614 112.325,313.281 113.5,313.5C 113.48,311.857 114.147,310.524 115.5,309.5C 117.911,308.912 119.911,307.745 121.5,306C 151.165,305.5 180.831,305.333 210.5,305.5C 210.5,275.5 210.5,245.5 210.5,215.5C 179.77,216.055 149.103,215.389 118.5,213.5C 118.5,212.5 118.5,211.5 118.5,210.5C 114.497,210.029 111.331,208.029 109,204.5C 108.51,203.207 108.343,201.873 108.5,200.5C 107.5,200.5 106.5,200.5 105.5,200.5C 104.793,195.695 104.126,190.862 103.5,186C 103.833,183.5 104.167,181 104.5,178.5C 106.078,173.937 108.078,169.604 110.5,165.5C 113.832,163.503 117.165,161.503 120.5,159.5C 150.493,158.5 180.493,158.167 210.5,158.5C 210.333,135.164 210.5,111.831 211,88.5C 212.838,84.2996 214.171,79.9662 215,75.5C 215.497,73.1902 215.663,70.8568 215.5,68.5C 216.5,68.5 217.5,68.5 218.5,68.5C 218.529,59.9998 221.696,52.9998 228,47.5C 228.856,45.1316 229.69,42.7983 230.5,40.5C 231.5,40.5 232.5,40.5 233.5,40.5C 233.498,38.1691 234.331,36.1691 236,34.5C 237.959,33.2519 239.459,31.5852 240.5,29.5C 241.325,28.6143 242.325,28.281 243.5,28.5C 243.281,27.325 243.614,26.325 244.5,25.5C 249.819,22.1634 254.819,18.3301 259.5,14C 260.793,13.51 262.127,13.3433 263.5,13.5C 263.5,12.5 263.5,11.5 263.5,10.5C 266.833,9.83333 270.167,9.16667 273.5,8.5C 273.5,7.5 273.5,6.5 273.5,5.5C 281.197,3.77355 288.531,1.77355 295.5,-0.5 Z M 743.5,405.5 C 743.5,406.833 744.167,407.5 745.5,407.5C 745.34,409.199 745.506,410.866 746,412.5C 747.745,414.089 748.912,416.089 749.5,418.5C 750.524,419.853 751.857,420.52 753.5,420.5C 753.5,421.5 753.5,422.5 753.5,423.5C 756.073,424.493 758.74,425.326 761.5,426C 762.167,426.667 762.833,427.333 763.5,428C 769.833,428.667 776.167,428.667 782.5,428C 814.883,411.498 847.216,395.331 879.5,379.5C 912.015,395.22 944.349,411.387 976.5,428C 982.833,428.667 989.167,428.667 995.5,428C 996.167,427.333 996.833,426.667 997.5,426C 1000.26,425.326 1002.93,424.493 1005.5,423.5C 1005.5,422.5 1005.5,421.5 1005.5,420.5C 1007.14,420.52 1008.48,419.853 1009.5,418.5C 1010.09,416.089 1011.25,414.089 1013,412.5C 1013.49,410.866 1013.66,409.199 1013.5,407.5C 1014.83,407.5 1015.5,406.833 1015.5,405.5C 1015.5,288.833 1015.5,172.167 1015.5,55.5C 1036.5,55.5 1057.5,55.5 1078.5,55.5C 1078.5,56.5 1078.5,57.5 1078.5,58.5C 1080.92,58.1924 1083.26,58.5258 1085.5,59.5C 1088.5,60.4241 1091.17,61.7574 1093.5,63.5C 1093.5,64.8333 1094.17,65.5 1095.5,65.5C 1096.5,65.5 1097.5,65.5 1098.5,65.5C 1098.83,68.5 1100.5,70.1667 1103.5,70.5C 1103.72,72.6636 1104.72,74.3303 1106.5,75.5C 1106.5,76.8333 1107.17,77.5 1108.5,77.5C 1109.76,82.216 1111.76,86.5493 1114.5,90.5C 1115.33,95.1315 1115.83,99.7982 1116,104.5C 1116.67,105.167 1117.33,105.833 1118,106.5C 1118.67,461.833 1118.67,817.167 1118,1172.5C 1117.33,1173.17 1116.67,1173.83 1116,1174.5C 1115.67,1178.83 1115.33,1183.17 1115,1187.5C 1111.71,1194.74 1107.88,1201.74 1103.5,1208.5C 1100.5,1208.83 1098.83,1210.5 1098.5,1213.5C 1096.71,1213.21 1095.05,1213.55 1093.5,1214.5C 1089.39,1218.54 1084.39,1220.54 1078.5,1220.5C 1078.5,1221.5 1078.5,1222.5 1078.5,1223.5C 821.833,1223.67 565.166,1223.5 308.5,1223C 307.833,1222.33 307.167,1221.67 306.5,1221C 302.832,1220.05 299.165,1219.22 295.5,1218.5C 295.5,1217.5 295.5,1216.5 295.5,1215.5C 293.712,1215.79 292.045,1215.45 290.5,1214.5C 286.088,1210.43 282.088,1206.09 278.5,1201.5C 278.027,1200.09 277.027,1199.43 275.5,1199.5C 273.389,1193.08 271.222,1186.75 269,1180.5C 268.5,1143.17 268.333,1105.83 268.5,1068.5C 285.167,1068.5 301.833,1068.5 318.5,1068.5C 317.658,1078.28 319.658,1087.28 324.5,1095.5C 335.684,1113.31 351.85,1121.65 373,1120.5C 378.833,1120.17 384.667,1119.83 390.5,1119.5C 395.169,1116.72 400.169,1114.72 405.5,1113.5C 405.5,1112.5 405.5,1111.5 405.5,1110.5C 406.675,1110.72 407.675,1110.39 408.5,1109.5C 410.167,1107.17 412.167,1105.17 414.5,1103.5C 415.386,1102.68 415.719,1101.68 415.5,1100.5C 416.675,1100.72 417.675,1100.39 418.5,1099.5C 422.51,1093.87 425.177,1087.54 426.5,1080.5C 427.086,1080.29 427.586,1079.96 428,1079.5C 432.328,1051.69 422.828,1030.52 399.5,1016C 394.681,1014.63 390.015,1012.97 385.5,1011C 346.501,1010.5 307.501,1010.33 268.5,1010.5C 268.5,982.167 268.5,953.833 268.5,925.5C 285.167,925.5 301.833,925.5 318.5,925.5C 317.991,932.536 318.991,939.202 321.5,945.5C 321.833,946.5 322.5,947.167 323.5,947.5C 324.639,950.004 325.306,952.67 325.5,955.5C 326.5,955.5 327.5,955.5 328.5,955.5C 328.281,956.675 328.614,957.675 329.5,958.5C 331.833,960.167 333.833,962.167 335.5,964.5C 336.325,965.386 337.325,965.719 338.5,965.5C 338.281,966.675 338.614,967.675 339.5,968.5C 345.13,972.51 351.463,975.177 358.5,976.5C 358.709,977.086 359.043,977.586 359.5,978C 367.827,978.5 376.16,978.666 384.5,978.5C 386.23,977.974 387.564,976.974 388.5,975.5C 390.924,975.808 393.257,975.474 395.5,974.5C 398.457,973.493 401.124,972.159 403.5,970.5C 404.872,969.488 406.205,968.488 407.5,967.5C 429.731,947.846 434.898,924.18 423,896.5C 421.069,894.47 419.569,892.137 418.5,889.5C 417.675,888.614 416.675,888.281 415.5,888.5C 415.719,887.325 415.386,886.325 414.5,885.5C 412.167,883.833 410.167,881.833 408.5,879.5C 407.675,878.614 406.675,878.281 405.5,878.5C 405.5,877.5 405.5,876.5 405.5,875.5C 404.127,875.657 402.793,875.49 401.5,875C 398.175,872.514 394.508,870.68 390.5,869.5C 349.839,868.5 309.172,868.167 268.5,868.5C 268.5,837.5 268.5,806.5 268.5,775.5C 285.167,775.5 301.833,775.5 318.5,775.5C 317.991,782.536 318.991,789.202 321.5,795.5C 321.833,796.5 322.5,797.167 323.5,797.5C 324.639,800.004 325.306,802.67 325.5,805.5C 326.5,805.5 327.5,805.5 328.5,805.5C 328.281,806.675 328.614,807.675 329.5,808.5C 331.833,810.167 333.833,812.167 335.5,814.5C 336.325,815.386 337.325,815.719 338.5,815.5C 338.281,816.675 338.614,817.675 339.5,818.5C 345.13,822.51 351.463,825.177 358.5,826.5C 358.709,827.086 359.043,827.586 359.5,828C 367.827,828.5 376.16,828.666 384.5,828.5C 386.23,827.974 387.564,826.974 388.5,825.5C 390.924,825.808 393.257,825.474 395.5,824.5C 398.457,823.493 401.124,822.159 403.5,820.5C 404.872,819.488 406.205,818.488 407.5,817.5C 429.731,797.846 434.898,774.18 423,746.5C 421.069,744.47 419.569,742.137 418.5,739.5C 417.675,738.614 416.675,738.281 415.5,738.5C 415.719,737.325 415.386,736.325 414.5,735.5C 412.167,733.833 410.167,731.833 408.5,729.5C 407.675,728.614 406.675,728.281 405.5,728.5C 405.5,727.5 405.5,726.5 405.5,725.5C 404.127,725.657 402.793,725.49 401.5,725C 398.175,722.514 394.508,720.68 390.5,719.5C 349.839,718.5 309.172,718.167 268.5,718.5C 268.5,693.5 268.5,668.5 268.5,643.5C 269.117,643.389 269.617,643.056 270,642.5C 270.5,636.175 270.666,629.842 270.5,623.5C 270.5,622.167 269.833,621.5 268.5,621.5C 268.5,583.5 268.5,545.5 268.5,507.5C 269.117,507.389 269.617,507.056 270,506.5C 270.499,502.848 270.665,499.182 270.5,495.5C 270.5,491.167 270.5,486.833 270.5,482.5C 268.746,442.984 268.08,403.317 268.5,363.5C 285.167,363.5 301.833,363.5 318.5,363.5C 318.084,370.052 318.75,376.385 320.5,382.5C 320.973,383.906 321.973,384.573 323.5,384.5C 324.182,388.947 326.182,392.613 329.5,395.5C 330.386,396.325 330.719,397.325 330.5,398.5C 333.5,398.833 335.167,400.5 335.5,403.5C 340.547,406.957 345.881,410.124 351.5,413C 362.721,415.146 374.054,415.979 385.5,415.5C 386.833,415.5 387.5,414.833 387.5,413.5C 395.705,412.216 403.038,408.882 409.5,403.5C 410.386,402.675 410.719,401.675 410.5,400.5C 412.143,400.52 413.476,399.853 414.5,398.5C 417.338,394.818 420.171,391.152 423,387.5C 424.512,383.629 425.345,379.629 425.5,375.5C 427.969,374.393 428.969,372.393 428.5,369.5C 428.666,362.159 428.5,354.826 428,347.5C 427.333,346.833 426.667,346.167 426,345.5C 425.202,341.465 424.369,337.465 423.5,333.5C 422.5,333.5 421.5,333.5 420.5,333.5C 420.207,329.194 418.207,325.86 414.5,323.5C 413.614,322.675 413.281,321.675 413.5,320.5C 410.5,320.167 408.833,318.5 408.5,315.5C 402.322,312.11 395.989,308.943 389.5,306C 349.168,305.5 308.835,305.333 268.5,305.5C 268.5,275.5 268.5,245.5 268.5,215.5C 285.167,215.5 301.833,215.5 318.5,215.5C 318.173,220.544 318.506,225.544 319.5,230.5C 322.28,235.169 324.28,240.169 325.5,245.5C 326.5,245.5 327.5,245.5 328.5,245.5C 328.281,246.675 328.614,247.675 329.5,248.5C 331.833,250.167 333.833,252.167 335.5,254.5C 336.325,255.386 337.325,255.719 338.5,255.5C 338.281,256.675 338.614,257.675 339.5,258.5C 345.13,262.51 351.463,265.177 358.5,266.5C 358.709,267.086 359.043,267.586 359.5,268C 368.167,268.667 376.833,268.667 385.5,268C 390.015,266.034 394.681,264.367 399.5,263C 400.887,261.317 402.553,260.15 404.5,259.5C 405.71,259.068 406.71,258.401 407.5,257.5C 429.731,237.846 434.898,214.18 423,186.5C 421.069,184.47 419.569,182.137 418.5,179.5C 417.675,178.614 416.675,178.281 415.5,178.5C 415.719,177.325 415.386,176.325 414.5,175.5C 412.167,173.833 410.167,171.833 408.5,169.5C 407.675,168.614 406.675,168.281 405.5,168.5C 405.5,167.5 405.5,166.5 405.5,165.5C 404.127,165.657 402.793,165.49 401.5,165C 398.175,162.514 394.508,160.68 390.5,159.5C 349.839,158.5 309.172,158.167 268.5,158.5C 268.333,138.497 268.5,118.497 269,98.5C 270.232,95.6996 270.899,92.6996 271,89.5C 273.585,84.6597 276.418,79.9931 279.5,75.5C 283.167,71.8333 286.833,68.1667 290.5,64.5C 292.045,63.5481 293.712,63.2148 295.5,63.5C 295.5,62.5 295.5,61.5 295.5,60.5C 299.165,59.781 302.832,58.9476 306.5,58C 307.167,57.3333 307.833,56.6667 308.5,56C 453.5,55.5 598.5,55.3333 743.5,55.5C 743.5,172.167 743.5,288.833 743.5,405.5 Z"/></g>
<g><path style="opacity:0.007" fill="#000000" d="M 1105.5,3.5 C 1106.5,3.83333 1107.17,4.5 1107.5,5.5C 1106.17,5.5 1105.5,4.83333 1105.5,3.5 Z"/></g>
<g><path style="opacity:0.007" fill="#000000" d="M 1093.5,63.5 C 1094.5,63.8333 1095.17,64.5 1095.5,65.5C 1094.17,65.5 1093.5,64.8333 1093.5,63.5 Z"/></g>
<g><path style="opacity:0.007" fill="#0e0e0e" d="M 1106.5,75.5 C 1107.83,75.5 1108.5,76.1667 1108.5,77.5C 1108.5,76.1667 1107.83,75.5 1106.5,75.5 Z"/></g>
<g><path style="opacity:0.012" fill="#373737" d="M 407.5,257.5 C 406.71,258.401 405.71,259.068 404.5,259.5C 404.821,257.952 405.821,257.285 407.5,257.5 Z"/></g>
<g><path style="opacity:0.016" fill="#222222" d="M 108.5,350.5 C 109.833,350.5 110.5,351.167 110.5,352.5C 109.5,352.167 108.833,351.5 108.5,350.5 Z"/></g>
<g><path style="opacity:0.016" fill="#222222" d="M 113.5,355.5 C 114.833,355.5 115.5,356.167 115.5,357.5C 114.5,357.167 113.833,356.5 113.5,355.5 Z"/></g>
<g><path style="opacity:0.033" fill="#414141" d="M 428.5,369.5 C 428.969,372.393 427.969,374.393 425.5,375.5C 426.029,373.216 427.029,371.216 428.5,369.5 Z"/></g>
<g><path style="opacity:0.008" fill="#171717" d="M 320.5,382.5 C 322.027,382.427 323.027,383.094 323.5,384.5C 321.973,384.573 320.973,383.906 320.5,382.5 Z"/></g>
<g><path style="opacity:0.018" fill="#393939" d="M 743.5,405.5 C 744.833,405.5 745.5,406.167 745.5,407.5C 745.5,406.167 744.833,405.5 743.5,405.5 Z"/></g>
<g><path style="opacity:0.005" fill="#000000" d="M 1015.5,405.5 C 1015.5,406.833 1014.83,407.5 1013.5,407.5C 1013.83,406.5 1014.5,405.833 1015.5,405.5 Z"/></g>
<g><path style="opacity:0.005" fill="#000000" d="M 387.5,413.5 C 387.5,414.833 386.833,415.5 385.5,415.5C 385.833,414.5 386.5,413.833 387.5,413.5 Z"/></g>
<g><path style="opacity:0.031" fill="#5b5b5b" d="M 270.5,482.5 C 270.5,486.833 270.5,491.167 270.5,495.5C 270.167,495.5 269.833,495.5 269.5,495.5C 268.839,493.866 268.506,492.033 268.5,490C 268.3,487.134 268.967,484.634 270.5,482.5 Z"/></g>
<g><path style="opacity:0.012" fill="#252525" d="M 210.5,488.5 C 210.5,489.833 210.5,491.167 210.5,492.5C 207.833,491.167 207.833,489.833 210.5,488.5 Z"/></g>
<g><path style="opacity:0.027" fill="#2e2e2e" d="M 269.5,495.5 C 269.833,495.5 270.167,495.5 270.5,495.5C 270.665,499.182 270.499,502.848 270,506.5C 269.617,507.056 269.117,507.389 268.5,507.5C 268.237,503.4 268.57,499.4 269.5,495.5 Z"/></g>
<g><path style="opacity:0.006" fill="#111111" d="M 210.5,588.5 C 210.5,590.167 210.5,591.833 210.5,593.5C 207.833,591.833 207.833,590.167 210.5,588.5 Z"/></g>
<g><path style="opacity:0.005" fill="#0e0e0e" d="M 268.5,621.5 C 269.833,621.5 270.5,622.167 270.5,623.5C 269.833,623.5 269.167,623.5 268.5,623.5C 268.5,622.833 268.5,622.167 268.5,621.5 Z"/></g>
<g><path style="opacity:0.185" fill="#656565" d="M 268.5,623.5 C 269.167,623.5 269.833,623.5 270.5,623.5C 270.666,629.842 270.5,636.175 270,642.5C 269.617,643.056 269.117,643.389 268.5,643.5C 267.733,642.828 267.066,641.995 266.5,641C 267.232,635.201 267.899,629.368 268.5,623.5 Z"/></g>
<g><path style="opacity:0.016" fill="#222222" d="M 321.5,795.5 C 322.833,795.5 323.5,796.167 323.5,797.5C 322.5,797.167 321.833,796.5 321.5,795.5 Z"/></g>
<g><path style="opacity:0.094" fill="#494949" d="M 407.5,817.5 C 406.205,818.488 404.872,819.488 403.5,820.5C 403.196,819.85 402.863,819.183 402.5,818.5C 404.045,817.548 405.712,817.215 407.5,817.5 Z"/></g>
<g><path style="opacity:0.072" fill="#494949" d="M 388.5,825.5 C 387.564,826.974 386.23,827.974 384.5,828.5C 383.402,827.603 383.402,826.77 384.5,826C 385.793,825.51 387.127,825.343 388.5,825.5 Z"/></g>
<g><path style="opacity:0.016" fill="#222222" d="M 321.5,945.5 C 322.833,945.5 323.5,946.167 323.5,947.5C 322.5,947.167 321.833,946.5 321.5,945.5 Z"/></g>
<g><path style="opacity:0.094" fill="#494949" d="M 407.5,967.5 C 406.205,968.488 404.872,969.488 403.5,970.5C 403.196,969.85 402.863,969.183 402.5,968.5C 404.045,967.548 405.712,967.215 407.5,967.5 Z"/></g>
<g><path style="opacity:0.072" fill="#494949" d="M 388.5,975.5 C 387.564,976.974 386.23,977.974 384.5,978.5C 383.402,977.603 383.402,976.77 384.5,976C 385.793,975.51 387.127,975.343 388.5,975.5 Z"/></g>
<g><path style="opacity:0.005" fill="#000000" d="M 118.5,1013.5 C 118.167,1014.5 117.5,1015.17 116.5,1015.5C 116.5,1014.17 117.167,1013.5 118.5,1013.5 Z"/></g>
<g><path style="opacity:0.018" fill="#393939" d="M 105.5,1031.5 C 105.5,1032.83 104.833,1033.5 103.5,1033.5C 103.5,1032.17 104.167,1031.5 105.5,1031.5 Z"/></g>
<g><path style="opacity:0.005" fill="#000000" d="M 116.5,1063.5 C 117.5,1063.83 118.167,1064.5 118.5,1065.5C 117.167,1065.5 116.5,1064.83 116.5,1063.5 Z"/></g>
<g><path style="opacity:0.007" fill="#000000" d="M 211.5,1190.5 C 212.5,1190.83 213.167,1191.5 213.5,1192.5C 212.167,1192.5 211.5,1191.83 211.5,1190.5 Z"/></g>
<g><path style="opacity:0.041" fill="#3a3a3a" d="M 275.5,1199.5 C 277.027,1199.43 278.027,1200.09 278.5,1201.5C 276.821,1201.71 275.821,1201.05 275.5,1199.5 Z"/></g>
</svg>
