<?xml version="1.0" encoding="UTF-8"?>
<!DOCTYPE svg PUBLIC "-//W3C//DTD SVG 1.1//EN" "http://www.w3.org/Graphics/SVG/1.1/DTD/svg11.dtd">
<svg xmlns="http://www.w3.org/2000/svg" version="1.1" width="1280px" height="1280px" style="shape-rendering:geometricPrecision; text-rendering:geometricPrecision; image-rendering:optimizeQuality; fill-rule:evenodd; clip-rule:evenodd" xmlns:xlink="http://www.w3.org/1999/xlink">
<g><path style="opacity:0.912" fill="#7a7a7a" d="M 610.5,592.5 C 608.787,593.635 608.12,595.302 608.5,597.5C 608.97,600.346 608.137,602.679 606,604.5C 605.23,609.256 603.563,613.589 601,617.5C 600,621.167 599,624.833 598,628.5C 597.333,629.167 596.667,629.833 596,630.5C 591.659,643.519 586.659,656.185 581,668.5C 579.797,672.11 578.797,675.776 578,679.5C 575.285,683.981 572.951,688.648 571,693.5C 569.47,699.386 567.636,705.053 565.5,710.5C 564.167,710.5 563.5,711.167 563.5,712.5C 561.255,718.248 559.589,724.248 558.5,730.5C 557.5,730.5 556.5,730.5 555.5,730.5C 555.5,732.167 555.5,733.833 555.5,735.5C 554.5,735.833 553.833,736.5 553.5,737.5C 552.846,741.298 551.846,744.964 550.5,748.5C 549.5,748.833 548.833,749.5 548.5,750.5C 548.5,752.167 548.5,753.833 548.5,755.5C 547.5,755.5 546.5,755.5 545.5,755.5C 543.54,763.961 541.207,772.295 538.5,780.5C 537.5,780.5 536.5,780.5 535.5,780.5C 535.717,785.759 534.217,790.426 531,794.5C 525.917,810.758 520.084,826.758 513.5,842.5C 511.952,842.821 511.285,843.821 511.5,845.5C 508.537,853.354 505.704,861.354 503,869.5C 500.285,873.981 497.951,878.648 496,883.5C 494.714,890.075 492.381,896.075 489,901.5C 488.667,903.5 488.333,905.5 488,907.5C 486.129,909.505 484.795,911.839 484,914.5C 483.505,916.473 483.338,918.473 483.5,920.5C 482.5,920.5 481.5,920.5 480.5,920.5C 480.662,922.527 480.495,924.527 480,926.5C 478.176,930.932 476.342,935.265 474.5,939.5C 472.972,941.279 471.638,943.279 470.5,945.5C 468.54,953.961 466.207,962.295 463.5,970.5C 462.5,970.5 461.5,970.5 460.5,970.5C 461.047,975.544 459.713,979.877 456.5,983.5C 453.56,992.018 450.56,1000.35 447.5,1008.5C 446.167,1008.5 445.5,1009.17 445.5,1010.5C 445.055,1014.09 444.055,1017.42 442.5,1020.5C 441.5,1020.83 440.833,1021.5 440.5,1022.5C 440.329,1027.83 438.329,1032.17 434.5,1035.5C 432.952,1035.82 432.285,1036.82 432.5,1038.5C 425.679,1040.67 418.679,1041 411.5,1039.5C 402.362,1035.34 393.029,1031.67 383.5,1028.5C 383.5,1027.5 383.5,1026.5 383.5,1025.5C 380.167,1024.83 376.833,1024.17 373.5,1023.5C 373.5,1022.5 373.5,1021.5 373.5,1020.5C 370.167,1019.83 366.833,1019.17 363.5,1018.5C 363.5,1017.5 363.5,1016.5 363.5,1015.5C 360.368,1015.22 357.368,1014.38 354.5,1013C 336.522,1001.63 318.522,990.128 300.5,978.5C 300.715,976.821 300.048,975.821 298.5,975.5C 298.167,974.5 297.5,973.833 296.5,973.5C 295.5,973.5 294.5,973.5 293.5,973.5C 293.5,972.5 293.5,971.5 293.5,970.5C 287.06,967.096 281.06,963.096 275.5,958.5C 275.719,957.325 275.386,956.325 274.5,955.5C 269.146,952.134 264.479,948.134 260.5,943.5C 259.7,939.699 257.367,937.699 253.5,937.5C 251.091,935.748 249.424,933.415 248.5,930.5C 245.5,930.167 243.833,928.5 243.5,925.5C 240.5,925.167 238.833,923.5 238.5,920.5C 237.325,920.719 236.325,920.386 235.5,919.5C 233.523,916.688 231.356,914.022 229,911.5C 228.517,910.552 228.351,909.552 228.5,908.5C 227.5,908.5 226.5,908.5 225.5,908.5C 225.719,907.325 225.386,906.325 224.5,905.5C 219.59,901.319 215.923,896.319 213.5,890.5C 211.857,890.52 210.524,889.853 209.5,888.5C 206.965,885.419 204.965,882.086 203.5,878.5C 203.027,877.094 202.027,876.427 200.5,876.5C 198.919,874.858 198.253,872.858 198.5,870.5C 194.963,869.614 193.296,867.281 193.5,863.5C 192.5,863.5 191.5,863.5 190.5,863.5C 189.36,860.975 188.693,858.308 188.5,855.5C 186.408,855.439 184.908,854.439 184,852.5C 181.584,847.999 178.917,843.666 176,839.5C 175.144,837.132 174.31,834.798 173.5,832.5C 173.5,831.167 172.833,830.5 171.5,830.5C 169.927,827.698 168.094,825.031 166,822.5C 164.617,819.632 163.784,816.632 163.5,813.5C 163.027,812.094 162.027,811.427 160.5,811.5C 157.335,804.863 154.169,798.197 151,791.5C 149.314,788.019 148.481,784.352 148.5,780.5C 147.5,780.5 146.5,780.5 145.5,780.5C 144.977,775.738 143.477,771.404 141,767.5C 137.113,758.895 134.28,749.895 132.5,740.5C 131.914,740.291 131.414,739.957 131,739.5C 129.619,730.752 127.286,722.419 124,714.5C 123.667,711.5 123.333,708.5 123,705.5C 122.333,704.833 121.667,704.167 121,703.5C 119.451,695.984 118.284,688.318 117.5,680.5C 116.914,680.291 116.414,679.957 116,679.5C 114.653,668.533 113.653,657.533 113,646.5C 112.333,645.833 111.667,645.167 111,644.5C 110.977,633.675 110.31,623.008 109,612.5C 108.333,599.5 108.333,586.5 109,573.5C 110.29,562.263 110.957,550.93 111,539.5C 111.667,538.833 112.333,538.167 113,537.5C 113.653,526.467 114.653,515.467 116,504.5C 116.414,504.043 116.914,503.709 117.5,503.5C 118.393,496.044 119.393,488.71 120.5,481.5C 122.027,481.573 123.027,480.906 123.5,479.5C 123.534,473.395 124.367,467.395 126,461.5C 126.414,461.043 126.914,460.709 127.5,460.5C 128.703,455.169 129.87,449.836 131,444.5C 131.414,444.043 131.914,443.709 132.5,443.5C 133.472,438.732 134.639,434.065 136,429.5C 138.125,424.81 140.292,420.143 142.5,415.5C 143.777,411.536 144.777,407.536 145.5,403.5C 146.5,403.5 147.5,403.5 148.5,403.5C 149.028,399.788 149.862,396.121 151,392.5C 157.131,381.235 162.964,369.902 168.5,358.5C 169.5,358.167 170.167,357.5 170.5,356.5C 170.5,355.5 170.5,354.5 170.5,353.5C 171.5,353.5 172.5,353.5 173.5,353.5C 173.784,350.368 174.617,347.368 176,344.5C 179.448,339.305 182.615,333.972 185.5,328.5C 186.5,328.5 187.5,328.5 188.5,328.5C 188.285,325.034 189.618,322.367 192.5,320.5C 193.799,318.242 194.799,315.908 195.5,313.5C 196.5,313.5 197.5,313.5 198.5,313.5C 199.049,311.099 199.882,308.765 201,306.5C 204.429,302.752 207.595,298.752 210.5,294.5C 211.325,293.614 212.325,293.281 213.5,293.5C 215.928,287.666 219.595,282.666 224.5,278.5C 225.386,277.675 225.719,276.675 225.5,275.5C 229.397,272.592 232.73,268.925 235.5,264.5C 236.325,263.614 237.325,263.281 238.5,263.5C 238.833,260.5 240.5,258.833 243.5,258.5C 243.833,255.5 245.5,253.833 248.5,253.5C 248.833,250.5 250.5,248.833 253.5,248.5C 253.833,245.5 255.5,243.833 258.5,243.5C 258.833,240.5 260.5,238.833 263.5,238.5C 263.281,237.325 263.614,236.325 264.5,235.5C 267.312,233.523 269.978,231.356 272.5,229C 273.448,228.517 274.448,228.351 275.5,228.5C 275.5,227.5 275.5,226.5 275.5,225.5C 276.675,225.719 277.675,225.386 278.5,224.5C 282.666,219.595 287.666,215.928 293.5,213.5C 293.281,212.325 293.614,211.325 294.5,210.5C 298.752,207.595 302.752,204.429 306.5,201C 308.765,199.882 311.099,199.049 313.5,198.5C 313.5,197.5 313.5,196.5 313.5,195.5C 317.456,194.523 320.789,192.523 323.5,189.5C 325.045,188.548 326.712,188.215 328.5,188.5C 328.5,187.5 328.5,186.5 328.5,185.5C 333.972,182.615 339.305,179.448 344.5,176C 347.368,174.617 350.368,173.784 353.5,173.5C 353.5,172.5 353.5,171.5 353.5,170.5C 366.34,163.856 379.34,157.356 392.5,151C 396.121,149.862 399.788,149.028 403.5,148.5C 403.5,147.5 403.5,146.5 403.5,145.5C 408.262,144.977 412.596,143.477 416.5,141C 425.105,137.113 434.105,134.28 443.5,132.5C 443.709,131.914 444.043,131.414 444.5,131C 449.836,129.87 455.169,128.703 460.5,127.5C 460.709,126.914 461.043,126.414 461.5,126C 467.395,124.367 473.395,123.534 479.5,123.5C 480.906,123.027 481.573,122.027 481.5,120.5C 488.71,119.393 496.044,118.393 503.5,117.5C 503.709,116.914 504.043,116.414 504.5,116C 515.467,114.653 526.467,113.653 537.5,113C 538.167,112.333 538.833,111.667 539.5,111C 554.532,110.733 569.532,109.9 584.5,108.5C 590.422,108.185 596.088,109.018 601.5,111C 605.98,114.13 608.814,118.297 610,123.5C 610.5,279.833 610.667,436.166 610.5,592.5 Z M 568.5,601.5 C 567.167,601.5 566.5,602.167 566.5,603.5C 564.868,606.899 563.702,610.566 563,614.5C 561.229,616.584 559.896,618.918 559,621.5C 558.667,623.5 558.333,625.5 558,627.5C 555.331,632.026 552.997,636.693 551,641.5C 549.488,645.371 548.655,649.371 548.5,653.5C 547.5,653.5 546.5,653.5 545.5,653.5C 545.5,655.167 545.5,656.833 545.5,658.5C 544.167,658.5 543.5,659.167 543.5,660.5C 541.062,666.136 539.396,672.136 538.5,678.5C 537.5,678.5 536.5,678.5 535.5,678.5C 535.5,680.167 535.5,681.833 535.5,683.5C 534.094,683.973 533.427,684.973 533.5,686.5C 523.511,713.891 512.678,741.224 501,768.5C 499.851,771.779 499.018,775.113 498.5,778.5C 497.167,779.167 496.167,780.167 495.5,781.5C 494.495,784.721 493.661,788.054 493,791.5C 490.333,795.752 488.5,800.418 487.5,805.5C 484.287,809.123 482.953,813.456 483.5,818.5C 482.5,818.5 481.5,818.5 480.5,818.5C 477.793,826.705 475.46,835.039 473.5,843.5C 472.5,843.5 471.5,843.5 470.5,843.5C 469.411,849.752 467.745,855.752 465.5,861.5C 464.167,861.5 463.5,862.167 463.5,863.5C 463.5,865.167 463.5,866.833 463.5,868.5C 462.5,868.5 461.5,868.5 460.5,868.5C 460.662,870.527 460.495,872.527 460,874.5C 459.205,877.161 457.871,879.495 456,881.5C 453.689,889.64 451.023,897.64 448,905.5C 446.049,910.352 443.715,915.019 441,919.5C 440.23,924.256 438.563,928.589 436,932.5C 435.052,936.168 434.219,939.835 433.5,943.5C 432.167,943.5 431.5,944.167 431.5,945.5C 424.262,961.768 417.929,978.434 412.5,995.5C 411.281,996.263 410.281,997.263 409.5,998.5C 408.713,997.758 408.047,996.925 407.5,996C 398.885,992.574 390.552,988.574 382.5,984C 381.207,983.51 379.873,983.343 378.5,983.5C 378.573,981.973 377.906,980.973 376.5,980.5C 372.252,979.526 368.586,977.526 365.5,974.5C 363.955,973.548 362.288,973.215 360.5,973.5C 360.5,972.5 360.5,971.5 360.5,970.5C 356.829,970.798 354.163,969.298 352.5,966C 348.22,964.194 344.22,962.027 340.5,959.5C 337.901,956.341 334.567,954.341 330.5,953.5C 330.5,952.5 330.5,951.5 330.5,950.5C 328.092,949.799 325.758,948.799 323.5,947.5C 319.682,943.67 315.349,940.67 310.5,938.5C 310.719,937.325 310.386,936.325 309.5,935.5C 306.434,932.765 303.101,930.431 299.5,928.5C 298.614,927.675 298.281,926.675 298.5,925.5C 272.053,903.718 249.053,878.718 229.5,850.5C 228.476,849.147 227.143,848.48 225.5,848.5C 225.785,846.712 225.452,845.045 224.5,843.5C 222.022,841.829 220.522,839.496 220,836.5C 219.092,834.561 217.592,833.561 215.5,833.5C 215.785,831.712 215.452,830.045 214.5,828.5C 210.267,822.026 206.601,815.359 203.5,808.5C 202.5,808.5 201.5,808.5 200.5,808.5C 199.833,805.167 199.167,801.833 198.5,798.5C 197.5,798.5 196.5,798.5 195.5,798.5C 194.833,795.167 194.167,791.833 193.5,788.5C 192.5,788.5 191.5,788.5 190.5,788.5C 189.833,785.167 189.167,781.833 188.5,778.5C 187.5,778.5 186.5,778.5 185.5,778.5C 185.66,776.801 185.494,775.134 185,773.5C 177.933,758.668 172.267,743.335 168,727.5C 167.333,726.833 166.667,726.167 166,725.5C 164.842,720.533 163.842,715.533 163,710.5C 162.333,709.833 161.667,709.167 161,708.5C 157.135,694.58 154.468,680.247 153,665.5C 152.692,664.692 152.192,664.025 151.5,663.5C 149.536,650.568 148.536,637.568 148.5,624.5C 147.974,622.77 146.974,621.436 145.5,620.5C 145.5,601.5 145.5,582.5 145.5,563.5C 147.262,562.738 148.262,561.404 148.5,559.5C 148.5,552.167 148.5,544.833 148.5,537.5C 149.833,537.5 150.5,536.833 150.5,535.5C 152.468,522.327 154.135,508.993 155.5,495.5C 157.262,494.738 158.262,493.404 158.5,491.5C 158.336,488.813 158.503,486.146 159,483.5C 160.216,481.038 160.882,478.371 161,475.5C 163.286,472.635 164.12,469.302 163.5,465.5C 164.833,465.5 165.5,464.833 165.5,463.5C 168.833,452.487 172.167,441.487 175.5,430.5C 177.144,430.19 178.144,429.19 178.5,427.5C 179.167,424.5 179.833,421.5 180.5,418.5C 181.833,417.833 182.833,416.833 183.5,415.5C 184.643,412.316 185.309,408.983 185.5,405.5C 186.5,405.5 187.5,405.5 188.5,405.5C 189.167,402.167 189.833,398.833 190.5,395.5C 191.5,395.5 192.5,395.5 193.5,395.5C 194.167,392.167 194.833,388.833 195.5,385.5C 196.5,385.5 197.5,385.5 198.5,385.5C 198.784,382.368 199.617,379.368 201,376.5C 203.579,373.666 205.913,370.666 208,367.5C 211.268,360.316 215.268,353.649 220,347.5C 220.49,346.207 220.657,344.873 220.5,343.5C 221.5,343.5 222.5,343.5 223.5,343.5C 224.044,341.42 224.878,339.42 226,337.5C 230.518,331.769 235.018,326.102 239.5,320.5C 240.452,318.955 240.785,317.288 240.5,315.5C 243.5,315.167 245.167,313.5 245.5,310.5C 246.675,310.719 247.675,310.386 248.5,309.5C 250.509,306.494 252.509,303.494 254.5,300.5C 259.76,295.911 264.427,290.911 268.5,285.5C 270.452,284.215 272.118,282.549 273.5,280.5C 275.264,279.674 276.598,278.341 277.5,276.5C 279.5,275.833 280.833,274.5 281.5,272.5C 286.146,268.188 290.813,263.855 295.5,259.5C 296.325,258.614 297.325,258.281 298.5,258.5C 298.281,257.325 298.614,256.325 299.5,255.5C 302.287,252.378 305.621,250.045 309.5,248.5C 310.386,247.675 310.719,246.675 310.5,245.5C 313.442,244.215 316.109,242.548 318.5,240.5C 320.122,239.878 321.455,238.878 322.5,237.5C 327.863,234.649 332.53,230.815 336.5,226C 338.868,225.144 341.202,224.31 343.5,223.5C 343.5,222.5 343.5,221.5 343.5,220.5C 346.991,220.517 349.658,219.017 351.5,216C 358.143,212.839 364.476,209.339 370.5,205.5C 371.833,205.5 372.5,204.833 372.5,203.5C 376.413,201.055 380.746,199.389 385.5,198.5C 385.5,197.5 385.5,196.5 385.5,195.5C 388.833,194.833 392.167,194.167 395.5,193.5C 395.5,192.5 395.5,191.5 395.5,190.5C 398.833,189.833 402.167,189.167 405.5,188.5C 405.5,187.5 405.5,186.5 405.5,185.5C 413.199,184.091 420.532,181.758 427.5,178.5C 428.906,178.027 429.573,177.027 429.5,175.5C 433.838,174.81 438.171,173.977 442.5,173C 442.957,172.586 443.291,172.086 443.5,171.5C 447.768,170.059 452.102,168.893 456.5,168C 457.167,167.333 457.833,166.667 458.5,166C 462.829,165.023 467.162,164.19 471.5,163.5C 473.404,163.262 474.738,162.262 475.5,160.5C 481.586,159.85 487.586,158.85 493.5,157.5C 494.5,157.167 495.167,156.5 495.5,155.5C 503.155,154.695 510.822,153.861 518.5,153C 519.308,152.692 519.975,152.192 520.5,151.5C 526.311,150.958 531.978,150.124 537.5,149C 545.833,148.667 554.167,148.333 562.5,148C 563.167,147.333 563.833,146.667 564.5,146C 567.482,145.502 570.482,145.335 573.5,145.5C 573.667,293.167 573.5,440.834 573,588.5C 572.333,589.167 571.667,589.833 571,590.5C 569.862,594.121 569.028,597.788 568.5,601.5 Z"/></g>
<g><path style="opacity:0.985" fill="#7b7b7b" d="M 706.5,110.5 C 707.035,112.446 708.368,113.446 710.5,113.5C 721.355,113.264 732.022,114.097 742.5,116C 742.957,116.414 743.291,116.914 743.5,117.5C 751.137,118.884 758.804,120.051 766.5,121C 767.167,121.667 767.833,122.333 768.5,123C 771.5,123.333 774.5,123.667 777.5,124C 785.481,127.082 793.814,129.416 802.5,131C 802.957,131.414 803.291,131.914 803.5,132.5C 812.97,134.284 821.97,137.117 830.5,141C 835.324,142.946 839.99,145.279 844.5,148C 848.168,148.948 851.835,149.781 855.5,150.5C 855.5,151.5 855.5,152.5 855.5,153.5C 858.833,154.167 862.167,154.833 865.5,155.5C 865.5,156.5 865.5,157.5 865.5,158.5C 868.833,159.167 872.167,159.833 875.5,160.5C 875.5,161.5 875.5,162.5 875.5,163.5C 878.833,164.167 882.167,164.833 885.5,165.5C 885.5,166.5 885.5,167.5 885.5,168.5C 887.288,168.215 888.955,168.548 890.5,169.5C 906.362,178.778 922.029,188.612 937.5,199C 939.439,199.908 940.439,201.408 940.5,203.5C 941.873,203.343 943.207,203.51 944.5,204C 947.38,206.719 950.38,209.219 953.5,211.5C 953.5,212.833 954.167,213.5 955.5,213.5C 958.335,214.069 960.001,215.736 960.5,218.5C 968.427,223.752 976.093,229.419 983.5,235.5C 983.833,238.5 985.5,240.167 988.5,240.5C 988.833,243.5 990.5,245.167 993.5,245.5C 993.281,246.675 993.614,247.675 994.5,248.5C 997.023,249.943 999.023,251.943 1000.5,254.5C 1001.32,255.386 1002.32,255.719 1003.5,255.5C 1003.83,258.5 1005.5,260.167 1008.5,260.5C 1008.28,261.675 1008.61,262.675 1009.5,263.5C 1016.35,269.006 1021.68,275.673 1025.5,283.5C 1026.68,283.281 1027.68,283.614 1028.5,284.5C 1032.89,290.83 1037.73,296.83 1043,302.5C 1044.12,304.42 1044.96,306.42 1045.5,308.5C 1046.5,308.5 1047.5,308.5 1048.5,308.5C 1049.41,312.256 1051.08,315.589 1053.5,318.5C 1053.83,319.5 1054.5,320.167 1055.5,320.5C 1055.5,321.5 1055.5,322.5 1055.5,323.5C 1056.5,323.5 1057.5,323.5 1058.5,323.5C 1064.86,334.459 1071.36,345.459 1078,356.5C 1084.7,369.895 1091.36,383.228 1098,396.5C 1099.51,400.371 1100.35,404.371 1100.5,408.5C 1101.5,408.5 1102.5,408.5 1103.5,408.5C 1106.07,416.751 1108.57,425.084 1111,433.5C 1111.67,434.167 1112.33,434.833 1113,435.5C 1114.82,444.809 1111.99,452.309 1104.5,458C 1096.22,461.531 1087.56,464.198 1078.5,466C 1076.33,468.203 1073.66,469.036 1070.5,468.5C 1069.5,468.833 1068.83,469.5 1068.5,470.5C 1056.79,473.894 1045.12,477.561 1033.5,481.5C 1033.29,482.086 1032.96,482.586 1032.5,483C 1028.39,483.665 1024.39,484.498 1020.5,485.5C 1019.17,485.5 1018.5,486.167 1018.5,487.5C 1009.46,490.75 1000.12,493.75 990.5,496.5C 990.291,497.086 989.957,497.586 989.5,498C 984.935,499.361 980.268,500.528 975.5,501.5C 975.291,502.086 974.957,502.586 974.5,503C 970.013,504.623 965.347,505.456 960.5,505.5C 960.5,506.5 960.5,507.5 960.5,508.5C 955.526,509.326 950.526,509.993 945.5,510.5C 945.5,511.5 945.5,512.5 945.5,513.5C 936.129,515.912 926.796,518.245 917.5,520.5C 916.5,520.833 915.833,521.5 915.5,522.5C 891.744,530.817 867.744,538.817 843.5,546.5C 843.291,547.086 842.957,547.586 842.5,548C 838.391,548.665 834.391,549.498 830.5,550.5C 829.167,550.5 828.5,551.167 828.5,552.5C 824.167,553.833 819.833,555.167 815.5,556.5C 813.821,556.285 812.821,556.952 812.5,558.5C 803.824,561.903 794.824,564.57 785.5,566.5C 785.291,567.086 784.957,567.586 784.5,568C 780.013,569.623 775.347,570.456 770.5,570.5C 770.5,571.5 770.5,572.5 770.5,573.5C 765.526,574.326 760.526,574.993 755.5,575.5C 755.5,576.5 755.5,577.5 755.5,578.5C 751.086,578.831 746.752,579.665 742.5,581C 741.833,581.667 741.167,582.333 740.5,583C 726.681,587.796 712.681,592.129 698.5,596C 697.833,596.667 697.167,597.333 696.5,598C 687.468,601.462 678.135,604.295 668.5,606.5C 668.291,607.086 667.957,607.586 667.5,608C 663.641,608.698 659.808,609.531 656,610.5C 652.386,609.678 648.886,608.678 645.5,607.5C 645.5,606.167 644.833,605.5 643.5,605.5C 641.484,604.514 640.151,602.847 639.5,600.5C 638.333,439.834 638.167,279.168 639,118.5C 641.427,113.077 645.593,109.91 651.5,109C 669.685,109.896 688.019,110.396 706.5,110.5 Z"/></g>
<g><path style="opacity:0.031" fill="#343434" d="M 706.5,110.5 C 708.23,111.026 709.564,112.026 710.5,113.5C 708.368,113.446 707.035,112.446 706.5,110.5 Z"/></g>
<g><path style="opacity:0.016" fill="#1f1f1f" d="M 481.5,120.5 C 481.573,122.027 480.906,123.027 479.5,123.5C 479.427,121.973 480.094,120.973 481.5,120.5 Z"/></g>
<g><path style="opacity:0.007" fill="#000000" d="M 495.5,155.5 C 495.167,156.5 494.5,157.167 493.5,157.5C 493.5,156.167 494.167,155.5 495.5,155.5 Z"/></g>
<g><path style="opacity:0.042" fill="#404040" d="M 475.5,160.5 C 474.738,162.262 473.404,163.262 471.5,163.5C 471.694,161.088 473.027,160.088 475.5,160.5 Z"/></g>
<g><path style="opacity:0.024" fill="#303030" d="M 429.5,175.5 C 429.573,177.027 428.906,178.027 427.5,178.5C 427.285,176.821 427.952,175.821 429.5,175.5 Z"/></g>
<g><path style="opacity:0.005" fill="#000000" d="M 372.5,203.5 C 372.5,204.833 371.833,205.5 370.5,205.5C 370.833,204.5 371.5,203.833 372.5,203.5 Z"/></g>
<g><path style="opacity:0.007" fill="#000000" d="M 953.5,211.5 C 954.5,211.833 955.167,212.5 955.5,213.5C 954.167,213.5 953.5,212.833 953.5,211.5 Z"/></g>
<g><path style="opacity:0.073" fill="#3c3c3c" d="M 322.5,237.5 C 321.455,238.878 320.122,239.878 318.5,240.5C 318.5,239.5 318.5,238.5 318.5,237.5C 319.833,237.5 321.167,237.5 322.5,237.5 Z"/></g>
<g><path style="opacity:0.081" fill="#4b4b4b" d="M 281.5,272.5 C 280.833,274.5 279.5,275.833 277.5,276.5C 277.167,273.5 278.5,272.167 281.5,272.5 Z"/></g>
<g><path style="opacity:0.069" fill="#4b4b4b" d="M 273.5,280.5 C 272.118,282.549 270.452,284.215 268.5,285.5C 268.999,282.736 270.665,281.069 273.5,280.5 Z"/></g>
<g><path style="opacity:0.007" fill="#000000" d="M 1053.5,318.5 C 1054.83,318.5 1055.5,319.167 1055.5,320.5C 1054.5,320.167 1053.83,319.5 1053.5,318.5 Z"/></g>
<g><path style="opacity:0.005" fill="#000000" d="M 170.5,356.5 C 170.167,357.5 169.5,358.167 168.5,358.5C 168.5,357.167 169.167,356.5 170.5,356.5 Z"/></g>
<g><path style="opacity:0.02" fill="#393939" d="M 183.5,415.5 C 182.833,416.833 181.833,417.833 180.5,418.5C 180.5,416.5 181.5,415.5 183.5,415.5 Z"/></g>
<g><path style="opacity:0.039" fill="#383838" d="M 178.5,427.5 C 178.144,429.19 177.144,430.19 175.5,430.5C 175.5,429.5 175.5,428.5 175.5,427.5C 176.5,427.5 177.5,427.5 178.5,427.5 Z"/></g>
<g><path style="opacity:0.008" fill="#1f1f1f" d="M 165.5,463.5 C 165.5,464.833 164.833,465.5 163.5,465.5C 163.833,464.5 164.5,463.833 165.5,463.5 Z"/></g>
<g><path style="opacity:0.008" fill="#1c1c1c" d="M 1070.5,468.5 C 1070.5,469.833 1069.83,470.5 1068.5,470.5C 1068.83,469.5 1069.5,468.833 1070.5,468.5 Z"/></g>
<g><path style="opacity:0.016" fill="#1f1f1f" d="M 123.5,479.5 C 123.027,480.906 122.027,481.573 120.5,481.5C 120.973,480.094 121.973,479.427 123.5,479.5 Z"/></g>
<g><path style="opacity:0.007" fill="#000000" d="M 1020.5,485.5 C 1020.17,486.5 1019.5,487.167 1018.5,487.5C 1018.5,486.167 1019.17,485.5 1020.5,485.5 Z"/></g>
<g><path style="opacity:0.907" fill="#7a7a7a" d="M 1135.5,488.5 C 1136.13,490.997 1137.8,492.33 1140.5,492.5C 1141.47,493.309 1142.3,494.309 1143,495.5C 1144.51,499.371 1145.35,503.371 1145.5,507.5C 1145.82,509.048 1146.82,509.715 1148.5,509.5C 1151.97,520.536 1154.64,531.869 1156.5,543.5C 1157.09,543.709 1157.59,544.043 1158,544.5C 1159.4,557.765 1161.74,570.765 1165,583.5C 1165.33,589.167 1165.67,594.833 1166,600.5C 1166.91,601.328 1167.58,602.328 1168,603.5C 1168.31,620.815 1169.15,637.982 1170.5,655C 1169.13,672.351 1168.3,689.851 1168,707.5C 1167.58,708.672 1166.91,709.672 1166,710.5C 1165.67,716.5 1165.33,722.5 1165,728.5C 1161.85,740.721 1159.51,753.388 1158,766.5C 1157.33,767.167 1156.67,767.833 1156,768.5C 1154.47,780.181 1151.81,791.515 1148,802.5C 1145.32,807.038 1143.65,812.038 1143,817.5C 1140.84,822.538 1138.51,827.538 1136,832.5C 1132.56,844.604 1127.56,855.938 1121,866.5C 1119.62,869.368 1118.78,872.368 1118.5,875.5C 1117.5,875.5 1116.5,875.5 1115.5,875.5C 1114.83,878.833 1114.17,882.167 1113.5,885.5C 1112.5,885.5 1111.5,885.5 1110.5,885.5C 1110.79,887.288 1110.45,888.955 1109.5,890.5C 1100.38,906.592 1090.55,922.259 1080,937.5C 1079.09,939.439 1077.59,940.439 1075.5,940.5C 1074.95,942.901 1074.12,945.235 1073,947.5C 1069.57,951.248 1066.4,955.248 1063.5,959.5C 1062.68,960.386 1061.68,960.719 1060.5,960.5C 1054.71,969.677 1047.71,978.01 1039.5,985.5C 1038.61,986.325 1038.28,987.325 1038.5,988.5C 1035.5,988.833 1033.83,990.5 1033.5,993.5C 1030.5,993.833 1028.83,995.5 1028.5,998.5C 1025.5,998.833 1023.83,1000.5 1023.5,1003.5C 1020.5,1003.83 1018.83,1005.5 1018.5,1008.5C 1017.32,1008.28 1016.32,1008.61 1015.5,1009.5C 1009.99,1016.35 1003.33,1021.68 995.5,1025.5C 994.314,1028.93 991.981,1031.43 988.5,1033C 982.5,1033.67 976.5,1033.67 970.5,1033C 968.896,1031.76 967.229,1030.6 965.5,1029.5C 961.593,1022.76 956.759,1016.76 951,1011.5C 949.878,1009.58 949.044,1007.58 948.5,1005.5C 946.857,1005.52 945.524,1004.85 944.5,1003.5C 940.294,996.455 935.127,990.122 929,984.5C 928.51,983.207 928.343,981.873 928.5,980.5C 927.325,980.719 926.325,980.386 925.5,979.5C 921.896,976.579 919.563,972.912 918.5,968.5C 917.5,968.5 916.5,968.5 915.5,968.5C 912.478,964.946 909.978,960.946 908,956.5C 905.601,954.595 903.434,952.595 901.5,950.5C 901.715,948.821 901.048,947.821 899.5,947.5C 898.662,947.158 898.328,946.492 898.5,945.5C 898.5,944.167 897.833,943.5 896.5,943.5C 891.14,938.297 886.807,932.297 883.5,925.5C 881.857,925.52 880.524,924.853 879.5,923.5C 875.909,917.079 871.409,911.413 866,906.5C 864.441,904.783 863.608,902.783 863.5,900.5C 862.325,900.719 861.325,900.386 860.5,899.5C 856.908,896.586 854.574,892.919 853.5,888.5C 852.5,888.5 851.5,888.5 850.5,888.5C 848.951,885.108 846.784,882.108 844,879.5C 843.51,878.207 843.343,876.873 843.5,875.5C 840.5,875.167 838.833,873.5 838.5,870.5C 837.325,870.719 836.325,870.386 835.5,869.5C 831.77,863.569 827.77,857.902 823.5,852.5C 823.5,851.167 822.833,850.5 821.5,850.5C 819.721,849.33 818.721,847.664 818.5,845.5C 817.325,845.719 816.325,845.386 815.5,844.5C 811.593,837.759 806.759,831.759 801,826.5C 799.878,824.58 799.044,822.58 798.5,820.5C 796.857,820.52 795.524,819.853 794.5,818.5C 790.294,811.455 785.127,805.122 779,799.5C 778.51,798.207 778.343,796.873 778.5,795.5C 777.325,795.719 776.325,795.386 775.5,794.5C 771.896,791.579 769.563,787.912 768.5,783.5C 767.5,783.5 766.5,783.5 765.5,783.5C 760.99,777.805 756.99,771.805 753.5,765.5C 750.736,765.001 749.069,763.335 748.5,760.5C 748.5,759.167 747.833,758.5 746.5,758.5C 741.14,753.297 736.807,747.297 733.5,740.5C 731.857,740.52 730.524,739.853 729.5,738.5C 725.917,732.086 721.417,726.419 716,721.5C 714.441,719.783 713.608,717.783 713.5,715.5C 712.325,715.719 711.325,715.386 710.5,714.5C 706.908,711.586 704.574,707.919 703.5,703.5C 702.5,703.5 701.5,703.5 700.5,703.5C 698.951,700.108 696.784,697.108 694,694.5C 693.51,693.207 693.343,691.873 693.5,690.5C 690.5,690.167 688.833,688.5 688.5,685.5C 684.963,684.614 683.296,682.281 683.5,678.5C 682.5,678.5 681.5,678.5 680.5,678.5C 675.834,673.178 672.167,667.178 669.5,660.5C 668.345,657.554 668.179,654.554 669,651.5C 670.017,649.624 670.851,647.624 671.5,645.5C 672.852,644.482 673.852,643.149 674.5,641.5C 678.115,640.03 681.448,638.197 684.5,636C 692.287,634.684 699.62,632.35 706.5,629C 708.81,628.503 711.143,628.337 713.5,628.5C 713.5,627.5 713.5,626.5 713.5,625.5C 718.207,624.99 722.873,624.157 727.5,623C 727.957,622.586 728.291,622.086 728.5,621.5C 735.41,619.624 742.076,617.624 748.5,615.5C 750.027,615.573 751.027,614.906 751.5,613.5C 757.653,611.362 763.986,609.528 770.5,608C 771.167,607.333 771.833,606.667 772.5,606C 777.588,605.173 782.254,603.506 786.5,601C 791.962,600.35 796.962,598.683 801.5,596C 806.962,595.35 811.962,593.683 816.5,591C 821.962,590.35 826.962,588.683 831.5,586C 835.662,585.474 839.662,584.474 843.5,583C 845.669,580.797 848.335,579.964 851.5,580.5C 852.5,580.167 853.167,579.5 853.5,578.5C 865.299,575.083 876.966,571.416 888.5,567.5C 888.709,566.914 889.043,566.414 889.5,566C 894.064,564.525 898.73,563.692 903.5,563.5C 903.5,562.5 903.5,561.5 903.5,560.5C 908.207,559.99 912.873,559.157 917.5,558C 917.957,557.586 918.291,557.086 918.5,556.5C 925.41,554.624 932.076,552.624 938.5,550.5C 940.027,550.573 941.027,549.906 941.5,548.5C 947.653,546.362 953.986,544.528 960.5,543C 961.167,542.333 961.833,541.667 962.5,541C 967.588,540.173 972.254,538.506 976.5,536C 981.962,535.35 986.962,533.683 991.5,531C 996.962,530.35 1001.96,528.683 1006.5,526C 1010.88,525.178 1015.21,524.178 1019.5,523C 1020.17,522.333 1020.83,521.667 1021.5,521C 1025.61,520.335 1029.61,519.502 1033.5,518.5C 1034.5,518.167 1035.17,517.5 1035.5,516.5C 1037.26,515.539 1039.26,515.205 1041.5,515.5C 1042.5,515.167 1043.17,514.5 1043.5,513.5C 1055.3,510.083 1066.97,506.416 1078.5,502.5C 1078.71,501.914 1079.04,501.414 1079.5,501C 1084.06,499.525 1088.73,498.692 1093.5,498.5C 1093.5,497.5 1093.5,496.5 1093.5,495.5C 1098.21,494.99 1102.87,494.157 1107.5,493C 1109.85,491.1 1112.52,489.767 1115.5,489C 1122.16,488.5 1128.83,488.334 1135.5,488.5 Z M 1108.5,803.5 C 1106.86,803.81 1105.86,804.81 1105.5,806.5C 1104.01,810.277 1103.34,814.277 1103.5,818.5C 1102.5,818.5 1101.5,818.5 1100.5,818.5C 1099.78,822.165 1098.95,825.832 1098,829.5C 1095.54,832.753 1093.88,836.42 1093,840.5C 1086.5,854.322 1079.17,867.656 1071,880.5C 1069.39,882.939 1068.56,885.606 1068.5,888.5C 1067.5,888.5 1066.5,888.5 1065.5,888.5C 1062.82,893.34 1060.48,898.34 1058.5,903.5C 1057.5,903.5 1056.5,903.5 1055.5,903.5C 1054.52,907.456 1052.52,910.789 1049.5,913.5C 1048.55,915.045 1048.21,916.712 1048.5,918.5C 1046.86,918.48 1045.52,919.147 1044.5,920.5C 1038.42,927.676 1033.08,935.342 1028.5,943.5C 1025.5,943.833 1023.83,945.5 1023.5,948.5C 1022.32,948.281 1021.32,948.614 1020.5,949.5C 1016.73,954.722 1012.73,959.722 1008.5,964.5C 1007.68,965.386 1006.68,965.719 1005.5,965.5C 1005.17,968.5 1003.5,970.167 1000.5,970.5C 1000.17,973.5 998.5,975.167 995.5,975.5C 995.715,977.179 995.048,978.179 993.5,978.5C 991.451,979.882 989.785,981.548 988.5,983.5C 985.798,985.221 983.131,986.888 980.5,988.5C 977.034,981.19 972.2,974.857 966,969.5C 964.878,967.58 964.044,965.58 963.5,963.5C 962.5,963.5 961.5,963.5 960.5,963.5C 960.167,960.5 958.5,958.833 955.5,958.5C 955.657,957.127 955.49,955.793 955,954.5C 952.216,951.892 950.049,948.892 948.5,945.5C 947.5,945.5 946.5,945.5 945.5,945.5C 944.426,941.081 942.092,937.414 938.5,934.5C 937.675,933.614 936.675,933.281 935.5,933.5C 935.392,931.217 934.559,929.217 933,927.5C 927.241,922.241 922.407,916.241 918.5,909.5C 917.675,908.614 916.675,908.281 915.5,908.5C 914.986,906.302 913.986,904.302 912.5,902.5C 907.08,897.081 902.413,891.081 898.5,884.5C 897.675,883.614 896.675,883.281 895.5,883.5C 892.096,877.06 888.096,871.06 883.5,865.5C 882.5,865.5 881.5,865.5 880.5,865.5C 879.437,861.088 877.104,857.421 873.5,854.5C 872.675,853.614 871.675,853.281 870.5,853.5C 870.736,850.774 869.903,848.441 868,846.5C 862.317,842.113 857.817,836.779 854.5,830.5C 853.476,829.147 852.143,828.48 850.5,828.5C 849.956,826.42 849.122,824.42 848,822.5C 844.598,818.275 841.098,814.275 837.5,810.5C 837.5,809.167 836.833,808.5 835.5,808.5C 834.931,805.665 833.264,803.999 830.5,803.5C 827.013,796.175 822.18,789.841 816,784.5C 814.878,782.58 814.044,780.58 813.5,778.5C 812.5,778.5 811.5,778.5 810.5,778.5C 810.167,775.5 808.5,773.833 805.5,773.5C 805.657,772.127 805.49,770.793 805,769.5C 802.216,766.892 800.049,763.892 798.5,760.5C 796.821,760.715 795.821,760.048 795.5,758.5C 795.167,757.5 794.5,756.833 793.5,756.5C 792.314,754.519 790.981,752.519 789.5,750.5C 788.476,749.147 787.143,748.48 785.5,748.5C 785.392,746.217 784.559,744.217 783,742.5C 777.241,737.241 772.407,731.241 768.5,724.5C 767.675,723.614 766.675,723.281 765.5,723.5C 764.986,721.302 763.986,719.302 762.5,717.5C 757.08,712.081 752.413,706.081 748.5,699.5C 747.675,698.614 746.675,698.281 745.5,698.5C 742.01,692.195 738.01,686.195 733.5,680.5C 732.5,680.5 731.5,680.5 730.5,680.5C 729.437,676.088 727.104,672.421 723.5,669.5C 722.675,668.614 721.675,668.281 720.5,668.5C 720.5,666.833 720.5,665.167 720.5,663.5C 726.881,661.204 733.548,659.538 740.5,658.5C 740.5,657.5 740.5,656.5 740.5,655.5C 745.526,654.993 750.526,654.326 755.5,653.5C 755.5,652.5 755.5,651.5 755.5,650.5C 760.347,650.456 765.013,649.623 769.5,648C 769.957,647.586 770.291,647.086 770.5,646.5C 784.022,642.109 797.688,637.776 811.5,633.5C 813.404,633.262 814.738,632.262 815.5,630.5C 817.167,630.5 818.833,630.5 820.5,630.5C 821.5,630.167 822.167,629.5 822.5,628.5C 825.346,628.97 827.679,628.137 829.5,626C 843.156,621.694 856.823,617.527 870.5,613.5C 872.5,613.5 873.5,612.5 873.5,610.5C 877.573,610.192 881.573,609.525 885.5,608.5C 886.833,607.833 887.833,606.833 888.5,605.5C 890.167,605.5 891.833,605.5 893.5,605.5C 894.833,605.5 895.5,604.833 895.5,603.5C 897.199,603.66 898.866,603.494 900.5,603C 908.593,600.001 916.593,597.001 924.5,594C 926.473,593.505 928.473,593.338 930.5,593.5C 930.5,592.5 930.5,591.5 930.5,590.5C 935.526,589.993 940.526,589.326 945.5,588.5C 945.5,587.5 945.5,586.5 945.5,585.5C 950.27,585.308 954.936,584.475 959.5,583C 959.957,582.586 960.291,582.086 960.5,581.5C 974.302,576.935 988.302,572.601 1002.5,568.5C 1003.83,567.833 1004.83,566.833 1005.5,565.5C 1007.17,565.5 1008.83,565.5 1010.5,565.5C 1011.5,565.167 1012.17,564.5 1012.5,563.5C 1015.35,563.97 1017.68,563.137 1019.5,561C 1023.79,559.822 1028.12,558.822 1032.5,558C 1032.96,557.586 1033.29,557.086 1033.5,556.5C 1047.8,551.867 1062.13,547.367 1076.5,543C 1078.32,540.863 1080.65,540.03 1083.5,540.5C 1084.83,540.5 1085.5,539.833 1085.5,538.5C 1092.11,536.541 1098.77,534.708 1105.5,533C 1108.36,530.714 1111.7,529.88 1115.5,530.5C 1115.34,532.857 1115.5,535.19 1116,537.5C 1116.41,537.957 1116.91,538.291 1117.5,538.5C 1119.17,545.181 1120.83,551.848 1122.5,558.5C 1123.99,566.456 1125.16,574.456 1126,582.5C 1126.41,582.957 1126.91,583.291 1127.5,583.5C 1129.38,597.106 1130.55,610.773 1131,624.5C 1131.42,625.672 1132.09,626.672 1133,627.5C 1133.83,646.176 1133.67,664.842 1132.5,683.5C 1131.81,684.025 1131.31,684.692 1131,685.5C 1130.67,693.5 1130.33,701.5 1130,709.5C 1128.71,715.327 1128.04,721.327 1128,727.5C 1127.59,727.957 1127.09,728.291 1126.5,728.5C 1124.87,736.776 1123.87,745.11 1123.5,753.5C 1122.5,753.5 1121.5,753.5 1120.5,753.5C 1119.83,760.167 1119.17,766.833 1118.5,773.5C 1117.5,773.5 1116.5,773.5 1115.5,773.5C 1114.98,778.534 1114.15,783.534 1113,788.5C 1112.33,789.167 1111.67,789.833 1111,790.5C 1110.32,794.891 1109.48,799.224 1108.5,803.5 Z"/></g>
<g><path style="opacity:0.02" fill="#4c4c4c" d="M 1135.5,488.5 C 1137.39,489.604 1139.06,490.937 1140.5,492.5C 1137.8,492.33 1136.13,490.997 1135.5,488.5 Z"/></g>
<g><path style="opacity:0.069" fill="#484848" d="M 158.5,491.5 C 158.262,493.404 157.262,494.738 155.5,495.5C 155.5,494.167 155.5,492.833 155.5,491.5C 156.5,491.5 157.5,491.5 158.5,491.5 Z"/></g>
<g><path style="opacity:0.055" fill="#3a3a3a" d="M 1145.5,507.5 C 1146.71,507.932 1147.71,508.599 1148.5,509.5C 1146.82,509.715 1145.82,509.048 1145.5,507.5 Z"/></g>
<g><path style="opacity:0.005" fill="#000000" d="M 1043.5,513.5 C 1043.17,514.5 1042.5,515.167 1041.5,515.5C 1041.5,514.167 1042.17,513.5 1043.5,513.5 Z"/></g>
<g><path style="opacity:0.005" fill="#000000" d="M 1035.5,516.5 C 1035.17,517.5 1034.5,518.167 1033.5,518.5C 1033.5,517.167 1034.17,516.5 1035.5,516.5 Z"/></g>
<g><path style="opacity:0.007" fill="#000000" d="M 917.5,520.5 C 917.5,521.833 916.833,522.5 915.5,522.5C 915.833,521.5 916.5,520.833 917.5,520.5 Z"/></g>
<g><path style="opacity:0.005" fill="#000000" d="M 150.5,535.5 C 150.5,536.833 149.833,537.5 148.5,537.5C 148.833,536.5 149.5,535.833 150.5,535.5 Z"/></g>
<g><path style="opacity:0.007" fill="#000000" d="M 1085.5,538.5 C 1085.5,539.833 1084.83,540.5 1083.5,540.5C 1083.83,539.5 1084.5,538.833 1085.5,538.5 Z"/></g>
<g><path style="opacity:0.012" fill="#343434" d="M 941.5,548.5 C 941.027,549.906 940.027,550.573 938.5,550.5C 938.973,549.094 939.973,548.427 941.5,548.5 Z"/></g>
<g><path style="opacity:0.007" fill="#000000" d="M 830.5,550.5 C 830.167,551.5 829.5,552.167 828.5,552.5C 828.5,551.167 829.167,550.5 830.5,550.5 Z"/></g>
<g><path style="opacity:0.012" fill="#373737" d="M 815.5,556.5 C 814.71,557.401 813.71,558.068 812.5,558.5C 812.821,556.952 813.821,556.285 815.5,556.5 Z"/></g>
<g><path style="opacity:0.02" fill="#333333" d="M 148.5,559.5 C 148.262,561.404 147.262,562.738 145.5,563.5C 145.738,561.596 146.738,560.262 148.5,559.5 Z"/></g>
<g><path style="opacity:0.007" fill="#000000" d="M 1012.5,563.5 C 1012.17,564.5 1011.5,565.167 1010.5,565.5C 1010.5,564.167 1011.17,563.5 1012.5,563.5 Z"/></g>
<g><path style="opacity:0.124" fill="#494949" d="M 1005.5,565.5 C 1004.83,566.833 1003.83,567.833 1002.5,568.5C 1001.43,566.121 1002.43,565.121 1005.5,565.5 Z"/></g>
<g><path style="opacity:0.005" fill="#000000" d="M 853.5,578.5 C 853.167,579.5 852.5,580.167 851.5,580.5C 851.5,579.167 852.167,578.5 853.5,578.5 Z"/></g>
<g><path style="opacity:0.027" fill="#4b4b4b" d="M 610.5,592.5 C 610.88,594.698 610.213,596.365 608.5,597.5C 608.12,595.302 608.787,593.635 610.5,592.5 Z"/></g>
<g><path style="opacity:0.007" fill="#000000" d="M 568.5,601.5 C 568.167,602.5 567.5,603.167 566.5,603.5C 566.5,602.167 567.167,601.5 568.5,601.5 Z"/></g>
<g><path style="opacity:0.007" fill="#000000" d="M 895.5,603.5 C 895.5,604.833 894.833,605.5 893.5,605.5C 893.833,604.5 894.5,603.833 895.5,603.5 Z"/></g>
<g><path style="opacity:0.016" fill="#222222" d="M 643.5,605.5 C 644.833,605.5 645.5,606.167 645.5,607.5C 644.5,607.167 643.833,606.5 643.5,605.5 Z"/></g>
<g><path style="opacity:0.02" fill="#393939" d="M 888.5,605.5 C 887.833,606.833 886.833,607.833 885.5,608.5C 885.5,606.5 886.5,605.5 888.5,605.5 Z"/></g>
<g><path style="opacity:0.024" fill="#2d2d2d" d="M 873.5,610.5 C 873.5,612.5 872.5,613.5 870.5,613.5C 870.856,611.81 871.856,610.81 873.5,610.5 Z"/></g>
<g><path style="opacity:0.012" fill="#343434" d="M 751.5,613.5 C 751.027,614.906 750.027,615.573 748.5,615.5C 748.973,614.094 749.973,613.427 751.5,613.5 Z"/></g>
<g><path style="opacity:0.041" fill="#444444" d="M 145.5,620.5 C 146.974,621.436 147.974,622.77 148.5,624.5C 147.5,624.5 146.5,624.5 145.5,624.5C 145.5,623.167 145.5,621.833 145.5,620.5 Z"/></g>
<g><path style="opacity:0.007" fill="#000000" d="M 822.5,628.5 C 822.167,629.5 821.5,630.167 820.5,630.5C 820.5,629.167 821.167,628.5 822.5,628.5 Z"/></g>
<g><path style="opacity:0.089" fill="#454545" d="M 815.5,630.5 C 814.738,632.262 813.404,633.262 811.5,633.5C 811.5,632.5 811.5,631.5 811.5,630.5C 812.833,630.5 814.167,630.5 815.5,630.5 Z"/></g>
<g><path style="opacity:0.007" fill="#000000" d="M 545.5,658.5 C 545.167,659.5 544.5,660.167 543.5,660.5C 543.5,659.167 544.167,658.5 545.5,658.5 Z"/></g>
<g><path style="opacity:0.909" fill="#7a7a7a" d="M 633.5,671.5 C 633.833,672.5 634.5,673.167 635.5,673.5C 638.669,674.681 640.336,677.014 640.5,680.5C 641.5,680.5 642.5,680.5 643.5,680.5C 648.01,686.195 652.01,692.195 655.5,698.5C 656.675,698.281 657.675,698.614 658.5,699.5C 662.413,706.081 667.08,712.081 672.5,717.5C 673.986,719.302 674.986,721.302 675.5,723.5C 677.143,723.48 678.476,724.147 679.5,725.5C 683.091,731.921 687.591,737.587 693,742.5C 694.559,744.217 695.392,746.217 695.5,748.5C 696.675,748.281 697.675,748.614 698.5,749.5C 700.374,751.816 702.04,754.15 703.5,756.5C 703.833,757.5 704.5,758.167 705.5,758.5C 705.821,760.048 706.821,760.715 708.5,760.5C 709.694,763.705 711.694,766.371 714.5,768.5C 715.452,770.045 715.785,771.712 715.5,773.5C 718.5,773.833 720.167,775.5 720.5,778.5C 721.675,778.281 722.675,778.614 723.5,779.5C 727.23,785.431 731.23,791.098 735.5,796.5C 735.833,797.5 736.5,798.167 737.5,798.5C 739.279,799.67 740.279,801.336 740.5,803.5C 741.675,803.281 742.675,803.614 743.5,804.5C 747.407,811.241 752.241,817.241 758,822.5C 759.559,824.217 760.392,826.217 760.5,828.5C 761.675,828.281 762.675,828.614 763.5,829.5C 765.374,831.816 767.04,834.15 768.5,836.5C 768.5,837.833 769.167,838.5 770.5,838.5C 772.406,841.578 774.906,844.244 778,846.5C 779.903,848.441 780.736,850.774 780.5,853.5C 781.675,853.281 782.675,853.614 783.5,854.5C 787.104,857.421 789.437,861.088 790.5,865.5C 791.5,865.5 792.5,865.5 793.5,865.5C 798.096,871.06 802.096,877.06 805.5,883.5C 806.675,883.281 807.675,883.614 808.5,884.5C 812.413,891.081 817.08,897.081 822.5,902.5C 823.986,904.302 824.986,906.302 825.5,908.5C 827.143,908.48 828.476,909.147 829.5,910.5C 833.091,916.921 837.591,922.587 843,927.5C 844.559,929.217 845.392,931.217 845.5,933.5C 846.675,933.281 847.675,933.614 848.5,934.5C 850.374,936.816 852.04,939.15 853.5,941.5C 853.833,942.5 854.5,943.167 855.5,943.5C 855.821,945.048 856.821,945.715 858.5,945.5C 859.694,948.705 861.694,951.371 864.5,953.5C 865.452,955.045 865.785,956.712 865.5,958.5C 868.5,958.833 870.167,960.5 870.5,963.5C 873.47,964.308 875.303,966.308 876,969.5C 882.18,974.841 887.013,981.175 890.5,988.5C 891.675,988.281 892.675,988.614 893.5,989.5C 897.407,996.241 902.241,1002.24 908,1007.5C 909.559,1009.22 910.392,1011.22 910.5,1013.5C 912.143,1013.48 913.476,1014.15 914.5,1015.5C 918.067,1021.6 922.567,1026.93 928,1031.5C 929.903,1033.44 930.736,1035.77 930.5,1038.5C 931.5,1038.5 932.5,1038.5 933.5,1038.5C 933.666,1044.51 933.499,1050.51 933,1056.5C 928.401,1062.78 922.568,1067.45 915.5,1070.5C 914.614,1074.04 912.281,1075.7 908.5,1075.5C 908.5,1076.5 908.5,1077.5 908.5,1078.5C 899.668,1085 890.335,1090.67 880.5,1095.5C 879.5,1095.5 878.5,1095.5 877.5,1095.5C 877.5,1096.5 877.5,1097.5 877.5,1098.5C 874.805,1099.43 872.472,1100.76 870.5,1102.5C 868.833,1102.5 867.167,1102.5 865.5,1102.5C 865.5,1103.5 865.5,1104.5 865.5,1105.5C 851.076,1112.88 836.743,1120.38 822.5,1128C 819.342,1129.47 816.009,1130.47 812.5,1131C 807.833,1133.33 803.167,1135.67 798.5,1138C 794.432,1139.89 790.098,1140.73 785.5,1140.5C 785.5,1141.5 785.5,1142.5 785.5,1143.5C 780.526,1144.33 775.526,1144.99 770.5,1145.5C 770.5,1146.5 770.5,1147.5 770.5,1148.5C 765.5,1149.17 760.5,1149.83 755.5,1150.5C 753.067,1150.27 751.401,1151.27 750.5,1153.5C 744.61,1154.31 738.943,1155.81 733.5,1158C 725.834,1159.14 718.167,1160.31 710.5,1161.5C 710.291,1162.09 709.957,1162.59 709.5,1163C 698.862,1164.29 688.195,1165.29 677.5,1166C 676.328,1166.42 675.328,1167.09 674.5,1168C 657.515,1168.26 640.682,1169.09 624,1170.5C 606.652,1169.06 589.152,1168.23 571.5,1168C 570.672,1167.09 569.672,1166.42 568.5,1166C 557.657,1165.74 546.99,1164.74 536.5,1163C 536.043,1162.59 535.709,1162.09 535.5,1161.5C 527.863,1160.12 520.196,1158.95 512.5,1158C 511.833,1157.33 511.167,1156.67 510.5,1156C 504.61,1155.26 498.943,1154.1 493.5,1152.5C 493.5,1151.17 492.833,1150.5 491.5,1150.5C 486.433,1150.15 481.433,1149.32 476.5,1148C 476.043,1147.59 475.709,1147.09 475.5,1146.5C 465.764,1144.35 456.431,1141.35 447.5,1137.5C 447.5,1136.17 446.833,1135.5 445.5,1135.5C 443.169,1135.5 441.169,1134.67 439.5,1133C 438.958,1130.75 437.791,1128.91 436,1127.5C 435.333,1121.5 435.333,1115.5 436,1109.5C 439.226,1103.78 441.726,1097.78 443.5,1091.5C 444.906,1091.03 445.573,1090.03 445.5,1088.5C 445.5,1086.83 445.5,1085.17 445.5,1083.5C 446.5,1083.5 447.5,1083.5 448.5,1083.5C 448.5,1081.83 448.5,1080.17 448.5,1078.5C 449.5,1078.17 450.167,1077.5 450.5,1076.5C 452.566,1070.77 454.232,1064.77 455.5,1058.5C 456.5,1058.5 457.5,1058.5 458.5,1058.5C 457.953,1053.46 459.287,1049.12 462.5,1045.5C 463.777,1041.54 464.777,1037.54 465.5,1033.5C 466.5,1033.5 467.5,1033.5 468.5,1033.5C 468.283,1028.24 469.783,1023.57 473,1019.5C 473.77,1014.74 475.437,1010.41 478,1006.5C 478.661,1003.05 479.495,999.721 480.5,996.5C 482.5,996.5 483.5,995.5 483.5,993.5C 484.018,990.113 484.851,986.779 486,983.5C 497.664,956.259 508.497,928.926 518.5,901.5C 519.906,901.027 520.573,900.027 520.5,898.5C 520.5,896.833 520.5,895.167 520.5,893.5C 521.5,893.5 522.5,893.5 523.5,893.5C 523.5,891.833 523.5,890.167 523.5,888.5C 524.5,888.167 525.167,887.5 525.5,886.5C 526.154,882.702 527.154,879.036 528.5,875.5C 529.5,875.167 530.167,874.5 530.5,873.5C 530.5,871.833 530.5,870.167 530.5,868.5C 531.5,868.5 532.5,868.5 533.5,868.5C 535.46,860.039 537.793,851.705 540.5,843.5C 541.5,843.5 542.5,843.5 543.5,843.5C 543.283,838.241 544.783,833.574 548,829.5C 548.77,824.744 550.437,820.411 553,816.5C 553.661,813.054 554.495,809.721 555.5,806.5C 557.5,806.5 558.5,805.5 558.5,803.5C 560.358,795.99 562.692,788.657 565.5,781.5C 567.048,781.179 567.715,780.179 567.5,778.5C 576.266,756.008 584.933,733.675 593.5,711.5C 594.906,711.027 595.573,710.027 595.5,708.5C 595.5,706.833 595.5,705.167 595.5,703.5C 596.5,703.5 597.5,703.5 598.5,703.5C 598.5,701.833 598.5,700.167 598.5,698.5C 599.5,698.167 600.167,697.5 600.5,696.5C 601.154,692.702 602.154,689.036 603.5,685.5C 604.5,685.167 605.167,684.5 605.5,683.5C 605.5,681.833 605.5,680.167 605.5,678.5C 606.5,678.5 607.5,678.5 608.5,678.5C 608.5,675.167 610.167,673.5 613.5,673.5C 613.5,672.5 613.5,671.5 613.5,670.5C 616.667,669.972 619.834,669.305 623,668.5C 626.614,669.322 630.114,670.322 633.5,671.5 Z M 658.5,760.5 C 659.517,762.911 661.184,764.578 663.5,765.5C 663.833,768.5 665.5,770.167 668.5,770.5C 669.044,772.58 669.878,774.58 671,776.5C 674.402,780.725 677.902,784.725 681.5,788.5C 681.5,789.833 682.167,790.5 683.5,790.5C 684.069,793.335 685.736,795.001 688.5,795.5C 688.721,797.664 689.721,799.33 691.5,800.5C 691.833,801.5 692.5,802.167 693.5,802.5C 697.77,807.902 701.77,813.569 705.5,819.5C 706.325,820.386 707.325,820.719 708.5,820.5C 708.833,823.5 710.5,825.167 713.5,825.5C 713.343,826.873 713.51,828.207 714,829.5C 716.784,832.108 718.951,835.108 720.5,838.5C 721.5,838.5 722.5,838.5 723.5,838.5C 724.574,842.919 726.908,846.586 730.5,849.5C 731.325,850.386 732.325,850.719 733.5,850.5C 733.608,852.783 734.441,854.783 736,856.5C 741.409,861.413 745.909,867.079 749.5,873.5C 750.524,874.853 751.857,875.52 753.5,875.5C 756.807,882.297 761.14,888.297 766.5,893.5C 766.833,894.5 767.5,895.167 768.5,895.5C 769.069,898.335 770.736,900.001 773.5,900.5C 777.004,906.844 781.004,912.844 785.5,918.5C 786.5,918.5 787.5,918.5 788.5,918.5C 789.563,922.912 791.896,926.579 795.5,929.5C 796.325,930.386 797.325,930.719 798.5,930.5C 798.343,931.873 798.51,933.207 799,934.5C 802.428,938.084 805.595,941.75 808.5,945.5C 809.517,947.911 811.184,949.578 813.5,950.5C 813.833,953.5 815.5,955.167 818.5,955.5C 819.044,957.58 819.878,959.58 821,961.5C 824.402,965.725 827.902,969.725 831.5,973.5C 831.5,974.833 832.167,975.5 833.5,975.5C 834.069,978.335 835.736,980.001 838.5,980.5C 838.721,982.664 839.721,984.33 841.5,985.5C 841.833,986.5 842.5,987.167 843.5,987.5C 847.77,992.902 851.77,998.569 855.5,1004.5C 856.325,1005.39 857.325,1005.72 858.5,1005.5C 858.833,1008.5 860.5,1010.17 863.5,1010.5C 863.343,1011.87 863.51,1013.21 864,1014.5C 866.784,1017.11 868.951,1020.11 870.5,1023.5C 871.5,1023.5 872.5,1023.5 873.5,1023.5C 874.574,1027.92 876.908,1031.59 880.5,1034.5C 881.325,1035.39 882.325,1035.72 883.5,1035.5C 884.362,1038.89 886.028,1041.89 888.5,1044.5C 885.789,1047.52 882.456,1049.52 878.5,1050.5C 878.5,1051.5 878.5,1052.5 878.5,1053.5C 873.335,1055.52 868.335,1057.85 863.5,1060.5C 863.5,1061.5 863.5,1062.5 863.5,1063.5C 862.127,1063.34 860.793,1063.51 859.5,1064C 856.112,1067.02 852.445,1069.52 848.5,1071.5C 847.167,1071.5 846.5,1072.17 846.5,1073.5C 843.975,1074.64 841.308,1075.31 838.5,1075.5C 838.5,1076.5 838.5,1077.5 838.5,1078.5C 835.368,1078.78 832.368,1079.62 829.5,1081C 818.833,1086.67 808.167,1092.33 797.5,1098C 795.5,1098.33 793.5,1098.67 791.5,1099C 775.5,1106.35 758.833,1112.01 741.5,1116C 741.043,1116.41 740.709,1116.91 740.5,1117.5C 734.213,1118.96 727.88,1120.13 721.5,1121C 720.833,1121.67 720.167,1122.33 719.5,1123C 711.848,1124.11 704.181,1125.11 696.5,1126C 695.833,1126.67 695.167,1127.33 694.5,1128C 680.87,1129.48 667.203,1130.48 653.5,1131C 652.692,1131.31 652.025,1131.81 651.5,1132.5C 632.833,1133.83 614.167,1133.83 595.5,1132.5C 594.975,1131.81 594.308,1131.31 593.5,1131C 579.655,1130.9 565.988,1129.9 552.5,1128C 551.833,1127.33 551.167,1126.67 550.5,1126C 542.371,1125.48 534.371,1124.48 526.5,1123C 526.043,1122.59 525.709,1122.09 525.5,1121.5C 519.198,1120.14 512.864,1118.97 506.5,1118C 506.043,1117.59 505.709,1117.09 505.5,1116.5C 496.317,1114.35 487.317,1111.69 478.5,1108.5C 479.031,1104.09 480.531,1100.09 483,1096.5C 489.069,1080.13 495.069,1063.8 501,1047.5C 503.563,1043.59 505.23,1039.26 506,1034.5C 507.771,1032.42 509.104,1030.08 510,1027.5C 510.333,1025.5 510.667,1023.5 511,1021.5C 514.006,1015.11 517.006,1008.78 520,1002.5C 520.497,1000.19 520.663,997.857 520.5,995.5C 521.5,995.5 522.5,995.5 523.5,995.5C 526.207,987.295 528.54,978.961 530.5,970.5C 531.5,970.5 532.5,970.5 533.5,970.5C 534.395,966.55 535.395,962.55 536.5,958.5C 539.84,949.594 543.674,940.927 548,932.5C 548.333,930.5 548.667,928.5 549,926.5C 553.297,915.399 557.964,904.399 563,893.5C 564.149,890.221 564.982,886.887 565.5,883.5C 567.262,882.738 568.262,881.404 568.5,879.5C 571.957,872.571 574.29,865.238 575.5,857.5C 576.833,857.5 577.5,856.833 577.5,855.5C 579.055,852.424 580.055,849.091 580.5,845.5C 581.5,845.167 582.167,844.5 582.5,843.5C 584.128,839.126 585.961,834.793 588,830.5C 588.494,828.866 588.66,827.199 588.5,825.5C 589.833,825.5 590.5,824.833 590.5,823.5C 591.657,819.779 593.157,816.113 595,812.5C 595.497,810.19 595.663,807.857 595.5,805.5C 596.5,805.5 597.5,805.5 598.5,805.5C 601.207,797.295 603.54,788.961 605.5,780.5C 606.5,780.5 607.5,780.5 608.5,780.5C 609.395,776.55 610.395,772.55 611.5,768.5C 614.84,759.594 618.674,750.927 623,742.5C 623.992,736.341 626.158,730.675 629.5,725.5C 630.93,727.386 632.597,729.053 634.5,730.5C 635.386,731.325 635.719,732.325 635.5,733.5C 636.5,733.5 637.5,733.5 638.5,733.5C 639.563,737.912 641.896,741.579 645.5,744.5C 646.325,745.386 647.325,745.719 648.5,745.5C 648.343,746.873 648.51,748.207 649,749.5C 652.428,753.084 655.595,756.75 658.5,760.5 Z"/></g>
<g><path style="opacity:0.005" fill="#000000" d="M 633.5,671.5 C 634.833,671.5 635.5,672.167 635.5,673.5C 634.5,673.167 633.833,672.5 633.5,671.5 Z"/></g>
<g><path style="opacity:0.007" fill="#000000" d="M 605.5,683.5 C 605.167,684.5 604.5,685.167 603.5,685.5C 603.5,684.167 604.167,683.5 605.5,683.5 Z"/></g>
<g><path style="opacity:0.012" fill="#303030" d="M 535.5,683.5 C 535.573,685.027 534.906,686.027 533.5,686.5C 533.427,684.973 534.094,683.973 535.5,683.5 Z"/></g>
<g><path style="opacity:0.005" fill="#000000" d="M 600.5,696.5 C 600.167,697.5 599.5,698.167 598.5,698.5C 598.5,697.167 599.167,696.5 600.5,696.5 Z"/></g>
<g><path style="opacity:0.012" fill="#303030" d="M 595.5,708.5 C 595.573,710.027 594.906,711.027 593.5,711.5C 593.427,709.973 594.094,708.973 595.5,708.5 Z"/></g>
<g><path style="opacity:0.007" fill="#000000" d="M 565.5,710.5 C 565.167,711.5 564.5,712.167 563.5,712.5C 563.5,711.167 564.167,710.5 565.5,710.5 Z"/></g>
<g><path style="opacity:0.005" fill="#000000" d="M 555.5,735.5 C 555.5,736.833 554.833,737.5 553.5,737.5C 553.833,736.5 554.5,735.833 555.5,735.5 Z"/></g>
<g><path style="opacity:0.007" fill="#000000" d="M 550.5,748.5 C 550.5,749.833 549.833,750.5 548.5,750.5C 548.833,749.5 549.5,748.833 550.5,748.5 Z"/></g>
<g><path style="opacity:0.005" fill="#000000" d="M 703.5,756.5 C 704.833,756.5 705.5,757.167 705.5,758.5C 704.5,758.167 703.833,757.5 703.5,756.5 Z"/></g>
<g><path style="opacity:0.016" fill="#222222" d="M 793.5,756.5 C 794.5,756.833 795.167,757.5 795.5,758.5C 794.167,758.5 793.5,757.833 793.5,756.5 Z"/></g>
<g><path style="opacity:0.007" fill="#000000" d="M 746.5,758.5 C 747.833,758.5 748.5,759.167 748.5,760.5C 747.5,760.167 746.833,759.5 746.5,758.5 Z"/></g>
<g><path style="opacity:0.047" fill="#4b4b4b" d="M 658.5,760.5 C 659.5,760.5 660.5,760.5 661.5,760.5C 661.392,762.514 662.058,764.18 663.5,765.5C 661.184,764.578 659.517,762.911 658.5,760.5 Z"/></g>
<g><path style="opacity:0.027" fill="#393939" d="M 498.5,778.5 C 498.5,780.5 497.5,781.5 495.5,781.5C 496.167,780.167 497.167,779.167 498.5,778.5 Z"/></g>
<g><path style="opacity:0.039" fill="#3b3b3b" d="M 567.5,778.5 C 567.715,780.179 567.048,781.179 565.5,781.5C 565.932,780.29 566.599,779.29 567.5,778.5 Z"/></g>
<g><path style="opacity:0.005" fill="#000000" d="M 681.5,788.5 C 682.5,788.833 683.167,789.5 683.5,790.5C 682.167,790.5 681.5,789.833 681.5,788.5 Z"/></g>
<g><path style="opacity:0.007" fill="#000000" d="M 735.5,796.5 C 736.833,796.5 737.5,797.167 737.5,798.5C 736.5,798.167 735.833,797.5 735.5,796.5 Z"/></g>
<g><path style="opacity:0.016" fill="#222222" d="M 691.5,800.5 C 692.833,800.5 693.5,801.167 693.5,802.5C 692.5,802.167 691.833,801.5 691.5,800.5 Z"/></g>
<g><path style="opacity:0.018" fill="#3a3a3a" d="M 1108.5,803.5 C 1108.5,805.5 1107.5,806.5 1105.5,806.5C 1105.86,804.81 1106.86,803.81 1108.5,803.5 Z"/></g>
<g><path style="opacity:0.027" fill="#393939" d="M 558.5,803.5 C 558.5,805.5 557.5,806.5 555.5,806.5C 556.167,805.167 557.167,804.167 558.5,803.5 Z"/></g>
<g><path style="opacity:0.007" fill="#000000" d="M 835.5,808.5 C 836.833,808.5 837.5,809.167 837.5,810.5C 836.5,810.167 835.833,809.5 835.5,808.5 Z"/></g>
<g><path style="opacity:0.016" fill="#363636" d="M 160.5,811.5 C 162.027,811.427 163.027,812.094 163.5,813.5C 161.973,813.573 160.973,812.906 160.5,811.5 Z"/></g>
<g><path style="opacity:0.008" fill="#1c1c1c" d="M 590.5,823.5 C 590.5,824.833 589.833,825.5 588.5,825.5C 588.833,824.5 589.5,823.833 590.5,823.5 Z"/></g>
<g><path style="opacity:0.016" fill="#222222" d="M 171.5,830.5 C 172.833,830.5 173.5,831.167 173.5,832.5C 172.5,832.167 171.833,831.5 171.5,830.5 Z"/></g>
<g><path style="opacity:0.005" fill="#000000" d="M 768.5,836.5 C 769.5,836.833 770.167,837.5 770.5,838.5C 769.167,838.5 768.5,837.833 768.5,836.5 Z"/></g>
<g><path style="opacity:0.012" fill="#373737" d="M 513.5,842.5 C 513.068,843.71 512.401,844.71 511.5,845.5C 511.285,843.821 511.952,842.821 513.5,842.5 Z"/></g>
<g><path style="opacity:0.007" fill="#000000" d="M 582.5,843.5 C 582.167,844.5 581.5,845.167 580.5,845.5C 580.5,844.167 581.167,843.5 582.5,843.5 Z"/></g>
<g><path style="opacity:0.016" fill="#222222" d="M 821.5,850.5 C 822.833,850.5 823.5,851.167 823.5,852.5C 822.5,852.167 821.833,851.5 821.5,850.5 Z"/></g>
<g><path style="opacity:0.008" fill="#000000" d="M 577.5,855.5 C 577.5,856.833 576.833,857.5 575.5,857.5C 575.833,856.5 576.5,855.833 577.5,855.5 Z"/></g>
<g><path style="opacity:0.005" fill="#000000" d="M 465.5,861.5 C 465.167,862.5 464.5,863.167 463.5,863.5C 463.5,862.167 464.167,861.5 465.5,861.5 Z"/></g>
<g><path style="opacity:0.007" fill="#000000" d="M 530.5,873.5 C 530.167,874.5 529.5,875.167 528.5,875.5C 528.5,874.167 529.167,873.5 530.5,873.5 Z"/></g>
<g><path style="opacity:0.016" fill="#363636" d="M 200.5,876.5 C 202.027,876.427 203.027,877.094 203.5,878.5C 201.973,878.573 200.973,877.906 200.5,876.5 Z"/></g>
<g><path style="opacity:0.026" fill="#4b4b4b" d="M 568.5,879.5 C 568.262,881.404 567.262,882.738 565.5,883.5C 565.088,881.027 566.088,879.694 568.5,879.5 Z"/></g>
<g><path style="opacity:0.005" fill="#000000" d="M 525.5,886.5 C 525.167,887.5 524.5,888.167 523.5,888.5C 523.5,887.167 524.167,886.5 525.5,886.5 Z"/></g>
<g><path style="opacity:0.005" fill="#000000" d="M 766.5,893.5 C 767.833,893.5 768.5,894.167 768.5,895.5C 767.5,895.167 766.833,894.5 766.5,893.5 Z"/></g>
<g><path style="opacity:0.012" fill="#303030" d="M 520.5,898.5 C 520.573,900.027 519.906,901.027 518.5,901.5C 518.427,899.973 519.094,898.973 520.5,898.5 Z"/></g>
<g><path style="opacity:0.094" fill="#595959" d="M 253.5,937.5 C 257.367,937.699 259.7,939.699 260.5,943.5C 258.952,943.179 258.285,942.179 258.5,940.5C 256.336,940.279 254.67,939.279 253.5,937.5 Z"/></g>
<g><path style="opacity:0.005" fill="#000000" d="M 853.5,941.5 C 854.833,941.5 855.5,942.167 855.5,943.5C 854.5,943.167 853.833,942.5 853.5,941.5 Z"/></g>
<g><path style="opacity:0.018" fill="#4d4d4d" d="M 474.5,939.5 C 473.659,941.379 473.325,943.379 473.5,945.5C 472.5,945.5 471.5,945.5 470.5,945.5C 471.638,943.279 472.972,941.279 474.5,939.5 Z"/></g>
<g><path style="opacity:0.005" fill="#000000" d="M 896.5,943.5 C 897.833,943.5 898.5,944.167 898.5,945.5C 897.5,945.167 896.833,944.5 896.5,943.5 Z"/></g>
<g><path style="opacity:0.018" fill="#393939" d="M 433.5,943.5 C 433.5,944.833 432.833,945.5 431.5,945.5C 431.5,944.167 432.167,943.5 433.5,943.5 Z"/></g>
<g><path style="opacity:0.047" fill="#4b4b4b" d="M 808.5,945.5 C 809.5,945.5 810.5,945.5 811.5,945.5C 811.392,947.514 812.058,949.18 813.5,950.5C 811.184,949.578 809.517,947.911 808.5,945.5 Z"/></g>
<g><path style="opacity:0.031" fill="#383838" d="M 899.5,947.5 C 901.048,947.821 901.715,948.821 901.5,950.5C 900.599,949.71 899.932,948.71 899.5,947.5 Z"/></g>
<g><path style="opacity:0.005" fill="#000000" d="M 296.5,973.5 C 297.5,973.833 298.167,974.5 298.5,975.5C 297.167,975.5 296.5,974.833 296.5,973.5 Z"/></g>
<g><path style="opacity:0.005" fill="#000000" d="M 831.5,973.5 C 832.5,973.833 833.167,974.5 833.5,975.5C 832.167,975.5 831.5,974.833 831.5,973.5 Z"/></g>
<g><path style="opacity:0.018" fill="#454545" d="M 993.5,978.5 C 993.001,981.264 991.335,982.931 988.5,983.5C 989.785,981.548 991.451,979.882 993.5,978.5 Z"/></g>
<g><path style="opacity:0.016" fill="#363636" d="M 376.5,980.5 C 377.906,980.973 378.573,981.973 378.5,983.5C 377.094,983.027 376.427,982.027 376.5,980.5 Z"/></g>
<g><path style="opacity:0.016" fill="#222222" d="M 841.5,985.5 C 842.833,985.5 843.5,986.167 843.5,987.5C 842.5,987.167 841.833,986.5 841.5,985.5 Z"/></g>
<g><path style="opacity:0.027" fill="#393939" d="M 483.5,993.5 C 483.5,995.5 482.5,996.5 480.5,996.5C 481.167,995.167 482.167,994.167 483.5,993.5 Z"/></g>
<g><path style="opacity:0.007" fill="#000000" d="M 447.5,1008.5 C 447.167,1009.5 446.5,1010.17 445.5,1010.5C 445.5,1009.17 446.167,1008.5 447.5,1008.5 Z"/></g>
<g><path style="opacity:0.008" fill="#000000" d="M 442.5,1020.5 C 442.5,1021.83 441.833,1022.5 440.5,1022.5C 440.833,1021.5 441.5,1020.83 442.5,1020.5 Z"/></g>
<g><path style="opacity:0.031" fill="#3b3b3b" d="M 434.5,1035.5 C 434.068,1036.71 433.401,1037.71 432.5,1038.5C 432.285,1036.82 432.952,1035.82 434.5,1035.5 Z"/></g>
<g><path style="opacity:0.007" fill="#000000" d="M 848.5,1071.5 C 848.167,1072.5 847.5,1073.17 846.5,1073.5C 846.5,1072.17 847.167,1071.5 848.5,1071.5 Z"/></g>
<g><path style="opacity:0.005" fill="#000000" d="M 450.5,1076.5 C 450.167,1077.5 449.5,1078.17 448.5,1078.5C 448.5,1077.17 449.167,1076.5 450.5,1076.5 Z"/></g>
<g><path style="opacity:0.012" fill="#303030" d="M 445.5,1088.5 C 445.573,1090.03 444.906,1091.03 443.5,1091.5C 443.427,1089.97 444.094,1088.97 445.5,1088.5 Z"/></g>
<g><path style="opacity:0.053" fill="#393939" d="M 880.5,1095.5 C 879.833,1096.83 878.833,1097.83 877.5,1098.5C 877.5,1097.5 877.5,1096.5 877.5,1095.5C 878.5,1095.5 879.5,1095.5 880.5,1095.5 Z"/></g>
<g><path style="opacity:0.071" fill="#444444" d="M 870.5,1102.5 C 868.78,1103.31 867.113,1104.31 865.5,1105.5C 865.5,1104.5 865.5,1103.5 865.5,1102.5C 867.167,1102.5 868.833,1102.5 870.5,1102.5 Z"/></g>
<g><path style="opacity:0.016" fill="#222222" d="M 445.5,1135.5 C 446.833,1135.5 447.5,1136.17 447.5,1137.5C 446.5,1137.17 445.833,1136.5 445.5,1135.5 Z"/></g>
<g><path style="opacity:0.016" fill="#222222" d="M 491.5,1150.5 C 492.833,1150.5 493.5,1151.17 493.5,1152.5C 492.5,1152.17 491.833,1151.5 491.5,1150.5 Z"/></g>
<g><path style="opacity:0.042" fill="#434343" d="M 755.5,1150.5 C 754.599,1152.73 752.933,1153.73 750.5,1153.5C 751.401,1151.27 753.067,1150.27 755.5,1150.5 Z"/></g>
</svg>
