<?xml version="1.0" encoding="UTF-8"?>
<!DOCTYPE svg PUBLIC "-//W3C//DTD SVG 1.1//EN" "http://www.w3.org/Graphics/SVG/1.1/DTD/svg11.dtd">
<svg xmlns="http://www.w3.org/2000/svg" version="1.1" width="1280px" height="1280px" style="shape-rendering:geometricPrecision; text-rendering:geometricPrecision; image-rendering:optimizeQuality; fill-rule:evenodd; clip-rule:evenodd" xmlns:xlink="http://www.w3.org/1999/xlink">
<g><path style="opacity:0.994" fill="#7b7b7b" d="M 8.5,-0.5 C 191.833,-0.5 375.167,-0.5 558.5,-0.5C 559.806,0.46739 560.473,1.80072 560.5,3.5C 562.143,3.48015 563.476,4.14682 564.5,5.5C 564.833,97.1667 565.167,188.833 565.5,280.5C 565.493,373.27 564.826,465.937 563.5,558.5C 560.5,558.833 558.833,560.5 558.5,563.5C 465.937,564.826 373.27,565.493 280.5,565.5C 188.833,565.167 97.1667,564.833 5.5,564.5C 4.14682,563.476 3.48015,562.143 3.5,560.5C 1.80072,560.473 0.46739,559.806 -0.5,558.5C -0.5,375.167 -0.5,191.833 -0.5,8.5C 0.403972,7.79105 0.737305,6.79105 0.5,5.5C 3.5,5.16667 5.16667,3.5 5.5,0.5C 6.79105,0.737305 7.79105,0.403972 8.5,-0.5 Z"/></g>
<g><path style="opacity:0.984" fill="#7c7c7c" d="M 750.5,-0.5 C 913.167,-0.5 1075.83,-0.5 1238.5,-0.5C 1239.92,0.451145 1241.59,0.784479 1243.5,0.5C 1243.5,1.5 1243.5,2.5 1243.5,3.5C 1247.49,3.01137 1249.82,4.67804 1250.5,8.5C 1253.02,9.64002 1255.69,10.3067 1258.5,10.5C 1259.64,13.0248 1260.31,15.6915 1260.5,18.5C 1263.5,18.8333 1265.17,20.5 1265.5,23.5C 1266.5,23.5 1267.5,23.5 1268.5,23.5C 1269.17,26.8333 1269.83,30.1667 1270.5,33.5C 1271.5,33.5 1272.5,33.5 1273.5,33.5C 1274.81,38.3939 1275.48,43.3939 1275.5,48.5C 1276.5,48.5 1277.5,48.5 1278.5,48.5C 1278.22,50.4147 1278.55,52.0813 1279.5,53.5C 1279.5,206.833 1279.5,360.167 1279.5,513.5C 1278.55,514.919 1278.22,516.585 1278.5,518.5C 1276.86,518.48 1275.52,519.147 1274.5,520.5C 1273.52,523.086 1273.19,525.753 1273.5,528.5C 1272.5,528.5 1271.5,528.5 1270.5,528.5C 1269.83,531.833 1269.17,535.167 1268.5,538.5C 1265.5,538.833 1263.83,540.5 1263.5,543.5C 1262.5,543.5 1261.5,543.5 1260.5,543.5C 1260.83,548.5 1258.5,550.833 1253.5,550.5C 1253.5,551.5 1253.5,552.5 1253.5,553.5C 1250.5,553.833 1248.83,555.5 1248.5,558.5C 1245.17,559.167 1241.83,559.833 1238.5,560.5C 1238.5,561.5 1238.5,562.5 1238.5,563.5C 1233.61,564.811 1228.61,565.477 1223.5,565.5C 1223.5,566.5 1223.5,567.5 1223.5,568.5C 1070.83,568.5 918.167,568.5 765.5,568.5C 765.5,567.5 765.5,566.5 765.5,565.5C 760.526,564.674 755.526,564.007 750.5,563.5C 750.5,562.5 750.5,561.5 750.5,560.5C 747.167,559.833 743.833,559.167 740.5,558.5C 740.167,555.5 738.5,553.833 735.5,553.5C 735.5,552.5 735.5,551.5 735.5,550.5C 730.5,550.833 728.167,548.5 728.5,543.5C 727.5,543.5 726.5,543.5 725.5,543.5C 725.167,540.5 723.5,538.833 720.5,538.5C 719.833,535.167 719.167,531.833 718.5,528.5C 717.5,528.5 716.5,528.5 715.5,528.5C 714.189,523.606 713.523,518.606 713.5,513.5C 712.5,513.5 711.5,513.5 710.5,513.5C 710.5,358.5 710.5,203.5 710.5,48.5C 711.5,48.5 712.5,48.5 713.5,48.5C 714.007,43.4739 714.674,38.4739 715.5,33.5C 716.5,33.5 717.5,33.5 718.5,33.5C 719.167,30.1667 719.833,26.8333 720.5,23.5C 721.5,23.5 722.5,23.5 723.5,23.5C 723.833,20.5 725.5,18.8333 728.5,18.5C 728.693,15.6915 729.36,13.0248 730.5,10.5C 733.308,10.3067 735.975,9.64002 738.5,8.5C 739.18,4.67804 741.513,3.01137 745.5,3.5C 745.5,2.5 745.5,1.5 745.5,0.5C 747.415,0.784479 749.081,0.451145 750.5,-0.5 Z"/></g>
<g><path style="opacity:1" fill="#878787" d="M 1212.5,53.5 C 1210.96,52.6993 1209.29,52.366 1207.5,52.5C 1207.5,51.5 1207.5,50.5 1207.5,49.5C 1205.83,49.5 1204.17,49.5 1202.5,49.5C 1202.5,48.5 1202.5,47.5 1202.5,46.5C 1196.46,45.4979 1190.46,44.4979 1184.5,43.5C 1122.34,42.1667 1059.84,41.5 997,41.5C 934.163,41.5 871.663,42.1667 809.5,43.5C 805.73,43.998 802.063,44.998 798.5,46.5C 798.414,45.5041 798.748,44.6708 799.5,44C 802.482,43.502 805.482,43.3354 808.5,43.5C 808.5,42.5 808.5,41.5 808.5,40.5C 934.167,40.5 1059.83,40.5 1185.5,40.5C 1185.5,41.5 1185.5,42.5 1185.5,43.5C 1191.63,43.6889 1197.63,44.3556 1203.5,45.5C 1203.5,46.5 1203.5,47.5 1203.5,48.5C 1206.39,48.5564 1209.06,49.3897 1211.5,51C 1212.25,51.6708 1212.59,52.5041 1212.5,53.5 Z"/></g>
<g><path style="opacity:1" fill="#adadad" d="M 1184.5,43.5 C 1059.5,42.1667 934.5,42.1667 809.5,43.5C 871.663,42.1667 934.163,41.5 997,41.5C 1059.84,41.5 1122.34,42.1667 1184.5,43.5 Z"/></g>
<g><path style="opacity:1" fill="#e2e2e2" d="M 1184.5,43.5 C 1190.46,44.4979 1196.46,45.4979 1202.5,46.5C 1202.5,47.5 1202.5,48.5 1202.5,49.5C 1204.17,49.5 1205.83,49.5 1207.5,49.5C 1207.5,50.5 1207.5,51.5 1207.5,52.5C 1209.29,52.366 1210.96,52.6993 1212.5,53.5C 1212.83,54.1667 1213.17,54.8333 1213.5,55.5C 1208.59,54.3716 1204.26,52.205 1200.5,49C 1194.59,48.4377 1188.92,47.1044 1183.5,45C 1059.17,44.3333 934.833,44.3333 810.5,45C 803.859,47.1887 797.193,49.0221 790.5,50.5C 791.568,49.5655 792.901,49.2322 794.5,49.5C 794.5,48.5 794.5,47.5 794.5,46.5C 795.833,46.5 797.167,46.5 798.5,46.5C 802.063,44.998 805.73,43.998 809.5,43.5C 934.5,42.1667 1059.5,42.1667 1184.5,43.5 Z"/></g>
<g><path style="opacity:1" fill="#fefefe" d="M 1213.5,55.5 C 1214.52,58.8431 1216.85,60.8431 1220.5,61.5C 1222.33,64.4161 1224.67,66.7494 1227.5,68.5C 1227.83,69.1667 1228.17,69.8333 1228.5,70.5C 1232.13,78.7177 1235.3,87.0511 1238,95.5C 1238.5,220.166 1238.67,344.833 1238.5,469.5C 1238.55,475.352 1237.89,481.019 1236.5,486.5C 1235.26,488.608 1233.76,490.608 1232,492.5C 1231.51,493.793 1231.34,495.127 1231.5,496.5C 1228.8,498.221 1226.13,499.888 1223.5,501.5C 1223.83,506.5 1221.5,508.833 1216.5,508.5C 1215.62,511.061 1214.28,513.394 1212.5,515.5C 1208.94,516.857 1205.27,517.857 1201.5,518.5C 1201.5,519.5 1201.5,520.5 1201.5,521.5C 1196.39,522.522 1191.39,523.522 1186.5,524.5C 1061.5,524.5 936.5,524.5 811.5,524.5C 801.688,521.294 792.021,517.627 782.5,513.5C 779.833,511.5 777.5,509.167 775.5,506.5C 775.405,503.642 774.238,501.309 772,499.5C 770.644,498.62 769.144,498.286 767.5,498.5C 766.525,494.203 764.525,490.536 761.5,487.5C 760.659,485.621 760.325,483.621 760.5,481.5C 759.5,481.5 758.5,481.5 757.5,481.5C 757.5,478.167 757.5,474.833 757.5,471.5C 757.5,347.5 757.5,223.5 757.5,99.5C 757.446,93.648 758.112,87.9813 759.5,82.5C 759.842,81.6618 760.508,81.3284 761.5,81.5C 764.525,78.4637 766.525,74.7971 767.5,70.5C 770.069,70.2623 771.735,68.929 772.5,66.5C 772.343,65.1266 772.51,63.7932 773,62.5C 775.231,60.3757 777.731,58.709 780.5,57.5C 783.485,55.838 786.152,53.838 788.5,51.5C 789.167,51.1667 789.833,50.8333 790.5,50.5C 797.193,49.0221 803.859,47.1887 810.5,45C 934.833,44.3333 1059.17,44.3333 1183.5,45C 1188.92,47.1044 1194.59,48.4377 1200.5,49C 1204.26,52.205 1208.59,54.3716 1213.5,55.5 Z"/></g>
<g><path style="opacity:1" fill="#bebebe" d="M 788.5,51.5 C 786.152,53.838 783.485,55.838 780.5,57.5C 782.352,54.3024 785.019,52.3024 788.5,51.5 Z"/></g>
<g><path style="opacity:1" fill="#d1d1d1" d="M 1213.5,55.5 C 1216.24,58.0881 1219.24,60.2547 1222.5,62C 1223.45,62.4828 1224.45,62.6495 1225.5,62.5C 1225.61,64.7179 1226.28,66.7179 1227.5,68.5C 1224.67,66.7494 1222.33,64.4161 1220.5,61.5C 1216.85,60.8431 1214.52,58.8431 1213.5,55.5 Z"/></g>
<g><path style="opacity:1" fill="#989898" d="M 1227.5,68.5 C 1229.31,69.6298 1231.31,70.2964 1233.5,70.5C 1234.3,74.5603 1235.3,78.5603 1236.5,82.5C 1233.44,78.7701 1230.77,74.7701 1228.5,70.5C 1228.17,69.8333 1227.83,69.1667 1227.5,68.5 Z"/></g>
<g><path style="opacity:1" fill="#d0d0d0" d="M 772.5,66.5 C 771.735,68.929 770.069,70.2623 767.5,70.5C 766.525,74.7971 764.525,78.4637 761.5,81.5C 761.5,79.8333 761.5,78.1667 761.5,76.5C 762.5,76.5 763.5,76.5 764.5,76.5C 764.215,74.712 764.548,73.0453 765.5,71.5C 767.816,69.6265 770.15,67.9598 772.5,66.5 Z"/></g>
<g><path style="opacity:1" fill="#868686" d="M 1242.5,97.5 C 1243.5,221.666 1243.83,345.999 1243.5,470.5C 1242.5,470.5 1241.5,470.5 1240.5,470.5C 1240.81,473.385 1240.47,476.052 1239.5,478.5C 1239.5,475.5 1239.5,472.5 1239.5,469.5C 1239.83,469.5 1240.17,469.5 1240.5,469.5C 1240.83,469.5 1241.17,469.5 1241.5,469.5C 1242.5,345.668 1242.83,221.668 1242.5,97.5 Z"/></g>
<g><path style="opacity:1" fill="#f0f0f0" d="M 1228.5,70.5 C 1230.77,74.7701 1233.44,78.7701 1236.5,82.5C 1238.88,86.7458 1239.88,91.4125 1239.5,96.5C 1240.5,220.793 1240.83,345.126 1240.5,469.5C 1240.17,469.5 1239.83,469.5 1239.5,469.5C 1239.17,469.5 1238.83,469.5 1238.5,469.5C 1238.67,344.833 1238.5,220.166 1238,95.5C 1235.3,87.0511 1232.13,78.7177 1228.5,70.5 Z"/></g>
<g><path style="opacity:1" fill="#d7d7d7" d="M 1239.5,96.5 C 1239.83,96.5 1240.17,96.5 1240.5,96.5C 1241.5,220.763 1241.83,345.097 1241.5,469.5C 1241.17,469.5 1240.83,469.5 1240.5,469.5C 1240.83,345.126 1240.5,220.793 1239.5,96.5 Z"/></g>
<g><path style="opacity:1" fill="#aeaeae" d="M 1240.5,96.5 C 1241.49,96.3284 1242.16,96.6618 1242.5,97.5C 1242.83,221.668 1242.5,345.668 1241.5,469.5C 1241.83,345.097 1241.5,220.763 1240.5,96.5 Z"/></g>
<g><path style="opacity:1" fill="#999999" d="M 759.5,82.5 C 758.112,87.9813 757.446,93.648 757.5,99.5C 756.508,99.3284 755.842,99.6618 755.5,100.5C 754.5,223.999 754.167,347.666 754.5,471.5C 753.334,347.667 753.167,223.667 754,99.5C 755.415,96.0418 755.915,92.3751 755.5,88.5C 756.5,88.5 757.5,88.5 758.5,88.5C 758.205,86.2646 758.539,84.2646 759.5,82.5 Z"/></g>
<g><path style="opacity:1" fill="#c1c1c1" d="M 755.5,100.5 C 754.835,224.504 755.502,348.171 757.5,471.5C 757.5,474.833 757.5,478.167 757.5,481.5C 758.5,481.5 759.5,481.5 760.5,481.5C 760.325,483.621 760.659,485.621 761.5,487.5C 759.744,486.448 759.077,484.781 759.5,482.5C 758.5,482.5 757.5,482.5 756.5,482.5C 756.964,478.498 756.298,474.831 754.5,471.5C 754.167,347.666 754.5,223.999 755.5,100.5 Z"/></g>
<g><path style="opacity:1" fill="#e7e7e7" d="M 757.5,99.5 C 757.5,223.5 757.5,347.5 757.5,471.5C 755.502,348.171 754.835,224.504 755.5,100.5C 755.842,99.6618 756.508,99.3284 757.5,99.5 Z"/></g>
<g><path style="opacity:1" fill="#c0c0c0" d="M 1238.5,469.5 C 1238.83,469.5 1239.17,469.5 1239.5,469.5C 1239.5,472.5 1239.5,475.5 1239.5,478.5C 1238.08,481.061 1237.08,483.728 1236.5,486.5C 1237.89,481.019 1238.55,475.352 1238.5,469.5 Z"/></g>
<g><path style="opacity:1" fill="#dadada" d="M 761.5,487.5 C 764.525,490.536 766.525,494.203 767.5,498.5C 769.144,498.286 770.644,498.62 772,499.5C 774.238,501.309 775.405,503.642 775.5,506.5C 772.187,503.522 768.853,500.522 765.5,497.5C 764.548,495.955 764.215,494.288 764.5,492.5C 763.5,492.5 762.5,492.5 761.5,492.5C 761.5,490.833 761.5,489.167 761.5,487.5 Z"/></g>
<g><path style="opacity:1" fill="#a5a5a5" d="M 1231.5,496.5 C 1230.77,497.708 1230.43,499.041 1230.5,500.5C 1226.47,501.506 1224.8,504.173 1225.5,508.5C 1222.83,509.366 1220.17,510.366 1217.5,511.5C 1216.23,513.451 1214.56,514.785 1212.5,515.5C 1214.28,513.394 1215.62,511.061 1216.5,508.5C 1221.5,508.833 1223.83,506.5 1223.5,501.5C 1226.13,499.888 1228.8,498.221 1231.5,496.5 Z"/></g>
<g><path style="opacity:1" fill="#dcdcdc" d="M 782.5,513.5 C 792.021,517.627 801.688,521.294 811.5,524.5C 808.167,524.5 804.833,524.5 801.5,524.5C 801.5,523.5 801.5,522.5 801.5,521.5C 795.67,520.726 790.003,519.059 784.5,516.5C 783.807,515.482 783.141,514.482 782.5,513.5 Z"/></g>
<g><path style="opacity:1" fill="#dddddd" d="M 811.5,525.5 C 811.5,525.167 811.5,524.833 811.5,524.5C 936.5,524.5 1061.5,524.5 1186.5,524.5C 1124.5,525.833 1062.17,526.5 999.5,526.5C 936.763,526.498 874.097,526.165 811.5,525.5 Z"/></g>
<g><path style="opacity:1" fill="#aeaeae" d="M 1212.5,515.5 C 1211.45,517.256 1209.78,517.923 1207.5,517.5C 1207.5,518.5 1207.5,519.5 1207.5,520.5C 1206.17,520.5 1204.83,520.5 1203.5,520.5C 1203.5,521.5 1203.5,522.5 1203.5,523.5C 1198.17,524.366 1192.84,525.366 1187.5,526.5C 1124.83,526.833 1062.17,527.167 999.5,527.5C 936.496,527.5 873.83,526.833 811.5,525.5C 874.097,526.165 936.763,526.498 999.5,526.5C 1062.17,526.5 1124.5,525.833 1186.5,524.5C 1191.39,523.522 1196.39,522.522 1201.5,521.5C 1201.5,520.5 1201.5,519.5 1201.5,518.5C 1205.27,517.857 1208.94,516.857 1212.5,515.5 Z"/></g>
<g><path style="opacity:0.986" fill="#7c7c7c" d="M 1279.5,763.5 C 1279.5,919.167 1279.5,1074.83 1279.5,1230.5C 1278.94,1232.79 1277.78,1234.79 1276,1236.5C 1275.2,1240.54 1274.37,1244.54 1273.5,1248.5C 1270.5,1248.83 1268.83,1250.5 1268.5,1253.5C 1267.5,1253.5 1266.5,1253.5 1265.5,1253.5C 1264.61,1259.3 1261.28,1262.97 1255.5,1264.5C 1254.15,1265.52 1253.48,1266.86 1253.5,1268.5C 1245.22,1272.54 1236.89,1276.21 1228.5,1279.5C 1074.17,1279.5 919.833,1279.5 765.5,1279.5C 763.393,1278.53 761.059,1278.2 758.5,1278.5C 758.5,1277.5 758.5,1276.5 758.5,1275.5C 755.167,1274.83 751.833,1274.17 748.5,1273.5C 748.5,1272.5 748.5,1271.5 748.5,1270.5C 745.692,1270.31 743.025,1269.64 740.5,1268.5C 739.82,1264.68 737.487,1263.01 733.5,1263.5C 733.5,1262.5 733.5,1261.5 733.5,1260.5C 729.678,1259.82 728.011,1257.49 728.5,1253.5C 727.5,1253.5 726.5,1253.5 725.5,1253.5C 725.167,1250.5 723.5,1248.83 720.5,1248.5C 719.357,1244.26 718.69,1239.92 718.5,1235.5C 717.5,1235.5 716.5,1235.5 715.5,1235.5C 714.187,1155.22 713.52,1074.88 713.5,994.5C 713.514,914.766 714.181,835.1 715.5,755.5C 716.5,755.5 717.5,755.5 718.5,755.5C 718.808,751.427 719.475,747.427 720.5,743.5C 721.5,743.5 722.5,743.5 723.5,743.5C 723.833,740.5 725.5,738.833 728.5,738.5C 728.693,735.692 729.36,733.025 730.5,730.5C 733.025,729.36 735.692,728.693 738.5,728.5C 738.833,725.5 740.5,723.833 743.5,723.5C 743.5,722.5 743.5,721.5 743.5,720.5C 746.833,719.833 750.167,719.167 753.5,718.5C 753.5,717.5 753.5,716.5 753.5,715.5C 758.394,714.189 763.394,713.523 768.5,713.5C 768.5,712.5 768.5,711.5 768.5,710.5C 920.167,710.5 1071.83,710.5 1223.5,710.5C 1223.5,711.5 1223.5,712.5 1223.5,713.5C 1229.22,713.779 1234.89,714.445 1240.5,715.5C 1240.5,716.5 1240.5,717.5 1240.5,718.5C 1243.83,719.167 1247.17,719.833 1250.5,720.5C 1250.5,721.5 1250.5,722.5 1250.5,723.5C 1253.5,723.833 1255.17,725.5 1255.5,728.5C 1258.31,728.693 1260.98,729.36 1263.5,730.5C 1264.64,733.025 1265.31,735.692 1265.5,738.5C 1268.5,738.833 1270.17,740.5 1270.5,743.5C 1271.5,743.5 1272.5,743.5 1273.5,743.5C 1274.17,746.833 1274.83,750.167 1275.5,753.5C 1276.5,753.5 1277.5,753.5 1278.5,753.5C 1278.19,757.042 1278.52,760.375 1279.5,763.5 Z"/></g>
<g><path style="opacity:0.987" fill="#7b7b7b" d="M 505.5,1279.5 C 354.833,1279.5 204.167,1279.5 53.5,1279.5C 51.0521,1278.53 48.3854,1278.19 45.5,1278.5C 45.5,1277.5 45.5,1276.5 45.5,1275.5C 42.1667,1274.83 38.8333,1274.17 35.5,1273.5C 35.5,1272.5 35.5,1271.5 35.5,1270.5C 31.9913,1270.54 28.658,1269.88 25.5,1268.5C 24.8203,1264.68 22.487,1263.01 18.5,1263.5C 18.5,1262.5 18.5,1261.5 18.5,1260.5C 15.5,1260.17 13.8333,1258.5 13.5,1255.5C 9.67804,1254.82 8.01137,1252.49 8.5,1248.5C 7.5,1248.5 6.5,1248.5 5.5,1248.5C 4.35998,1245.98 3.69332,1243.31 3.5,1240.5C 2.5,1240.5 1.5,1240.5 0.5,1240.5C 0.801552,1237.94 0.468218,1235.61 -0.5,1233.5C -0.5,1074.17 -0.5,914.833 -0.5,755.5C 0.468218,753.393 0.801552,751.059 0.5,748.5C 1.5,748.5 2.5,748.5 3.5,748.5C 3.69332,745.692 4.35998,743.025 5.5,740.5C 6.5,740.5 7.5,740.5 8.5,740.5C 8.01137,736.513 9.67804,734.18 13.5,733.5C 13.8333,730.5 15.5,728.833 18.5,728.5C 18.8333,725.5 20.5,723.833 23.5,723.5C 23.5,722.5 23.5,721.5 23.5,720.5C 27.0087,720.542 30.342,719.876 33.5,718.5C 33.5,717.5 33.5,716.5 33.5,715.5C 39.1109,714.445 44.7776,713.779 50.5,713.5C 50.5,712.5 50.5,711.5 50.5,710.5C 203.167,710.5 355.833,710.5 508.5,710.5C 508.5,711.5 508.5,712.5 508.5,713.5C 514.279,713.409 519.946,714.075 525.5,715.5C 525.5,716.5 525.5,717.5 525.5,718.5C 528.247,718.187 530.914,718.52 533.5,719.5C 536.656,721.415 539.989,723.081 543.5,724.5C 545.086,726.173 545.753,728.173 545.5,730.5C 546.5,730.5 547.5,730.5 548.5,730.5C 548.833,733.5 550.5,735.167 553.5,735.5C 553.5,736.5 553.5,737.5 553.5,738.5C 554.978,738.238 556.311,738.571 557.5,739.5C 558.513,743.959 560.346,747.959 563,751.5C 563.186,753.9 563.686,756.234 564.5,758.5C 564.833,836.333 565.167,914.167 565.5,992C 565.477,1072.54 564.81,1153.04 563.5,1233.5C 562.5,1233.5 561.5,1233.5 560.5,1233.5C 560.192,1237.57 559.525,1241.57 558.5,1245.5C 557.5,1245.5 556.5,1245.5 555.5,1245.5C 555.167,1248.5 553.5,1250.17 550.5,1250.5C 549.36,1253.02 548.693,1255.69 548.5,1258.5C 545.975,1259.64 543.308,1260.31 540.5,1260.5C 540.167,1263.5 538.5,1265.17 535.5,1265.5C 535.5,1266.5 535.5,1267.5 535.5,1268.5C 532.167,1269.17 528.833,1269.83 525.5,1270.5C 525.5,1271.5 525.5,1272.5 525.5,1273.5C 520.606,1274.81 515.606,1275.48 510.5,1275.5C 510.5,1276.5 510.5,1277.5 510.5,1278.5C 508.585,1278.22 506.919,1278.55 505.5,1279.5 Z"/></g>
<g><path style="opacity:1" fill="#c1c1c1" d="M 1192.5,758.5 C 1190.96,757.699 1189.29,757.366 1187.5,757.5C 1185.5,757.5 1183.5,757.5 1181.5,757.5C 1119.5,756.167 1057.17,755.5 994.5,755.5C 931.763,755.502 869.097,755.835 806.5,756.5C 868.83,755.167 931.496,754.5 994.5,754.5C 1057.17,754.833 1119.83,755.167 1182.5,755.5C 1186.26,755.896 1189.6,756.896 1192.5,758.5 Z"/></g>
<g><path style="opacity:1" fill="#e7e7e7" d="M 1181.5,757.5 C 1053.49,757.183 925.49,757.516 797.5,758.5C 799.988,756.612 802.988,755.945 806.5,756.5C 869.097,755.835 931.763,755.502 994.5,755.5C 1057.17,755.5 1119.5,756.167 1181.5,757.5 Z"/></g>
<g><path style="opacity:1" fill="#fefefe" d="M 1181.5,757.5 C 1183.5,757.5 1185.5,757.5 1187.5,757.5C 1196.26,761.434 1204.93,765.768 1213.5,770.5C 1213.5,771.5 1213.5,772.5 1213.5,773.5C 1217.5,774.167 1219.83,776.5 1220.5,780.5C 1221.5,780.5 1222.5,780.5 1223.5,780.5C 1228.3,783.997 1231.3,788.664 1232.5,794.5C 1232.95,799.968 1234.12,805.301 1236,810.5C 1236.5,934.166 1236.67,1057.83 1236.5,1181.5C 1236.81,1185.04 1236.48,1188.38 1235.5,1191.5C 1233,1197.75 1230.33,1204.09 1227.5,1210.5C 1221.19,1216.15 1215.19,1222.15 1209.5,1228.5C 1207.71,1229.17 1206.04,1229.84 1204.5,1230.5C 1201.14,1231.56 1197.81,1232.56 1194.5,1233.5C 1190.59,1233.26 1186.92,1234.1 1183.5,1236C 1059.17,1236.67 934.833,1236.67 810.5,1236C 805.415,1235.42 800.415,1234.42 795.5,1233C 790.916,1229.87 785.916,1227.7 780.5,1226.5C 778.107,1225.65 776.774,1223.98 776.5,1221.5C 774.071,1221.12 771.737,1220.45 769.5,1219.5C 769.657,1218.13 769.49,1216.79 769,1215.5C 767.624,1214.29 766.458,1212.96 765.5,1211.5C 764.969,1208.76 764.136,1206.1 763,1203.5C 761.168,1200.8 759.335,1198.13 757.5,1195.5C 756.776,1191.5 755.943,1187.5 755,1183.5C 754.333,1060.17 754.333,936.833 755,813.5C 756.525,806.33 758.525,799.33 761,792.5C 763.887,788.857 766.054,784.857 767.5,780.5C 768.767,778.961 769.767,777.294 770.5,775.5C 772.372,774.489 774.372,773.655 776.5,773C 777.252,772.329 777.586,771.496 777.5,770.5C 781.899,766.967 786.899,764.467 792.5,763C 793.731,761.595 795.064,760.429 796.5,759.5C 797.167,759.5 797.5,759.167 797.5,758.5C 925.49,757.516 1053.49,757.183 1181.5,757.5 Z"/></g>
<g><path style="opacity:1" fill="#989898" d="M 481.5,764.5 C 476.272,763.504 470.938,762.671 465.5,762C 464.833,761.333 464.167,760.667 463.5,760C 339.167,759.333 214.833,759.333 90.5,760C 89.9558,760.717 89.2891,761.217 88.5,761.5C 88.4142,760.504 88.7476,759.671 89.5,759C 214.5,758.333 339.5,758.333 464.5,759C 467.958,760.415 471.625,760.915 475.5,760.5C 475.5,761.5 475.5,762.5 475.5,763.5C 477.735,763.205 479.735,763.539 481.5,764.5 Z"/></g>
<g><path style="opacity:1" fill="#d8d8d8" d="M 481.5,764.5 C 483.114,766.075 485.114,766.741 487.5,766.5C 487.5,767.5 487.5,768.5 487.5,769.5C 489.989,769.241 491.656,770.241 492.5,772.5C 489.456,771.15 486.456,769.65 483.5,768C 476.647,766.635 469.981,764.635 463.5,762C 339.167,761.333 214.833,761.333 90.5,762C 82.424,765.36 74.0907,768.193 65.5,770.5C 66.5676,769.566 67.901,769.232 69.5,769.5C 69.5,768.5 69.5,767.5 69.5,766.5C 72.9827,766.309 76.3161,765.643 79.5,764.5C 79.5,763.5 79.5,762.5 79.5,761.5C 82.5,761.5 85.5,761.5 88.5,761.5C 89.2891,761.217 89.9558,760.717 90.5,760C 214.833,759.333 339.167,759.333 463.5,760C 464.167,760.667 464.833,761.333 465.5,762C 470.938,762.671 476.272,763.504 481.5,764.5 Z"/></g>
<g><path style="opacity:1" fill="#dddddd" d="M 1187.5,757.5 C 1189.29,757.366 1190.96,757.699 1192.5,758.5C 1196.46,759.497 1200.46,760.497 1204.5,761.5C 1204.5,762.5 1204.5,763.5 1204.5,764.5C 1208.53,764.849 1211.53,766.849 1213.5,770.5C 1204.93,765.768 1196.26,761.434 1187.5,757.5 Z"/></g>
<g><path style="opacity:1" fill="#fefefe" d="M 492.5,772.5 C 494.404,772.738 495.738,773.738 496.5,775.5C 497.382,777.384 498.882,778.717 501,779.5C 502.122,781.42 502.956,783.42 503.5,785.5C 504.959,785.433 506.292,785.766 507.5,786.5C 507.5,787.167 507.833,787.5 508.5,787.5C 510.091,789.681 511.424,792.014 512.5,794.5C 513.887,801.064 515.721,807.397 518,813.5C 518.5,937.833 518.667,1062.17 518.5,1186.5C 518.5,1189.83 518.5,1193.17 518.5,1196.5C 517.131,1199.12 515.631,1201.79 514,1204.5C 512.869,1207.45 512.036,1210.45 511.5,1213.5C 508.043,1217.19 504.71,1220.86 501.5,1224.5C 499.989,1225.5 498.322,1226.17 496.5,1226.5C 495.956,1228.72 494.956,1230.72 493.5,1232.5C 492.833,1232.5 492.5,1232.83 492.5,1233.5C 487.374,1235.66 482.041,1237.33 476.5,1238.5C 476.5,1239.5 476.5,1240.5 476.5,1241.5C 473.167,1241.5 469.833,1241.5 466.5,1241.5C 341.833,1241.67 217.166,1241.5 92.5,1241C 87.6664,1239.27 82.6664,1238.27 77.5,1238C 71.6763,1235.06 66.0096,1231.89 60.5,1228.5C 60.5,1227.5 60.5,1226.5 60.5,1225.5C 56.5,1224.83 54.1667,1222.5 53.5,1218.5C 52.5,1218.5 51.5,1218.5 50.5,1218.5C 48.8726,1216.54 46.8726,1215.2 44.5,1214.5C 43.9215,1211.29 42.9215,1208.29 41.5,1205.5C 41.2172,1204.71 40.7172,1204.04 40,1203.5C 39.3333,1069.17 39.3333,934.833 40,800.5C 41.9361,798.963 43.1027,796.963 43.5,794.5C 45.2926,790.348 47.9593,786.681 51.5,783.5C 53.5,780.833 55.8333,778.5 58.5,776.5C 60.8333,774.5 63.1667,772.5 65.5,770.5C 74.0907,768.193 82.424,765.36 90.5,762C 214.833,761.333 339.167,761.333 463.5,762C 469.981,764.635 476.647,766.635 483.5,768C 486.456,769.65 489.456,771.15 492.5,772.5 Z"/></g>
<g><path style="opacity:1" fill="#dadada" d="M 796.5,759.5 C 795.064,760.429 793.731,761.595 792.5,763C 786.899,764.467 781.899,766.967 777.5,770.5C 779.321,766.017 782.655,764.017 787.5,764.5C 787.5,763.5 787.5,762.5 787.5,761.5C 790.436,760.594 793.436,759.928 796.5,759.5 Z"/></g>
<g><path style="opacity:1" fill="#d7d7d7" d="M 777.5,770.5 C 777.586,771.496 777.252,772.329 776.5,773C 774.372,773.655 772.372,774.489 770.5,775.5C 771.64,772.278 773.974,770.611 777.5,770.5 Z"/></g>
<g><path style="opacity:1" fill="#e4e4e4" d="M 1213.5,770.5 C 1219.17,771.5 1222.5,774.833 1223.5,780.5C 1222.5,780.5 1221.5,780.5 1220.5,780.5C 1219.83,776.5 1217.5,774.167 1213.5,773.5C 1213.5,772.5 1213.5,771.5 1213.5,770.5 Z"/></g>
<g><path style="opacity:1" fill="#b6b6b6" d="M 58.5,776.5 C 55.8333,778.5 53.5,780.833 51.5,783.5C 51.238,782.022 51.5713,780.689 52.5,779.5C 53.9512,777.441 55.9512,776.441 58.5,776.5 Z"/></g>
<g><path style="opacity:1" fill="#d8d8d8" d="M 496.5,775.5 C 498.379,776.341 500.379,776.675 502.5,776.5C 503.639,779.004 504.306,781.67 504.5,784.5C 506.179,784.285 507.179,784.952 507.5,786.5C 506.292,785.766 504.959,785.433 503.5,785.5C 502.956,783.42 502.122,781.42 501,779.5C 498.882,778.717 497.382,777.384 496.5,775.5 Z"/></g>
<g><path style="opacity:1" fill="#bebebe" d="M 508.5,787.5 C 511.552,788.777 512.885,791.11 512.5,794.5C 511.424,792.014 510.091,789.681 508.5,787.5 Z"/></g>
<g><path style="opacity:1" fill="#979797" d="M 761.5,788.5 C 759.162,792.512 757.828,796.846 757.5,801.5C 756.5,801.5 755.5,801.5 754.5,801.5C 754.5,804.833 754.5,808.167 754.5,811.5C 754.167,811.5 753.833,811.5 753.5,811.5C 753.694,805.436 754.361,799.436 755.5,793.5C 756.5,793.5 757.5,793.5 758.5,793.5C 757.916,790.715 758.916,789.048 761.5,788.5 Z"/></g>
<g><path style="opacity:1" fill="#a2a2a2" d="M 43.5,794.5 C 43.1027,796.963 41.9361,798.963 40,800.5C 39.3333,934.833 39.3333,1069.17 40,1203.5C 40.7172,1204.04 41.2172,1204.71 41.5,1205.5C 40.5041,1205.59 39.6708,1205.25 39,1204.5C 38.3333,1069.5 38.3333,934.5 39,799.5C 40.5244,797.729 42.0244,796.062 43.5,794.5 Z"/></g>
<g><path style="opacity:1" fill="#eaeaea" d="M 1232.5,794.5 C 1234.26,795.552 1234.92,797.219 1234.5,799.5C 1235.5,799.5 1236.5,799.5 1237.5,799.5C 1237.5,802.833 1237.5,806.167 1237.5,809.5C 1238.5,933.43 1238.83,1057.43 1238.5,1181.5C 1237.83,1181.5 1237.17,1181.5 1236.5,1181.5C 1236.67,1057.83 1236.5,934.166 1236,810.5C 1234.12,805.301 1232.95,799.968 1232.5,794.5 Z"/></g>
<g><path style="opacity:1" fill="#c3c3c3" d="M 1237.5,809.5 C 1238.17,809.5 1238.83,809.5 1239.5,809.5C 1239.83,933.668 1239.5,1057.67 1238.5,1181.5C 1238.83,1057.43 1238.5,933.43 1237.5,809.5 Z"/></g>
<g><path style="opacity:1" fill="#9a9a9a" d="M 1239.5,809.5 C 1240.5,933.666 1240.83,1058 1240.5,1182.5C 1239.5,1182.5 1238.5,1182.5 1237.5,1182.5C 1238.07,1186.33 1237.4,1189.66 1235.5,1192.5C 1235.5,1192.17 1235.5,1191.83 1235.5,1191.5C 1236.48,1188.38 1236.81,1185.04 1236.5,1181.5C 1237.17,1181.5 1237.83,1181.5 1238.5,1181.5C 1239.5,1057.67 1239.83,933.668 1239.5,809.5 Z"/></g>
<g><path style="opacity:1" fill="#868686" d="M 751.5,812.5 C 750.835,936.838 751.502,1060.84 753.5,1184.5C 754.319,1187.31 754.819,1190.31 755,1193.5C 755.708,1194.38 756.542,1195.05 757.5,1195.5C 758.92,1198.26 759.587,1201.26 759.5,1204.5C 758.566,1203.43 758.232,1202.1 758.5,1200.5C 757.5,1200.5 756.5,1200.5 755.5,1200.5C 753.966,1195.71 753.299,1190.71 753.5,1185.5C 752.5,1185.5 751.5,1185.5 750.5,1185.5C 750.167,1061 750.5,936.666 751.5,812.5 Z"/></g>
<g><path style="opacity:1" fill="#adadad" d="M 751.5,812.5 C 751.833,812.5 752.167,812.5 752.5,812.5C 752.167,936.334 752.5,1060 753.5,1183.5C 753.5,1183.83 753.5,1184.17 753.5,1184.5C 751.502,1060.84 750.835,936.838 751.5,812.5 Z"/></g>
<g><path style="opacity:1" fill="#d6d6d6" d="M 753.5,811.5 C 753.833,811.5 754.167,811.5 754.5,811.5C 753.502,935.43 753.169,1059.43 753.5,1183.5C 752.5,1060 752.167,936.334 752.5,812.5C 752.5,811.833 752.833,811.5 753.5,811.5 Z"/></g>
<g><path style="opacity:1" fill="#e7e7e7" d="M 767.5,780.5 C 766.054,784.857 763.887,788.857 761,792.5C 758.525,799.33 756.525,806.33 755,813.5C 754.333,936.833 754.333,1060.17 755,1183.5C 755.943,1187.5 756.776,1191.5 757.5,1195.5C 756.542,1195.05 755.708,1194.38 755,1193.5C 754.819,1190.31 754.319,1187.31 753.5,1184.5C 753.5,1184.17 753.5,1183.83 753.5,1183.5C 753.169,1059.43 753.502,935.43 754.5,811.5C 754.5,808.167 754.5,804.833 754.5,801.5C 755.5,801.5 756.5,801.5 757.5,801.5C 757.828,796.846 759.162,792.512 761.5,788.5C 762.302,785.019 764.302,782.352 767.5,780.5 Z"/></g>
<g><path style="opacity:1" fill="#f4f4f4" d="M 512.5,794.5 C 514.095,796.111 515.261,798.111 516,800.5C 516.49,801.793 516.657,803.127 516.5,804.5C 517.5,804.5 518.5,804.5 519.5,804.5C 519.5,807.833 519.5,811.167 519.5,814.5C 519.833,938.668 519.5,1062.67 518.5,1186.5C 518.667,1062.17 518.5,937.833 518,813.5C 515.721,807.397 513.887,801.064 512.5,794.5 Z"/></g>
<g><path style="opacity:1" fill="#e3e3e3" d="M 519.5,814.5 C 519.833,814.5 520.167,814.5 520.5,814.5C 521.833,938.833 521.833,1063.17 520.5,1187.5C 519.833,1190.5 519.167,1193.5 518.5,1196.5C 518.5,1193.17 518.5,1189.83 518.5,1186.5C 519.5,1062.67 519.833,938.668 519.5,814.5 Z"/></g>
<g><path style="opacity:1" fill="#868686" d="M 519.5,804.5 C 520.477,807.287 520.81,810.287 520.5,813.5C 521.5,813.5 522.5,813.5 523.5,813.5C 523.833,938.001 523.5,1062.33 522.5,1186.5C 523.165,1062.16 522.498,938.162 520.5,814.5C 520.167,814.5 519.833,814.5 519.5,814.5C 519.5,811.167 519.5,807.833 519.5,804.5 Z"/></g>
<g><path style="opacity:1" fill="#aeaeae" d="M 520.5,814.5 C 522.498,938.162 523.165,1062.16 522.5,1186.5C 522.158,1187.34 521.492,1187.67 520.5,1187.5C 521.833,1063.17 521.833,938.833 520.5,814.5 Z"/></g>
<g><path style="opacity:1" fill="#b2b2b2" d="M 520.5,1187.5 C 520.5,1190.83 520.5,1194.17 520.5,1197.5C 519.5,1197.5 518.5,1197.5 517.5,1197.5C 517.808,1199.92 517.474,1202.26 516.5,1204.5C 514.979,1207.59 513.313,1210.59 511.5,1213.5C 512.036,1210.45 512.869,1207.45 514,1204.5C 515.631,1201.79 517.131,1199.12 518.5,1196.5C 519.167,1193.5 519.833,1190.5 520.5,1187.5 Z"/></g>
<g><path style="opacity:1" fill="#bcbcbc" d="M 1235.5,1191.5 C 1235.5,1191.83 1235.5,1192.17 1235.5,1192.5C 1235.81,1194.92 1235.47,1197.26 1234.5,1199.5C 1231.82,1202.99 1229.48,1206.65 1227.5,1210.5C 1230.33,1204.09 1233,1197.75 1235.5,1191.5 Z"/></g>
<g><path style="opacity:1" fill="#dedede" d="M 757.5,1195.5 C 759.335,1198.13 761.168,1200.8 763,1203.5C 764.136,1206.1 764.969,1208.76 765.5,1211.5C 762.826,1209.57 760.826,1207.24 759.5,1204.5C 759.587,1201.26 758.92,1198.26 757.5,1195.5 Z"/></g>
<g><path style="opacity:1" fill="#e4e4e4" d="M 50.5,1218.5 C 51.5,1218.5 52.5,1218.5 53.5,1218.5C 54.1667,1222.5 56.5,1224.83 60.5,1225.5C 60.5,1226.5 60.5,1227.5 60.5,1228.5C 54.8333,1227.5 51.5,1224.17 50.5,1218.5 Z"/></g>
<g><path style="opacity:1" fill="#a1a1a1" d="M 501.5,1224.5 C 500.952,1226.53 499.619,1227.53 497.5,1227.5C 497.262,1230.07 495.929,1231.74 493.5,1232.5C 494.956,1230.72 495.956,1228.72 496.5,1226.5C 498.322,1226.17 499.989,1225.5 501.5,1224.5 Z"/></g>
<g><path style="opacity:1" fill="#c7c7c7" d="M 1204.5,1230.5 C 1201.24,1233.1 1197.57,1235.27 1193.5,1237C 1190.52,1237.5 1187.52,1237.66 1184.5,1237.5C 1187.2,1236.04 1190.2,1235.2 1193.5,1235C 1194.06,1234.62 1194.39,1234.12 1194.5,1233.5C 1197.81,1232.56 1201.14,1231.56 1204.5,1230.5 Z"/></g>
<g><path style="opacity:1" fill="#b2b2b2" d="M 791.5,1232.5 C 797.252,1235.29 803.252,1236.96 809.5,1237.5C 806.15,1237.67 802.817,1237.5 799.5,1237C 797.377,1235.81 795.043,1235.14 792.5,1235C 791.748,1234.33 791.414,1233.5 791.5,1232.5 Z"/></g>
<g><path style="opacity:1" fill="#ebebeb" d="M 780.5,1226.5 C 785.916,1227.7 790.916,1229.87 795.5,1233C 800.415,1234.42 805.415,1235.42 810.5,1236C 934.833,1236.67 1059.17,1236.67 1183.5,1236C 1186.92,1234.1 1190.59,1233.26 1194.5,1233.5C 1194.39,1234.12 1194.06,1234.62 1193.5,1235C 1190.2,1235.2 1187.2,1236.04 1184.5,1237.5C 1184.5,1237.83 1184.5,1238.17 1184.5,1238.5C 1059.43,1238.83 934.43,1238.5 809.5,1237.5C 803.252,1236.96 797.252,1235.29 791.5,1232.5C 790.167,1232.5 788.833,1232.5 787.5,1232.5C 787.5,1231.5 787.5,1230.5 787.5,1229.5C 784.369,1230.09 782.036,1229.09 780.5,1226.5 Z"/></g>
<g><path style="opacity:1" fill="#c3c3c3" d="M 809.5,1237.5 C 934.43,1238.5 1059.43,1238.83 1184.5,1238.5C 1122.17,1239.17 1059.67,1239.5 997,1239.5C 934.163,1239.5 871.663,1238.83 809.5,1237.5 Z"/></g>
<g><path style="opacity:1" fill="#e7e7e7" d="M 60.5,1228.5 C 66.0096,1231.89 71.6763,1235.06 77.5,1238C 82.6664,1238.27 87.6664,1239.27 92.5,1241C 217.166,1241.5 341.833,1241.67 466.5,1241.5C 466.5,1242.17 466.5,1242.83 466.5,1243.5C 341.43,1243.83 216.43,1243.5 91.5,1242.5C 88.5,1242.5 85.5,1242.5 82.5,1242.5C 82.5,1241.5 82.5,1240.5 82.5,1239.5C 79.8333,1239.5 77.1667,1239.5 74.5,1239.5C 74.5858,1238.5 74.2524,1237.67 73.5,1237C 67.8927,1236 63.5594,1233.17 60.5,1228.5 Z"/></g>
<g><path style="opacity:1" fill="#999999" d="M 492.5,1233.5 C 491.817,1235.18 490.483,1235.84 488.5,1235.5C 488.5,1236.5 488.5,1237.5 488.5,1238.5C 485.068,1238.76 481.734,1239.42 478.5,1240.5C 478.5,1241.5 478.5,1242.5 478.5,1243.5C 412.033,1244.79 345.533,1245.46 279,1245.5C 212.797,1245.46 146.631,1244.8 80.5,1243.5C 80.5,1242.5 80.5,1241.5 80.5,1240.5C 78.2646,1240.79 76.2646,1240.46 74.5,1239.5C 77.1667,1239.5 79.8333,1239.5 82.5,1239.5C 82.5,1240.5 82.5,1241.5 82.5,1242.5C 85.5,1242.5 88.5,1242.5 91.5,1242.5C 153.663,1243.83 216.163,1244.5 279,1244.5C 341.668,1244.5 404.168,1244.17 466.5,1243.5C 466.5,1242.83 466.5,1242.17 466.5,1241.5C 469.833,1241.5 473.167,1241.5 476.5,1241.5C 476.5,1240.5 476.5,1239.5 476.5,1238.5C 482.041,1237.33 487.374,1235.66 492.5,1233.5 Z"/></g>
<g><path style="opacity:1" fill="#c3c3c3" d="M 91.5,1242.5 C 216.43,1243.5 341.43,1243.83 466.5,1243.5C 404.168,1244.17 341.668,1244.5 279,1244.5C 216.163,1244.5 153.663,1243.83 91.5,1242.5 Z"/></g>
</svg>
