<?xml version="1.0" encoding="UTF-8"?>
<!DOCTYPE svg PUBLIC "-//W3C//DTD SVG 1.1//EN" "http://www.w3.org/Graphics/SVG/1.1/DTD/svg11.dtd">
<svg xmlns="http://www.w3.org/2000/svg" version="1.1" width="1280px" height="1247px" style="shape-rendering:geometricPrecision; text-rendering:geometricPrecision; image-rendering:optimizeQuality; fill-rule:evenodd; clip-rule:evenodd" xmlns:xlink="http://www.w3.org/1999/xlink">
<g><path style="opacity:0.96" fill="#01b7d0" d="M 609.5,5.5 C 619.358,5.29963 629.024,6.13296 638.5,8C 650.034,11.6018 660.701,17.1018 670.5,24.5C 671.386,25.325 671.719,26.325 671.5,27.5C 672.552,27.3505 673.552,27.5172 674.5,28C 681.824,35.4127 687.991,43.5793 693,52.5C 733.247,135.145 773.747,217.478 814.5,299.5C 816.316,300.815 817.983,302.315 819.5,304C 914.286,318.161 1009.29,332.161 1104.5,346C 1125.01,351.752 1141.01,363.585 1152.5,381.5C 1153.45,383.045 1153.79,384.712 1153.5,386.5C 1154.5,386.5 1155.5,386.5 1156.5,386.5C 1157.04,389.555 1157.87,392.555 1159,395.5C 1159.67,396.167 1160.33,396.833 1161,397.5C 1167.67,420.233 1166.67,442.566 1158,464.5C 1154.04,471.519 1149.54,478.185 1144.5,484.5C 1143.68,485.386 1142.68,485.719 1141.5,485.5C 1141.72,486.675 1141.39,487.675 1140.5,488.5C 1137.17,490.5 1134.5,493.167 1132.5,496.5C 1131.68,497.386 1130.68,497.719 1129.5,497.5C 1108.96,520.376 1086.96,542.042 1063.5,562.5C 1030.62,595.556 997.287,628.223 963.5,660.5C 962.675,661.386 961.675,661.719 960.5,661.5C 960.719,662.675 960.386,663.675 959.5,664.5C 956.791,667.175 954.124,669.842 951.5,672.5C 950.675,673.386 949.675,673.719 948.5,673.5C 946.951,676.892 944.784,679.892 942,682.5C 940.826,690.109 941.493,697.442 944,704.5C 945.7,717.473 947.534,730.473 949.5,743.5C 950.086,743.709 950.586,744.043 951,744.5C 954.759,767.384 958.259,790.384 961.5,813.5C 962.086,813.709 962.586,814.043 963,814.5C 964,823.5 965,832.5 966,841.5C 966.667,842.167 967.333,842.833 968,843.5C 969.231,857.336 971.565,871.003 975,884.5C 976,893.5 977,902.5 978,911.5C 978.667,912.167 979.333,912.833 980,913.5C 981.478,922.04 982.478,930.707 983,939.5C 984.855,944.657 986.189,949.99 987,955.5C 993.163,1007.72 971.33,1041.56 921.5,1057C 910.167,1057.67 898.833,1057.67 887.5,1057C 884.017,1055.41 880.35,1054.25 876.5,1053.5C 850.41,1041.57 825.077,1028.41 800.5,1014C 739.949,983.322 679.949,951.989 620.5,920C 617.773,919.182 615.106,919.348 612.5,920.5C 589.358,932.995 566.025,945.495 542.5,958C 539.632,959.383 536.632,960.216 533.5,960.5C 533.5,961.5 533.5,962.5 533.5,963.5C 530.356,963.956 527.356,964.956 524.5,966.5C 472.445,994.391 420.278,1022.06 368,1049.5C 332.049,1064.69 299.549,1059.69 270.5,1034.5C 269.147,1033.48 268.48,1032.14 268.5,1030.5C 267.325,1030.72 266.325,1030.39 265.5,1029.5C 248.593,1007.88 242.426,983.213 247,955.5C 258.349,894.883 268.683,834.216 278,773.5C 278.667,772.167 279.333,770.833 280,769.5C 283.335,747.487 286.668,725.487 290,703.5C 292.497,696.779 293.164,689.779 292,682.5C 289.184,679.868 287.017,676.868 285.5,673.5C 245.225,637.226 206.225,599.559 168.5,560.5C 145.711,540.709 124.378,519.709 104.5,497.5C 103.325,497.719 102.325,497.386 101.5,496.5C 99.5,493.167 96.8333,490.5 93.5,488.5C 92.6143,487.675 92.281,486.675 92.5,485.5C 91.325,485.719 90.325,485.386 89.5,484.5C 72.5029,464.474 65.6696,441.14 69,414.5C 77.655,372.872 103.155,349.039 145.5,343C 182.528,337.869 219.862,332.869 257.5,328C 258.623,326.956 259.956,326.29 261.5,326C 271.115,324.701 280.782,323.701 290.5,323C 297.05,321.309 303.717,319.976 310.5,319C 320.483,317.835 330.483,316.835 340.5,316C 341.623,314.956 342.956,314.29 344.5,314C 349.348,313.941 354.015,313.274 358.5,312C 365.757,312.117 372.757,311.117 379.5,309C 388.319,307.295 397.319,306.295 406.5,306C 412.087,305.456 416.587,302.956 420,298.5C 460.536,216.534 500.869,134.534 541,52.5C 545.985,43.5048 552.152,35.3381 559.5,28C 560.448,27.5172 561.448,27.3505 562.5,27.5C 562.281,26.325 562.614,25.325 563.5,24.5C 576.36,14.2561 591.027,8.42275 607.5,7C 608.416,6.72158 609.082,6.22158 609.5,5.5 Z M 615.5,75.5 C 619.229,76.968 622.896,78.6347 626.5,80.5C 668.619,164.141 710.119,248.141 751,332.5C 766.494,358.425 789.328,372.592 819.5,375C 820.167,375.667 820.833,376.333 821.5,377C 831.783,378.299 842.116,379.299 852.5,380C 858.435,381.689 864.435,383.023 870.5,384C 903.267,387.791 935.933,392.124 968.5,397C 986.118,400.002 1003.78,403.002 1021.5,406C 1037.05,407.734 1052.72,409.4 1068.5,411C 1068.96,411.414 1069.29,411.914 1069.5,412.5C 1080.53,411.419 1089.03,415.419 1095,424.5C 1095.67,426.833 1095.67,429.167 1095,431.5C 1093.29,432.878 1091.95,434.545 1091,436.5C 1025.36,500.473 959.693,564.473 894,628.5C 874.441,649.82 866.774,675.153 871,704.5C 871.216,706.384 871.883,708.051 873,709.5C 873.701,717.888 874.701,726.221 876,734.5C 876.667,735.833 877.333,737.167 878,738.5C 880.902,760.647 884.235,782.647 888,804.5C 888.29,806.044 888.956,807.377 890,808.5C 893.004,830.523 896.337,852.523 900,874.5C 900.29,876.044 900.956,877.377 902,878.5C 904.61,896.436 907.276,914.436 910,932.5C 910.944,937.916 912.277,943.249 914,948.5C 914.059,953.348 914.726,958.015 916,962.5C 916.667,968.167 916.667,973.833 916,979.5C 911.937,986.133 906.104,988.3 898.5,986C 818.605,943.067 738.605,900.734 658.5,859C 645.558,852.366 631.725,849.2 617,849.5C 602.233,849.2 588.399,852.366 575.5,859C 497.118,900.405 418.784,941.905 340.5,983.5C 326.469,990.236 318.469,986.07 316.5,971C 318.854,958.923 320.688,946.756 322,934.5C 322.915,933.672 323.581,932.672 324,931.5C 325.72,918.739 327.386,906.072 329,893.5C 329.915,892.672 330.581,891.672 331,890.5C 332.478,881.96 333.478,873.293 334,864.5C 334.915,863.672 335.581,862.672 336,861.5C 337.318,847.595 339.651,833.929 343,820.5C 344.478,811.96 345.478,803.293 346,794.5C 346.667,793.833 347.333,793.167 348,792.5C 350.591,774.037 353.258,755.704 356,737.5C 356.789,732.045 358.123,726.712 360,721.5C 363.205,701.148 363.205,680.815 360,660.5C 356.964,653.711 353.631,647.044 350,640.5C 346.32,636.817 342.986,632.817 340,628.5C 273.65,563.817 207.317,499.15 141,434.5C 137.255,428.383 138.089,422.883 143.5,418C 145.708,416.398 148.041,415.064 150.5,414C 171.066,410.68 191.733,408.013 212.5,406C 213.672,405.581 214.672,404.915 215.5,404C 226.008,403.701 236.341,402.701 246.5,401C 247.308,400.692 247.975,400.192 248.5,399.5C 263.811,397.468 279.144,395.635 294.5,394C 296.044,393.71 297.377,393.044 298.5,392C 308.833,391 319.167,390 329.5,389C 330.308,388.692 330.975,388.192 331.5,387.5C 342.263,386.501 352.93,385.334 363.5,384C 374.808,381.878 386.141,379.878 397.5,378C 402.5,377.667 407.5,377.333 412.5,377C 413.672,376.581 414.672,375.915 415.5,375C 422.234,374.433 428.901,373.433 435.5,372C 440.579,369.069 445.912,366.902 451.5,365.5C 451.5,364.5 451.5,363.5 451.5,362.5C 453.288,362.785 454.955,362.452 456.5,361.5C 458.799,358.368 461.799,356.201 465.5,355C 471.461,347.567 477.294,340.067 483,332.5C 523.779,247.58 565.612,163.247 608.5,79.5C 611.427,78.8891 613.76,77.5558 615.5,75.5 Z"/></g>
<g><path style="opacity:0.943" fill="#01b7d0" d="M 242.5,46.5 C 252.978,45.9341 263.312,46.7674 273.5,49C 275.321,50.7433 277.321,52.2433 279.5,53.5C 292.636,71.068 305.803,88.7347 319,106.5C 320.449,109.959 322.116,113.293 324,116.5C 324.667,124.167 324.667,131.833 324,139.5C 321.689,142.428 320.022,145.762 319,149.5C 314.054,155.043 308.221,159.21 301.5,162C 292.061,162.867 282.728,162.367 273.5,160.5C 273.5,159.5 273.5,158.5 273.5,157.5C 270.813,157.659 268.48,156.825 266.5,155C 257.527,143.526 248.694,132.026 240,120.5C 239.51,119.207 239.343,117.873 239.5,116.5C 238.325,116.719 237.325,116.386 236.5,115.5C 234.189,111.538 231.522,107.871 228.5,104.5C 227.548,102.955 227.215,101.288 227.5,99.5C 226.5,99.5 225.5,99.5 224.5,99.5C 217.508,82.9003 219.508,67.7336 230.5,54C 234.624,51.4042 238.624,48.9042 242.5,46.5 Z"/></g>
<g><path style="opacity:0.942" fill="#02b7d0" d="M 965.5,46.5 C 974.173,46.3336 982.84,46.5002 991.5,47C 1008.45,55.3768 1015.62,69.2101 1013,88.5C 1011.83,92.1803 1010.67,95.847 1009.5,99.5C 1008.5,99.5 1007.5,99.5 1006.5,99.5C 1006.79,101.288 1006.45,102.955 1005.5,104.5C 1002.55,108.786 999.218,112.786 995.5,116.5C 994.843,120.146 992.843,122.48 989.5,123.5C 989.009,126.01 988.009,128.344 986.5,130.5C 980.284,138.402 974.117,146.402 968,154.5C 963.746,156.761 959.58,159.094 955.5,161.5C 934.325,166.792 919.159,159.792 910,140.5C 909.333,132.167 909.333,123.833 910,115.5C 922.969,95.7139 936.469,76.3806 950.5,57.5C 955.306,53.2851 960.306,49.6185 965.5,46.5 Z"/></g>
<g><path style="opacity:0.951" fill="#01b7d1" d="M 78.5,714.5 C 105.018,711.573 120.018,723.239 123.5,749.5C 123.145,761.754 118.145,771.587 108.5,779C 90.6652,786.428 72.3319,792.595 53.5,797.5C 53.2907,798.086 52.9574,798.586 52.5,799C 45.6025,800.379 38.7691,801.879 32,803.5C 27.6884,801.864 23.1884,801.031 18.5,801C 17.3401,779.24 17.1734,757.406 18,735.5C 38.3975,728.46 58.5641,721.46 78.5,714.5 Z"/></g>
<g><path style="opacity:0.942" fill="#02b7d0" d="M 1136.5,714.5 C 1142.51,714.334 1148.51,714.501 1154.5,715C 1174.67,720.847 1194.67,727.18 1214.5,734C 1223.48,738.115 1230.14,744.615 1234.5,753.5C 1238.09,745.577 1243.75,739.577 1251.5,735.5C 1252.5,756.823 1252.83,778.156 1252.5,799.5C 1251.13,799.657 1249.79,799.49 1248.5,799C 1242.94,794.269 1238.27,788.769 1234.5,782.5C 1229.98,790.523 1223.64,796.69 1215.5,801C 1210.61,801.029 1205.94,801.862 1201.5,803.5C 1194.5,801.942 1187.5,800.276 1180.5,798.5C 1180.29,797.914 1179.96,797.414 1179.5,797C 1167.61,794.193 1155.94,790.86 1144.5,787C 1141.96,784.907 1138.96,783.907 1135.5,784C 1117.87,777.245 1109.37,764.412 1110,745.5C 1113.06,729.958 1121.89,719.625 1136.5,714.5 Z"/></g>
<g><path style="opacity:0.939" fill="#01b7d0" d="M 612.5,1097.5 C 632.832,1097.03 645.998,1106.36 652,1125.5C 652.667,1150.5 652.667,1175.5 652,1200.5C 646.686,1217.46 635.019,1226.79 617,1228.5C 604.654,1227.37 594.654,1222.04 587,1212.5C 585.214,1208.98 583.714,1205.32 582.5,1201.5C 581.167,1175.83 581.167,1150.17 582.5,1124.5C 586.856,1109.98 596.523,1101.48 611.5,1099C 612.056,1098.62 612.389,1098.12 612.5,1097.5 Z"/></g>
<g><path style="opacity:0.012" fill="#25aab9" d="M 610.5,1239.5 C 615.628,1239.11 620.628,1239.61 625.5,1241C 619.833,1241.67 614.167,1241.67 608.5,1241C 609.416,1240.72 610.082,1240.22 610.5,1239.5 Z"/></g>
</svg>
