<?xml version="1.0" encoding="UTF-8"?>
<!DOCTYPE svg PUBLIC "-//W3C//DTD SVG 1.1//EN" "http://www.w3.org/Graphics/SVG/1.1/DTD/svg11.dtd">
<svg xmlns="http://www.w3.org/2000/svg" version="1.1" width="200px" height="200px" style="shape-rendering:geometricPrecision; text-rendering:geometricPrecision; image-rendering:optimizeQuality; fill-rule:evenodd; clip-rule:evenodd" xmlns:xlink="http://www.w3.org/1999/xlink">
<g><path style="opacity:0.949" fill="#7a7a7a" d="M 15.5,-0.5 C 33.1667,-0.5 50.8333,-0.5 68.5,-0.5C 71.6538,1.93674 73.9871,5.1034 75.5,9C 107.833,9.33333 140.167,9.66667 172.5,10C 174.939,10.7739 176.773,12.2739 178,14.5C 178.5,21.4921 178.666,28.4921 178.5,35.5C 183.456,35.6188 186.956,37.9521 189,42.5C 189.667,74.8333 189.667,107.167 189,139.5C 187.437,142.728 184.937,144.895 181.5,146C 173.173,146.5 164.84,146.666 156.5,146.5C 153.355,174.306 138.355,191.973 111.5,199.5C 103.5,199.5 95.5,199.5 87.5,199.5C 60.6451,191.973 45.6451,174.306 42.5,146.5C 34.16,146.666 25.8267,146.5 17.5,146C 13.6667,144.833 11.1667,142.333 10,138.5C 9.33333,94.5 9.33333,50.5 10,6.5C 11.6665,4.00432 13.4998,1.67098 15.5,-0.5 Z M 19.5,6.5 C 34.8478,6.1673 50.1811,6.50063 65.5,7.5C 70.8912,17.9517 76.0578,28.6183 81,39.5C 81.8333,40.3333 82.6667,41.1667 83.5,42C 115.167,42.3333 146.833,42.6667 178.5,43C 180.32,43.9794 181.487,45.4794 182,47.5C 182.667,76.8333 182.667,106.167 182,135.5C 181.626,136.416 181.126,137.25 180.5,138C 172.507,138.5 164.507,138.666 156.5,138.5C 151.877,105.548 132.877,87.5484 99.5,84.5C 66.1226,87.5484 47.1226,105.548 42.5,138.5C 34.4931,138.666 26.4931,138.5 18.5,138C 17.8742,137.25 17.3742,136.416 17,135.5C 16.3333,93.8333 16.3333,52.1667 17,10.5C 17.6622,9.01608 18.4955,7.68275 19.5,6.5 Z M 94.5,92.5 C 130.943,94.1079 149.109,113.108 149,149.5C 144.217,172.615 130.384,186.782 107.5,192C 85.3418,194.144 68.1752,185.977 56,167.5C 43.9318,140.27 49.7651,117.77 73.5,100C 80.2948,96.571 87.2948,94.071 94.5,92.5 Z"/></g>
<g><path style="opacity:0.863" fill="#7b7b7b" d="M 128.5,121.5 C 133.94,121.426 135.44,123.759 133,128.5C 118.653,143.014 104.153,157.347 89.5,171.5C 80.799,163.8 72.799,155.467 65.5,146.5C 66.1861,143.002 68.1861,141.835 71.5,143C 77.3479,149.015 83.3479,154.848 89.5,160.5C 102.854,147.812 115.854,134.812 128.5,121.5 Z"/></g>
</svg>
