<?xml version="1.0" encoding="UTF-8"?>
<!DOCTYPE svg PUBLIC "-//W3C//DTD SVG 1.1//EN" "http://www.w3.org/Graphics/SVG/1.1/DTD/svg11.dtd">
<svg xmlns="http://www.w3.org/2000/svg" version="1.1" width="1280px" height="1280px" style="shape-rendering:geometricPrecision; text-rendering:geometricPrecision; image-rendering:optimizeQuality; fill-rule:evenodd; clip-rule:evenodd" xmlns:xlink="http://www.w3.org/1999/xlink">
<g><path style="opacity:0.966" fill="#032839" d="M 259.5,176.5 C 323.641,173.833 386.307,181.333 447.5,199C 508.823,218.638 565.99,246.805 619,283.5C 706.92,221.807 804.42,186.307 911.5,177C 983.231,172.479 1052.23,183.146 1118.5,209C 1128.47,211.98 1135.64,218.146 1140,227.5C 1140.5,248.497 1140.67,269.497 1140.5,290.5C 1166.5,290.333 1192.5,290.5 1218.5,291C 1227.35,293.355 1234.02,298.521 1238.5,306.5C 1242.23,299.973 1247.56,295.306 1254.5,292.5C 1255.83,548.5 1255.83,804.5 1254.5,1060.5C 1247.42,1057.79 1242.09,1053.12 1238.5,1046.5C 1234.83,1053.01 1229.49,1057.51 1222.5,1060C 820.167,1060.5 417.833,1060.67 15.5,1060.5C 15.3333,804.833 15.5,549.166 16,293.5C 16.8333,292.667 17.6667,291.833 18.5,291C 44.8312,290.5 71.1646,290.333 97.5,290.5C 97.3334,269.164 97.5,247.831 98,226.5C 100.112,222.722 102.612,219.222 105.5,216C 122.822,207.304 140.822,200.637 159.5,196C 162.445,194.516 165.445,193.182 168.5,192C 184.006,188.249 199.673,184.915 215.5,182C 226.787,180.496 238.12,179.496 249.5,179C 252.834,177.916 256.168,177.082 259.5,176.5 Z M 261.5,233.5 C 290.537,233.147 319.537,233.98 348.5,236C 349.623,237.044 350.956,237.71 352.5,238C 365.125,239.392 377.792,241.225 390.5,243.5C 390.709,244.086 391.043,244.586 391.5,245C 394.833,245.333 398.167,245.667 401.5,246C 469.719,263.498 532.386,292.998 589.5,334.5C 590.833,548.833 590.833,763.167 589.5,977.5C 512.672,929.281 429.006,900.448 338.5,891C 308.167,890.333 277.833,890.333 247.5,891C 231.703,894.093 215.703,896.427 199.5,898C 184.047,901.677 168.714,905.51 153.5,909.5C 153.5,692.167 153.5,474.833 153.5,257.5C 161.892,254.364 170.558,251.864 179.5,250C 180.167,249.333 180.833,248.667 181.5,248C 187.141,246.858 192.807,245.858 198.5,245C 198.957,244.586 199.291,244.086 199.5,243.5C 211.536,241.226 223.536,239.393 235.5,238C 237.044,237.71 238.377,237.044 239.5,236C 247.235,236.137 254.568,235.304 261.5,233.5 Z M 648.5,977.5 C 647.5,763.334 647.167,549.001 647.5,334.5C 669.111,319.167 691.444,305.167 714.5,292.5C 716.045,291.548 717.712,291.215 719.5,291.5C 719.5,290.5 719.5,289.5 719.5,288.5C 731.49,283.835 743.49,279.168 755.5,274.5C 755.5,273.5 755.5,272.5 755.5,271.5C 757.924,271.808 760.257,271.474 762.5,270.5C 830.172,242.504 901.172,230.337 975.5,234C 983.001,235.3 990.668,235.967 998.5,236C 999.623,237.044 1000.96,237.71 1002.5,238C 1010.63,238.522 1018.63,239.522 1026.5,241C 1036.02,244.273 1046.02,246.607 1056.5,248C 1057.17,248.667 1057.83,249.333 1058.5,250C 1067.37,251.844 1076.04,254.344 1084.5,257.5C 1084.5,474.833 1084.5,692.167 1084.5,909.5C 1073.37,907.232 1062.37,904.398 1051.5,901C 1046.82,901.11 1042.49,900.11 1038.5,898C 1022.3,896.427 1006.3,894.093 990.5,891C 959.833,890.333 929.167,890.333 898.5,891C 885.765,892.582 873.098,894.248 860.5,896C 784.397,909.505 713.731,936.671 648.5,977.5 Z M 96.5,346.5 C 97.4988,547.43 97.8321,748.43 97.5,949.5C 96.5472,968.718 105.714,979.051 125,980.5C 129.406,979.459 133.906,978.459 138.5,977.5C 169.68,964.289 202.014,955.289 235.5,950.5C 274.166,946.509 312.832,946.509 351.5,950.5C 410.105,959.153 465.772,976.82 518.5,1003.5C 363.835,1004.5 209.168,1004.83 54.5,1004.5C 54.5,785.167 54.5,565.833 54.5,346.5C 68.5,346.5 82.5,346.5 96.5,346.5 Z M 1140.5,346.5 C 1154.83,346.5 1169.17,346.5 1183.5,346.5C 1183.5,565.833 1183.5,785.167 1183.5,1004.5C 1028.83,1004.83 874.165,1004.5 719.5,1003.5C 772.277,976.949 827.943,959.116 886.5,950C 929.974,946.139 973.307,946.805 1016.5,952C 1017.17,952.667 1017.83,953.333 1018.5,954C 1025.69,954.286 1032.69,955.286 1039.5,957C 1040.17,957.667 1040.83,958.333 1041.5,959C 1061.61,962.956 1080.95,969.289 1099.5,978C 1104.16,978.471 1108.66,979.304 1113,980.5C 1125.72,979.981 1134.72,973.981 1140,962.5C 1140.5,757.167 1140.67,551.834 1140.5,346.5 Z"/></g>
<g><path style="opacity:0.008" fill="#000000" d="M 647.5,334.5 C 647.167,549.001 647.5,763.334 648.5,977.5C 648.44,978.043 648.107,978.376 647.5,978.5C 646.167,763.667 646.167,549 647.5,334.5 Z"/></g>
<g><path style="opacity:0.357" fill="#012835" d="M 97.5,949.5 C 97.8321,748.43 97.4988,547.43 96.5,346.5C 97.1499,346.196 97.8165,345.863 98.5,345.5C 99.6667,547.499 99.8333,749.499 99,951.5C 98.7216,950.584 98.2216,949.918 97.5,949.5 Z"/></g>
<g><path style="opacity:0.949" fill="#042738" d="M 247.5,356.5 C 251.928,357.397 256.428,358.064 261,358.5C 265.667,357.833 270.333,357.167 275,356.5C 293.831,358.025 312.664,359.525 331.5,361C 338.732,362.698 346.065,363.698 353.5,364C 364.983,367.302 376.65,369.636 388.5,371C 390.455,371.953 392.122,373.287 393.5,375C 401.721,375.255 409.721,376.588 417.5,379C 418.833,380 420.167,381 421.5,382C 429.198,383.841 436.865,385.841 444.5,388C 446.349,389.093 448.016,390.426 449.5,392C 460.25,394.072 470.25,398.072 479.5,404C 487.66,405.751 494.993,409.084 501.5,414C 512.14,418.157 522.14,423.491 531.5,430C 538.692,433.18 545.525,437.013 552,441.5C 551.14,456.686 550.474,472.019 550,487.5C 549.333,488.167 548.667,488.833 548,489.5C 547.667,494.833 547.333,500.167 547,505.5C 545.274,506.576 543.441,506.743 541.5,506C 535.326,501.746 528.993,497.746 522.5,494C 521.257,492.846 520.257,491.512 519.5,490C 513.942,486.469 507.942,483.802 501.5,482C 497.353,479.35 493.353,476.516 489.5,473.5C 484.008,471.632 478.675,469.465 473.5,467C 470.527,465.69 468.193,463.69 466.5,461C 462.5,460 458.5,459 454.5,458C 449.116,455.495 443.783,452.662 438.5,449.5C 430.682,447.641 423.016,445.475 415.5,443C 413.833,442 412.5,440.667 411.5,439C 405.36,438.478 399.36,437.478 393.5,436C 390.962,434.369 388.295,433.036 385.5,432C 377.986,430.25 370.319,428.917 362.5,428C 361.167,427 359.833,426 358.5,425C 348.669,425.551 339.335,423.884 330.5,420C 312.079,418.462 293.579,417.295 275,416.5C 257.359,417.201 239.859,418.035 222.5,419C 222,418.5 221.5,418 221,417.5C 220.833,415.167 220.667,412.833 220.5,410.5C 221.719,394.195 223.552,377.862 226,361.5C 227.609,360.853 229.109,360.02 230.5,359C 235.833,358.667 241.167,358.333 246.5,358C 247.056,357.617 247.389,357.117 247.5,356.5 Z"/></g>
<g><path style="opacity:0.008" fill="#000000" d="M 979.5,389.5 C 972.867,388.893 966.2,388.559 959.5,388.5C 946.595,389.862 933.595,390.529 920.5,390.5C 933.371,389.278 946.371,388.278 959.5,387.5C 965.5,387.667 971.5,387.833 977.5,388C 978.416,388.278 979.082,388.778 979.5,389.5 Z"/></g>
<g><path style="opacity:0.007" fill="#000000" d="M 1007.5,390.5 C 997.985,390.827 988.652,390.494 979.5,389.5C 984.534,389.664 989.534,389.331 994.5,388.5C 999.007,388.976 1003.34,389.643 1007.5,390.5 Z"/></g>
<g><path style="opacity:0.94" fill="#042738" d="M 979.5,389.5 C 988.652,390.494 997.985,390.827 1007.5,390.5C 1011.09,390.269 1014.25,391.269 1017,393.5C 1018.67,408.544 1020.17,423.544 1021.5,438.5C 1022.24,442.588 1020.91,445.755 1017.5,448C 998.458,446.277 979.458,444.777 960.5,443.5C 938.291,445.523 915.958,447.356 893.5,449C 891.33,450.586 888.996,451.92 886.5,453C 879.035,453.522 871.701,454.522 864.5,456C 863.672,456.915 862.672,457.581 861.5,458C 855.843,459.159 850.176,460.325 844.5,461.5C 840.833,464.168 836.833,466.002 832.5,467C 828.833,467.333 825.167,467.667 821.5,468C 818.751,470.423 815.751,472.423 812.5,474C 796.964,479.175 781.964,485.508 767.5,493C 766.5,494 765.5,495 764.5,496C 754.127,498.683 745.127,503.683 737.5,511C 732.112,513.111 726.945,515.611 722,518.5C 719.695,518.516 718.028,517.516 717,515.5C 716.667,502.5 716.333,489.5 716,476.5C 713.838,470.562 713.505,464.562 715,458.5C 715.833,457.667 716.667,456.833 717.5,456C 735.621,445.273 754.288,435.606 773.5,427C 782.884,425.299 791.55,421.966 799.5,417C 804.612,415.649 809.612,413.982 814.5,412C 824.313,410.528 833.646,407.528 842.5,403C 862.542,399.475 882.542,395.475 902.5,391C 908.52,391.617 914.52,391.45 920.5,390.5C 933.595,390.529 946.595,389.862 959.5,388.5C 966.2,388.559 972.867,388.893 979.5,389.5 Z"/></g>
<g><path style="opacity:0.949" fill="#042738" d="M 246.5,513.5 C 250.168,514.901 254.001,515.568 258,515.5C 262.862,514.983 267.695,514.316 272.5,513.5C 293.53,514.921 314.53,516.755 335.5,519C 351.857,521.839 368.19,524.839 384.5,528C 387.559,528.058 389.892,529.391 391.5,532C 395.167,532.333 398.833,532.667 402.5,533C 406.332,534.625 410.332,535.625 414.5,536C 415.551,537.385 416.884,538.385 418.5,539C 426.835,541.253 435.169,543.587 443.5,546C 444.5,547 445.5,548 446.5,549C 457.299,551.165 467.299,555.165 476.5,561C 482.226,562.798 487.893,564.798 493.5,567C 502.909,572.388 512.576,577.388 522.5,582C 524.647,584.237 526.98,586.237 529.5,588C 537.054,590.555 543.887,594.388 550,599.5C 550.667,604.833 550.667,610.167 550,615.5C 549.692,616.308 549.192,616.975 548.5,617.5C 547.596,632.523 546.429,647.523 545,662.5C 542.936,663.591 540.769,663.758 538.5,663C 529.752,657.637 521.418,651.804 513.5,645.5C 503.771,641.621 494.604,636.621 486,630.5C 479.437,627.801 472.937,624.968 466.5,622C 465.833,621 465.167,620 464.5,619C 455.867,616.734 447.534,613.734 439.5,610C 437.833,609 436.5,607.667 435.5,606C 426.04,605.116 417.373,602.116 409.5,597C 403.053,595.842 396.719,594.508 390.5,593C 381.772,588.485 372.438,586.151 362.5,586C 360.131,585.464 358.131,584.297 356.5,582.5C 350.193,581.669 343.859,581.169 337.5,581C 334.274,580.115 331.274,578.781 328.5,577C 310.123,575.465 291.623,574.298 273,573.5C 255.123,574.628 237.29,575.461 219.5,576C 218.859,573.422 218.525,570.755 218.5,568C 219.78,551.874 221.28,535.708 223,519.5C 224.932,517.962 227.099,516.795 229.5,516C 234.5,515.667 239.5,515.333 244.5,515C 245.416,514.722 246.082,514.222 246.5,513.5 Z"/></g>
<g><path style="opacity:0.008" fill="#000000" d="M 936.5,534.5 C 928.317,534.628 919.983,534.961 911.5,535.5C 911.918,534.778 912.584,534.278 913.5,534C 921.174,533.596 928.841,533.762 936.5,534.5 Z"/></g>
<g><path style="opacity:0.942" fill="#042737" d="M 911.5,535.5 C 919.983,534.961 928.317,534.628 936.5,534.5C 937.473,534.013 938.473,533.513 939.5,533C 949.438,533.011 959.272,532.178 969,530.5C 981.138,532 993.305,533.5 1005.5,535C 1008.62,535.544 1011.62,536.377 1014.5,537.5C 1016.65,552.671 1018.31,568.005 1019.5,583.5C 1020.17,587.325 1018.84,590.158 1015.5,592C 1009.19,592.576 1003.19,591.576 997.5,589C 978.5,588.333 959.5,588.333 940.5,589C 938.2,590.109 935.7,590.609 933,590.5C 928.798,590.543 924.798,589.876 921,588.5C 911.375,592.783 901.208,594.617 890.5,594C 888.999,595.252 887.332,596.252 885.5,597C 875.848,596.702 866.848,598.702 858.5,603C 847.162,604.758 836.162,607.592 825.5,611.5C 817.414,615.477 809.081,618.977 800.5,622C 797.833,622.333 795.167,622.667 792.5,623C 790.486,625.345 788.153,627.345 785.5,629C 780.321,631.299 774.988,633.299 769.5,635C 762.323,639.947 754.656,643.947 746.5,647C 738.196,653.294 729.363,658.794 720,663.5C 718.018,663.01 716.351,662.01 715,660.5C 714.512,643.729 713.346,627.062 711.5,610.5C 710.452,605.41 712.119,601.576 716.5,599C 726.217,596.212 734.883,591.545 742.5,585C 752.316,581.621 761.649,577.288 770.5,572C 782.853,566.794 795.519,562.461 808.5,559C 810.5,557.667 812.5,556.333 814.5,555C 821.364,553.099 828.364,551.765 835.5,551C 836.551,549.615 837.884,548.615 839.5,548C 846.331,546.214 853.331,544.88 860.5,544C 865.072,540.637 870.072,539.803 875.5,541.5C 887.256,537.972 899.256,535.972 911.5,535.5 Z"/></g>
<g><path style="opacity:0.944" fill="#042738" d="M 358.5,748.5 C 358.082,747.778 357.416,747.278 356.5,747C 348.045,746.53 339.712,745.364 331.5,743.5C 330.833,743.5 330.167,743.5 329.5,743.5C 311.324,741.562 292.991,739.895 274.5,738.5C 266.392,741.065 258.059,741.732 249.5,740.5C 241.423,741.028 233.423,742.028 225.5,743.5C 223.192,743.635 221.192,742.969 219.5,741.5C 218.877,738.555 218.544,735.555 218.5,732.5C 219.935,720.877 220.768,709.211 221,697.5C 222.102,692.895 222.935,688.229 223.5,683.5C 225.274,682.813 226.941,681.98 228.5,681C 235.315,680.993 241.982,680.16 248.5,678.5C 251.421,680.003 254.588,680.669 258,680.5C 262.767,679.594 267.601,678.927 272.5,678.5C 292.16,680.102 311.826,681.602 331.5,683C 349.955,685.973 368.288,689.306 386.5,693C 388.116,693.615 389.449,694.615 390.5,696C 397.988,696.971 405.321,698.304 412.5,700C 414.869,700.536 416.869,701.703 418.5,703.5C 426.598,705.348 434.598,707.515 442.5,710C 443.833,711 445.167,712 446.5,713C 458.106,716.482 469.44,720.482 480.5,725C 487.91,727.872 494.91,731.539 501.5,736C 504.595,736.714 507.595,737.714 510.5,739C 522.03,746.535 534.03,753.201 546.5,759C 548.049,760.214 549.215,761.714 550,763.5C 550.667,768.833 550.667,774.167 550,779.5C 549.581,780.672 548.915,781.672 548,782.5C 547.935,797.012 546.935,811.345 545,825.5C 544.161,826.624 542.994,827.291 541.5,827.5C 532.349,824.093 524.349,818.926 517.5,812C 509.827,808.18 502.161,804.513 494.5,801C 493.167,799.667 491.833,798.333 490.5,797C 484.258,794.141 477.925,791.474 471.5,789C 463.469,783.758 454.802,779.758 445.5,777C 435.697,771.822 425.364,767.822 414.5,765C 407.344,761.088 399.678,758.755 391.5,758C 388.962,756.369 386.295,755.036 383.5,754C 375.926,752.305 368.259,750.971 360.5,750C 359.584,749.722 358.918,749.222 358.5,748.5 Z"/></g>
<g><path style="opacity:0.934" fill="#042737" d="M 937.5,683.5 C 942.803,685.848 948.136,685.848 953.5,683.5C 964.7,684.151 975.867,684.151 987,683.5C 994.493,684.904 1001.99,686.237 1009.5,687.5C 1011.97,705.489 1013.47,723.489 1014,741.5C 1009.87,745.766 1005.37,746.433 1000.5,743.5C 989.345,741.07 978.012,740.07 966.5,740.5C 961.167,740.5 955.833,740.5 950.5,740.5C 948.723,740.214 947.056,739.547 945.5,738.5C 944.263,738.556 943.263,739.056 942.5,740C 928.947,740.47 915.613,741.637 902.5,743.5C 884.052,746.672 865.719,750.172 847.5,754C 835.895,758.739 823.895,762.739 811.5,766C 797.908,771.966 784.241,777.633 770.5,783C 766.038,785.401 761.704,788.067 757.5,791C 748.006,793.608 739.673,798.274 732.5,805C 726.933,808.076 721.266,810.909 715.5,813.5C 713.563,812.74 711.73,811.74 710,810.5C 710.048,797.642 709.715,784.642 709,771.5C 703.859,761.228 706.025,753.062 715.5,747C 739.879,734.311 764.879,722.977 790.5,713C 800.969,709.586 811.635,706.586 822.5,704C 827.251,702.305 831.918,700.305 836.5,698C 842.826,697.267 849.16,696.601 855.5,696C 857.116,695.385 858.449,694.385 859.5,693C 868.803,691.741 878.137,690.075 887.5,688C 904.048,686.328 920.715,684.828 937.5,683.5 Z"/></g>
<g><path style="opacity:0.02" fill="#000335" d="M 937.5,683.5 C 942.833,683.5 948.167,683.5 953.5,683.5C 948.136,685.848 942.803,685.848 937.5,683.5 Z"/></g>
<g><path style="opacity:0.007" fill="#000000" d="M 274.5,738.5 C 292.991,739.895 311.324,741.562 329.5,743.5C 311.494,742.539 293.494,741.373 275.5,740C 274.944,739.617 274.611,739.117 274.5,738.5 Z"/></g>
<g><path style="opacity:0.008" fill="#000202" d="M 950.5,740.5 C 934.669,741.773 918.669,742.773 902.5,743.5C 915.613,741.637 928.947,740.47 942.5,740C 943.263,739.056 944.263,738.556 945.5,738.5C 947.056,739.547 948.723,740.214 950.5,740.5 Z"/></g>
<g><path style="opacity:0.008" fill="#000202" d="M 1000.5,743.5 C 988.954,743.249 977.621,742.249 966.5,740.5C 978.012,740.07 989.345,741.07 1000.5,743.5 Z"/></g>
<g><path style="opacity:0.008" fill="#000000" d="M 331.5,743.5 C 339.712,745.364 348.045,746.53 356.5,747C 357.416,747.278 358.082,747.778 358.5,748.5C 351.486,747.85 344.486,747.017 337.5,746C 335.277,745.434 333.277,744.6 331.5,743.5 Z"/></g>
</svg>
