<?xml version="1.0" encoding="UTF-8"?>
<!DOCTYPE svg PUBLIC "-//W3C//DTD SVG 1.1//EN" "http://www.w3.org/Graphics/SVG/1.1/DTD/svg11.dtd">
<svg xmlns="http://www.w3.org/2000/svg" version="1.1" width="1280px" height="1280px" style="shape-rendering:geometricPrecision; text-rendering:geometricPrecision; image-rendering:optimizeQuality; fill-rule:evenodd; clip-rule:evenodd" xmlns:xlink="http://www.w3.org/1999/xlink">
<g><path style="opacity:0.982" fill="#fefffe" d="M 298.5,-0.5 C 312.5,-0.5 326.5,-0.5 340.5,-0.5C 345.316,0.326144 350.316,0.826144 355.5,1C 369.776,3.89882 383.776,7.23215 397.5,11C 409.457,16.1232 421.457,21.1232 433.5,26C 442.173,31.3382 451.173,36.1715 460.5,40.5C 460.5,41.5 460.5,42.5 460.5,43.5C 463.966,43.2847 466.633,44.618 468.5,47.5C 470.758,48.799 473.092,49.799 475.5,50.5C 475.5,51.5 475.5,52.5 475.5,53.5C 477.58,54.0444 479.58,54.8777 481.5,56C 495.286,67.1187 508.12,79.2853 520,92.5C 520.483,93.448 520.649,94.448 520.5,95.5C 521.5,95.5 522.5,95.5 523.5,95.5C 529.747,104.312 536.247,112.979 543,121.5C 544.903,123.441 545.736,125.774 545.5,128.5C 546.5,128.5 547.5,128.5 548.5,128.5C 548.351,129.552 548.517,130.552 549,131.5C 553.426,139.36 558.093,147.026 563,154.5C 567.999,165.569 572.999,176.569 578,187.5C 581.572,196.586 584.405,205.92 586.5,215.5C 587.086,215.709 587.586,216.043 588,216.5C 589.548,222.07 590.381,227.736 590.5,233.5C 591.5,233.5 592.5,233.5 593.5,233.5C 594.221,240.832 595.055,248.165 596,255.5C 596.667,256.167 597.333,256.833 598,257.5C 598.059,262.348 598.726,267.015 600,271.5C 600.333,277.5 600.667,283.5 601,289.5C 601.667,290.167 602.333,290.833 603,291.5C 603.667,557.167 603.667,822.833 603,1088.5C 602.424,1091.12 601.09,1091.79 599,1090.5C 598.832,1079.48 598.332,1068.48 597.5,1057.5C 596.808,1056.97 596.308,1056.31 596,1055.5C 595.201,1047.47 594.201,1039.47 593,1031.5C 592.586,1031.04 592.086,1030.71 591.5,1030.5C 585.075,1003.42 574.408,978.421 559.5,955.5C 558.548,953.955 558.215,952.288 558.5,950.5C 554.963,949.614 553.296,947.281 553.5,943.5C 552.5,943.5 551.5,943.5 550.5,943.5C 548.152,939.158 545.819,934.825 543.5,930.5C 542.325,930.719 541.325,930.386 540.5,929.5C 538.523,926.688 536.356,924.022 534,921.5C 533.517,920.552 533.351,919.552 533.5,918.5C 532.5,918.5 531.5,918.5 530.5,918.5C 530.167,915.5 528.5,913.833 525.5,913.5C 525.167,910.5 523.5,908.833 520.5,908.5C 520.167,905.5 518.5,903.833 515.5,903.5C 515.52,901.857 514.853,900.524 513.5,899.5C 507.578,895.914 502.245,891.58 497.5,886.5C 493.449,884.482 489.783,881.982 486.5,879C 485.552,878.517 484.552,878.351 483.5,878.5C 483.5,877.5 483.5,876.5 483.5,875.5C 481.099,874.951 478.765,874.118 476.5,873C 473.334,870.913 470.334,868.579 467.5,866C 464.632,864.617 461.632,863.784 458.5,863.5C 458.5,862.5 458.5,861.5 458.5,860.5C 455.167,859.833 451.833,859.167 448.5,858.5C 448.5,857.5 448.5,856.5 448.5,855.5C 437.268,852.036 426.268,848.203 415.5,844C 413.19,843.503 410.857,843.337 408.5,843.5C 408.5,842.5 408.5,841.5 408.5,840.5C 395.704,839.506 383.371,837.339 371.5,834C 347.373,831.611 323.04,830.444 298.5,830.5C 298.5,553.5 298.5,276.5 298.5,-0.5 Z"/></g>
<g><path style="opacity:0.97" fill="#fefffe" d="M 148.5,148.5 C 174.167,148.5 199.833,148.5 225.5,148.5C 225.5,400.167 225.5,651.833 225.5,903.5C 273.171,903.167 320.838,903.5 368.5,904.5C 372.459,905.327 376.459,905.827 380.5,906C 381.167,906.667 381.833,907.333 382.5,908C 390.94,908.962 398.94,911.296 406.5,915C 408.5,915.333 410.5,915.667 412.5,916C 420.423,920.976 428.757,925.31 437.5,929C 439.167,930 440.5,931.333 441.5,933C 446.22,934.986 450.553,937.486 454.5,940.5C 455.386,941.325 455.719,942.325 455.5,943.5C 459.842,945.319 463.842,947.819 467.5,951C 472.333,956.5 477.5,961.667 483,966.5C 485.762,970.409 488.262,974.409 490.5,978.5C 491.5,978.5 492.5,978.5 493.5,978.5C 494.477,982.456 496.477,985.789 499.5,988.5C 500.452,990.045 500.785,991.712 500.5,993.5C 501.5,993.5 502.5,993.5 503.5,993.5C 503.215,995.288 503.548,996.955 504.5,998.5C 509.323,1007.11 513.823,1015.78 518,1024.5C 519.165,1029.16 520.332,1033.83 521.5,1038.5C 522.086,1038.71 522.586,1039.04 523,1039.5C 524.325,1046.45 525.325,1053.45 526,1060.5C 526.667,1061.17 527.333,1061.83 528,1062.5C 528.5,1070.16 528.666,1077.83 528.5,1085.5C 523.29,1085.7 518.29,1085.03 513.5,1083.5C 513.5,1082.5 513.5,1081.5 513.5,1080.5C 509.086,1080.17 504.752,1079.34 500.5,1078C 495.695,1074.91 490.362,1073.25 484.5,1073C 481.799,1071.08 478.799,1069.75 475.5,1069C 472.5,1068.67 469.5,1068.33 466.5,1068C 465.833,1067.33 465.167,1066.67 464.5,1066C 460.972,1065.91 457.638,1065.24 454.5,1064C 444.462,1061.96 434.129,1060.46 423.5,1059.5C 410.846,1058.67 398.18,1058.17 385.5,1058C 384.692,1057.69 384.025,1057.19 383.5,1056.5C 305.17,1055.5 226.836,1055.17 148.5,1055.5C 148.5,753.167 148.5,450.833 148.5,148.5 Z"/></g>
<g><path style="opacity:0.989" fill="#fefffe" d="M 850.5,223.5 C 943.833,223.5 1037.17,223.5 1130.5,223.5C 1130.5,500.833 1130.5,778.167 1130.5,1055.5C 1051.17,1055.33 971.833,1055.5 892.5,1056C 891.328,1056.42 890.328,1057.09 889.5,1058C 872.997,1058.13 856.664,1059.13 840.5,1061C 839.833,1061.67 839.167,1062.33 838.5,1063C 833.833,1063.33 829.167,1063.67 824.5,1064C 821.024,1065.25 817.358,1065.92 813.5,1066C 812.833,1066.67 812.167,1067.33 811.5,1068C 805.285,1068.22 799.285,1069.22 793.5,1071C 790.956,1073.09 787.956,1074.09 784.5,1074C 770.174,1079.61 755.841,1085.28 741.5,1091C 731.098,1097.08 720.765,1103.24 710.5,1109.5C 708.955,1110.45 707.288,1110.79 705.5,1110.5C 705.439,1112.59 704.439,1114.09 702.5,1115C 699.467,1116.05 696.8,1117.71 694.5,1120C 693.207,1120.49 691.873,1120.66 690.5,1120.5C 690.719,1121.68 690.386,1122.68 689.5,1123.5C 685.986,1124.76 682.986,1126.76 680.5,1129.5C 678.994,1130.75 677.494,1130.75 676,1129.5C 675.667,865.167 675.333,600.833 675,336.5C 673.681,320.318 673.015,303.985 673,287.5C 672.308,286.975 671.808,286.308 671.5,285.5C 674.171,281.134 678.171,278.801 683.5,278.5C 683.5,277.5 683.5,276.5 683.5,275.5C 697.243,269.09 710.91,262.59 724.5,256C 738.236,251.509 751.903,246.509 765.5,241C 771.813,240.257 777.813,238.59 783.5,236C 789.776,234.647 796.109,233.647 802.5,233C 802.957,232.586 803.291,232.086 803.5,231.5C 812.461,229.905 821.461,228.572 830.5,227.5C 830.709,226.914 831.043,226.414 831.5,226C 837.5,225.667 843.5,225.333 849.5,225C 850.056,224.617 850.389,224.117 850.5,223.5 Z"/></g>
<g><path style="opacity:0.975" fill="#fefffe" d="M -0.5,298.5 C 24.8333,298.5 50.1667,298.5 75.5,298.5C 75.5,575.167 75.5,851.833 75.5,1128.5C 190.167,1128.33 304.834,1128.5 419.5,1129C 431.762,1131.9 444.429,1134.23 457.5,1136C 457.957,1136.41 458.291,1136.91 458.5,1137.5C 463.831,1138.7 469.164,1139.87 474.5,1141C 474.957,1141.41 475.291,1141.91 475.5,1142.5C 484.177,1144.42 492.511,1147.09 500.5,1150.5C 500.5,1151.5 500.5,1152.5 500.5,1153.5C 502.199,1153.34 503.866,1153.51 505.5,1154C 509.193,1155.71 512.859,1157.38 516.5,1159C 520.407,1162.66 525.074,1164.82 530.5,1165.5C 530.5,1166.5 530.5,1167.5 530.5,1168.5C 531.873,1168.34 533.207,1168.51 534.5,1169C 536.8,1171.29 539.467,1172.95 542.5,1174C 544.439,1174.91 545.439,1176.41 545.5,1178.5C 547.288,1178.21 548.955,1178.55 550.5,1179.5C 552.171,1181.98 554.504,1183.48 557.5,1184C 559.439,1184.91 560.439,1186.41 560.5,1188.5C 562.901,1189.05 565.235,1189.88 567.5,1191C 572.167,1195 576.833,1199 581.5,1203C 620.167,1203.67 658.833,1203.67 697.5,1203C 702.167,1199 706.833,1195 711.5,1191C 713.765,1189.88 716.099,1189.05 718.5,1188.5C 718.5,1187.5 718.5,1186.5 718.5,1185.5C 722.456,1184.52 725.789,1182.52 728.5,1179.5C 730.045,1178.55 731.712,1178.21 733.5,1178.5C 733.281,1177.32 733.614,1176.32 734.5,1175.5C 741.745,1170.6 749.412,1166.43 757.5,1163C 760.985,1160.42 764.651,1158.09 768.5,1156C 771.621,1154.39 774.954,1153.56 778.5,1153.5C 778.5,1152.5 778.5,1151.5 778.5,1150.5C 782.536,1149.78 786.536,1148.78 790.5,1147.5C 794.925,1144.84 799.592,1142.67 804.5,1141C 809.836,1139.87 815.169,1138.7 820.5,1137.5C 820.709,1136.91 821.043,1136.41 821.5,1136C 834.485,1134.28 847.152,1131.95 859.5,1129C 974.166,1128.5 1088.83,1128.33 1203.5,1128.5C 1203.5,876.833 1203.5,625.167 1203.5,373.5C 1228.83,373.5 1254.17,373.5 1279.5,373.5C 1279.5,650.833 1279.5,928.167 1279.5,1205.5C 1151.5,1205.17 1023.5,1205.5 895.5,1206.5C 894.975,1207.19 894.308,1207.69 893.5,1208C 880.105,1208.24 866.772,1209.24 853.5,1211C 852.833,1211.67 852.167,1212.33 851.5,1213C 846.021,1213.52 840.688,1214.52 835.5,1216C 823.146,1220.76 810.813,1225.92 798.5,1231.5C 792.983,1234.83 787.316,1238 781.5,1241C 776.31,1244.64 771.31,1248.64 766.5,1253C 764.58,1254.12 762.58,1254.96 760.5,1255.5C 760.719,1256.68 760.386,1257.68 759.5,1258.5C 751.53,1264.8 744.197,1271.8 737.5,1279.5C 672.167,1279.5 606.833,1279.5 541.5,1279.5C 534.803,1271.8 527.47,1264.8 519.5,1258.5C 518.614,1257.68 518.281,1256.68 518.5,1255.5C 511.953,1251.8 505.619,1247.8 499.5,1243.5C 498.614,1242.68 498.281,1241.68 498.5,1240.5C 494.705,1240.58 491.705,1239.08 489.5,1236C 483.13,1232.82 476.797,1229.65 470.5,1226.5C 462.77,1222.94 454.77,1220.11 446.5,1218C 445.833,1217.33 445.167,1216.67 444.5,1216C 438.859,1214.86 433.193,1213.86 427.5,1213C 426.833,1212.33 426.167,1211.67 425.5,1211C 412.228,1209.24 398.895,1208.24 385.5,1208C 384.692,1207.69 384.025,1207.19 383.5,1206.5C 255.502,1205.5 127.502,1205.17 -0.5,1205.5C -0.5,903.167 -0.5,600.833 -0.5,298.5 Z"/></g>
</svg>
