<svg width="370" height="370" viewBox="0 0 370 370" fill="none" xmlns="http://www.w3.org/2000/svg">
<g filter="url(#filter0_d_1601_591)">
<circle cx="172.541" cy="182.262" r="144.563" fill="#04293A"/>
</g>
<g filter="url(#filter1_d_1601_591)">
<circle cx="180.904" cy="184.652" r="144.563" fill="white"/>
</g>
<path d="M206.484 331.409C125.565 344.384 49.4534 289.331 36.4837 208.444C23.514 127.558 78.5976 51.468 159.516 38.4931C240.435 25.5182 316.547 80.5715 329.516 161.458C342.486 242.344 287.402 318.434 206.484 331.409Z" fill="url(#paint0_radial_1601_591)" fill-opacity="0.1"/>
<path d="M253.475 195.631C257.706 184.179 253.55 173.082 244.191 170.845C234.833 168.609 223.816 176.08 219.584 187.532C215.353 198.984 219.509 210.081 228.868 212.318C238.226 214.554 249.243 207.084 253.475 195.631Z" fill="white"/>
<path d="M91.0115 158.121C93.1593 157.225 110.447 153.133 122.483 153.598C126.22 155.5 127.28 157.826 124.159 160.816L98.9095 164.666C98.8496 169.828 99.4148 174.259 100.944 177.562C100.944 177.562 121.676 174.747 123.321 175.156C125.684 175.902 127.749 182.88 126.073 184.045C125.325 184.745 114.93 187.463 109.186 188.123C107.18 188.354 106.403 189.52 106.403 189.52C105.326 191.289 106.585 195.527 108.782 198.146C110.159 199.724 134.51 195.861 136.005 195.271C138.536 194.271 140.957 202.284 138.04 204.51C135.123 206.735 109.47 211.397 105.491 210.284C101.512 209.172 97.1152 205.803 96.6207 205.003C96.1511 204.243 86.7034 176.672 87.3018 164.955C86.861 162.491 88.8637 159.018 91.0115 158.121Z" fill="#00A4FF"/>
<path d="M137.322 217.021C142.896 217.297 146.945 216.535 147.733 213.556C145.236 208.747 140.553 198.134 142.527 197.869C144.501 197.604 153.476 213.051 170.469 214.423C175.018 213.257 177.165 210.628 178.008 207.205C175.051 194.847 174.086 180.604 163.529 175.445C160.11 175.387 156.679 175.317 155.511 177.37C160.481 182.147 166.064 199.788 164.247 202.007C160.88 199.887 141.884 181.869 140.014 181.4C138.144 180.931 133.851 184.045 133.851 184.045C131.129 210.41 136.245 211.896 137.322 217.021Z" fill="#FF6D00"/>
<path d="M169.428 204.669C169.055 204.072 168.756 203.487 168.551 202.92C168.806 203.515 169.099 204.098 169.428 204.669Z" fill="#00E1FF"/>
<path d="M178.679 200.499C178.039 199.968 177.608 199.416 177.346 198.868C177.87 199.487 178.32 200.085 178.679 200.499Z" fill="#00E1FF"/>
<path d="M239.729 195.611C247.963 195.611 254.638 190.013 254.638 183.107C254.638 176.202 247.963 170.603 239.729 170.603C231.495 170.603 224.82 176.202 224.82 183.107C224.82 190.013 231.495 195.611 239.729 195.611Z" fill="white" stroke="#1D1D1B" stroke-width="4" stroke-miterlimit="10"/>
<path d="M234.445 188.031C236.568 188.031 238.289 186.646 238.289 184.939C238.289 183.231 236.568 181.847 234.445 181.847C232.322 181.847 230.601 183.231 230.601 184.939C230.601 186.646 232.322 188.031 234.445 188.031Z" fill="white" stroke="#1D1D1B" stroke-width="4" stroke-miterlimit="10"/>
<path d="M235.506 193.123C236.066 193.123 236.519 192.758 236.519 192.308C236.519 191.858 236.066 191.493 235.506 191.493C234.946 191.493 234.493 191.858 234.493 192.308C234.493 192.758 234.946 193.123 235.506 193.123Z" fill="white" stroke="#1D1D1B" stroke-miterlimit="10"/>
<path d="M147.875 219.165C147.734 219.165 147.598 219.124 147.492 219.05C147.386 218.975 147.316 218.873 147.297 218.76C147.278 218.648 147.309 218.534 147.386 218.439C147.463 218.344 147.58 218.275 147.715 218.244C153.394 216.944 158.372 214.342 163.379 210.057C178.142 196.368 191.096 192.595 205.364 197.839C205.392 197.85 205.42 197.862 205.445 197.876C220.484 205.942 237.848 212.947 252.616 203.752C258.424 199.852 260.725 190.64 258.067 181.858C254.896 171.381 245.954 164.104 233.534 161.893C224.815 160.593 213.621 162.206 197.26 167.126C195.084 167.874 192.953 168.807 190.891 169.709C185.344 172.136 179.608 174.645 172.744 173.609C160.588 171.983 150.937 166.969 142.385 157.834C142.292 157.735 142.252 157.61 142.274 157.486C142.295 157.363 142.377 157.252 142.501 157.177C142.624 157.102 142.78 157.069 142.933 157.087C143.087 157.104 143.225 157.17 143.319 157.269C151.679 166.2 161.094 171.098 172.948 172.684C179.416 173.661 184.719 171.339 190.333 168.883C192.422 167.969 194.583 167.024 196.813 166.257C196.822 166.254 196.83 166.252 196.838 166.249C213.416 161.263 224.805 159.636 233.767 160.972C240.641 162.196 246.411 164.841 250.935 168.836C254.857 172.3 257.716 176.726 259.202 181.636C260.538 186.052 260.703 190.752 259.665 194.872C258.615 199.04 256.372 202.454 253.347 204.484C246.581 208.697 238.966 209.978 230.05 208.411C222.884 207.15 214.871 204.058 204.836 198.678C195.604 195.294 182.65 193.622 164.246 210.686C159.072 215.115 153.926 217.799 148.035 219.148C147.983 219.16 147.929 219.166 147.875 219.165Z" fill="#FF0000"/>
<path d="M146.953 138.952C146.953 138.921 146.903 138.924 146.881 138.937C146.544 139.133 145.872 138.652 145.681 138.488C145.43 138.272 145.212 138.034 144.96 137.82C144.505 137.432 143.957 137.099 143.344 136.89C142.479 136.597 141.216 136.386 140.419 136.904C140.409 136.906 140.397 136.906 140.386 136.908C140.366 136.912 140.347 136.92 140.334 136.933C140.32 136.946 140.313 136.963 140.313 136.979C140.309 136.983 140.305 136.985 140.3 136.988C140.294 136.992 140.3 137 140.306 136.996C140.308 136.994 140.311 136.993 140.313 136.992C140.313 136.998 140.314 137.004 140.315 137.01C140.319 137.076 140.443 137.019 140.441 136.968C140.441 136.966 141.422 137.025 141.526 137.044C141.981 137.126 142.457 137.216 142.863 137.401C143.243 137.574 143.671 137.721 143.972 137.983C144.274 138.246 144.584 138.502 144.896 138.756C145.449 139.208 145.846 139.52 146.655 139.584C147.008 139.612 146.957 139.113 146.953 138.952Z" fill="#E3051F"/>
<path d="M146.306 142.184C146.308 142.181 146.309 142.178 146.309 142.174C146.309 142.171 146.308 142.167 146.306 142.164C146.304 142.161 146.302 142.158 146.298 142.156C146.295 142.154 146.291 142.152 146.287 142.151C145.474 142.004 144.828 141.306 144.456 140.748C144.084 140.186 143.796 139.592 143.44 139.025C143.07 138.436 142.641 137.884 142.08 137.4C141.665 137.042 140.994 136.931 140.417 136.879C140.413 136.879 140.41 136.88 140.407 136.882C140.404 136.884 140.402 136.887 140.401 136.89C140.374 136.886 140.348 136.879 140.322 136.876C140.281 136.871 140.216 136.93 140.272 136.94C141.374 137.131 142.063 138.019 142.525 138.778C142.992 139.548 143.308 140.364 143.661 141.17C143.995 141.935 144.577 142.317 145.442 142.708C145.905 142.917 146.16 142.462 146.306 142.184Z" fill="#00798A"/>
<path d="M146.867 141.428C145.645 140.955 144.867 140.159 144.12 139.271C143.688 138.76 143.168 138.301 142.575 137.908C141.954 137.494 141.26 136.956 140.409 136.974C140.396 136.974 140.384 136.972 140.373 136.966C141.87 136.25 143.571 137.829 144.445 138.65C144.577 138.775 144.712 138.901 144.854 139.025C144.912 139.08 144.973 139.134 145.036 139.187C145.312 139.423 145.661 139.711 146.054 139.928C146.565 140.234 147.129 140.461 147.757 140.529C147.594 140.853 147.282 141.104 147.011 141.378C146.979 141.411 146.922 141.45 146.867 141.428Z" fill="#FFCA0D"/>
<path d="M120.334 158.278C120.193 157.633 119.774 157.34 119.172 156.932C118.834 156.701 118.491 156.471 118.143 156.25C117.795 156.03 117.579 155.697 117.335 155.406C117.074 155.095 116.926 154.72 116.79 154.362C116.757 154.279 116.608 153.498 116.608 153.498C116.675 153.495 116.736 153.393 116.654 153.393L116.632 153.394C116.633 153.391 116.634 153.389 116.636 153.387C116.64 153.381 116.631 153.378 116.626 153.383C116.623 153.386 116.619 153.39 116.615 153.394C116.595 153.395 116.575 153.402 116.56 153.414C116.545 153.426 116.536 153.441 116.533 153.458C116.532 153.466 116.532 153.476 116.532 153.485C115.951 154.163 116.31 155.16 116.74 155.831C117.046 156.307 117.502 156.721 118.016 157.055C118.301 157.24 118.614 157.398 118.9 157.582C119.118 157.722 119.768 158.223 119.55 158.508C119.535 158.527 119.536 158.568 119.575 158.566C119.773 158.557 120.396 158.559 120.334 158.278Z" fill="#E3051F"/>
<path d="M124.114 157.064C123.562 156.401 123.043 155.964 122.069 155.755C121.044 155.534 120.006 155.344 119.015 155.028C118.04 154.717 116.885 154.233 116.563 153.364C116.547 153.32 116.479 153.375 116.488 153.409C116.494 153.431 116.504 153.45 116.511 153.471C116.505 153.474 116.499 153.479 116.5 153.485C116.608 153.944 116.798 154.473 117.274 154.779C117.918 155.192 118.633 155.493 119.393 155.744C120.124 155.987 120.883 156.17 121.608 156.426C122.328 156.68 123.243 157.144 123.489 157.785C123.491 157.788 123.493 157.791 123.496 157.794C123.499 157.796 123.502 157.798 123.506 157.799C123.51 157.801 123.514 157.801 123.519 157.801C123.523 157.801 123.527 157.8 123.531 157.798C123.863 157.659 124.409 157.419 124.114 157.064Z" fill="#00798A"/>
<path d="M122.638 158.306C121.955 157.362 120.909 156.8 119.75 156.269C119.076 155.961 118.48 155.582 117.942 155.136C117.38 154.67 116.66 154.155 116.616 153.471C116.616 153.461 116.612 153.451 116.604 153.442C115.832 154.698 117.921 155.941 119.006 156.578C119.171 156.674 119.337 156.773 119.503 156.877C119.576 156.92 119.647 156.964 119.717 157.01C120.031 157.214 120.415 157.472 120.714 157.77C121.134 158.156 121.459 158.591 121.591 159.089C121.981 158.933 122.266 158.663 122.586 158.425C122.624 158.397 122.668 158.348 122.638 158.306Z" fill="#FFCA0D"/>
<path d="M147.379 162.026C147.379 162.026 139.854 146.349 140.646 136.727C140.646 136.727 127.073 136.851 117.117 135.244C117.117 135.244 117.809 147.464 116.478 153.548C116.478 153.548 140.227 156.538 147.379 162.026Z" fill="#E3051F"/>
<path d="M128.249 143.837C131.802 141.348 135.972 138.794 140.488 136.727C138.947 136.735 126.444 136.749 117.117 135.244C117.117 135.244 122.132 138.886 128.249 143.837Z" fill="#00F2F2"/>
<path d="M128.249 143.837C122.132 138.886 117.117 135.244 117.117 135.244C117.117 135.244 117.809 147.464 116.478 153.548C116.478 153.548 121.126 148.824 128.249 143.837Z" fill="#FFFF00"/>
<path d="M140.646 136.727C140.646 136.727 140.592 136.727 140.488 136.727C135.972 138.794 131.803 141.348 128.249 143.836C135.063 149.352 143.243 156.49 147.379 162.026C147.379 162.026 139.854 146.349 140.646 136.727Z" fill="#FFFF00"/>
<path d="M116.478 153.548C116.478 153.548 140.227 156.538 147.379 162.026C143.244 156.49 135.063 149.352 128.249 143.837C121.126 148.824 116.478 153.548 116.478 153.548Z" fill="#00F2F2"/>
<path d="M147.383 162.124C147.367 162.125 147.351 162.122 147.336 162.118C147.321 162.113 147.307 162.106 147.295 162.097C140.25 156.693 116.696 153.674 116.459 153.645C116.443 153.643 116.428 153.638 116.414 153.631C116.4 153.624 116.388 153.615 116.379 153.605C116.359 153.583 116.351 153.556 116.357 153.53C117.671 147.526 117.001 135.371 116.994 135.248C116.994 135.233 116.997 135.219 117.004 135.205C117.012 135.191 117.023 135.179 117.037 135.169C117.051 135.16 117.068 135.153 117.086 135.149C117.104 135.145 117.123 135.145 117.141 135.148C126.97 136.733 140.509 136.629 140.645 136.627C140.662 136.627 140.679 136.63 140.694 136.636C140.71 136.641 140.724 136.649 140.736 136.659C140.747 136.669 140.756 136.68 140.762 136.693C140.767 136.706 140.77 136.719 140.769 136.733C139.986 146.224 147.419 161.834 147.494 161.99C147.504 162.011 147.504 162.034 147.496 162.055C147.488 162.076 147.47 162.095 147.447 162.107C147.428 162.118 147.406 162.124 147.383 162.124ZM116.62 153.466C118.449 153.705 139.851 156.606 147.086 161.677C145.95 159.216 139.857 145.53 140.516 136.826C139.092 136.833 126.564 136.846 117.246 135.365C117.314 136.67 117.839 147.742 116.62 153.466Z" fill="#702D31"/>
<path d="M116.48 153.646C116.462 153.647 116.443 153.643 116.426 153.637C116.412 153.631 116.398 153.623 116.388 153.614C116.377 153.604 116.368 153.593 116.363 153.581C116.357 153.569 116.354 153.556 116.355 153.543C116.356 153.53 116.36 153.517 116.367 153.505C116.438 153.384 123.607 141.307 140.607 136.634C140.637 136.626 140.67 136.628 140.699 136.639C140.728 136.651 140.75 136.671 140.76 136.695C140.771 136.72 140.769 136.746 140.755 136.77C140.741 136.793 140.716 136.811 140.686 136.82C123.788 141.466 116.659 153.468 116.589 153.589C116.579 153.606 116.564 153.62 116.545 153.63C116.525 153.64 116.503 153.646 116.48 153.646Z" fill="#702D31"/>
<path d="M147.383 162.124C147.363 162.125 147.343 162.121 147.324 162.114C147.306 162.107 147.291 162.096 147.279 162.083C134.718 147.823 117.211 135.441 117.036 135.318C117.024 135.31 117.013 135.299 117.006 135.288C116.999 135.276 116.994 135.263 116.993 135.25C116.992 135.237 116.994 135.224 116.999 135.212C117.005 135.199 117.013 135.188 117.023 135.178C117.034 135.168 117.047 135.16 117.062 135.155C117.076 135.149 117.092 135.146 117.108 135.145C117.124 135.144 117.141 135.146 117.156 135.15C117.171 135.154 117.185 135.161 117.197 135.17C117.373 135.293 134.901 147.69 147.48 161.969C147.499 161.99 147.506 162.016 147.501 162.042C147.496 162.068 147.478 162.091 147.452 162.106C147.432 162.118 147.407 162.124 147.383 162.124Z" fill="#702D31"/>
<g style="mix-blend-mode:screen">
<path d="M117.519 136.221C117.519 136.221 119.085 147.137 117.057 152.07C117.058 152.07 120.759 144.236 117.519 136.221Z" fill="white"/>
</g>
<path d="M140.019 137.465C140.019 137.465 140.055 146.838 145.838 159.036C145.838 159.036 138.74 147.758 140.019 137.465Z" fill="white"/>
<path d="M117.602 153.537C117.602 153.537 131.845 153.842 145.596 160.769C145.596 160.769 135.382 153.264 117.602 153.537Z" fill="white"/>
<g style="mix-blend-mode:screen">
<path d="M118.604 135.653C118.604 135.653 130.28 137.892 138.345 137.011C138.346 137.012 127.984 138.835 118.604 135.653Z" fill="#FDFFFF"/>
</g>
<path d="M120.466 144.257L121.074 144.565L121.734 144.335L121.558 144.897L122.033 145.331L121.316 145.37L120.949 145.866L120.681 145.33L119.98 145.203L120.532 144.832L120.466 144.257Z" fill="#00BDFF"/>
<path d="M124.54 142.508L124.865 142.673L125.218 142.55L125.125 142.85L125.378 143.082L124.995 143.103L124.799 143.368L124.656 143.082L124.282 143.014L124.576 142.816L124.54 142.508Z" fill="#00BDFF"/>
<path d="M119.938 139.342L120.259 139.506L120.611 139.387L120.515 139.684L120.765 139.915L120.384 139.934L120.188 140.196L120.048 139.911L119.677 139.842L119.971 139.647L119.938 139.342Z" fill="#00BDFF"/>
<path d="M134.848 146.679L135.456 146.987L136.116 146.758L135.94 147.319L136.415 147.753L135.697 147.792L135.331 148.29L135.064 147.753L134.362 147.626L134.915 147.256L134.848 146.679Z" fill="#FF0025"/>
<path d="M140.108 151.772L140.401 151.92L140.717 151.81L140.633 152.079L140.861 152.287L140.516 152.307L140.341 152.545L140.211 152.288L139.875 152.227L140.139 152.049L140.108 151.772Z" fill="#FF0025"/>
<path d="M138.923 144.931L139.248 145.095L139.601 144.972L139.507 145.273L139.761 145.504L139.377 145.526L139.181 145.791L139.038 145.504L138.664 145.437L138.958 145.238L138.923 144.931Z" fill="#FF0025"/>
<path d="M134.32 141.764L134.642 141.929L134.994 141.809L134.897 142.106L135.148 142.338L134.767 142.356L134.57 142.619L134.43 142.334L134.06 142.264L134.353 142.069L134.32 141.764Z" fill="#FF0025"/>
<path d="M124.979 148.591L125.588 148.899L126.249 148.67L126.072 149.23L126.547 149.665L125.83 149.703L125.463 150.201L125.196 149.664L124.494 149.537L125.046 149.167L124.979 148.591Z" fill="#FF8710"/>
<path d="M132.078 150.564L132.444 150.749L132.841 150.611L132.735 150.948L133.02 151.209L132.589 151.232L132.369 151.531L132.209 151.209L131.787 151.133L132.118 150.91L132.078 150.564Z" fill="#FF8710"/>
<path d="M121.877 151.743L122.242 151.928L122.639 151.791L122.533 152.127L122.818 152.388L122.388 152.411L122.167 152.709L122.007 152.388L121.585 152.311L121.917 152.089L121.877 151.743Z" fill="#FF8710"/>
<path d="M138.654 156.318L138.861 156.422L139.086 156.344L139.026 156.535L139.187 156.683L138.944 156.696L138.819 156.866L138.728 156.683L138.489 156.639L138.677 156.514L138.654 156.318Z" fill="#FF8710"/>
<path d="M122.596 137.411L122.803 137.516L123.027 137.438L122.968 137.629L123.13 137.777L122.885 137.79L122.761 137.959L122.669 137.777L122.43 137.734L122.619 137.607L122.596 137.411Z" fill="#C3D100"/>
<path d="M131.765 138.492L132.103 138.664L132.47 138.536L132.373 138.848L132.636 139.09L132.238 139.111L132.034 139.388L131.885 139.089L131.495 139.019L131.802 138.813L131.765 138.492Z" fill="#C3D100"/>
<path d="M126.351 141.44L126.532 141.531L126.727 141.463L126.675 141.629L126.816 141.758L126.603 141.769L126.494 141.917L126.415 141.757L126.207 141.72L126.371 141.61L126.351 141.44Z" fill="#C3D100"/>
<path d="M212.33 215.335C212.33 215.335 200.595 220.212 190.038 218.695C185.793 218.086 180.896 215.594 177.26 212.691C175.442 211.238 173.006 209.127 171.123 206.934C170.476 206.181 169.896 205.418 169.428 204.669C169.098 204.098 168.806 203.514 168.551 202.92C167.278 199.944 166.578 195.69 169.68 191.418C174.577 186.115 184.048 187.583 187.682 189.981C190.355 191.961 188.451 195.368 186.008 195.429C183.564 195.489 183.842 194.085 180.594 194.169C178.257 194.228 176.212 196.503 177.346 198.868C177.608 199.416 178.039 199.968 178.679 200.499C179.006 200.874 179.258 201.098 179.43 201.049C179.433 201.052 179.436 201.053 179.439 201.055C179.443 201.058 179.446 201.06 179.451 201.062C179.518 201.115 179.778 201.309 180.188 201.601C182.203 203.026 187.899 206.798 192.965 207.71C199.248 208.84 205.65 206.94 206.487 199.024C207.326 191.109 195.434 185.225 183.811 180.172C178.012 178.255 174.359 176.739 170.23 174.386C159.206 165.461 163.094 152.049 170.59 143.925C175.623 138.469 184.051 136.225 184.051 136.225C192.683 134.031 200.925 134.211 208.583 137.982C208.583 137.982 218.467 143.36 216.419 152.25C214.045 158.575 204.516 159.772 200.087 158.506C196.737 157.371 197.094 153.645 199.369 152.924C201.643 152.202 201.97 153.597 204.993 152.635C208.014 151.672 208.698 146.837 202.179 145.61C184.229 142.338 177.215 150.606 178.008 161.971C179.049 164.813 182.406 168.415 186.907 169.851C192.113 171.511 196.359 172.232 198.036 172.881C201.762 174.326 207.803 177.537 208.851 178.38C209.897 179.221 220.847 187.571 222.523 197.003C224.497 209.515 212.33 215.335 212.33 215.335Z" fill="#00E1FF"/>
<path d="M198.037 172.882C196.36 172.232 192.113 171.511 186.908 169.851C182.406 168.415 179.05 164.813 178.008 161.971C177.216 150.607 184.23 142.338 202.18 145.61C208.698 146.838 208.015 151.673 204.993 152.636C201.971 153.598 201.643 152.203 199.369 152.924C197.095 153.646 196.738 157.37 200.087 158.506C204.516 159.772 214.044 158.575 216.42 152.251C218.467 143.359 208.582 137.982 208.582 137.982C200.925 134.212 192.682 134.031 184.051 136.226C184.051 136.226 175.622 138.468 170.588 143.925C163.095 152.05 159.206 165.462 170.229 174.386C174.359 176.74 177.921 178.873 184.11 179.727L198.037 172.882Z" fill="#00E1FF"/>
<path d="M171.123 206.934L171.049 206.977C171.049 206.977 170.263 206.112 169.428 204.669C169.897 205.418 170.476 206.181 171.123 206.934Z" fill="#00E1FF"/>
<path d="M179.43 201.049C179.259 201.098 179.006 200.874 178.679 200.499C178.915 200.695 179.166 200.879 179.43 201.049Z" fill="#00E1FF"/>
<path d="M180.284 201.546L180.188 201.601C179.777 201.309 179.518 201.115 179.451 201.063C179.718 201.235 179.996 201.396 180.284 201.546Z" fill="#00E1FF"/>
<path d="M241.001 170.327C230.967 170.327 222.833 176.869 222.833 184.939C222.833 193.009 230.967 199.551 241.001 199.551C251.035 199.551 259.169 193.009 259.169 184.939C259.169 176.869 251.035 170.327 241.001 170.327Z" fill="#016334"/>
<path d="M246.476 173.665C253.569 175.691 258.062 180.178 256.512 183.688C254.962 187.198 250.564 182.494 243.472 180.468C236.379 178.442 229.278 179.861 230.828 176.351C232.379 172.841 239.384 171.639 246.476 173.665Z" fill="#004F27"/>
<path d="M235.987 196.559C228.863 194.524 225.139 188.229 227.669 182.5C230.199 176.77 233.767 183.417 240.891 185.453C248.015 187.488 255.997 184.14 253.468 189.87C250.938 195.599 243.11 198.594 235.987 196.559Z" fill="#91C53C"/>
<path d="M245.369 188.975C247.758 187.054 247.758 183.938 245.369 182.017C242.98 180.095 239.106 180.095 236.717 182.017C234.328 183.938 234.328 187.054 236.717 188.975C239.106 190.897 242.98 190.897 245.369 188.975Z" fill="#181003"/>
<path d="M249.548 183.453C248.795 185.157 246.468 186.047 244.349 185.442C242.231 184.837 241.123 182.965 241.876 181.261C242.628 179.557 244.956 178.667 247.074 179.272C249.193 179.877 250.3 181.749 249.548 183.453Z" fill="white"/>
<path d="M247.814 168.602C235.682 166.931 222.227 175.304 217.762 187.304C213.297 199.305 219.512 210.387 231.644 212.059C243.776 213.731 257.231 205.356 261.696 193.357C266.161 181.357 259.946 170.273 247.814 168.602ZM257.314 192.837C253.926 201.941 243.294 208.236 233.565 206.896C223.837 205.556 218.697 197.088 222.085 187.984C225.473 178.879 236.106 172.585 245.834 173.925C255.562 175.265 260.702 183.732 257.314 192.837Z" fill="#FF0000"/>
<path d="M258.823 175.955C261.058 177.703 267.544 177.398 270.49 174.672C268.486 175.922 266.1 176.678 263.616 176.083C265.806 175.918 268.913 174.081 269.882 172.8C268.622 173.861 265.835 174.594 263.837 174.452C264.767 174.113 266.344 173.468 267.381 171.98C266.813 172.46 264.904 174.11 261.159 173.753C262.527 173.602 263.901 173.294 265.317 171.761C264.436 172.364 262.374 173.791 260.173 173.162C261.58 172.893 263.401 171.509 263.688 171.191C262.327 172.008 260.659 172.379 258.615 172.101C260.489 171.52 261.207 170.723 261.526 170.443C260.603 171.037 258.608 171.846 255.964 171.597C257.864 171.211 259.659 169.632 259.659 169.632C259.659 169.632 257.414 171.337 253.897 170.427C256.323 170.376 257.011 169.668 257.429 169.092C256.851 169.602 254.958 170.242 252.555 169.95C254.213 169.196 254.095 168.316 254.095 168.316C254.095 168.316 254.045 169.025 250.261 168.786C246.478 168.547 243.059 166.6 236.162 169.852C239.671 168.86 245.12 167.522 251.692 170.273C255.616 171.917 256.228 173.926 258.823 175.955Z" fill="#181003"/>
<path d="M148.291 218.642C148.291 218.642 146.969 213.552 145.579 214.334C144.187 215.117 140.93 218.939 143.431 219.252C145.932 219.568 148.291 218.642 148.291 218.642Z" fill="#005BED"/>
<path d="M148.22 218.671C148.22 218.671 154.674 218.388 154.091 219.67C153.507 220.952 149.757 224.469 148.734 222.605C147.712 220.742 148.22 218.671 148.22 218.671Z" fill="#005BED"/>
<path d="M90.6936 164.041C90.5418 162.769 91.1004 161.51 92.2623 160.619C92.8075 160.201 91.9808 159.537 91.4364 159.955C90.0801 160.994 89.3461 162.538 89.5255 164.041C89.5557 164.293 89.7721 164.51 90.1095 164.51C90.402 164.51 90.7238 164.295 90.6936 164.041Z" fill="white"/>
<path d="M99.4163 158.011L110.429 156.441C110.74 156.397 110.915 156.091 110.837 155.863C110.747 155.599 110.43 155.49 110.119 155.535L99.1057 157.105C98.795 157.149 98.6199 157.455 98.6979 157.683C98.7879 157.947 99.1046 158.056 99.4163 158.011Z" fill="white"/>
<path d="M98.0217 176.598C97.9999 177.262 98.2894 177.948 98.7497 178.495C99.2401 179.079 99.8894 179.381 100.764 179.432C102.499 179.532 104.289 179.311 105.933 178.864C106.641 178.672 106.337 177.764 105.622 177.959C104.227 178.338 102.774 178.53 101.3 178.51C100.99 178.505 100.646 178.518 100.349 178.432C100.115 178.365 99.9264 178.211 99.7839 178.052C99.4106 177.635 99.1726 177.114 99.1895 176.599C99.2095 175.994 98.0414 175.994 98.0214 176.599L98.0217 176.598Z" fill="white"/>
<path d="M123.881 181.06C124.014 181.339 124.361 181.923 123.959 182.163C123.736 182.297 123.377 182.327 123.115 182.382C122.771 182.454 122.426 182.524 122.08 182.59C120.697 182.857 119.303 183.078 117.896 183.254C117.584 183.294 117.411 183.607 117.488 183.832C117.58 184.1 117.894 184.2 118.207 184.16C119.834 183.955 121.446 183.691 123.045 183.367C123.762 183.221 124.653 183.12 125.061 182.558C125.465 182.003 125.275 181.373 125.008 180.811C124.895 180.574 124.614 180.411 124.289 180.483C124.008 180.545 123.769 180.822 123.881 181.06V181.06Z" fill="white"/>
<path d="M104.518 198.421L105.081 199.671C105.248 200.042 105.403 200.433 105.672 200.766C106.218 201.441 107.098 201.719 108.065 201.777C109.072 201.838 110.12 201.714 111.113 201.588C112.213 201.446 113.298 201.232 114.355 200.948C115.064 200.759 114.76 199.851 114.044 200.043C112.257 200.521 110.319 200.863 108.426 200.849C107.734 200.844 107.015 200.742 106.632 200.229C106.426 199.952 106.306 199.64 106.17 199.338L105.645 198.171C105.537 197.933 105.247 197.772 104.926 197.843C104.64 197.907 104.41 198.181 104.518 198.421V198.421Z" fill="white"/>
<path d="M131.161 202.743C131.507 203.48 131.141 204.279 130.237 204.647C129.718 204.859 129.094 204.923 128.526 204.995C127.827 205.084 127.122 205.14 126.416 205.173C126.101 205.188 125.832 205.378 125.832 205.643C125.832 205.885 126.099 206.127 126.416 206.112C127.26 206.072 128.101 205.997 128.936 205.888C129.663 205.793 130.417 205.675 131.052 205.357C132.22 204.773 132.778 203.539 132.287 202.493C132.175 202.256 131.893 202.094 131.568 202.165C131.286 202.228 131.048 202.505 131.161 202.743H131.161Z" fill="white"/>
<path d="M89.5371 163.803C89.6452 164.726 90.0166 165.608 90.675 166.373C90.8988 166.633 91.4867 166.721 91.6835 166.373C91.929 165.939 91.9898 165.493 91.9678 165.019C91.9485 164.606 91.8842 164.185 92.0118 163.779C92.2512 163.017 92.9444 162.421 93.6724 161.927C94.0756 161.653 94.4769 161.374 94.691 160.975C94.8869 160.611 94.8828 160.173 94.6421 159.821C94.3726 159.428 93.8215 159.238 93.2791 159.322C92.7004 159.412 92.261 159.775 91.912 160.133C91.1365 160.928 90.6556 161.868 90.3436 162.842L91.4699 163.091C91.5991 162.626 91.7211 162.141 92.0277 161.726C92.2422 161.436 92.6098 161.128 93.0505 161.084L92.7557 160.209C91.7145 160.703 90.9516 161.447 90.4985 162.343C90.3797 162.578 90.6277 162.859 90.9065 162.921C91.2406 162.995 91.5056 162.829 91.6249 162.593C91.9596 161.931 92.585 161.381 93.3452 161.02C93.8066 160.801 93.653 160.085 93.0505 160.145C92.2582 160.224 91.6324 160.557 91.1661 161.073C90.6998 161.589 90.5132 162.231 90.3441 162.842C90.1812 163.429 91.2819 163.68 91.4705 163.091C91.6963 162.387 92.0048 161.705 92.4926 161.089C92.7096 160.814 92.9655 160.505 93.3053 160.32C93.3875 160.275 93.4924 160.221 93.5878 160.245C93.6213 160.254 93.6563 160.325 93.6659 160.395C93.6982 160.621 93.4467 160.837 93.2266 161C92.9128 161.233 92.5733 161.44 92.273 161.686C91.655 162.191 91.1266 162.802 90.8976 163.494C90.7628 163.902 90.7583 164.318 90.7836 164.736C90.8063 165.112 90.8762 165.544 90.6755 165.899H91.6841C91.1466 165.275 90.7946 164.562 90.7056 163.803C90.6762 163.551 90.4591 163.333 90.1216 163.333C89.8287 163.333 89.5079 163.549 89.5376 163.803L89.5371 163.803Z" fill="white"/>
<path d="M89.6787 170.962C89.8619 171.171 90.115 171.333 90.4322 171.387C90.7519 171.441 91.0548 171.412 91.3516 171.305C91.8311 171.132 92.1679 170.713 92.2695 170.309C92.3955 169.807 92.2467 169.258 91.686 168.963C91.4679 168.849 91.1736 168.781 90.9126 168.802C90.5477 168.833 90.253 168.964 90.0433 169.209C89.7241 169.582 89.8915 170.026 89.8272 170.44C89.81 170.551 89.9048 170.697 89.9982 170.772C90.0996 170.854 90.2657 170.915 90.4112 170.91C90.5619 170.904 90.7189 170.864 90.8241 170.772C90.9359 170.674 90.9748 170.571 90.9953 170.44C91.0332 170.195 90.9724 169.947 91.0129 169.703L90.9921 169.827C91.0028 169.768 91.0225 169.711 91.0507 169.656L90.9918 169.768C91.0123 169.732 91.0374 169.699 91.0666 169.667L90.9754 169.762C91.0022 169.736 91.0318 169.712 91.064 169.69L90.9458 169.764C90.9838 169.741 91.0252 169.721 91.0691 169.706L90.9295 169.753C90.974 169.74 91.0203 169.73 91.0674 169.725L90.9121 169.742C90.9683 169.737 91.025 169.737 91.0811 169.743L90.9258 169.726C90.991 169.734 91.0547 169.749 91.1155 169.769L90.9761 169.722C91.0292 169.741 91.0797 169.764 91.1268 169.792L91.0087 169.718C91.0542 169.747 91.0955 169.779 91.132 169.815L91.0407 169.72C91.0876 169.77 91.1265 169.824 91.1566 169.882L91.0977 169.77C91.1292 169.836 91.1508 169.905 91.1621 169.975L91.1413 169.85C91.1528 169.937 91.1514 170.026 91.1372 170.113L91.158 169.988C91.1396 170.088 91.1064 170.186 91.0594 170.279L91.1183 170.167C91.0712 170.257 91.0102 170.342 90.9366 170.419L91.0279 170.324C90.9704 170.382 90.9047 170.434 90.8321 170.48L90.9502 170.406C90.8916 170.441 90.8284 170.47 90.7618 170.494L90.9014 170.447C90.839 170.467 90.7739 170.481 90.7074 170.489L90.8626 170.472C90.7875 170.479 90.7115 170.479 90.6365 170.471L90.7918 170.488C90.726 170.48 90.6616 170.465 90.6 170.445L90.7396 170.492C90.6875 170.473 90.6384 170.449 90.593 170.421L90.7113 170.495C90.6735 170.469 90.6394 170.441 90.6093 170.409L90.7006 170.504L90.6862 170.488C90.5969 170.386 90.4912 170.306 90.3373 170.272C90.1974 170.241 90.0112 170.255 89.8872 170.32C89.6398 170.448 89.4899 170.747 89.6776 170.962H89.6787Z" fill="white"/>
<path d="M91.6099 174.375C92.3615 174.375 92.3634 173.435 91.6099 173.435C90.8565 173.435 90.8565 174.375 91.6099 174.375Z" fill="white"/>
<path d="M139.718 182.871C137.802 182.539 136.361 183.956 135.813 185.264C135.509 185.991 135.421 186.773 135.428 187.536C135.433 187.95 135.465 188.363 135.503 188.776C135.536 189.14 135.541 189.595 136.022 189.775C136.399 189.915 136.921 189.754 136.901 189.369C136.843 188.32 137.054 187.273 137.522 186.293C137.882 185.538 138.52 184.376 139.745 184.507C140.059 184.54 140.329 184.267 140.329 184.037C140.329 183.755 140.059 183.601 139.745 183.567C138.112 183.393 137.111 184.677 136.563 185.712C135.952 186.866 135.668 188.116 135.733 189.37L136.612 188.964C136.702 189.108 136.733 189.142 136.704 189.067C136.695 189.035 136.692 189.03 136.696 189.051C136.717 188.987 136.681 188.887 136.675 188.822C136.66 188.654 136.645 188.486 136.632 188.317C136.607 187.981 136.591 187.644 136.597 187.307C136.607 186.722 136.688 186.145 136.91 185.587C137.103 185.1 137.411 184.633 137.862 184.269C138.255 183.951 138.83 183.677 139.407 183.777C140.14 183.904 140.453 182.998 139.717 182.871L139.718 182.871Z" fill="white"/>
<path d="M136.405 192.08C136.42 192.076 136.435 192.073 136.45 192.071L136.295 192.088C136.315 192.086 136.335 192.086 136.354 192.088L136.199 192.071C136.223 192.074 136.247 192.079 136.269 192.087L136.13 192.039C136.152 192.047 136.173 192.057 136.193 192.069L136.075 191.996C136.094 192.008 136.111 192.022 136.126 192.038L136.035 191.943C136.047 191.956 136.057 191.97 136.065 191.984L136.006 191.872C136.014 191.886 136.019 191.902 136.022 191.918L136.001 191.793C136.003 191.802 136.004 191.811 136.004 191.82L136.588 191.35L136.066 191.36C135.912 191.364 135.766 191.414 135.657 191.502C135.549 191.589 135.486 191.707 135.482 191.83L135.503 191.955C135.53 192.033 135.581 192.105 135.653 192.162L135.771 192.236C135.861 192.278 135.963 192.3 136.066 192.3L136.588 192.289C136.742 192.284 136.888 192.235 137.001 192.152L137.092 192.057C137.145 191.985 137.172 191.903 137.172 191.82C137.172 191.811 137.171 191.802 137.17 191.793C137.163 191.745 137.16 191.694 137.144 191.647C137.141 191.639 137.137 191.63 137.133 191.622C137.111 191.578 137.092 191.532 137.062 191.491C136.989 191.388 136.893 191.32 136.775 191.253C136.757 191.244 136.739 191.235 136.72 191.228C136.67 191.21 136.588 191.176 136.523 191.167C136.38 191.146 136.236 191.134 136.095 191.174C135.984 191.197 135.885 191.247 135.81 191.317C135.735 191.386 135.689 191.473 135.677 191.565C135.659 191.627 135.663 191.691 135.687 191.752L135.746 191.864C135.797 191.934 135.869 191.992 135.956 192.033L136.095 192.08C136.197 192.102 136.304 192.102 136.406 192.08L136.405 192.08Z" fill="white"/>
<path d="M136.155 194.393C136.907 194.393 136.908 193.454 136.155 193.454C135.402 193.454 135.402 194.393 136.155 194.393Z" fill="white"/>
<path d="M144.556 188.736C147.122 191.864 149.996 194.821 153.151 197.579C154.039 198.355 154.949 199.115 155.881 199.857C156.415 200.283 157.242 199.619 156.707 199.193C153.459 196.601 150.462 193.805 147.773 190.828C147.013 189.986 146.277 189.131 145.565 188.262C145.153 187.759 144.14 188.229 144.556 188.736V188.736Z" fill="white"/>
<path d="M161.088 177.301C163.283 176.992 165.469 178.072 166.157 179.766C166.389 180.338 167.518 180.094 167.283 179.517C166.866 178.489 166.03 177.598 164.894 177.015C163.673 176.389 162.192 176.196 160.778 176.395C160.467 176.439 160.292 176.745 160.37 176.973C160.46 177.237 160.777 177.345 161.088 177.301L161.088 177.301Z" fill="white"/>
<path d="M174.164 206.852C173.759 208.596 172.627 210.466 170.276 210.877C169.967 210.931 169.788 211.22 169.868 211.455C169.955 211.711 170.277 211.837 170.586 211.783C173.323 211.305 174.813 209.159 175.29 207.102C175.348 206.853 175.204 206.595 174.882 206.524C174.598 206.461 174.222 206.601 174.164 206.852Z" fill="white"/>
<path d="M140.807 196.497C139.764 196.944 139.644 198.062 139.543 198.901C139.417 199.96 139.508 201.028 139.775 202.069C139.839 202.318 140.204 202.461 140.494 202.397C140.814 202.326 140.965 202.069 140.901 201.819C140.679 200.948 140.606 200.057 140.684 199.17C140.718 198.768 140.773 198.358 140.895 197.966C140.976 197.704 141.086 197.441 141.396 197.308C142.06 197.023 141.471 196.212 140.807 196.497H140.807Z" fill="white"/>
<path d="M144.39 213.023C144.218 212.924 144.484 213.078 144.465 213.093C144.413 213.037 144.405 213.03 144.44 213.071L144.46 213.096C144.463 213.099 144.514 213.176 144.513 213.176C144.48 213.11 144.475 213.101 144.497 213.149L144.509 213.178C144.521 213.207 144.531 213.237 144.539 213.267C144.571 213.384 144.529 213.268 144.542 213.264C144.538 213.265 144.548 213.344 144.548 213.357C144.548 213.388 144.545 213.419 144.544 213.45C144.541 213.55 144.573 213.358 144.544 213.448C144.526 213.502 144.518 213.582 144.476 213.628C144.559 213.536 144.483 213.61 144.464 213.639C144.444 213.669 144.422 213.698 144.399 213.727C144.384 213.746 144.368 213.764 144.351 213.782L144.392 213.741C144.371 213.774 144.325 213.804 144.294 213.831C144.235 213.881 144.171 213.925 144.107 213.97C144.074 213.992 144.085 213.985 144.141 213.95C144.123 213.96 144.106 213.97 144.088 213.98C144.053 213.999 144.017 214.018 143.981 214.036C143.908 214.073 143.833 214.106 143.756 214.136C143.742 214.141 143.606 214.187 143.674 214.166C143.738 214.146 143.593 214.189 143.578 214.194C143.183 214.305 142.769 214.36 142.358 214.414C142.056 214.454 141.861 214.768 141.95 214.992C142.056 215.255 142.345 215.363 142.669 215.32C143.647 215.191 144.652 214.994 145.289 214.332C145.579 214.03 145.751 213.65 145.71 213.265C145.663 212.831 145.421 212.467 144.979 212.212C144.73 212.069 144.318 212.171 144.18 212.381C144.021 212.623 144.124 212.87 144.39 213.023L144.39 213.023Z" fill="white"/>
<path d="M176.404 164.163C177.405 166.256 179.164 168.043 181.306 169.463C183.671 171.03 186.412 172.134 189.246 173.04C190.901 173.569 192.588 174.031 194.274 174.492C194.987 174.686 195.293 173.779 194.585 173.586C189.206 172.116 183.507 170.529 179.748 166.906C178.821 166.014 178.05 164.999 177.531 163.913C177.417 163.676 177.138 163.513 176.812 163.585C176.531 163.647 176.29 163.925 176.404 164.163H176.404Z" fill="white"/>
<path d="M170.328 153.409C166.78 157.051 166.041 161.948 167.758 166.306C168.251 167.558 168.929 168.764 169.758 169.896C170.139 170.416 171.149 169.944 170.767 169.422C168.048 165.713 167.139 161.179 169.054 157.091C169.559 156.013 170.269 154.981 171.153 154.074C171.347 153.874 171.395 153.604 171.153 153.409C170.951 153.247 170.523 153.209 170.327 153.409L170.328 153.409Z" fill="white"/>
<path d="M211.807 153.86C211 155.091 209.418 155.859 207.789 156.216C205.924 156.625 203.957 156.509 202.086 156.191C201.777 156.139 201.454 156.264 201.367 156.519C201.288 156.753 201.465 157.045 201.775 157.097C203.883 157.454 206.098 157.58 208.193 157.101C210.065 156.674 211.888 155.75 212.815 154.335C213.165 153.8 212.158 153.325 211.807 153.861V153.86Z" fill="white"/>
<path d="M204.391 145.412C207.195 145.872 208.947 148.278 208.264 150.486C208.082 151.073 209.209 151.324 209.39 150.736C210.218 148.06 208.137 145.07 204.701 144.506C204.393 144.456 204.071 144.578 203.983 144.834C203.904 145.066 204.08 145.361 204.391 145.412Z" fill="white"/>
<path d="M177.636 142.04C179.209 140.966 180.797 139.886 182.622 139.095C184.371 138.337 186.332 137.877 188.313 137.754C189.448 137.684 190.596 137.712 191.72 137.858C192.031 137.898 192.348 137.793 192.438 137.53C192.515 137.306 192.344 136.992 192.031 136.952C189.87 136.673 187.664 136.742 185.542 137.18C183.426 137.616 181.495 138.428 179.744 139.467C178.731 140.068 177.769 140.721 176.81 141.376C176.57 141.54 176.6 141.871 176.81 142.04C177.049 142.231 177.395 142.204 177.636 142.04Z" fill="white"/>
<path d="M258.951 178.975C260.362 181.564 260.847 184.494 260.326 187.289C260.279 187.539 260.404 187.794 260.734 187.867C261.01 187.928 261.405 187.791 261.452 187.539C262.026 184.473 261.509 181.34 259.96 178.501C259.833 178.269 259.411 178.215 259.161 178.333C258.863 178.473 258.824 178.742 258.951 178.975Z" fill="white"/>
<path d="M223.887 207.709C224.877 207.989 225.671 208.604 226.542 209.055C227.441 209.521 228.41 209.896 229.415 210.189C231.407 210.77 233.572 210.99 235.68 210.818C235.994 210.793 236.264 210.621 236.264 210.349C236.264 210.114 235.996 209.853 235.68 209.879C233.632 210.046 231.563 209.833 229.633 209.256C228.695 208.977 227.799 208.603 226.966 208.157C226.058 207.671 225.242 207.099 224.197 206.803C223.9 206.718 223.558 206.899 223.479 207.131C223.39 207.39 223.589 207.624 223.887 207.709Z" fill="white"/>
<path d="M230.249 175.123C232.732 173.405 235.674 172.121 238.812 171.37C239.723 171.153 240.65 170.979 241.587 170.85C241.898 170.807 242.072 170.499 241.994 170.272C241.904 170.008 241.588 169.901 241.276 169.944C237.872 170.418 234.631 171.466 231.765 173.018C230.95 173.462 230.168 173.943 229.423 174.459C229.183 174.625 229.211 174.954 229.423 175.124C229.66 175.314 230.009 175.289 230.249 175.124L230.249 175.123Z" fill="white"/>
<path d="M202.678 177.929C206.363 179.019 209.531 181.174 211.55 183.876C212.12 184.636 212.596 185.439 212.97 186.274C213.076 186.513 213.367 186.673 213.688 186.602C213.975 186.539 214.203 186.264 214.096 186.024C212.665 182.816 209.852 180.058 206.238 178.28C205.21 177.774 204.119 177.357 202.989 177.023C202.693 176.936 202.349 177.121 202.27 177.351C202.181 177.614 202.381 177.841 202.678 177.929V177.929Z" fill="white"/>
<path d="M215.89 206.194C216.082 207.941 214.42 209.382 212.88 210.43C211.197 211.576 209.22 212.42 207.21 213.131C206.074 213.533 204.913 213.888 203.75 214.236C203.455 214.324 203.253 214.554 203.342 214.814C203.42 215.042 203.763 215.23 204.061 215.142C206.278 214.48 208.495 213.78 210.558 212.843C212.581 211.923 214.571 210.744 215.912 209.194C216.665 208.322 217.176 207.27 217.058 206.194C217.031 205.941 216.81 205.724 216.474 205.724C216.18 205.724 215.862 205.94 215.89 206.194Z" fill="white"/>
<path d="M169.517 195.254C169.017 197.691 169.661 200.233 171.375 202.291C171.792 202.791 172.804 202.321 172.384 201.817C170.852 199.98 170.194 197.694 170.644 195.504C170.695 195.254 170.563 194.999 170.236 194.927C169.957 194.865 169.569 195.003 169.518 195.255L169.517 195.254Z" fill="white"/>
<path d="M233.466 222.216C233.014 222.147 232.486 222.048 231.884 221.918C231.282 221.788 230.923 221.606 230.807 221.372C230.71 220.816 231.088 218.733 231.94 215.125C232.389 213.224 232.755 211.794 233.037 210.836C233.234 210.352 233.72 210.169 234.496 210.288C234.759 210.328 235.05 210.428 235.37 210.588C235.69 210.748 235.831 211.003 235.792 211.354L235.75 211.574C235.643 212.029 235.409 212.91 235.05 214.219L234.336 216.918C234.089 217.86 233.871 218.728 233.684 219.521C233.562 220.038 233.507 220.352 233.519 220.462C233.547 220.558 233.811 220.645 234.313 220.721C234.667 220.775 235.161 220.827 235.796 220.875C236.169 220.904 236.465 220.934 236.686 220.962C236.916 221.008 237.053 221.153 237.096 221.398C237.125 221.543 237.122 221.691 237.088 221.835C237.065 221.934 237.007 222.066 236.914 222.23C236.821 222.395 236.631 222.485 236.342 222.5C236.001 222.497 235.408 222.45 234.562 222.358C234.192 222.318 233.827 222.271 233.466 222.216Z" fill="black"/>
<path d="M242.407 222.738C241.749 222.77 241.182 222.647 240.706 222.37C240.23 222.092 239.849 221.713 239.564 221.232C239.186 220.611 238.966 219.886 238.904 219.059C238.874 218.666 238.891 218.224 238.957 217.73C239.022 217.237 239.186 216.738 239.45 216.232C239.714 215.726 240.068 215.312 240.514 214.989C240.96 214.666 241.5 214.489 242.133 214.458C242.673 214.432 243.137 214.547 243.524 214.805C243.911 215.063 244.217 215.402 244.442 215.823C244.676 216.275 244.812 216.761 244.851 217.281C244.886 217.717 244.841 218.156 244.717 218.581C244.593 219.003 244.369 219.36 244.045 219.653C243.722 219.946 243.299 220.105 242.778 220.131C242.443 220.147 242.175 220.116 241.976 220.038C241.777 219.96 241.629 219.871 241.531 219.772C241.433 219.673 241.366 219.59 241.33 219.523C241.447 220.412 241.753 220.956 242.248 221.155C242.382 221.211 242.533 221.237 242.684 221.23C243.056 221.211 243.453 220.992 243.876 220.572C244.033 220.42 244.186 220.341 244.335 220.334C244.372 220.332 244.448 220.341 244.561 220.363C244.675 220.384 244.782 220.477 244.882 220.642C244.931 220.723 244.96 220.812 244.967 220.902C244.988 221.183 244.825 221.5 244.478 221.852C243.942 222.401 243.251 222.696 242.407 222.738ZM241.911 218.544C242.228 218.529 242.483 218.3 242.677 217.859C242.871 217.418 242.949 216.953 242.912 216.466C242.896 216.284 242.857 216.104 242.796 215.928C242.732 215.734 242.6 215.642 242.402 215.652C242.203 215.662 242.033 215.772 241.889 215.985C241.747 216.197 241.629 216.453 241.537 216.753C241.446 217.043 241.383 217.339 241.347 217.637C241.31 217.899 241.299 218.118 241.313 218.294L241.316 218.341C241.539 218.485 241.737 218.552 241.911 218.544H241.911Z" fill="black"/>
<path d="M254.788 220.609C254.392 220.728 253.997 220.7 253.602 220.523C253.384 220.396 253.168 220.118 252.954 219.688C252.931 219.911 252.907 220.072 252.88 220.171C252.742 220.729 252.285 221.125 251.511 221.358L251.459 221.374C250.747 221.543 250.085 221.504 249.472 221.258C248.859 221.011 248.34 220.648 247.917 220.168C247.495 219.688 247.162 219.19 246.921 218.672C246.568 217.915 246.392 217.145 246.392 216.362C246.387 215.711 246.538 215.13 246.845 214.62C247.152 214.11 247.643 213.753 248.319 213.55C248.686 213.439 249.018 213.404 249.316 213.445C249.614 213.485 249.871 213.564 250.088 213.68C250.305 213.797 250.474 213.919 250.593 214.048C250.506 213.842 250.444 213.629 250.407 213.414C250.393 213.026 250.709 212.735 251.355 212.54C251.567 212.477 251.791 212.444 252.017 212.443C252.423 212.445 252.716 212.595 252.895 212.894C253.023 213.156 253.168 213.459 253.328 213.802C253.894 215.016 254.441 216.231 254.967 217.446C255.32 218.26 255.576 218.872 255.735 219.284C255.844 219.592 255.795 219.865 255.588 220.103C255.381 220.342 255.114 220.51 254.788 220.609ZM251.53 220.288C251.815 220.202 252.011 219.985 252.118 219.638C252.226 219.291 252.262 218.877 252.227 218.396C252.192 217.916 252.116 217.482 251.999 217.094C251.881 216.706 251.764 216.388 251.648 216.139C251.312 215.418 250.913 214.905 250.453 214.601C250.121 214.388 249.766 214.339 249.388 214.454C249.015 214.566 248.798 214.851 248.736 215.31C248.674 215.769 248.712 216.264 248.851 216.796C248.989 217.328 249.161 217.815 249.368 218.258C249.702 218.974 250.082 219.533 250.507 219.932C250.863 220.268 251.204 220.387 251.53 220.288Z" fill="black"/>
<path d="M260.387 217.82C260.205 217.933 259.94 218.019 259.591 218.077C259.243 218.136 258.877 218.022 258.493 217.736C258.225 217.506 257.688 216.97 256.881 216.128C255.646 214.839 254.601 213.699 253.744 212.706C253.493 212.379 253.472 212.05 253.68 211.719C253.8 211.524 253.958 211.365 254.155 211.243C254.288 211.161 254.502 211.079 254.796 210.997C255.091 210.915 255.421 211.032 255.788 211.349C255.803 210.702 256.09 210.206 256.646 209.861C257.084 209.589 257.564 209.536 258.085 209.703C258.257 209.778 258.407 209.88 258.526 210.004C258.813 210.303 258.897 210.616 258.78 210.944C258.745 211.04 258.686 211.113 258.603 211.165C258.509 211.223 258.376 211.254 258.202 211.257C258.028 211.26 257.883 211.299 257.765 211.372C257.656 211.439 257.556 211.568 257.465 211.759C257.373 211.95 257.373 212.237 257.465 212.62C257.556 213.003 257.755 213.374 258.062 213.735C258.475 214.223 259.342 215.186 260.664 216.621C260.928 216.947 260.949 217.247 260.724 217.52C260.635 217.636 260.521 217.737 260.387 217.82Z" fill="black"/>
<path d="M270.305 209.595C269.845 210.111 269.262 210.2 268.556 209.861C268.1 209.616 267.653 209.369 267.217 209.118L264.974 207.79C264.624 207.589 264.225 207.369 263.776 207.129C263.327 206.889 262.881 206.717 262.438 206.612C261.994 206.508 261.659 206.583 261.431 206.84C261.242 207.051 261.191 207.289 261.277 207.554C261.362 207.818 261.536 208.079 261.798 208.338C262.052 208.591 262.345 208.816 262.669 209.01L267.315 211.832C267.557 212.008 267.617 212.255 267.497 212.573C267.44 212.727 267.352 212.873 267.236 213.004C267.12 213.134 266.935 213.273 266.683 213.419C266.431 213.566 266.107 213.532 265.713 213.317C263.912 212.3 262.461 211.473 261.359 210.839C260.15 210.143 259.318 209.652 258.866 209.367C258.511 209.108 258.4 208.804 258.531 208.455C258.585 208.297 258.672 208.147 258.79 208.013C259.268 207.476 259.788 207.367 260.351 207.685C260.234 207.359 260.228 207.005 260.332 206.622C260.437 206.24 260.594 205.931 260.804 205.695C261.257 205.186 261.796 204.911 262.423 204.868C263.05 204.826 263.759 204.959 264.55 205.266C265.249 205.54 266.016 205.917 266.849 206.396C267.763 206.922 268.894 207.628 270.242 208.515C270.53 208.73 270.616 208.985 270.499 209.281C270.455 209.393 270.39 209.499 270.305 209.595Z" fill="black"/>
<path d="M262.587 202.352C262.445 202.629 262.252 202.798 262.007 202.858C261.85 202.914 261.541 202.903 261.081 202.823C260.621 202.744 260.2 202.645 259.819 202.524C259.577 202.412 259.49 202.175 259.56 201.814C259.599 201.602 259.669 201.394 259.769 201.194C260.008 200.727 260.284 200.439 260.596 200.332C260.734 200.285 260.913 200.298 261.133 200.371C261.353 200.444 261.628 200.566 261.959 200.737C262.289 200.908 262.535 201.102 262.697 201.317C262.778 201.452 262.795 201.636 262.747 201.869C262.718 202.035 262.664 202.196 262.587 202.352ZM272.752 205.513C272.748 205.522 272.713 205.587 272.648 205.706C272.584 205.825 272.413 205.95 272.136 206.08C271.859 206.21 271.535 206.239 271.165 206.165C269.976 205.892 268.715 205.535 267.382 205.094C265.608 204.509 264.315 204.047 263.502 203.708C262.95 203.445 262.815 203.038 263.096 202.487C263.191 202.302 263.363 202.109 263.612 201.907C263.861 201.706 264.175 201.648 264.552 201.735C264.713 201.783 264.953 201.86 265.271 201.964C265.589 202.069 266.103 202.244 266.814 202.49C270.027 203.599 271.826 204.218 272.211 204.345C272.542 204.454 272.742 204.622 272.812 204.848C272.883 205.069 272.862 205.303 272.752 205.513H272.752Z" fill="black"/>
<path d="M275.462 197.366C275.335 197.993 274.861 198.281 274.041 198.229C273.497 198.173 272.961 198.11 272.432 198.04L269.689 197.65C269.265 197.594 268.785 197.539 268.25 197.484C267.715 197.429 267.22 197.433 266.766 197.498C266.311 197.562 266.051 197.75 265.988 198.061C265.936 198.318 266.021 198.549 266.244 198.756C266.467 198.962 266.767 199.134 267.144 199.273C267.51 199.409 267.897 199.507 268.294 199.565L274.014 200.438C274.328 200.51 274.518 200.709 274.586 201.038C274.62 201.196 274.621 201.358 274.589 201.517C274.556 201.675 274.468 201.865 274.322 202.086C274.177 202.308 273.868 202.393 273.397 202.341C271.221 202.07 269.465 201.847 268.128 201.672C266.66 201.479 265.644 201.336 265.081 201.241C264.62 201.135 264.353 200.902 264.279 200.543C264.239 200.382 264.235 200.217 264.267 200.055C264.399 199.403 264.805 199.12 265.484 199.204C265.201 198.954 265 198.638 264.883 198.258C264.766 197.878 264.737 197.545 264.795 197.258C264.92 196.641 265.252 196.202 265.791 195.941C266.329 195.68 267.038 195.546 267.916 195.54C268.694 195.535 269.588 195.6 270.6 195.733C271.709 195.878 273.112 196.108 274.809 196.422C275.186 196.512 275.404 196.71 275.462 197.017C275.485 197.133 275.485 197.251 275.462 197.366Z" fill="black"/>
<path d="M279.601 189.269C279.7 189.697 279.708 190.085 279.623 190.433C279.539 190.782 279.402 191.086 279.214 191.345C279.025 191.605 278.822 191.817 278.604 191.982C278.271 192.225 277.948 192.37 277.636 192.417C277.617 192.42 277.522 192.431 277.352 192.452C277.182 192.472 277.031 192.419 276.901 192.29C276.866 192.255 276.842 192.214 276.832 192.17C276.805 192.052 276.869 191.908 277.024 191.737C277.532 191.199 277.731 190.693 277.622 190.221C277.607 190.157 277.538 189.979 277.413 189.687C277.288 189.396 276.854 189.125 276.111 188.875C275.484 188.663 274.761 188.619 273.942 188.741C273.793 188.763 273.641 188.791 273.487 188.824C273.724 188.868 273.95 188.943 274.154 189.049C274.368 189.157 274.558 189.317 274.724 189.528C274.89 189.74 275.016 190.028 275.1 190.392C275.246 191.026 275.123 191.59 274.73 192.084C274.337 192.578 273.786 192.984 273.076 193.304C272.367 193.624 271.593 193.846 270.754 193.972L270.072 194.073C269.63 194.139 269.002 194.12 268.188 194.015C267.374 193.911 266.672 193.68 266.082 193.323C265.492 192.966 265.122 192.465 264.974 191.821C264.891 191.467 264.913 191.161 265.039 190.903C265.164 190.645 265.329 190.435 265.533 190.272C265.738 190.109 265.927 189.997 266.101 189.935L265.879 189.976C265.488 190.035 265.238 190.069 265.126 190.081C264.697 190.084 264.385 189.928 264.191 189.61C264.108 189.482 264.049 189.344 264.015 189.202C263.97 189.005 263.988 188.764 264.07 188.48C264.152 188.195 264.426 187.995 264.89 187.88C266.241 187.617 267.482 187.402 268.613 187.233C269.75 187.063 271.006 186.92 272.38 186.803C273.755 186.686 274.998 186.705 276.109 186.86C277.22 187.014 278.044 187.299 278.581 187.715C279.117 188.131 279.458 188.649 279.601 189.269ZM273.086 190.181C272.998 189.798 272.713 189.525 272.231 189.363C271.517 189.124 270.634 189.083 269.581 189.24C269.282 189.285 268.908 189.366 268.458 189.484C268.008 189.602 267.593 189.794 267.215 190.059C266.836 190.324 266.683 190.617 266.757 190.937C266.832 191.261 267.046 191.505 267.4 191.668C267.753 191.832 268.173 191.927 268.66 191.953C269.155 191.979 269.653 191.955 270.141 191.881C270.732 191.793 271.254 191.665 271.706 191.498C272.158 191.331 272.516 191.135 272.781 190.91C273.045 190.685 273.146 190.442 273.086 190.181Z" fill="black"/>
<path d="M139.543 237.341C138.844 237.341 138.436 237.143 138.319 236.746C138.109 235.514 137.905 234.817 137.707 234.652C137.577 234.589 137.302 234.557 136.881 234.557C136.318 234.557 135.728 234.597 135.11 234.676C134.59 234.74 134.275 234.819 134.163 234.914C134.151 234.935 134.052 235.173 133.867 235.628C133.644 236.22 133.468 236.643 133.338 236.896C133.22 237.076 133.088 237.17 132.939 237.178C132.791 237.186 132.707 237.19 132.689 237.19C132.435 237.19 132.2 237.123 131.984 236.991C131.798 236.864 131.705 236.685 131.705 236.452L131.715 236.317C131.875 235.583 132.197 234.535 132.679 233.174C133.162 231.813 133.695 230.451 134.279 229.091C134.864 227.73 135.391 226.679 135.861 225.94C136.065 225.659 136.297 225.488 136.556 225.424C136.816 225.361 137.02 225.329 137.169 225.329C137.376 225.33 137.581 225.365 137.771 225.432C138.118 225.548 138.365 225.765 138.513 226.082C138.872 227.002 139.422 229.251 140.164 232.829C140.665 235.245 140.916 236.503 140.916 236.603C140.916 236.884 140.73 237.087 140.359 237.214C140.1 237.298 139.823 237.341 139.543 237.341ZM136.046 233.416C136.341 233.418 136.636 233.402 136.927 233.369C137.193 233.337 137.36 233.295 137.428 233.242C137.459 233.205 137.475 233.121 137.475 232.988C137.475 232.624 137.379 231.947 137.187 230.959C136.921 229.579 136.717 228.863 136.575 228.81C136.451 228.837 136.114 229.524 135.564 230.872C135.044 232.13 134.785 232.907 134.785 233.203C134.785 233.345 135.153 233.417 135.888 233.417L136.046 233.416Z" fill="#FF0000"/>
<path d="M143.411 240.727C142.465 240.727 141.924 240.359 141.788 239.625C141.702 238.784 141.658 237.55 141.658 235.923C141.658 235.637 141.661 234.898 141.668 233.707C141.674 232.515 141.816 231.221 142.094 229.826C142.212 229.44 142.496 229.191 142.948 229.08C143.134 229.033 143.328 229.009 143.523 229.009C143.776 229.009 144.073 229.067 144.414 229.183C144.754 229.3 144.949 229.551 144.998 229.937C145.097 229.815 145.241 229.684 145.429 229.544C145.618 229.404 145.853 229.283 146.134 229.179C146.415 229.077 146.748 229.025 147.131 229.025C147.762 229.025 148.298 229.221 148.74 229.612C149.183 230.003 149.521 230.503 149.756 231.11C150.004 231.76 150.129 232.436 150.127 233.116C150.127 233.787 150.014 234.428 149.789 235.038C149.563 235.649 149.207 236.155 148.722 236.557C148.236 236.958 147.617 237.178 146.862 237.215C146.33 237.215 145.876 237.087 145.499 236.83C145.122 236.574 144.859 236.3 144.71 236.01L144.72 236.771C144.732 237.162 144.738 237.548 144.738 237.928C144.738 238.61 144.72 239.268 144.682 239.902C144.621 240.299 144.37 240.553 143.931 240.664C143.763 240.705 143.588 240.726 143.411 240.727ZM146.454 235.835C146.775 235.798 147.038 235.586 147.242 235.2C147.558 234.592 147.715 233.823 147.715 232.893C147.715 232.639 147.692 232.313 147.646 231.914C147.598 231.511 147.466 231.117 147.256 230.748C147.043 230.371 146.75 230.182 146.379 230.181C146.002 230.181 145.699 230.377 145.47 230.768C145.13 231.36 144.96 232.127 144.96 233.067C144.96 233.353 144.988 233.706 145.044 234.126C145.097 234.54 145.248 234.942 145.489 235.311C145.717 235.66 146.023 235.835 146.407 235.835H146.454Z" fill="#FFFF00"/>
<path d="M152.353 237.23C152.124 237.23 151.851 237.168 151.532 237.044C151.213 236.92 151.01 236.651 150.924 236.239C150.887 235.928 150.869 235.243 150.869 234.186C150.869 232.569 150.906 231.16 150.98 229.96C151.029 229.579 151.261 229.31 151.675 229.151C151.917 229.056 152.161 229.008 152.408 229.008C152.575 229.008 152.806 229.048 153.099 229.127C153.393 229.207 153.565 229.46 153.614 229.888C154.115 229.386 154.715 229.135 155.414 229.135C155.964 229.135 156.381 229.328 156.666 229.714C156.745 229.856 156.786 230.01 156.786 230.166C156.786 230.541 156.616 230.829 156.276 231.03C156.177 231.088 156.075 231.117 155.97 231.117C155.852 231.117 155.724 231.076 155.585 230.994C155.446 230.912 155.302 230.871 155.154 230.871C155.018 230.871 154.842 230.924 154.625 231.03C154.409 231.136 154.193 231.362 153.976 231.708C153.759 232.054 153.636 232.444 153.605 232.877C153.561 233.464 153.518 234.645 153.475 236.421C153.438 236.807 153.228 237.053 152.845 237.159C152.687 237.206 152.521 237.23 152.353 237.23Z" fill="#00FF00"/>
<path d="M159.921 237.23C159.266 237.23 158.713 237.081 158.261 236.782C157.81 236.483 157.46 236.088 157.213 235.597C156.885 234.963 156.721 234.233 156.721 233.408C156.721 233.017 156.772 232.579 156.875 232.092C156.977 231.606 157.178 231.118 157.477 230.63C157.777 230.141 158.16 229.747 158.627 229.448C159.094 229.15 159.643 229 160.274 229C160.812 229 161.263 229.138 161.628 229.413C161.993 229.688 162.271 230.039 162.463 230.467C162.661 230.927 162.76 231.416 162.76 231.934C162.761 232.369 162.683 232.802 162.528 233.218C162.373 233.631 162.124 233.974 161.781 234.249C161.438 234.524 161.007 234.661 160.487 234.661C160.153 234.661 159.89 234.618 159.699 234.53C159.507 234.443 159.366 234.348 159.277 234.245C159.187 234.142 159.127 234.056 159.096 233.987C159.145 234.875 159.408 235.43 159.884 235.652C160.013 235.714 160.161 235.747 160.311 235.747C160.682 235.747 161.093 235.549 161.544 235.152C161.711 235.01 161.869 234.938 162.018 234.938C162.054 234.938 162.128 234.952 162.24 234.978C162.352 235.005 162.451 235.102 162.537 235.271C162.58 235.354 162.602 235.443 162.602 235.533C162.602 235.813 162.416 236.12 162.045 236.453C161.47 236.971 160.762 237.23 159.921 237.23ZM159.745 233.044C160.061 233.044 160.331 232.83 160.557 232.402C160.783 231.973 160.895 231.516 160.895 231.03C160.893 230.849 160.868 230.668 160.821 230.491C160.772 230.295 160.648 230.198 160.45 230.197C160.252 230.197 160.074 230.299 159.917 230.503C159.759 230.706 159.623 230.955 159.509 231.248C159.397 231.532 159.312 231.822 159.254 232.116C159.198 232.375 159.17 232.592 159.17 232.766V232.814C159.38 232.967 159.572 233.044 159.745 233.044Z" fill="#00FFFF"/>
<path d="M169.93 237.301C169.144 237.301 168.717 236.974 168.65 236.318C168.631 235.88 168.622 235.446 168.622 235.018L168.659 232.79C168.659 232.447 168.65 232.06 168.632 231.629C168.614 231.198 168.529 230.808 168.377 230.459C168.225 230.111 167.955 229.936 167.565 229.936C167.244 229.936 166.975 230.04 166.758 230.249C166.542 230.458 166.38 230.722 166.271 231.043C166.165 231.354 166.107 231.675 166.1 231.998L165.951 236.652C165.914 236.911 165.701 237.093 165.311 237.199C165.123 237.251 164.926 237.278 164.727 237.278C164.529 237.278 164.283 237.239 163.99 237.159C163.696 237.08 163.543 236.85 163.53 236.47C163.512 234.709 163.503 233.288 163.503 232.204C163.503 231.015 163.515 230.19 163.54 229.73C163.596 229.35 163.837 229.101 164.264 228.985C164.453 228.928 164.654 228.899 164.857 228.898C165.673 228.898 166.085 229.173 166.091 229.722C166.351 229.458 166.703 229.249 167.148 229.096C167.593 228.943 167.995 228.866 168.354 228.866C169.127 228.866 169.716 229.058 170.121 229.441C170.526 229.824 170.803 230.362 170.951 231.054C171.081 231.668 171.146 232.384 171.146 233.203C171.146 234.102 171.09 235.246 170.979 236.636C170.93 236.948 170.722 237.151 170.358 237.246C170.219 237.283 170.075 237.301 169.93 237.301Z" fill="#0000FF"/>
<path d="M178.547 237.27C178.324 237.27 178.044 237.227 177.707 237.143C177.37 237.058 177.161 236.871 177.081 236.58C177.063 236.469 177.054 236.358 177.054 236.247C177.053 236.167 177.059 236.088 177.071 236.009V235.937C176.917 236.255 176.665 236.541 176.315 236.798C175.966 237.054 175.504 237.193 174.929 237.214C174.069 237.198 173.395 236.921 172.907 236.381C172.226 235.631 171.886 234.621 171.886 233.353C171.886 232.883 171.964 232.326 172.118 231.684C172.273 231.041 172.605 230.445 173.115 229.896C173.625 229.346 174.282 229.056 175.086 229.024C175.432 229.024 175.726 229.057 175.967 229.123C176.209 229.189 176.407 229.271 176.561 229.369C176.716 229.467 176.836 229.566 176.923 229.666C177.009 229.766 177.068 229.851 177.099 229.919L177.146 230.023C177.146 229.785 177.153 229.404 177.169 228.881C177.184 228.357 177.207 227.82 177.238 227.267C177.269 226.715 177.309 226.28 177.359 225.963C177.458 225.551 177.869 225.345 178.592 225.345C178.845 225.345 179.139 225.394 179.473 225.491C179.807 225.589 180.005 225.789 180.067 226.09C180.116 226.566 180.141 228.273 180.141 231.212C180.141 234.145 180.11 235.876 180.048 236.405C179.931 236.982 179.431 237.27 178.547 237.27ZM175.615 235.628C175.967 235.628 176.257 235.496 176.482 235.231C176.708 234.967 176.873 234.635 176.978 234.236C177.085 233.826 177.138 233.407 177.136 232.988V232.591C177.136 232.348 177.084 232.023 176.978 231.616C176.873 231.209 176.722 230.873 176.524 230.609C176.326 230.344 176.088 230.212 175.81 230.212C175.426 230.212 175.126 230.394 174.91 230.759C174.576 231.32 174.409 232.049 174.409 232.947C174.409 233.206 174.432 233.533 174.479 233.927C174.525 234.322 174.649 234.708 174.845 235.073C175.043 235.443 175.3 235.628 175.615 235.628L175.615 235.628Z" fill="#FF00FF"/>
<path d="M184.084 237.23C183.428 237.23 182.875 237.081 182.424 236.782C181.972 236.483 181.623 236.088 181.376 235.597C181.048 234.963 180.884 234.233 180.884 233.408C180.884 233.017 180.935 232.579 181.037 232.092C181.139 231.606 181.34 231.118 181.64 230.63C181.94 230.141 182.323 229.747 182.79 229.448C183.257 229.15 183.805 229 184.436 229C184.974 229 185.426 229.138 185.79 229.413C186.155 229.688 186.433 230.039 186.625 230.467C186.823 230.927 186.922 231.416 186.922 231.934C186.924 232.369 186.846 232.802 186.69 233.218C186.535 233.631 186.287 233.974 185.944 234.249C185.6 234.524 185.169 234.661 184.65 234.661C184.316 234.661 184.053 234.618 183.861 234.53C183.669 234.443 183.529 234.348 183.439 234.245C183.349 234.142 183.289 234.056 183.258 233.987C183.308 234.875 183.571 235.43 184.047 235.652C184.176 235.714 184.323 235.747 184.473 235.747C184.844 235.747 185.256 235.549 185.707 235.152C185.874 235.01 186.032 234.938 186.18 234.938C186.217 234.938 186.291 234.952 186.403 234.978C186.514 235.005 186.613 235.102 186.699 235.271C186.742 235.354 186.764 235.443 186.764 235.533C186.764 235.813 186.579 236.12 186.208 236.453C185.633 236.971 184.925 237.23 184.084 237.23ZM183.907 233.044C184.223 233.044 184.493 232.83 184.719 232.402C184.945 231.973 185.057 231.516 185.058 231.03C185.055 230.849 185.03 230.668 184.983 230.491C184.934 230.295 184.81 230.198 184.612 230.197C184.414 230.197 184.237 230.299 184.079 230.503C183.921 230.706 183.785 230.955 183.671 231.248C183.559 231.532 183.474 231.822 183.416 232.116C183.36 232.375 183.332 232.592 183.332 232.766V232.814C183.543 232.967 183.734 233.044 183.907 233.044Z" fill="#C1272D"/>
<path d="M192.785 240.711C192.475 240.711 192.281 240.544 192.2 240.211C192.188 240.156 192.182 240.1 192.182 240.045C192.181 239.91 192.229 239.777 192.321 239.664C192.642 239.267 192.871 238.675 193.007 237.888C193.174 236.879 193.258 235.449 193.258 233.599L193.248 232.378L193.239 231.363C193.239 230.718 193.251 230.139 193.276 229.627C193.307 229.357 193.456 229.164 193.722 229.048C193.946 228.958 194.194 228.911 194.445 228.913C194.507 228.913 194.641 228.922 194.848 228.941C195.056 228.959 195.292 229.047 195.558 229.203C195.824 229.358 195.957 229.568 195.957 229.833C195.957 231.968 195.887 233.746 195.748 235.165C195.609 236.584 195.352 237.723 194.978 238.582C194.604 239.441 194.067 240.084 193.369 240.512C193.146 240.644 192.951 240.711 192.785 240.711ZM194.38 228.381C194.058 228.381 193.83 228.31 193.694 228.167C193.588 228.088 193.5 227.885 193.429 227.557C193.361 227.251 193.322 226.94 193.313 226.629C193.344 226.434 193.548 226.299 193.926 226.225C194.15 226.178 194.38 226.154 194.612 226.154C195.144 226.154 195.512 226.235 195.716 226.399C195.808 226.479 195.855 226.603 195.855 226.772C195.855 226.936 195.824 227.155 195.762 227.43C195.7 227.705 195.592 227.932 195.437 228.112C195.326 228.207 195.15 228.279 194.909 228.326C194.736 228.362 194.558 228.381 194.38 228.382L194.38 228.381Z" fill="#ED1C24"/>
<path d="M199.073 237.317C198.251 237.27 197.67 236.893 197.329 236.187C196.989 235.482 196.794 234.624 196.745 233.615C196.714 233.007 196.698 232.41 196.698 231.823C196.698 231.426 196.705 231.035 196.717 230.649C196.729 230.264 196.736 229.904 196.736 229.571C196.773 229.259 197.014 229.061 197.459 228.976C197.611 228.945 197.766 228.929 197.923 228.929C198.213 228.929 198.544 228.995 198.915 229.127C199.286 229.259 199.499 229.529 199.555 229.936C199.561 230.168 199.565 230.409 199.565 230.657C199.565 231.096 199.552 231.56 199.527 232.049C199.503 232.538 199.49 232.988 199.49 233.4C199.49 233.675 199.501 234.024 199.523 234.447C199.545 234.87 199.679 235.105 199.926 235.152C200.34 235.142 200.776 234.365 201.234 232.821C201.568 231.711 201.812 230.689 201.967 229.753C202.047 229.441 202.304 229.233 202.737 229.127C202.934 229.075 203.141 229.048 203.349 229.047C203.571 229.047 203.84 229.094 204.156 229.186C204.471 229.279 204.641 229.513 204.666 229.888C204.66 230.152 204.657 230.617 204.657 231.283L204.666 232.576C204.666 234.219 204.638 235.554 204.582 236.579C204.514 237.029 204.152 237.253 203.497 237.253C202.669 237.253 202.143 236.947 201.921 236.334C201.859 236.059 201.828 235.478 201.828 234.589C201.828 234.394 201.831 234.217 201.837 234.058C201.744 234.418 201.59 234.851 201.373 235.358C201.157 235.866 200.862 236.315 200.487 236.706C200.113 237.098 199.642 237.301 199.073 237.317Z" fill="#F15A24"/>
<path d="M209.517 240.988C208.979 240.988 208.506 240.923 208.098 240.794C207.69 240.664 207.345 240.502 207.064 240.306C206.782 240.111 206.561 239.912 206.401 239.711C206.166 239.405 206.048 239.125 206.048 238.871C206.048 238.855 206.051 238.778 206.058 238.641C206.064 238.504 206.156 238.395 206.336 238.316C206.384 238.295 206.438 238.284 206.494 238.284C206.642 238.284 206.806 238.361 206.985 238.514C207.548 239.011 208.126 239.259 208.72 239.259C208.8 239.259 209.029 239.237 209.406 239.192C209.783 239.147 210.191 238.855 210.63 238.316C211.001 237.861 211.187 237.301 211.187 236.635C211.187 236.514 211.18 236.389 211.168 236.262C211.072 236.441 210.939 236.604 210.774 236.746C210.604 236.894 210.375 237.014 210.088 237.107C209.8 237.199 209.428 237.245 208.97 237.246C208.172 237.246 207.509 237.046 206.98 236.647C206.452 236.248 206.058 235.74 205.798 235.125C205.538 234.509 205.408 233.86 205.408 233.178V232.623C205.408 232.264 205.546 231.774 205.821 231.153C206.096 230.532 206.504 230.021 207.045 229.622C207.586 229.223 208.262 229.024 209.072 229.024C209.517 229.024 209.885 229.096 210.176 229.242C210.466 229.387 210.692 229.555 210.853 229.745C211.014 229.936 211.116 230.105 211.159 230.253L211.15 230.07C211.15 229.753 211.153 229.55 211.159 229.46C211.233 229.122 211.481 228.905 211.901 228.81C212.073 228.768 212.251 228.747 212.43 228.746C212.677 228.746 212.966 228.804 213.297 228.921C213.628 229.037 213.821 229.288 213.876 229.674C213.951 230.784 213.988 231.799 213.988 232.718C213.988 233.643 213.934 234.657 213.826 235.759C213.717 236.862 213.468 237.835 213.079 238.681C212.689 239.527 212.193 240.123 211.59 240.469C210.987 240.815 210.296 240.988 209.517 240.988ZM209.591 235.7C210.074 235.7 210.457 235.525 210.742 235.176C211.162 234.658 211.372 233.971 211.372 233.115C211.372 232.872 211.341 232.563 211.28 232.187C211.218 231.812 211.06 231.451 210.806 231.106C210.553 230.759 210.225 230.586 209.823 230.586C209.415 230.586 209.08 230.711 208.817 230.959C208.554 231.208 208.363 231.521 208.242 231.898C208.12 232.283 208.059 232.679 208.061 233.076C208.061 233.557 208.121 233.99 208.242 234.376C208.362 234.762 208.535 235.079 208.761 235.327C208.987 235.576 209.264 235.7 209.591 235.7V235.7Z" fill="#F7931E"/>
<path d="M221.204 237.452C220.784 237.452 220.429 237.315 220.138 237.04C219.989 236.86 219.909 236.54 219.897 236.08C219.779 236.281 219.686 236.424 219.618 236.509C219.247 236.99 218.651 237.23 217.828 237.23H217.773C217.037 237.188 216.437 236.966 215.973 236.564C215.51 236.162 215.185 235.679 214.999 235.113C214.814 234.548 214.721 233.99 214.721 233.44C214.721 232.637 214.891 231.87 215.231 231.141C215.51 230.533 215.902 230.035 216.41 229.646C216.917 229.258 217.529 229.064 218.246 229.064C218.636 229.064 218.961 229.124 219.22 229.246C219.48 229.368 219.685 229.513 219.837 229.682C219.988 229.851 220.091 230.012 220.147 230.166C220.156 229.95 220.19 229.735 220.249 229.524C220.404 229.159 220.824 228.976 221.511 228.977C221.736 228.977 221.958 229.009 222.169 229.072C222.546 229.188 222.754 229.41 222.791 229.738C222.797 230.018 222.8 230.34 222.8 230.705C222.8 231.995 222.781 233.279 222.744 234.558C222.72 235.414 222.692 236.057 222.661 236.485C222.63 236.802 222.466 237.042 222.169 237.206C221.872 237.37 221.551 237.452 221.204 237.452ZM218.31 236.239C218.613 236.239 218.89 236.092 219.14 235.799C219.391 235.506 219.604 235.13 219.781 234.673C219.957 234.216 220.074 233.791 220.133 233.397C220.192 233.003 220.221 232.674 220.221 232.41C220.221 231.643 220.073 231.054 219.776 230.642C219.559 230.351 219.25 230.205 218.848 230.205C218.453 230.205 218.126 230.41 217.87 230.82C217.613 231.23 217.434 231.701 217.332 232.235C217.23 232.769 217.179 233.271 217.179 233.742C217.179 234.503 217.29 235.129 217.513 235.621C217.698 236.033 217.964 236.239 218.31 236.239Z" fill="#FBB03B"/>
<path d="M229.97 237.301C229.184 237.301 228.758 236.974 228.69 236.318C228.671 235.88 228.662 235.446 228.662 235.018L228.699 232.79C228.699 232.447 228.69 232.06 228.672 231.629C228.654 231.198 228.569 230.808 228.417 230.459C228.265 230.111 227.995 229.936 227.605 229.936C227.284 229.936 227.015 230.04 226.798 230.249C226.582 230.458 226.42 230.722 226.311 231.043C226.205 231.354 226.147 231.675 226.14 231.998L225.991 236.652C225.954 236.911 225.741 237.093 225.351 237.199C225.163 237.251 224.966 237.278 224.767 237.278C224.569 237.278 224.323 237.239 224.03 237.159C223.736 237.08 223.583 236.85 223.57 236.47C223.552 234.709 223.543 233.288 223.543 232.204C223.543 231.015 223.555 230.19 223.58 229.73C223.636 229.35 223.877 229.101 224.304 228.985C224.494 228.928 224.695 228.899 224.897 228.898C225.713 228.898 226.125 229.173 226.131 229.722C226.39 229.458 226.743 229.249 227.188 229.096C227.634 228.943 228.035 228.866 228.394 228.866C229.167 228.866 229.756 229.058 230.161 229.441C230.566 229.824 230.843 230.362 230.991 231.054C231.121 231.668 231.186 232.384 231.186 233.203C231.186 234.102 231.13 235.246 231.019 236.636C230.969 236.948 230.762 237.151 230.398 237.246C230.259 237.283 230.115 237.301 229.97 237.301Z" fill="#FCEE21"/>
<path d="M238.587 237.27C238.364 237.27 238.084 237.227 237.747 237.143C237.41 237.058 237.202 236.871 237.121 236.58C237.103 236.469 237.094 236.358 237.094 236.247C237.093 236.167 237.1 236.088 237.112 236.009V235.938C236.957 236.255 236.706 236.542 236.356 236.798C236.007 237.054 235.545 237.193 234.97 237.214C234.11 237.198 233.436 236.921 232.947 236.382C232.267 235.631 231.927 234.622 231.927 233.353C231.927 232.883 232.005 232.327 232.159 231.684C232.314 231.041 232.646 230.446 233.156 229.896C233.666 229.347 234.323 229.056 235.127 229.024C235.474 229.024 235.767 229.057 236.009 229.123C236.25 229.189 236.448 229.271 236.602 229.369C236.757 229.467 236.877 229.566 236.964 229.666C237.05 229.767 237.109 229.851 237.14 229.92L237.186 230.023C237.186 229.785 237.194 229.405 237.21 228.881C237.225 228.358 237.248 227.82 237.279 227.268C237.31 226.715 237.35 226.281 237.4 225.963C237.499 225.551 237.91 225.345 238.633 225.345C238.887 225.345 239.18 225.394 239.515 225.492C239.849 225.59 240.047 225.789 240.108 226.09C240.158 226.566 240.182 228.273 240.182 231.212C240.182 234.146 240.151 235.877 240.09 236.405C239.972 236.982 239.471 237.27 238.587 237.27ZM235.655 235.628C236.008 235.628 236.297 235.496 236.522 235.231C236.748 234.967 236.913 234.635 237.018 234.236C237.125 233.826 237.178 233.407 237.176 232.988V232.591C237.176 232.348 237.124 232.023 237.018 231.616C236.913 231.209 236.762 230.873 236.564 230.609C236.366 230.344 236.128 230.212 235.85 230.212C235.466 230.212 235.166 230.394 234.95 230.759C234.616 231.32 234.449 232.049 234.449 232.947C234.449 233.206 234.472 233.533 234.519 233.927C234.565 234.322 234.689 234.708 234.885 235.073C235.084 235.443 235.34 235.628 235.655 235.628L235.655 235.628Z" fill="#D9E021"/>
<path d="M244.476 237.206C243.66 237.206 242.986 237.012 242.454 236.624C241.922 236.235 241.53 235.732 241.276 235.113C241.041 234.537 240.923 233.929 240.924 233.29C240.924 233.242 240.928 233.032 240.937 232.659C240.946 232.287 241.096 231.79 241.387 231.169C241.678 230.548 242.101 230.038 242.658 229.639C243.214 229.239 243.904 229.04 244.726 229.04C245.431 229.04 246.027 229.188 246.512 229.484C246.997 229.78 247.379 230.168 247.657 230.649C248.028 231.305 248.214 232.042 248.214 232.862C248.214 233.232 248.163 233.653 248.061 234.126C247.959 234.599 247.75 235.079 247.435 235.565C247.12 236.051 246.714 236.443 246.22 236.739C245.725 237.035 245.144 237.19 244.476 237.206ZM244.847 235.565C245.255 235.565 245.583 235.398 245.83 235.065C246.171 234.589 246.341 233.929 246.341 233.083C246.341 232.792 246.305 232.443 246.234 232.036C246.164 231.631 246.005 231.239 245.766 230.879C245.524 230.514 245.212 230.332 244.829 230.331C244.476 230.331 244.183 230.506 243.947 230.855C243.552 231.431 243.354 232.176 243.354 233.091C243.354 233.281 243.373 233.552 243.41 233.903C243.447 234.255 243.583 234.609 243.818 234.966C244.053 235.323 244.383 235.522 244.81 235.564L244.847 235.565Z" fill="#8CC63F"/>
<defs>
<filter id="filter0_d_1601_591" x="21.9786" y="27.6999" width="309.125" height="309.125" filterUnits="userSpaceOnUse" color-interpolation-filters="sRGB">
<feFlood flood-opacity="0" result="BackgroundImageFix"/>
<feColorMatrix in="SourceAlpha" type="matrix" values="0 0 0 0 0 0 0 0 0 0 0 0 0 0 0 0 0 0 127 0" result="hardAlpha"/>
<feOffset dx="4"/>
<feGaussianBlur stdDeviation="5"/>
<feComposite in2="hardAlpha" operator="out"/>
<feColorMatrix type="matrix" values="0 0 0 0 0 0 0 0 0 0 0 0 0 0 0 0 0 0 0.25 0"/>
<feBlend mode="normal" in2="BackgroundImageFix" result="effect1_dropShadow_1601_591"/>
<feBlend mode="normal" in="SourceGraphic" in2="effect1_dropShadow_1601_591" result="shape"/>
</filter>
<filter id="filter1_d_1601_591" x="0.34169" y="0.089386" width="369.125" height="369.125" filterUnits="userSpaceOnUse" color-interpolation-filters="sRGB">
<feFlood flood-opacity="0" result="BackgroundImageFix"/>
<feColorMatrix in="SourceAlpha" type="matrix" values="0 0 0 0 0 0 0 0 0 0 0 0 0 0 0 0 0 0 127 0" result="hardAlpha"/>
<feOffset dx="4"/>
<feGaussianBlur stdDeviation="20"/>
<feComposite in2="hardAlpha" operator="out"/>
<feColorMatrix type="matrix" values="0 0 0 0 0.0156863 0 0 0 0 0.160784 0 0 0 0 0.227451 0 0 0 0.25 0"/>
<feBlend mode="normal" in2="BackgroundImageFix" result="effect1_dropShadow_1601_591"/>
<feBlend mode="normal" in="SourceGraphic" in2="effect1_dropShadow_1601_591" result="shape"/>
</filter>
<radialGradient id="paint0_radial_1601_591" cx="0" cy="0" r="1" gradientUnits="userSpaceOnUse" gradientTransform="translate(247.628 45.1987) rotate(142.291) scale(266.891 274.126)">
<stop stop-color="#34FFFF"/>
<stop offset="0.755208" stop-color="#34DAFF" stop-opacity="0"/>
<stop offset="1" stop-color="#34DAFF" stop-opacity="0"/>
</radialGradient>
</defs>
</svg>
