<svg width="96" height="95" viewBox="0 0 96 95" fill="none" xmlns="http://www.w3.org/2000/svg">
<ellipse cx="48.3655" cy="47.1258" rx="34.5222" ry="32.6032" transform="rotate(25.34 48.3655 47.1258)" fill="#DEDEDE"/>
<path d="M75.577 60.0119C67.8706 76.2857 49.9337 83.9426 32.7021 75.7825C15.4704 67.6224 7.74878 47.8149 15.4553 31.5411C23.1618 15.2673 43.3781 8.68989 60.6097 16.85C77.8414 25.0101 83.2835 43.7382 75.577 60.0119Z" fill="#FFFAEA"/>
<g filter="url(#filter0_d_1130_1127)">
<path d="M71.7502 61.4636C68.0759 65.9077 64.5997 64.7769 60.7914 64.3477C56.2515 62.885 55.6709 57.113 56.0786 54.0423C59.1166 49.4685 62.2317 50.2566 67.0374 51.1581C69.2031 53.2144 71.5305 56.0343 71.7502 61.4636Z" fill="#FFF6D6" fill-opacity="0.9" shape-rendering="crispEdges"/>
<path d="M66.7994 51.6221C68.8506 53.5897 70.9875 56.2493 71.2418 61.2916C69.5238 63.3123 67.888 64.0391 66.2607 64.2368C64.9506 64.3959 63.648 64.2195 62.2344 64.028C61.8006 63.9692 61.3564 63.909 60.8983 63.8567C58.8592 63.1809 57.6807 61.5433 57.0546 59.6417C56.4377 57.7678 56.3806 55.6952 56.5597 54.2225C57.9965 52.0972 59.403 51.2747 60.9688 51.0415C62.5096 50.812 64.2438 51.1395 66.4461 51.5555C66.5626 51.5775 66.6803 51.5997 66.7994 51.6221Z" stroke="black" stroke-opacity="0.06" shape-rendering="crispEdges"/>
</g>
<g filter="url(#filter1_i_1130_1127)">
<path d="M69.3377 60.6647C63.3558 65.5621 63.9436 61.3742 61.4654 63.2927C58.4754 61.8768 60.0587 58.1602 58.5101 55.5373C59.8679 52.67 62.8609 52.616 65.8509 54.0319C66.7811 52.0674 70.6955 57.7975 69.3377 60.6647Z" fill="#B9B9B9"/>
</g>
<g filter="url(#filter2_d_1130_1127)">
<path d="M18.0732 49.7748C16.9614 54.0599 19.0469 54.4037 16.1249 55.3459C12.3074 55.8082 11.7994 50.3299 11.0168 48.0632C10.4869 43.4868 12.8299 43.8879 14.2459 44.3335C16.5445 45.057 16.0053 46.0735 18.0732 49.7748Z" fill="#FFF6D6" fill-opacity="0.9" shape-rendering="crispEdges"/>
<path d="M16.4688 47.6618C16.7317 48.2588 17.0654 48.975 17.54 49.839C17.1192 51.5625 17.201 52.6821 17.2533 53.3982C17.265 53.5581 17.2752 53.6978 17.278 53.8196C17.2854 54.1382 17.2411 54.2343 17.1509 54.3241C17.0138 54.4606 16.7132 54.6261 16.0128 54.8549C15.2161 54.9406 14.619 54.7247 14.1385 54.335C13.6311 53.9234 13.2258 53.2939 12.89 52.5311C12.5559 51.7718 12.3078 50.921 12.0917 50.1004C12.0382 49.8973 11.9862 49.6938 11.935 49.4937C11.7906 48.929 11.6529 48.3905 11.5075 47.9585C11.2597 45.742 11.7405 44.9968 12.1618 44.7451C12.3926 44.6072 12.6885 44.5588 13.0404 44.5835C13.3921 44.6081 13.7597 44.7029 14.1009 44.8103L14.2459 44.3335L14.1009 44.8103C14.6401 44.98 14.9693 45.1537 15.2049 45.3506C15.4374 45.5449 15.6123 45.7896 15.801 46.1602C15.9338 46.4208 16.0605 46.7161 16.2168 47.0801C16.2925 47.2566 16.3752 47.4492 16.4688 47.6618Z" stroke="black" stroke-opacity="0.06" shape-rendering="crispEdges"/>
</g>
<g filter="url(#filter3_i_1130_1127)">
<path d="M13.4307 45.6232C14.9712 46.5722 15.3543 49.5894 15.2565 52.9756C13.045 57.0317 13.5233 52.6743 11.3934 51.3621C11.0414 48.7905 11.0294 50.0117 11.0217 45.5173C11.422 44.6719 11.3008 44.311 13.4307 45.6232Z" fill="#B1AEAE"/>
</g>
<g filter="url(#filter4_d_1130_1127)">
<path d="M46.7217 17.2403C43.7533 15.3563 43.0137 16.8104 42.9784 14.4197C43.5108 11.487 47.7506 12.4715 49.6369 12.4564C53.203 13.2008 52.3609 14.8308 51.699 15.7654C50.6245 17.2826 49.9838 16.6324 46.7217 17.2403Z" fill="#FFF6D6" fill-opacity="0.9" shape-rendering="crispEdges"/>
<path d="M51.2891 15.4756L51.6965 15.7636L51.2891 15.4756C51.0423 15.8242 50.8461 16.0111 50.6607 16.1256C50.4782 16.2383 50.2695 16.3037 49.9542 16.35C49.7308 16.3828 49.4845 16.4026 49.1769 16.4274C49.0261 16.4396 48.8606 16.4529 48.6758 16.4696C48.1724 16.5149 47.5654 16.5823 46.8193 16.7145C45.6215 15.9833 44.7557 15.7649 44.2102 15.6274C44.0888 15.5967 43.9832 15.5701 43.8934 15.5427C43.6605 15.4718 43.6309 15.426 43.6039 15.3747C43.5466 15.2658 43.4912 15.0302 43.48 14.466C43.5945 13.8957 43.8744 13.5388 44.2504 13.2987C44.6563 13.0397 45.2041 12.899 45.8485 12.8411C46.4887 12.7836 47.1796 12.8111 47.8461 12.8552C48.0091 12.866 48.1727 12.8779 48.3342 12.8897C48.7892 12.923 49.2277 12.9551 49.5887 12.9557C51.3012 13.3219 51.6914 13.849 51.7672 14.1556C51.81 14.3291 51.7854 14.5336 51.691 14.7738C51.5965 15.0141 51.4468 15.2529 51.2891 15.4756Z" stroke="black" stroke-opacity="0.06" shape-rendering="crispEdges"/>
</g>
<g filter="url(#filter5_i_1130_1127)">
<path d="M50.9165 14.8437C49.847 15.7453 47.4881 15.2794 44.9624 14.3669C42.42 11.7279 45.5889 13.1623 47.0675 11.9157C49.0839 12.2941 48.1676 11.9821 51.5516 13.0918C52.0955 13.597 52.3951 13.5971 50.9165 14.8437Z" fill="#B1AEAE"/>
</g>
<g filter="url(#filter6_d_1130_1127)">
<path d="M65.5875 73.4665C68.184 73.1442 67.8983 71.9516 69.0775 73.3173C70.1976 75.2664 67.3164 76.7136 66.2543 77.6195C63.8715 78.885 63.5586 77.542 63.4807 76.6867C63.3542 75.2983 64.0327 75.3696 65.5875 73.4665Z" fill="#E6DEC3"/>
<path d="M63.9798 76.6498L63.4837 76.6865L63.9798 76.6498C63.9516 76.3403 63.9729 76.1572 64.0155 76.0244C64.0571 75.8949 64.1319 75.7726 64.2822 75.6027C64.3903 75.4806 64.5158 75.3564 64.676 75.1979C64.756 75.1188 64.8447 75.031 64.9442 74.9307C65.2019 74.6708 65.5057 74.3515 65.8547 73.9347C66.8807 73.7828 67.4822 73.4946 67.8516 73.3177C67.9333 73.2785 68.0037 73.2448 68.0648 73.2192C68.1477 73.1845 68.1843 73.1771 68.1992 73.1756C68.1998 73.1755 68.2003 73.1754 68.2007 73.1753C68.2027 73.175 68.2034 73.1748 68.212 73.1784C68.2665 73.2013 68.3928 73.2882 68.6661 73.6002C68.855 73.9494 68.8644 74.2502 68.7784 74.5324C68.6823 74.8478 68.4555 75.1728 68.1247 75.5062C67.7969 75.8366 67.3985 76.1445 67.0002 76.4353C66.9048 76.5049 66.8077 76.5748 66.7113 76.6441C66.4406 76.8388 66.175 77.0298 65.9674 77.2024C64.8348 77.7943 64.4239 77.6428 64.2972 77.5493C64.2172 77.4904 64.144 77.3868 64.086 77.2174C64.0279 77.0478 63.9981 76.8503 63.9798 76.6498Z" stroke="black" stroke-opacity="0.06"/>
</g>
<g filter="url(#filter7_i_1130_1127)">
<path d="M64.3712 76.8475C64.5404 75.8175 66.1038 74.965 67.9782 74.2915C70.6992 74.6084 68.2071 75.286 67.9732 76.7101C66.6465 77.4503 67.3173 77.195 64.8606 78.1627C64.3073 78.1292 64.1374 78.2716 64.3712 76.8475Z" fill="#B1AEAE"/>
</g>
<g filter="url(#filter8_d_1130_1127)">
<path d="M80.5299 51.8459C81.81 50.6388 81.1661 50.0767 82.3668 50.3841C83.7743 51.045 82.8001 53.0011 82.5935 53.9329C81.816 55.5895 81.0958 54.953 80.7031 54.4997C80.0657 53.7639 80.4639 53.5365 80.5299 51.8459Z" fill="#E6DEC3"/>
<path d="M80.9332 52.9456C80.9654 52.7079 80.9983 52.4229 81.0182 52.073C81.5022 51.5817 81.7138 51.1755 81.8373 50.9384C81.8643 50.8865 81.8871 50.8427 81.9076 50.808C81.9084 50.8066 81.9091 50.8053 81.9099 50.8041C81.9198 50.8048 81.9317 50.8058 81.9455 50.8074C82.0054 50.8145 82.0876 50.8299 82.2017 50.8579C82.4043 50.9631 82.5023 51.0973 82.5562 51.249C82.6211 51.4314 82.6333 51.6753 82.5918 51.9815C82.5507 52.284 82.4634 52.605 82.3665 52.9252C82.3442 52.9987 82.3207 53.0741 82.2971 53.15C82.2313 53.3616 82.1646 53.5762 82.1205 53.7592C81.7577 54.5119 81.5179 54.5062 81.5096 54.506C81.4826 54.5053 81.4288 54.4926 81.3413 54.4293C81.254 54.3662 81.1658 54.2764 81.0764 54.1732L80.7031 54.4997L81.0764 54.1732C80.9412 54.0172 80.8913 53.9225 80.8691 53.8568C80.8482 53.7952 80.8382 53.7207 80.8494 53.5778C80.8577 53.4715 80.8739 53.3599 80.8955 53.2114C80.9067 53.1342 80.9194 53.0471 80.9332 52.9456Z" stroke="black" stroke-opacity="0.06"/>
</g>
<g filter="url(#filter9_i_1130_1127)">
<path d="M81.2533 54.2393C80.9234 53.5896 81.4244 52.4902 82.168 51.3692C83.7775 50.4746 82.6998 51.8417 83.1559 52.7399C82.7376 53.6824 82.9977 53.2732 82.0581 54.7904C81.7434 54.9898 81.7094 55.1374 81.2533 54.2393Z" fill="#B1AEAE"/>
</g>
<g filter="url(#filter10_d_1130_1127)">
<path d="M40.8753 40.4756C39.6129 42.2375 38.6431 41.9749 37.5466 41.9801C36.2795 41.6423 36.3527 39.5793 36.6013 38.4516C37.683 36.6696 38.5615 36.8234 39.93 36.9471C40.4773 37.5995 41.0397 38.5213 40.8753 40.4756Z" fill="#FFF6D6" fill-opacity="0.9" shape-rendering="crispEdges"/>
<path d="M40.196 38.3836C40.3502 38.8388 40.4447 39.4462 40.3876 40.2955C39.8379 41.03 39.3903 41.2964 39.0099 41.4063C38.679 41.5019 38.3808 41.495 37.9942 41.486C37.8788 41.4833 37.7554 41.4804 37.621 41.48C37.3136 41.3702 37.0942 41.0414 36.9996 40.435C36.9079 39.8473 36.9671 39.1574 37.0725 38.6398C37.5603 37.857 37.955 37.575 38.3109 37.4608C38.6766 37.3434 39.0699 37.3713 39.6741 37.4259C39.8762 37.6872 40.062 37.9881 40.196 38.3836Z" stroke="black" stroke-opacity="0.06" shape-rendering="crispEdges"/>
</g>
<g filter="url(#filter11_i_1130_1127)">
<path d="M40.2029 40.2883C38.246 42.3113 39.1138 39.6752 38.3077 40.4733C37.4922 40.0872 37.5927 39.7732 37.2499 38.8899C37.7681 37.7957 38.6463 37.6502 39.4617 38.0363C39.8167 37.2867 40.7211 39.1941 40.2029 40.2883Z" fill="#D8D8D8"/>
</g>
<g filter="url(#filter12_d_1130_1127)">
<path d="M21.5688 21.1756C23.3504 19.1912 23.2576 20.1302 24.7546 20.1619C27.3701 22.228 28.0862 22.9322 26.3046 24.9166C24.5231 26.901 22.1785 27.2173 19.6307 25.2768C19.331 22.7946 19.7873 23.16 21.5688 21.1756Z" fill="#FFF6D6" fill-opacity="0.9" shape-rendering="crispEdges"/>
<path d="M21.9612 21.4855C22.4005 20.9961 22.6992 20.7162 22.9178 20.5591C23.1251 20.4102 23.2238 20.398 23.2761 20.3968C23.3615 20.3947 23.442 20.4164 23.6592 20.4747C23.6813 20.4807 23.7047 20.487 23.7297 20.4937C23.9414 20.5504 24.2072 20.6144 24.5518 20.6378C25.1463 21.1088 25.6204 21.4951 25.9821 21.8395C26.3729 22.2115 26.5943 22.4998 26.6982 22.7501C26.8699 23.1637 26.7838 23.6359 25.9123 24.6067C25.0854 25.5278 24.173 26.0143 23.2195 26.0859C22.3054 26.1544 21.2633 25.8483 20.12 25.0198C20.0001 23.9289 20.0721 23.5792 20.26 23.2861C20.3747 23.107 20.5475 22.9274 20.8428 22.6373C20.8698 22.6107 20.8976 22.5835 20.9262 22.5555C21.2006 22.2865 21.5466 21.9473 21.9612 21.4855Z" stroke="black" stroke-opacity="0.07" shape-rendering="crispEdges"/>
</g>
<g filter="url(#filter13_i_1130_1127)">
<path d="M21.8156 20.933C22.83 19.8031 23.3116 19.9497 24.4993 20.3111C26.3064 21.7386 26.6623 22.0916 25.2598 23.6538C23.8574 25.216 22.2887 26.1414 20.4817 24.7139C18.6746 23.2864 20.4131 22.4952 21.8156 20.933Z" fill="#D8D8D8"/>
</g>
<g filter="url(#filter14_d_1130_1127)">
<path d="M71.0082 22.916C73.8668 25.33 72.6958 24.9056 73.0195 26.3265C71.1256 28.0905 70.4377 28.5239 67.5791 26.11C64.7204 23.6961 63.7658 21.3397 65.5225 19.5957C68.486 20.1962 68.1496 20.5021 71.0082 22.916Z" fill="#FFF6D6" fill-opacity="0.9" shape-rendering="crispEdges"/>
<path d="M70.6423 23.2568C71.3534 23.8573 71.797 24.2673 72.073 24.5661C72.3505 24.8667 72.4262 25.0211 72.4512 25.1098C72.4744 25.1922 72.4686 25.2497 72.4506 25.427C72.4485 25.448 72.4462 25.4706 72.4437 25.4952C72.4262 25.6727 72.4134 25.8885 72.4545 26.1734C72.0634 26.5335 71.7467 26.8076 71.4557 27.0021C71.1283 27.221 70.8784 27.3077 70.6431 27.3161C70.4037 27.3246 70.0952 27.2548 69.6483 27.0104C69.199 26.7648 68.6513 26.3657 67.9449 25.7692C66.5466 24.5884 65.6656 23.4626 65.3266 22.4639C65.0289 21.5868 65.1448 20.8064 65.7205 20.1194C66.9498 20.3822 67.4675 20.5871 67.9743 20.944C68.2662 21.1496 68.5622 21.4116 68.9828 21.7926C69.022 21.8281 69.0621 21.8644 69.1032 21.9017C69.4984 22.2602 69.9879 22.7042 70.6423 23.2568Z" stroke="black" stroke-opacity="0.07" shape-rendering="crispEdges"/>
</g>
<g filter="url(#filter15_i_1130_1127)">
<path d="M71.3647 23.2389C72.6552 24.4599 72.9297 25.0218 72.7753 26.029C71.4668 27.2477 71.1212 27.4621 68.8708 25.5618C66.6204 23.6615 65.1086 21.8298 66.4171 20.6111C68.8961 21.5228 68.5102 20.5383 71.3647 23.2389Z" fill="#D8D8D8"/>
</g>
<g filter="url(#filter16_d_1130_1127)">
<path d="M60.3449 29.1052C62.7215 30.3954 61.776 30.5085 62.102 31.9593C60.6946 34.9278 60.1731 35.7705 57.7965 34.4802C55.4199 33.1899 54.5492 30.9967 55.8494 28.1205C58.2187 27.2959 57.9683 27.8149 60.3449 29.1052Z" fill="#FFF6D6" fill-opacity="0.9" shape-rendering="crispEdges"/>
<path d="M60.1307 29.557C60.7171 29.8754 61.0653 30.1039 61.2737 30.2824C61.4724 30.4526 61.5089 30.5473 61.5227 30.5977C61.5448 30.6785 61.5428 30.7592 61.5372 30.9817C61.5367 31.0041 61.5361 31.028 61.5354 31.0534C61.5302 31.2696 61.5307 31.5391 61.5893 31.8752C61.2692 32.5477 61.0036 33.0857 60.7525 33.5068C60.4806 33.9629 60.2516 34.2363 60.0325 34.3889C59.6679 34.643 59.1782 34.6623 58.0107 34.0284C56.9029 33.427 56.2042 32.6484 55.9058 31.7428C55.6212 30.8789 55.6728 29.814 56.21 28.5398C57.2492 28.1908 57.6129 28.1834 57.951 28.3031C58.157 28.3761 58.3768 28.5053 58.7323 28.7274C58.7649 28.7477 58.7983 28.7686 58.8326 28.7901C59.1626 28.9968 59.5782 29.257 60.1307 29.557Z" stroke="black" stroke-opacity="0.07" shape-rendering="crispEdges"/>
</g>
<g filter="url(#filter17_i_1130_1127)">
<path d="M60.6423 29.2909C61.9955 30.0256 61.9664 30.5217 61.8945 31.7453C60.9221 33.7963 60.6599 34.2158 58.789 33.2C56.918 32.1843 55.6336 30.8709 56.606 28.8199C57.5784 26.7689 58.7714 28.2751 60.6423 29.2909Z" fill="#CDCCCC"/>
</g>
<g filter="url(#filter18_d_1130_1127)">
<path d="M33.512 77.3529C29.9589 76.7491 28.0725 74.0368 27.0274 72.2968C27.4974 67.7979 27.98 69.2993 31.5331 69.9031C33.8912 72.5761 36.9882 70.1563 37.5361 77.1957C36.3587 78.2817 39.1296 77.389 33.512 77.3529Z" fill="#FFF6D6" fill-opacity="0.9" shape-rendering="crispEdges"/>
<path d="M36.9285 77.0904C36.7792 77.0564 36.5982 77.0249 36.3782 76.9961C35.8073 76.9214 34.9169 76.8589 33.525 76.8489C30.3365 76.2902 28.5793 73.9112 27.5388 72.2069C27.6503 71.1795 27.7603 70.5335 27.8988 70.133C27.9702 69.9265 28.0383 69.8194 28.0911 69.7631C28.1353 69.716 28.1777 69.6943 28.2389 69.6833C28.3136 69.6699 28.4276 69.6714 28.6119 69.7051C28.7956 69.7387 29.0141 69.7971 29.292 69.8752C29.3413 69.8891 29.3919 69.9035 29.4441 69.9182C29.9329 70.0567 30.5486 70.231 31.3036 70.3691C31.93 71.0292 32.5971 71.3871 33.2282 71.6464C33.4682 71.745 33.7127 71.8329 33.9407 71.9149C34.0236 71.9447 34.1044 71.9738 34.182 72.0023C34.4828 72.1127 34.7534 72.2208 35.0043 72.3552C35.4858 72.613 35.9118 72.9759 36.2601 73.6694C36.6038 74.3537 36.882 75.3808 37.0234 76.9796C36.9887 77.0173 36.9571 77.0542 36.9285 77.0904Z" stroke="black" stroke-opacity="0.07" shape-rendering="crispEdges"/>
</g>
<g filter="url(#filter19_i_1130_1127)">
<path d="M32.0095 76.2881C30.4178 76.0176 28.9697 74.5969 27.7668 72.9369C28.0017 70.6884 28.9034 71.185 31.1041 71.5589C33.6781 71.3007 32.6232 72.8921 34.3298 75.0783C34.0949 77.3268 34.2102 76.662 32.0095 76.2881Z" fill="#BDBCBC"/>
</g>
<ellipse cx="33.6773" cy="62.6736" rx="1.73399" ry="0.776267" transform="rotate(25.34 33.6773 62.6736)" fill="#C4C0C0"/>
<ellipse rx="1.01524" ry="0.378049" transform="matrix(0.0133612 0.999911 -0.999999 0.00144018 78.2025 45.9964)" fill="#C4C0C0"/>
<ellipse cx="45.3693" cy="68.554" rx="3.46799" ry="2.0183" transform="rotate(25.34 45.3693 68.554)" fill="#DEDEDE"/>
<ellipse cx="41.1142" cy="23.7653" rx="2.83744" ry="2.17355" transform="rotate(25.34 41.1142 23.7653)" fill="#DEDEDE"/>
<ellipse rx="3.04241" ry="1.29342" transform="matrix(0.109582 0.993978 -0.995367 0.0961482 17.3413 41.2673)" fill="#DEDEDE"/>
<defs>
<filter id="filter0_d_1130_1127" x="52.9709" y="47.4663" width="23.7793" height="22.3316" filterUnits="userSpaceOnUse" color-interpolation-filters="sRGB">
<feFlood flood-opacity="0" result="BackgroundImageFix"/>
<feColorMatrix in="SourceAlpha" type="matrix" values="0 0 0 0 0 0 0 0 0 0 0 0 0 0 0 0 0 0 127 0" result="hardAlpha"/>
<feOffset dx="1" dy="1"/>
<feGaussianBlur stdDeviation="2"/>
<feComposite in2="hardAlpha" operator="out"/>
<feColorMatrix type="matrix" values="0 0 0 0 0 0 0 0 0 0 0 0 0 0 0 0 0 0 0.25 0"/>
<feBlend mode="normal" in2="BackgroundImageFix" result="effect1_dropShadow_1130_1127"/>
<feBlend mode="normal" in="SourceGraphic" in2="effect1_dropShadow_1130_1127" result="shape"/>
</filter>
<filter id="filter1_i_1130_1127" x="58.5101" y="53.1241" width="11.1109" height="14.1686" filterUnits="userSpaceOnUse" color-interpolation-filters="sRGB">
<feFlood flood-opacity="0" result="BackgroundImageFix"/>
<feBlend mode="normal" in="SourceGraphic" in2="BackgroundImageFix" result="shape"/>
<feColorMatrix in="SourceAlpha" type="matrix" values="0 0 0 0 0 0 0 0 0 0 0 0 0 0 0 0 0 0 127 0" result="hardAlpha"/>
<feOffset dy="4"/>
<feGaussianBlur stdDeviation="2"/>
<feComposite in2="hardAlpha" operator="arithmetic" k2="-1" k3="1"/>
<feColorMatrix type="matrix" values="0 0 0 0 0 0 0 0 0 0 0 0 0 0 0 0 0 0 0.25 0"/>
<feBlend mode="normal" in2="shape" result="effect1_innerShadow_1130_1127"/>
</filter>
<filter id="filter2_d_1130_1127" x="7.94025" y="41.0774" width="15.133" height="19.2961" filterUnits="userSpaceOnUse" color-interpolation-filters="sRGB">
<feFlood flood-opacity="0" result="BackgroundImageFix"/>
<feColorMatrix in="SourceAlpha" type="matrix" values="0 0 0 0 0 0 0 0 0 0 0 0 0 0 0 0 0 0 127 0" result="hardAlpha"/>
<feOffset dx="1" dy="1"/>
<feGaussianBlur stdDeviation="2"/>
<feComposite in2="hardAlpha" operator="out"/>
<feColorMatrix type="matrix" values="0 0 0 0 0 0 0 0 0 0 0 0 0 0 0 0 0 0 0.25 0"/>
<feBlend mode="normal" in2="BackgroundImageFix" result="effect1_dropShadow_1130_1127"/>
<feBlend mode="normal" in="SourceGraphic" in2="effect1_dropShadow_1130_1127" result="shape"/>
</filter>
<filter id="filter3_i_1130_1127" x="11.0217" y="44.7584" width="4.24905" height="13.9057" filterUnits="userSpaceOnUse" color-interpolation-filters="sRGB">
<feFlood flood-opacity="0" result="BackgroundImageFix"/>
<feBlend mode="normal" in="SourceGraphic" in2="BackgroundImageFix" result="shape"/>
<feColorMatrix in="SourceAlpha" type="matrix" values="0 0 0 0 0 0 0 0 0 0 0 0 0 0 0 0 0 0 127 0" result="hardAlpha"/>
<feOffset dy="4"/>
<feGaussianBlur stdDeviation="2"/>
<feComposite in2="hardAlpha" operator="arithmetic" k2="-1" k3="1"/>
<feColorMatrix type="matrix" values="0 0 0 0 0 0 0 0 0 0 0 0 0 0 0 0 0 0 0.25 0"/>
<feBlend mode="normal" in2="shape" result="effect1_innerShadow_1130_1127"/>
</filter>
<filter id="filter4_d_1130_1127" x="39.9784" y="9.30939" width="17.31" height="12.9309" filterUnits="userSpaceOnUse" color-interpolation-filters="sRGB">
<feFlood flood-opacity="0" result="BackgroundImageFix"/>
<feColorMatrix in="SourceAlpha" type="matrix" values="0 0 0 0 0 0 0 0 0 0 0 0 0 0 0 0 0 0 127 0" result="hardAlpha"/>
<feOffset dx="1" dy="1"/>
<feGaussianBlur stdDeviation="2"/>
<feComposite in2="hardAlpha" operator="out"/>
<feColorMatrix type="matrix" values="0 0 0 0 0 0 0 0 0 0 0 0 0 0 0 0 0 0 0.25 0"/>
<feBlend mode="normal" in2="BackgroundImageFix" result="effect1_dropShadow_1130_1127"/>
<feBlend mode="normal" in="SourceGraphic" in2="effect1_dropShadow_1130_1127" result="shape"/>
</filter>
<filter id="filter5_i_1130_1127" x="44.0065" y="11.9157" width="7.99135" height="7.41397" filterUnits="userSpaceOnUse" color-interpolation-filters="sRGB">
<feFlood flood-opacity="0" result="BackgroundImageFix"/>
<feBlend mode="normal" in="SourceGraphic" in2="BackgroundImageFix" result="shape"/>
<feColorMatrix in="SourceAlpha" type="matrix" values="0 0 0 0 0 0 0 0 0 0 0 0 0 0 0 0 0 0 127 0" result="hardAlpha"/>
<feOffset dy="4"/>
<feGaussianBlur stdDeviation="2"/>
<feComposite in2="hardAlpha" operator="arithmetic" k2="-1" k3="1"/>
<feColorMatrix type="matrix" values="0 0 0 0 0 0 0 0 0 0 0 0 0 0 0 0 0 0 0.25 0"/>
<feBlend mode="normal" in2="shape" result="effect1_innerShadow_1130_1127"/>
</filter>
<filter id="filter6_d_1130_1127" x="60.4658" y="69.6765" width="13.8659" height="13.4615" filterUnits="userSpaceOnUse" color-interpolation-filters="sRGB">
<feFlood flood-opacity="0" result="BackgroundImageFix"/>
<feColorMatrix in="SourceAlpha" type="matrix" values="0 0 0 0 0 0 0 0 0 0 0 0 0 0 0 0 0 0 127 0" result="hardAlpha"/>
<feOffset dx="1" dy="1"/>
<feGaussianBlur stdDeviation="2"/>
<feComposite in2="hardAlpha" operator="out"/>
<feColorMatrix type="matrix" values="0 0 0 0 0 0 0 0 0 0 0 0 0 0 0 0 0 0 0.25 0"/>
<feBlend mode="normal" in2="BackgroundImageFix" result="effect1_dropShadow_1130_1127"/>
<feBlend mode="normal" in="SourceGraphic" in2="effect1_dropShadow_1130_1127" result="shape"/>
</filter>
<filter id="filter7_i_1130_1127" x="64.2691" y="74.2915" width="4.9707" height="7.87128" filterUnits="userSpaceOnUse" color-interpolation-filters="sRGB">
<feFlood flood-opacity="0" result="BackgroundImageFix"/>
<feBlend mode="normal" in="SourceGraphic" in2="BackgroundImageFix" result="shape"/>
<feColorMatrix in="SourceAlpha" type="matrix" values="0 0 0 0 0 0 0 0 0 0 0 0 0 0 0 0 0 0 127 0" result="hardAlpha"/>
<feOffset dy="4"/>
<feGaussianBlur stdDeviation="2"/>
<feComposite in2="hardAlpha" operator="arithmetic" k2="-1" k3="1"/>
<feColorMatrix type="matrix" values="0 0 0 0 0 0 0 0 0 0 0 0 0 0 0 0 0 0 0.25 0"/>
<feBlend mode="normal" in2="shape" result="effect1_innerShadow_1130_1127"/>
</filter>
<filter id="filter8_d_1130_1127" x="77.3465" y="47.3013" width="10.7676" height="12.7064" filterUnits="userSpaceOnUse" color-interpolation-filters="sRGB">
<feFlood flood-opacity="0" result="BackgroundImageFix"/>
<feColorMatrix in="SourceAlpha" type="matrix" values="0 0 0 0 0 0 0 0 0 0 0 0 0 0 0 0 0 0 127 0" result="hardAlpha"/>
<feOffset dx="1" dy="1"/>
<feGaussianBlur stdDeviation="2"/>
<feComposite in2="hardAlpha" operator="out"/>
<feColorMatrix type="matrix" values="0 0 0 0 0 0 0 0 0 0 0 0 0 0 0 0 0 0 0.25 0"/>
<feBlend mode="normal" in2="BackgroundImageFix" result="effect1_dropShadow_1130_1127"/>
<feBlend mode="normal" in="SourceGraphic" in2="effect1_dropShadow_1130_1127" result="shape"/>
</filter>
<filter id="filter9_i_1130_1127" x="81.1499" y="51.0777" width="2.00598" height="7.86356" filterUnits="userSpaceOnUse" color-interpolation-filters="sRGB">
<feFlood flood-opacity="0" result="BackgroundImageFix"/>
<feBlend mode="normal" in="SourceGraphic" in2="BackgroundImageFix" result="shape"/>
<feColorMatrix in="SourceAlpha" type="matrix" values="0 0 0 0 0 0 0 0 0 0 0 0 0 0 0 0 0 0 127 0" result="hardAlpha"/>
<feOffset dy="4"/>
<feGaussianBlur stdDeviation="2"/>
<feComposite in2="hardAlpha" operator="arithmetic" k2="-1" k3="1"/>
<feColorMatrix type="matrix" values="0 0 0 0 0 0 0 0 0 0 0 0 0 0 0 0 0 0 0.25 0"/>
<feBlend mode="normal" in2="shape" result="effect1_innerShadow_1130_1127"/>
</filter>
<filter id="filter10_d_1130_1127" x="33.4543" y="33.879" width="12.4501" height="13.1122" filterUnits="userSpaceOnUse" color-interpolation-filters="sRGB">
<feFlood flood-opacity="0" result="BackgroundImageFix"/>
<feColorMatrix in="SourceAlpha" type="matrix" values="0 0 0 0 0 0 0 0 0 0 0 0 0 0 0 0 0 0 127 0" result="hardAlpha"/>
<feOffset dx="1" dy="1"/>
<feGaussianBlur stdDeviation="2"/>
<feComposite in2="hardAlpha" operator="out"/>
<feColorMatrix type="matrix" values="0 0 0 0 0 0 0 0 0 0 0 0 0 0 0 0 0 0 0.25 0"/>
<feBlend mode="normal" in2="BackgroundImageFix" result="effect1_dropShadow_1130_1127"/>
<feBlend mode="normal" in="SourceGraphic" in2="effect1_dropShadow_1130_1127" result="shape"/>
</filter>
<filter id="filter11_i_1130_1127" x="37.2499" y="37.8426" width="3.10952" height="7.2276" filterUnits="userSpaceOnUse" color-interpolation-filters="sRGB">
<feFlood flood-opacity="0" result="BackgroundImageFix"/>
<feBlend mode="normal" in="SourceGraphic" in2="BackgroundImageFix" result="shape"/>
<feColorMatrix in="SourceAlpha" type="matrix" values="0 0 0 0 0 0 0 0 0 0 0 0 0 0 0 0 0 0 127 0" result="hardAlpha"/>
<feOffset dy="4"/>
<feGaussianBlur stdDeviation="2"/>
<feComposite in2="hardAlpha" operator="arithmetic" k2="-1" k3="1"/>
<feColorMatrix type="matrix" values="0 0 0 0 0 0 0 0 0 0 0 0 0 0 0 0 0 0 0.25 0"/>
<feBlend mode="normal" in2="shape" result="effect1_innerShadow_1130_1127"/>
</filter>
<filter id="filter12_d_1130_1127" x="16.5456" y="16.9124" width="15.7411" height="14.667" filterUnits="userSpaceOnUse" color-interpolation-filters="sRGB">
<feFlood flood-opacity="0" result="BackgroundImageFix"/>
<feColorMatrix in="SourceAlpha" type="matrix" values="0 0 0 0 0 0 0 0 0 0 0 0 0 0 0 0 0 0 127 0" result="hardAlpha"/>
<feOffset dx="1" dy="1"/>
<feGaussianBlur stdDeviation="2"/>
<feComposite in2="hardAlpha" operator="out"/>
<feColorMatrix type="matrix" values="0 0 0 0 0 0 0 0 0 0 0 0 0 0 0 0 0 0 0.25 0"/>
<feBlend mode="normal" in2="BackgroundImageFix" result="effect1_dropShadow_1130_1127"/>
<feBlend mode="normal" in="SourceGraphic" in2="effect1_dropShadow_1130_1127" result="shape"/>
</filter>
<filter id="filter13_i_1130_1127" x="19.7076" y="20.048" width="6.4118" height="9.37366" filterUnits="userSpaceOnUse" color-interpolation-filters="sRGB">
<feFlood flood-opacity="0" result="BackgroundImageFix"/>
<feBlend mode="normal" in="SourceGraphic" in2="BackgroundImageFix" result="shape"/>
<feColorMatrix in="SourceAlpha" type="matrix" values="0 0 0 0 0 0 0 0 0 0 0 0 0 0 0 0 0 0 127 0" result="hardAlpha"/>
<feOffset dy="4"/>
<feGaussianBlur stdDeviation="2"/>
<feComposite in2="hardAlpha" operator="arithmetic" k2="-1" k3="1"/>
<feColorMatrix type="matrix" values="0 0 0 0 0 0 0 0 0 0 0 0 0 0 0 0 0 0 0.25 0"/>
<feBlend mode="normal" in2="shape" result="effect1_innerShadow_1130_1127"/>
</filter>
<filter id="filter14_d_1130_1127" x="61.6392" y="16.5957" width="16.3802" height="16.1903" filterUnits="userSpaceOnUse" color-interpolation-filters="sRGB">
<feFlood flood-opacity="0" result="BackgroundImageFix"/>
<feColorMatrix in="SourceAlpha" type="matrix" values="0 0 0 0 0 0 0 0 0 0 0 0 0 0 0 0 0 0 127 0" result="hardAlpha"/>
<feOffset dx="1" dy="1"/>
<feGaussianBlur stdDeviation="2"/>
<feComposite in2="hardAlpha" operator="out"/>
<feColorMatrix type="matrix" values="0 0 0 0 0 0 0 0 0 0 0 0 0 0 0 0 0 0 0.25 0"/>
<feBlend mode="normal" in2="BackgroundImageFix" result="effect1_dropShadow_1130_1127"/>
<feBlend mode="normal" in="SourceGraphic" in2="effect1_dropShadow_1130_1127" result="shape"/>
</filter>
<filter id="filter15_i_1130_1127" x="65.9317" y="20.6111" width="6.88232" height="10.3559" filterUnits="userSpaceOnUse" color-interpolation-filters="sRGB">
<feFlood flood-opacity="0" result="BackgroundImageFix"/>
<feBlend mode="normal" in="SourceGraphic" in2="BackgroundImageFix" result="shape"/>
<feColorMatrix in="SourceAlpha" type="matrix" values="0 0 0 0 0 0 0 0 0 0 0 0 0 0 0 0 0 0 127 0" result="hardAlpha"/>
<feOffset dy="4"/>
<feGaussianBlur stdDeviation="2"/>
<feComposite in2="hardAlpha" operator="arithmetic" k2="-1" k3="1"/>
<feColorMatrix type="matrix" values="0 0 0 0 0 0 0 0 0 0 0 0 0 0 0 0 0 0 0.25 0"/>
<feBlend mode="normal" in2="shape" result="effect1_innerShadow_1130_1127"/>
</filter>
<filter id="filter16_d_1130_1127" x="52.2461" y="24.7226" width="14.8559" height="15.3432" filterUnits="userSpaceOnUse" color-interpolation-filters="sRGB">
<feFlood flood-opacity="0" result="BackgroundImageFix"/>
<feColorMatrix in="SourceAlpha" type="matrix" values="0 0 0 0 0 0 0 0 0 0 0 0 0 0 0 0 0 0 127 0" result="hardAlpha"/>
<feOffset dx="1" dy="1"/>
<feGaussianBlur stdDeviation="2"/>
<feComposite in2="hardAlpha" operator="out"/>
<feColorMatrix type="matrix" values="0 0 0 0 0 0 0 0 0 0 0 0 0 0 0 0 0 0 0.25 0"/>
<feBlend mode="normal" in2="BackgroundImageFix" result="effect1_dropShadow_1130_1127"/>
<feBlend mode="normal" in="SourceGraphic" in2="effect1_dropShadow_1130_1127" result="shape"/>
</filter>
<filter id="filter17_i_1130_1127" x="56.2727" y="27.799" width="5.6491" height="9.93182" filterUnits="userSpaceOnUse" color-interpolation-filters="sRGB">
<feFlood flood-opacity="0" result="BackgroundImageFix"/>
<feBlend mode="normal" in="SourceGraphic" in2="BackgroundImageFix" result="shape"/>
<feColorMatrix in="SourceAlpha" type="matrix" values="0 0 0 0 0 0 0 0 0 0 0 0 0 0 0 0 0 0 127 0" result="hardAlpha"/>
<feOffset dy="4"/>
<feGaussianBlur stdDeviation="2"/>
<feComposite in2="hardAlpha" operator="arithmetic" k2="-1" k3="1"/>
<feColorMatrix type="matrix" values="0 0 0 0 0 0 0 0 0 0 0 0 0 0 0 0 0 0 0.25 0"/>
<feBlend mode="normal" in2="shape" result="effect1_innerShadow_1130_1127"/>
</filter>
<filter id="filter18_d_1130_1127" x="24.0274" y="66.1712" width="18.5087" height="16.561" filterUnits="userSpaceOnUse" color-interpolation-filters="sRGB">
<feFlood flood-opacity="0" result="BackgroundImageFix"/>
<feColorMatrix in="SourceAlpha" type="matrix" values="0 0 0 0 0 0 0 0 0 0 0 0 0 0 0 0 0 0 127 0" result="hardAlpha"/>
<feOffset dx="1" dy="1"/>
<feGaussianBlur stdDeviation="2"/>
<feComposite in2="hardAlpha" operator="out"/>
<feColorMatrix type="matrix" values="0 0 0 0 0 0 0 0 0 0 0 0 0 0 0 0 0 0 0.25 0"/>
<feBlend mode="normal" in2="BackgroundImageFix" result="effect1_dropShadow_1130_1127"/>
<feBlend mode="normal" in="SourceGraphic" in2="effect1_dropShadow_1130_1127" result="shape"/>
</filter>
<filter id="filter19_i_1130_1127" x="27.7668" y="71.2347" width="6.56302" height="9.44302" filterUnits="userSpaceOnUse" color-interpolation-filters="sRGB">
<feFlood flood-opacity="0" result="BackgroundImageFix"/>
<feBlend mode="normal" in="SourceGraphic" in2="BackgroundImageFix" result="shape"/>
<feColorMatrix in="SourceAlpha" type="matrix" values="0 0 0 0 0 0 0 0 0 0 0 0 0 0 0 0 0 0 127 0" result="hardAlpha"/>
<feOffset dy="4"/>
<feGaussianBlur stdDeviation="2"/>
<feComposite in2="hardAlpha" operator="arithmetic" k2="-1" k3="1"/>
<feColorMatrix type="matrix" values="0 0 0 0 0 0 0 0 0 0 0 0 0 0 0 0 0 0 0.25 0"/>
<feBlend mode="normal" in2="shape" result="effect1_innerShadow_1130_1127"/>
</filter>
</defs>
</svg>
