<?xml version="1.0" encoding="UTF-8"?>
<!DOCTYPE svg PUBLIC "-//W3C//DTD SVG 1.1//EN" "http://www.w3.org/Graphics/SVG/1.1/DTD/svg11.dtd">
<svg xmlns="http://www.w3.org/2000/svg" version="1.1" width="1280px" height="1280px" style="shape-rendering:geometricPrecision; text-rendering:geometricPrecision; image-rendering:optimizeQuality; fill-rule:evenodd; clip-rule:evenodd" xmlns:xlink="http://www.w3.org/1999/xlink">
<g><path style="opacity:0.973" fill="#a2a2a2" d="M -0.5,759.5 C -0.5,552.833 -0.5,346.167 -0.5,139.5C 0.323821,135.688 0.823821,131.688 1,127.5C 1.41395,127.043 1.91395,126.709 2.5,126.5C 3.6037,120.815 4.77037,115.148 6,109.5C 10.9922,98.9531 15.9922,88.2865 21,77.5C 23.7455,73.7534 26.5789,70.0867 29.5,66.5C 31.8057,63.0364 33.8057,59.3697 35.5,55.5C 38.1667,53.8333 40.8333,52.1667 43.5,50.5C 43.8333,47.5 45.5,45.8333 48.5,45.5C 53.9963,36.8417 61.3297,30.0084 70.5,25C 423.167,24.3333 775.833,24.3333 1128.5,25C 1135.46,29.4778 1141.96,34.6445 1148,40.5C 1149.44,41.9003 1150.27,43.567 1150.5,45.5C 1153.5,45.8333 1155.17,47.5 1155.5,50.5C 1158.17,52.1667 1160.83,53.8333 1163.5,55.5C 1165.19,59.3697 1167.19,63.0364 1169.5,66.5C 1172.42,70.0867 1175.25,73.7534 1178,77.5C 1183.15,88.3916 1188.15,99.3916 1193,110.5C 1194.73,115.279 1195.73,120.279 1196,125.5C 1196.67,126.167 1197.33,126.833 1198,127.5C 1198.17,131.541 1198.67,135.541 1199.5,139.5C 1200.67,345.833 1200.83,552.166 1200,758.5C 1197.02,768.219 1194.52,778.219 1192.5,788.5C 1187.96,799.081 1183.29,809.747 1178.5,820.5C 1177.5,820.5 1176.5,820.5 1175.5,820.5C 1175.79,822.288 1175.45,823.955 1174.5,825.5C 1166.49,837.357 1157.49,848.524 1147.5,859C 1136.71,867.478 1125.71,875.478 1114.5,883C 1111.63,884.383 1108.63,885.216 1105.5,885.5C 1105.5,886.5 1105.5,887.5 1105.5,888.5C 1095.61,891.742 1085.77,895.075 1076,898.5C 1065.48,900.387 1054.98,902.22 1044.5,904C 864.766,903.846 685.1,904.679 505.5,906.5C 505.52,908.143 504.853,909.476 503.5,910.5C 501.023,912.334 498.357,913.667 495.5,914.5C 495.5,915.5 495.5,916.5 495.5,917.5C 493.092,918.201 490.758,919.201 488.5,920.5C 471.504,933.437 454.504,946.271 437.5,959C 435.559,960.903 433.226,961.736 430.5,961.5C 430.719,962.675 430.386,963.675 429.5,964.5C 425.728,966.442 422.394,968.942 419.5,972C 410.699,977.245 402.366,983.245 394.5,990C 393.207,990.49 391.873,990.657 390.5,990.5C 390.52,992.143 389.853,993.476 388.5,994.5C 382.523,998.801 376.523,1003.13 370.5,1007.5C 368.955,1008.45 367.288,1008.79 365.5,1008.5C 363.762,1013.05 360.429,1015.72 355.5,1016.5C 355.5,1017.5 355.5,1018.5 355.5,1019.5C 353.217,1019.61 351.217,1020.44 349.5,1022C 339.463,1029.22 329.463,1036.72 319.5,1044.5C 318.264,1045.25 316.93,1045.58 315.5,1045.5C 314.614,1049.04 312.281,1050.7 308.5,1050.5C 308.5,1051.5 308.5,1052.5 308.5,1053.5C 303.176,1055.65 298.509,1058.82 294.5,1063C 293.207,1063.49 291.873,1063.66 290.5,1063.5C 290.719,1064.68 290.386,1065.68 289.5,1066.5C 278.167,1074.83 266.833,1083.17 255.5,1091.5C 253.955,1092.45 252.288,1092.79 250.5,1092.5C 250.52,1094.14 249.853,1095.48 248.5,1096.5C 239.383,1102.11 230.716,1108.45 222.5,1115.5C 220.206,1116.71 217.873,1117.71 215.5,1118.5C 215.5,1119.5 215.5,1120.5 215.5,1121.5C 214.448,1121.35 213.448,1121.52 212.5,1122C 202.014,1130.28 191.347,1138.28 180.5,1146C 178.975,1147.01 177.308,1147.51 175.5,1147.5C 174.614,1151.04 172.281,1152.7 168.5,1152.5C 168.5,1153.5 168.5,1154.5 168.5,1155.5C 165.881,1155.77 163.381,1155.44 161,1154.5C 160.5,1071.17 160.333,987.834 160.5,904.5C 148.038,902.444 135.538,900.444 123,898.5C 113.227,895.075 103.393,891.742 93.5,888.5C 93.5,887.5 93.5,886.5 93.5,885.5C 90.3682,885.216 87.3682,884.383 84.5,883C 76.4071,877.921 68.4071,872.755 60.5,867.5C 60.719,866.325 60.3857,865.325 59.5,864.5C 54.5119,861.424 50.0119,857.757 46,853.5C 41.2636,847.22 36.2636,841.22 31,835.5C 29.1748,833.52 28.3415,831.187 28.5,828.5C 27.5,828.5 26.5,828.5 25.5,828.5C 24.36,825.975 23.6933,823.308 23.5,820.5C 22.5,820.5 21.5,820.5 20.5,820.5C 19.3037,815.775 17.3037,811.442 14.5,807.5C 13.5344,805.604 13.2011,803.604 13.5,801.5C 12.5,801.5 11.5,801.5 10.5,801.5C 9.09937,797.369 8.43271,793.036 8.5,788.5C 7.5,788.5 6.5,788.5 5.5,788.5C 4.38425,778.444 2.38425,768.778 -0.5,759.5 Z M 230.5,824.5 C 207.164,824.667 183.831,824.5 160.5,824C 159.956,823.283 159.289,822.783 158.5,822.5C 153.456,822.827 148.456,822.494 143.5,821.5C 143.291,820.914 142.957,820.414 142.5,820C 137.665,819.249 132.999,817.916 128.5,816C 103.153,802.856 85.6525,783.023 76,756.5C 75.911,752.972 75.2444,749.638 74,746.5C 73.1667,547.832 73.3333,349.166 74.5,150.5C 75.1667,147.5 75.8333,144.5 76.5,141.5C 77.086,141.291 77.586,140.957 78,140.5C 79.9109,132.834 82.4109,125.5 85.5,118.5C 86.675,118.719 87.675,118.386 88.5,117.5C 90.8767,113.473 93.2101,109.473 95.5,105.5C 98.1667,103.833 100.833,102.167 103.5,100.5C 103.48,98.857 104.147,97.5237 105.5,96.5C 109.589,94.2486 113.255,91.4153 116.5,88C 117.793,87.51 119.127,87.3433 120.5,87.5C 120.5,86.5 120.5,85.5 120.5,84.5C 126.405,83.0297 132.072,81.1964 137.5,79C 137.957,78.586 138.291,78.086 138.5,77.5C 141.833,76.8333 145.167,76.1667 148.5,75.5C 449.167,74.1667 749.833,74.1667 1050.5,75.5C 1053.83,76.1667 1057.17,76.8333 1060.5,77.5C 1060.71,78.086 1061.04,78.586 1061.5,79C 1066.93,81.1964 1072.6,83.0297 1078.5,84.5C 1078.5,85.5 1078.5,86.5 1078.5,87.5C 1080.31,87.4914 1081.98,87.9914 1083.5,89C 1086.66,91.7463 1090,94.2463 1093.5,96.5C 1094.85,97.5237 1095.52,98.857 1095.5,100.5C 1098.17,102.167 1100.83,103.833 1103.5,105.5C 1105.37,109.718 1107.7,113.718 1110.5,117.5C 1111.32,118.386 1112.32,118.719 1113.5,118.5C 1114.02,121.887 1114.85,125.221 1116,128.5C 1118.72,132.981 1121.05,137.648 1123,142.5C 1123.18,145.226 1123.68,147.893 1124.5,150.5C 1125.67,349.166 1125.83,547.832 1125,746.5C 1119.43,769.975 1107.26,789.642 1088.5,805.5C 1073.31,815.941 1056.64,822.107 1038.5,824C 854.5,824.333 670.5,824.667 486.5,825C 479.001,829.917 471.668,835.084 464.5,840.5C 463.614,841.325 463.281,842.325 463.5,843.5C 461.712,843.215 460.045,843.548 458.5,844.5C 441.478,858.07 423.811,870.737 405.5,882.5C 405.5,883.5 405.5,884.5 405.5,885.5C 401.719,885.296 399.386,886.963 398.5,890.5C 397.127,890.343 395.793,890.51 394.5,891C 387.332,896.489 380.332,901.989 373.5,907.5C 368.536,910.702 363.536,913.702 358.5,916.5C 358.5,917.5 358.5,918.5 358.5,919.5C 355.995,919.98 353.662,920.98 351.5,922.5C 343.178,929.325 334.512,935.659 325.5,941.5C 324.147,942.524 323.48,943.857 323.5,945.5C 321.712,945.215 320.045,945.548 318.5,946.5C 307.152,954.853 295.819,963.186 284.5,971.5C 283.614,972.325 283.281,973.325 283.5,974.5C 281.712,974.215 280.045,974.548 278.5,975.5C 273.148,980.168 267.482,984.334 261.5,988C 253.456,994.774 244.956,1000.94 236,1006.5C 235.5,945.834 235.333,885.168 235.5,824.5C 233.833,824.5 232.167,824.5 230.5,824.5 Z"/></g>
<g><path style="opacity:0.004" fill="#000000" d="M 1279.5,170.5 C 1279.5,355.833 1279.5,541.167 1279.5,726.5C 1278.17,541.167 1278.17,355.833 1279.5,170.5 Z"/></g>
<g><path style="opacity:0.084" fill="#999999" d="M 70.5,171.5 C 71.8333,263.498 72.5,355.831 72.5,448.5C 72.1667,540.833 71.8333,633.167 71.5,725.5C 70.5,540.835 70.1667,356.168 70.5,171.5 Z"/></g>
<g><path style="opacity:0.952" fill="#a2a2a2" d="M 318.5,254.5 C 505.833,254.5 693.167,254.5 880.5,254.5C 880.5,280.833 880.5,307.167 880.5,333.5C 693.167,333.5 505.833,333.5 318.5,333.5C 318.5,307.167 318.5,280.833 318.5,254.5 Z"/></g>
<g><path style="opacity:0.987" fill="#a2a2a2" d="M 318.5,411.5 C 505.833,411.5 693.167,411.5 880.5,411.5C 880.5,437.833 880.5,464.167 880.5,490.5C 693.167,490.5 505.833,490.5 318.5,490.5C 318.5,464.167 318.5,437.833 318.5,411.5 Z"/></g>
<g><path style="opacity:0.948" fill="#a3a3a3" d="M 318.5,568.5 C 505.833,568.5 693.167,568.5 880.5,568.5C 880.5,594.833 880.5,621.167 880.5,647.5C 693.167,647.5 505.833,647.5 318.5,647.5C 318.5,621.167 318.5,594.833 318.5,568.5 Z"/></g>
<g><path style="opacity:0.016" fill="#7e7e7e" d="M 158.5,822.5 C 159.289,822.783 159.956,823.283 160.5,824C 183.831,824.5 207.164,824.667 230.5,824.5C 206.672,825.498 182.672,825.831 158.5,825.5C 158.5,824.5 158.5,823.5 158.5,822.5 Z"/></g>
<g><path style="opacity:0.957" fill="#a2a2a2" d="M 125.5,1229.5 C 441.501,1229.17 757.501,1229.5 1073.5,1230.5C 1076.45,1231.32 1079.45,1231.82 1082.5,1232C 1094.51,1236.07 1106.17,1241.24 1117.5,1247.5C 1121.49,1250.83 1125.82,1253.66 1130.5,1256C 776.5,1256.67 422.5,1256.67 68.5,1256C 86.1971,1243.65 105.197,1234.81 125.5,1229.5 Z"/></g>
</svg>
