<?xml version="1.0" encoding="UTF-8"?>
<!DOCTYPE svg PUBLIC "-//W3C//DTD SVG 1.1//EN" "http://www.w3.org/Graphics/SVG/1.1/DTD/svg11.dtd">
<svg xmlns="http://www.w3.org/2000/svg" version="1.1" width="1280px" height="1320px" style="shape-rendering:geometricPrecision; text-rendering:geometricPrecision; image-rendering:optimizeQuality; fill-rule:evenodd; clip-rule:evenodd" xmlns:xlink="http://www.w3.org/1999/xlink">
<g><path style="opacity:0.984" fill="#7a7a7a" d="M 215.5,296.5 C 500.673,296.173 785.839,296.506 1071,297.5C 1075.59,297.879 1080.09,298.712 1084.5,300C 1095.75,305.572 1105.25,313.405 1113,323.5C 1115.54,329.193 1117.87,334.86 1120,340.5C 1120.83,352.847 1120.67,365.18 1119.5,377.5C 1112.58,399.498 1097.91,413.665 1075.5,420C 784.833,420.667 494.167,420.667 203.5,420C 181.099,413.668 166.432,399.501 159.5,377.5C 157.982,362.337 158.316,347.337 160.5,332.5C 161.5,332.5 162.5,332.5 163.5,332.5C 164.058,326.907 166.391,322.24 170.5,318.5C 171.325,317.614 172.325,317.281 173.5,317.5C 173.162,313.849 174.828,312.183 178.5,312.5C 178.281,311.325 178.614,310.325 179.5,309.5C 181.377,308.197 183.043,306.697 184.5,305C 188.238,303.978 191.572,302.311 194.5,300C 201.562,298.363 208.562,297.196 215.5,296.5 Z"/></g>
<g><path style="opacity:0.98" fill="#7b7b7b" d="M 204.5,576.5 C 494.5,576.333 784.5,576.5 1074.5,577C 1105.34,585.993 1120.67,606.493 1120.5,638.5C 1120.25,647.226 1119.59,655.893 1118.5,664.5C 1117.5,664.5 1116.5,664.5 1115.5,664.5C 1115.22,667.632 1114.38,670.632 1113,673.5C 1109.82,677.01 1106.66,680.51 1103.5,684C 1102.55,684.483 1101.55,684.649 1100.5,684.5C 1100.72,685.675 1100.39,686.675 1099.5,687.5C 1095.76,691.609 1091.09,693.942 1085.5,694.5C 1085.5,695.5 1085.5,696.5 1085.5,697.5C 936.881,698.823 788.215,699.489 639.5,699.5C 490.785,699.489 342.119,698.823 193.5,697.5C 193.5,696.5 193.5,695.5 193.5,694.5C 187.907,693.942 183.24,691.609 179.5,687.5C 178.614,686.675 178.281,685.675 178.5,684.5C 175.167,684.5 173.5,682.833 173.5,679.5C 172.325,679.719 171.325,679.386 170.5,678.5C 166.391,674.76 164.058,670.093 163.5,664.5C 162.5,664.5 161.5,664.5 160.5,664.5C 157.833,647.167 157.833,629.833 160.5,612.5C 161.5,612.5 162.5,612.5 163.5,612.5C 164.167,609.167 164.833,605.833 165.5,602.5C 166.5,602.5 167.5,602.5 168.5,602.5C 170.127,599.373 171.96,596.373 174,593.5C 183.111,585.863 193.278,580.196 204.5,576.5 Z"/></g>
<g><path style="opacity:0.982" fill="#7b7b7b" d="M 201.5,856.5 C 493.5,856.333 785.5,856.5 1077.5,857C 1083.65,859.576 1089.65,862.41 1095.5,865.5C 1107.48,874.177 1115.48,885.51 1119.5,899.5C 1121.2,914.363 1120.7,929.03 1118,943.5C 1115.69,946.428 1114.02,949.762 1113,953.5C 1109.82,957.01 1106.66,960.51 1103.5,964C 1102.55,964.483 1101.55,964.649 1100.5,964.5C 1100.72,965.675 1100.39,966.675 1099.5,967.5C 1097.83,968.833 1096.17,970.167 1094.5,971.5C 1088.68,974.119 1083.02,976.619 1077.5,979C 785.5,979.667 493.5,979.667 201.5,979C 195.982,976.619 190.315,974.119 184.5,971.5C 182.833,970.167 181.167,968.833 179.5,967.5C 178.614,966.675 178.281,965.675 178.5,964.5C 175.167,964.5 173.5,962.833 173.5,959.5C 172.325,959.719 171.325,959.386 170.5,958.5C 169.197,956.623 167.697,954.957 166,953.5C 163.828,947.564 161.494,941.897 159,936.5C 157.925,921.732 158.591,907.065 161,892.5C 163.915,887.001 167.082,881.668 170.5,876.5C 171.5,876.5 172.5,876.5 173.5,876.5C 173.351,875.448 173.517,874.448 174,873.5C 177.625,871.375 180.791,868.709 183.5,865.5C 189.561,862.469 195.561,859.469 201.5,856.5 Z"/></g>
</svg>
