<?xml version="1.0" encoding="UTF-8"?>
<!DOCTYPE svg PUBLIC "-//W3C//DTD SVG 1.1//EN" "http://www.w3.org/Graphics/SVG/1.1/DTD/svg11.dtd">
<svg xmlns="http://www.w3.org/2000/svg" version="1.1" width="1280px" height="1280px" style="shape-rendering:geometricPrecision; text-rendering:geometricPrecision; image-rendering:optimizeQuality; fill-rule:evenodd; clip-rule:evenodd" xmlns:xlink="http://www.w3.org/1999/xlink">
<g><path style="opacity:0.972" fill="#032838" d="M 578.5,-0.5 C 620.833,-0.5 663.167,-0.5 705.5,-0.5C 713.658,0.158637 721.658,1.65864 729.5,4C 729.957,4.41395 730.291,4.91395 730.5,5.5C 739.873,8.07577 748.873,11.0758 757.5,14.5C 757.5,15.8333 757.5,17.1667 757.5,18.5C 759.924,18.1924 762.257,18.5258 764.5,19.5C 763.833,19.8333 763.167,20.1667 762.5,20.5C 766.54,22.041 770.207,24.2077 773.5,27C 776.615,27.0299 779.115,28.1965 781,30.5C 782.049,29.4829 783.216,29.3162 784.5,30C 783.007,31.1562 783.174,31.9896 785,32.5C 787.537,33.542 789.871,34.8753 792,36.5C 792.333,36.1667 792.667,35.8333 793,35.5C 793.273,37.3289 794.107,38.8289 795.5,40C 794.304,40.6543 794.304,41.1543 795.5,41.5C 796.251,40.624 796.751,39.624 797,38.5C 798.248,41.579 800.081,44.2457 802.5,46.5C 805.61,46.1947 808.61,46.8614 811.5,48.5C 813.929,49.2648 815.262,50.9315 815.5,53.5C 816.5,53.5 817.5,53.5 818.5,53.5C 818.5,54.5 818.5,55.5 818.5,56.5C 821.803,57.5945 824.803,59.4279 827.5,62C 829.174,63.5059 830.174,65.3393 830.5,67.5C 831.675,67.281 832.675,67.6143 833.5,68.5C 835.155,71.153 837.155,73.4864 839.5,75.5C 840.287,74.7579 840.953,73.9246 841.5,73C 847.797,69.9715 854.463,68.8048 861.5,69.5C 865.894,68.3997 870.561,68.3997 875.5,69.5C 883.443,68.2255 890.443,70.0588 896.5,75C 897.793,75.49 899.127,75.6567 900.5,75.5C 900.5,76.5 900.5,77.5 900.5,78.5C 901.873,78.3433 903.207,78.51 904.5,79C 911.059,84.2777 916.059,90.7777 919.5,98.5C 920.452,100.045 920.785,101.712 920.5,103.5C 945.907,102.848 971.241,103.681 996.5,106C 1002.29,107.727 1007.96,109.727 1013.5,112C 1018.67,114.975 1024.01,117.809 1029.5,120.5C 1031.38,121.803 1033.04,123.303 1034.5,125C 1035.79,125.49 1037.13,125.657 1038.5,125.5C 1038.28,126.675 1038.61,127.675 1039.5,128.5C 1044.59,130.921 1048.25,134.587 1050.5,139.5C 1052.66,139.721 1054.33,140.721 1055.5,142.5C 1055.68,145.837 1056.68,148.837 1058.5,151.5C 1059.82,151.33 1060.99,151.663 1062,152.5C 1065.91,157.159 1068.91,162.492 1071,168.5C 1072.07,169.618 1073.24,170.618 1074.5,171.5C 1074.29,172.086 1073.96,172.586 1073.5,173C 1075.62,175.409 1077.62,177.909 1079.5,180.5C 1080.32,181.386 1081.32,181.719 1082.5,181.5C 1088.05,194.691 1092.22,208.357 1095,222.5C 1095.17,257.5 1095.33,292.5 1095.5,327.5C 1095.46,364.56 1094.8,401.56 1093.5,438.5C 1092.5,438.5 1091.5,438.5 1090.5,438.5C 1090.17,441.5 1088.5,443.167 1085.5,443.5C 1084.83,445.5 1084.17,447.5 1083.5,449.5C 1082.5,449.5 1081.5,449.5 1080.5,449.5C 1078.42,453.358 1076.09,457.025 1073.5,460.5C 1072.5,460.5 1071.5,460.5 1070.5,460.5C 1070.5,461.5 1070.5,462.5 1070.5,463.5C 1068.83,463.5 1067.17,463.5 1065.5,463.5C 1065.17,466.5 1063.5,468.167 1060.5,468.5C 1059.83,470.5 1059.17,472.5 1058.5,474.5C 1057.5,474.5 1056.5,474.5 1055.5,474.5C 1055.5,475.5 1055.5,476.5 1055.5,477.5C 1051.51,477.011 1049.18,478.678 1048.5,482.5C 1046.83,482.5 1045.17,482.5 1043.5,482.5C 1043.5,483.5 1043.5,484.5 1043.5,485.5C 1041.83,485.5 1040.17,485.5 1038.5,485.5C 1038.5,486.5 1038.5,487.5 1038.5,488.5C 1034.87,489.06 1031.54,490.394 1028.5,492.5C 1025.91,493.48 1023.25,493.813 1020.5,493.5C 1020.5,494.5 1020.5,495.5 1020.5,496.5C 1012.17,496.5 1003.83,496.5 995.5,496.5C 995.5,495.5 995.5,494.5 995.5,493.5C 988.473,492.582 981.807,490.915 975.5,488.5C 975.5,487.5 975.5,486.5 975.5,485.5C 973.833,485.5 972.167,485.5 970.5,485.5C 969.833,483.5 969.167,481.5 968.5,479.5C 963.227,479.203 959.893,476.536 958.5,471.5C 957.5,471.5 956.5,471.5 955.5,471.5C 952.909,468.025 950.576,464.358 948.5,460.5C 947.5,460.5 946.5,460.5 945.5,460.5C 945.719,459.325 945.386,458.325 944.5,457.5C 940.459,453.824 936.459,450.157 932.5,446.5C 918.521,459.137 902.188,466.804 883.5,469.5C 875.303,484.752 866.969,500.085 858.5,515.5C 857.5,515.5 856.5,515.5 855.5,515.5C 855.657,516.873 855.49,518.207 855,519.5C 851.975,522.287 849.809,525.62 848.5,529.5C 847.5,529.5 846.5,529.5 845.5,529.5C 843.982,533.36 841.649,536.693 838.5,539.5C 837.675,540.386 836.675,540.719 835.5,540.5C 833.982,544.36 831.649,547.693 828.5,550.5C 827.675,551.386 826.675,551.719 825.5,551.5C 823.254,556.413 819.588,560.079 814.5,562.5C 813.614,563.325 813.281,564.325 813.5,565.5C 811.266,566.704 808.933,567.87 806.5,569C 802.516,572.329 798.516,575.663 794.5,579C 793.207,579.49 791.873,579.657 790.5,579.5C 790.5,580.5 790.5,581.5 790.5,582.5C 781.836,586.316 773.503,590.816 765.5,596C 759.741,597.906 754.074,599.906 748.5,602C 747.833,602.667 747.167,603.333 746.5,604C 733.603,608.648 720.269,611.648 706.5,613C 706.043,613.414 705.709,613.914 705.5,614.5C 695.517,615.332 685.517,615.832 675.5,616C 674.377,617.044 673.044,617.71 671.5,618C 650.996,618.829 630.663,618.663 610.5,617.5C 630.329,616.668 650.329,616.168 670.5,616C 649.836,615.5 629.169,615.333 608.5,615.5C 598.161,615.666 587.828,615.5 577.5,615C 576.833,614.333 576.167,613.667 575.5,613C 571.5,612.667 567.5,612.333 563.5,612C 557.325,609.872 550.992,608.206 544.5,607C 541.603,605.204 538.603,603.704 535.5,602.5C 533.257,601.526 530.924,601.192 528.5,601.5C 528.5,600.5 528.5,599.5 528.5,598.5C 524.543,598.732 520.876,597.899 517.5,596C 508.069,590.249 498.402,584.749 488.5,579.5C 488.5,578.5 488.5,577.5 488.5,576.5C 483.43,574.813 478.764,572.147 474.5,568.5C 473.614,567.675 473.281,566.675 473.5,565.5C 469.38,564.394 466.047,562.06 463.5,558.5C 462.675,557.614 461.675,557.281 460.5,557.5C 442.609,539.719 427.109,520.052 414,498.5C 413.506,496.866 413.34,495.199 413.5,493.5C 412.5,493.5 411.5,493.5 410.5,493.5C 407.392,486.895 404.226,480.228 401,473.5C 400.506,471.866 400.34,470.199 400.5,468.5C 397.15,468.665 393.817,468.498 390.5,468C 375.369,464.713 362.036,457.88 350.5,447.5C 348.955,446.548 347.288,446.215 345.5,446.5C 344.833,448.5 344.167,450.5 343.5,452.5C 342.325,452.281 341.325,452.614 340.5,453.5C 341.833,454.5 341.833,455.5 340.5,456.5C 338.955,457.452 337.288,457.785 335.5,457.5C 334.833,459.5 334.167,461.5 333.5,463.5C 332.5,463.5 331.5,463.5 330.5,463.5C 330.167,466.5 328.5,468.167 325.5,468.5C 324.833,470.5 324.167,472.5 323.5,474.5C 322.5,474.5 321.5,474.5 320.5,474.5C 320.167,477.5 318.5,479.167 315.5,479.5C 314.833,481.5 314.167,483.5 313.5,485.5C 312.5,485.5 311.5,485.5 310.5,485.5C 308.424,489.358 306.091,493.025 303.5,496.5C 301.833,496.5 300.167,496.5 298.5,496.5C 298.5,497.5 298.5,498.5 298.5,499.5C 297.5,499.5 296.5,499.5 295.5,499.5C 295.5,500.5 295.5,501.5 295.5,502.5C 292.167,503.167 288.833,503.833 285.5,504.5C 285.5,505.5 285.5,506.5 285.5,507.5C 283.833,507.5 282.167,507.5 280.5,507.5C 280.5,508.5 280.5,509.5 280.5,510.5C 277.319,510.002 274.653,510.835 272.5,513C 263.833,513.667 255.167,513.667 246.5,513C 244.347,510.835 241.681,510.002 238.5,510.5C 238.5,509.5 238.5,508.5 238.5,507.5C 236.833,507.5 235.167,507.5 233.5,507.5C 233.5,506.5 233.5,505.5 233.5,504.5C 230.167,503.833 226.833,503.167 223.5,502.5C 223.5,501.5 223.5,500.5 223.5,499.5C 222.5,499.5 221.5,499.5 220.5,499.5C 220.5,498.5 220.5,497.5 220.5,496.5C 218.833,496.5 217.167,496.5 215.5,496.5C 212.909,493.025 210.576,489.358 208.5,485.5C 207.5,485.5 206.5,485.5 205.5,485.5C 204.833,483.5 204.167,481.5 203.5,479.5C 200.5,479.167 198.833,477.5 198.5,474.5C 197.5,474.5 196.5,474.5 195.5,474.5C 193.93,469.57 191.93,464.903 189.5,460.5C 188.503,453.197 188.169,445.863 188.5,438.5C 188.217,437.711 187.717,437.044 187,436.5C 186.833,372.999 186.333,309.665 185.5,246.5C 185.334,240.158 185.5,233.825 186,227.5C 186.308,226.692 186.808,226.025 187.5,225.5C 188.134,217.993 189.301,210.659 191,203.5C 195.754,191.821 200.754,180.155 206,168.5C 209.439,164.018 212.605,159.351 215.5,154.5C 216.325,153.614 217.325,153.281 218.5,153.5C 219.167,151.5 219.833,149.5 220.5,147.5C 221.5,147.5 222.5,147.5 223.5,147.5C 223.729,145.567 224.562,143.9 226,142.5C 229.175,139.957 232.009,137.124 234.5,134C 237.243,131.634 240.243,129.8 243.5,128.5C 245.631,126.617 247.964,125.95 250.5,126.5C 253.652,121.275 258.318,118.775 264.5,119C 263.167,118 263.167,117 264.5,116C 266.999,115.714 269.165,115.881 271,116.5C 272.346,113.751 273.68,113.417 275,115.5C 277.398,113.82 278.565,111.486 278.5,108.5C 284.004,106.46 289.67,104.96 295.5,104C 317.174,103.833 338.841,103.333 360.5,102.5C 363.458,96.6019 366.958,90.9352 371,85.5C 374.766,82.6755 378.266,79.5088 381.5,76C 385.557,73.6323 389.89,71.6323 394.5,70C 398.486,69.5012 402.486,69.3345 406.5,69.5C 411.181,68.2376 415.848,68.2376 420.5,69.5C 428.867,68.1236 436.2,70.1236 442.5,75.5C 446.2,71.4648 450.2,67.7981 454.5,64.5C 455.386,63.675 455.719,62.675 455.5,61.5C 456.5,61.5 457.5,61.5 458.5,61.5C 458.833,58.5 460.5,56.8333 463.5,56.5C 463.921,54.0901 465.254,52.2568 467.5,51C 477.069,43.2019 487.069,35.8686 497.5,29C 504.177,25.3286 510.844,21.6619 517.5,18C 519.473,17.5045 521.473,17.3379 523.5,17.5C 523.5,16.5 523.5,15.5 523.5,14.5C 530.753,12.6839 537.753,10.1839 544.5,7C 548.293,7.09226 551.627,6.09226 554.5,4C 562.354,1.41474 570.354,-0.0852639 578.5,-0.5 Z M 465.5,119.5 C 466.496,119.586 467.329,119.252 468,118.5C 470.771,114.585 473.271,110.585 475.5,106.5C 479.568,103.619 483.568,100.453 487.5,97C 490.53,94.024 493.197,90.8573 495.5,87.5C 497.195,86.9886 498.861,86.3219 500.5,85.5C 502.918,82.4531 505.918,80.1198 509.5,78.5C 510.386,77.675 510.719,76.675 510.5,75.5C 515.812,74.3421 520.479,71.8421 524.5,68C 525.793,67.51 527.127,67.3433 528.5,67.5C 528.5,66.5 528.5,65.5 528.5,64.5C 530.199,64.6602 531.866,64.4935 533.5,64C 537.96,61.8837 542.293,59.5504 546.5,57C 555.201,54.5156 563.867,51.849 572.5,49C 577.032,48.951 581.366,48.1177 585.5,46.5C 593.807,45.5021 602.14,45.1688 610.5,45.5C 610.5,86.8333 610.5,128.167 610.5,169.5C 591.83,169.333 573.164,169.5 554.5,170C 553.328,170.419 552.328,171.085 551.5,172C 545.167,172.333 538.833,172.667 532.5,173C 531.833,173.667 531.167,174.333 530.5,175C 520.593,176.024 510.927,178.024 501.5,181C 499.3,183.046 496.633,184.046 493.5,184C 486.689,186.869 480.022,190.036 473.5,193.5C 471.955,194.452 470.288,194.785 468.5,194.5C 468.5,195.5 468.5,196.5 468.5,197.5C 466.712,197.215 465.045,197.548 463.5,198.5C 457.459,201.901 451.459,205.235 445.5,208.5C 445.5,209.5 445.5,210.5 445.5,211.5C 442.208,211.12 439.875,212.453 438.5,215.5C 435.543,216.507 432.876,217.841 430.5,219.5C 430.439,221.592 429.439,223.092 427.5,224C 425.058,225.11 422.891,226.61 421,228.5C 420.217,226.681 420.717,225.348 422.5,224.5C 423.328,220.204 423.828,215.871 424,211.5C 425.096,207.976 425.929,204.31 426.5,200.5C 427.086,200.291 427.586,199.957 428,199.5C 429.159,194.202 429.993,188.869 430.5,183.5C 431.5,183.5 432.5,183.5 433.5,183.5C 434.485,178.889 435.152,174.222 435.5,169.5C 436.5,169.5 437.5,169.5 438.5,169.5C 439.373,165.879 440.039,162.212 440.5,158.5C 441.5,158.5 442.5,158.5 443.5,158.5C 443.575,155.593 444.409,152.927 446,150.5C 449.614,144.223 453.614,138.223 458,132.5C 458.856,130.132 459.69,127.798 460.5,125.5C 461.5,125.5 462.5,125.5 463.5,125.5C 464.167,123.5 464.833,121.5 465.5,119.5 Z M 677.5,45.5 C 684.532,45.1697 691.532,45.503 698.5,46.5C 699.025,47.1924 699.692,47.6924 700.5,48C 707.353,48.3945 714.02,49.5612 720.5,51.5C 720.709,52.086 721.043,52.586 721.5,53C 747.167,60.3389 769.834,73.1722 789.5,91.5C 790.736,92.2458 792.07,92.5792 793.5,92.5C 793.833,95.5 795.5,97.1667 798.5,97.5C 800.018,101.36 802.351,104.693 805.5,107.5C 806.325,108.386 807.325,108.719 808.5,108.5C 815.106,116.96 821.606,125.627 828,134.5C 828.333,135.833 828.667,137.167 829,138.5C 839.37,153.053 846.703,169.053 851,186.5C 851.667,187.167 852.333,187.833 853,188.5C 854.594,193.701 855.594,199.034 856,204.5C 856.414,204.957 856.914,205.291 857.5,205.5C 858.5,211 859.5,216.5 860.5,222C 860.167,223.833 859.833,225.667 859.5,227.5C 838.909,208.699 815.576,194.199 789.5,184C 783.658,181.816 777.658,179.816 771.5,178C 765.014,176.285 758.347,175.119 751.5,174.5C 751.291,173.914 750.957,173.414 750.5,173C 738.63,172.48 726.963,171.313 715.5,169.5C 694.833,169.5 674.167,169.5 653.5,169.5C 653.5,128.167 653.5,86.8333 653.5,45.5C 661.5,45.5 669.5,45.5 677.5,45.5 Z M 403.5,117.5 C 406.898,117.18 410.232,117.513 413.5,118.5C 412.758,119.287 411.925,119.953 411,120.5C 407.17,129.03 403.17,137.363 399,145.5C 398.333,139.5 398.333,133.5 399,127.5C 399.914,123.785 401.414,120.451 403.5,117.5 Z M 870.5,117.5 C 873.247,117.187 875.914,117.52 878.5,118.5C 879.757,120.679 881.257,122.679 883,124.5C 883.83,130.528 883.664,136.528 882.5,142.5C 879.944,137.193 877.444,131.859 875,126.5C 874.101,124.484 872.767,122.817 871,121.5C 870.51,120.207 870.343,118.873 870.5,117.5 Z M 378.5,249.5 C 377.24,251.367 375.573,252.7 373.5,253.5C 372.544,251.484 371.21,249.651 369.5,248C 366.997,247.871 364.997,246.871 363.5,245C 359.167,244.333 354.833,244.333 350.5,245C 348.974,246.887 346.974,247.887 344.5,248C 340.838,251.313 338.005,255.147 336,259.5C 335.667,274.167 335.333,288.833 335,303.5C 331.631,308.267 328.631,313.267 326,318.5C 324.292,323.304 323.125,328.304 322.5,333.5C 321.914,333.709 321.414,334.043 321,334.5C 320.333,354.167 320.333,373.833 321,393.5C 322.471,394.381 323.304,395.714 323.5,397.5C 321.657,402.539 319.157,407.205 316,411.5C 315.553,414.975 314.72,418.309 313.5,421.5C 312.5,421.5 311.5,421.5 310.5,421.5C 307.909,424.975 305.576,428.642 303.5,432.5C 302.5,432.5 301.5,432.5 300.5,432.5C 299.833,434.5 299.167,436.5 298.5,438.5C 295.5,438.833 293.833,440.5 293.5,443.5C 292.5,443.5 291.5,443.5 290.5,443.5C 289.833,445.5 289.167,447.5 288.5,449.5C 287.325,449.281 286.325,449.614 285.5,450.5C 281.5,455.167 277.5,459.833 273.5,464.5C 265.967,466.636 258.3,467.97 250.5,468.5C 250.5,467.5 250.5,466.5 250.5,465.5C 247.143,465.894 244.81,464.561 243.5,461.5C 242.675,460.614 241.675,460.281 240.5,460.5C 241.113,456.488 239.446,454.488 235.5,454.5C 234.36,451.975 233.693,449.308 233.5,446.5C 232.209,446.737 231.209,446.404 230.5,445.5C 228.58,432.344 227.913,419.011 228.5,405.5C 228.167,348.163 228.5,290.829 229.5,233.5C 233.126,210.741 243.126,191.407 259.5,175.5C 260.386,174.675 260.719,173.675 260.5,172.5C 261.5,172.5 262.5,172.5 263.5,172.5C 263.263,171.209 263.596,170.209 264.5,169.5C 269.143,166.077 274.143,163.077 279.5,160.5C 280.298,160.043 280.631,159.376 280.5,158.5C 287.134,156.567 293.8,154.734 300.5,153C 301.167,152.333 301.833,151.667 302.5,151C 320.164,150.5 337.83,150.333 355.5,150.5C 355.334,159.839 355.5,169.173 356,178.5C 357.963,185.089 359.63,191.755 361,198.5C 365.434,205.733 370.267,212.733 375.5,219.5C 376.5,219.5 377.5,219.5 378.5,219.5C 378.5,229.5 378.5,239.5 378.5,249.5 Z M 948.5,309.5 C 948.666,303.158 948.5,296.825 948,290.5C 947.61,287.896 946.776,285.562 945.5,283.5C 945.666,274.827 945.5,266.16 945,257.5C 942.271,251.937 938.105,247.937 932.5,245.5C 927.88,244.507 923.214,244.173 918.5,244.5C 918.5,245.5 918.5,246.5 918.5,247.5C 913.199,247.806 909.866,250.472 908.5,255.5C 907.5,255.5 906.5,255.5 905.5,255.5C 905.938,244.92 905.272,234.42 903.5,224C 903.833,222.5 904.167,221 904.5,219.5C 912.611,212.077 918.778,203.41 923,193.5C 925.321,179.37 926.154,165.037 925.5,150.5C 943.845,150.167 962.179,150.5 980.5,151.5C 987.717,154.186 995.051,156.686 1002.5,159C 1007.29,163.233 1012.62,166.733 1018.5,169.5C 1020.7,173.374 1023.7,176.708 1027.5,179.5C 1035.63,189.736 1042.46,200.736 1048,212.5C 1049.13,218.678 1050.63,224.678 1052.5,230.5C 1053.5,293.163 1053.83,355.83 1053.5,418.5C 1052.5,418.5 1051.5,418.5 1050.5,418.5C 1049.83,420.5 1049.17,422.5 1048.5,424.5C 1047.32,424.281 1046.32,424.614 1045.5,425.5C 1042.35,428.307 1040.02,431.64 1038.5,435.5C 1037.5,435.5 1036.5,435.5 1035.5,435.5C 1035.5,436.5 1035.5,437.5 1035.5,438.5C 1031.72,438.296 1029.39,439.963 1028.5,443.5C 1024.01,444.022 1019.68,445.022 1015.5,446.5C 1015.5,447.5 1015.5,448.5 1015.5,449.5C 1010.5,449.5 1005.5,449.5 1000.5,449.5C 1000.5,448.5 1000.5,447.5 1000.5,446.5C 998.076,446.808 995.743,446.474 993.5,445.5C 989.435,442.791 985.101,440.458 980.5,438.5C 977.292,433.608 973.625,428.941 969.5,424.5C 968.679,421.553 968.179,418.553 968,415.5C 965.439,411.895 963.105,408.229 961,404.5C 960.109,401.521 959.276,398.521 958.5,395.5C 958.436,393.611 958.936,391.944 960,390.5C 961.182,370.373 960.515,350.373 958,330.5C 955.282,323.291 952.115,316.291 948.5,309.5 Z M 559.5,217.5 C 614.167,217.5 668.833,217.5 723.5,217.5C 723.611,218.117 723.944,218.617 724.5,219C 735.092,219.2 745.425,220.533 755.5,223C 756.167,223.667 756.833,224.333 757.5,225C 764.805,226.989 772.138,228.989 779.5,231C 786.289,234.896 793.289,238.563 800.5,242C 804.455,244.291 808.122,246.958 811.5,250C 813.765,251.118 816.099,251.951 818.5,252.5C 818.5,253.5 818.5,254.5 818.5,255.5C 819.5,255.5 820.5,255.5 821.5,255.5C 824.22,259.544 827.887,262.544 832.5,264.5C 834.279,265.67 835.279,267.336 835.5,269.5C 836.5,269.5 837.5,269.5 838.5,269.5C 842.738,275.579 847.571,281.246 853,286.5C 854.438,287.9 855.271,289.567 855.5,291.5C 856.5,291.5 857.5,291.5 858.5,291.5C 859.336,294.187 860.836,296.52 863,298.5C 863.181,303.706 864.014,308.706 865.5,313.5C 866.5,313.5 867.5,313.5 868.5,313.5C 868.343,314.873 868.51,316.207 869,317.5C 872.042,320.433 875.542,322.6 879.5,324C 891.819,322.142 901.986,325.642 910,334.5C 913.557,339.119 916.057,344.119 917.5,349.5C 918.666,360.485 918.832,371.485 918,382.5C 917.333,383.167 916.667,383.833 916,384.5C 915.355,388.591 914.355,392.591 913,396.5C 910.054,401.417 906.887,406.083 903.5,410.5C 902.5,410.5 901.5,410.5 900.5,410.5C 900.5,411.5 900.5,412.5 900.5,413.5C 894.834,415.833 889.167,418.166 883.5,420.5C 875.521,421.332 867.521,421.832 859.5,422C 850.838,429.911 845.338,439.744 843,451.5C 840.278,456.602 837.278,461.602 834,466.5C 833.506,468.134 833.34,469.801 833.5,471.5C 832.5,471.5 831.5,471.5 830.5,471.5C 825.411,481.934 819.078,491.6 811.5,500.5C 805.864,506.3 800.531,512.3 795.5,518.5C 793.952,518.821 793.285,519.821 793.5,521.5C 790.414,522.88 787.414,524.546 784.5,526.5C 783.614,527.325 783.281,528.325 783.5,529.5C 782.5,529.5 781.5,529.5 780.5,529.5C 780.737,530.791 780.404,531.791 779.5,532.5C 776.561,532.918 774.228,534.418 772.5,537C 771.207,537.49 769.873,537.657 768.5,537.5C 768.5,538.5 768.5,539.5 768.5,540.5C 767.127,540.343 765.793,540.51 764.5,541C 760.148,544.825 755.148,547.658 749.5,549.5C 748.702,549.957 748.369,550.624 748.5,551.5C 746.833,551.5 745.167,551.5 743.5,551.5C 743.5,552.5 743.5,553.5 743.5,554.5C 740.335,553.964 737.669,554.797 735.5,557C 728.044,558.818 720.711,560.818 713.5,563C 712.833,563.667 712.167,564.333 711.5,565C 707.833,565.333 704.167,565.667 700.5,566C 699.692,566.308 699.025,566.808 698.5,567.5C 692.202,568.496 685.868,568.83 679.5,568.5C 676.833,568.5 674.167,568.5 671.5,568.5C 642.498,568.667 613.498,568.5 584.5,568C 583.833,567.333 583.167,566.667 582.5,566C 578.459,565.827 574.459,565.327 570.5,564.5C 570.291,563.914 569.957,563.414 569.5,563C 566.447,562.821 563.447,562.321 560.5,561.5C 558.043,560.019 555.377,558.852 552.5,558C 550.19,557.503 547.857,557.337 545.5,557.5C 545.5,556.5 545.5,555.5 545.5,554.5C 536.671,550.694 527.671,547.027 518.5,543.5C 518.5,542.5 518.5,541.5 518.5,540.5C 514.571,538.793 510.737,536.793 507,534.5C 497.997,526.38 488.831,518.38 479.5,510.5C 478.614,509.675 478.281,508.675 478.5,507.5C 477.5,507.5 476.5,507.5 475.5,507.5C 467.517,495.86 459.517,484.193 451.5,472.5C 446.034,462.534 440.867,452.534 436,442.5C 435.155,433.69 430.988,427.024 423.5,422.5C 414.833,421.833 406.167,421.167 397.5,420.5C 392.688,419.363 388.355,417.196 384.5,414C 383.207,413.51 381.873,413.343 380.5,413.5C 378.982,409.64 376.649,406.307 373.5,403.5C 372.675,402.614 371.675,402.281 370.5,402.5C 368.495,396.831 366.495,391.164 364.5,385.5C 363.167,371.5 363.167,357.5 364.5,343.5C 366.786,339.263 368.786,334.93 370.5,330.5C 373.167,329.5 375.833,328.5 378.5,327.5C 378.5,326.5 378.5,325.5 378.5,324.5C 389.134,325.3 399.467,324.3 409.5,321.5C 412.874,318.626 415.708,315.293 418,311.5C 418.235,306.655 419.235,301.989 421,297.5C 424.443,292.966 427.61,288.3 430.5,283.5C 431.5,283.5 432.5,283.5 433.5,283.5C 434.167,281.5 434.833,279.5 435.5,277.5C 439.288,274.574 443.288,271.74 447.5,269C 450.824,264.168 455.158,260.668 460.5,258.5C 460.5,257.5 460.5,256.5 460.5,255.5C 466.454,253.065 471.787,249.565 476.5,245C 477.793,244.51 479.127,244.343 480.5,244.5C 480.5,243.5 480.5,242.5 480.5,241.5C 483.632,241.216 486.632,240.383 489.5,239C 492.075,237.213 494.741,235.547 497.5,234C 504.565,231.646 511.565,228.979 518.5,226C 524.589,223.915 530.922,222.581 537.5,222C 537.957,221.586 538.291,221.086 538.5,220.5C 545.142,219.669 551.809,219.169 558.5,219C 559.056,218.617 559.389,218.117 559.5,217.5 Z"/></g>
<g><path style="opacity:0.381" fill="#051c2a" d="M 757.5,14.5 C 759.689,16.507 762.355,17.507 765.5,17.5C 765.5,18.5 765.5,19.5 765.5,20.5C 770.738,21.7195 775.738,23.3862 780.5,25.5C 780.5,26.5 780.5,27.5 780.5,28.5C 782.167,28.5 783.833,28.5 785.5,28.5C 785.5,29.5 785.5,30.5 785.5,31.5C 788.915,31.5658 791.915,32.7325 794.5,35C 800.348,39.3559 806.014,43.8559 811.5,48.5C 808.61,46.8614 805.61,46.1947 802.5,46.5C 800.081,44.2457 798.248,41.579 797,38.5C 796.751,39.624 796.251,40.624 795.5,41.5C 794.304,41.1543 794.304,40.6543 795.5,40C 794.107,38.8289 793.273,37.3289 793,35.5C 792.667,35.8333 792.333,36.1667 792,36.5C 789.871,34.8753 787.537,33.542 785,32.5C 783.174,31.9896 783.007,31.1562 784.5,30C 783.216,29.3162 782.049,29.4829 781,30.5C 779.115,28.1965 776.615,27.0299 773.5,27C 770.207,24.2077 766.54,22.041 762.5,20.5C 763.167,20.1667 763.833,19.8333 764.5,19.5C 762.257,18.5258 759.924,18.1924 757.5,18.5C 757.5,17.1667 757.5,15.8333 757.5,14.5 Z"/></g>
<g><path style="opacity:0.055" fill="#001538" d="M 669.5,44.5 C 663.077,44.2088 656.744,44.5422 650.5,45.5C 650.5,44.5 650.5,43.5 650.5,42.5C 656.509,42.3338 662.509,42.5005 668.5,43C 669.056,43.3826 669.389,43.8826 669.5,44.5 Z"/></g>
<g><path style="opacity:0.301" fill="#022631" d="M 669.5,44.5 C 672.385,44.1936 675.052,44.5269 677.5,45.5C 669.5,45.5 661.5,45.5 653.5,45.5C 653.5,86.8333 653.5,128.167 653.5,169.5C 674.167,169.5 694.833,169.5 715.5,169.5C 716.952,170.302 718.618,170.802 720.5,171C 719.881,172.757 718.714,173.924 717,174.5C 695.725,173.566 674.225,173.233 652.5,173.5C 651.839,130.821 651.172,88.1543 650.5,45.5C 656.744,44.5422 663.077,44.2088 669.5,44.5 Z"/></g>
<g><path style="opacity:0.01" fill="#000000" d="M 420.5,69.5 C 415.848,68.2376 411.181,68.2376 406.5,69.5C 408.634,67.9666 411.134,67.2999 414,67.5C 415.833,67.6667 417.667,67.8333 419.5,68C 420.056,68.3826 420.389,68.8826 420.5,69.5 Z"/></g>
<g><path style="opacity:0.009" fill="#000202" d="M 875.5,69.5 C 870.561,68.3997 865.894,68.3997 861.5,69.5C 861.611,68.8826 861.944,68.3826 862.5,68C 866.5,67.3333 870.5,67.3333 874.5,68C 875.056,68.3826 875.389,68.8826 875.5,69.5 Z"/></g>
<g><path style="opacity:0.456" fill="#051c2a" d="M 495.5,87.5 C 493.197,90.8573 490.53,94.024 487.5,97C 483.568,100.453 479.568,103.619 475.5,106.5C 473.271,110.585 470.771,114.585 468,118.5C 467.329,119.252 466.496,119.586 465.5,119.5C 465.196,118.85 464.863,118.183 464.5,117.5C 465.955,115.78 466.788,113.78 467,111.5C 468,112.833 469,112.833 470,111.5C 470.318,109.939 471.151,108.772 472.5,108C 472.043,107.586 471.709,107.086 471.5,106.5C 472.981,105.52 474.315,104.353 475.5,103C 475.167,102.667 474.833,102.333 474.5,102C 480.028,99.8051 483.862,95.9718 486,90.5C 487.117,90.6651 488.284,90.9984 489.5,91.5C 491.264,89.7224 493.264,88.3891 495.5,87.5 Z"/></g>
<g><path style="opacity:0.444" fill="#041d2c" d="M 278.5,108.5 C 278.565,111.486 277.398,113.82 275,115.5C 273.68,113.417 272.346,113.751 271,116.5C 269.165,115.881 266.999,115.714 264.5,116C 263.167,117 263.167,118 264.5,119C 258.318,118.775 253.652,121.275 250.5,126.5C 247.964,125.95 245.631,126.617 243.5,128.5C 243.5,127.5 243.5,126.5 243.5,125.5C 245.167,125.5 246.833,125.5 248.5,125.5C 248.5,124.5 248.5,123.5 248.5,122.5C 253.34,120.447 258.006,117.947 262.5,115C 264.473,114.505 266.473,114.338 268.5,114.5C 268.5,113.5 268.5,112.5 268.5,111.5C 272.182,111.445 275.515,110.445 278.5,108.5 Z"/></g>
<g><path style="opacity:0.132" fill="#051422" d="M 280.5,158.5 C 280.631,159.376 280.298,160.043 279.5,160.5C 274.143,163.077 269.143,166.077 264.5,169.5C 264.5,168.5 264.5,167.5 264.5,166.5C 265.833,166.5 267.167,166.5 268.5,166.5C 268.5,165.5 268.5,164.5 268.5,163.5C 272.031,161.035 276.031,159.368 280.5,158.5 Z"/></g>
<g><path style="opacity:0.38" fill="#041e2d" d="M 1055.5,142.5 C 1058.68,144.193 1060.35,146.859 1060.5,150.5C 1061.68,150.281 1062.68,150.614 1063.5,151.5C 1070.87,160.924 1077.2,170.924 1082.5,181.5C 1081.32,181.719 1080.32,181.386 1079.5,180.5C 1077.62,177.909 1075.62,175.409 1073.5,173C 1073.96,172.586 1074.29,172.086 1074.5,171.5C 1073.24,170.618 1072.07,169.618 1071,168.5C 1068.91,162.492 1065.91,157.159 1062,152.5C 1060.99,151.663 1059.82,151.33 1058.5,151.5C 1056.68,148.837 1055.68,145.837 1055.5,142.5 Z"/></g>
<g><path style="opacity:0.548" fill="#06212c" d="M 723.5,217.5 C 668.833,217.5 614.167,217.5 559.5,217.5C 562.308,216.886 564.975,215.719 567.5,214C 616.737,213.831 665.904,213.331 715,212.5C 715.658,214.108 715.158,215.275 713.5,216C 717.025,216.179 720.359,216.679 723.5,217.5 Z"/></g>
<g><path style="opacity:0.067" fill="#001d2c" d="M 185.5,246.5 C 186.333,309.665 186.833,372.999 187,436.5C 187.717,437.044 188.217,437.711 188.5,438.5C 187.5,438.5 186.5,438.5 185.5,438.5C 185.5,374.5 185.5,310.5 185.5,246.5 Z"/></g>
<g><path style="opacity:0.243" fill="#002338" d="M 228.5,405.5 C 227.913,419.011 228.58,432.344 230.5,445.5C 224.595,442.813 223.095,438.48 226,432.5C 226.333,371.5 226.667,310.5 227,249.5C 227.167,301.668 227.667,353.668 228.5,405.5 Z"/></g>
<g><path style="opacity:0.01" fill="#000101" d="M 378.5,249.5 C 377.742,252.487 376.909,255.487 376,258.5C 375.215,256.751 374.382,255.084 373.5,253.5C 375.573,252.7 377.24,251.367 378.5,249.5 Z"/></g>
<g><path style="opacity:0.161" fill="#061521" d="M 821.5,255.5 C 824.226,255.264 826.559,256.097 828.5,258C 828.043,258.414 827.709,258.914 827.5,259.5C 828.689,260.429 830.022,260.762 831.5,260.5C 831.433,261.959 831.766,263.292 832.5,264.5C 827.887,262.544 824.22,259.544 821.5,255.5 Z"/></g>
<g><path style="opacity:0.959" fill="#032839" d="M 673.5,280.5 C 676.833,280.5 680.167,280.5 683.5,280.5C 683.5,281.5 683.5,282.5 683.5,283.5C 686.833,284.167 690.167,284.833 693.5,285.5C 694.167,287.5 694.833,289.5 695.5,291.5C 696.5,291.5 697.5,291.5 698.5,291.5C 698.5,309.167 698.5,326.833 698.5,344.5C 697.5,344.5 696.5,344.5 695.5,344.5C 695.167,347.5 693.5,349.167 690.5,349.5C 690.5,350.5 690.5,351.5 690.5,352.5C 688.167,352.5 685.833,352.5 683.5,352.5C 683.5,353.5 683.5,354.5 683.5,355.5C 680.167,355.5 676.833,355.5 673.5,355.5C 673.5,354.5 673.5,353.5 673.5,352.5C 671.833,352.5 670.167,352.5 668.5,352.5C 668.5,351.5 668.5,350.5 668.5,349.5C 664.553,349.556 661.553,347.89 659.5,344.5C 657.915,325.716 658.248,307.049 660.5,288.5C 661.5,288.5 662.5,288.5 663.5,288.5C 663.48,286.857 664.147,285.524 665.5,284.5C 668.086,283.52 670.753,283.187 673.5,283.5C 673.5,282.5 673.5,281.5 673.5,280.5 Z"/></g>
<g><path style="opacity:0.007" fill="#000000" d="M 945.5,283.5 C 946.776,285.562 947.61,287.896 948,290.5C 948.5,296.825 948.666,303.158 948.5,309.5C 947.75,300.945 946.75,292.278 945.5,283.5 Z"/></g>
<g><path style="opacity:0.964" fill="#032839" d="M 580.5,283.5 C 585.606,283.523 590.606,284.189 595.5,285.5C 595.5,286.5 595.5,287.5 595.5,288.5C 597.167,288.5 598.833,288.5 600.5,288.5C 600.5,289.5 600.5,290.5 600.5,291.5C 601.5,291.5 602.5,291.5 603.5,291.5C 605.752,310.049 606.085,328.716 604.5,347.5C 603.476,348.853 602.143,349.52 600.5,349.5C 599.833,351.5 599.167,353.5 598.5,355.5C 595.833,355.5 593.167,355.5 590.5,355.5C 590.5,356.5 590.5,357.5 590.5,358.5C 587.482,358.665 584.482,358.498 581.5,358C 580.045,355.984 578.045,355.151 575.5,355.5C 575.5,354.5 575.5,353.5 575.5,352.5C 573.833,352.5 572.167,352.5 570.5,352.5C 569.999,349.822 568.499,347.822 566,346.5C 565.5,329.17 565.333,311.837 565.5,294.5C 566.5,294.5 567.5,294.5 568.5,294.5C 569.167,292.5 569.833,290.5 570.5,288.5C 571.5,288.5 572.5,288.5 573.5,288.5C 573.5,287.5 573.5,286.5 573.5,285.5C 576.388,286.01 578.721,285.344 580.5,283.5 Z"/></g>
<g><path style="opacity:0.01" fill="#000000" d="M 756.5,423.5 C 757.218,421.863 757.384,420.197 757,418.5C 755.855,417.316 754.688,417.316 753.5,418.5C 754.455,416.29 755.955,415.957 758,417.5C 758.941,419.989 758.441,421.989 756.5,423.5 Z"/></g>
<g><path style="opacity:0.964" fill="#032738" d="M 629.5,487.5 C 631.607,488.468 633.941,488.802 636.5,488.5C 636.5,489.5 636.5,490.5 636.5,491.5C 639.118,491.221 641.618,490.554 644,489.5C 646.618,492.14 648.952,491.806 651,488.5C 653.064,489.591 655.231,489.758 657.5,489C 656.944,488.617 656.611,488.117 656.5,487.5C 662.039,486.167 667.373,484.334 672.5,482C 677.422,477.717 682.756,474.217 688.5,471.5C 690.576,467.642 692.909,463.975 695.5,460.5C 696.5,460.5 697.5,460.5 698.5,460.5C 699.31,458.202 700.144,455.868 701,453.5C 703.869,450.543 706.036,447.209 707.5,443.5C 709.324,440.032 710.324,436.365 710.5,432.5C 709.067,430.482 709.401,428.815 711.5,427.5C 712.492,427.672 713.158,427.338 713.5,426.5C 713.5,425.167 713.5,423.833 713.5,422.5C 713.5,421.167 713.5,419.833 713.5,418.5C 726.833,418.5 740.167,418.5 753.5,418.5C 754.767,420.039 755.767,421.706 756.5,423.5C 755.899,431.953 754.732,440.286 753,448.5C 748.129,459.758 743.295,471.092 738.5,482.5C 737.5,482.5 736.5,482.5 735.5,482.5C 734.951,484.901 734.118,487.235 733,489.5C 730.032,493.174 726.866,496.507 723.5,499.5C 721.702,498.537 720.368,499.204 719.5,501.5C 717.786,500.391 717.119,501.058 717.5,503.5C 714.227,504.47 711.227,505.97 708.5,508C 708.833,508.333 709.167,508.667 709.5,509C 707.479,509.513 705.979,510.68 705,512.5C 704.667,512.167 704.333,511.833 704,511.5C 700.953,514.319 698.787,517.652 697.5,521.5C 693.044,524.23 688.377,526.73 683.5,529C 677.548,531.16 671.548,533.16 665.5,535C 657.316,535.061 649.316,535.894 641.5,537.5C 633.57,536.025 625.57,535.192 617.5,535C 614.152,533.031 610.486,532.031 606.5,532C 600.364,528.523 594.031,525.19 587.5,522C 586.207,521.51 584.873,521.343 583.5,521.5C 583.5,520.5 583.5,519.5 583.5,518.5C 581.833,518.5 580.167,518.5 578.5,518.5C 578.5,517.5 578.5,516.5 578.5,515.5C 575.414,514.12 572.414,512.454 569.5,510.5C 568.614,509.675 568.281,508.675 568.5,507.5C 567.5,507.5 566.5,507.5 565.5,507.5C 562.986,503.47 559.819,499.804 556,496.5C 554.441,494.783 553.608,492.783 553.5,490.5C 552.325,490.719 551.325,490.386 550.5,489.5C 549.243,487.321 547.743,485.321 546,483.5C 541.445,475.723 537.445,467.723 534,459.5C 531.198,449.969 528.531,440.302 526,430.5C 525.333,426.833 525.333,423.167 526,419.5C 539.758,418.344 553.592,418.177 567.5,419C 569.466,422.525 571.132,426.192 572.5,430C 572.265,430.873 571.931,431.707 571.5,432.5C 573.22,437.131 574.554,441.797 575.5,446.5C 576.5,446.5 577.5,446.5 578.5,446.5C 581.65,454.517 586.317,461.683 592.5,468C 595.357,470.268 598.024,472.768 600.5,475.5C 603.833,477.5 607.167,479.5 610.5,481.5C 612.045,482.452 613.712,482.785 615.5,482.5C 615.5,483.5 615.5,484.5 615.5,485.5C 620.222,485.848 624.889,486.515 629.5,487.5 Z"/></g>
<g><path style="opacity:0.043" fill="#000025" d="M 756.5,423.5 C 755.767,421.706 754.767,420.039 753.5,418.5C 754.688,417.316 755.855,417.316 757,418.5C 757.384,420.197 757.218,421.863 756.5,423.5 Z"/></g>
<g><path style="opacity:0.009" fill="#000000" d="M 713.5,422.5 C 713.5,423.833 713.5,425.167 713.5,426.5C 712.414,426.38 711.747,425.713 711.5,424.5C 711.747,423.287 712.414,422.62 713.5,422.5 Z"/></g>
<g><path style="opacity:0.01" fill="#000000" d="M 711.5,427.5 C 709.401,428.815 709.067,430.482 710.5,432.5C 708.744,431.448 708.077,429.781 708.5,427.5C 709.5,427.5 710.5,427.5 711.5,427.5 Z"/></g>
<g><path style="opacity:0.193" fill="#051728" d="M 629.5,487.5 C 638.484,488.505 647.484,488.505 656.5,487.5C 656.611,488.117 656.944,488.617 657.5,489C 655.231,489.758 653.064,489.591 651,488.5C 648.952,491.806 646.618,492.14 644,489.5C 641.618,490.554 639.118,491.221 636.5,491.5C 636.5,490.5 636.5,489.5 636.5,488.5C 633.941,488.802 631.607,488.468 629.5,487.5 Z"/></g>
<g><path style="opacity:0.45" fill="#051e2c" d="M 723.5,499.5 C 721.648,501.991 719.648,504.491 717.5,507C 715.691,509.238 713.358,510.405 710.5,510.5C 710.719,511.675 710.386,512.675 709.5,513.5C 705.492,516.172 701.492,518.839 697.5,521.5C 698.787,517.652 700.953,514.319 704,511.5C 704.333,511.833 704.667,512.167 705,512.5C 705.979,510.68 707.479,509.513 709.5,509C 709.167,508.667 708.833,508.333 708.5,508C 711.227,505.97 714.227,504.47 717.5,503.5C 717.119,501.058 717.786,500.391 719.5,501.5C 720.368,499.204 721.702,498.537 723.5,499.5 Z"/></g>
<g><path style="opacity:0.418" fill="#051928" d="M 811.5,500.5 C 813.986,501.462 813.986,502.295 811.5,503C 812.167,503.333 812.833,503.667 813.5,504C 812,504.833 810.833,506 810,507.5C 809.667,506.833 809.333,506.167 809,505.5C 807.872,507.345 807.372,509.345 807.5,511.5C 805.712,511.215 804.045,511.548 802.5,512.5C 800.467,514.868 798.133,516.868 795.5,518.5C 800.531,512.3 805.864,506.3 811.5,500.5 Z"/></g>
<g><path style="opacity:0.183" fill="#061725" d="M 779.5,532.5 C 775.46,537.374 770.46,540.874 764.5,543C 764.833,543.333 765.167,543.667 765.5,544C 759.691,546.213 754.024,548.713 748.5,551.5C 748.369,550.624 748.702,549.957 749.5,549.5C 755.148,547.658 760.148,544.825 764.5,541C 765.793,540.51 767.127,540.343 768.5,540.5C 768.5,539.5 768.5,538.5 768.5,537.5C 769.873,537.657 771.207,537.49 772.5,537C 774.228,534.418 776.561,532.918 779.5,532.5 Z"/></g>
<g><path style="opacity:0.091" fill="#001e36" d="M 671.5,568.5 C 674.167,568.5 676.833,568.5 679.5,568.5C 679.294,570.549 678.461,570.883 677,569.5C 676.5,570 676,570.5 675.5,571C 654.159,571.833 632.826,571.666 611.5,570.5C 631.663,569.833 651.663,569.167 671.5,568.5 Z"/></g>
<g><path style="opacity:0.97" fill="#032738" d="M 635.5,928.5 C 636.66,940.521 636.66,952.687 635.5,965C 635.667,966.167 635.833,967.333 636,968.5C 636.383,967.944 636.883,967.611 637.5,967.5C 635.933,975.433 634.266,983.433 632.5,991.5C 631.914,991.709 631.414,992.043 631,992.5C 630.529,996.317 629.529,999.983 628,1003.5C 624.834,1008.97 621.667,1014.3 618.5,1019.5C 617.5,1019.5 616.5,1019.5 615.5,1019.5C 615.509,1021.31 615.009,1022.98 614,1024.5C 611.232,1026.8 608.399,1028.8 605.5,1030.5C 605.321,1032.61 604.321,1034.27 602.5,1035.5C 598.057,1038.31 593.723,1041.14 589.5,1044C 584.539,1046.12 579.539,1048.12 574.5,1050C 568.96,1050.15 563.627,1050.98 558.5,1052.5C 558.66,1054.2 558.494,1055.87 558,1057.5C 554.774,1064.19 551.607,1070.86 548.5,1077.5C 547.5,1077.5 546.5,1077.5 545.5,1077.5C 545.66,1079.2 545.494,1080.87 545,1082.5C 540.75,1088.66 536.75,1095 533,1101.5C 528.043,1106.18 523.876,1111.52 520.5,1117.5C 511.672,1127.49 502.339,1136.99 492.5,1146C 490.067,1147.13 487.734,1148.3 485.5,1149.5C 485.5,1150.5 485.5,1151.5 485.5,1152.5C 480.154,1155.55 475.154,1158.88 470.5,1162.5C 468.08,1162.29 465.747,1162.63 463.5,1163.5C 461.279,1165.31 458.946,1166.98 456.5,1168.5C 455.873,1169.42 455.539,1170.42 455.5,1171.5C 450.428,1174.04 445.428,1176.87 440.5,1180C 431.033,1183.46 421.7,1187.12 412.5,1191C 400.948,1193.86 389.281,1196.03 377.5,1197.5C 376.975,1198.19 376.308,1198.69 375.5,1199C 337.5,1199.67 299.5,1199.67 261.5,1199C 260.328,1198.58 259.328,1197.91 258.5,1197C 246.918,1196.27 235.585,1194.27 224.5,1191C 215.338,1187.21 206.005,1183.55 196.5,1180C 189.315,1176.24 182.148,1172.41 175,1168.5C 167.366,1163.27 159.866,1157.94 152.5,1152.5C 151.887,1148.61 150.22,1145.27 147.5,1142.5C 146.749,1143.38 146.249,1144.38 146,1145.5C 143.627,1142.61 141.127,1139.78 138.5,1137C 138.833,1136.67 139.167,1136.33 139.5,1136C 138.167,1135.33 136.833,1134.67 135.5,1134C 135.957,1133.59 136.291,1133.09 136.5,1132.5C 134.554,1130.92 132.554,1130.42 130.5,1131C 131.357,1130.31 132.023,1129.48 132.5,1128.5C 130.638,1126.79 129.138,1124.79 128,1122.5C 126.53,1123.27 125.03,1123.93 123.5,1124.5C 120.58,1122.74 118.08,1120.4 116,1117.5C 105.137,1103.2 95.1369,1088.54 86,1073.5C 84.4434,1070.33 83.6101,1067 83.5,1063.5C 82.5,1063.5 81.5,1063.5 80.5,1063.5C 79.6275,1059.88 78.9608,1056.21 78.5,1052.5C 73.0124,1051.15 67.3458,1050.31 61.5,1050C 55.9846,1048.22 50.6512,1046.38 45.5,1044.5C 45.5,1043.5 45.5,1042.5 45.5,1041.5C 43.712,1041.79 42.0453,1041.45 40.5,1040.5C 35.4342,1037.07 30.4342,1033.74 25.5,1030.5C 19.6419,1023.14 14.1419,1015.47 9,1007.5C 8.50649,1005.87 8.33982,1004.2 8.5,1002.5C 7.5,1002.5 6.5,1002.5 5.5,1002.5C 3.82096,994.925 1.82096,987.592 -0.5,980.5C -0.5,957.833 -0.5,935.167 -0.5,912.5C 2.08868,907.203 4.25535,901.536 6,895.5C 10.7628,888.772 15.5961,882.105 20.5,875.5C 25.6736,871.839 31.0069,868.339 36.5,865C 38.8098,864.503 41.1432,864.337 43.5,864.5C 43.5,863.5 43.5,862.5 43.5,861.5C 46.8333,861.5 50.1667,861.5 53.5,861.5C 53.3048,839.793 54.1382,818.127 56,796.5C 56.414,796.043 56.914,795.709 57.5,795.5C 58.6206,787.489 59.7872,779.489 61,771.5C 61.414,771.043 61.914,770.709 62.5,770.5C 63.4771,765.067 64.6438,759.733 66,754.5C 66.414,754.043 66.914,753.709 67.5,753.5C 68.5123,749.117 69.6789,744.784 71,740.5C 74.0384,732.306 77.3717,724.306 81,716.5C 86.8495,706.061 92.8495,695.728 99,685.5C 104.775,677.914 110.275,670.247 115.5,662.5C 116.5,662.5 117.5,662.5 118.5,662.5C 120.018,658.64 122.351,655.307 125.5,652.5C 126.325,651.614 127.325,651.281 128.5,651.5C 128.729,649.567 129.562,647.9 131,646.5C 133.167,645 135,643.167 136.5,641C 138.309,638.762 140.642,637.595 143.5,637.5C 144.713,632.875 147.713,630.041 152.5,629C 153.833,627.333 155.167,625.667 156.5,624C 166.715,618.141 176.715,611.808 186.5,605C 190.272,603.063 194.272,601.896 198.5,601.5C 198.5,600.5 198.5,599.5 198.5,598.5C 211.707,593.836 225.04,589.336 238.5,585C 243.796,585.072 248.796,584.072 253.5,582C 290.46,579.592 327.46,578.926 364.5,580C 404.555,584.247 441.222,597.747 474.5,620.5C 475.386,621.325 475.719,622.325 475.5,623.5C 478.588,623.639 481.255,624.639 483.5,626.5C 483.5,627.5 483.5,628.5 483.5,629.5C 484.978,629.238 486.311,629.571 487.5,630.5C 491.193,634.841 495.527,638.507 500.5,641.5C 504.195,646.294 508.361,650.627 513,654.5C 516.033,657.893 518.533,661.56 520.5,665.5C 521.675,665.281 522.675,665.614 523.5,666.5C 558.16,711.478 577.494,762.145 581.5,818.5C 582.192,819.025 582.692,819.692 583,820.5C 583.5,834.163 583.667,847.829 583.5,861.5C 586.854,863.116 590.52,864.282 594.5,865C 598.96,867.772 603.46,870.605 608,873.5C 609.438,874.9 610.271,876.567 610.5,878.5C 616.288,879.954 619.621,883.62 620.5,889.5C 621.5,889.5 622.5,889.5 623.5,889.5C 626.946,895.656 630.113,901.99 633,908.5C 634.909,915.029 635.742,921.696 635.5,928.5 Z M 471.5,678.5 C 473.63,679.964 474.963,681.964 475.5,684.5C 476.5,684.5 477.5,684.5 478.5,684.5C 478.729,686.433 479.562,688.1 481,689.5C 486.075,694.112 490.742,699.112 495,704.5C 500.124,711.768 504.957,719.102 509.5,726.5C 510.301,728.042 510.634,729.708 510.5,731.5C 511.5,731.5 512.5,731.5 513.5,731.5C 513.784,734.632 514.617,737.632 516,740.5C 518.607,744.716 520.941,749.049 523,753.5C 524.138,757.121 524.972,760.788 525.5,764.5C 526.5,764.5 527.5,764.5 528.5,764.5C 528.336,767.187 528.503,769.854 529,772.5C 530.216,774.962 530.882,777.629 531,780.5C 531.414,780.957 531.914,781.291 532.5,781.5C 534.321,791.575 536.321,801.575 538.5,811.5C 535.833,809.833 533.167,808.167 530.5,806.5C 530.5,805.5 530.5,804.5 530.5,803.5C 529.127,803.657 527.793,803.49 526.5,803C 523.806,798.993 520.139,796.493 515.5,795.5C 515.5,794.5 515.5,793.5 515.5,792.5C 513.833,792.5 512.167,792.5 510.5,792.5C 509.833,790.5 509.167,788.5 508.5,786.5C 506.712,786.785 505.045,786.452 503.5,785.5C 501.02,783.696 499.353,781.363 498.5,778.5C 496.833,778.5 495.167,778.5 493.5,778.5C 493.5,777.5 493.5,776.5 493.5,775.5C 487.193,773.085 480.527,771.418 473.5,770.5C 473.5,769.5 473.5,768.5 473.5,767.5C 471.833,767.5 470.167,767.5 468.5,767.5C 468.5,766.5 468.5,765.5 468.5,764.5C 465.102,764.82 461.768,764.487 458.5,763.5C 457.176,762.065 455.51,761.065 453.5,760.5C 449.217,759.508 444.884,759.174 440.5,759.5C 440.5,758.5 440.5,757.5 440.5,756.5C 432.14,756.831 423.807,756.498 415.5,755.5C 415.291,754.914 414.957,754.414 414.5,754C 350.5,753.333 286.5,753.333 222.5,754C 221.833,754.667 221.167,755.333 220.5,756C 215.167,756.333 209.833,756.667 204.5,757C 204.043,757.414 203.709,757.914 203.5,758.5C 196.991,759.16 190.657,760.327 184.5,762C 181.956,764.093 178.956,765.093 175.5,765C 164.855,769.83 154.189,774.33 143.5,778.5C 143.5,779.5 143.5,780.5 143.5,781.5C 138.66,782.898 133.994,784.898 129.5,787.5C 118.73,794.667 108.564,802.667 99,811.5C 98.8333,810.167 98.6667,808.833 98.5,807.5C 101.31,796.209 103.81,784.876 106,773.5C 106.667,772.833 107.333,772.167 108,771.5C 115.934,743.93 129.268,719.263 148,697.5C 149.438,696.1 150.271,694.433 150.5,692.5C 151.675,692.719 152.675,692.386 153.5,691.5C 156.649,688.693 158.982,685.36 160.5,681.5C 163.5,681.167 165.167,679.5 165.5,676.5C 168.076,675.893 170.409,674.726 172.5,673C 173.748,671.6 174.748,670.1 175.5,668.5C 187.296,660.464 199.296,652.797 211.5,645.5C 216.972,643.808 222.306,641.974 227.5,640C 229.653,637.835 232.319,637.002 235.5,637.5C 235.5,636.5 235.5,635.5 235.5,634.5C 243.045,634.155 250.379,632.822 257.5,630.5C 263.807,629.669 270.141,629.169 276.5,629C 277.167,628.333 277.833,627.667 278.5,627C 312.082,625.505 345.415,626.671 378.5,630.5C 413.616,638.076 444.616,654.076 471.5,678.5 Z M 329.5,803.5 C 331.625,805.479 333.958,807.312 336.5,809C 340.395,811.115 344.395,812.948 348.5,814.5C 349.865,819.77 352.199,824.437 355.5,828.5C 356.5,828.5 357.5,828.5 358.5,828.5C 358.729,830.433 359.562,832.1 361,833.5C 363.167,835 365,836.833 366.5,839C 367.793,839.49 369.127,839.657 370.5,839.5C 370.5,840.5 370.5,841.5 370.5,842.5C 372.359,842.461 373.692,843.294 374.5,845C 379.5,845.667 384.5,845.667 389.5,845C 390.308,843.294 391.641,842.461 393.5,842.5C 394.167,840.5 394.833,838.5 395.5,836.5C 396.5,836.5 397.5,836.5 398.5,836.5C 401.172,828.497 401.005,820.497 398,812.5C 396.303,811.043 394.803,809.377 393.5,807.5C 392.675,806.614 391.675,806.281 390.5,806.5C 390.5,805.5 390.5,804.5 390.5,803.5C 389.5,803.5 388.5,803.5 387.5,803.5C 394.087,801.539 401.087,800.872 408.5,801.5C 408.611,802.117 408.944,802.617 409.5,803C 414.823,803.499 420.156,803.666 425.5,803.5C 425.128,806.022 425.961,808.022 428,809.5C 429.128,814.768 431.295,819.434 434.5,823.5C 435.452,825.045 435.785,826.712 435.5,828.5C 436.5,828.5 437.5,828.5 438.5,828.5C 438.693,831.308 439.36,833.975 440.5,836.5C 441.5,836.5 442.5,836.5 443.5,836.5C 444.006,842.532 444.839,848.532 446,854.5C 449.211,862.22 452.544,869.886 456,877.5C 459.154,881.634 462.654,885.467 466.5,889C 472.5,889.667 478.5,889.667 484.5,889C 485.308,887.294 486.641,886.461 488.5,886.5C 489.132,883.635 490.632,881.302 493,879.5C 493.831,872.808 493.664,866.142 492.5,859.5C 489.356,857.342 488.023,854.342 488.5,850.5C 487.5,850.5 486.5,850.5 485.5,850.5C 482.821,842.062 480.487,833.395 478.5,824.5C 478.833,823.167 479.167,821.833 479.5,820.5C 483.746,824.538 487.413,829.038 490.5,834C 493.102,834.935 495.102,836.602 496.5,839C 497.793,839.49 499.127,839.657 500.5,839.5C 500.5,840.5 500.5,841.5 500.5,842.5C 504.546,845.529 508.88,848.195 513.5,850.5C 513.729,852.433 514.562,854.1 516,855.5C 521.655,860.585 526.488,866.251 530.5,872.5C 531.5,872.5 532.5,872.5 533.5,872.5C 534.167,874.5 534.833,876.5 535.5,878.5C 536.5,878.5 537.5,878.5 538.5,878.5C 540.078,883.277 540.911,888.277 541,893.5C 543.79,898.051 547.29,902.051 551.5,905.5C 559.871,906.255 568.205,907.422 576.5,909C 590.033,918.739 596.367,932.073 595.5,949C 596.076,968.63 589.076,984.797 574.5,997.5C 566.848,1001.41 558.848,1004.07 550.5,1005.5C 549.685,1003.7 548.185,1002.7 546,1002.5C 541.021,1004.43 536.188,1006.43 531.5,1008.5C 529.774,1011.17 527.94,1013.84 526,1016.5C 525.097,1020.24 523.93,1023.91 522.5,1027.5C 517.963,1037.12 513.129,1046.78 508,1056.5C 499.583,1068.04 491.416,1079.71 483.5,1091.5C 478.994,1095.12 474.328,1098.79 469.5,1102.5C 468.614,1103.32 468.281,1104.32 468.5,1105.5C 465.5,1105.83 463.833,1107.5 463.5,1110.5C 462.127,1110.34 460.793,1110.51 459.5,1111C 456.247,1114.63 452.58,1117.8 448.5,1120.5C 442.081,1124.06 435.748,1127.9 429.5,1132C 422.651,1134.27 416.317,1137.27 410.5,1141C 402.434,1142.79 394.434,1144.79 386.5,1147C 385.833,1147.67 385.167,1148.33 384.5,1149C 380.167,1149.33 375.833,1149.67 371.5,1150C 370.692,1150.31 370.025,1150.81 369.5,1151.5C 335.505,1152.67 301.505,1152.83 267.5,1152C 266.833,1151.33 266.167,1150.67 265.5,1150C 260.833,1149.67 256.167,1149.33 251.5,1149C 251.043,1148.59 250.709,1148.09 250.5,1147.5C 242.269,1145.06 233.936,1142.73 225.5,1140.5C 210.851,1134.83 197.184,1126.99 184.5,1117C 183.207,1116.51 181.873,1116.34 180.5,1116.5C 180.719,1115.32 180.386,1114.32 179.5,1113.5C 171.845,1106.68 164.012,1100.02 156,1093.5C 154.562,1092.1 153.729,1090.43 153.5,1088.5C 152.5,1088.5 151.5,1088.5 150.5,1088.5C 146.543,1082.2 142.543,1075.86 138.5,1069.5C 137.5,1069.5 136.5,1069.5 135.5,1069.5C 135.657,1068.13 135.49,1066.79 135,1065.5C 130.688,1060.2 127.021,1054.53 124,1048.5C 123.51,1047.21 123.343,1045.87 123.5,1044.5C 122.5,1044.5 121.5,1044.5 120.5,1044.5C 117.934,1037.32 115.601,1029.99 113.5,1022.5C 112.5,1022.5 111.5,1022.5 110.5,1022.5C 110.576,1018.62 109.91,1014.95 108.5,1011.5C 107.5,1011.5 106.5,1011.5 105.5,1011.5C 105.079,1009.09 103.746,1007.26 101.5,1006C 98.6706,1005.95 96.3373,1004.95 94.5,1003C 91.8333,1002.33 89.1667,1002.33 86.5,1003C 84.8657,1004.31 83.0324,1005.14 81,1005.5C 73.3624,1003.22 65.8624,1000.55 58.5,997.5C 58.5,996.5 58.5,995.5 58.5,994.5C 57.5,994.5 56.5,994.5 55.5,994.5C 55.719,993.325 55.3857,992.325 54.5,991.5C 51.4946,988.661 48.6613,985.661 46,982.5C 44.5617,978.47 43.0617,974.47 41.5,970.5C 40.3338,955.511 40.1672,940.511 41,925.5C 42.8125,922.552 44.6459,919.552 46.5,916.5C 50.8979,911.754 56.2313,908.754 62.5,907.5C 69.4764,906.669 76.4764,906.169 83.5,906C 84.9003,904.562 86.567,903.729 88.5,903.5C 89.1667,901.5 89.8333,899.5 90.5,897.5C 91.5,897.5 92.5,897.5 93.5,897.5C 94.9733,892.661 95.8066,887.661 96,882.5C 98.1644,880.52 99.6644,878.187 100.5,875.5C 101.5,875.5 102.5,875.5 103.5,875.5C 107.672,868.316 113.005,861.983 119.5,856.5C 120.386,855.675 120.719,854.675 120.5,853.5C 121.5,853.5 122.5,853.5 123.5,853.5C 123.679,851.394 124.679,849.728 126.5,848.5C 131.154,847.033 134.154,844.033 135.5,839.5C 137.167,839.5 138.833,839.5 140.5,839.5C 140.5,838.5 140.5,837.5 140.5,836.5C 145.745,834.245 150.745,831.579 155.5,828.5C 155.5,827.5 155.5,826.5 155.5,825.5C 156.873,825.343 158.207,825.51 159.5,826C 158.594,827.699 158.261,829.533 158.5,831.5C 157.5,831.5 156.5,831.5 155.5,831.5C 154.844,835.162 154.177,838.828 153.5,842.5C 154.387,846.15 155.053,849.817 155.5,853.5C 156.5,853.5 157.5,853.5 158.5,853.5C 160.797,860.282 165.63,862.949 173,861.5C 176.167,861.333 179.333,861.167 182.5,861C 184.022,858.695 186.022,857.195 188.5,856.5C 188.5,855.5 188.5,854.5 188.5,853.5C 190.144,853.714 191.644,853.38 193,852.5C 200.464,840.723 207.964,829.057 215.5,817.5C 216.5,817.5 217.5,817.5 218.5,817.5C 218.5,816.5 218.5,815.5 218.5,814.5C 223.959,813.126 228.959,810.793 233.5,807.5C 235.743,806.526 238.076,806.192 240.5,806.5C 240.5,805.5 240.5,804.5 240.5,803.5C 243.059,803.802 245.393,803.468 247.5,802.5C 274.986,800.839 302.319,801.172 329.5,803.5 Z M 160.5,823.5 C 161.675,823.281 162.675,823.614 163.5,824.5C 161.948,825.798 160.948,825.465 160.5,823.5 Z"/></g>
<g><path style="opacity:0.973" fill="#032738" d="M 1004.5,579.5 C 1004.41,580.496 1004.75,581.329 1005.5,582C 1012.49,582.5 1019.49,582.666 1026.5,582.5C 1031.71,583.868 1037.04,584.701 1042.5,585C 1045.37,587.092 1048.71,588.092 1052.5,588C 1053.17,588.667 1053.83,589.333 1054.5,590C 1057.17,590.333 1059.83,590.667 1062.5,591C 1071.41,594.304 1080.08,597.804 1088.5,601.5C 1088.5,602.5 1088.5,603.5 1088.5,604.5C 1090.2,604.34 1091.87,604.506 1093.5,605C 1102.6,610.281 1111.6,615.447 1120.5,620.5C 1120.5,621.5 1120.5,622.5 1120.5,623.5C 1123.37,624.063 1126.04,625.063 1128.5,626.5C 1128.28,627.675 1128.61,628.675 1129.5,629.5C 1134.59,631.921 1138.25,635.587 1140.5,640.5C 1143.14,640.954 1145.47,642.121 1147.5,644C 1166,663.196 1181.84,684.363 1195,707.5C 1195.49,709.134 1195.66,710.801 1195.5,712.5C 1196.5,712.5 1197.5,712.5 1198.5,712.5C 1201.09,719.682 1203.43,727.016 1205.5,734.5C 1206.5,734.5 1207.5,734.5 1208.5,734.5C 1211.24,743.751 1213.74,753.085 1216,762.5C 1216.67,763.167 1217.33,763.833 1218,764.5C 1219.08,771.178 1220.24,777.844 1221.5,784.5C 1222.09,784.709 1222.59,785.043 1223,785.5C 1223.06,790.348 1223.73,795.015 1225,799.5C 1225.5,808.16 1225.67,816.827 1225.5,825.5C 1226.95,831.181 1227.95,836.847 1228.5,842.5C 1228.5,848.833 1228.5,855.167 1228.5,861.5C 1231.52,863.31 1234.86,864.477 1238.5,865C 1243.17,867.665 1247.83,870.331 1252.5,873C 1254.17,874.506 1255.17,876.339 1255.5,878.5C 1258.5,878.833 1260.17,880.5 1260.5,883.5C 1261.5,883.5 1262.5,883.5 1263.5,883.5C 1264.17,885.5 1264.83,887.5 1265.5,889.5C 1266.5,889.5 1267.5,889.5 1268.5,889.5C 1271.67,896.177 1274.83,902.844 1278,909.5C 1278.19,912.036 1278.69,914.369 1279.5,916.5C 1279.5,938.5 1279.5,960.5 1279.5,982.5C 1278.68,984.969 1278.18,987.635 1278,990.5C 1273.1,1000.02 1268.27,1009.69 1263.5,1019.5C 1262.5,1019.5 1261.5,1019.5 1260.5,1019.5C 1258.42,1023.36 1256.09,1027.02 1253.5,1030.5C 1252.5,1030.5 1251.5,1030.5 1250.5,1030.5C 1250.44,1032.59 1249.44,1034.09 1247.5,1035C 1240.94,1039.38 1234.28,1043.38 1227.5,1047C 1219.71,1049.52 1211.71,1051.35 1203.5,1052.5C 1203.66,1053.87 1203.49,1055.21 1203,1056.5C 1193.07,1076.52 1181.57,1095.52 1168.5,1113.5C 1167.5,1113.5 1166.5,1113.5 1165.5,1113.5C 1164.64,1116.89 1162.97,1119.89 1160.5,1122.5C 1156.5,1126.5 1152.5,1130.5 1148.5,1134.5C 1147.68,1135.39 1146.68,1135.72 1145.5,1135.5C 1145.17,1137.66 1144.17,1139.49 1142.5,1141C 1139.83,1143.53 1136.83,1145.36 1133.5,1146.5C 1133.5,1147.5 1133.5,1148.5 1133.5,1149.5C 1131.27,1150.7 1128.93,1151.87 1126.5,1153C 1122.5,1156.33 1118.5,1159.67 1114.5,1163C 1113.21,1163.49 1111.87,1163.66 1110.5,1163.5C 1110.5,1164.5 1110.5,1165.5 1110.5,1166.5C 1101.48,1170.37 1092.81,1174.87 1084.5,1180C 1081.02,1181.69 1077.35,1182.52 1073.5,1182.5C 1073.5,1183.5 1073.5,1184.5 1073.5,1185.5C 1071.14,1185.34 1068.81,1185.5 1066.5,1186C 1063.5,1187.67 1060.5,1189.33 1057.5,1191C 1050.38,1192.41 1043.38,1194.07 1036.5,1196C 1031.5,1196.33 1026.5,1196.67 1021.5,1197C 1020.83,1197.67 1020.17,1198.33 1019.5,1199C 981.5,1199.67 943.5,1199.67 905.5,1199C 904.692,1198.69 904.025,1198.19 903.5,1197.5C 891.656,1196.12 879.99,1193.95 868.5,1191C 855.277,1185.32 841.944,1179.82 828.5,1174.5C 828.5,1173.5 828.5,1172.5 828.5,1171.5C 825.243,1171.33 822.243,1170.33 819.5,1168.5C 811.568,1162.88 803.568,1157.55 795.5,1152.5C 795.5,1151.5 795.5,1150.5 795.5,1149.5C 794.022,1149.76 792.689,1149.43 791.5,1148.5C 784.762,1142.05 777.928,1135.72 771,1129.5C 769.562,1128.1 768.729,1126.43 768.5,1124.5C 767.5,1124.5 766.5,1124.5 765.5,1124.5C 761.937,1119.42 758.103,1114.42 754,1109.5C 753.51,1108.21 753.343,1106.87 753.5,1105.5C 752.5,1105.5 751.5,1105.5 750.5,1105.5C 746.098,1097.57 741.265,1089.91 736,1082.5C 734.39,1080.06 733.556,1077.39 733.5,1074.5C 732.5,1074.5 731.5,1074.5 730.5,1074.5C 728.043,1068.24 725.543,1061.9 723,1055.5C 722.167,1054.67 721.333,1053.83 720.5,1053C 712.346,1051.36 704.346,1049.36 696.5,1047C 689.698,1043.38 683.031,1039.38 676.5,1035C 674.561,1034.09 673.561,1032.59 673.5,1030.5C 672.5,1030.5 671.5,1030.5 670.5,1030.5C 667.909,1027.02 665.576,1023.36 663.5,1019.5C 662.5,1019.5 661.5,1019.5 660.5,1019.5C 657.43,1013.8 654.264,1008.14 651,1002.5C 649.101,999.124 648.268,995.457 648.5,991.5C 647.5,991.5 646.5,991.5 645.5,991.5C 644.266,983.972 643.266,976.306 642.5,968.5C 641.808,967.975 641.308,967.308 641,966.5C 640.333,953.167 640.333,939.833 641,926.5C 641.915,925.672 642.581,924.672 643,923.5C 643.459,917.078 644.459,910.744 646,904.5C 649.069,898.472 652.235,892.472 655.5,886.5C 656.5,886.5 657.5,886.5 658.5,886.5C 659.002,882.126 661.336,879.459 665.5,878.5C 665.5,877.5 665.5,876.5 665.5,875.5C 666.5,875.5 667.5,875.5 668.5,875.5C 668.281,874.325 668.614,873.325 669.5,872.5C 675.107,868.565 681.107,865.731 687.5,864C 690.699,861.723 694.365,860.89 698.5,861.5C 697.927,838.66 698.76,815.993 701,793.5C 701.414,793.043 701.914,792.709 702.5,792.5C 703.328,788.204 703.828,783.871 704,779.5C 707.006,770.832 709.339,761.832 711,752.5C 711.414,752.043 711.914,751.709 712.5,751.5C 719.542,729.409 729.209,708.409 741.5,688.5C 747.369,679.4 753.703,670.733 760.5,662.5C 761.5,662.5 762.5,662.5 763.5,662.5C 764.167,660.5 764.833,658.5 765.5,656.5C 766.5,656.5 767.5,656.5 768.5,656.5C 768.833,653.5 770.5,651.833 773.5,651.5C 775.018,647.64 777.351,644.307 780.5,641.5C 788.555,634.44 796.888,627.774 805.5,621.5C 806.265,621.923 807.098,622.257 808,622.5C 814.797,620.269 820.131,616.269 824,610.5C 825.113,611.711 826.28,611.711 827.5,610.5C 829.469,608.941 831.302,607.274 833,605.5C 836.686,606.245 840.019,605.245 843,602.5C 843.333,602.833 843.667,603.167 844,603.5C 846.564,601.273 849.397,599.439 852.5,598C 853.252,597.329 853.586,596.496 853.5,595.5C 859.036,593.377 864.703,591.544 870.5,590C 871.167,589.333 871.833,588.667 872.5,588C 881.102,585.739 889.769,583.739 898.5,582C 933.792,579.774 969.125,578.94 1004.5,579.5 Z M 1051.5,637.5 C 1053.05,637.821 1053.71,638.821 1053.5,640.5C 1055.2,640.34 1056.87,640.506 1058.5,641C 1062.02,642.924 1065.68,644.591 1069.5,646C 1076.15,649.73 1082.82,653.564 1089.5,657.5C 1091.38,658.803 1093.04,660.303 1094.5,662C 1095.79,662.49 1097.13,662.657 1098.5,662.5C 1098.5,663.5 1098.5,664.5 1098.5,665.5C 1100.82,666.477 1103.15,667.477 1105.5,668.5C 1105.82,670.048 1106.82,670.715 1108.5,670.5C 1110.41,674.413 1113.41,677.413 1117.5,679.5C 1119.32,680.728 1120.32,682.394 1120.5,684.5C 1121.5,684.5 1122.5,684.5 1123.5,684.5C 1125.58,688.358 1127.91,692.025 1130.5,695.5C 1131.5,695.5 1132.5,695.5 1133.5,695.5C 1134.17,697.5 1134.83,699.5 1135.5,701.5C 1136.5,701.5 1137.5,701.5 1138.5,701.5C 1139.96,707.092 1142.96,711.759 1147.5,715.5C 1150.94,721.17 1154.44,726.837 1158,732.5C 1161.12,739.564 1164.29,746.564 1167.5,753.5C 1169.48,761.134 1171.98,768.467 1175,775.5C 1174.91,778.956 1175.91,781.956 1178,784.5C 1179.22,791.803 1180.22,799.136 1181,806.5C 1184.31,812.342 1185.81,818.676 1185.5,825.5C 1184.83,832.848 1184.16,840.181 1183.5,847.5C 1177.5,847.5 1171.5,847.5 1165.5,847.5C 1165.5,846.5 1165.5,845.5 1165.5,844.5C 1162.31,845.771 1158.98,846.771 1155.5,847.5C 1155.5,846.5 1155.5,845.5 1155.5,844.5C 1145.47,844.144 1135.47,843.477 1125.5,842.5C 1125.5,841.5 1125.5,840.5 1125.5,839.5C 1122.17,839.5 1118.83,839.5 1115.5,839.5C 1115.5,838.5 1115.5,837.5 1115.5,836.5C 1112.17,836.5 1108.83,836.5 1105.5,836.5C 1105.5,835.5 1105.5,834.5 1105.5,833.5C 1100.53,832.674 1095.53,832.007 1090.5,831.5C 1090.5,830.5 1090.5,829.5 1090.5,828.5C 1088.83,828.5 1087.17,828.5 1085.5,828.5C 1085.5,827.5 1085.5,826.5 1085.5,825.5C 1083.83,825.5 1082.17,825.5 1080.5,825.5C 1080.5,824.5 1080.5,823.5 1080.5,822.5C 1075.78,820.393 1070.78,818.727 1065.5,817.5C 1065.5,816.5 1065.5,815.5 1065.5,814.5C 1063.83,814.5 1062.17,814.5 1060.5,814.5C 1059.08,809.608 1055.75,806.942 1050.5,806.5C 1049.83,804.5 1049.17,802.5 1048.5,800.5C 1046.83,800.5 1045.17,800.5 1043.5,800.5C 1044.17,796.5 1042.5,794.833 1038.5,795.5C 1038.5,794.5 1038.5,793.5 1038.5,792.5C 1036.83,792.5 1035.17,792.5 1033.5,792.5C 1033.5,791.5 1033.5,790.5 1033.5,789.5C 1032.5,789.5 1031.5,789.5 1030.5,789.5C 1028.42,785.642 1026.09,781.975 1023.5,778.5C 1022.5,778.5 1021.5,778.5 1020.5,778.5C 1019.11,773.464 1015.77,770.797 1010.5,770.5C 1009.83,768.5 1009.17,766.5 1008.5,764.5C 1007.5,764.5 1006.5,764.5 1005.5,764.5C 1005.17,761.5 1003.5,759.833 1000.5,759.5C 1000.44,756.336 999.776,753.336 998.5,750.5C 995.833,748.833 993.167,747.167 990.5,745.5C 989.833,743.5 989.167,741.5 988.5,739.5C 987.5,739.5 986.5,739.5 985.5,739.5C 985.167,736.5 983.5,734.833 980.5,734.5C 979.833,732.5 979.167,730.5 978.5,728.5C 977.5,728.5 976.5,728.5 975.5,728.5C 974.82,724.678 972.487,723.011 968.5,723.5C 968.5,722.5 968.5,721.5 968.5,720.5C 964.167,720.5 959.833,720.5 955.5,720.5C 955.5,721.5 955.5,722.5 955.5,723.5C 952.368,723.784 949.368,724.617 946.5,726C 944.826,727.506 943.826,729.339 943.5,731.5C 942.5,731.5 941.5,731.5 940.5,731.5C 939.647,734.363 937.98,736.696 935.5,738.5C 933.955,739.452 932.288,739.785 930.5,739.5C 929.833,741.5 929.167,743.5 928.5,745.5C 925.833,747.167 923.167,748.833 920.5,750.5C 920.5,751.5 920.5,752.5 920.5,753.5C 918.833,753.5 917.167,753.5 915.5,753.5C 914.833,755.5 914.167,757.5 913.5,759.5C 910.5,759.833 908.833,761.5 908.5,764.5C 907.5,764.5 906.5,764.5 905.5,764.5C 904.833,766.5 904.167,768.5 903.5,770.5C 898.227,770.797 894.893,773.464 893.5,778.5C 891.833,778.5 890.167,778.5 888.5,778.5C 888.5,779.5 888.5,780.5 888.5,781.5C 883.251,781.942 879.918,784.608 878.5,789.5C 876.833,789.5 875.167,789.5 873.5,789.5C 873.5,790.5 873.5,791.5 873.5,792.5C 871.833,792.5 870.167,792.5 868.5,792.5C 868.5,793.5 868.5,794.5 868.5,795.5C 865.5,795.833 863.833,797.5 863.5,800.5C 861.833,800.5 860.167,800.5 858.5,800.5C 858.5,801.5 858.5,802.5 858.5,803.5C 856.833,803.5 855.167,803.5 853.5,803.5C 853.5,804.5 853.5,805.5 853.5,806.5C 850.833,806.5 848.167,806.5 845.5,806.5C 844.164,802.621 842.498,802.621 840.5,806.5C 841.127,807.417 841.461,808.417 841.5,809.5C 839.2,811.202 836.533,811.868 833.5,811.5C 833.5,812.5 833.5,813.5 833.5,814.5C 830.167,814.5 826.833,814.5 823.5,814.5C 823.5,815.5 823.5,816.5 823.5,817.5C 817.823,818.149 812.157,818.982 806.5,820C 806.043,820.414 805.709,820.914 805.5,821.5C 798.866,822.497 792.2,822.83 785.5,822.5C 785.5,823.5 785.5,824.5 785.5,825.5C 781.5,825.5 777.5,825.5 773.5,825.5C 773.5,826.5 773.5,827.5 773.5,828.5C 770.833,828.5 768.167,828.5 765.5,828.5C 765.5,829.5 765.5,830.5 765.5,831.5C 757.055,831.179 748.721,831.845 740.5,833.5C 740.5,827.167 740.5,820.833 740.5,814.5C 741.5,814.5 742.5,814.5 743.5,814.5C 743.562,806.064 744.562,797.731 746.5,789.5C 748.37,783.678 749.87,777.678 751,771.5C 752.818,769.084 754.152,766.418 755,763.5C 755.497,761.19 755.663,758.857 755.5,756.5C 756.5,756.5 757.5,756.5 758.5,756.5C 758.34,754.801 758.506,753.134 759,751.5C 762.462,746.452 764.629,740.785 765.5,734.5C 766.5,734.5 767.5,734.5 768.5,734.5C 771.138,728.992 773.471,723.325 775.5,717.5C 776.5,717.5 777.5,717.5 778.5,717.5C 779.744,713.447 781.744,709.78 784.5,706.5C 791.77,698.227 798.77,689.893 805.5,681.5C 806.675,681.719 807.675,681.386 808.5,680.5C 813.896,674.434 819.896,669.101 826.5,664.5C 828.893,663.647 830.226,661.981 830.5,659.5C 832.288,659.785 833.955,659.452 835.5,658.5C 840.122,655.708 844.455,652.708 848.5,649.5C 859.563,644.882 870.23,640.215 880.5,635.5C 886.703,634.216 893.036,633.05 899.5,632C 900.672,631.581 901.672,630.915 902.5,630C 913.755,629.937 924.755,628.771 935.5,626.5C 935.5,625.5 935.5,624.5 935.5,623.5C 946.5,623.5 957.5,623.5 968.5,623.5C 968.5,624.5 968.5,625.5 968.5,626.5C 979.505,626.333 990.505,626.5 1001.5,627C 1002.33,627.915 1003.33,628.581 1004.5,629C 1010.86,629.169 1017.19,629.669 1023.5,630.5C 1032.88,632.996 1042.21,635.329 1051.5,637.5 Z M 1188.5,897.5 C 1189.2,899.716 1190.54,901.549 1192.5,903C 1195.06,905.281 1198.06,906.448 1201.5,906.5C 1208.07,906.17 1214.4,907.003 1220.5,909C 1228.07,914.01 1233.91,920.51 1238,928.5C 1238.67,942.833 1238.67,957.167 1238,971.5C 1236.13,973.505 1234.8,975.839 1234,978.5C 1233.51,980.134 1233.34,981.801 1233.5,983.5C 1232.5,983.5 1231.5,983.5 1230.5,983.5C 1230.03,985.711 1229.03,987.711 1227.5,989.5C 1224.94,991.64 1222.61,993.973 1220.5,996.5C 1217.1,998.268 1213.77,1000.1 1210.5,1002C 1205.96,1002.07 1201.8,1003.24 1198,1005.5C 1195.59,1004.38 1193.09,1003.38 1190.5,1002.5C 1185.35,1004.49 1180.35,1006.49 1175.5,1008.5C 1174.99,1011.02 1173.66,1013.02 1171.5,1014.5C 1167.81,1025.92 1163.14,1036.92 1157.5,1047.5C 1153.89,1053.28 1150.06,1058.95 1146,1064.5C 1144.88,1066.77 1144.05,1069.1 1143.5,1071.5C 1142.5,1071.41 1141.67,1071.75 1141,1072.5C 1135.91,1078.72 1131.08,1085.05 1126.5,1091.5C 1121.08,1095.25 1116.75,1099.91 1113.5,1105.5C 1108.26,1107.75 1103.93,1111.08 1100.5,1115.5C 1092.75,1120.14 1085.08,1124.98 1077.5,1130C 1072.67,1131.85 1068,1133.69 1063.5,1135.5C 1063.5,1136.5 1063.5,1137.5 1063.5,1138.5C 1061.14,1138.34 1058.81,1138.5 1056.5,1139C 1056.04,1139.41 1055.71,1139.91 1055.5,1140.5C 1049.93,1141.85 1044.6,1143.69 1039.5,1146C 1036.83,1146.33 1034.17,1146.67 1031.5,1147C 1030.33,1147.42 1029.33,1148.09 1028.5,1149C 1024.17,1149.33 1019.83,1149.67 1015.5,1150C 1014.69,1150.31 1014.03,1150.81 1013.5,1151.5C 979.167,1152.83 944.833,1152.83 910.5,1151.5C 910.291,1150.91 909.957,1150.41 909.5,1150C 904.845,1149.5 900.179,1149.33 895.5,1149.5C 895.586,1148.5 895.252,1147.67 894.5,1147C 888.338,1146.13 882.338,1144.79 876.5,1143C 871.595,1141.08 866.929,1138.75 862.5,1136C 861.207,1135.51 859.873,1135.34 858.5,1135.5C 858.167,1135.5 857.833,1135.5 857.5,1135.5C 857.047,1134.54 856.381,1133.71 855.5,1133C 846.836,1130.1 839.17,1125.6 832.5,1119.5C 830.206,1118.29 827.873,1117.29 825.5,1116.5C 825.5,1115.5 825.5,1114.5 825.5,1113.5C 824.448,1113.65 823.448,1113.48 822.5,1113C 819.064,1109.44 815.397,1106.11 811.5,1103C 810.552,1102.52 809.552,1102.35 808.5,1102.5C 808.5,1101.5 808.5,1100.5 808.5,1099.5C 807.5,1099.5 806.5,1099.5 805.5,1099.5C 805.167,1096.5 803.5,1094.83 800.5,1094.5C 800.737,1093.21 800.404,1092.21 799.5,1091.5C 792.643,1085.3 787.31,1077.97 783.5,1069.5C 782.5,1069.5 781.5,1069.5 780.5,1069.5C 773.899,1057.51 767.399,1045.51 761,1033.5C 760,1030.17 759,1026.83 758,1023.5C 755.476,1018.45 752.976,1013.45 750.5,1008.5C 746.55,1006.73 742.55,1004.89 738.5,1003C 733.986,1002.07 729.819,1002.91 726,1005.5C 724.029,1005.53 722.529,1004.7 721.5,1003C 708.43,1001.65 699.097,995.149 693.5,983.5C 692.5,983.5 691.5,983.5 690.5,983.5C 687.171,975.914 685.004,967.914 684,959.5C 683.833,955.167 683.667,950.833 683.5,946.5C 684.066,938.477 684.732,930.477 685.5,922.5C 686.5,922.5 687.5,922.5 688.5,922.5C 689.753,916.915 693.087,913.248 698.5,911.5C 698.5,910.5 698.5,909.5 698.5,908.5C 708.325,906.957 718.325,906.123 728.5,906C 732.15,904.172 734.484,901.339 735.5,897.5C 736.5,897.5 737.5,897.5 738.5,897.5C 738.453,887.901 741.786,879.901 748.5,873.5C 765.808,871.934 783.141,870.934 800.5,870.5C 800.5,869.5 800.5,868.5 800.5,867.5C 804.833,867.5 809.167,867.5 813.5,867.5C 813.5,866.5 813.5,865.5 813.5,864.5C 817.5,864.5 821.5,864.5 825.5,864.5C 825.5,863.5 825.5,862.5 825.5,861.5C 832.241,861.437 838.908,860.77 845.5,859.5C 845.5,858.5 845.5,857.5 845.5,856.5C 848.167,856.5 850.833,856.5 853.5,856.5C 853.5,855.5 853.5,854.5 853.5,853.5C 855.833,853.5 858.167,853.5 860.5,853.5C 860.5,852.5 860.5,851.5 860.5,850.5C 863.833,849.833 867.167,849.167 870.5,848.5C 870.5,847.5 870.5,846.5 870.5,845.5C 872.167,845.5 873.833,845.5 875.5,845.5C 875.5,844.5 875.5,843.5 875.5,842.5C 877.167,842.5 878.833,842.5 880.5,842.5C 880.5,841.5 880.5,840.5 880.5,839.5C 884.755,837.536 889.088,835.869 893.5,834.5C 893.5,833.5 893.5,832.5 893.5,831.5C 895.167,831.5 896.833,831.5 898.5,831.5C 899.167,829.5 899.833,827.5 900.5,825.5C 905.007,824.072 909.34,822.405 913.5,820.5C 914.167,818.5 914.833,816.5 915.5,814.5C 918.5,814.167 920.167,812.5 920.5,809.5C 922.167,809.5 923.833,809.5 925.5,809.5C 925.5,808.5 925.5,807.5 925.5,806.5C 926.5,806.5 927.5,806.5 928.5,806.5C 928.48,804.857 929.147,803.524 930.5,802.5C 933.457,801.493 936.124,800.159 938.5,798.5C 939.167,796.5 939.833,794.5 940.5,792.5C 941.5,792.5 942.5,792.5 943.5,792.5C 943.833,789.5 945.5,787.833 948.5,787.5C 949.167,785.5 949.833,783.5 950.5,781.5C 951.5,781.5 952.5,781.5 953.5,781.5C 954.694,778.295 956.694,775.629 959.5,773.5C 960.93,775.386 962.597,777.053 964.5,778.5C 965.386,779.325 965.719,780.325 965.5,781.5C 966.5,781.5 967.5,781.5 968.5,781.5C 970.576,785.358 972.909,789.025 975.5,792.5C 976.5,792.5 977.5,792.5 978.5,792.5C 979.167,794.5 979.833,796.5 980.5,798.5C 983.167,800.167 985.833,801.833 988.5,803.5C 989.167,805.5 989.833,807.5 990.5,809.5C 991.5,809.5 992.5,809.5 993.5,809.5C 993.833,812.5 995.5,814.167 998.5,814.5C 999.167,816.5 999.833,818.5 1000.5,820.5C 1001.5,820.5 1002.5,820.5 1003.5,820.5C 1003.83,823.5 1005.5,825.167 1008.5,825.5C 1009.17,827.5 1009.83,829.5 1010.5,831.5C 1012.17,831.5 1013.83,831.5 1015.5,831.5C 1015.5,832.5 1015.5,833.5 1015.5,834.5C 1017.97,834.736 1019.64,836.069 1020.5,838.5C 1022.05,839.452 1023.71,839.785 1025.5,839.5C 1025.5,840.5 1025.5,841.5 1025.5,842.5C 1026.5,842.5 1027.5,842.5 1028.5,842.5C 1028.83,844.661 1029.83,846.494 1031.5,848C 1034.37,849.383 1037.37,850.216 1040.5,850.5C 1040.5,851.5 1040.5,852.5 1040.5,853.5C 1041.5,853.5 1042.5,853.5 1043.5,853.5C 1043.5,854.5 1043.5,855.5 1043.5,856.5C 1045.17,856.5 1046.83,856.5 1048.5,856.5C 1048.5,857.5 1048.5,858.5 1048.5,859.5C 1052.49,859.011 1054.82,860.678 1055.5,864.5C 1057.17,864.5 1058.83,864.5 1060.5,864.5C 1060.5,865.5 1060.5,866.5 1060.5,867.5C 1063.17,867.5 1065.83,867.5 1068.5,867.5C 1068.5,868.5 1068.5,869.5 1068.5,870.5C 1072.43,871.525 1076.43,872.192 1080.5,872.5C 1080.5,873.5 1080.5,874.5 1080.5,875.5C 1082.17,875.5 1083.83,875.5 1085.5,875.5C 1085.5,876.5 1085.5,877.5 1085.5,878.5C 1088.17,878.5 1090.83,878.5 1093.5,878.5C 1093.5,879.5 1093.5,880.5 1093.5,881.5C 1096.83,881.5 1100.17,881.5 1103.5,881.5C 1103.5,882.5 1103.5,883.5 1103.5,884.5C 1111.82,885.268 1120.16,885.934 1128.5,886.5C 1128.5,887.5 1128.5,888.5 1128.5,889.5C 1133.5,889.5 1138.5,889.5 1143.5,889.5C 1143.5,890.5 1143.5,891.5 1143.5,892.5C 1148.5,892.5 1153.5,892.5 1158.5,892.5C 1158.5,893.5 1158.5,894.5 1158.5,895.5C 1168.57,895.325 1178.57,895.992 1188.5,897.5 Z"/></g>
<g><path style="opacity:0.082" fill="#060b1c" d="M 1004.5,579.5 C 1011.88,580.912 1019.21,581.912 1026.5,582.5C 1019.49,582.666 1012.49,582.5 1005.5,582C 1004.75,581.329 1004.41,580.496 1004.5,579.5 Z"/></g>
<g><path style="opacity:0.047" fill="#012929" d="M 608.5,615.5 C 629.169,615.333 649.836,615.5 670.5,616C 650.329,616.168 630.329,616.668 610.5,617.5C 609.167,617.5 608.5,616.833 608.5,615.5 Z"/></g>
<g><path style="opacity:0.314" fill="#041e2c" d="M 853.5,595.5 C 853.586,596.496 853.252,597.329 852.5,598C 849.397,599.439 846.564,601.273 844,603.5C 843.667,603.167 843.333,602.833 843,602.5C 840.019,605.245 836.686,606.245 833,605.5C 831.302,607.274 829.469,608.941 827.5,610.5C 826.28,611.711 825.113,611.711 824,610.5C 820.131,616.269 814.797,620.269 808,622.5C 807.098,622.257 806.265,621.923 805.5,621.5C 820.518,610.664 836.518,601.997 853.5,595.5 Z"/></g>
<g><path style="opacity:0.259" fill="#041c2b" d="M 880.5,635.5 C 870.23,640.215 859.563,644.882 848.5,649.5C 844.455,652.708 840.122,655.708 835.5,658.5C 833.955,659.452 832.288,659.785 830.5,659.5C 830.226,661.981 828.893,663.647 826.5,664.5C 826.403,660.358 828.403,658.024 832.5,657.5C 831.524,655.877 832.024,654.543 834,653.5C 837.738,654.695 840.571,653.529 842.5,650C 845.621,648.392 848.954,647.559 852.5,647.5C 852.281,646.325 852.614,645.325 853.5,644.5C 856.823,641.661 860.49,639.494 864.5,638C 865.126,637.25 865.626,636.416 866,635.5C 870.971,636.227 875.804,636.227 880.5,635.5 Z"/></g>
<g><path style="opacity:0.443" fill="#051e2b" d="M 1051.5,637.5 C 1052.85,636.203 1054.18,636.37 1055.5,638C 1055.17,638.333 1054.83,638.667 1054.5,639C 1057.43,639.218 1060.26,639.718 1063,640.5C 1063.33,640.167 1063.67,639.833 1064,639.5C 1065.17,641.167 1066.33,642.833 1067.5,644.5C 1067.91,643.738 1068.08,642.738 1068,641.5C 1069.85,643.781 1071.52,643.781 1073,641.5C 1075.08,643.993 1076.91,646.659 1078.5,649.5C 1082.54,650.607 1086.04,652.607 1089,655.5C 1089.67,654.833 1090.33,654.167 1091,653.5C 1093.11,655.333 1095.61,656.499 1098.5,657C 1095.83,657.667 1095.83,658.333 1098.5,659C 1098.17,659.333 1097.83,659.667 1097.5,660C 1099.36,660.684 1101.03,661.684 1102.5,663C 1102.17,663.333 1101.83,663.667 1101.5,664C 1104.07,664.432 1105.41,665.932 1105.5,668.5C 1103.15,667.477 1100.82,666.477 1098.5,665.5C 1098.5,664.5 1098.5,663.5 1098.5,662.5C 1097.13,662.657 1095.79,662.49 1094.5,662C 1093.04,660.303 1091.38,658.803 1089.5,657.5C 1082.82,653.564 1076.15,649.73 1069.5,646C 1065.68,644.591 1062.02,642.924 1058.5,641C 1056.87,640.506 1055.2,640.34 1053.5,640.5C 1053.71,638.821 1053.05,637.821 1051.5,637.5 Z"/></g>
<g><path style="opacity:0.453" fill="#061c29" d="M 211.5,645.5 C 199.296,652.797 187.296,660.464 175.5,668.5C 176.044,666.42 176.878,664.42 178,662.5C 179.494,663.747 180.994,663.747 182.5,662.5C 182.291,661.914 181.957,661.414 181.5,661C 183.167,659.167 184.833,657.333 186.5,655.5C 187.167,656.5 187.833,657.5 188.5,658.5C 189.506,658.062 189.506,657.396 188.5,656.5C 190.5,655.833 192.5,655.167 194.5,654.5C 193.5,652.167 194.167,651.5 196.5,652.5C 198.173,650.914 200.173,650.247 202.5,650.5C 202.608,648.217 203.441,646.217 205,644.5C 206.822,644.968 208.989,645.301 211.5,645.5 Z"/></g>
<g><path style="opacity:0.98" fill="#032839" d="M 308.5,656.5 C 318.5,656.5 328.5,656.5 338.5,656.5C 338.5,657.5 338.5,658.5 338.5,659.5C 345.167,659.5 351.833,659.5 358.5,659.5C 358.5,660.5 358.5,661.5 358.5,662.5C 361.898,662.18 365.232,662.513 368.5,663.5C 372.754,664.507 376.754,665.84 380.5,667.5C 380.5,668.5 380.5,669.5 380.5,670.5C 381.5,670.5 382.5,670.5 383.5,670.5C 384.167,672.5 384.833,674.5 385.5,676.5C 386.5,676.5 387.5,676.5 388.5,676.5C 388.5,692.167 388.5,707.833 388.5,723.5C 387.5,723.5 386.5,723.5 385.5,723.5C 384.107,728.536 380.773,731.203 375.5,731.5C 375.5,732.5 375.5,733.5 375.5,734.5C 373.833,734.5 372.167,734.5 370.5,734.5C 370.5,735.5 370.5,736.5 370.5,737.5C 367.167,737.5 363.833,737.5 360.5,737.5C 360.5,738.5 360.5,739.5 360.5,740.5C 348.821,740.834 337.154,741.501 325.5,742.5C 314.161,741.719 302.828,740.885 291.5,740C 288.301,737.723 284.635,736.89 280.5,737.5C 280.5,736.5 280.5,735.5 280.5,734.5C 278.167,734.5 275.833,734.5 273.5,734.5C 273.5,733.5 273.5,732.5 273.5,731.5C 268.227,731.203 264.893,728.536 263.5,723.5C 262.5,723.5 261.5,723.5 260.5,723.5C 260.5,707.833 260.5,692.167 260.5,676.5C 261.5,676.5 262.5,676.5 263.5,676.5C 264.167,674.5 264.833,672.5 265.5,670.5C 266.5,670.5 267.5,670.5 268.5,670.5C 268.5,669.5 268.5,668.5 268.5,667.5C 272.125,666.94 275.459,665.606 278.5,663.5C 281.768,662.513 285.102,662.18 288.5,662.5C 288.5,661.5 288.5,660.5 288.5,659.5C 295.167,659.5 301.833,659.5 308.5,659.5C 308.5,658.5 308.5,657.5 308.5,656.5 Z"/></g>
<g><path style="opacity:0.454" fill="#051e2c" d="M 509.5,726.5 C 504.957,719.102 500.124,711.768 495,704.5C 490.742,699.112 486.075,694.112 481,689.5C 479.562,688.1 478.729,686.433 478.5,684.5C 477.5,684.5 476.5,684.5 475.5,684.5C 474.963,681.964 473.63,679.964 471.5,678.5C 475.547,676.531 477.547,677.864 477.5,682.5C 479.46,683.138 481.293,683.138 483,682.5C 484.207,684.44 484.374,686.273 483.5,688C 484.551,689.385 485.884,690.385 487.5,691C 487.043,691.414 486.709,691.914 486.5,692.5C 488.167,693.167 489.833,693.833 491.5,694.5C 491.857,697.228 493.024,699.895 495,702.5C 497.724,704.81 500.224,707.31 502.5,710C 501.663,711.011 501.33,712.178 501.5,713.5C 502.5,713.5 503.5,713.5 504.5,713.5C 504.5,714.5 504.5,715.5 504.5,716.5C 505.873,716.343 507.207,716.51 508.5,717C 508.043,717.414 507.709,717.914 507.5,718.5C 510.954,720.799 511.621,723.466 509.5,726.5 Z"/></g>
<g><path style="opacity:0.004" fill="#000101" d="M 329.5,803.5 C 302.319,801.172 274.986,800.839 247.5,802.5C 274.48,800.509 301.813,799.842 329.5,800.5C 329.5,801.5 329.5,802.5 329.5,803.5 Z"/></g>
<g><path style="opacity:0.005" fill="#000000" d="M 408.5,801.5 C 401.087,800.872 394.087,801.539 387.5,803.5C 386.373,802.878 385.373,802.045 384.5,801C 392.677,800.177 400.677,800.344 408.5,801.5 Z"/></g>
<g><path style="opacity:0.011" fill="#000209" d="M 845.5,806.5 C 844.789,808.201 843.455,809.201 841.5,809.5C 841.461,808.417 841.127,807.417 840.5,806.5C 842.498,802.621 844.164,802.621 845.5,806.5 Z"/></g>
<g><path style="opacity:0.01" fill="#000000" d="M 1225.5,825.5 C 1226.79,826.058 1227.62,827.058 1228,828.5C 1228.5,833.155 1228.67,837.821 1228.5,842.5C 1227.95,836.847 1226.95,831.181 1225.5,825.5 Z"/></g>
<g><path style="opacity:0.004" fill="#000000" d="M 1144.5,838.5 C 1146.34,838.639 1146.67,839.306 1145.5,840.5C 1144.7,840.043 1144.37,839.376 1144.5,838.5 Z"/></g>
<g><path style="opacity:0.949" fill="#032839" d="M 993.5,861.5 C 996.833,861.5 1000.17,861.5 1003.5,861.5C 1003.5,862.5 1003.5,863.5 1003.5,864.5C 1005.17,864.5 1006.83,864.5 1008.5,864.5C 1008.5,865.5 1008.5,866.5 1008.5,867.5C 1012.49,867.011 1014.82,868.678 1015.5,872.5C 1016.5,872.5 1017.5,872.5 1018.5,872.5C 1018.5,890.167 1018.5,907.833 1018.5,925.5C 1017.5,925.5 1016.5,925.5 1015.5,925.5C 1013.69,931.292 1009.69,933.959 1003.5,933.5C 1003.5,934.5 1003.5,935.5 1003.5,936.5C 1000.17,936.5 996.833,936.5 993.5,936.5C 993.5,935.5 993.5,934.5 993.5,933.5C 990.167,932.833 986.833,932.167 983.5,931.5C 983.5,930.5 983.5,929.5 983.5,928.5C 982.5,928.5 981.5,928.5 980.5,928.5C 979.244,918.787 978.578,908.954 978.5,899C 978.578,889.046 979.244,879.213 980.5,869.5C 983.5,869.167 985.167,867.5 985.5,864.5C 988.167,864.5 990.833,864.5 993.5,864.5C 993.5,863.5 993.5,862.5 993.5,861.5 Z"/></g>
<g><path style="opacity:0.959" fill="#032839" d="M 350.5,864.5 C 353.833,864.5 357.167,864.5 360.5,864.5C 360.5,865.5 360.5,866.5 360.5,867.5C 363.833,868.167 367.167,868.833 370.5,869.5C 370.5,870.5 370.5,871.5 370.5,872.5C 371.5,872.5 372.5,872.5 373.5,872.5C 375.752,891.049 376.085,909.716 374.5,928.5C 373.07,930.386 371.403,932.053 369.5,933.5C 368.614,934.325 368.281,935.325 368.5,936.5C 365.833,936.5 363.167,936.5 360.5,936.5C 360.5,937.5 360.5,938.5 360.5,939.5C 357.167,939.5 353.833,939.5 350.5,939.5C 350.5,938.5 350.5,937.5 350.5,936.5C 348.833,936.5 347.167,936.5 345.5,936.5C 345.5,935.5 345.5,934.5 345.5,933.5C 341.513,933.989 339.18,932.322 338.5,928.5C 337.5,928.5 336.5,928.5 335.5,928.5C 335.5,910.833 335.5,893.167 335.5,875.5C 336.5,875.5 337.5,875.5 338.5,875.5C 339.167,873.5 339.833,871.5 340.5,869.5C 343.658,868.124 346.991,867.458 350.5,867.5C 350.5,866.5 350.5,865.5 350.5,864.5 Z"/></g>
<g><path style="opacity:0.962" fill="#032839" d="M 900.5,864.5 C 904.635,863.89 908.301,864.723 911.5,867C 914.368,868.383 917.368,869.216 920.5,869.5C 920.5,870.5 920.5,871.5 920.5,872.5C 921.5,872.5 922.5,872.5 923.5,872.5C 925.752,891.049 926.085,909.716 924.5,928.5C 923.07,930.386 921.403,932.053 919.5,933.5C 918.614,934.325 918.281,935.325 918.5,936.5C 915.833,936.5 913.167,936.5 910.5,936.5C 910.5,937.5 910.5,938.5 910.5,939.5C 907.167,939.5 903.833,939.5 900.5,939.5C 900.5,938.5 900.5,937.5 900.5,936.5C 898.833,936.5 897.167,936.5 895.5,936.5C 895.5,935.5 895.5,934.5 895.5,933.5C 891.513,933.989 889.18,932.322 888.5,928.5C 887.5,928.5 886.5,928.5 885.5,928.5C 885.5,910.833 885.5,893.167 885.5,875.5C 886.5,875.5 887.5,875.5 888.5,875.5C 889.167,873.5 889.833,871.5 890.5,869.5C 893.658,868.124 896.991,867.458 900.5,867.5C 900.5,866.5 900.5,865.5 900.5,864.5 Z"/></g>
<g><path style="opacity:0.961" fill="#032839" d="M 258.5,867.5 C 263.606,867.523 268.606,868.189 273.5,869.5C 273.5,870.5 273.5,871.5 273.5,872.5C 275.167,872.5 276.833,872.5 278.5,872.5C 279.167,874.5 279.833,876.5 280.5,878.5C 281.5,878.5 282.5,878.5 283.5,878.5C 283.667,895.837 283.5,913.17 283,930.5C 280.501,931.822 279.001,933.822 278.5,936.5C 277.5,936.5 276.5,936.5 275.5,936.5C 275.5,937.5 275.5,938.5 275.5,939.5C 273.167,939.5 270.833,939.5 268.5,939.5C 268.5,940.5 268.5,941.5 268.5,942.5C 265.167,942.5 261.833,942.5 258.5,942.5C 258.5,941.5 258.5,940.5 258.5,939.5C 256.833,939.5 255.167,939.5 253.5,939.5C 253.5,938.5 253.5,937.5 253.5,936.5C 251.833,936.5 250.167,936.5 248.5,936.5C 248.5,935.5 248.5,934.5 248.5,933.5C 246.857,933.52 245.524,932.853 244.5,931.5C 242.915,912.716 243.248,894.049 245.5,875.5C 246.5,875.5 247.5,875.5 248.5,875.5C 249.167,873.5 249.833,871.5 250.5,869.5C 253.698,870.036 256.365,869.369 258.5,867.5 Z"/></g>
<g><path style="opacity:0.043" fill="#061123" d="M 1188.5,897.5 C 1189.55,897.351 1190.55,897.517 1191.5,898C 1191.17,898.333 1190.83,898.667 1190.5,899C 1192.63,900.974 1194.96,902.641 1197.5,904C 1198.45,904.617 1199.28,904.451 1200,903.5C 1200.51,904.527 1201.01,905.527 1201.5,906.5C 1198.06,906.448 1195.06,905.281 1192.5,903C 1190.54,901.549 1189.2,899.716 1188.5,897.5 Z"/></g>
<g><path style="opacity:0.098" fill="#04162c" d="M 635.5,928.5 C 636.75,928.577 637.583,929.244 638,930.5C 638.827,943.007 638.66,955.34 637.5,967.5C 636.883,967.611 636.383,967.944 636,968.5C 635.833,967.333 635.667,966.167 635.5,965C 636.66,952.687 636.66,940.521 635.5,928.5 Z"/></g>
<g><path style="opacity:0.007" fill="#05000e" d="M 847.5,997.5 C 850.701,998.839 851.035,1000.51 848.5,1002.5C 846.296,1001.22 845.962,999.551 847.5,997.5 Z"/></g>
<g><path style="opacity:0.057" fill="#061425" d="M 550.5,1005.5 C 549.883,1005.39 549.383,1005.06 549,1004.5C 548.098,1007.8 546.764,1008.14 545,1005.5C 540.676,1005.97 536.676,1007.31 533,1009.5C 532.235,1009.43 531.735,1009.1 531.5,1008.5C 536.188,1006.43 541.021,1004.43 546,1002.5C 548.185,1002.7 549.685,1003.7 550.5,1005.5 Z"/></g>
<g><path style="opacity:0.97" fill="#032738" d="M 203.5,1008.5 C 217.5,1008.5 231.5,1008.5 245.5,1008.5C 245.5,1009.5 245.5,1010.5 245.5,1011.5C 246.5,1011.5 247.5,1011.5 248.5,1011.5C 248.536,1015.98 249.369,1020.31 251,1024.5C 253.34,1027.85 255.174,1031.51 256.5,1035.5C 260.844,1042.49 266.344,1048.49 273,1053.5C 274.438,1054.9 275.271,1056.57 275.5,1058.5C 276.873,1058.34 278.207,1058.51 279.5,1059C 295.013,1070.48 312.679,1074.48 332.5,1071C 334.962,1069.78 337.629,1069.12 340.5,1069C 342.669,1066.8 345.335,1065.96 348.5,1066.5C 348.5,1065.5 348.5,1064.5 348.5,1063.5C 350.167,1063.5 351.833,1063.5 353.5,1063.5C 353.5,1062.5 353.5,1061.5 353.5,1060.5C 355.737,1059.55 358.071,1058.88 360.5,1058.5C 360.5,1057.5 360.5,1056.5 360.5,1055.5C 368.112,1050.22 374.446,1043.55 379.5,1035.5C 382.271,1029.76 385.104,1024.09 388,1018.5C 388.447,1015.02 389.28,1011.69 390.5,1008.5C 404.833,1008.5 419.167,1008.5 433.5,1008.5C 430.703,1032.21 422.37,1053.88 408.5,1073.5C 407.675,1074.39 406.675,1074.72 405.5,1074.5C 403.403,1080.28 399.736,1084.95 394.5,1088.5C 393.614,1089.32 393.281,1090.32 393.5,1091.5C 392.5,1091.5 391.5,1091.5 390.5,1091.5C 390.719,1092.68 390.386,1093.68 389.5,1094.5C 385.728,1096.44 382.394,1098.94 379.5,1102C 373.133,1106.48 366.133,1109.98 358.5,1112.5C 351.981,1114.85 345.315,1117.01 338.5,1119C 324.833,1119.67 311.167,1119.67 297.5,1119C 296.833,1118.33 296.167,1117.67 295.5,1117C 292.5,1116.67 289.5,1116.33 286.5,1116C 280.196,1112.56 273.53,1109.9 266.5,1108C 259.654,1103.73 252.988,1099.06 246.5,1094C 244.826,1092.49 243.826,1090.66 243.5,1088.5C 242.325,1088.72 241.325,1088.39 240.5,1087.5C 235.475,1082.31 230.641,1076.98 226,1071.5C 224.559,1067.37 222.393,1063.71 219.5,1060.5C 218.548,1058.95 218.215,1057.29 218.5,1055.5C 217.5,1055.5 216.5,1055.5 215.5,1055.5C 212.097,1047.58 209.43,1039.25 207.5,1030.5C 206.914,1030.29 206.414,1029.96 206,1029.5C 204.719,1022.54 203.886,1015.54 203.5,1008.5 Z"/></g>
<g><path style="opacity:0.97" fill="#032738" d="M 1045.5,1081.5 C 1044.31,1080.95 1043.14,1080.62 1042,1080.5C 1040.94,1082.69 1039.6,1084.69 1038,1086.5C 1036.95,1085.48 1035.78,1085.32 1034.5,1086C 1033.83,1087.33 1032.83,1088.33 1031.5,1089C 1031.83,1089.33 1032.17,1089.67 1032.5,1090C 1031.73,1092.37 1030.57,1094.54 1029,1096.5C 1028.44,1095.98 1027.77,1095.64 1027,1095.5C 1025.48,1096.7 1024.31,1098.2 1023.5,1100C 1022.22,1100.68 1021.05,1100.52 1020,1099.5C 1018.98,1100.35 1018.14,1101.35 1017.5,1102.5C 1018.79,1103.53 1018.79,1104.53 1017.5,1105.5C 1009.87,1109.15 1002.2,1112.65 994.5,1116C 933.428,1128.12 888.428,1106.96 859.5,1052.5C 855.229,1042.38 851.729,1032.05 849,1021.5C 848.333,1018.17 848.333,1014.83 849,1011.5C 863.137,1010.17 877.304,1010.17 891.5,1011.5C 895.58,1024.93 901.913,1037.27 910.5,1048.5C 913.177,1051.83 916.51,1054.17 920.5,1055.5C 920.5,1056.5 920.5,1057.5 920.5,1058.5C 927.416,1061.71 934.083,1065.21 940.5,1069C 955.548,1072.47 970.548,1072.31 985.5,1068.5C 990.885,1065.66 996.218,1062.49 1001.5,1059C 1002.79,1058.51 1004.13,1058.34 1005.5,1058.5C 1005.5,1057.5 1005.5,1056.5 1005.5,1055.5C 1006.5,1055.5 1007.5,1055.5 1008.5,1055.5C 1008.28,1054.32 1008.61,1053.32 1009.5,1052.5C 1016.64,1045.54 1022.81,1037.87 1028,1029.5C 1029.35,1022.32 1031.85,1015.65 1035.5,1009.5C 1049.82,1008.5 1064.15,1008.17 1078.5,1008.5C 1076.36,1017.33 1074.53,1026.33 1073,1035.5C 1072.59,1035.96 1072.09,1036.29 1071.5,1036.5C 1070.84,1040.7 1069.67,1044.7 1068,1048.5C 1063.72,1056.13 1059.39,1063.8 1055,1071.5C 1054.09,1073.44 1052.59,1074.44 1050.5,1074.5C 1049.83,1076.5 1049.17,1078.5 1048.5,1080.5C 1047.21,1080.26 1046.21,1080.6 1045.5,1081.5 Z"/></g>
<g><path style="opacity:0.179" fill="#061321" d="M 1143.5,1071.5 C 1142.56,1075.51 1140.56,1079.18 1137.5,1082.5C 1136.32,1082.28 1135.32,1082.61 1134.5,1083.5C 1132.58,1085.63 1130.91,1087.97 1129.5,1090.5C 1128.68,1091.39 1127.68,1091.72 1126.5,1091.5C 1131.08,1085.05 1135.91,1078.72 1141,1072.5C 1141.67,1071.75 1142.5,1071.41 1143.5,1071.5 Z"/></g>
<g><path style="opacity:0.524" fill="#051d2d" d="M 1045.5,1081.5 C 1037.8,1091.36 1028.46,1099.36 1017.5,1105.5C 1018.79,1104.53 1018.79,1103.53 1017.5,1102.5C 1018.14,1101.35 1018.98,1100.35 1020,1099.5C 1021.05,1100.52 1022.22,1100.68 1023.5,1100C 1024.31,1098.2 1025.48,1096.7 1027,1095.5C 1027.77,1095.64 1028.44,1095.98 1029,1096.5C 1030.57,1094.54 1031.73,1092.37 1032.5,1090C 1032.17,1089.67 1031.83,1089.33 1031.5,1089C 1032.83,1088.33 1033.83,1087.33 1034.5,1086C 1035.78,1085.32 1036.95,1085.48 1038,1086.5C 1039.6,1084.69 1040.94,1082.69 1042,1080.5C 1043.14,1080.62 1044.31,1080.95 1045.5,1081.5 Z"/></g>
<g><path style="opacity:0.48" fill="#051d2c" d="M 1126.5,1091.5 C 1124.41,1094.48 1122.91,1097.82 1122,1101.5C 1121.08,1101.93 1120.25,1102.26 1119.5,1102.5C 1120.33,1103.45 1120.49,1104.45 1120,1105.5C 1119.67,1105.17 1119.33,1104.83 1119,1104.5C 1117.42,1106.04 1115.59,1107.21 1113.5,1108C 1113.83,1108.33 1114.17,1108.67 1114.5,1109C 1112.72,1109.81 1111.22,1110.98 1110,1112.5C 1108.64,1111.62 1107.14,1111.29 1105.5,1111.5C 1105.67,1112.82 1105.34,1113.99 1104.5,1115C 1103.04,1114.64 1101.71,1114.81 1100.5,1115.5C 1103.93,1111.08 1108.26,1107.75 1113.5,1105.5C 1116.75,1099.91 1121.08,1095.25 1126.5,1091.5 Z"/></g>
<g><path style="opacity:0.518" fill="#051e2b" d="M 152.5,1152.5 C 149.028,1149.54 145.362,1146.71 141.5,1144C 139.826,1142.49 138.826,1140.66 138.5,1138.5C 132.027,1135.43 127.027,1130.76 123.5,1124.5C 125.03,1123.93 126.53,1123.27 128,1122.5C 129.138,1124.79 130.638,1126.79 132.5,1128.5C 132.023,1129.48 131.357,1130.31 130.5,1131C 132.554,1130.42 134.554,1130.92 136.5,1132.5C 136.291,1133.09 135.957,1133.59 135.5,1134C 136.833,1134.67 138.167,1135.33 139.5,1136C 139.167,1136.33 138.833,1136.67 138.5,1137C 141.127,1139.78 143.627,1142.61 146,1145.5C 146.249,1144.38 146.749,1143.38 147.5,1142.5C 150.22,1145.27 151.887,1148.61 152.5,1152.5 Z"/></g>
<g><path style="opacity:0.476" fill="#051d2b" d="M 799.5,1091.5 C 800.404,1092.21 800.737,1093.21 800.5,1094.5C 803.5,1094.83 805.167,1096.5 805.5,1099.5C 806.5,1099.5 807.5,1099.5 808.5,1099.5C 808.5,1100.5 808.5,1101.5 808.5,1102.5C 809.552,1102.35 810.552,1102.52 811.5,1103C 815.397,1106.11 819.064,1109.44 822.5,1113C 823.448,1113.48 824.448,1113.65 825.5,1113.5C 825.5,1114.5 825.5,1115.5 825.5,1116.5C 827.873,1117.29 830.206,1118.29 832.5,1119.5C 839.17,1125.6 846.836,1130.1 855.5,1133C 856.381,1133.71 857.047,1134.54 857.5,1135.5C 856.153,1134.83 854.986,1134.83 854,1135.5C 853.683,1133.7 853.016,1133.37 852,1134.5C 850.307,1133.82 848.807,1132.82 847.5,1131.5C 845.216,1132.42 844.049,1131.42 844,1128.5C 840.277,1130.28 836.943,1129.28 834,1125.5C 833.383,1124.55 833.549,1123.72 834.5,1123C 831.356,1121.3 828.023,1120.14 824.5,1119.5C 820.793,1116.42 817.793,1112.76 815.5,1108.5C 814.914,1108.71 814.414,1109.04 814,1109.5C 812.341,1108.18 811.174,1106.52 810.5,1104.5C 809.675,1103.61 808.675,1103.28 807.5,1103.5C 807.5,1102.5 807.5,1101.5 807.5,1100.5C 806.448,1100.65 805.448,1100.48 804.5,1100C 803.792,1097.23 802.292,1096.4 800,1097.5C 799.505,1095.53 799.338,1093.53 799.5,1091.5 Z"/></g>
<g><path style="opacity:0.516" fill="#041e2e" d="M 858.5,1135.5 C 859.873,1135.34 861.207,1135.51 862.5,1136C 866.929,1138.75 871.595,1141.08 876.5,1143C 882.338,1144.79 888.338,1146.13 894.5,1147C 895.252,1147.67 895.586,1148.5 895.5,1149.5C 889.752,1150.97 884.919,1149.31 881,1144.5C 879.238,1146.46 877.571,1147.8 876,1148.5C 875.5,1146.67 874.333,1145.5 872.5,1145C 874.271,1144.46 874.604,1143.63 873.5,1142.5C 871.908,1142.42 870.241,1142.75 868.5,1143.5C 866.853,1142.72 865.52,1141.56 864.5,1140C 861.157,1140.06 859.157,1138.56 858.5,1135.5 Z"/></g>
<g><path style="opacity:0.2" fill="#061421" d="M 470.5,1162.5 C 465.697,1165.58 460.697,1168.58 455.5,1171.5C 455.539,1170.42 455.873,1169.42 456.5,1168.5C 458.946,1166.98 461.279,1165.31 463.5,1163.5C 465.747,1162.63 468.08,1162.29 470.5,1162.5 Z"/></g>
</svg>
