<?xml version="1.0" encoding="UTF-8"?>
<!DOCTYPE svg PUBLIC "-//W3C//DTD SVG 1.1//EN" "http://www.w3.org/Graphics/SVG/1.1/DTD/svg11.dtd">
<svg xmlns="http://www.w3.org/2000/svg" version="1.1" width="1280px" height="1280px" style="shape-rendering:geometricPrecision; text-rendering:geometricPrecision; image-rendering:optimizeQuality; fill-rule:evenodd; clip-rule:evenodd" xmlns:xlink="http://www.w3.org/1999/xlink">
<g><path style="opacity:0.943" fill="#fefffe" d="M 305.5,395.5 C 313.84,395.334 322.173,395.5 330.5,396C 348.405,401.059 361.738,411.892 370.5,428.5C 376.451,432.124 381.118,437.124 384.5,443.5C 391.346,449.006 396.679,455.673 400.5,463.5C 406.451,467.124 411.118,472.124 414.5,478.5C 421.346,484.006 426.679,490.673 430.5,498.5C 436.451,502.124 441.118,507.124 444.5,513.5C 451.346,519.006 456.679,525.673 460.5,533.5C 466.451,537.124 471.118,542.124 474.5,548.5C 481.346,554.006 486.679,560.673 490.5,568.5C 492.143,568.48 493.476,569.147 494.5,570.5C 499.874,578.132 506.04,585.132 513,591.5C 515.762,595.409 518.262,599.409 520.5,603.5C 522.143,603.48 523.476,604.147 524.5,605.5C 529.874,613.132 536.04,620.132 543,626.5C 545.762,630.409 548.262,634.409 550.5,638.5C 552.143,638.48 553.476,639.147 554.5,640.5C 559.874,648.132 566.04,655.132 573,661.5C 574.983,665.949 577.483,669.949 580.5,673.5C 582.143,673.48 583.476,674.147 584.5,675.5C 589.874,683.132 596.04,690.132 603,696.5C 604.978,700.946 607.478,704.946 610.5,708.5C 612.143,708.48 613.476,709.147 614.5,710.5C 619.874,718.132 626.04,725.132 633,731.5C 634.277,735.359 636.61,738.359 640,740.5C 642.363,738.971 644.197,736.971 645.5,734.5C 646.325,733.614 647.325,733.281 648.5,733.5C 648.833,730.5 650.5,728.833 653.5,728.5C 655.923,722.681 659.59,717.681 664.5,713.5C 665.386,712.675 665.719,711.675 665.5,710.5C 666.675,710.719 667.675,710.386 668.5,709.5C 670.901,704.775 674.235,701.108 678.5,698.5C 678.833,695.5 680.5,693.833 683.5,693.5C 685.923,687.681 689.59,682.681 694.5,678.5C 695.386,677.675 695.719,676.675 695.5,675.5C 696.675,675.719 697.675,675.386 698.5,674.5C 700.901,669.775 704.235,666.108 708.5,663.5C 708.833,660.5 710.5,658.833 713.5,658.5C 715.923,652.681 719.59,647.681 724.5,643.5C 725.386,642.675 725.719,641.675 725.5,640.5C 726.675,640.719 727.675,640.386 728.5,639.5C 730.901,634.775 734.235,631.108 738.5,628.5C 738.833,625.5 740.5,623.833 743.5,623.5C 745.923,617.681 749.59,612.681 754.5,608.5C 755.386,607.675 755.719,606.675 755.5,605.5C 756.675,605.719 757.675,605.386 758.5,604.5C 760.058,600.611 762.391,597.278 765.5,594.5C 766.325,593.614 767.325,593.281 768.5,593.5C 768.833,590.5 770.5,588.833 773.5,588.5C 775.923,582.681 779.59,577.681 784.5,573.5C 785.386,572.675 785.719,571.675 785.5,570.5C 786.5,570.5 787.5,570.5 788.5,570.5C 788.608,568.217 789.441,566.217 791,564.5C 792.959,563.252 794.459,561.585 795.5,559.5C 796.325,558.614 797.325,558.281 798.5,558.5C 798.833,555.5 800.5,553.833 803.5,553.5C 805.923,547.681 809.59,542.681 814.5,538.5C 815.386,537.675 815.719,536.675 815.5,535.5C 816.5,535.5 817.5,535.5 818.5,535.5C 818.608,533.217 819.441,531.217 821,529.5C 822.959,528.252 824.459,526.585 825.5,524.5C 826.325,523.614 827.325,523.281 828.5,523.5C 828.833,520.5 830.5,518.833 833.5,518.5C 835.923,512.681 839.59,507.681 844.5,503.5C 845.386,502.675 845.719,501.675 845.5,500.5C 846.5,500.5 847.5,500.5 848.5,500.5C 848.608,498.217 849.441,496.217 851,494.5C 852.959,493.252 854.459,491.585 855.5,489.5C 856.325,488.614 857.325,488.281 858.5,488.5C 858.833,485.5 860.5,483.833 863.5,483.5C 865.923,477.681 869.59,472.681 874.5,468.5C 875.386,467.675 875.719,466.675 875.5,465.5C 876.5,465.5 877.5,465.5 878.5,465.5C 878.608,463.217 879.441,461.217 881,459.5C 882.959,458.252 884.459,456.585 885.5,454.5C 886.325,453.614 887.325,453.281 888.5,453.5C 888.833,450.5 890.5,448.833 893.5,448.5C 893.343,447.127 893.51,445.793 894,444.5C 898.494,440.192 902.328,435.525 905.5,430.5C 906.5,430.5 907.5,430.5 908.5,430.5C 908.608,428.217 909.441,426.217 911,424.5C 912.959,423.252 914.459,421.585 915.5,419.5C 916.325,418.614 917.325,418.281 918.5,418.5C 918.833,415.5 920.5,413.833 923.5,413.5C 923.281,412.325 923.614,411.325 924.5,410.5C 934.924,401.393 947.091,397.393 961,398.5C 968.259,398.661 975.425,399.494 982.5,401C 988.119,403.876 993.453,407.043 998.5,410.5C 998.281,411.675 998.614,412.675 999.5,413.5C 1002.36,416.01 1005.2,418.677 1008,421.5C 1010.42,426.546 1012.75,431.546 1015,436.5C 1015.83,447.848 1015.67,459.181 1014.5,470.5C 1012.51,475.497 1010.51,480.497 1008.5,485.5C 1007.5,485.5 1006.5,485.5 1005.5,485.5C 1003.08,491.319 999.41,496.319 994.5,500.5C 993.614,501.325 993.281,502.325 993.5,503.5C 992.5,503.5 991.5,503.5 990.5,503.5C 989.426,507.919 987.092,511.586 983.5,514.5C 982.675,515.386 981.675,515.719 980.5,515.5C 975.248,523.427 969.581,531.093 963.5,538.5C 962.5,538.5 961.5,538.5 960.5,538.5C 959.437,542.912 957.104,546.579 953.5,549.5C 952.675,550.386 951.675,550.719 950.5,550.5C 945.248,558.427 939.581,566.093 933.5,573.5C 932.5,573.5 931.5,573.5 930.5,573.5C 929.437,577.912 927.104,581.579 923.5,584.5C 922.675,585.386 921.675,585.719 920.5,585.5C 915.248,593.427 909.581,601.093 903.5,608.5C 902.5,608.5 901.5,608.5 900.5,608.5C 899.437,612.912 897.104,616.579 893.5,619.5C 892.675,620.386 891.675,620.719 890.5,620.5C 886.631,628.181 881.298,634.847 874.5,640.5C 873.614,641.325 873.281,642.325 873.5,643.5C 872.5,643.5 871.5,643.5 870.5,643.5C 869.437,647.912 867.104,651.579 863.5,654.5C 862.675,655.386 861.675,655.719 860.5,655.5C 857.478,659.054 854.978,663.054 853,667.5C 846.04,673.868 839.874,680.868 834.5,688.5C 833.476,689.853 832.143,690.52 830.5,690.5C 826.699,698.311 821.366,704.978 814.5,710.5C 811.47,715.043 808.137,719.376 804.5,723.5C 803.476,724.853 802.143,725.52 800.5,725.5C 796.699,733.311 791.366,739.978 784.5,745.5C 780.933,751.724 776.266,756.724 770.5,760.5C 766.699,768.311 761.366,774.978 754.5,780.5C 750.933,786.724 746.266,791.724 740.5,795.5C 736.699,803.311 731.366,809.978 724.5,815.5C 720.933,821.724 716.266,826.724 710.5,830.5C 706.699,838.311 701.366,844.978 694.5,850.5C 690.933,856.724 686.266,861.724 680.5,865.5C 680.167,868.5 678.5,870.167 675.5,870.5C 675.5,871.5 675.5,872.5 675.5,873.5C 668.51,877.261 661.177,880.427 653.5,883C 644.5,883.667 635.5,883.667 626.5,883C 622.596,880.523 618.262,879.023 613.5,878.5C 613.5,877.5 613.5,876.5 613.5,875.5C 609.194,875.207 605.86,873.207 603.5,869.5C 602.675,868.614 601.675,868.281 600.5,868.5C 600.167,865.5 598.5,863.833 595.5,863.5C 595.719,862.325 595.386,861.325 594.5,860.5C 589.59,856.319 585.923,851.319 583.5,845.5C 580.5,845.167 578.833,843.5 578.5,840.5C 577.325,840.719 576.325,840.386 575.5,839.5C 572.388,836.263 570.054,832.596 568.5,828.5C 567.5,828.5 566.5,828.5 565.5,828.5C 565.719,827.325 565.386,826.325 564.5,825.5C 559.59,821.319 555.923,816.319 553.5,810.5C 550.5,810.167 548.833,808.5 548.5,805.5C 544.235,802.892 540.901,799.225 538.5,794.5C 537.675,793.614 536.675,793.281 535.5,793.5C 530.918,787.96 526.918,781.96 523.5,775.5C 520.5,775.167 518.833,773.5 518.5,770.5C 514.235,767.892 510.901,764.225 508.5,759.5C 507.675,758.614 506.675,758.281 505.5,758.5C 500.918,752.96 496.918,746.96 493.5,740.5C 490.5,740.167 488.833,738.5 488.5,735.5C 487.325,735.719 486.325,735.386 485.5,734.5C 481.927,727.76 477.094,722.094 471,717.5C 467.819,713.842 465.319,709.842 463.5,705.5C 460.5,705.167 458.833,703.5 458.5,700.5C 457.325,700.719 456.325,700.386 455.5,699.5C 451.927,692.76 447.094,687.094 441,682.5C 437.819,678.842 435.319,674.842 433.5,670.5C 430.5,670.167 428.833,668.5 428.5,665.5C 427.5,665.5 426.5,665.5 425.5,665.5C 422.366,658.226 417.532,652.226 411,647.5C 408.238,643.591 405.738,639.591 403.5,635.5C 397.734,631.724 393.067,626.724 389.5,620.5C 382.634,614.978 377.301,608.311 373.5,600.5C 371.857,600.52 370.524,599.853 369.5,598.5C 364.104,590.824 357.938,583.824 351,577.5C 348.625,573.319 346.125,569.319 343.5,565.5C 342.325,565.719 341.325,565.386 340.5,564.5C 333.999,555.68 326.833,547.347 319,539.5C 316.96,536.627 315.127,533.627 313.5,530.5C 312.325,530.719 311.325,530.386 310.5,529.5C 306.896,526.579 304.563,522.912 303.5,518.5C 302.5,518.5 301.5,518.5 300.5,518.5C 297.328,513.475 293.494,508.808 289,504.5C 288.51,503.207 288.343,501.873 288.5,500.5C 285.5,500.167 283.833,498.5 283.5,495.5C 281.857,495.52 280.524,494.853 279.5,493.5C 272.458,485.957 267.292,477.29 264,467.5C 263.168,456.152 263.334,444.819 264.5,433.5C 267.293,428.781 269.293,423.781 270.5,418.5C 271.5,418.5 272.5,418.5 273.5,418.5C 273.833,415.5 275.5,413.833 278.5,413.5C 278.833,410.5 280.5,408.833 283.5,408.5C 283.281,407.325 283.614,406.325 284.5,405.5C 290.188,401.484 296.522,398.817 303.5,397.5C 304.243,396.818 304.909,396.151 305.5,395.5 Z"/></g>
</svg>
