<?xml version="1.0" encoding="UTF-8"?>
<!DOCTYPE svg PUBLIC "-//W3C//DTD SVG 1.1//EN" "http://www.w3.org/Graphics/SVG/1.1/DTD/svg11.dtd">
<svg xmlns="http://www.w3.org/2000/svg" version="1.1" width="1280px" height="1468px" style="shape-rendering:geometricPrecision; text-rendering:geometricPrecision; image-rendering:optimizeQuality; fill-rule:evenodd; clip-rule:evenodd" xmlns:xlink="http://www.w3.org/1999/xlink">
<g><path style="opacity:0.991" fill="#74b1fa" d="M 945.5,501.5 C 944.636,502.688 943.636,503.855 942.5,505C 943.191,506.067 943.691,507.234 944,508.5C 944.333,508.167 944.667,507.833 945,507.5C 945.167,514.167 945.333,520.833 945.5,527.5C 945.252,622.667 944.918,717.834 944.5,813C 944.667,817.833 944.833,822.667 945,827.5C 945.718,826.549 946.551,826.383 947.5,827C 945.077,828.571 943.744,830.737 943.5,833.5C 935.007,839.314 927.341,846.314 920.5,854.5C 921.764,854.64 922.931,854.64 924,854.5C 926.5,851.333 929.333,848.5 932.5,846C 933.549,845.508 934.549,845.674 935.5,846.5C 936.167,845.5 936.833,844.5 937.5,843.5C 938.182,844.243 938.849,844.909 939.5,845.5C 936.99,848.574 933.99,850.907 930.5,852.5C 930.5,853.5 930.5,854.5 930.5,855.5C 929.5,855.5 928.5,855.5 927.5,855.5C 927.271,857.433 926.438,859.1 925,860.5C 920.767,865.347 915.933,869.347 910.5,872.5C 910.5,873.5 910.5,874.5 910.5,875.5C 909.5,875.5 908.5,875.5 907.5,875.5C 907.5,876.5 907.5,877.5 907.5,878.5C 906.5,878.5 905.5,878.5 904.5,878.5C 904.5,879.5 904.5,880.5 904.5,881.5C 903.5,881.5 902.5,881.5 901.5,881.5C 901.719,882.675 901.386,883.675 900.5,884.5C 896.833,887.5 893.5,890.833 890.5,894.5C 889.675,895.386 888.675,895.719 887.5,895.5C 887.5,896.5 887.5,897.5 887.5,898.5C 886.5,898.5 885.5,898.5 884.5,898.5C 884.5,899.5 884.5,900.5 884.5,901.5C 883.5,901.5 882.5,901.5 881.5,901.5C 881.5,902.5 881.5,903.5 881.5,904.5C 880.325,904.281 879.325,904.614 878.5,905.5C 873.5,911.167 868.167,916.5 862.5,921.5C 861.614,922.325 861.281,923.325 861.5,924.5C 860.325,924.281 859.325,924.614 858.5,925.5C 848.346,935.487 838.346,945.654 828.5,956C 825.898,958.131 823.232,959.965 820.5,961.5C 820.5,962.5 820.5,963.5 820.5,964.5C 819.5,964.5 818.5,964.5 817.5,964.5C 813.907,970.664 809.24,975.997 803.5,980.5C 802.675,981.386 801.675,981.719 800.5,981.5C 800.5,982.5 800.5,983.5 800.5,984.5C 799.5,984.5 798.5,984.5 797.5,984.5C 797.5,985.5 797.5,986.5 797.5,987.5C 796.5,987.5 795.5,987.5 794.5,987.5C 794.5,988.5 794.5,989.5 794.5,990.5C 793.325,990.281 792.325,990.614 791.5,991.5C 786.473,997.194 781.14,1002.53 775.5,1007.5C 774.614,1008.32 774.281,1009.32 774.5,1010.5C 773.325,1010.28 772.325,1010.61 771.5,1011.5C 767.493,1015.53 763.493,1019.53 759.5,1023.5C 758.821,1021.19 757.488,1020.85 755.5,1022.5C 754.328,1022.08 753.328,1021.41 752.5,1020.5C 753.791,1019.18 755.124,1017.84 756.5,1016.5C 756.906,965.463 757.24,914.463 757.5,863.5C 754.941,863.147 753.107,864.48 752,867.5C 751.667,867.167 751.333,866.833 751,866.5C 748.629,869.188 746.295,872.522 744,876.5C 739.192,877.729 736.192,880.729 735,885.5C 734.667,885.167 734.333,884.833 734,884.5C 728.256,890.272 722.089,895.439 715.5,900C 716.833,900.667 716.833,901.333 715.5,902C 713.606,903.404 711.606,904.57 709.5,905.5C 707.962,905.547 706.962,904.88 706.5,903.5C 708.587,901.401 710.92,899.735 713.5,898.5C 713.5,897.5 713.5,896.5 713.5,895.5C 714.5,895.5 715.5,895.5 716.5,895.5C 716.5,894.5 716.5,893.5 716.5,892.5C 717.5,892.5 718.5,892.5 719.5,892.5C 719.5,891.5 719.5,890.5 719.5,889.5C 720.5,889.5 721.5,889.5 722.5,889.5C 725.5,883.167 730.167,878.5 736.5,875.5C 736.5,874.5 736.5,873.5 736.5,872.5C 737.5,872.5 738.5,872.5 739.5,872.5C 739.5,871.5 739.5,870.5 739.5,869.5C 740.5,869.5 741.5,869.5 742.5,869.5C 742.5,868.5 742.5,867.5 742.5,866.5C 743.5,866.5 744.5,866.5 745.5,866.5C 745.5,865.5 745.5,864.5 745.5,863.5C 746.5,863.5 747.5,863.5 748.5,863.5C 748.5,862.5 748.5,861.5 748.5,860.5C 752.167,858.833 754.833,856.167 756.5,852.5C 757.5,852.5 758.5,852.5 759.5,852.5C 759.5,851.5 759.5,850.5 759.5,849.5C 760.675,849.719 761.675,849.386 762.5,848.5C 773.932,837.779 784.932,826.612 795.5,815C 798.102,812.869 800.768,811.035 803.5,809.5C 803.5,808.5 803.5,807.5 803.5,806.5C 804.5,806.5 805.5,806.5 806.5,806.5C 808.341,802.643 811.008,799.309 814.5,796.5C 815.428,795.232 815.595,793.899 815,792.5C 793.014,771.204 771.181,749.537 749.5,727.5C 752.455,728.159 755.455,728.492 758.5,728.5C 758.649,727.448 758.483,726.448 758,725.5C 757.346,726.696 756.846,726.696 756.5,725.5C 756.498,663.682 756.832,601.682 757.5,539.5C 757.333,539.167 757.167,538.833 757,538.5C 755.933,539.191 754.766,539.691 753.5,540C 754.167,540.333 754.833,540.667 755.5,541C 752,543.833 748.833,547 746,550.5C 744.799,547.818 744.299,545.151 744.5,542.5C 745.404,541.791 745.737,540.791 745.5,539.5C 746.5,539.5 747.5,539.5 748.5,539.5C 748.5,538.5 748.5,537.5 748.5,536.5C 753.016,533.719 757.016,530.219 760.5,526C 762.871,524.121 765.538,522.955 768.5,522.5C 768.5,521.5 768.5,520.5 768.5,519.5C 775.987,515.074 783.654,510.741 791.5,506.5C 793.396,505.534 795.396,505.201 797.5,505.5C 797.5,504.5 797.5,503.5 797.5,502.5C 799.5,502.5 801.5,502.5 803.5,502.5C 803.5,501.5 803.5,500.5 803.5,499.5C 805.527,499.662 807.527,499.495 809.5,499C 813.167,497.333 816.833,495.667 820.5,494C 829.102,491.739 837.769,489.739 846.5,488C 864.833,487.333 883.167,487.333 901.5,488C 910.245,489.739 918.912,491.739 927.5,494C 933.986,495.755 939.986,498.255 945.5,501.5 Z M 869.5,608.5 C 880.226,607.874 890.393,609.874 900,614.5C 901.813,617.04 904.313,618.04 907.5,617.5C 907.5,618.5 907.5,619.5 907.5,620.5C 908.5,620.5 909.5,620.5 910.5,620.5C 910.5,621.5 910.5,622.5 910.5,623.5C 911.5,623.5 912.5,623.5 913.5,623.5C 913.5,624.5 913.5,625.5 913.5,626.5C 914.5,626.5 915.5,626.5 916.5,626.5C 919.907,633.226 923.407,639.893 927,646.5C 927.832,656.849 927.666,667.183 926.5,677.5C 923.372,684.184 920.038,690.851 916.5,697.5C 915.5,697.5 914.5,697.5 913.5,697.5C 913.5,698.5 913.5,699.5 913.5,700.5C 912.5,700.5 911.5,700.5 910.5,700.5C 910.5,701.5 910.5,702.5 910.5,703.5C 908.165,704.413 905.999,705.747 904,707.5C 878.772,682.773 853.605,657.773 828.5,632.5C 838.556,618.458 852.223,610.458 869.5,608.5 Z"/></g>
<g><path style="opacity:0.992" fill="#73adf9" d="M 945.5,501.5 C 960.113,506.98 973.446,514.813 985.5,525C 986.448,525.483 987.448,525.649 988.5,525.5C 988.5,526.5 988.5,527.5 988.5,528.5C 991.232,530.035 993.898,531.869 996.5,534C 999.333,537.5 1002.5,540.667 1006,543.5C 1007.44,544.9 1008.27,546.567 1008.5,548.5C 1009.5,548.5 1010.5,548.5 1011.5,548.5C 1017.79,559.6 1024.62,570.266 1032,580.5C 1035.67,589.653 1039.34,598.653 1043,607.5C 1043.5,610.817 1043.67,614.15 1043.5,617.5C 1044.5,617.5 1045.5,617.5 1046.5,617.5C 1046.33,621.514 1046.5,625.514 1047,629.5C 1047.67,630.167 1048.33,630.833 1049,631.5C 1049.67,651.833 1049.67,672.167 1049,692.5C 1048.33,693.167 1047.67,693.833 1047,694.5C 1046.6,702.134 1045.26,709.467 1043,716.5C 1039.82,722.878 1037.15,729.544 1035,736.5C 1029.46,746.687 1023.62,756.687 1017.5,766.5C 1016.5,766.5 1015.5,766.5 1014.5,766.5C 1014.66,767.873 1014.49,769.207 1014,770.5C 1009.26,776.739 1003.76,782.072 997.5,786.5C 997.5,787.5 997.5,788.5 997.5,789.5C 996.5,789.5 995.5,789.5 994.5,789.5C 994.5,790.5 994.5,791.5 994.5,792.5C 993.5,792.5 992.5,792.5 991.5,792.5C 991.5,793.5 991.5,794.5 991.5,795.5C 990.5,795.5 989.5,795.5 988.5,795.5C 988.5,796.5 988.5,797.5 988.5,798.5C 987.5,798.5 986.5,798.5 985.5,798.5C 985.5,799.5 985.5,800.5 985.5,801.5C 980.833,804.167 977.167,807.833 974.5,812.5C 973.5,812.5 972.5,812.5 971.5,812.5C 971.5,813.5 971.5,814.5 971.5,815.5C 970.325,815.281 969.325,815.614 968.5,816.5C 958.599,826.006 948.932,835.673 939.5,845.5C 938.849,844.909 938.182,844.243 937.5,843.5C 936.833,844.5 936.167,845.5 935.5,846.5C 934.549,845.674 933.549,845.508 932.5,846C 929.333,848.5 926.5,851.333 924,854.5C 922.931,854.64 921.764,854.64 920.5,854.5C 927.341,846.314 935.007,839.314 943.5,833.5C 943.744,830.737 945.077,828.571 947.5,827C 946.551,826.383 945.718,826.549 945,827.5C 944.833,822.667 944.667,817.833 944.5,813C 944.918,717.834 945.252,622.667 945.5,527.5C 945.333,520.833 945.167,514.167 945,507.5C 944.667,507.833 944.333,508.167 944,508.5C 943.691,507.234 943.191,506.067 942.5,505C 943.636,503.855 944.636,502.688 945.5,501.5 Z"/></g>
<g><path style="opacity:0.997" fill="#75b5fa" d="M 749.5,727.5 C 746.176,724.677 743.01,721.677 740,718.5C 739.29,719.973 738.124,720.64 736.5,720.5C 736.5,721.5 736.5,722.5 736.5,723.5C 735.5,723.5 734.5,723.5 733.5,723.5C 733.271,725.433 732.438,727.1 731,728.5C 728.963,730.706 726.797,732.706 724.5,734.5C 722.257,733.916 720.257,732.75 718.5,731C 719.949,729.883 721.616,729.216 723.5,729C 722.833,728.333 722.167,727.667 721.5,727C 722.497,677.238 722.831,627.405 722.5,577.5C 721.5,577.5 720.5,577.5 719.5,577.5C 719.5,578.5 719.5,579.5 719.5,580.5C 717.5,581.167 715.5,581.833 713.5,582.5C 713.5,583.5 713.5,584.5 713.5,585.5C 710.724,585.911 710.057,585.078 711.5,583C 710.535,581.025 709.201,579.525 707.5,578.5C 710.01,575.426 713.01,573.093 716.5,571.5C 716.5,570.5 716.5,569.5 716.5,568.5C 717.5,568.5 718.5,568.5 719.5,568.5C 719.5,567.5 719.5,566.5 719.5,565.5C 720.5,565.5 721.5,565.5 722.5,565.5C 722.281,564.325 722.614,563.325 723.5,562.5C 726.825,559.209 730.158,555.876 733.5,552.5C 734.325,551.614 735.325,551.281 736.5,551.5C 736.5,550.5 736.5,549.5 736.5,548.5C 737.5,548.5 738.5,548.5 739.5,548.5C 739.5,547.5 739.5,546.5 739.5,545.5C 740.5,545.5 741.5,545.5 742.5,545.5C 742.285,543.821 742.952,542.821 744.5,542.5C 744.299,545.151 744.799,547.818 746,550.5C 748.833,547 752,543.833 755.5,541C 754.833,540.667 754.167,540.333 753.5,540C 754.766,539.691 755.933,539.191 757,538.5C 757.167,538.833 757.333,539.167 757.5,539.5C 756.832,601.682 756.498,663.682 756.5,725.5C 756.846,726.696 757.346,726.696 758,725.5C 758.483,726.448 758.649,727.448 758.5,728.5C 755.455,728.492 752.455,728.159 749.5,727.5 Z"/></g>
<g><path style="opacity:0.997" fill="#77b8fa" d="M 724.5,734.5 C 721.405,738.267 717.739,741.267 713.5,743.5C 713.5,744.5 713.5,745.5 713.5,746.5C 712.5,746.5 711.5,746.5 710.5,746.5C 710.5,747.5 710.5,748.5 710.5,749.5C 709.5,749.5 708.5,749.5 707.5,749.5C 707.719,750.675 707.386,751.675 706.5,752.5C 702.407,756.605 698.073,760.272 693.5,763.5C 693.5,764.5 693.5,765.5 693.5,766.5C 692.5,766.5 691.5,766.5 690.5,766.5C 690.5,767.5 690.5,768.5 690.5,769.5C 689.5,769.5 688.5,769.5 687.5,769.5C 687.5,770.5 687.5,771.5 687.5,772.5C 686.325,772.281 685.325,772.614 684.5,773.5C 667.68,790.154 651.013,806.987 634.5,824C 631.898,826.131 629.232,827.965 626.5,829.5C 626.5,830.5 626.5,831.5 626.5,832.5C 625.5,832.5 624.5,832.5 623.5,832.5C 623.719,833.675 623.386,834.675 622.5,835.5C 619.506,837.662 617.006,840.328 615,843.5C 612.312,845.908 609.479,847.908 606.5,849.5C 606.737,850.791 606.404,851.791 605.5,852.5C 605.585,851.005 604.919,850.005 603.5,849.5C 601.358,851.905 598.691,853.238 595.5,853.5C 595.288,802.863 595.121,752.196 595,701.5C 593.736,699.393 591.903,698.393 589.5,698.5C 589.649,699.552 589.483,700.552 589,701.5C 588.623,700.058 587.79,699.058 586.5,698.5C 591.633,693.533 596.633,688.366 601.5,683C 602.9,681.562 604.567,680.729 606.5,680.5C 606.5,679.5 606.5,678.5 606.5,677.5C 607.5,677.5 608.5,677.5 609.5,677.5C 609.5,676.5 609.5,675.5 609.5,674.5C 610.5,674.5 611.5,674.5 612.5,674.5C 616.093,668.336 620.76,663.003 626.5,658.5C 627.325,657.614 628.325,657.281 629.5,657.5C 629.5,656.5 629.5,655.5 629.5,654.5C 630.5,654.5 631.5,654.5 632.5,654.5C 632.5,653.5 632.5,652.5 632.5,651.5C 633.5,651.5 634.5,651.5 635.5,651.5C 635.5,650.5 635.5,649.5 635.5,648.5C 636.5,648.5 637.5,648.5 638.5,648.5C 638.5,647.5 638.5,646.5 638.5,645.5C 639.5,645.5 640.5,645.5 641.5,645.5C 643.167,641.833 645.833,639.167 649.5,637.5C 649.5,636.5 649.5,635.5 649.5,634.5C 650.5,634.5 651.5,634.5 652.5,634.5C 652.5,633.5 652.5,632.5 652.5,631.5C 653.5,631.5 654.5,631.5 655.5,631.5C 655.5,630.5 655.5,629.5 655.5,628.5C 656.5,628.5 657.5,628.5 658.5,628.5C 658.5,627.5 658.5,626.5 658.5,625.5C 659.675,625.719 660.675,625.386 661.5,624.5C 670.681,615.486 679.681,606.319 688.5,597C 691.102,594.869 693.768,593.035 696.5,591.5C 696.729,589.567 697.562,587.9 699,586.5C 702.003,583.933 704.836,581.266 707.5,578.5C 709.201,579.525 710.535,581.025 711.5,583C 710.057,585.078 710.724,585.911 713.5,585.5C 713.5,584.5 713.5,583.5 713.5,582.5C 715.5,581.833 717.5,581.167 719.5,580.5C 719.5,579.5 719.5,578.5 719.5,577.5C 720.5,577.5 721.5,577.5 722.5,577.5C 722.831,627.405 722.497,677.238 721.5,727C 722.167,727.667 722.833,728.333 723.5,729C 721.616,729.216 719.949,729.883 718.5,731C 720.257,732.75 722.257,733.916 724.5,734.5 Z"/></g>
<g><path style="opacity:0.993" fill="#78bdfa" d="M 586.5,698.5 C 587.79,699.058 588.623,700.058 589,701.5C 589.483,700.552 589.649,699.552 589.5,698.5C 591.903,698.393 593.736,699.393 595,701.5C 595.121,752.196 595.288,802.863 595.5,853.5C 598.691,853.238 601.358,851.905 603.5,849.5C 604.919,850.005 605.585,851.005 605.5,852.5C 603.952,852.821 603.285,853.821 603.5,855.5C 602.5,855.5 601.5,855.5 600.5,855.5C 600.5,856.5 600.5,857.5 600.5,858.5C 599.325,858.281 598.325,858.614 597.5,859.5C 572.702,884.822 547.702,909.822 522.5,934.5C 521.675,935.386 520.675,935.719 519.5,935.5C 519.5,936.5 519.5,937.5 519.5,938.5C 518.5,938.5 517.5,938.5 516.5,938.5C 516.5,939.5 516.5,940.5 516.5,941.5C 515.5,941.5 514.5,941.5 513.5,941.5C 507.901,948.768 501.568,955.435 494.5,961.5C 493.614,962.325 493.281,963.325 493.5,964.5C 490.528,965.997 487.861,967.997 485.5,970.5C 484.766,969.292 484.433,967.959 484.5,966.5C 483.448,966.649 482.448,966.483 481.5,966C 482.653,964.117 484.319,963.284 486.5,963.5C 486.666,960.832 487.666,958.498 489.5,956.5C 488.702,949.55 488.202,942.55 488,935.5C 487.333,892.167 487.333,848.833 488,805.5C 488.5,805 489,804.5 489.5,804C 488.802,803.029 488.802,801.863 489.5,800.5C 489.332,798.829 488.665,797.496 487.5,796.5C 490.925,792.402 494.925,789.069 499.5,786.5C 499.5,785.5 499.5,784.5 499.5,783.5C 500.5,783.5 501.5,783.5 502.5,783.5C 502.729,781.567 503.562,779.9 505,778.5C 509.233,773.653 514.067,769.653 519.5,766.5C 519.5,765.5 519.5,764.5 519.5,763.5C 520.5,763.5 521.5,763.5 522.5,763.5C 522.5,762.5 522.5,761.5 522.5,760.5C 523.5,760.5 524.5,760.5 525.5,760.5C 525.5,759.5 525.5,758.5 525.5,757.5C 526.5,757.5 527.5,757.5 528.5,757.5C 528.5,756.5 528.5,755.5 528.5,754.5C 529.5,754.5 530.5,754.5 531.5,754.5C 531.729,752.567 532.562,750.9 534,749.5C 536.688,747.092 539.521,745.092 542.5,743.5C 542.5,742.5 542.5,741.5 542.5,740.5C 543.5,740.5 544.5,740.5 545.5,740.5C 545.5,739.5 545.5,738.5 545.5,737.5C 546.5,737.5 547.5,737.5 548.5,737.5C 548.5,736.5 548.5,735.5 548.5,734.5C 549.5,734.5 550.5,734.5 551.5,734.5C 551.5,733.5 551.5,732.5 551.5,731.5C 556.272,728.973 559.938,725.307 562.5,720.5C 563.5,720.5 564.5,720.5 565.5,720.5C 565.5,719.5 565.5,718.5 565.5,717.5C 566.675,717.719 567.675,717.386 568.5,716.5C 574.518,710.408 580.518,704.408 586.5,698.5 Z"/></g>
<g><path style="opacity:0.987" fill="#7ac4fa" d="M 487.5,796.5 C 488.665,797.496 489.332,798.829 489.5,800.5C 488.802,801.863 488.802,803.029 489.5,804C 489,804.5 488.5,805 488,805.5C 487.333,848.833 487.333,892.167 488,935.5C 488.202,942.55 488.702,949.55 489.5,956.5C 487.666,958.498 486.666,960.832 486.5,963.5C 484.319,963.284 482.653,964.117 481.5,966C 482.448,966.483 483.448,966.649 484.5,966.5C 484.433,967.959 484.766,969.292 485.5,970.5C 477.792,977.425 470.959,985.092 465,993.5C 464.503,996.146 464.336,998.813 464.5,1001.5C 463.5,1001.5 462.5,1001.5 461.5,1001.5C 461.665,1004.85 461.498,1008.18 461,1011.5C 457.72,1020.31 455.053,1029.31 453,1038.5C 452.333,1039.17 451.667,1039.83 451,1040.5C 450.667,1043.17 450.333,1045.83 450,1048.5C 448.414,1052.22 446.748,1055.88 445,1059.5C 444.503,1062.15 444.336,1064.81 444.5,1067.5C 443.5,1067.5 442.5,1067.5 441.5,1067.5C 441.665,1070.52 441.498,1073.52 441,1076.5C 439.175,1081.96 437.342,1087.29 435.5,1092.5C 440.359,1091.01 445.359,1090.35 450.5,1090.5C 450.5,1089.5 450.5,1088.5 450.5,1087.5C 453.85,1087.67 457.183,1087.5 460.5,1087C 464.218,1085.41 467.885,1083.75 471.5,1082C 474.833,1081.67 478.167,1081.33 481.5,1081C 482.373,1079.96 483.373,1079.12 484.5,1078.5C 484.539,1079.58 484.873,1080.58 485.5,1081.5C 487.162,1082.33 488.495,1083.49 489.5,1085C 488.173,1103.45 487.506,1122.12 487.5,1141C 487.833,1159.5 488.167,1178 488.5,1196.5C 489.87,1199.43 491.537,1201.43 493.5,1202.5C 491.567,1202.73 489.9,1203.56 488.5,1205C 484.707,1204.91 481.373,1205.91 478.5,1208C 474.152,1207.92 470.152,1208.92 466.5,1211C 439.303,1218.55 412.303,1225.72 385.5,1232.5C 386.821,1123.51 386.821,1014.18 385.5,904.5C 383.575,904.837 382.075,906.17 381,908.5C 379.917,906.759 378.75,906.093 377.5,906.5C 378.456,904.484 379.79,902.651 381.5,901C 384.102,898.869 386.768,897.035 389.5,895.5C 389.5,894.5 389.5,893.5 389.5,892.5C 390.5,892.5 391.5,892.5 392.5,892.5C 392.729,890.567 393.562,888.9 395,887.5C 398.5,884.667 401.667,881.5 404.5,878C 405.9,876.562 407.567,875.729 409.5,875.5C 409.5,874.5 409.5,873.5 409.5,872.5C 410.5,872.5 411.5,872.5 412.5,872.5C 412.5,871.5 412.5,870.5 412.5,869.5C 413.5,869.5 414.5,869.5 415.5,869.5C 415.5,868.5 415.5,867.5 415.5,866.5C 416.5,866.5 417.5,866.5 418.5,866.5C 421.5,860.167 426.167,855.5 432.5,852.5C 432.5,851.5 432.5,850.5 432.5,849.5C 433.5,849.5 434.5,849.5 435.5,849.5C 435.5,848.5 435.5,847.5 435.5,846.5C 436.5,846.5 437.5,846.5 438.5,846.5C 438.5,845.5 438.5,844.5 438.5,843.5C 439.5,843.5 440.5,843.5 441.5,843.5C 441.5,842.5 441.5,841.5 441.5,840.5C 442.5,840.5 443.5,840.5 444.5,840.5C 444.5,839.5 444.5,838.5 444.5,837.5C 448.167,835.833 450.833,833.167 452.5,829.5C 453.5,829.5 454.5,829.5 455.5,829.5C 455.5,828.5 455.5,827.5 455.5,826.5C 456.5,826.5 457.5,826.5 458.5,826.5C 458.5,825.5 458.5,824.5 458.5,823.5C 459.5,823.5 460.5,823.5 461.5,823.5C 461.5,822.5 461.5,821.5 461.5,820.5C 466.284,816.601 471.284,812.934 476.5,809.5C 476.729,807.567 477.562,805.9 479,804.5C 482.003,801.933 484.836,799.266 487.5,796.5 Z"/></g>
<g><path style="opacity:0.998" fill="#75b6fa" d="M 759.5,1023.5 C 746.525,1036.81 733.191,1049.81 719.5,1062.5C 717.543,1059.91 717.543,1057.41 719.5,1055C 718.66,1053.33 719.16,1053.17 721,1054.5C 721.667,1051.83 722.333,1051.83 723,1054.5C 722.53,1003.77 722.363,952.772 722.5,901.5C 721.5,901.5 720.5,901.5 719.5,901.5C 719.5,902.5 719.5,903.5 719.5,904.5C 718.5,904.5 717.5,904.5 716.5,904.5C 716.5,905.5 716.5,906.5 716.5,907.5C 714.857,907.48 713.524,908.147 712.5,909.5C 708.771,907.967 708.104,908.467 710.5,911C 708.719,913.991 706.719,913.991 704.5,911C 704.957,910.586 705.291,910.086 705.5,909.5C 704.388,908.735 703.721,907.735 703.5,906.5C 704.272,905.306 705.272,904.306 706.5,903.5C 706.962,904.88 707.962,905.547 709.5,905.5C 711.606,904.57 713.606,903.404 715.5,902C 716.833,901.333 716.833,900.667 715.5,900C 722.089,895.439 728.256,890.272 734,884.5C 734.333,884.833 734.667,885.167 735,885.5C 736.192,880.729 739.192,877.729 744,876.5C 746.295,872.522 748.629,869.188 751,866.5C 751.333,866.833 751.667,867.167 752,867.5C 753.107,864.48 754.941,863.147 757.5,863.5C 757.24,914.463 756.906,965.463 756.5,1016.5C 755.124,1017.84 753.791,1019.18 752.5,1020.5C 753.328,1021.41 754.328,1022.08 755.5,1022.5C 757.488,1020.85 758.821,1021.19 759.5,1023.5 Z"/></g>
<g><path style="opacity:0.992" fill="#77b8fa" d="M 719.5,1062.5 C 718.826,1064.02 717.826,1065.36 716.5,1066.5C 715.675,1067.39 714.675,1067.72 713.5,1067.5C 713.5,1068.5 713.5,1069.5 713.5,1070.5C 712.5,1070.5 711.5,1070.5 710.5,1070.5C 710.5,1071.5 710.5,1072.5 710.5,1073.5C 709.5,1073.5 708.5,1073.5 707.5,1073.5C 707.719,1074.68 707.386,1075.68 706.5,1076.5C 702.833,1079.5 699.5,1082.83 696.5,1086.5C 695.675,1087.39 694.675,1087.72 693.5,1087.5C 693.5,1088.5 693.5,1089.5 693.5,1090.5C 692.5,1090.5 691.5,1090.5 690.5,1090.5C 690.5,1091.5 690.5,1092.5 690.5,1093.5C 689.5,1093.5 688.5,1093.5 687.5,1093.5C 687.5,1094.5 687.5,1095.5 687.5,1096.5C 686.5,1096.5 685.5,1096.5 684.5,1096.5C 684.5,1097.5 684.5,1098.5 684.5,1099.5C 683.325,1099.28 682.325,1099.61 681.5,1100.5C 666.68,1115.15 652.013,1129.99 637.5,1145C 634.898,1147.13 632.232,1148.96 629.5,1150.5C 629.5,1151.5 629.5,1152.5 629.5,1153.5C 628.5,1153.5 627.5,1153.5 626.5,1153.5C 624.043,1157.94 620.709,1161.78 616.5,1165C 610.956,1168.94 604.956,1172.11 598.5,1174.5C 597.718,1172.55 596.384,1171.05 594.5,1170C 595.167,1169.67 595.833,1169.33 596.5,1169C 595.174,1152.89 594.507,1136.55 594.5,1120C 595.143,1088.79 595.143,1057.62 594.5,1026.5C 595.09,1025.2 596.09,1024.37 597.5,1024C 596.338,1023.17 595.171,1022.34 594,1021.5C 593.5,1021.67 593,1021.83 592.5,1022C 593.308,1022.31 593.975,1022.81 594.5,1023.5C 593.469,1024.7 592.635,1026.03 592,1027.5C 591.323,1025.31 590.156,1024.98 588.5,1026.5C 587.667,1028.5 586.833,1030.5 586,1032.5C 585.439,1033.02 584.772,1033.36 584,1033.5C 584.156,1030.72 583.323,1028.72 581.5,1027.5C 583.048,1027.18 583.715,1026.18 583.5,1024.5C 584.5,1024.5 585.5,1024.5 586.5,1024.5C 586.729,1022.57 587.562,1020.9 589,1019.5C 593.929,1014.95 598.763,1010.28 603.5,1005.5C 604.325,1004.61 605.325,1004.28 606.5,1004.5C 606.5,1003.5 606.5,1002.5 606.5,1001.5C 607.5,1001.5 608.5,1001.5 609.5,1001.5C 609.5,1000.5 609.5,999.5 609.5,998.5C 610.5,998.5 611.5,998.5 612.5,998.5C 615.5,992.167 620.167,987.5 626.5,984.5C 626.5,983.5 626.5,982.5 626.5,981.5C 627.5,981.5 628.5,981.5 629.5,981.5C 629.5,980.5 629.5,979.5 629.5,978.5C 630.5,978.5 631.5,978.5 632.5,978.5C 632.5,977.5 632.5,976.5 632.5,975.5C 633.5,975.5 634.5,975.5 635.5,975.5C 635.5,974.5 635.5,973.5 635.5,972.5C 636.5,972.5 637.5,972.5 638.5,972.5C 638.5,971.5 638.5,970.5 638.5,969.5C 639.5,969.5 640.5,969.5 641.5,969.5C 643.167,966.833 644.833,964.167 646.5,961.5C 647.5,961.5 648.5,961.5 649.5,961.5C 649.5,960.5 649.5,959.5 649.5,958.5C 650.5,958.5 651.5,958.5 652.5,958.5C 652.5,957.5 652.5,956.5 652.5,955.5C 653.675,955.719 654.675,955.386 655.5,954.5C 665.654,944.513 675.654,934.346 685.5,924C 688.102,921.869 690.768,920.035 693.5,918.5C 693.5,917.5 693.5,916.5 693.5,915.5C 694.5,915.5 695.5,915.5 696.5,915.5C 697.707,911.626 700.04,908.626 703.5,906.5C 703.721,907.735 704.388,908.735 705.5,909.5C 705.291,910.086 704.957,910.586 704.5,911C 706.719,913.991 708.719,913.991 710.5,911C 708.104,908.467 708.771,907.967 712.5,909.5C 713.524,908.147 714.857,907.48 716.5,907.5C 716.5,906.5 716.5,905.5 716.5,904.5C 717.5,904.5 718.5,904.5 719.5,904.5C 719.5,903.5 719.5,902.5 719.5,901.5C 720.5,901.5 721.5,901.5 722.5,901.5C 722.363,952.772 722.53,1003.77 723,1054.5C 722.333,1051.83 721.667,1051.83 721,1054.5C 719.16,1053.17 718.66,1053.33 719.5,1055C 717.543,1057.41 717.543,1059.91 719.5,1062.5 Z"/></g>
<g><path style="opacity:0.989" fill="#7bc9fb" d="M 385.5,1232.5 C 376.703,1235.45 367.703,1237.95 358.5,1240C 349.167,1240.67 339.833,1240.67 330.5,1240C 321.322,1237.69 312.989,1233.86 305.5,1228.5C 305.5,1227.5 305.5,1226.5 305.5,1225.5C 304.448,1225.65 303.448,1225.48 302.5,1225C 300.092,1222.31 298.092,1219.48 296.5,1216.5C 295.5,1216.5 294.5,1216.5 293.5,1216.5C 290.038,1210.17 287.205,1203.5 285,1196.5C 283.484,1186.13 283.484,1175.8 285,1165.5C 287.003,1158.16 289.003,1150.82 291,1143.5C 293.286,1140.64 294.12,1137.3 293.5,1133.5C 294.5,1133.5 295.5,1133.5 296.5,1133.5C 296.335,1130.48 296.502,1127.48 297,1124.5C 298.916,1118.05 300.916,1111.72 303,1105.5C 303.414,1105.04 303.914,1104.71 304.5,1104.5C 305.9,1098.09 307.4,1091.76 309,1085.5C 309.667,1084.83 310.333,1084.17 311,1083.5C 316.545,1062.16 322.545,1041.16 329,1020.5C 329.667,1019.83 330.333,1019.17 331,1018.5C 332.601,1012.91 334.101,1007.24 335.5,1001.5C 336.086,1001.29 336.586,1000.96 337,1000.5C 337.333,997.5 337.667,994.5 338,991.5C 342.204,979.308 345.871,966.975 349,954.5C 351.286,951.635 352.12,948.302 351.5,944.5C 352.5,944.5 353.5,944.5 354.5,944.5C 354.5,941.5 354.5,938.5 354.5,935.5C 355.5,935.5 356.5,935.5 357.5,935.5C 357.187,932.753 357.52,930.086 358.5,927.5C 360.021,924.388 361.687,921.388 363.5,918.5C 364.5,918.5 365.5,918.5 366.5,918.5C 366.729,916.567 367.562,914.9 369,913.5C 371.619,910.792 374.452,908.459 377.5,906.5C 378.75,906.093 379.917,906.759 381,908.5C 382.075,906.17 383.575,904.837 385.5,904.5C 386.821,1014.18 386.821,1123.51 385.5,1232.5 Z"/></g>
<g><path style="opacity:0.984" fill="#78befb" d="M 598.5,1174.5 C 563.708,1183.95 528.708,1193.28 493.5,1202.5C 491.537,1201.43 489.87,1199.43 488.5,1196.5C 488.167,1178 487.833,1159.5 487.5,1141C 487.506,1122.12 488.173,1103.45 489.5,1085C 488.495,1083.49 487.162,1082.33 485.5,1081.5C 484.873,1080.58 484.539,1079.58 484.5,1078.5C 497.172,1075.5 509.838,1072.5 522.5,1069.5C 522.709,1068.91 523.043,1068.41 523.5,1068C 527.152,1067.5 530.818,1067.33 534.5,1067.5C 534.5,1066.5 534.5,1065.5 534.5,1064.5C 539.492,1064.69 544.159,1063.69 548.5,1061.5C 548.5,1060.5 548.5,1059.5 548.5,1058.5C 549.5,1058.5 550.5,1058.5 551.5,1058.5C 551.5,1057.5 551.5,1056.5 551.5,1055.5C 552.675,1055.72 553.675,1055.39 554.5,1054.5C 563.548,1045.45 572.548,1036.45 581.5,1027.5C 583.323,1028.72 584.156,1030.72 584,1033.5C 584.772,1033.36 585.439,1033.02 586,1032.5C 586.833,1030.5 587.667,1028.5 588.5,1026.5C 590.156,1024.98 591.323,1025.31 592,1027.5C 592.635,1026.03 593.469,1024.7 594.5,1023.5C 593.975,1022.81 593.308,1022.31 592.5,1022C 593,1021.83 593.5,1021.67 594,1021.5C 595.171,1022.34 596.338,1023.17 597.5,1024C 596.09,1024.37 595.09,1025.2 594.5,1026.5C 595.143,1057.62 595.143,1088.79 594.5,1120C 594.507,1136.55 595.174,1152.89 596.5,1169C 595.833,1169.33 595.167,1169.67 594.5,1170C 596.384,1171.05 597.718,1172.55 598.5,1174.5 Z"/></g>
<g><path style="opacity:0.986" fill="#73abfa" d="M 1279.5,1219.5 C 1279.5,1238.5 1279.5,1257.5 1279.5,1276.5C 1278.68,1280.31 1278.18,1284.31 1278,1288.5C 1277.58,1289.67 1276.91,1290.67 1276,1291.5C 1275.53,1298.08 1274.19,1304.41 1272,1310.5C 1269.79,1313 1268.95,1316 1269.5,1319.5C 1268.5,1319.5 1267.5,1319.5 1266.5,1319.5C 1266.12,1324.37 1264.95,1329.04 1263,1333.5C 1258.95,1340.6 1255.11,1347.94 1251.5,1355.5C 1248.28,1360.43 1244.78,1365.1 1241,1369.5C 1240.4,1372.54 1239.24,1375.21 1237.5,1377.5C 1236.5,1377.5 1235.5,1377.5 1234.5,1377.5C 1232.69,1383.21 1229.36,1387.88 1224.5,1391.5C 1223.61,1392.32 1223.28,1393.32 1223.5,1394.5C 1222.5,1394.5 1221.5,1394.5 1220.5,1394.5C 1220.5,1395.5 1220.5,1396.5 1220.5,1397.5C 1219.5,1397.5 1218.5,1397.5 1217.5,1397.5C 1217.5,1398.5 1217.5,1399.5 1217.5,1400.5C 1216.5,1400.5 1215.5,1400.5 1214.5,1400.5C 1214.5,1401.5 1214.5,1402.5 1214.5,1403.5C 1211.7,1405.4 1208.7,1407.07 1205.5,1408.5C 1205.5,1409.5 1205.5,1410.5 1205.5,1411.5C 1204.5,1411.5 1203.5,1411.5 1202.5,1411.5C 1201.03,1414.89 1198.69,1417.72 1195.5,1420C 1191.82,1422.06 1188.48,1424.56 1185.5,1427.5C 1182.32,1428.6 1179.32,1429.93 1176.5,1431.5C 1176.5,1432.5 1176.5,1433.5 1176.5,1434.5C 1174.71,1434.21 1173.05,1434.55 1171.5,1435.5C 1168.6,1438.57 1165.26,1441.07 1161.5,1443C 1153.53,1446.61 1145.53,1450.28 1137.5,1454C 1134.35,1453.99 1131.68,1454.99 1129.5,1457C 1126.85,1457.5 1124.19,1457.66 1121.5,1457.5C 1121.5,1458.5 1121.5,1459.5 1121.5,1460.5C 1109.62,1462.47 1097.95,1464.81 1086.5,1467.5C 1039.17,1467.5 991.833,1467.5 944.5,1467.5C 944.215,1429.69 944.548,1391.85 945.5,1354C 937.167,1353.67 928.833,1353.33 920.5,1353C 929.01,1352.83 937.343,1352.33 945.5,1351.5C 979.507,1351.83 1013.51,1351.5 1047.5,1350.5C 1048.03,1349.81 1048.69,1349.31 1049.5,1349C 1056.83,1348.67 1064.17,1348.33 1071.5,1348C 1071.96,1347.59 1072.29,1347.09 1072.5,1346.5C 1078.54,1345.57 1084.21,1343.91 1089.5,1341.5C 1096.3,1337.94 1103.3,1334.6 1110.5,1331.5C 1110.5,1330.5 1110.5,1329.5 1110.5,1328.5C 1111.98,1328.76 1113.31,1328.43 1114.5,1327.5C 1119.49,1323.39 1124.15,1318.89 1128.5,1314C 1129.9,1312.56 1131.57,1311.73 1133.5,1311.5C 1136.98,1303.88 1141.48,1296.88 1147,1290.5C 1147.49,1288.87 1147.66,1287.2 1147.5,1285.5C 1148.5,1285.5 1149.5,1285.5 1150.5,1285.5C 1149.96,1282.34 1150.8,1279.67 1153,1277.5C 1155.33,1272.23 1156.66,1266.56 1157,1260.5C 1157.41,1260.04 1157.91,1259.71 1158.5,1259.5C 1159.45,1245.87 1160.95,1232.54 1163,1219.5C 1165.3,1213.72 1167.8,1208.05 1170.5,1202.5C 1171.5,1202.5 1172.5,1202.5 1173.5,1202.5C 1175.17,1196.17 1179.17,1192.17 1185.5,1190.5C 1185.5,1189.5 1185.5,1188.5 1185.5,1187.5C 1191.14,1185.02 1196.81,1182.52 1202.5,1180C 1215.18,1179.17 1227.85,1179.33 1240.5,1180.5C 1246.28,1182.7 1251.95,1185.03 1257.5,1187.5C 1257.5,1188.5 1257.5,1189.5 1257.5,1190.5C 1258.5,1190.5 1259.5,1190.5 1260.5,1190.5C 1260.5,1191.5 1260.5,1192.5 1260.5,1193.5C 1261.5,1193.5 1262.5,1193.5 1263.5,1193.5C 1263.5,1194.5 1263.5,1195.5 1263.5,1196.5C 1264.5,1196.5 1265.5,1196.5 1266.5,1196.5C 1266.5,1197.5 1266.5,1198.5 1266.5,1199.5C 1267.5,1199.5 1268.5,1199.5 1269.5,1199.5C 1269.5,1200.5 1269.5,1201.5 1269.5,1202.5C 1270.5,1202.5 1271.5,1202.5 1272.5,1202.5C 1274.38,1208.38 1276.72,1214.05 1279.5,1219.5 Z"/></g>
<g><path style="opacity:0.995" fill="#81ddfb" d="M -0.5,1345.5 C 2.02173,1345.13 4.02173,1345.96 5.5,1348C 12.8333,1348.33 20.1667,1348.67 27.5,1349C 31.506,1351.2 35.8393,1352.03 40.5,1351.5C 57.3471,1352.23 74.3471,1353.06 91.5,1354C 90.2068,1391.44 90.2068,1428.94 91.5,1466.5C 95.3714,1466.19 99.0381,1466.52 102.5,1467.5C 68.1667,1467.5 33.8333,1467.5 -0.5,1467.5C -0.5,1426.83 -0.5,1386.17 -0.5,1345.5 Z"/></g>
<g><path style="opacity:0.989" fill="#7fd7fb" d="M 40.5,1351.5 C 100.5,1351.5 160.5,1351.5 220.5,1351.5C 203.765,1352.17 186.931,1352.84 170,1353.5C 169.5,1391.17 169.333,1428.83 169.5,1466.5C 174.363,1466.18 179.03,1466.51 183.5,1467.5C 156.5,1467.5 129.5,1467.5 102.5,1467.5C 99.0381,1466.52 95.3714,1466.19 91.5,1466.5C 90.2068,1428.94 90.2068,1391.44 91.5,1354C 74.3471,1353.06 57.3471,1352.23 40.5,1351.5 Z"/></g>
<g><path style="opacity:0.993" fill="#7ed1fb" d="M 220.5,1351.5 C 237.167,1351.5 253.833,1351.5 270.5,1351.5C 269.048,1352.3 267.382,1352.8 265.5,1353C 266.793,1353.49 268.127,1353.66 269.5,1353.5C 267.199,1390.96 266.866,1428.63 268.5,1466.5C 274.026,1466.18 279.36,1466.51 284.5,1467.5C 250.833,1467.5 217.167,1467.5 183.5,1467.5C 179.03,1466.51 174.363,1466.18 169.5,1466.5C 169.333,1428.83 169.5,1391.17 170,1353.5C 186.931,1352.84 203.765,1352.17 220.5,1351.5 Z"/></g>
<g><path style="opacity:0.981" fill="#7bc9fb" d="M 270.5,1351.5 C 325.833,1351.5 381.167,1351.5 436.5,1351.5C 420.098,1352.17 403.598,1352.84 387,1353.5C 386.5,1391.17 386.333,1428.83 386.5,1466.5C 392.358,1466.18 398.025,1466.51 403.5,1467.5C 375.833,1467.5 348.167,1467.5 320.5,1467.5C 319.507,1429.57 319.173,1391.57 319.5,1353.5C 302.833,1353.5 286.167,1353.5 269.5,1353.5C 268.127,1353.66 266.793,1353.49 265.5,1353C 267.382,1352.8 269.048,1352.3 270.5,1351.5 Z"/></g>
<g><path style="opacity:0.993" fill="#7ac4fb" d="M 436.5,1351.5 C 454.167,1351.5 471.833,1351.5 489.5,1351.5C 483.347,1352.33 477.013,1352.83 470.5,1353C 476.044,1354.4 481.71,1354.9 487.5,1354.5C 487.211,1391.85 487.545,1429.18 488.5,1466.5C 494.026,1466.18 499.36,1466.51 504.5,1467.5C 470.833,1467.5 437.167,1467.5 403.5,1467.5C 398.025,1466.51 392.358,1466.18 386.5,1466.5C 386.333,1428.83 386.5,1391.17 387,1353.5C 403.598,1352.84 420.098,1352.17 436.5,1351.5 Z"/></g>
<g><path style="opacity:0.994" fill="#78befb" d="M 489.5,1351.5 C 517.5,1351.5 545.5,1351.5 573.5,1351.5C 580.989,1352.33 588.656,1352.83 596.5,1353C 596,1353.5 595.5,1354 595,1354.5C 594.553,1392.26 594.386,1429.93 594.5,1467.5C 564.5,1467.5 534.5,1467.5 504.5,1467.5C 499.36,1466.51 494.026,1466.18 488.5,1466.5C 487.545,1429.18 487.211,1391.85 487.5,1354.5C 481.71,1354.9 476.044,1354.4 470.5,1353C 477.013,1352.83 483.347,1352.33 489.5,1351.5 Z"/></g>
<g><path style="opacity:0.989" fill="#75b1fa" d="M 759.5,1351.5 C 821.5,1351.5 883.5,1351.5 945.5,1351.5C 937.343,1352.33 929.01,1352.83 920.5,1353C 928.833,1353.33 937.167,1353.67 945.5,1354C 944.548,1391.85 944.215,1429.69 944.5,1467.5C 902.167,1467.5 859.833,1467.5 817.5,1467.5C 797.674,1466.5 777.674,1466.17 757.5,1466.5C 756.545,1429.18 756.211,1391.85 756.5,1354.5C 746.999,1354.97 737.666,1354.47 728.5,1353C 739.008,1352.83 749.341,1352.33 759.5,1351.5 Z"/></g>
<g><path style="opacity:0.004" fill="#000000" d="M 1279.5,1351.5 C 1279.5,1387.5 1279.5,1423.5 1279.5,1459.5C 1278.17,1423.5 1278.17,1387.5 1279.5,1351.5 Z"/></g>
<g><path style="opacity:0.998" fill="#77b8fb" d="M 573.5,1351.5 C 635.5,1351.5 697.5,1351.5 759.5,1351.5C 749.341,1352.33 739.008,1352.83 728.5,1353C 737.666,1354.47 746.999,1354.97 756.5,1354.5C 756.211,1391.85 756.545,1429.18 757.5,1466.5C 777.674,1466.17 797.674,1466.5 817.5,1467.5C 743.167,1467.5 668.833,1467.5 594.5,1467.5C 594.386,1429.93 594.553,1392.26 595,1354.5C 595.5,1354 596,1353.5 596.5,1353C 588.656,1352.83 580.989,1352.33 573.5,1351.5 Z"/></g>
<g><path style="opacity:0.999" fill="#7dcdfb" d="M 269.5,1353.5 C 286.167,1353.5 302.833,1353.5 319.5,1353.5C 319.173,1391.57 319.507,1429.57 320.5,1467.5C 308.5,1467.5 296.5,1467.5 284.5,1467.5C 279.36,1466.51 274.026,1466.18 268.5,1466.5C 266.866,1428.63 267.199,1390.96 269.5,1353.5 Z"/></g>
</svg>
