<?xml version="1.0" encoding="UTF-8"?>
<!DOCTYPE svg PUBLIC "-//W3C//DTD SVG 1.1//EN" "http://www.w3.org/Graphics/SVG/1.1/DTD/svg11.dtd">
<svg xmlns="http://www.w3.org/2000/svg" version="1.1" width="1280px" height="1280px" style="shape-rendering:geometricPrecision; text-rendering:geometricPrecision; image-rendering:optimizeQuality; fill-rule:evenodd; clip-rule:evenodd" xmlns:xlink="http://www.w3.org/1999/xlink">
<g><path style="opacity:0.951" fill="#042738" d="M 397.5,34.5 C 501.167,34.3333 604.834,34.5 708.5,35C 711.289,35.2414 713.956,35.908 716.5,37C 745.964,59.7611 763.13,89.5944 768,126.5C 768.667,129.833 768.667,133.167 768,136.5C 766.333,146.443 764.667,156.443 763,166.5C 762.586,166.957 762.086,167.291 761.5,167.5C 759.379,177.093 756.545,186.427 753,195.5C 752.104,198.082 750.771,200.416 749,202.5C 745.068,213.93 741.734,225.596 739,237.5C 737.666,245.248 738.666,252.581 742,259.5C 745.776,265.347 750.276,270.68 755.5,275.5C 761.795,280.301 768.461,284.468 775.5,288C 804.186,299.508 833.52,308.675 863.5,315.5C 873.946,322.084 877.446,331.417 874,343.5C 871.663,349.002 867.83,353.002 862.5,355.5C 855.524,356.664 848.524,356.831 841.5,356C 832.137,352.696 822.47,350.362 812.5,349C 811.833,348.333 811.167,347.667 810.5,347C 775.875,339.911 744.875,325.244 717.5,303C 697.395,282.325 689.895,257.492 695,228.5C 697.703,219.876 700.036,211.21 702,202.5C 708.455,185.611 714.622,168.611 720.5,151.5C 722.912,142.296 723.745,132.963 723,123.5C 717.635,104.201 707.468,87.8677 692.5,74.5C 685.744,70.4219 679.078,66.2552 672.5,62C 665.551,58.4108 658.217,55.7441 650.5,54C 649.833,53.3333 649.167,52.6667 648.5,52C 638.538,50.5837 628.871,48.2504 619.5,45C 600.14,43.4721 580.807,41.6388 561.5,39.5C 537.428,41.2963 513.428,43.7963 489.5,47C 488.833,47.6667 488.167,48.3333 487.5,49C 481.833,50 476.167,51 470.5,52C 452.773,58.2461 435.106,64.9128 417.5,72C 394.694,82.8201 372.694,94.9867 351.5,108.5C 349.955,109.452 348.288,109.785 346.5,109.5C 345.48,112.843 343.146,114.843 339.5,115.5C 336.901,118.659 333.567,120.659 329.5,121.5C 329.5,122.5 329.5,123.5 329.5,124.5C 326.99,124.991 324.656,125.991 322.5,127.5C 307.093,139.398 292.093,151.898 277.5,165C 275.783,166.559 273.783,167.392 271.5,167.5C 269.167,173.167 265.167,177.167 259.5,179.5C 259.167,182.5 257.5,184.167 254.5,184.5C 252.167,190.167 248.167,194.167 242.5,196.5C 242.719,197.675 242.386,198.675 241.5,199.5C 158.303,289.929 106.47,395.596 86,516.5C 84.1315,530.993 83.1315,545.66 83,560.5C 82.7508,561.624 82.2508,562.624 81.5,563.5C 80.3337,579.823 80.1671,596.156 81,612.5C 82.0437,613.623 82.7104,614.956 83,616.5C 83.1235,630.676 84.1235,644.676 86,658.5C 87.117,659.949 87.7837,661.616 88,663.5C 89.5585,673.851 91.2252,684.184 93,694.5C 93.6667,695.167 94.3333,695.833 95,696.5C 96,701.833 97,707.167 98,712.5C 101.05,719.915 103.55,727.582 105.5,735.5C 113.958,756.361 123.458,777.028 134,797.5C 138.962,805.654 144.295,813.654 150,821.5C 150.49,822.793 150.657,824.127 150.5,825.5C 151.5,825.5 152.5,825.5 153.5,825.5C 154.663,830.49 157.33,834.49 161.5,837.5C 163.963,840.613 165.963,843.947 167.5,847.5C 168.675,847.281 169.675,847.614 170.5,848.5C 173.407,851.975 176.073,855.641 178.5,859.5C 230.395,913.768 292.729,949.268 365.5,966C 369.071,967.648 372.738,968.981 376.5,970C 390.139,971.44 403.472,973.773 416.5,977C 434.622,979.289 452.955,980.622 471.5,981C 476.941,983.274 480.941,987.107 483.5,992.5C 488.253,1016.08 478.587,1026.75 454.5,1024.5C 383.531,1021.26 316.531,1004.09 253.5,973C 201.806,945.322 157.973,908.155 122,861.5C 120.565,857.51 118.232,854.176 115,851.5C 114.51,850.207 114.343,848.873 114.5,847.5C 112.408,847.439 110.908,846.439 110,844.5C 71.1736,783.279 47.8402,716.612 40,644.5C 39.6667,635.5 39.3333,626.5 39,617.5C 38.3333,616.167 37.6667,614.833 37,613.5C 36.3333,597.167 36.3333,580.833 37,564.5C 37.6667,563.167 38.3333,561.833 39,560.5C 39.469,544.465 40.469,528.465 42,512.5C 61.9126,390.338 111.913,282.005 192,187.5C 238.796,134.641 292.296,90.1405 352.5,54C 363.508,48.3188 374.508,42.6521 385.5,37C 389.609,36.0557 393.609,35.2224 397.5,34.5 Z"/></g>
<g><path style="opacity:0.953" fill="#042738" d="M 1140.5,34.5 C 1159.2,34.2051 1177.87,34.5384 1196.5,35.5C 1198.03,43.9868 1198.86,52.6535 1199,61.5C 1200.12,62.9494 1200.78,64.6161 1201,66.5C 1201.67,94.1667 1201.67,121.833 1201,149.5C 1200.71,151.044 1200.04,152.377 1199,153.5C 1195.36,203.525 1175.53,246.025 1139.5,281C 1132.15,286.757 1124.82,292.424 1117.5,298C 1106.57,304.632 1095.23,310.298 1083.5,315C 1079.49,315.787 1075.49,316.62 1071.5,317.5C 1062.81,316.795 1056.14,312.795 1051.5,305.5C 1050.02,297.371 1050.35,289.371 1052.5,281.5C 1053.5,281.5 1054.5,281.5 1055.5,281.5C 1055.28,280.325 1055.61,279.325 1056.5,278.5C 1058.83,277 1061.17,275.5 1063.5,274C 1090.97,264.3 1112.97,247.467 1129.5,223.5C 1137.38,210.744 1143.88,197.41 1149,183.5C 1150,178.167 1151,172.833 1152,167.5C 1152.42,166.328 1153.09,165.328 1154,164.5C 1157.09,135.994 1157.75,107.328 1156,78.5C 1148.68,84.8338 1140.85,90.3338 1132.5,95C 1124.08,98.7071 1115.75,102.707 1107.5,107C 1076.23,117.901 1049.39,135.734 1027,160.5C 1025.09,163.994 1022.92,167.328 1020.5,170.5C 1018.96,173.356 1017.96,176.356 1017.5,179.5C 1016.5,179.5 1015.5,179.5 1014.5,179.5C 1013.61,188.184 1011.44,196.517 1008,204.5C 1007.33,217.833 1007.33,231.167 1008,244.5C 1010.07,256.021 1005.57,264.021 994.5,268.5C 977.071,271.89 966.905,264.89 964,247.5C 956.158,186.07 976.658,136.903 1025.5,100C 1043.83,86.1697 1063.83,75.503 1085.5,68C 1096.57,61.9012 1107.9,56.2346 1119.5,51C 1125.34,46.5477 1130.68,41.5477 1135.5,36C 1137.38,35.8019 1139.05,35.3019 1140.5,34.5 Z"/></g>
<g><path style="opacity:0.955" fill="#042738" d="M 291.5,230.5 C 339.695,231.206 370.861,254.539 385,300.5C 386.184,317.362 385.517,334.029 383,350.5C 378.579,360.664 373.079,370.33 366.5,379.5C 365.675,380.386 364.675,380.719 363.5,380.5C 360.111,386.392 355.445,391.225 349.5,395C 345.357,396.601 341.69,398.934 338.5,402C 334.3,403.204 330.3,404.871 326.5,407C 310.029,409.517 293.362,410.184 276.5,409C 241.958,399.634 219.458,377.801 209,343.5C 200.738,295.967 217.904,260.801 260.5,238C 265.528,236.324 270.528,234.657 275.5,233C 281.26,233.122 286.593,232.289 291.5,230.5 Z M 293.5,274.5 C 329.482,278.796 345.148,298.796 340.5,334.5C 332.646,355.227 317.646,365.894 295.5,366.5C 268.654,362.655 253.654,347.322 250.5,320.5C 251.754,316.23 252.754,311.896 253.5,307.5C 255.548,302.783 257.548,298.117 259.5,293.5C 262.101,292.72 264.101,291.054 265.5,288.5C 273.856,281.312 283.189,276.646 293.5,274.5 Z"/></g>
<g><path style="opacity:0.954" fill="#042738" d="M 953.5,278.5 C 960.175,278.334 966.842,278.5 973.5,279C 999.74,294.09 1026.07,308.923 1052.5,323.5C 1055.68,325.988 1058.18,328.988 1060,332.5C 1060.67,339.167 1060.67,345.833 1060,352.5C 1039.87,399.932 1019.87,447.599 1000,495.5C 980.812,539.292 961.478,582.959 942,626.5C 937.04,635.62 932.373,644.954 928,654.5C 926.869,657.445 926.036,660.445 925.5,663.5C 924.5,663.5 923.5,663.5 922.5,663.5C 922.66,665.199 922.494,666.866 922,668.5C 891.523,735.296 858.523,800.962 823,865.5C 790.713,919.598 756.047,972.265 719,1023.5C 718.092,1025.44 716.592,1026.44 714.5,1026.5C 714.392,1028.78 713.559,1030.78 712,1032.5C 666.522,1093.32 616.355,1150.15 561.5,1203C 554.221,1207.95 547.554,1213.61 541.5,1220C 539.783,1221.56 537.783,1222.39 535.5,1222.5C 535.719,1223.68 535.386,1224.68 534.5,1225.5C 528.691,1229.15 523.024,1232.98 517.5,1237C 547.5,1237.33 577.5,1237.67 607.5,1238C 641.317,1241 672.984,1250.33 702.5,1266C 706.402,1268.82 710.402,1271.49 714.5,1274C 606.167,1274.67 497.833,1274.67 389.5,1274C 426.599,1255.99 465.599,1244.32 506.5,1239C 490.378,1242.67 479.878,1236.83 475,1221.5C 474.333,1209.83 474.333,1198.17 475,1186.5C 478.168,1173.69 480.501,1160.69 482,1147.5C 498.052,1085.06 517.385,1023.73 540,963.5C 572.401,878.654 610.401,796.321 654,716.5C 712.792,614.257 777.125,515.59 847,420.5C 853.102,411.43 859.102,402.43 865,393.5C 890.651,358.885 916.317,324.218 942,289.5C 945.399,285.265 949.233,281.598 953.5,278.5 Z M 968.5,329.5 C 973.218,331.298 977.885,333.298 982.5,335.5C 991.909,341.603 1001.58,347.269 1011.5,352.5C 996.547,388.056 981.381,423.389 966,458.5C 944.045,446.442 922.212,434.275 900.5,422C 923.062,391.021 945.729,360.188 968.5,329.5 Z M 522.5,1176.5 C 526.357,1156.16 530.857,1136.16 536,1116.5C 546.76,1080.72 558.26,1045.05 570.5,1009.5C 609.393,901.979 657.727,798.979 715.5,700.5C 751.759,640.188 789.926,580.855 830,522.5C 830.49,521.207 830.657,519.873 830.5,518.5C 831.675,518.719 832.675,518.386 833.5,517.5C 846.075,497.218 859.908,477.885 875,459.5C 899.503,473.331 924.003,486.997 948.5,500.5C 928.401,546.7 907.567,592.367 886,637.5C 851.291,716.647 812.291,793.647 769,868.5C 730.155,931.244 687.655,991.577 641.5,1049.5C 622.183,1072.32 602.683,1094.98 583,1117.5C 564.386,1136.4 545.552,1155.07 526.5,1173.5C 525.614,1174.32 525.281,1175.32 525.5,1176.5C 524.5,1176.5 523.5,1176.5 522.5,1176.5 Z"/></g>
<g><path style="opacity:0.953" fill="#042738" d="M 660.5,331.5 C 703.561,327.004 733.728,344.338 751,383.5C 764.592,440.042 752.092,490.042 713.5,533.5C 698.619,549.587 680.952,561.421 660.5,569C 626,579.99 596.333,572.49 571.5,546.5C 556.183,527.434 549.183,505.434 550.5,480.5C 551.843,433.176 569.843,393.51 604.5,361.5C 605.386,360.675 605.719,359.675 605.5,358.5C 613.985,352.875 622.651,347.375 631.5,342C 641.177,338.082 650.844,334.582 660.5,331.5 Z M 673.5,375.5 C 681.158,375.212 688.158,377.045 694.5,381C 702.924,387.699 708.424,396.199 711,406.5C 714.872,442.035 705.372,473.368 682.5,500.5C 672.98,510.232 662.313,518.399 650.5,525C 625.245,534.087 607.579,526.254 597.5,501.5C 597.054,494.075 595.721,486.909 593.5,480C 593.26,477.109 594.093,474.609 596,472.5C 596.105,464.623 597.105,456.956 599,449.5C 606.689,429.134 618.189,411.134 633.5,395.5C 637.776,393.207 641.443,390.207 644.5,386.5C 648,384.947 651.333,383.113 654.5,381C 660.97,378.944 667.303,377.111 673.5,375.5 Z"/></g>
<g><path style="opacity:0.954" fill="#042738" d="M 199.5,455.5 C 205.509,455.334 211.509,455.501 217.5,456C 239.052,458.107 258.052,466.273 274.5,480.5C 275.853,481.524 276.52,482.857 276.5,484.5C 277.675,484.281 278.675,484.614 279.5,485.5C 302.64,510.235 311.14,539.569 305,573.5C 302.747,580.793 300.414,588.127 298,595.5C 294.753,602.267 290.753,608.6 286,614.5C 283.358,616.377 281.191,618.711 279.5,621.5C 278.675,622.386 277.675,622.719 276.5,622.5C 276.719,623.675 276.386,624.675 275.5,625.5C 272.711,627.191 270.377,629.358 268.5,632C 263.135,635.769 257.468,639.103 251.5,642C 244.608,643.943 237.941,646.277 231.5,649C 192.982,656.133 160.482,645.3 134,616.5C 132.441,614.783 131.608,612.783 131.5,610.5C 130.5,610.5 129.5,610.5 128.5,610.5C 124.72,602.941 120.887,595.274 117,587.5C 114.009,576.208 112.176,564.708 111.5,553C 112.14,541.616 113.973,530.449 117,519.5C 120.887,511.726 124.72,504.059 128.5,496.5C 129.5,496.5 130.5,496.5 131.5,496.5C 131.343,495.127 131.51,493.793 132,492.5C 150.226,471.777 172.726,459.444 199.5,455.5 Z M 203.5,499.5 C 232.125,499.742 251.292,513.409 261,540.5C 265.064,576.425 249.564,598.591 214.5,607C 203.08,607.492 192.413,604.992 182.5,599.5C 177.426,595.734 172.426,592.067 167.5,588.5C 162.826,580.868 159.159,572.868 156.5,564.5C 155.167,557.167 155.167,549.833 156.5,542.5C 159.599,534.329 163.265,526.329 167.5,518.5C 170.5,518.167 172.167,516.5 172.5,513.5C 177.813,511.178 182.813,508.345 187.5,505C 192.961,502.966 198.294,501.133 203.5,499.5 Z"/></g>
<g><path style="opacity:0.949" fill="#042738" d="M 1041.5,477.5 C 1047.03,477.206 1052.36,478.039 1057.5,480C 1062.05,483.253 1065.55,487.42 1068,492.5C 1070.52,514.319 1071.18,536.319 1070,558.5C 1066.89,571.591 1064.56,584.925 1063,598.5C 1055.04,625.908 1045.37,652.908 1034,679.5C 1018.87,710.75 1001.87,741.084 983,770.5C 970.359,787.471 957.359,804.138 944,820.5C 925.798,839.037 906.964,856.87 887.5,874C 870.617,884.449 858.117,880.616 850,862.5C 848.993,856.888 849.659,851.555 852,846.5C 858.535,838.965 865.701,832.131 873.5,826C 874.448,825.517 875.448,825.351 876.5,825.5C 876.281,824.325 876.614,823.325 877.5,822.5C 904.706,797.68 928.373,770.014 948.5,739.5C 949.325,738.614 950.325,738.281 951.5,738.5C 951.343,737.127 951.51,735.793 952,734.5C 978.548,692.535 999.882,648.202 1016,601.5C 1017.53,591.229 1019.86,581.229 1023,571.5C 1023.33,567.167 1023.67,562.833 1024,558.5C 1024.67,557.833 1025.33,557.167 1026,556.5C 1026.67,540.5 1026.67,524.5 1026,508.5C 1025.09,507.672 1024.42,506.672 1024,505.5C 1023.33,501.833 1023.33,498.167 1024,494.5C 1025.76,491.204 1027.59,487.871 1029.5,484.5C 1033.09,481.217 1037.09,478.884 1041.5,477.5 Z"/></g>
<g><path style="opacity:0.952" fill="#042738" d="M 315.5,695.5 C 358.389,695.694 390.556,714.361 412,751.5C 428.706,790.198 425.373,826.865 402,861.5C 401.092,863.439 399.592,864.439 397.5,864.5C 397.719,865.675 397.386,866.675 396.5,867.5C 393.842,870.124 391.175,872.791 388.5,875.5C 387.675,876.386 386.675,876.719 385.5,876.5C 385.719,877.675 385.386,878.675 384.5,879.5C 349.492,904.568 312.158,908.401 272.5,891C 230.875,866.636 212.708,830.136 218,781.5C 224.516,748.85 242.016,724.184 270.5,707.5C 284.821,700.746 299.821,696.746 315.5,695.5 Z M 314.5,739.5 C 337.564,739.731 355.897,749.065 369.5,767.5C 384.92,798.268 379.586,824.602 353.5,846.5C 320.964,864.584 293.297,859.251 270.5,830.5C 268.839,827.17 267.172,823.837 265.5,820.5C 256.423,794.423 262.089,772.089 282.5,753.5C 287.393,750.07 292.393,746.903 297.5,744C 302.585,742.085 307.919,741.085 313.5,741C 314.056,740.617 314.389,740.117 314.5,739.5 Z"/></g>
<g><path style="opacity:0.927" fill="#042738" d="M 1159.5,1237.5 C 1166.84,1237.33 1174.17,1237.5 1181.5,1238C 1185.61,1239.61 1188.61,1242.44 1190.5,1246.5C 1191.12,1248.97 1191.96,1251.3 1193,1253.5C 1193.02,1260.88 1194.18,1267.88 1196.5,1274.5C 1176.16,1274.67 1155.83,1274.5 1135.5,1274C 1142.58,1266.33 1147.41,1257.5 1150,1247.5C 1153.04,1243.96 1156.21,1240.62 1159.5,1237.5 Z"/></g>
</svg>
