<svg width="483" height="34" viewBox="0 0 483 34" fill="none" xmlns="http://www.w3.org/2000/svg">
<path d="M483 19.6667C483 21.3235 481.657 22.6667 480 22.6667V-9.53674e-06H483V19.6667Z" fill="#12668C" fill-opacity="0.8"/>
<path d="M473 19.6667C473 21.3235 471.657 22.6667 470 22.6667V-9.53674e-06H473V19.6667Z" fill="#12668C" fill-opacity="0.8"/>
<path d="M463 19.6667C463 21.3235 461.657 22.6667 460 22.6667V-9.53674e-06H463V19.6667Z" fill="#12668C" fill-opacity="0.8"/>
<path d="M453 19.6667C453 21.3235 451.657 22.6667 450 22.6667V-9.53674e-06H453V19.6667Z" fill="#12668C" fill-opacity="0.8"/>
<path d="M433 19.6667C433 21.3235 431.657 22.6667 430 22.6667V-9.53674e-06H433V19.6667Z" fill="#12668C" fill-opacity="0.8"/>
<path d="M423 19.6667C423 21.3235 421.657 22.6667 420 22.6667V-9.53674e-06H423V19.6667Z" fill="#12668C" fill-opacity="0.8"/>
<path d="M413 19.6667C413 21.3235 411.657 22.6667 410 22.6667V-9.53674e-06H413V19.6667Z" fill="#12668C" fill-opacity="0.8"/>
<path d="M403 19.6667C403 21.3235 401.657 22.6667 400 22.6667V-9.53674e-06H403V19.6667Z" fill="#12668C" fill-opacity="0.8"/>
<path d="M443 29.2564C443 30.9133 441.657 32.2564 440 32.2564V0H443V29.2564Z" fill="#12668C" fill-opacity="0.8"/>
<path d="M383 21.4103C383 23.0671 381.657 24.4102 380 24.4102V1.74358H383V21.4103Z" fill="#12668C" fill-opacity="0.8"/>
<path d="M373 21.4103C373 23.0671 371.657 24.4102 370 24.4102V1.74358H373V21.4103Z" fill="#12668C" fill-opacity="0.8"/>
<path d="M363 21.4103C363 23.0671 361.657 24.4102 360 24.4102V1.74358H363V21.4103Z" fill="#12668C" fill-opacity="0.8"/>
<path d="M353 21.4103C353 23.0671 351.657 24.4102 350 24.4102V1.74358H353V21.4103Z" fill="#12668C" fill-opacity="0.8"/>
<path d="M393 31C393 32.6569 391.657 34 390 34V1.74359H393V31Z" fill="#12668C" fill-opacity="0.8"/>
<path d="M333 21.4103C333 23.0671 331.657 24.4102 330 24.4102V1.74358H333V21.4103Z" fill="#12668C" fill-opacity="0.8"/>
<path d="M323 21.4103C323 23.0671 321.657 24.4102 320 24.4102V1.74358H323V21.4103Z" fill="#12668C" fill-opacity="0.8"/>
<path d="M313 21.4103C313 23.0671 311.657 24.4102 310 24.4102V1.74358H313V21.4103Z" fill="#12668C" fill-opacity="0.8"/>
<path d="M303 21.4103C303 23.0671 301.657 24.4102 300 24.4102V1.74358H303V21.4103Z" fill="#12668C" fill-opacity="0.8"/>
<path d="M343 31C343 32.6569 341.657 34 340 34V1.74359H343V31Z" fill="#12668C" fill-opacity="0.8"/>
<path d="M283 20.6667C283 22.3235 281.657 23.6667 280 23.6667V0.99999H283V20.6667Z" fill="#12668C" fill-opacity="0.8"/>
<path d="M273 20.6667C273 22.3235 271.657 23.6667 270 23.6667V0.99999H273V20.6667Z" fill="#12668C" fill-opacity="0.8"/>
<path d="M263 20.6667C263 22.3235 261.657 23.6667 260 23.6667V0.99999H263V20.6667Z" fill="#12668C" fill-opacity="0.8"/>
<path d="M253 20.6667C253 22.3235 251.657 23.6667 250 23.6667V0.99999H253V20.6667Z" fill="#12668C" fill-opacity="0.8"/>
<path d="M293 30.2564C293 31.9133 291.657 33.2564 290 33.2564V1H293V30.2564Z" fill="#12668C" fill-opacity="0.8"/>
<path d="M233 21.4103C233 23.0671 231.657 24.4102 230 24.4102V1.74358H233V21.4103Z" fill="#12668C" fill-opacity="0.8"/>
<path d="M223 21.4103C223 23.0671 221.657 24.4102 220 24.4102V1.74358H223V21.4103Z" fill="#12668C" fill-opacity="0.8"/>
<path d="M213 21.4103C213 23.0671 211.657 24.4102 210 24.4102V1.74358H213V21.4103Z" fill="#12668C" fill-opacity="0.8"/>
<path d="M203 21.4103C203 23.0671 201.657 24.4102 200 24.4102V1.74358H203V21.4103Z" fill="#12668C" fill-opacity="0.8"/>
<path d="M243 31C243 32.6569 241.657 34 240 34V1.74359H243V31Z" fill="#12668C" fill-opacity="0.8"/>
<path d="M183 21.4103C183 23.0671 181.657 24.4102 180 24.4102V1.74358H183V21.4103Z" fill="#12668C" fill-opacity="0.8"/>
<path d="M173 21.4103C173 23.0671 171.657 24.4102 170 24.4102V1.74358H173V21.4103Z" fill="#12668C" fill-opacity="0.8"/>
<path d="M163 21.4103C163 23.0671 161.657 24.4102 160 24.4102V1.74358H163V21.4103Z" fill="#12668C" fill-opacity="0.8"/>
<path d="M153 21.4103C153 23.0671 151.657 24.4102 150 24.4102V1.74358H153V21.4103Z" fill="#12668C" fill-opacity="0.8"/>
<path d="M193 31C193 32.6569 191.657 34 190 34V1.74359H193V31Z" fill="#12668C" fill-opacity="0.8"/>
<path d="M133 21.4103C133 23.0671 131.657 24.4102 130 24.4102V1.74358H133V21.4103Z" fill="#12668C" fill-opacity="0.8"/>
<path d="M123 21.4103C123 23.0671 121.657 24.4102 120 24.4102V1.74358H123V21.4103Z" fill="#12668C" fill-opacity="0.8"/>
<path d="M113 21.4103C113 23.0671 111.657 24.4102 110 24.4102V1.74358H113V21.4103Z" fill="#12668C" fill-opacity="0.8"/>
<path d="M103 21.4103C103 23.0671 101.657 24.4102 100 24.4102V1.74358H103V21.4103Z" fill="#12668C" fill-opacity="0.8"/>
<path d="M143 31C143 32.6569 141.657 34 140 34V1.74359H143V31Z" fill="#12668C" fill-opacity="0.8"/>
<path d="M83 21.4103C83 23.0671 81.6569 24.4102 80 24.4102V1.74358H83V21.4103Z" fill="#12668C" fill-opacity="0.8"/>
<path d="M73 21.4103C73 23.0671 71.6569 24.4102 70 24.4102V1.74358H73V21.4103Z" fill="#12668C" fill-opacity="0.8"/>
<path d="M63 21.4103C63 23.0671 61.6569 24.4102 60 24.4102V1.74358H63L63 21.4103Z" fill="#12668C" fill-opacity="0.8"/>
<path d="M53 21.4103C53 23.0671 51.6569 24.4102 50 24.4102V1.74358H53L53 21.4103Z" fill="#12668C" fill-opacity="0.8"/>
<path d="M93 31C93 32.6569 91.6569 34 90 34V1.74359H93V31Z" fill="#12668C" fill-opacity="0.8"/>
<path d="M33 21.4103C33 23.0671 31.6569 24.4102 30 24.4102L30 1.74358H33L33 21.4103Z" fill="#12668C" fill-opacity="0.8"/>
<path d="M23 21.4103C23 23.0671 21.6569 24.4102 20 24.4102L20 1.74358H23L23 21.4103Z" fill="#12668C" fill-opacity="0.8"/>
<path d="M13 21.4103C13 23.0671 11.6569 24.4102 10 24.4102L10 1.74358H13L13 21.4103Z" fill="#12668C" fill-opacity="0.8"/>
<path d="M3 21.4103C3 23.0671 1.65685 24.4102 0 24.4102L0 1.74358H3L3 21.4103Z" fill="#12668C" fill-opacity="0.8"/>
<path d="M43 31C43 32.6569 41.6569 34 40 34L40 1.74359H43L43 31Z" fill="#12668C" fill-opacity="0.8"/>
</svg>
