<?xml version="1.0" encoding="UTF-8"?>
<!DOCTYPE svg PUBLIC "-//W3C//DTD SVG 1.1//EN" "http://www.w3.org/Graphics/SVG/1.1/DTD/svg11.dtd">
<svg xmlns="http://www.w3.org/2000/svg" version="1.1" width="1280px" height="1280px" style="shape-rendering:geometricPrecision; text-rendering:geometricPrecision; image-rendering:optimizeQuality; fill-rule:evenodd; clip-rule:evenodd" xmlns:xlink="http://www.w3.org/1999/xlink">
<g><path style="opacity:0.984" fill="#fefffe" d="M 600.5,-0.5 C 628.167,-0.5 655.833,-0.5 683.5,-0.5C 688.651,0.326691 693.984,0.826691 699.5,1C 699.957,1.41395 700.291,1.91395 700.5,2.5C 708.657,3.23648 716.657,4.40315 724.5,6C 724.957,6.41395 725.291,6.91395 725.5,7.5C 731.326,8.26991 736.993,9.43658 742.5,11C 742.957,11.414 743.291,11.914 743.5,12.5C 752.897,14.436 761.897,17.1027 770.5,20.5C 770.5,21.5 770.5,22.5 770.5,23.5C 774.794,23.1816 778.794,24.0149 782.5,26C 791.865,31.4204 801.531,36.4204 811.5,41C 813.979,43.67 816.979,45.17 820.5,45.5C 820.5,46.5 820.5,47.5 820.5,48.5C 822.288,48.2148 823.955,48.5481 825.5,49.5C 827.171,51.9784 829.504,53.4784 832.5,54C 834.439,54.9078 835.439,56.4078 835.5,58.5C 837.288,58.2148 838.955,58.5481 840.5,59.5C 845.151,63.1468 849.818,66.8134 854.5,70.5C 855.386,71.325 855.719,72.325 855.5,73.5C 857.288,73.2148 858.955,73.5481 860.5,74.5C 863.833,77.8333 867.167,81.1667 870.5,84.5C 871.325,85.3857 872.325,85.719 873.5,85.5C 873.281,86.675 873.614,87.675 874.5,88.5C 882.489,94.4894 889.489,101.489 895.5,109.5C 896.325,110.386 897.325,110.719 898.5,110.5C 903.082,116.04 907.082,122.04 910.5,128.5C 911.675,128.281 912.675,128.614 913.5,129.5C 922.782,142.125 931.448,155.125 939.5,168.5C 940.452,170.045 940.785,171.712 940.5,173.5C 941.5,173.5 942.5,173.5 943.5,173.5C 944.167,176.833 944.833,180.167 945.5,183.5C 946.5,183.5 947.5,183.5 948.5,183.5C 949.167,186.833 949.833,190.167 950.5,193.5C 951.5,193.5 952.5,193.5 953.5,193.5C 956.17,200.709 958.67,208.042 961,215.5C 961.667,216.167 962.333,216.833 963,217.5C 963.827,222.588 965.494,227.254 968,231.5C 968.982,237.44 970.649,243.107 973,248.5C 974.258,254.456 975.258,260.456 976,266.5C 976.667,267.167 977.333,267.833 978,268.5C 979.653,278.341 980.82,288.341 981.5,298.5C 982.086,298.709 982.586,299.043 983,299.5C 983.667,326.167 983.667,352.833 983,379.5C 982.586,379.957 982.086,380.291 981.5,380.5C 980.82,390.659 979.653,400.659 978,410.5C 977.333,411.167 976.667,411.833 976,412.5C 975.258,418.544 974.258,424.544 973,430.5C 970.568,435.887 968.901,441.553 968,447.5C 965.494,451.746 963.827,456.412 963,461.5C 962.333,462.167 961.667,462.833 961,463.5C 958.67,470.958 956.17,478.291 953.5,485.5C 952.5,485.5 951.5,485.5 950.5,485.5C 949.833,488.833 949.167,492.167 948.5,495.5C 947.5,495.5 946.5,495.5 945.5,495.5C 944.833,498.833 944.167,502.167 943.5,505.5C 942.5,505.5 941.5,505.5 940.5,505.5C 940.785,507.288 940.452,508.955 939.5,510.5C 931.538,523.863 922.872,536.863 913.5,549.5C 912.675,550.386 911.675,550.719 910.5,550.5C 907.082,556.96 903.082,562.96 898.5,568.5C 895.5,568.833 893.833,570.5 893.5,573.5C 890.832,574.099 888.998,575.766 888,578.5C 883.92,583.086 879.42,587.086 874.5,590.5C 873.614,591.325 873.281,592.325 873.5,593.5C 872.325,593.281 871.325,593.614 870.5,594.5C 866.985,598.182 863.318,601.682 859.5,605C 858.207,605.49 856.873,605.657 855.5,605.5C 855.719,606.675 855.386,607.675 854.5,608.5C 849.818,612.187 845.151,615.853 840.5,619.5C 838.955,620.452 837.288,620.785 835.5,620.5C 835.439,622.592 834.439,624.092 832.5,625C 829.504,625.522 827.171,627.022 825.5,629.5C 823.955,630.452 822.288,630.785 820.5,630.5C 820.5,631.5 820.5,632.5 820.5,633.5C 816.979,633.83 813.979,635.33 811.5,638C 801.531,642.58 791.865,647.58 782.5,653C 778.629,654.512 774.629,655.345 770.5,655.5C 770.5,656.5 770.5,657.5 770.5,658.5C 761.897,661.897 752.897,664.564 743.5,666.5C 743.291,667.086 742.957,667.586 742.5,668C 736.782,668.878 731.115,670.045 725.5,671.5C 725.291,672.086 724.957,672.586 724.5,673C 710.192,674.763 696.192,677.096 682.5,680C 662.833,680.333 643.167,680.667 623.5,681C 622.833,681.667 622.167,682.333 621.5,683C 616.5,683.667 611.5,683.667 606.5,683C 606.043,682.586 605.709,682.086 605.5,681.5C 590.178,680.667 574.844,680.167 559.5,680C 555.681,679.119 552.014,677.785 548.5,676C 542.572,674.58 536.572,673.747 530.5,673.5C 530.5,672.5 530.5,671.5 530.5,670.5C 525.516,670.67 521.183,669.17 517.5,666C 514.167,665.667 510.833,665.333 507.5,665C 496.657,660.581 485.991,655.581 475.5,650C 463.261,640.391 451.261,630.558 439.5,620.5C 436.57,617.688 434.57,614.354 433.5,610.5C 431.712,610.785 430.045,610.452 428.5,609.5C 423.281,604.736 418.281,599.736 413.5,594.5C 412.675,593.614 411.675,593.281 410.5,593.5C 410.719,592.325 410.386,591.325 409.5,590.5C 403.489,585.823 398.156,580.489 393.5,574.5C 392.675,573.614 391.675,573.281 390.5,573.5C 390.719,572.325 390.386,571.325 389.5,570.5C 382.654,564.994 377.321,558.327 373.5,550.5C 372.325,550.719 371.325,550.386 370.5,549.5C 360.164,534.828 350.331,519.828 341,504.5C 339.617,501.632 338.784,498.632 338.5,495.5C 337.5,495.5 336.5,495.5 335.5,495.5C 334.833,492.167 334.167,488.833 333.5,485.5C 332.5,485.5 331.5,485.5 330.5,485.5C 327.83,478.291 325.33,470.958 323,463.5C 322.333,462.833 321.667,462.167 321,461.5C 320.173,456.412 318.506,451.746 316,447.5C 314.842,442.533 313.842,437.533 313,432.5C 312.333,431.833 311.667,431.167 311,430.5C 308.961,424.069 308.127,417.402 308.5,410.5C 307.5,410.5 306.5,410.5 305.5,410.5C 304.252,401.321 303.419,391.987 303,382.5C 302.085,381.672 301.419,380.672 301,379.5C 300.333,352.833 300.333,326.167 301,299.5C 301.414,299.043 301.914,298.709 302.5,298.5C 303.18,288.341 304.347,278.341 306,268.5C 306.667,267.833 307.333,267.167 308,266.5C 308.742,260.456 309.742,254.456 311,248.5C 317.005,229.985 323.505,211.651 330.5,193.5C 331.5,193.5 332.5,193.5 333.5,193.5C 334.167,190.167 334.833,186.833 335.5,183.5C 336.5,183.5 337.5,183.5 338.5,183.5C 339.167,180.167 339.833,176.833 340.5,173.5C 341.5,173.5 342.5,173.5 343.5,173.5C 343.215,171.712 343.548,170.045 344.5,168.5C 352.462,155.137 361.128,142.137 370.5,129.5C 371.325,128.614 372.325,128.281 373.5,128.5C 376.918,122.04 380.918,116.04 385.5,110.5C 388.5,110.167 390.167,108.5 390.5,105.5C 393.168,104.901 395.002,103.234 396,100.5C 400.39,96.3864 404.89,92.3864 409.5,88.5C 410.386,87.675 410.719,86.675 410.5,85.5C 411.675,85.719 412.675,85.3857 413.5,84.5C 417.015,80.8176 420.682,77.3176 424.5,74C 425.793,73.51 427.127,73.3433 428.5,73.5C 428.281,72.325 428.614,71.325 429.5,70.5C 434.182,66.829 438.849,63.1624 443.5,59.5C 445.045,58.5481 446.712,58.2148 448.5,58.5C 448.561,56.4078 449.561,54.9078 451.5,54C 454.496,53.4784 456.829,51.9784 458.5,49.5C 460.045,48.5481 461.712,48.2148 463.5,48.5C 463.5,47.5 463.5,46.5 463.5,45.5C 467.021,45.17 470.021,43.67 472.5,41C 482.469,36.4204 492.135,31.4204 501.5,26C 505.371,24.4882 509.371,23.6549 513.5,23.5C 513.5,22.5 513.5,21.5 513.5,20.5C 529.377,15.9425 545.044,11.1092 560.5,6C 568.002,4.35209 575.668,3.18543 583.5,2.5C 583.709,1.91395 584.043,1.41395 584.5,1C 590.016,0.826691 595.349,0.326691 600.5,-0.5 Z"/></g>
<g><path style="opacity:0.99" fill="#fefffe" d="M 675.5,1279.5 C 491.5,1279.5 307.5,1279.5 123.5,1279.5C 120.375,1278.52 117.042,1278.19 113.5,1278.5C 113.5,1277.5 113.5,1276.5 113.5,1275.5C 108.29,1275.7 103.29,1275.03 98.5,1273.5C 98.5,1272.5 98.5,1271.5 98.5,1270.5C 94.0775,1270.31 89.7441,1269.64 85.5,1268.5C 85.5,1267.5 85.5,1266.5 85.5,1265.5C 82.1667,1264.83 78.8333,1264.17 75.5,1263.5C 74.6143,1259.96 72.281,1258.3 68.5,1258.5C 68.5,1257.5 68.5,1256.5 68.5,1255.5C 65.9963,1254.36 63.3297,1253.69 60.5,1253.5C 60.1667,1250.5 58.5,1248.83 55.5,1248.5C 55.5,1247.5 55.5,1246.5 55.5,1245.5C 54.1266,1245.66 52.7932,1245.49 51.5,1245C 49.6227,1242.36 47.2894,1240.19 44.5,1238.5C 43.6143,1237.68 43.281,1236.68 43.5,1235.5C 42.325,1235.72 41.325,1235.39 40.5,1234.5C 38.0861,1231.76 36.0861,1228.76 34.5,1225.5C 33.4763,1224.15 32.143,1223.48 30.5,1223.5C 29.5227,1219.54 27.5227,1216.21 24.5,1213.5C 23.5481,1211.95 23.2148,1210.29 23.5,1208.5C 22.5,1208.5 21.5,1208.5 20.5,1208.5C 19.36,1205.98 18.6933,1203.31 18.5,1200.5C 17.5,1200.5 16.5,1200.5 15.5,1200.5C 14.8333,1197.17 14.1667,1193.83 13.5,1190.5C 12.5,1190.5 11.5,1190.5 10.5,1190.5C 9.67375,1185.53 9.00708,1180.53 8.5,1175.5C 7.5,1175.5 6.5,1175.5 5.5,1175.5C 4.60692,1169.86 3.77359,1164.2 3,1158.5C 2.33333,1157.83 1.66667,1157.17 1,1156.5C 0.50005,1137.17 0.333383,1117.84 0.5,1098.5C 1.5,1098.5 2.5,1098.5 3.5,1098.5C 3.33449,1094.49 3.50115,1090.49 4,1086.5C 7.31095,1076.99 9.64428,1066.99 11,1056.5C 14.3237,1051.08 15.8237,1045.08 15.5,1038.5C 16.5,1038.5 17.5,1038.5 18.5,1038.5C 19.0071,1033.47 19.6737,1028.47 20.5,1023.5C 21.5,1023.5 22.5,1023.5 23.5,1023.5C 24.0071,1018.47 24.6737,1013.47 25.5,1008.5C 26.5,1008.5 27.5,1008.5 28.5,1008.5C 28.4327,1003.96 29.0994,999.631 30.5,995.5C 31.5,995.5 32.5,995.5 33.5,995.5C 33.8079,991.427 34.4746,987.427 35.5,983.5C 36.5,983.5 37.5,983.5 38.5,983.5C 38.6904,979.077 39.3571,974.744 40.5,970.5C 41.5,970.5 42.5,970.5 43.5,970.5C 44.6441,966.64 45.3107,962.64 45.5,958.5C 46.5,958.5 47.5,958.5 48.5,958.5C 49.1667,955.167 49.8333,951.833 50.5,948.5C 51.5,948.5 52.5,948.5 53.5,948.5C 54.1667,945.167 54.8333,941.833 55.5,938.5C 56.5,938.5 57.5,938.5 58.5,938.5C 59.1667,935.167 59.8333,931.833 60.5,928.5C 61.5,928.5 62.5,928.5 63.5,928.5C 64.1667,925.167 64.8333,921.833 65.5,918.5C 66.5,918.5 67.5,918.5 68.5,918.5C 68.6933,915.692 69.36,913.025 70.5,910.5C 71.5,910.5 72.5,910.5 73.5,910.5C 74.1667,907.167 74.8333,903.833 75.5,900.5C 76.5,900.5 77.5,900.5 78.5,900.5C 78.8844,898.071 79.551,895.737 80.5,893.5C 81.5,893.5 82.5,893.5 83.5,893.5C 83.5564,890.606 84.3897,887.939 86,885.5C 88.302,882.877 89.9687,879.877 91,876.5C 94.2977,874.837 95.7977,872.171 95.5,868.5C 96.5,868.5 97.5,868.5 98.5,868.5C 99.3408,864.433 101.341,861.099 104.5,858.5C 108.566,852.762 112.233,846.762 115.5,840.5C 116.5,840.5 117.5,840.5 118.5,840.5C 119.167,838.167 119.833,835.833 120.5,833.5C 121.5,833.5 122.5,833.5 123.5,833.5C 124.001,830.822 125.501,828.822 128,827.5C 128.856,825.132 129.69,822.798 130.5,820.5C 131.675,820.719 132.675,820.386 133.5,819.5C 136.622,816.713 138.955,813.379 140.5,809.5C 141.325,808.614 142.325,808.281 143.5,808.5C 143.833,805.5 145.5,803.833 148.5,803.5C 151.918,797.04 155.918,791.04 160.5,785.5C 163.5,785.167 165.167,783.5 165.5,780.5C 168.5,780.167 170.167,778.5 170.5,775.5C 173.5,775.167 175.167,773.5 175.5,770.5C 178.5,770.167 180.167,768.5 180.5,765.5C 183.5,765.167 185.167,763.5 185.5,760.5C 188.5,760.167 190.167,758.5 190.5,755.5C 193.5,755.167 195.167,753.5 195.5,750.5C 198.5,750.167 200.167,748.5 200.5,745.5C 203.892,743.951 206.892,741.784 209.5,739C 210.793,738.51 212.127,738.343 213.5,738.5C 213.833,735.5 215.5,733.833 218.5,733.5C 218.281,732.325 218.614,731.325 219.5,730.5C 222.421,726.896 226.088,724.563 230.5,723.5C 230.5,722.5 230.5,721.5 230.5,720.5C 233.178,719.999 235.178,718.499 236.5,716C 238.765,714.882 241.099,714.049 243.5,713.5C 243.281,712.325 243.614,711.325 244.5,710.5C 247.128,707.865 250.128,705.865 253.5,704.5C 254.853,703.476 255.52,702.143 255.5,700.5C 258.33,700.306 260.996,699.639 263.5,698.5C 264.386,694.963 266.719,693.296 270.5,693.5C 270.5,692.5 270.5,691.5 270.5,690.5C 273.025,689.36 275.692,688.693 278.5,688.5C 279.18,684.678 281.513,683.011 285.5,683.5C 285.5,682.5 285.5,681.5 285.5,680.5C 288.025,679.36 290.692,678.693 293.5,678.5C 293.5,677.5 293.5,676.5 293.5,675.5C 295.737,674.551 298.071,673.884 300.5,673.5C 300.5,672.5 300.5,671.5 300.5,670.5C 306.29,667.731 312.29,665.397 318.5,663.5C 318.5,662.5 318.5,661.5 318.5,660.5C 320.288,660.785 321.955,660.452 323.5,659.5C 327.615,656.257 331.948,653.423 336.5,651C 339.368,649.617 342.368,648.784 345.5,648.5C 345.5,647.5 345.5,646.5 345.5,645.5C 348.833,644.833 352.167,644.167 355.5,643.5C 355.5,642.5 355.5,641.5 355.5,640.5C 359.705,640.185 363.372,638.685 366.5,636C 370.535,635.202 374.535,634.369 378.5,633.5C 378.5,632.5 378.5,631.5 378.5,630.5C 384.501,629.162 390.167,627.162 395.5,624.5C 398.833,623.167 402.167,623.167 405.5,624.5C 409.98,628.16 414.147,632.16 418,636.5C 421.101,640.106 423.601,644.106 425.5,648.5C 429.5,647.833 431.167,649.5 430.5,653.5C 435.791,657.818 441.457,661.651 447.5,665C 450.76,665.422 453.426,666.922 455.5,669.5C 457.045,670.452 458.712,670.785 460.5,670.5C 460.5,671.5 460.5,672.5 460.5,673.5C 465.216,674.756 469.549,676.756 473.5,679.5C 474.853,680.524 475.52,681.857 475.5,683.5C 478.833,684.167 482.167,684.833 485.5,685.5C 485.5,686.5 485.5,687.5 485.5,688.5C 492.018,691.146 498.685,693.479 505.5,695.5C 505.5,696.5 505.5,697.5 505.5,698.5C 514.011,699.754 522.677,700.587 531.5,701C 533.044,701.29 534.377,701.956 535.5,703C 555.167,704.041 574.5,706.541 593.5,710.5C 593.5,711.5 593.5,712.5 593.5,713.5C 597.487,713.011 599.82,714.678 600.5,718.5C 603.5,718.833 605.167,720.5 605.5,723.5C 606.675,723.281 607.675,723.614 608.5,724.5C 610.5,727.5 612.5,730.5 614.5,733.5C 615.524,734.853 616.857,735.52 618.5,735.5C 618.693,738.308 619.36,740.975 620.5,743.5C 621.5,743.5 622.5,743.5 623.5,743.5C 624.167,746.833 624.833,750.167 625.5,753.5C 626.5,753.5 627.5,753.5 628.5,753.5C 628.33,758.484 629.83,762.817 633,766.5C 633.591,771.238 634.425,775.905 635.5,780.5C 636.5,780.5 637.5,780.5 638.5,780.5C 639.167,783.833 639.833,787.167 640.5,790.5C 641.5,790.5 642.5,790.5 643.5,790.5C 644.426,796.465 645.092,802.465 645.5,808.5C 646.5,808.5 647.5,808.5 648.5,808.5C 648.011,812.487 649.678,814.82 653.5,815.5C 652.744,820.187 654.244,823.853 658,826.5C 659.985,830.206 660.818,834.206 660.5,838.5C 661.5,838.5 662.5,838.5 663.5,838.5C 663.808,842.573 664.475,846.573 665.5,850.5C 666.5,850.5 667.5,850.5 668.5,850.5C 669.484,854.042 670.984,857.375 673,860.5C 674.631,864.689 675.464,869.022 675.5,873.5C 676.5,873.5 677.5,873.5 678.5,873.5C 679.167,876.833 679.833,880.167 680.5,883.5C 681.5,883.5 682.5,883.5 683.5,883.5C 684.023,888.262 685.523,892.596 688,896.5C 687.589,901.968 689.256,906.635 693,910.5C 694.889,915.254 695.722,920.254 695.5,925.5C 696.5,925.5 697.5,925.5 698.5,925.5C 697.93,931.521 699.43,936.854 703,941.5C 704.334,949.357 706.667,956.691 710,963.5C 710.783,965.433 710.283,966.933 708.5,968C 710.192,969.401 710.859,971.234 710.5,973.5C 711.5,973.5 712.5,973.5 713.5,973.5C 714.023,978.262 715.523,982.596 718,986.5C 720.087,1001.37 722.92,1016.04 726.5,1030.5C 727.935,1031.82 728.935,1033.49 729.5,1035.5C 729.883,1040.13 731.05,1044.46 733,1048.5C 733.1,1058.27 734.1,1067.94 736,1077.5C 736.414,1077.96 736.914,1078.29 737.5,1078.5C 738.208,1084.19 738.875,1089.85 739.5,1095.5C 739.167,1096.17 738.833,1096.83 738.5,1097.5C 740.104,1099.18 740.771,1101.18 740.5,1103.5C 741.5,1103.5 742.5,1103.5 743.5,1103.5C 743.953,1118.84 744.62,1134.17 745.5,1149.5C 745.283,1160.55 744.45,1171.55 743,1182.5C 740.523,1186.4 739.023,1190.74 738.5,1195.5C 737.5,1195.5 736.5,1195.5 735.5,1195.5C 735.813,1198.25 735.48,1200.91 734.5,1203.5C 732.585,1206.66 730.919,1209.99 729.5,1213.5C 728.526,1215.74 728.192,1218.08 728.5,1220.5C 727.5,1220.5 726.5,1220.5 725.5,1220.5C 724.833,1223.83 724.167,1227.17 723.5,1230.5C 722.5,1230.5 721.5,1230.5 720.5,1230.5C 720.307,1233.31 719.64,1235.98 718.5,1238.5C 717.5,1238.5 716.5,1238.5 715.5,1238.5C 715.989,1242.49 714.322,1244.82 710.5,1245.5C 710.167,1248.5 708.5,1250.17 705.5,1250.5C 704.36,1253.02 703.693,1255.69 703.5,1258.5C 701.857,1258.48 700.524,1259.15 699.5,1260.5C 697.527,1265.86 693.86,1269.19 688.5,1270.5C 688.5,1271.5 688.5,1272.5 688.5,1273.5C 685.975,1274.64 683.308,1275.31 680.5,1275.5C 680.5,1276.5 680.5,1277.5 680.5,1278.5C 678.585,1278.22 676.919,1278.55 675.5,1279.5 Z"/></g>
<g><path style="opacity:0.968" fill="#fefffe" d="M 1279.5,805.5 C 1279.5,821.5 1279.5,837.5 1279.5,853.5C 1272.5,866.167 1262.16,874.834 1248.5,879.5C 1112.5,880.833 976.5,880.833 840.5,879.5C 833.982,877.389 827.982,874.222 822.5,870C 805.808,854.099 800.975,834.933 808,812.5C 808.156,808.866 809.156,805.533 811,802.5C 814.079,798.958 816.912,795.291 819.5,791.5C 823.082,789.88 826.082,787.547 828.5,784.5C 832.18,781.991 836.18,780.158 840.5,779C 976.501,778.167 1112.5,778.333 1248.5,779.5C 1262.16,784.166 1272.5,792.833 1279.5,805.5 Z"/></g>
<g><path style="opacity:0.968" fill="#fefffe" d="M 1279.5,1005.5 C 1279.5,1021.5 1279.5,1037.5 1279.5,1053.5C 1273.63,1064.21 1265.29,1072.37 1254.5,1078C 1252.42,1078.19 1250.42,1078.69 1248.5,1079.5C 1112.5,1080.83 976.5,1080.83 840.5,1079.5C 838.577,1078.69 836.577,1078.19 834.5,1078C 825.118,1072.55 817.285,1065.39 811,1056.5C 803.667,1038.5 803.667,1020.5 811,1002.5C 816.963,993.2 824.796,986.033 834.5,981C 836.715,980.83 838.715,980.163 840.5,979C 976.5,978.333 1112.5,978.333 1248.5,979C 1262.33,983.654 1272.66,992.487 1279.5,1005.5 Z"/></g>
<g><path style="opacity:0.976" fill="#fefffe" d="M 1279.5,1205.5 C 1279.5,1221.5 1279.5,1237.5 1279.5,1253.5C 1272.52,1265.83 1262.52,1274.49 1249.5,1279.5C 1112.83,1279.5 976.167,1279.5 839.5,1279.5C 833.516,1277.19 827.849,1274.02 822.5,1270C 805.808,1254.1 800.975,1234.93 808,1212.5C 808.156,1208.87 809.156,1205.53 811,1202.5C 814.079,1198.96 816.912,1195.29 819.5,1191.5C 823.082,1189.88 826.082,1187.55 828.5,1184.5C 832.18,1181.99 836.18,1180.16 840.5,1179C 976.501,1178.17 1112.5,1178.33 1248.5,1179.5C 1262.16,1184.17 1272.5,1192.83 1279.5,1205.5 Z"/></g>
</svg>
